<?xml version="1.0" encoding="UTF-8"?> <!-- Generator: Adobe Illustrator 24.0.0, SVG Export Plug-In . SVG Version: 6.00 Build 0) --> <svg xmlns="http://www.w3.org/2000/svg" xmlns:xlink="http://www.w3.org/1999/xlink" version="1.1" id="Layer_1" x="0px" y="0px" width="20" height="20" viewBox="0 0 20 20" style="enable-background:new 0 0 20 20;" xml:space="preserve"> <style type="text/css"> .st0{fill-rule:evenodd;clip-rule:evenodd;fill:url(#SVGID_1_);} .st1{filter:url(#Adobe_OpacityMaskFilter_1_);} .st2{filter:url(#Adobe_OpacityMaskFilter_2_);} .st3{mask:url(#id14_2_);fill-rule:evenodd;clip-rule:evenodd;fill:url(#SVGID_2_);} .st4{fill-rule:evenodd;clip-rule:evenodd;fill:url(#SVGID_3_);} .st5{fill-rule:evenodd;clip-rule:evenodd;fill:url(#SVGID_4_);} .st6{fill-rule:evenodd;clip-rule:evenodd;fill:url(#SVGID_5_);} .st7{filter:url(#Adobe_OpacityMaskFilter_4_);} .st8{filter:url(#Adobe_OpacityMaskFilter_5_);} .st9{mask:url(#id0_2_);fill-rule:evenodd;clip-rule:evenodd;fill:url(#SVGID_6_);} .st10{fill-rule:evenodd;clip-rule:evenodd;fill:url(#SVGID_7_);} .st11{fill-rule:evenodd;clip-rule:evenodd;fill:#FFFFFF;} .st12{filter:url(#Adobe_OpacityMaskFilter_7_);} .st13{filter:url(#Adobe_OpacityMaskFilter_8_);} .st14{mask:url(#id2_2_);fill-rule:evenodd;clip-rule:evenodd;fill:url(#SVGID_8_);} .st15{fill-rule:evenodd;clip-rule:evenodd;fill:url(#SVGID_9_);} .st16{fill-rule:evenodd;clip-rule:evenodd;fill:url(#SVGID_10_);} .st17{filter:url(#Adobe_OpacityMaskFilter_10_);} .st18{filter:url(#Adobe_OpacityMaskFilter_11_);} .st19{mask:url(#id4_2_);fill-rule:evenodd;clip-rule:evenodd;fill:url(#SVGID_11_);} .st20{fill-rule:evenodd;clip-rule:evenodd;fill:url(#SVGID_12_);} .st21{opacity:0.51;fill-rule:evenodd;clip-rule:evenodd;fill:url(#SVGID_13_);} .st22{fill-rule:evenodd;clip-rule:evenodd;fill:url(#SVGID_14_);} .st23{filter:url(#Adobe_OpacityMaskFilter_13_);} .st24{filter:url(#Adobe_OpacityMaskFilter_14_);} .st25{mask:url(#id6_2_);fill-rule:evenodd;clip-rule:evenodd;fill:url(#SVGID_15_);} .st26{fill-rule:evenodd;clip-rule:evenodd;fill:url(#SVGID_16_);} .st27{fill-rule:evenodd;clip-rule:evenodd;fill:#EC2227;} .st28{filter:url(#Adobe_OpacityMaskFilter_16_);} .st29{filter:url(#Adobe_OpacityMaskFilter_17_);} .st30{mask:url(#id8_2_);fill-rule:evenodd;clip-rule:evenodd;fill:url(#SVGID_17_);} .st31{fill-rule:evenodd;clip-rule:evenodd;fill:url(#SVGID_18_);} .st32{fill-rule:evenodd;clip-rule:evenodd;fill:url(#SVGID_19_);} .st33{filter:url(#Adobe_OpacityMaskFilter_19_);} .st34{filter:url(#Adobe_OpacityMaskFilter_20_);} .st35{mask:url(#id10_2_);fill-rule:evenodd;clip-rule:evenodd;fill:url(#SVGID_20_);} .st36{fill-rule:evenodd;clip-rule:evenodd;fill:url(#SVGID_21_);} .st37{fill-rule:evenodd;clip-rule:evenodd;fill:#A01D21;} .st38{filter:url(#Adobe_OpacityMaskFilter_22_);} .st39{filter:url(#Adobe_OpacityMaskFilter_23_);} .st40{mask:url(#id12_2_);fill-rule:evenodd;clip-rule:evenodd;fill:url(#SVGID_22_);} .st41{fill-rule:evenodd;clip-rule:evenodd;fill:url(#SVGID_23_);} .st42{fill-rule:evenodd;clip-rule:evenodd;fill:#631112;} .st43{filter:url(#Adobe_OpacityMaskFilter_25_);} .st44{filter:url(#Adobe_OpacityMaskFilter_26_);} .st45{mask:url(#id16_2_);fill-rule:evenodd;clip-rule:evenodd;fill:url(#SVGID_24_);} .st46{fill-rule:evenodd;clip-rule:evenodd;fill:url(#SVGID_25_);} </style> <g> <linearGradient id="SVGID_1_" gradientUnits="userSpaceOnUse" x1="4354.2783" y1="-3595.5271" x2="4508.0586" y2="-3498.3506" gradientTransform="matrix(-0.1447 0 0 -0.1447 652.8427 -500.2607)"> <stop offset="0" style="stop-color:#FEC662"></stop> <stop offset="1" style="stop-color:#EE2F5C"></stop> </linearGradient> <path class="st0" d="M9.98,14.49l-2.7-1.99C1.23,7.42-0.43,5.13,0.09,5.44c4.09,2.41,12.4,7.58,15.57,8.5 c0.18,0.08,0.37,0.07,0.52-0.05c0.16-0.12,0.23-0.3,0.19-0.5c0.67,2.6-1.67,3.74-6.02,1.34C10.23,14.65,10.1,14.57,9.98,14.49z"></path> <defs> <filter id="Adobe_OpacityMaskFilter" x="0.09" y="5.44" width="16.39" height="10.29"> <feColorMatrix type="matrix" values="1 0 0 0 0 0 1 0 0 0 0 0 1 0 0 0 0 0 1 0"></feColorMatrix> </filter> </defs> <mask maskUnits="userSpaceOnUse" x="0.09" y="5.44" width="16.39" height="10.29" id="id14_2_"> <defs> <filter id="Adobe_OpacityMaskFilter_1_" x="0.08" y="5.43" width="16.42" height="10.32"> <feFlood style="flood-color:white;flood-opacity:1" result="back"></feFlood> <feBlend in="SourceGraphic" in2="back" mode="normal"></feBlend> </filter> </defs> <mask maskUnits="userSpaceOnUse" x="0.08" y="5.43" width="16.42" height="10.32" id="id14_2_" style="filter:url(#Adobe_OpacityMaskFilter);"> <g class="st1"> <defs> <filter id="Adobe_OpacityMaskFilter_2_" x="0.08" y="5.43" width="16.42" height="10.32"> <feFlood style="flood-color:white;flood-opacity:1" result="back"></feFlood> <feBlend in="SourceGraphic" in2="back" mode="normal"></feBlend> </filter> </defs> <mask maskUnits="userSpaceOnUse" x="0.08" y="5.43" width="16.42" height="10.32" id="id14_2_"> <g class="st2"> </g> </mask> <linearGradient id="SVGID_2_" gradientUnits="userSpaceOnUse" x1="4510.2603" y1="-3482.0261" x2="4400.0083" y2="-3577.5386" gradientTransform="matrix(-0.1447 0 0 -0.1447 652.8427 -500.2607)"> <stop offset="0" style="stop-color:#FFFFFF"></stop> <stop offset="1" style="stop-color:#000000"></stop> </linearGradient> <rect x="0.08" y="5.43" class="st3" width="16.42" height="10.32"></rect> </g> </mask> <linearGradient id="SVGID_3_" gradientUnits="userSpaceOnUse" x1="4510.2603" y1="-3482.0261" x2="4400.0083" y2="-3577.5386" gradientTransform="matrix(-0.1447 0 0 -0.1447 652.8427 -500.2607)"> <stop offset="0" style="stop-color:#FFFFFF"></stop> <stop offset="1" style="stop-color:#FFFFFF"></stop> </linearGradient> <rect x="0.08" y="5.43" class="st4" width="16.42" height="10.32"></rect> </mask> <linearGradient id="SVGID_4_" gradientUnits="userSpaceOnUse" x1="0.0891" y1="10.5866" x2="16.4821" y2="10.5866"> <stop offset="0" style="stop-color:#FEC662"></stop> <stop offset="1" style="stop-color:#EE2F5C"></stop> </linearGradient> <path class="st5" d="M0.09,5.44c4.09,2.41,12.4,7.58,15.57,8.5c0.18,0.08,0.37,0.07,0.52-0.05c0.16-0.12,0.23-0.3,0.19-0.5 c0.28,1.09,0.03,1.91-0.66,2.34C11.79,14.53,3.02,8.5,0.09,5.44z"></path> <linearGradient id="SVGID_5_" gradientUnits="userSpaceOnUse" x1="9.7769" y1="10.0332" x2="17.278" y2="4.5755"> <stop offset="0" style="stop-color:#F69163"></stop> <stop offset="1" style="stop-color:#EE2F5C"></stop> </linearGradient> <path class="st6" d="M5.59,14.66c-0.62,0.32-0.96,0.96-0.89,1.65v0.02c0.06,0.55,0.37,1,0.85,1.27c0.48,0.26,1.03,0.28,1.53,0.03 c1.33-0.65,2.23-1.85,2.9-3.14l-2.7-1.99C6.9,13.3,6.34,14.28,5.59,14.66z M13.64,6.18c1.76,0.01,4.38,1.53,5.11,3.19 c-0.08-0.29-0.17-0.57-0.27-0.84c-0.53-1.61-2-5.5-3.49-6.31c-0.38-0.2-0.78-0.3-1.21-0.32c-0.44-0.01-0.86,0.09-1.25,0.3 c-0.3,0.16-0.56,0.37-0.79,0.61c-1.6,1.69-2.46,4.27-3.21,6.43l-0.38,0.97c0.89,0.67,1.9,1.19,2.95,1.64 c0.13-0.35,0.42-1.18,0.55-1.53c0.44-1.29,0.91-2.67,1.55-3.87C13.29,6.27,13.44,6.18,13.64,6.18z"></path> <defs> <filter id="Adobe_OpacityMaskFilter_3_" x="13.64" y="6.17" width="5.11" height="3.2"> <feColorMatrix type="matrix" values="1 0 0 0 0 0 1 0 0 0 0 0 1 0 0 0 0 0 1 0"></feColorMatrix> </filter> </defs> <mask maskUnits="userSpaceOnUse" x="13.64" y="6.17" width="5.11" height="3.2" id="id0_2_"> <defs> <filter id="Adobe_OpacityMaskFilter_4_" x="13.63" y="6.15" width="5.13" height="3.22"> <feFlood style="flood-color:white;flood-opacity:1" result="back"></feFlood> <feBlend in="SourceGraphic" in2="back" mode="normal"></feBlend> </filter> </defs> <mask maskUnits="userSpaceOnUse" x="13.63" y="6.15" width="5.13" height="3.22" id="id0_2_" style="filter:url(#Adobe_OpacityMaskFilter_3_);"> <g class="st7"> <defs> <filter id="Adobe_OpacityMaskFilter_5_" x="13.63" y="6.15" width="5.13" height="3.22"> <feFlood style="flood-color:white;flood-opacity:1" result="back"></feFlood> <feBlend in="SourceGraphic" in2="back" mode="normal"></feBlend> </filter> </defs> <mask maskUnits="userSpaceOnUse" x="13.63" y="6.15" width="5.13" height="3.22" id="id0_2_"> <g class="st8"> </g> </mask> <linearGradient id="SVGID_6_" gradientUnits="userSpaceOnUse" x1="4396.4429" y1="-3504.0422" x2="4401.6016" y2="-3514.6545" gradientTransform="matrix(-0.1447 0 0 -0.1447 652.8427 -500.2607)"> <stop offset="0" style="stop-color:#FFFFFF"></stop> <stop offset="1" style="stop-color:#000000"></stop> </linearGradient> <rect x="13.63" y="6.15" class="st9" width="5.13" height="3.22"></rect> </g> </mask> <linearGradient id="SVGID_7_" gradientUnits="userSpaceOnUse" x1="4396.4429" y1="-3504.0422" x2="4401.6016" y2="-3514.6545" gradientTransform="matrix(-0.1447 0 0 -0.1447 652.8427 -500.2607)"> <stop offset="0" style="stop-color:#FFFFFF"></stop> <stop offset="1" style="stop-color:#FFFFFF"></stop> </linearGradient> <rect x="13.63" y="6.15" class="st10" width="5.13" height="3.22"></rect> </mask> <path class="st11" d="M13.64,6.18c1.83-0.17,4.46,1.26,5.11,3.19C18.03,7.71,15.4,6.19,13.64,6.18z"></path> <defs> <filter id="Adobe_OpacityMaskFilter_6_" x="4.69" y="6.37" width="8.55" height="11.43"> <feColorMatrix type="matrix" values="1 0 0 0 0 0 1 0 0 0 0 0 1 0 0 0 0 0 1 0"></feColorMatrix> </filter> </defs> <mask maskUnits="userSpaceOnUse" x="4.69" y="6.37" width="8.55" height="11.43" id="id2_2_"> <defs> <filter id="Adobe_OpacityMaskFilter_7_" x="4.68" y="6.36" width="8.58" height="11.46"> <feFlood style="flood-color:white;flood-opacity:1" result="back"></feFlood> <feBlend in="SourceGraphic" in2="back" mode="normal"></feBlend> </filter> </defs> <mask maskUnits="userSpaceOnUse" x="4.68" y="6.36" width="8.58" height="11.46" id="id2_2_" style="filter:url(#Adobe_OpacityMaskFilter_6_);"> <g class="st12"> <defs> <filter id="Adobe_OpacityMaskFilter_8_" x="4.68" y="6.36" width="8.58" height="11.46"> <feFlood style="flood-color:white;flood-opacity:1" result="back"></feFlood> <feBlend in="SourceGraphic" in2="back" mode="normal"></feBlend> </filter> </defs> <mask maskUnits="userSpaceOnUse" x="4.68" y="6.36" width="8.58" height="11.46" id="id2_2_"> <g class="st13"> </g> </mask> <linearGradient id="SVGID_8_" gradientUnits="userSpaceOnUse" x1="4429.0229" y1="-3571.2771" x2="4468.3789" y2="-3513.2043" gradientTransform="matrix(-0.1447 0 0 -0.1447 652.8427 -500.2607)"> <stop offset="0" style="stop-color:#FFFFFF"></stop> <stop offset="1" style="stop-color:#000000"></stop> </linearGradient> <rect x="4.68" y="6.36" class="st14" width="8.58" height="11.46"></rect> </g> </mask> <linearGradient id="SVGID_9_" gradientUnits="userSpaceOnUse" x1="4429.0229" y1="-3571.2771" x2="4468.3789" y2="-3513.2043" gradientTransform="matrix(-0.1447 0 0 -0.1447 652.8427 -500.2607)"> <stop offset="0" style="stop-color:#FFFFFF"></stop> <stop offset="1" style="stop-color:#FFFFFF"></stop> </linearGradient> <rect x="4.68" y="6.36" class="st15" width="8.58" height="11.46"></rect> </mask> <linearGradient id="SVGID_10_" gradientUnits="userSpaceOnUse" x1="11.5404" y1="9.7644" x2="5.824" y2="17.1103"> <stop offset="0" style="stop-color:#FEC662"></stop> <stop offset="1" style="stop-color:#EE2F5C"></stop> </linearGradient> <path class="st16" d="M8.36,15.15c-1.55,2.1-3.92,0.54-2.57-0.61l0,0c-0.07,0.05-0.14,0.08-0.2,0.12 c-0.62,0.32-0.96,0.96-0.89,1.65v0.02c0.06,0.55,0.37,1,0.85,1.27c0.48,0.26,1.03,0.28,1.53,0.03c1.33-0.65,2.23-1.85,2.9-3.14 l-0.81-0.6C8.9,14.37,8.63,14.8,8.36,15.15z M11.1,11.85c0.13-0.35,0.42-1.18,0.55-1.53c0.44-1.29,0.91-2.67,1.55-3.87 c0.02-0.03,0.03-0.06,0.05-0.08c-0.79,0.78-1.81,3.02-2.86,5.17C10.62,11.64,10.86,11.75,11.1,11.85z"></path> <defs> <filter id="Adobe_OpacityMaskFilter_9_" x="5.8" y="1.9" width="11.42" height="12.64"> <feColorMatrix type="matrix" values="1 0 0 0 0 0 1 0 0 0 0 0 1 0 0 0 0 0 1 0"></feColorMatrix> </filter> </defs> <mask maskUnits="userSpaceOnUse" x="5.8" y="1.9" width="11.42" height="12.64" id="id4_2_"> <defs> <filter id="Adobe_OpacityMaskFilter_10_" x="5.78" y="1.89" width="11.44" height="12.66"> <feFlood style="flood-color:white;flood-opacity:1" result="back"></feFlood> <feBlend in="SourceGraphic" in2="back" mode="normal"></feBlend> </filter> </defs> <mask maskUnits="userSpaceOnUse" x="5.78" y="1.89" width="11.44" height="12.66" id="id4_2_" style="filter:url(#Adobe_OpacityMaskFilter_9_);"> <g class="st17"> <defs> <filter id="Adobe_OpacityMaskFilter_11_" x="5.78" y="1.89" width="11.44" height="12.66"> <feFlood style="flood-color:white;flood-opacity:1" result="back"></feFlood> <feBlend in="SourceGraphic" in2="back" mode="normal"></feBlend> </filter> </defs> <mask maskUnits="userSpaceOnUse" x="5.78" y="1.89" width="11.44" height="12.66" id="id4_2_"> <g class="st18"> </g> </mask> <linearGradient id="SVGID_11_" gradientUnits="userSpaceOnUse" x1="4453.5728" y1="-3456.2368" x2="4417.9033" y2="-3552.6355" gradientTransform="matrix(-0.1447 0 0 -0.1447 652.8427 -500.2607)"> <stop offset="0" style="stop-color:#FFFFFF"></stop> <stop offset="1" style="stop-color:#000000"></stop> </linearGradient> <rect x="5.78" y="1.89" class="st19" width="11.44" height="12.66"></rect> </g> </mask> <linearGradient id="SVGID_12_" gradientUnits="userSpaceOnUse" x1="4453.5728" y1="-3456.2368" x2="4417.9033" y2="-3552.6355" gradientTransform="matrix(-0.1447 0 0 -0.1447 652.8427 -500.2607)"> <stop offset="0" style="stop-color:#FFFFFF"></stop> <stop offset="1" style="stop-color:#FFFFFF"></stop> </linearGradient> <rect x="5.78" y="1.89" class="st20" width="11.44" height="12.66"></rect> </mask> <linearGradient id="SVGID_13_" gradientUnits="userSpaceOnUse" x1="16.1829" y1="1.9097" x2="8.8888" y2="11.0662"> <stop offset="0" style="stop-color:#231F20"></stop> <stop offset="1" style="stop-color:#FFFFFF"></stop> </linearGradient> <path class="st21" d="M5.8,14.54L5.8,14.54c0.66-0.25,1.3-0.88,1.92-1.72L7.28,12.5C6.94,13.23,6.44,14.1,5.8,14.54z M8.15,10.21 l0.38-0.97c0.75-2.17,1.62-4.74,3.21-6.43c0.23-0.25,0.49-0.46,0.79-0.61c0.39-0.21,0.81-0.31,1.25-0.3 c0.43,0.01,0.83,0.11,1.21,0.32c0.79,0.43,1.58,1.74,2.22,3.11c-0.93,1.12-1.65-1.46-3.33-1.36c-1.54,0.08-3.15,3.8-4.88,6.83 C8.72,10.61,8.42,10.42,8.15,10.21z"></path> <linearGradient id="SVGID_14_" gradientUnits="userSpaceOnUse" x1="4414.4717" y1="-3506.2881" x2="4403.5991" y2="-3583.6721" gradientTransform="matrix(-0.1447 0 0 -0.1447 652.8427 -500.2607)"> <stop offset="0" style="stop-color:#C42037"></stop> <stop offset="1" style="stop-color:#F47D48"></stop> </linearGradient> <path class="st22" d="M16.37,13.39c-0.26-1.29-0.6-2.58-1.01-3.82C15,8.51,14.59,7.45,14.08,6.45c-0.09-0.17-0.24-0.27-0.44-0.27 c1.76,0.01,4.38,1.53,5.11,3.19c0.28,0.92,0.52,1.85,0.73,2.79c0.22,1,0.4,2.02,0.51,3.03c0.05,0.46-0.02,0.92-0.2,1.34 c-0.19,0.42-0.48,0.78-0.86,1.06c-0.38,0.27-0.81,0.44-1.27,0.5c-0.46,0.05-0.92-0.03-1.34-0.21c-2.05-0.91-4.07-1.94-5.97-3.15 l0.01,0.01C14.7,17.13,17.04,15.99,16.37,13.39z"></path> <defs> <filter id="Adobe_OpacityMaskFilter_12_" x="10.35" y="13.45" width="6.22" height="2.72"> <feColorMatrix type="matrix" values="1 0 0 0 0 0 1 0 0 0 0 0 1 0 0 0 0 0 1 0"></feColorMatrix> </filter> </defs> <mask maskUnits="userSpaceOnUse" x="10.35" y="13.45" width="6.22" height="2.72" id="id6_2_"> <defs> <filter id="Adobe_OpacityMaskFilter_13_" x="10.34" y="13.44" width="6.25" height="2.74"> <feFlood style="flood-color:white;flood-opacity:1" result="back"></feFlood> <feBlend in="SourceGraphic" in2="back" mode="normal"></feBlend> </filter> </defs> <mask maskUnits="userSpaceOnUse" x="10.34" y="13.44" width="6.25" height="2.74" id="id6_2_" style="filter:url(#Adobe_OpacityMaskFilter_12_);"> <g class="st23"> <defs> <filter id="Adobe_OpacityMaskFilter_14_" x="10.34" y="13.44" width="6.25" height="2.74"> <feFlood style="flood-color:white;flood-opacity:1" result="back"></feFlood> <feBlend in="SourceGraphic" in2="back" mode="normal"></feBlend> </filter> </defs> <mask maskUnits="userSpaceOnUse" x="10.34" y="13.44" width="6.25" height="2.74" id="id6_2_"> <g class="st24"> </g> </mask> <linearGradient id="SVGID_15_" gradientUnits="userSpaceOnUse" x1="4415.9072" y1="-3571.1997" x2="4419.1499" y2="-3557.5657" gradientTransform="matrix(-0.1447 0 0 -0.1447 652.8427 -500.2607)"> <stop offset="0" style="stop-color:#FFFFFF"></stop> <stop offset="1" style="stop-color:#000000"></stop> </linearGradient> <rect x="10.34" y="13.44" class="st25" width="6.25" height="2.74"></rect> </g> </mask> <linearGradient id="SVGID_16_" gradientUnits="userSpaceOnUse" x1="4415.9072" y1="-3571.1997" x2="4419.1499" y2="-3557.5657" gradientTransform="matrix(-0.1447 0 0 -0.1447 652.8427 -500.2607)"> <stop offset="0" style="stop-color:#FFFFFF"></stop> <stop offset="1" style="stop-color:#FFFFFF"></stop> </linearGradient> <rect x="10.34" y="13.44" class="st26" width="6.25" height="2.74"></rect> </mask> <path class="st27" d="M10.53,14.84c-0.06-0.04-0.12-0.08-0.19-0.12l0.01,0.01c4.32,2.39,6.65,1.28,6.03-1.28l0,0 C17.37,16.27,14.29,17.16,10.53,14.84z"></path> <defs> <filter id="Adobe_OpacityMaskFilter_15_" x="10.59" y="12.68" width="9.41" height="5.42"> <feColorMatrix type="matrix" values="1 0 0 0 0 0 1 0 0 0 0 0 1 0 0 0 0 0 1 0"></feColorMatrix> </filter> </defs> <mask maskUnits="userSpaceOnUse" x="10.59" y="12.68" width="9.41" height="5.42" id="id8_2_"> <defs> <filter id="Adobe_OpacityMaskFilter_16_" x="10.57" y="12.67" width="9.44" height="5.44"> <feFlood style="flood-color:white;flood-opacity:1" result="back"></feFlood> <feBlend in="SourceGraphic" in2="back" mode="normal"></feBlend> </filter> </defs> <mask maskUnits="userSpaceOnUse" x="10.57" y="12.67" width="9.44" height="5.44" id="id8_2_" style="filter:url(#Adobe_OpacityMaskFilter_15_);"> <g class="st28"> <defs> <filter id="Adobe_OpacityMaskFilter_17_" x="10.57" y="12.67" width="9.44" height="5.44"> <feFlood style="flood-color:white;flood-opacity:1" result="back"></feFlood> <feBlend in="SourceGraphic" in2="back" mode="normal"></feBlend> </filter> </defs> <mask maskUnits="userSpaceOnUse" x="10.57" y="12.67" width="9.44" height="5.44" id="id8_2_"> <g class="st29"> </g> </mask> <linearGradient id="SVGID_17_" gradientUnits="userSpaceOnUse" x1="4389.3472" y1="-3593.0884" x2="4416.3208" y2="-3545.3315" gradientTransform="matrix(-0.1447 0 0 -0.1447 652.8427 -500.2607)"> <stop offset="0" style="stop-color:#FFFFFF"></stop> <stop offset="1" style="stop-color:#000000"></stop> </linearGradient> <rect x="10.57" y="12.67" class="st30" width="9.44" height="5.44"></rect> </g> </mask> <linearGradient id="SVGID_18_" gradientUnits="userSpaceOnUse" x1="4389.3472" y1="-3593.0884" x2="4416.3208" y2="-3545.3315" gradientTransform="matrix(-0.1447 0 0 -0.1447 652.8427 -500.2607)"> <stop offset="0" style="stop-color:#FFFFFF"></stop> <stop offset="1" style="stop-color:#FFFFFF"></stop> </linearGradient> <rect x="10.57" y="12.67" class="st31" width="9.44" height="5.44"></rect> </mask> <linearGradient id="SVGID_19_" gradientUnits="userSpaceOnUse" x1="14.9012" y1="16.11" x2="17.5913" y2="13.5924"> <stop offset="0" style="stop-color:#FEC662"></stop> <stop offset="1" style="stop-color:#EE2F5C"></stop> </linearGradient> <path class="st32" d="M19.59,12.68c0.17,0.83,0.31,1.67,0.39,2.51c0.05,0.46-0.02,0.92-0.2,1.34c-0.19,0.42-0.48,0.78-0.86,1.06 c-0.38,0.27-0.81,0.44-1.27,0.5c-0.46,0.05-0.92-0.03-1.34-0.21c-1.97-0.87-3.9-1.85-5.73-3C16.67,18.55,19.78,16.53,19.59,12.68z"></path> <defs> <filter id="Adobe_OpacityMaskFilter_18_" x="13.64" y="6.18" width="5.7" height="5.37"> <feColorMatrix type="matrix" values="1 0 0 0 0 0 1 0 0 0 0 0 1 0 0 0 0 0 1 0"></feColorMatrix> </filter> </defs> <mask maskUnits="userSpaceOnUse" x="13.64" y="6.18" width="5.7" height="5.37" id="id10_2_"> <defs> <filter id="Adobe_OpacityMaskFilter_19_" x="13.63" y="6.17" width="5.72" height="5.4"> <feFlood style="flood-color:white;flood-opacity:1" result="back"></feFlood> <feBlend in="SourceGraphic" in2="back" mode="normal"></feBlend> </filter> </defs> <mask maskUnits="userSpaceOnUse" x="13.63" y="6.17" width="5.72" height="5.4" id="id10_2_" style="filter:url(#Adobe_OpacityMaskFilter_18_);"> <g class="st33"> <defs> <filter id="Adobe_OpacityMaskFilter_20_" x="13.63" y="6.17" width="5.72" height="5.4"> <feFlood style="flood-color:white;flood-opacity:1" result="back"></feFlood> <feBlend in="SourceGraphic" in2="back" mode="normal"></feBlend> </filter> </defs> <mask maskUnits="userSpaceOnUse" x="13.63" y="6.17" width="5.72" height="5.4" id="id10_2_"> <g class="st34"> </g> </mask> <linearGradient id="SVGID_20_" gradientUnits="userSpaceOnUse" x1="4394.3848" y1="-3486.4456" x2="4401.0181" y2="-3550.1208" gradientTransform="matrix(-0.1447 0 0 -0.1447 652.8427 -500.2607)"> <stop offset="0" style="stop-color:#FFFFFF"></stop> <stop offset="1" style="stop-color:#000000"></stop> </linearGradient> <rect x="13.63" y="6.17" class="st35" width="5.72" height="5.4"></rect> </g> </mask> <linearGradient id="SVGID_21_" gradientUnits="userSpaceOnUse" x1="4394.3848" y1="-3486.4456" x2="4401.0181" y2="-3550.1208" gradientTransform="matrix(-0.1447 0 0 -0.1447 652.8427 -500.2607)"> <stop offset="0" style="stop-color:#FFFFFF"></stop> <stop offset="1" style="stop-color:#FFFFFF"></stop> </linearGradient> <rect x="13.63" y="6.17" class="st36" width="5.72" height="5.4"></rect> </mask> <path class="st37" d="M15.31,9.41c-0.34-1.01-0.75-2.01-1.23-2.96c-0.09-0.17-0.24-0.27-0.44-0.27c1.76,0.01,4.38,1.53,5.11,3.19 c0.22,0.72,0.42,1.45,0.59,2.19C17.95,10.28,16.6,9.57,15.31,9.41z"></path> <defs> <filter id="Adobe_OpacityMaskFilter_21_" x="13.64" y="6.18" width="5.34" height="3.95"> <feColorMatrix type="matrix" values="1 0 0 0 0 0 1 0 0 0 0 0 1 0 0 0 0 0 1 0"></feColorMatrix> </filter> </defs> <mask maskUnits="userSpaceOnUse" x="13.64" y="6.18" width="5.34" height="3.95" id="id12_2_"> <defs> <filter id="Adobe_OpacityMaskFilter_22_" x="13.63" y="6.17" width="5.36" height="3.97"> <feFlood style="flood-color:white;flood-opacity:1" result="back"></feFlood> <feBlend in="SourceGraphic" in2="back" mode="normal"></feBlend> </filter> </defs> <mask maskUnits="userSpaceOnUse" x="13.63" y="6.17" width="5.36" height="3.97" id="id12_2_" style="filter:url(#Adobe_OpacityMaskFilter_21_);"> <g class="st38"> <defs> <filter id="Adobe_OpacityMaskFilter_23_" x="13.63" y="6.17" width="5.36" height="3.97"> <feFlood style="flood-color:white;flood-opacity:1" result="back"></feFlood> <feBlend in="SourceGraphic" in2="back" mode="normal"></feBlend> </filter> </defs> <mask maskUnits="userSpaceOnUse" x="13.63" y="6.17" width="5.36" height="3.97" id="id12_2_"> <g class="st39"> </g> </mask> <linearGradient id="SVGID_22_" gradientUnits="userSpaceOnUse" x1="4395.5508" y1="-3507.5784" x2="4401.1963" y2="-3517.4397" gradientTransform="matrix(-0.1447 0 0 -0.1447 652.8427 -500.2607)"> <stop offset="0" style="stop-color:#FFFFFF"></stop> <stop offset="1" style="stop-color:#000000"></stop> </linearGradient> <rect x="13.63" y="6.17" class="st40" width="5.36" height="3.97"></rect> </g> </mask> <linearGradient id="SVGID_23_" gradientUnits="userSpaceOnUse" x1="4395.5508" y1="-3507.5784" x2="4401.1963" y2="-3517.4397" gradientTransform="matrix(-0.1447 0 0 -0.1447 652.8427 -500.2607)"> <stop offset="0" style="stop-color:#FFFFFF"></stop> <stop offset="1" style="stop-color:#FFFFFF"></stop> </linearGradient> <rect x="13.63" y="6.17" class="st41" width="5.36" height="3.97"></rect> </mask> <path class="st42" d="M18.98,10.13c-0.88-1.35-2.88-2.5-4.43-2.7c-0.15-0.33-0.3-0.66-0.46-0.98c-0.09-0.17-0.24-0.27-0.44-0.27 c1.76,0.01,4.38,1.53,5.11,3.19C18.83,9.62,18.9,9.87,18.98,10.13z"></path> <defs> <filter id="Adobe_OpacityMaskFilter_24_" x="9.45" y="13.39" width="7.03" height="2.66"> <feColorMatrix type="matrix" values="1 0 0 0 0 0 1 0 0 0 0 0 1 0 0 0 0 0 1 0"></feColorMatrix> </filter> </defs> <mask maskUnits="userSpaceOnUse" x="9.45" y="13.39" width="7.03" height="2.66" id="id16_2_"> <defs> <filter id="Adobe_OpacityMaskFilter_25_" x="9.44" y="13.38" width="7.05" height="2.68"> <feFlood style="flood-color:white;flood-opacity:1" result="back"></feFlood> <feBlend in="SourceGraphic" in2="back" mode="normal"></feBlend> </filter> </defs> <mask maskUnits="userSpaceOnUse" x="9.44" y="13.38" width="7.05" height="2.68" id="id16_2_" style="filter:url(#Adobe_OpacityMaskFilter_24_);"> <g class="st43"> <defs> <filter id="Adobe_OpacityMaskFilter_26_" x="9.44" y="13.38" width="7.05" height="2.68"> <feFlood style="flood-color:white;flood-opacity:1" result="back"></feFlood> <feBlend in="SourceGraphic" in2="back" mode="normal"></feBlend> </filter> </defs> <mask maskUnits="userSpaceOnUse" x="9.44" y="13.38" width="7.05" height="2.68" id="id16_2_"> <g class="st44"> </g> </mask> <linearGradient id="SVGID_24_" gradientUnits="userSpaceOnUse" x1="4420.208" y1="-3571.1211" x2="4424.0405" y2="-3546.1372" gradientTransform="matrix(-0.1447 0 0 -0.1447 652.8427 -500.2607)"> <stop offset="0" style="stop-color:#FFFFFF"></stop> <stop offset="1" style="stop-color:#000000"></stop> </linearGradient> <rect x="9.44" y="13.38" class="st45" width="7.05" height="2.68"></rect> </g> </mask> <linearGradient id="SVGID_25_" gradientUnits="userSpaceOnUse" x1="4420.208" y1="-3571.1211" x2="4424.0405" y2="-3546.1372" gradientTransform="matrix(-0.1447 0 0 -0.1447 652.8427 -500.2607)"> <stop offset="0" style="stop-color:#FFFFFF"></stop> <stop offset="1" style="stop-color:#FFFFFF"></stop> </linearGradient> <rect x="9.44" y="13.38" class="st46" width="7.05" height="2.68"></rect> </mask> <path class="st37" d="M9.98,14.49L9.45,14.1l0,0c1.64,1.05,5.92,2.35,6.13-0.19c0.03,0.01,0.06,0.02,0.08,0.03 c0.18,0.08,0.37,0.07,0.52-0.05c0.16-0.12,0.23-0.3,0.19-0.5c0.67,2.6-1.67,3.74-6.02,1.34C10.23,14.65,10.1,14.57,9.98,14.49z"></path> </g> <g> </g> <g> </g> <g> </g> <g> </g> <g> </g> </svg> 