<?xml version="1.0" encoding="utf-8"?>
<!-- Generator: Adobe Illustrator 27.0.1, SVG Export Plug-In . SVG Version: 6.00 Build 0)  -->
<svg version="1.1" id="Layer_1" xmlns="http://www.w3.org/2000/svg" xmlns:xlink="http://www.w3.org/1999/xlink" x="0px" y="0px"
	width="190" height="52" viewBox="0 0 190 52" style="enable-background:new 0 0 190 52;" xml:space="preserve">
<style type="text/css">
	.st0{fill:#F47A20;}
	.st1{fill:#1B415D;}
</style>
<g>
	<g>
		<g>
			<g>
				<g>
					<g>
						<path class="st0" d="M51.85,37.29c-0.76,2.52-3.09,4.25-5.72,4.25l-26.59,0.02c-2.44,0-4.78-1.04-6.42-2.85
							c-1.64-1.81-2.44-4.24-2.2-6.67l2.14-21.44c0.23-2.26-1.35-4.35-3.58-4.76L2.8,4.6C1.64,4.38,0.87,3.27,1.09,2.11l0,0
							C1.3,0.96,2.41,0.19,3.57,0.4l6.67,1.23c4.4,0.81,7.49,4.93,7.05,9.38l-2.12,21.29c-0.12,1.21,0.19,2.44,0.96,3.37
							c0.85,1.03,2.07,1.61,3.4,1.61H51.85L51.85,37.29z"/>
					</g>
				</g>
				<g>
					
						<ellipse transform="matrix(0.6769 -0.7361 0.7361 0.6769 -28.669 29.3001)" class="st0" cx="19.04" cy="47.31" rx="4.32" ry="4.32"/>
				</g>
				<g>
					
						<ellipse transform="matrix(0.7071 -0.7071 0.7071 0.7071 -21.9214 41.6927)" class="st0" cx="39.37" cy="47.31" rx="4.32" ry="4.32"/>
				</g>
			</g>
			<g>
				<g>
					<path class="st0" d="M69.25,34.82h-9.62c-2.29,0-3.43-0.92-3.43-2.75c0-0.61,0.15-1.28,0.46-2.01c0.7-1.64,1.69-2.81,2.98-3.52
						c1.15-0.62,2.65-0.93,4.5-0.93h4.1c0.18-0.54,0.23-0.86,0.15-0.96c-0.15-0.19-0.72-0.28-1.73-0.28h-6.71l1.68-3.95h7.43
						c1.54,0,2.65,0.24,3.33,0.71c0.78,0.54,1.17,1.32,1.17,2.36c0,0.78-0.22,1.7-0.67,2.74L69.25,34.82z M63.6,29.44
						c-0.63,0-1.08,0.05-1.35,0.16c-0.34,0.14-0.6,0.43-0.79,0.87c-0.03,0.08-0.07,0.15-0.11,0.21c-0.04,0.06-0.04,0.11-0.01,0.13
						c0.1,0.1,0.36,0.15,0.79,0.15h3.9l0.65-1.53H63.6z"/>
				</g>
			</g>
			<g>
				<g>
					<path class="st0" d="M93.71,24.37h-7.04c-0.9,0-1.47,0.24-1.71,0.71c-0.06,0.23-0.04,0.37,0.05,0.43
						c0.05,0.03,0.2,0.05,0.44,0.05h3.15c2.56,0,3.84,0.85,3.84,2.56c0,0.58-0.16,1.25-0.48,2c-0.56,1.32-1.32,2.39-2.26,3.23
						c-1.12,0.98-2.35,1.48-3.71,1.48H76.2l1.67-3.93h7.63c0.98,0,1.61-0.35,1.88-1.06c0.02-0.05,0.03-0.09,0.03-0.13
						c0-0.14-0.25-0.21-0.75-0.21h-3c-0.11,0-0.24,0-0.41,0.01c-0.16,0.01-0.27,0.01-0.33,0.01c-2.19,0-3.29-0.81-3.29-2.41
						c0-0.62,0.17-1.33,0.52-2.14c1.29-3.03,3.59-4.55,6.9-4.55h8.33L93.71,24.37z"/>
				</g>
			</g>
			<g>
				<g>
					<path class="st0" d="M111.12,24.26h-3.67l-2.12,4.98c-0.26,0.62-0.38,1.13-0.36,1.53c0,0.07,0.04,0.1,0.12,0.1h0.05h3.17
						l-1.68,3.95h-3.51c-1.49,0-2.49-0.47-3.01-1.41c-0.23-0.4-0.34-0.86-0.34-1.38c0-0.64,0.17-1.36,0.52-2.17l2.38-5.6h-2.39
						l1.64-3.85h2.39l2.03-4.79h4.79l-2.04,4.79h3.67L111.12,24.26z"/>
				</g>
			</g>
		</g>
	</g>
	<path class="st0" d="M52.6,11.48H20.32L18.2,31.33c-0.23,2.13,1.44,3.99,3.58,3.99h27.91c1.69,0,3.2-1.07,3.75-2.67l2.9-15.9
		C57.24,14.16,55.33,11.48,52.6,11.48z M51.88,18.86h-6.9c-2.51,0-4.49,1.14-5.92,3.42h11.37l-1.97,4.64H36.99l-3.56,8.39h-5.54
		l4.39-10.26c1.05-2.46,1.91-4.22,2.58-5.27c1.16-1.81,2.57-3.16,4.22-4.02c1.99-1.05,4.54-1.57,7.64-1.57h7.14L51.88,18.86z"/>
	<g>
		<g>
			<path class="st1" d="M159.95,44.56c0,0.67-1.02,0.67-1.02,0C158.93,43.88,159.95,43.88,159.95,44.56z"/>
			<path class="st1" d="M163.57,44.56c-0.4,0.4-0.83,0.55-1.35,0.55c-1.02,0-1.86-0.61-1.86-1.85c0-1.24,0.84-1.85,1.86-1.85
				c0.5,0,0.88,0.14,1.26,0.52l-0.55,0.58c-0.21-0.18-0.46-0.28-0.7-0.28c-0.58,0-1.01,0.43-1.01,1.04c0,0.67,0.45,1.02,0.99,1.02
				c0.28,0,0.55-0.08,0.77-0.29L163.57,44.56z"/>
			<path class="st1" d="M167.5,43.26c0,1.01-0.69,1.82-1.82,1.82c-1.14,0-1.82-0.82-1.82-1.82c0-1,0.7-1.82,1.81-1.82
				C166.78,41.44,167.5,42.26,167.5,43.26z M164.72,43.26c0,0.53,0.32,1.03,0.95,1.03c0.63,0,0.95-0.5,0.95-1.03
				c0-0.53-0.37-1.04-0.95-1.04C165.05,42.22,164.72,42.73,164.72,43.26z"/>
			<path class="st1" d="M170.42,45.01v-1.87c0-0.46-0.24-0.88-0.72-0.88c-0.47,0-0.75,0.42-0.75,0.88v1.87h-0.87V41.5h0.8l0.06,0.43
				c0.18-0.35,0.59-0.48,0.92-0.48c0.42,0,0.84,0.17,1.04,0.65c0.31-0.5,0.72-0.64,1.17-0.64c0.99,0,1.48,0.61,1.48,1.66v1.89h-0.87
				v-1.89c0-0.46-0.19-0.85-0.66-0.85c-0.47,0-0.76,0.4-0.76,0.87v1.87H170.42z"/>
			<path class="st1" d="M175.45,44.56c0,0.67-1.02,0.67-1.02,0C174.43,43.88,175.45,43.88,175.45,44.56z"/>
			<path class="st1" d="M177.2,40.04v1.94c0.21-0.36,0.78-0.56,1.15-0.56c1.02,0,1.78,0.62,1.78,1.83c0,1.15-0.77,1.83-1.8,1.83
				c-0.43,0-0.86-0.14-1.13-0.56l-0.06,0.48h-0.81v-4.96H177.2z M177.25,43.25c0,0.63,0.47,1.03,1.01,1.03
				c0.55,0,0.99-0.42,0.99-1.03c0-0.63-0.44-1.02-0.99-1.02C177.72,42.23,177.25,42.64,177.25,43.25z"/>
			<path class="st1" d="M184.4,40.04v4.96h-0.81l-0.06-0.48c-0.27,0.42-0.7,0.56-1.13,0.56c-1.03,0-1.8-0.68-1.8-1.83
				c0-1.21,0.76-1.83,1.78-1.83c0.37,0,0.94,0.2,1.15,0.56v-1.94H184.4z M181.47,43.25c0,0.61,0.44,1.03,0.99,1.03
				c0.55,0,1.02-0.4,1.02-1.03c0-0.61-0.47-1.02-1.02-1.02C181.91,42.23,181.47,42.62,181.47,43.25z"/>
		</g>
		<g>
			<g>
				<path class="st1" d="M131.12,24.52h-4.79c-1.15,0-2.08,0.29-2.81,0.88c-0.65,0.52-1.22,1.36-1.71,2.52
					c-0.32,0.74-0.48,1.33-0.48,1.79c0,0.28,0.06,0.5,0.18,0.64c0.25,0.3,0.9,0.46,1.95,0.46h4.99l-1.71,4.03h-5.03
					c-2.15,0-3.68-0.55-4.59-1.65c-0.56-0.68-0.84-1.51-0.84-2.5c0-0.96,0.26-2.05,0.79-3.28c1.98-4.65,5.39-6.98,10.22-6.98h5.59
					L131.12,24.52z"/>
				<path class="st1" d="M148.59,34.82h-9.62c-2.29,0-3.43-0.92-3.43-2.75c0-0.61,0.15-1.28,0.46-2.01c0.7-1.64,1.69-2.81,2.98-3.52
					c1.15-0.62,2.65-0.93,4.5-0.93h4.1c0.18-0.54,0.23-0.86,0.15-0.96c-0.15-0.19-0.72-0.28-1.73-0.28h-6.71l1.68-3.95h7.43
					c1.54,0,2.65,0.24,3.33,0.71c0.78,0.54,1.17,1.32,1.17,2.36c0,0.78-0.22,1.7-0.67,2.74L148.59,34.82z M142.94,29.44
					c-0.63,0-1.08,0.05-1.35,0.16c-0.34,0.14-0.6,0.43-0.79,0.87c-0.03,0.08-0.07,0.15-0.11,0.21c-0.04,0.06-0.04,0.11-0.01,0.13
					c0.1,0.1,0.36,0.15,0.79,0.15h3.9l0.65-1.53H142.94z"/>
				<path class="st1" d="M169.74,27.14h-4.6c0.15-0.35,0.39-0.9,0.71-1.66c0.23-0.56,0.4-0.99,0.49-1.3c-0.11,0-0.21,0-0.28,0
					c-0.05,0-0.11,0-0.16,0l-0.88,0l-4.52,10.65h-4.75l6.12-14.41h6.17c2.18,0,3.27,0.69,3.27,2.06c0,0.65-0.24,1.54-0.71,2.64
					L169.74,27.14z"/>
				<path class="st1" d="M187.31,24.26h-3.67l-2.12,4.98c-0.26,0.62-0.38,1.13-0.36,1.53c0,0.07,0.04,0.1,0.12,0.1h0.05h3.17
					l-1.68,3.95h-3.51c-1.49,0-2.49-0.47-3.01-1.41c-0.23-0.4-0.34-0.86-0.34-1.38c0-0.64,0.17-1.36,0.52-2.17l2.38-5.6h-2.39
					l1.64-3.85h2.39l2.03-4.79h4.79l-2.04,4.79h3.67L187.31,24.26z"/>
			</g>
			<path class="st1" d="M124.57,47c0,0,0.87-4.11,1.25-5.3s1.77-2.76,4.95-3.23s35.58-5.1,52.6,0
				C183.37,38.48,146.69,36.91,124.57,47z"/>
		</g>
	</g>
</g>
</svg>
