<?xml version="1.0" encoding="utf-8"?>
<!-- Generator: Adobe Illustrator 27.3.1, SVG Export Plug-In . SVG Version: 6.00 Build 0)  -->
<svg version="1.1" id="Layer_1" xmlns="http://www.w3.org/2000/svg" xmlns:xlink="http://www.w3.org/1999/xlink" x="0px" y="0px"
	width="330" height="70" viewBox="0 0 330 70" style="enable-background:new 0 0 330 70;" xml:space="preserve">
<style type="text/css">
	.st0{fill:#1B415D;}
	.st1{fill:#1C61E7;}
</style>
<g>
	<g>
		<path class="st0" d="M119,49.08h-16.71c-3.98,0-5.96-1.6-5.96-4.78c0-1.06,0.26-2.22,0.8-3.49c1.22-2.85,2.94-4.88,5.18-6.12
			c2-1.08,4.6-1.62,7.82-1.62h7.12c0.31-0.94,0.4-1.49,0.26-1.67c-0.26-0.33-1.25-0.49-3.01-0.49h-11.66l2.92-6.86h12.91
			c2.68,0,4.6,0.42,5.79,1.23c1.36,0.94,2.03,2.29,2.03,4.1c0,1.36-0.38,2.95-1.16,4.76L119,49.08z M109.19,39.73
			c-1.09,0-1.88,0.09-2.35,0.28c-0.59,0.24-1.04,0.75-1.37,1.51c-0.05,0.14-0.12,0.26-0.19,0.36c-0.07,0.1-0.07,0.19-0.02,0.23
			c0.17,0.17,0.63,0.26,1.37,0.26h6.78l1.13-2.66h-5.35V39.73z"/>
	</g>
</g>
<g>
	<g>
		<path class="st0" d="M161.5,30.92h-12.23c-1.56,0-2.55,0.42-2.97,1.23c-0.1,0.4-0.07,0.64,0.09,0.75
			c0.09,0.05,0.35,0.09,0.76,0.09h5.47c4.45,0,6.67,1.48,6.67,4.45c0,1.01-0.28,2.17-0.83,3.47c-0.97,2.29-2.29,4.15-3.93,5.61
			c-1.95,1.7-4.08,2.57-6.45,2.57h-17.01l2.9-6.83h13.26c1.7,0,2.8-0.61,3.27-1.84c0.03-0.09,0.05-0.16,0.05-0.23
			c0-0.24-0.43-0.36-1.3-0.36h-5.21c-0.19,0-0.42,0-0.71,0.02c-0.28,0.02-0.47,0.02-0.57,0.02c-3.8,0-5.72-1.41-5.72-4.19
			c0-1.08,0.3-2.31,0.9-3.72c2.24-5.26,6.24-7.9,11.99-7.9h14.47L161.5,30.92z"/>
	</g>
</g>
<g>
	<g>
		<path class="st0" d="M191.75,30.73h-6.38l-3.68,8.65c-0.45,1.08-0.66,1.96-0.63,2.66c0,0.12,0.07,0.17,0.21,0.17h0.09h5.51
			l-2.92,6.86h-6.1c-2.59,0-4.33-0.82-5.23-2.45c-0.4-0.69-0.59-1.49-0.59-2.4c0-1.11,0.3-2.36,0.9-3.77l4.13-9.73h-4.15l2.85-6.69
			h4.15l3.53-8.32h8.32l-3.54,8.32h6.38L191.75,30.73z"/>
	</g>
</g>
<g>
	<g>
		<path class="st0" d="M276.58,66c0,1.16-1.77,1.16-1.77,0C274.81,64.82,276.58,64.82,276.58,66z"/>
		<path class="st0" d="M282.87,66c-0.69,0.69-1.44,0.96-2.35,0.96c-1.77,0-3.23-1.06-3.23-3.21s1.46-3.21,3.23-3.21
			c0.87,0,1.53,0.24,2.19,0.9l-0.96,1.01c-0.36-0.31-0.8-0.49-1.22-0.49c-1.01,0-1.75,0.75-1.75,1.81c0,1.16,0.78,1.77,1.72,1.77
			c0.49,0,0.96-0.14,1.34-0.5L282.87,66z"/>
		<path class="st0" d="M289.7,63.74c0,1.75-1.2,3.16-3.16,3.16c-1.98,0-3.16-1.42-3.16-3.16s1.22-3.16,3.14-3.16
			C288.45,60.58,289.7,62,289.7,63.74z M284.87,63.74c0,0.92,0.56,1.79,1.65,1.79s1.65-0.87,1.65-1.79s-0.64-1.81-1.65-1.81
			C285.44,61.93,284.87,62.82,284.87,63.74z"/>
		<path class="st0" d="M294.77,66.78v-3.25c0-0.8-0.42-1.53-1.25-1.53c-0.82,0-1.3,0.73-1.3,1.53v3.25h-1.51v-6.1h1.39l0.1,0.75
			c0.31-0.61,1.03-0.83,1.6-0.83c0.73,0,1.46,0.3,1.81,1.13c0.54-0.87,1.25-1.11,2.03-1.11c1.72,0,2.57,1.06,2.57,2.88v3.28h-1.51
			V63.5c0-0.8-0.33-1.48-1.15-1.48s-1.32,0.69-1.32,1.51v3.25H294.77z"/>
		<path class="st0" d="M303.51,66c0,1.16-1.77,1.16-1.77,0C301.74,64.82,303.51,64.82,303.51,66z"/>
		<path class="st0" d="M306.55,58.15v3.37c0.36-0.63,1.36-0.97,2-0.97c1.77,0,3.09,1.08,3.09,3.18c0,2-1.34,3.18-3.13,3.18
			c-0.75,0-1.49-0.24-1.96-0.97l-0.1,0.83h-1.41v-8.62H306.55z M306.64,63.72c0,1.09,0.82,1.79,1.75,1.79
			c0.96,0,1.72-0.73,1.72-1.79c0-1.09-0.76-1.77-1.72-1.77C307.45,61.95,306.64,62.66,306.64,63.72z"/>
		<path class="st0" d="M319.06,58.15v8.62h-1.41l-0.1-0.83c-0.47,0.73-1.22,0.97-1.96,0.97c-1.79,0-3.13-1.18-3.13-3.18
			c0-2.1,1.32-3.18,3.09-3.18c0.64,0,1.63,0.35,2,0.97v-3.37H319.06z M313.97,63.72c0,1.06,0.76,1.79,1.72,1.79s1.77-0.69,1.77-1.79
			c0-1.06-0.82-1.77-1.77-1.77S313.97,62.63,313.97,63.72z"/>
	</g>
	<g>
		<g>
			<path class="st0" d="M226.49,31.18h-8.32c-2,0-3.61,0.5-4.88,1.53c-1.13,0.9-2.12,2.36-2.97,4.38c-0.56,1.29-0.83,2.31-0.83,3.11
				c0,0.49,0.1,0.87,0.31,1.11c0.43,0.52,1.56,0.8,3.39,0.8h8.67l-2.97,7h-8.74c-3.74,0-6.39-0.96-7.97-2.87
				c-0.97-1.18-1.46-2.62-1.46-4.34c0-1.67,0.45-3.56,1.37-5.7c3.44-8.08,9.36-12.13,17.76-12.13h9.71L226.49,31.18z"/>
			<path class="st0" d="M256.84,49.08h-16.71c-3.98,0-5.96-1.6-5.96-4.78c0-1.06,0.26-2.22,0.8-3.49c1.22-2.85,2.94-4.88,5.18-6.12
				c2-1.08,4.6-1.62,7.82-1.62h7.12c0.31-0.94,0.4-1.49,0.26-1.67c-0.26-0.33-1.25-0.49-3.01-0.49h-11.66l2.92-6.86h12.91
				c2.68,0,4.6,0.42,5.79,1.23c1.36,0.94,2.03,2.29,2.03,4.1c0,1.36-0.38,2.95-1.16,4.76L256.84,49.08z M247.03,39.73
				c-1.09,0-1.88,0.09-2.35,0.28c-0.59,0.24-1.04,0.75-1.37,1.51c-0.05,0.14-0.12,0.26-0.19,0.36c-0.07,0.1-0.07,0.19-0.02,0.23
				c0.17,0.17,0.63,0.26,1.37,0.26h6.78l1.13-2.66h-5.35L247.03,39.73L247.03,39.73z"/>
			<path class="st0" d="M293.59,35.73h-7.99c0.26-0.61,0.68-1.56,1.23-2.88c0.4-0.97,0.69-1.72,0.85-2.26c-0.19,0-0.36,0-0.49,0
				c-0.09,0-0.19,0-0.28,0h-1.53l-7.85,18.5h-8.25l10.63-25.03h10.72c3.79,0,5.68,1.2,5.68,3.58c0,1.13-0.42,2.68-1.23,4.59
				L293.59,35.73z"/>
			<path class="st0" d="M324.11,30.73h-6.38l-3.68,8.65c-0.45,1.08-0.66,1.96-0.63,2.66c0,0.12,0.07,0.17,0.21,0.17h0.09h5.51
				l-2.92,6.86h-6.1c-2.59,0-4.33-0.82-5.23-2.45c-0.4-0.69-0.59-1.49-0.59-2.4c0-1.11,0.3-2.36,0.9-3.77l4.13-9.73h-4.15l2.85-6.69
				h4.15l3.53-8.32h8.32l-3.54,8.32h6.38L324.11,30.73z"/>
		</g>
		<path class="st0" d="M215.11,70.24c0,0,1.51-7.14,2.17-9.21s3.08-4.8,8.6-5.61c5.52-0.82,61.81-8.86,91.38,0
			C317.27,55.44,253.54,52.71,215.11,70.24z"/>
	</g>
</g>
<g>
	<g>
		<path class="st1" d="M31.17,48.36c0.62,3.8,3.91,6.69,7.89,6.69h8.11c-0.08-1.05-0.12-2.12-0.12-3.2c0-14.8,7.74-27.8,19.4-35.16
			H43.06C36.21,25.56,31.88,36.47,31.17,48.36z"/>
		<path class="st1" d="M87.03,19.93c-16.92,0.82-30.39,14.8-30.39,31.93c0,1.08,0.05,2.15,0.16,3.2h11.27
			c-0.16-1.04-0.24-2.11-0.24-3.2c0-11.47,9.3-20.78,20.78-20.78v-6.39C88.6,22.91,88.02,21.26,87.03,19.93z"/>
		<path class="st1" d="M88.6,40.67c-6.18,0-11.19,5.01-11.19,11.19c0,1.11,0.16,2.18,0.46,3.2h2.73c4.41,0,7.99-3.58,7.99-7.99v-6.4
			H88.6z"/>
	</g>
	<g>
		<path class="st1" d="M47.12,65.23v-3.32H34.64c-2.22,0-4.26-0.97-5.68-2.69c-1.29-1.55-1.8-3.61-1.6-5.63l3.54-35.55
			c0.73-7.43-4.42-14.31-11.77-15.66L7.99,0.33C6.05-0.02,4.2,1.26,3.85,3.18C3.48,5.12,4.77,6.97,6.7,7.34l11.15,2.07
			c3.72,0.68,6.36,4.17,5.98,7.95l-3.57,35.8c-0.4,4.06,0.94,8.11,3.67,11.14s6.65,4.76,10.72,4.76l12.46-0.01v-3.16
			C47.1,65.66,47.1,65.44,47.12,65.23z"/>
		<path class="st1" d="M77.88,61.91v3.65v3.46h1.17c4.39,0,8.28-2.89,9.55-7.1V61.9L77.88,61.91L77.88,61.91z"/>
		<polygon class="st1" points="56.84,61.91 56.84,69.04 68.16,69.03 68.16,61.91 		"/>
	</g>
	<g>
		<circle class="st0" cx="51.9" cy="65.37" r="3.59"/>
		<circle class="st0" cx="73.1" cy="65.37" r="3.59"/>
	</g>
</g>
</svg>
