<?xml version="1.0" encoding="utf-8"?>
<!-- Generator: Adobe Illustrator 28.5.0, SVG Export Plug-In . SVG Version: 9.03 Build 54727)  -->
<svg version="1.1" id="Layer_1" xmlns="http://www.w3.org/2000/svg" xmlns:xlink="http://www.w3.org/1999/xlink" x="0px" y="0px"
	width="150" height="100" viewBox="0 0 150 100" style="enable-background:new 0 0 150 100;" xml:space="preserve">
<style type="text/css">
	.st0{fill:#EB1C2E;}
	.st1{fill:#FAB231;}
	.st2{fill:#FDFDFD;}
</style>
<g>
	<g>
		<path class="st0" d="M75.05,76.64c-0.61,0.24-1.01,0.75-1.49,1.14c-6.11,5.05-13.15,7.61-21.03,8.02
			c-16.4,0.87-33.81-10.65-36.91-30.08c-3.49-21.84,12.3-37.74,27.76-40.78c11.51-2.27,21.93,0.28,30.97,7.93
			c0.23,0.19,0.48,0.36,0.72,0.55c0.68,0.83,1.61,1.43,2.3,2.49c-1.3,0-2.42,0-3.54,0c-1.43,0-2.18,0.52-2.79,1.98
			c0.3,0,0.57,0,0.83,0c2.01,0,4.01,0,6.02,0c1.41,0,2.53,0.92,2.88,2.42c-3.53,0-7.05,0-10.56,0c-1.22,0-1.9,0.65-2.06,1.98
			c0.31,0,0.61,0,0.91,0c4.12,0,8.25,0,12.37,0c0.27,0,0.61-0.12,0.78,0.14c0.43,0.65,0.82,1.32,1.04,2.18c-0.42,0-0.72,0-1.02,0
			c-4.95,0-9.9,0-14.85,0.01c-0.31,0-0.71-0.14-0.86,0.28c-0.19,0.53-0.56,1-0.6,1.58c0.32,0.17,0.63,0.1,0.92,0.1
			c5.53,0.01,11.05,0,16.58,0.01c0.34,0,0.75-0.13,0.92,0.33c0.23,0.63,0.55,1.23,0.61,1.99c-2.72,0-5.38,0-8.04,0
			c-3.74,0-7.48,0-11.22,0.01c-0.27,0-0.65-0.16-0.79,0.24c-0.19,0.54-0.43,1.06-0.46,1.73c0.5,0,0.96,0,1.42,0
			c6.32,0,12.65,0,18.97,0.01c0.32,0,0.76-0.18,0.87,0.36c0.13,0.61,0.38,1.2,0.28,1.88c-0.17,0.03-0.33,0.08-0.49,0.08
			c-7.12,0-14.24-0.01-21.36-0.02c-1.09-0.18-2.17-0.04-3.31-0.08c-0.37,2.12-0.73,4.17-1.09,6.22c-0.41,2.35-0.84,4.7-1.23,7.05
			c-0.27,1.63,0.22,2.3,1.85,2.58c1.04,0.17,2.08,0.11,3.1-0.14c0.29-0.07,0.64-0.15,0.72-0.48c0.16-0.67,0.26-1.36,0.41-2.16
			c-0.54,0.21-0.94,0.26-1.36,0.25c-1.07-0.01-1.36-0.37-1.18-1.43c0.19-1.13,0.37-2.27,0.55-3.41c0.62,0.34,0.06,1.03,0.53,1.56
			c0.49,0,1.09,0,1.68,0c0.01,0.1,0.02,0.21,0.03,0.31c-0.1,0.08-0.09,0.16,0.01,0.23c0.12,1.6,0.64,3.03,2.03,3.96
			c2.38,1.59,4.98,1.69,7.67,1.03c0.38-0.09,0.73-0.31,0.8-0.74c0.14-0.82,0.25-1.64,0.38-2.54c-0.73,0.31-1.35,0.61-2.02,0.74
			c-1.43,0.26-2.85,0.34-4.16-0.45c-0.96-0.58-1.31-1.3-1.1-2.26c0.2-0.01,0.42-0.04,0.63-0.04c2.09,0,4.18-0.02,6.26,0.04
			c0.67,0.02,0.96-0.23,1.02-0.85c0.1-0.96,0.25-1.91,0.12-2.87c-0.32-2.3-1.68-3.63-4-3.91c-3.79-0.45-6.52,1.48-7.5,5.32
			c-0.75,0.01-1.5,0.02-2.25,0.02c0.04-0.27,0.08-0.54,0.12-0.81c0.27-1.55,0.27-1.55,1.83-1.57c0.28,0,0.58,0.04,0.63-0.34
			c0.12-0.77,0.23-1.54,0.34-2.33c-0.69-0.17-1.32,0.04-1.9-0.15c-0.06-0.32-0.02-0.55,0.11-0.77c7.5,0,15,0,22.55,0
			c0.04,0.39,0.07,0.68,0.1,0.98c-0.92,1.54-1.41,3.22-1.69,4.98c-1.25,0-2.5-0.01-3.75-0.01c0.41-1.26,1.37-1.69,2.59-1.79
			c0.29-0.02,0.73,0.16,0.84-0.3c0.26-1.05,0.6-2.07,1.2-3.08c-1.89-0.29-3.01,0.77-4.24,2.08c0.15-0.82,0.25-1.37,0.37-2.06
			c-0.96,0-1.81,0.03-2.65-0.01c-0.65-0.03-0.92,0.21-1.02,0.87c-0.38,2.47-0.82,4.93-1.24,7.4c-0.26,1.56-0.53,3.12-0.8,4.76
			c0.64,0,1.19,0,1.73,0c1.62,0.02,1.62,0.02,2.01-1.47c2,0,4,0,6.08,0c-0.1,0.44-0.17,0.75-0.25,1.07
			c-0.37,1.56-0.3,1.24-1.62,1.24c-6.13,0.01-12.26,0-18.39,0.01c-0.32,0-0.66-0.08-0.96,0.1c0.01,1.59,0.29,1.88,1.78,1.88
			c5.72,0,11.44,0,17.15,0.01c0.31,0,0.66-0.1,0.97,0.14c0.06,0.4-0.22,0.72-0.3,1.09c-0.19,0.86-0.68,1.13-1.58,1.12
			c-5.2-0.05-10.39-0.03-15.59-0.02c-0.31,0-0.65-0.11-0.94,0.12c0.39,1.71,0.57,1.86,2.2,1.86c4.48,0,8.96,0,13.44,0.01
			c0.31,0,0.65-0.12,0.94,0.14c-0.02,0.48-0.4,0.78-0.54,1.19c-0.28,0.78-0.79,1.02-1.64,1.01c-3.77-0.05-7.53-0.03-11.3-0.02
			c-0.28,0-0.61-0.14-0.86,0.21c0.12,0.2,0.26,0.4,0.35,0.63c0.37,0.9,0.98,1.19,1.98,1.16c2.83-0.08,5.66-0.03,8.49-0.02
			c0.28,0,0.6-0.11,0.88,0.15c-0.2,0.56-0.67,0.93-0.97,1.41c-0.42,0.69-1,0.9-1.8,0.87c-1.67-0.06-3.35-0.02-5.03-0.01
			c-0.24,0-0.55-0.14-0.73,0.18c0.7,1.07,1.43,2,2.94,1.73c0.61-0.11,1.29-0.13,1.94,0.08c-0.18,0.42-0.52,0.62-0.77,0.91
			C75.55,76.06,75.2,76.26,75.05,76.64z M38.31,49.15c0.08,0.1,0.18,0.08,0.29,0.04c1.4-0.52,2.86-0.48,4.32-0.48
			c0.52,0,1.06,0.06,1.49,0.4c0.43,0.34,0.58,0.8,0.41,1.32c-0.17,0.51-0.61,0.35-0.98,0.33c-1.24-0.06-2.48,0.01-3.69,0.29
			c-1.82,0.41-3.11,1.49-3.69,3.29c-0.78,2.41,0.46,4.48,2.88,4.83c1.38,0.2,2.68-0.08,3.84-0.88c0.18-0.13,0.31-0.4,0.63-0.31
			c0,0.33,0,0.65,0,1.05c0.88,0,1.72-0.01,2.57,0c0.41,0,0.48-0.26,0.54-0.58c0.48-2.62,0.99-5.23,1.44-7.86
			c0.44-2.58-0.58-4.04-3.15-4.56c-1.81-0.36-3.61-0.17-5.4,0.15c-0.39,0.07-0.75,0.24-0.87,0.67c-0.21,0.76-0.4,1.53-0.6,2.3
			c-0.02,0.02-0.04,0.03-0.05,0.05c0,0.01,0.02,0.03,0.03,0.04C38.31,49.21,38.31,49.18,38.31,49.15z M26.99,43.12
			c-1.72,0-3.34,0.02-4.95-0.01c-0.58-0.01-0.8,0.13-0.9,0.74c-0.37,2.36-0.81,4.71-1.22,7.07c-0.46,2.68-0.91,5.35-1.38,8.12
			c0.86,0,1.65-0.04,2.44,0.01c0.65,0.05,0.9-0.16,1-0.82c0.37-2.45,0.79-4.88,1.21-7.32c0.2-1.17,0.42-2.35,0.63-3.52
			c0.06,0.01,0.12,0.01,0.18,0.02c0.22,3.86,0.45,7.71,0.67,11.63c1.05,0,2.01-0.04,2.96,0.02c0.61,0.04,0.86-0.21,1.07-0.74
			c1.31-3.23,2.66-6.45,4-9.67c0.11-0.26,0.12-0.59,0.61-0.83c-0.66,3.8-1.3,7.48-1.94,11.19c1.17,0,2.2,0,3.29,0
			c0.93-5.27,1.86-10.51,2.8-15.86c-1.96,0-3.82,0-5.68,0c-0.41,0-0.45,0.35-0.56,0.61c-1.06,2.53-2.12,5.07-3.19,7.6
			c-0.11,0.26-0.13,0.58-0.52,0.81C27.34,49.14,27.17,46.19,26.99,43.12z M58.58,46.14c-1.98-0.35-3.85-0.56-5.75-0.21
			c-0.54,0.1-1.07,0.27-1.55,0.54c-1.55,0.88-2.05,2.29-1.94,3.97c0.1,1.53,0.98,2.44,2.4,2.91c0.47,0.15,0.93,0.34,1.37,0.55
			c0.51,0.25,0.98,0.58,0.88,1.24c-0.11,0.72-0.62,1.09-1.28,1.22c-0.62,0.12-1.26,0.07-1.89-0.04c-0.8-0.14-1.61-0.29-2.46-0.44
			c-0.17,0.77-0.33,1.49-0.5,2.21c-0.08,0.34,0.05,0.54,0.37,0.61c2.48,0.48,4.96,0.74,7.36-0.3c1.63-0.71,2.33-2.14,2.22-4.12
			c-0.09-1.68-1.1-2.48-2.59-2.88c-0.26-0.07-0.53-0.16-0.77-0.28c-0.25-0.11-0.49-0.25-0.71-0.41c-0.35-0.27-0.69-0.59-0.61-1.09
			c0.08-0.51,0.51-0.68,0.93-0.83c0.72-0.26,1.46-0.18,2.2-0.12c0.54,0.04,1.07,0.23,1.68,0.11C58.17,47.94,58.36,47.09,58.58,46.14
			z"/>
		<path class="st1" d="M75.05,76.64c0.15-0.38,0.5-0.58,0.75-0.86c0.25-0.29,0.6-0.49,0.77-0.91c-0.66-0.21-1.33-0.19-1.94-0.08
			c-1.52,0.27-2.25-0.65-2.94-1.73c0.18-0.32,0.49-0.17,0.73-0.18c1.68-0.01,3.36-0.05,5.03,0.01c0.8,0.03,1.37-0.19,1.8-0.87
			c0.3-0.48,0.77-0.85,0.97-1.41c-0.28-0.26-0.6-0.15-0.88-0.15c-2.83-0.01-5.66-0.06-8.49,0.02c-1,0.03-1.61-0.27-1.98-1.16
			c-0.09-0.22-0.24-0.42-0.35-0.63c0.25-0.35,0.58-0.21,0.86-0.21c3.77-0.01,7.53-0.04,11.3,0.02c0.84,0.01,1.36-0.23,1.64-1.01
			c0.15-0.4,0.53-0.71,0.54-1.19c-0.29-0.26-0.63-0.14-0.94-0.14c-4.48-0.01-8.96-0.01-13.44-0.01c-1.63,0-1.8-0.15-2.2-1.86
			c0.28-0.23,0.63-0.12,0.94-0.12c5.2-0.01,10.39-0.03,15.59,0.02c0.91,0.01,1.39-0.26,1.58-1.12c0.08-0.37,0.36-0.68,0.3-1.09
			c-0.31-0.24-0.65-0.14-0.97-0.14c-5.72-0.01-11.44-0.01-17.15-0.01c-1.49,0-1.77-0.3-1.78-1.88c0.3-0.18,0.64-0.1,0.96-0.1
			c6.13-0.01,12.26,0,18.39-0.01c1.32,0,1.25,0.32,1.62-1.24c0.07-0.32,0.15-0.63,0.25-1.07c-2.09,0-4.08,0-6.08,0
			c0.12-0.67,0.23-1.34,0.35-2.01c1.75,0,3.51,0,5.26,0.01c2.11,3.05,4.73,4.11,8.22,3.31c0.62-0.14,1.31-0.3,1.5-1
			c0.24-0.88,0.36-1.8,0.54-2.73c-0.45-0.01-0.67,0.23-0.94,0.35c-2.91,1.3-5.78-0.16-6.14-3.13c-0.07-0.58,0.04-1.15,0.13-1.72
			c0.54-3.47,2.96-5.24,6.31-4.59c0.69,0.13,1.34,0.42,2.01,0.63c0.24-0.4,0.22-0.83,0.3-1.23c0.42-2.17,0.43-2.21-1.77-2.62
			c-3.69-0.69-6.87,0.1-9.13,3.36c-0.03-0.29-0.06-0.59-0.1-0.98c-7.54,0-15.05,0-22.55,0c0.08-0.67,0.17-1.33,0.25-2
			c7.12,0.01,14.24,0.02,21.36,0.02c0.16,0,0.31-0.05,0.49-0.08c0.1-0.68-0.15-1.27-0.28-1.88c-0.11-0.53-0.55-0.36-0.87-0.36
			c-6.32-0.01-12.65-0.01-18.97-0.01c-0.46,0-0.93,0-1.42,0c0.03-0.67,0.27-1.19,0.46-1.73c0.14-0.4,0.51-0.24,0.79-0.24
			c3.74-0.01,7.48-0.01,11.22-0.01c2.66,0,5.33,0,8.04,0c-0.05-0.76-0.38-1.36-0.61-1.99c-0.17-0.46-0.58-0.33-0.92-0.33
			c-5.53-0.01-11.05,0-16.58-0.01c-0.29,0-0.6,0.07-0.92-0.1c0.04-0.58,0.41-1.05,0.6-1.58c0.15-0.43,0.55-0.28,0.86-0.28
			c4.95-0.01,9.9,0,14.85-0.01c0.3,0,0.6,0,1.02,0c-0.22-0.86-0.61-1.54-1.04-2.18c-0.17-0.25-0.51-0.13-0.78-0.14
			c-4.12-0.01-8.25,0-12.37,0c-0.3,0-0.6,0-0.91,0c0.16-1.33,0.84-1.98,2.06-1.98c3.52,0,7.03,0,10.56,0
			c-0.35-1.5-1.47-2.42-2.88-2.42c-2.01,0-4.01,0-6.02,0c-0.27,0-0.53,0-0.83,0c0.61-1.47,1.36-1.98,2.79-1.98c1.12,0,2.24,0,3.54,0
			c-0.69-1.05-1.62-1.66-2.3-2.49c5.55-5.06,12.04-8.07,19.52-8.96c14.99-1.79,29.64,5.95,36.42,19.28
			c7.68,15.09,3.67,33.57-9.54,44.15c-5.92,4.74-12.68,7.32-20.19,7.84C91.27,86.42,82.58,83.17,75.05,76.64z M123.73,59.04
			c0.84,0,1.71-0.03,2.58,0.01c0.51,0.02,0.71-0.15,0.79-0.67c0.47-2.87,0.98-5.73,1.47-8.6c0.37-2.16,0.75-4.31,1.14-6.58
			c-0.94,0-1.78,0.03-2.62-0.01c-0.55-0.03-0.75,0.16-0.83,0.72c-0.17,1.24-0.43,2.46-0.68,3.84c-0.71-0.83-1.43-1.38-2.39-1.56
			c-2.08-0.38-3.81,0.26-5.18,1.82c-1.58,1.79-2.27,3.92-2.12,6.31c0.17,2.59,1.63,4.43,3.83,4.82c1.55,0.27,2.85-0.29,3.98-1.34
			C123.95,58.22,123.58,58.57,123.73,59.04z M103.75,59.03c0.89,0,1.71-0.02,2.53,0.01c0.49,0.01,0.59-0.28,0.66-0.66
			c0.49-2.62,1.02-5.22,1.48-7.84c0.42-2.39-0.64-3.94-3.01-4.46c-1.86-0.4-3.71-0.24-5.56,0.11c-0.36,0.07-0.72,0.21-0.84,0.59
			c-0.24,0.77-0.44,1.56-0.65,2.33c0.32,0.14,0.51,0,0.72-0.05c1.51-0.32,3.03-0.49,4.57-0.25c0.7,0.11,1.15,0.51,1.19,1.26
			c0.03,0.49-0.08,0.77-0.69,0.7c-1.35-0.16-2.69,0.04-4,0.33c-2.11,0.46-3.32,1.83-3.78,3.89c-0.5,2.27,0.94,4.11,3.26,4.26
			c1.5,0.1,2.8-0.37,4.02-1.37C103.68,58.29,103.71,58.6,103.75,59.03z M108.15,59.04c0.91,0,1.76-0.04,2.59,0.01
			c0.67,0.05,0.9-0.2,1-0.85c0.31-2.03,0.64-4.07,1.06-6.08c0.42-2.01,1.26-2.72,3.28-2.99c0.31-0.04,0.6-0.06,0.67-0.47
			c0.14-0.88,0.3-1.76,0.46-2.71c-1.58,0.11-2.66,0.9-3.62,2.02c-0.07-0.68,0.26-1.23,0.06-1.96c-0.83,0-1.7,0.02-2.57-0.01
			c-0.54-0.01-0.79,0.22-0.87,0.75c-0.15,1.14-0.33,2.28-0.53,3.42C109.19,53.09,108.68,56,108.15,59.04z M132.63,57.4
			c-0.01-0.97-0.75-1.65-1.77-1.62c-0.96,0.03-1.65,0.72-1.66,1.67c-0.01,0.9,0.84,1.73,1.74,1.71
			C131.88,59.14,132.64,58.35,132.63,57.4z"/>
		<path class="st1" d="M80.66,53.13c0.02-0.69,0.12-1.36,0.44-1.99c1.25,0,2.5,0.01,3.75,0.01c-0.01,0.67-0.01,1.33-0.02,2
			C83.44,53.15,82.05,53.14,80.66,53.13z"/>
		<path class="st1" d="M62.61,51.61c0.05-0.14,0.1-0.29,0.15-0.43c0.75-0.01,1.5-0.02,2.25-0.02c-0.06,0.67-0.13,1.34-0.19,2.02
			c-0.59,0-1.19,0-1.68,0C62.67,52.64,63.23,51.95,62.61,51.61z"/>
		<path class="st1" d="M64.84,53.48c0,0.08,0.01,0.16,0.01,0.24C64.75,53.64,64.75,53.57,64.84,53.48z"/>
		<path class="st2" d="M38.31,49.15c0,0.03-0.01,0.07-0.01,0.1c-0.01-0.01-0.03-0.04-0.03-0.04c0.01-0.02,0.04-0.03,0.05-0.05
			C38.33,49.16,38.31,49.15,38.31,49.15z"/>
		<path class="st0" d="M80.66,53.13c1.39,0.01,2.78,0.01,4.17,0.02c0.23,0.8,0.46,1.6,0.69,2.4c-1.75,0-3.51,0-5.26-0.01
			C80.33,54.73,80.45,53.92,80.66,53.13z"/>
		<path class="st2" d="M132.63,57.4c0.01,0.96-0.74,1.74-1.68,1.76c-0.91,0.02-1.75-0.82-1.74-1.71c0.01-0.95,0.7-1.64,1.66-1.67
			C131.87,55.75,132.61,56.42,132.63,57.4z M132.24,57.47c0.02-0.79-0.52-1.39-1.28-1.41c-0.75-0.03-1.36,0.56-1.39,1.32
			c-0.03,0.76,0.56,1.4,1.29,1.41C131.63,58.81,132.22,58.24,132.24,57.47z"/>
		<path class="st0" d="M43.45,52.92c0.74-0.11,0.93,0.19,0.78,0.9c-0.37,1.63-1.16,2.42-2.69,2.53c-0.6,0.05-1.18-0.06-1.45-0.7
			c-0.25-0.6-0.08-1.13,0.36-1.58C41.28,53.23,42.35,53.03,43.45,52.92z"/>
		<path class="st0" d="M68.85,51.01c0.14-0.77,0.4-1.36,0.87-1.83c0.61-0.61,1.34-0.84,2.18-0.56c0.85,0.29,1.21,0.96,1.35,1.8
			c0.07,0.44-0.1,0.6-0.53,0.6C71.47,51.01,70.21,51.01,68.85,51.01z"/>
		<path class="st1" d="M119.8,53.43c-0.03-1.59,0.48-2.81,1.49-3.78c1.26-1.21,2.95-0.75,3.36,0.95c0.44,1.83,0.02,3.5-1.43,4.78
			c-1.45,1.28-3.01,0.69-3.36-1.21C119.81,53.86,119.81,53.55,119.8,53.43z"/>
		<path class="st1" d="M104.31,53.49c-0.05,1.67-1.35,2.9-3.01,2.88c-0.89-0.01-1.42-0.68-1.2-1.55c0.17-0.7,0.68-1.12,1.28-1.42
			c0.7-0.34,1.46-0.48,2.23-0.53C104.02,52.84,104.39,52.95,104.31,53.49z"/>
		<path class="st1" d="M132.24,57.47c-0.02,0.77-0.61,1.34-1.38,1.32c-0.74-0.02-1.32-0.66-1.29-1.41c0.03-0.76,0.64-1.35,1.39-1.32
			C131.72,56.08,132.26,56.68,132.24,57.47z M130.9,57.56c0.12,0.16,0.23,0.31,0.33,0.46c-0.2-0.48,0.93-1.1-0.13-1.39
			c-0.29-0.08-0.73-0.18-0.81,0.27c-0.06,0.36-0.16,0.79,0.07,1.13C130.74,58.05,130.58,57.67,130.9,57.56z"/>
		<path class="st2" d="M130.9,57.56c-0.32,0.1-0.16,0.49-0.52,0.48c-0.23-0.35-0.13-0.77-0.07-1.13c0.07-0.45,0.52-0.35,0.81-0.27
			c1.06,0.28-0.07,0.91,0.13,1.39C131.13,57.87,131.02,57.72,130.9,57.56z"/>
		<rect x="18.12" y="45.2" class="st0" width="68.31" height="5.81"/>
		<rect x="17.75" y="52.42" class="st0" width="68.31" height="3.13"/>
		<rect x="62.61" y="51.02" class="st1" width="68.31" height="1.41"/>
		<path class="st1" d="M64.03,57.46h65.59c0.44,0,0.8-0.36,0.8-0.8v-0.52c0-0.44-0.36-0.8-0.8-0.8H64.03c-0.44,0-0.8,0.36-0.8,0.8
			v0.52C63.24,57.11,63.59,57.46,64.03,57.46z"/>
		<rect x="18.53" y="57.42" class="st0" width="67.46" height="2.44"/>
		<rect x="18.12" y="43.11" class="st0" width="46.28" height="16.75"/>
		<rect x="124.81" y="55.35" class="st1" width="8.59" height="3.29"/>
		<rect x="86.44" y="41.6" class="st1" width="46.19" height="18.27"/>
	</g>
	<g>
		<path class="st2" d="M32.23,40.22c4.65-6.72,11.21-8.35,18.83-6.93c4.55,0.85,4.53,0.94,3.66,5.41c-0.16,0.82-0.12,1.7-0.62,2.53
			c-1.38-0.44-2.73-1.02-4.14-1.3c-6.9-1.34-11.9,2.31-13.01,9.47c-0.18,1.17-0.41,2.34-0.26,3.55c0.75,6.13,6.66,9.14,12.67,6.46
			c0.55-0.25,1.01-0.74,1.94-0.72c-0.36,1.92-0.61,3.81-1.1,5.63c-0.4,1.45-1.82,1.78-3.09,2.07c-7.21,1.65-12.61-0.54-16.97-6.83
			c-0.47-1.65-0.95-3.29-1.42-4.94c0.01-1.37,0.03-2.75,0.04-4.12C29.33,46.87,30.33,43.39,32.23,40.22z"/>
		<path class="st2" d="M108.94,66.74c-0.3-0.95,0.45-1.69-0.04-2.56c-2.34,2.16-5.02,3.32-8.21,2.76c-4.56-0.8-7.57-4.6-7.91-9.94
			c-0.31-4.92,1.12-9.31,4.37-13.02c2.82-3.21,6.39-4.55,10.68-3.76c1.98,0.37,3.47,1.51,4.93,3.22c0.51-2.83,1.05-5.36,1.4-7.92
			c0.16-1.15,0.57-1.54,1.72-1.48c1.74,0.08,3.48,0.02,5.41,0.02c-0.81,4.68-1.58,9.12-2.35,13.57c-1.02,5.91-2.07,11.81-3.03,17.73
			c-0.17,1.07-0.57,1.43-1.63,1.39C112.48,66.69,110.68,66.74,108.94,66.74z M100.83,55.17c0.02,0.26,0.02,0.89,0.13,1.5
			c0.72,3.94,3.93,5.15,6.93,2.5c2.98-2.63,3.85-6.08,2.95-9.86c-0.84-3.5-4.33-4.45-6.93-1.95
			C101.82,49.37,100.78,51.88,100.83,55.17z"/>
		<path class="st2" d="M67.73,66.74c-0.08-0.89-0.14-1.54-0.21-2.41c-2.52,2.06-5.2,3.03-8.29,2.83c-4.79-0.32-7.76-4.1-6.72-8.79
			c0.94-4.25,3.44-7.08,7.79-8.02c2.71-0.59,5.47-1.01,8.26-0.67c1.26,0.15,1.49-0.43,1.43-1.44c-0.09-1.55-1.02-2.38-2.45-2.59
			c-3.17-0.48-6.32-0.14-9.43,0.52c-0.42,0.09-0.81,0.4-1.48,0.1c0.44-1.59,0.85-3.21,1.34-4.8c0.24-0.78,0.99-1.07,1.73-1.21
			c3.81-0.72,7.64-1.07,11.47-0.23c4.89,1.07,7.08,4.27,6.2,9.19c-0.96,5.4-2.04,10.79-3.05,16.18c-0.15,0.79-0.35,1.4-1.36,1.37
			C71.26,66.71,69.57,66.74,67.73,66.74z M68.88,55.3c0.18-1.11-0.59-1.33-1.45-1.27c-1.58,0.12-3.16,0.39-4.6,1.1
			c-1.25,0.62-2.29,1.49-2.64,2.93c-0.45,1.79,0.63,3.17,2.48,3.19C66.1,61.29,68.77,58.75,68.88,55.3z"/>
		<path class="st2" d="M76.8,66.75c1.09-6.26,2.15-12.27,3.18-18.29c0.4-2.34,0.77-4.69,1.09-7.05c0.15-1.11,0.67-1.58,1.79-1.55
			c1.79,0.05,3.59,0.01,5.3,0.01c0.42,1.5-0.27,2.64-0.12,4.04c1.99-2.32,4.21-3.95,7.46-4.17c-0.34,1.95-0.66,3.77-0.96,5.59
			c-0.13,0.83-0.75,0.87-1.38,0.96c-4.17,0.57-5.9,2.03-6.76,6.17c-0.86,4.16-1.54,8.35-2.18,12.55c-0.21,1.34-0.69,1.85-2.07,1.76
			C80.42,66.66,78.68,66.75,76.8,66.75z"/>
	</g>
</g>
</svg>
