<?xml version="1.0" encoding="UTF-8"?>
<svg id="Layer_1" xmlns="http://www.w3.org/2000/svg" version="1.1" xmlns:xlink="http://www.w3.org/1999/xlink" width="160" height="46" viewBox="0 0 160 46">
  <!-- Generator: Adobe Illustrator 29.0.1, SVG Export Plug-In . SVG Version: 2.1.0 Build 192)  -->
  <defs>
    <style>
      .st0 {
        fill: #fff;
      }

      .st1 {
        fill: url(#linear-gradient);
      }
    </style>
    <linearGradient id="linear-gradient" x1="14.2" y1="23" x2="31.6" y2="23" gradientUnits="userSpaceOnUse">
      <stop offset="0" stop-color="#0082f8"/>
      <stop offset="1" stop-color="#1c40f2"/>
    </linearGradient>
  </defs>
  <path class="st0" d="M18.2,2.4c2.5-1.5,5.5-1.5,8,0l11.4,6.6c2.4,1.4,3.9,4,3.9,6.8v13.5c0,2.8-1.5,5.4-3.9,6.8l-11.3,6.6c-2.5,1.5-5.5,1.5-8,0l-11.4-6.5c-2.4-1.4-3.9-4-3.9-6.8v-13.6c0-2.8,1.5-5.4,3.9-6.8l11.3-6.6Z"/>
  <path class="st1" d="M25.4,10.2h-.8v9.9h-3.5v-5.9h-6.9v15.1c0,3.6,2.8,6.4,6.2,6.4h.8v-9.4h3.5v6.2h6.9v-15.9c0-3.5-2.8-6.4-6.2-6.4ZM19.6,34.1c-2.2-.4-3.9-2.4-3.9-4.8v-2.9h3.9v7.7ZM30,31h-3.9v-6.2h-10.4v-9h3.9v5.9h10.4v9.3ZM30,20.2h-3.9v-8.3c2.2.4,3.9,2.4,3.9,4.8v3.5Z"/>
  <g>
    <path class="st0" d="M69.3,14.5v15.3h-4.4v-5.8h-6.6v5.7h-4.3v-5.2c0-2.6,1.2-3.9,3.5-3.9h7.5v-6.2h4.3ZM54,21.3v-6.8h4.4v5.2h-.9c-1.1,0-2.6.2-3.5,1.6Z"/>
    <path class="st0" d="M88,18.4v1c-1-1.3-2.4-1.6-3.5-1.6h-7.6c-1.1,0-1.1.9-1.1,1.3v6.4h-1.9c-1.1,0-2.5-.8-2.5-2.7v-4.4c0-2.2,1.6-3.9,3.6-3.9h9.4c2,0,3.6,1.7,3.6,3.9ZM88,22.6v3.2c0,2.1-1.6,3.9-3.6,3.9h-9.4c-2,0-3.6-1.7-3.6-3.9v-.6c.5.8,1.8,1.2,2.5,1.2h8.6c1.1,0,1.1-.9,1.1-1.2v-6.4h.9c2.3,0,3.5,1.3,3.5,3.8Z"/>
    <path class="st0" d="M106.8,14.5c-.5,2.3-1.9,3.3-4.1,3.3h-8.2c-1.9,0-4,.6-4.6,2.7,0-.3,0-.7,0-1.1v-.4c0-2.6,2.2-4.6,4.2-4.6h12.8s0,.1,0,.1ZM106.9,25.2c0,2.6-2.2,4.5-4.2,4.5h-8.7c-1.8,0-3.8-1.4-4.1-3.3h11.6c1.2,0,1.2-1.2,1.2-1.2h0c0-.4,0-1.2-1.2-1.2h-7.5c-1.1,0-2.3-.5-3-1.4-.2-.3-.3-.7-.3-1.1,0-1.9,2-2.6,3.5-2.6v.6c0,.3,0,1.2,1.1,1.2h7.5c2.3,0,4.1,2.1,4.1,4.5Z"/>
    <path class="st0" d="M123.5,14.5c0,1.8-1.8,3.3-3.7,3.3h-13.1c.2-1.7,1.7-3.3,3.5-3.3,0,0,13.3,0,13.3,0ZM117.3,18.8v10.9h-4.3v-10.9h4.3Z"/>
    <path class="st0" d="M124.6,14.5h4.4v3.3h-4.4v-3.3ZM124.6,18.8h4.4v11h-4.4v-11Z"/>
    <path class="st0" d="M130.2,17.8c.2-1.7,1.7-3.3,3.6-3.3h12.4v3.5l-2.4,2.3v-.3c0-1.7-1.8-2.2-3-2.2h-10.6ZM137.2,26.4h9.8c-.1,1.5-1.4,3.3-3.6,3.3h-12.3v-3.3l8.4-7.7h1.3c1,0,2.2.3,2.2,1.6s-.1.6-.2.9l-5.6,5.2Z"/>
    <path class="st0" d="M148.3,14.5h4.4v3.3h-4.4v-3.3ZM148.3,18.8h4.4v11h-4.4v-11Z"/>
  </g>
</svg>