<?xml version="1.0" encoding="UTF-8"?>
<svg id="Layer_1" xmlns="http://www.w3.org/2000/svg" version="1.1" viewBox="0 0 240 60">
  <!-- Generator: Adobe Illustrator 29.0.1, SVG Export Plug-In . SVG Version: 2.1.0 Build 192)  -->
  <defs>
    <style>
      .st0 {
        fill: #df146e;
      }

      .st1 {
        fill: #f4f4f4;
      }

      .st2 {
        fill: #013085;
      }
    </style>
  </defs>
  <path class="st2" d="M122.11,27.29c1.16,1.96.33,5.55-2.13,5.87-5.06.65-1.9-8.56,2.13-5.87Z"/>
  <path class="st1" d="M218.31,2.44l-197.53.12c-25.32,3.01-27.4,47.69-2.56,54.37,67.85.78,135.95.94,203.78-.08,24.96-7.14,22.36-52.26-3.68-54.41Z"/>
  <g>
    <path class="st0" d="M188.18,33.29l-22.07-3.51,2.99,13.03,19.08-9.51ZM189.07,32.23l-17.35-24.1-5.67,20.5,23.02,3.6ZM164.98,28.34l-18.18-23.22,23.81,2.85-5.63,20.38ZM156.16,18.72l-10.09-9.51h2.65l7.44,9.51ZM194.49,20.52l-4.27,11.58-6.92-9.57,11.19-2.01ZM171.79,42.65l16.75-6.73.71-2.14-17.46,8.86ZM157.82,54.88l7.18-25.19,3.64,16.39-10.82,8.8ZM195.51,20.6l-1.76,4.78,6.35-.11-4.58-4.67Z"/>
    <g>
      <path class="st0" d="M123.76,22.42v7.93c1.38-.77,3.47-7.48,4.06-7.84.75-.47,3.34.12,4.45-.1l.29,6.24c3.66-2,1.92-8.27,7.65-5.95,0,.81-6.39,14.02-7.04,14.49-1.13.81-2.46.51-3.73.53l-1.12-8.5c-1.56,3.21-3.36,11.49-7.86,7.57l-.65-14.37h3.97Z"/>
      <path class="st0" d="M96.01,29.78c1.5.15.91.03,1.12-.84.24-1.03.88-6.2,1.2-6.46l3.91-.05c-.85,2.06-2.42,14.39-3.36,15.04-3.93,2.75-5.01-4.51-6.22-6.87-.3-.59.3-1.07-1.18-.81l-1.41,7.37-3.12.56c-.58-.58,2.14-14.59,2.8-15.05,3.88-2.7,5.71,4.6,6.28,7.11Z"/>
      <path class="st0" d="M110.61,21.97c10.73-1.06,9.42,14.52.35,15.69-11.68,1.5-9.87-14.75-.35-15.69ZM113.43,25.96c-5.73-3.82-10.23,9.28-3.03,8.35,3.5-.45,4.69-5.57,3.03-8.35Z"/>
      <path class="st0" d="M64.27,22.42l1.7,15.3-2.87-.25-1.45-3.08c-.59-.21-4.27-.23-4.66.02-.72.45-1.06,4.81-5.18,3.31-.17-.8.19-1.4.44-2.1.47-1.31,6.16-11.64,6.89-12.38,1.35-1.38,3.4-.7,5.13-.82ZM61.43,27.52c-.81-.95-2.77,3.31-2.83,3.97h3.39s-.57-3.97-.57-3.97Z"/>
      <path class="st0" d="M39.9,37.72l2.89-15.24c5.09.17,12.97-2.15,11.15,5.77-.94,4.12-5.76,3.71-8.98,4.04-1.24,3.38-.18,6.26-5.06,5.42ZM50.11,25.25l-3.89.08-.65,3.89c3,.22,5.13-.52,4.53-3.96Z"/>
      <path class="st0" d="M72.11,22.52c.64.92,1.22,4.79,2.64,4.44,2.18-2.95,2.64-5.42,7.09-4.53-1.46,5.38-7.41,8.38-7.04,14.76l-3.72.53c-.31-2.2.84-4.27.55-6.47-.29-2.2-3.01-5.53-3.39-7.98-.25-1.59,2.89-.73,3.88-.75Z"/>
    </g>
  </g>
</svg>