<svg width="160" height="46" viewBox="0 0 160 46" fill="none" xmlns="http://www.w3.org/2000/svg">
<path d="M18.2 2.39999C20.7 0.899994 23.7 0.899994 26.2 2.39999L37.6 8.99999C40 10.4 41.5 13 41.5 15.8V29.3C41.5 32.1 40 34.7 37.6 36.1L26.3 42.7C23.8 44.2 20.8 44.2 18.3 42.7L6.9 36.2C4.5 34.8 3 32.2 3 29.4V15.8C3 13 4.5 10.4 6.9 8.99999L18.2 2.39999Z" fill="#001042"/>
<path d="M25.4 10.2H24.6V20.1H21.1V14.2H14.2V29.3C14.2 32.9 17 35.7 20.4 35.7H21.2V26.3H24.7V32.5H31.6V16.6C31.6 13.1 28.8 10.2 25.4 10.2ZM19.6 34.1C17.4 33.7 15.7 31.7 15.7 29.3V26.4H19.6V34.1ZM30 31H26.1V24.8H15.7V15.8H19.6V21.7H30V31ZM30 20.2H26.1V11.9C28.3 12.3 30 14.3 30 16.7V20.2Z" fill="white"/>
<path d="M69.3 14.5V29.8H64.9V24H58.3V29.7H54V24.5C54 21.9 55.2 20.6 57.5 20.6H65V14.4H69.3V14.5ZM54 21.3V14.5H58.4V19.7H57.5C56.4 19.7 54.9 19.9 54 21.3Z" fill="#001042"/>
<path d="M88 18.4V19.4C87 18.1 85.6 17.8 84.5 17.8H76.9C75.8 17.8 75.8 18.7 75.8 19.1V25.5H73.9C72.8 25.5 71.4 24.7 71.4 22.8V18.4C71.4 16.2 73 14.5 75 14.5H84.4C86.4 14.5 88 16.2 88 18.4ZM88 22.6V25.8C88 27.9 86.4 29.7 84.4 29.7H75C73 29.7 71.4 28 71.4 25.8V25.2C71.9 26 73.2 26.4 73.9 26.4H82.5C83.6 26.4 83.6 25.5 83.6 25.2V18.8H84.5C86.8 18.8 88 20.1 88 22.6Z" fill="#001042"/>
<path d="M106.8 14.5C106.3 16.8 104.9 17.8 102.7 17.8H94.5C92.6 17.8 90.5 18.4 89.9 20.5C89.8 20.2 89.8 19.8 89.8 19.4V19C89.8 16.4 92 14.4 94 14.4H106.8V14.5ZM106.9 25.2C106.9 27.8 104.7 29.7 102.7 29.7H94C92.2 29.7 90.2 28.3 89.9 26.4H101.5C102.7 26.4 102.7 25.2 102.7 25.2C102.7 24.8 102.7 24 101.5 24H94C92.9 24 91.7 23.5 91 22.6C90.8 22.3 90.7 21.9 90.7 21.5C90.7 19.6 92.7 18.9 94.2 18.9C94.2 19 94.2 19.1 94.2 19.2V19.5C94.2 19.8 94.2 20.7 95.3 20.7H102.8C105.1 20.6 106.9 22.8 106.9 25.2Z" fill="#001042"/>
<path d="M123.5 14.5C123.5 16.3 121.7 17.8 119.8 17.8H106.7C106.9 16.1 108.4 14.5 110.2 14.5H123.5ZM117.3 18.8V29.7H113V18.8H117.3Z" fill="#001042"/>
<path d="M124.6 14.5H129V17.8H124.6V14.5ZM124.6 18.8H129V29.8H124.6V18.8Z" fill="#001042"/>
<path d="M130.2 17.8C130.4 16.1 131.9 14.5 133.8 14.5H146.2V18L143.8 20.3C143.8 20.2 143.8 20.1 143.8 20C143.8 18.3 142 17.8 140.8 17.8C138.4 17.8 130.2 17.8 130.2 17.8ZM137.2 26.4H147C146.9 27.9 145.6 29.7 143.4 29.7H131.1V26.4L139.5 18.7H140.8C141.8 18.7 143 19 143 20.3C143 20.6 142.9 20.9 142.8 21.2L137.2 26.4Z" fill="#001042"/>
<path d="M148.3 14.5H152.7V17.8H148.3V14.5ZM148.3 18.8H152.7V29.8H148.3V18.8Z" fill="#001042"/>
</svg>
