<?xml version="1.0" encoding="utf-8"?>
<!-- Generator: Adobe Illustrator 28.6.0, SVG Export Plug-In . SVG Version: 9.03 Build 54939)  -->
<svg version="1.1" id="Layer_1" xmlns="http://www.w3.org/2000/svg" xmlns:xlink="http://www.w3.org/1999/xlink" x="0px" y="0px"
	width="160" height="46" viewBox="0 0 160 46" style="enable-background:new 0 0 160 46;" xml:space="preserve">
<style type="text/css">
	.st0{fill:url(#SVGID_1_);}
	.st1{fill:#FFFFFF;}
</style>
<linearGradient id="SVGID_1_" gradientUnits="userSpaceOnUse" x1="-1.5976" y1="172.3094" x2="45.5168" y2="176.736" gradientTransform="matrix(1 0 0 1 0 -152)">
	<stop  offset="0" style="stop-color:#0082F8"/>
	<stop  offset="1" style="stop-color:#1C40F2"/>
</linearGradient>
<path class="st0" d="M18.2,2.4c2.5-1.5,5.5-1.5,8,0L37.6,9c2.4,1.4,3.9,4,3.9,6.8v13.5c0,2.8-1.5,5.4-3.9,6.8l-11.3,6.6
	c-2.5,1.5-5.5,1.5-8,0L6.9,36.2c-2.4-1.4-3.9-4-3.9-6.8V15.8C3,13,4.5,10.4,6.9,9L18.2,2.4z"/>
<path class="st1" d="M25.4,10.2h-0.8v9.9h-3.5v-5.9h-6.9v15.1c0,3.6,2.8,6.4,6.2,6.4h0.8v-9.4h3.5v6.2h6.9V16.6
	C31.6,13.1,28.8,10.2,25.4,10.2z M19.6,34.1c-2.2-0.4-3.9-2.4-3.9-4.8v-2.9h3.9V34.1z M30,31h-3.9v-6.2H15.7v-9h3.9v5.9H30V31z
	 M30,20.2h-3.9v-8.3c2.2,0.4,3.9,2.4,3.9,4.8V20.2z"/>
<g>
	<path class="st1" d="M69.3,14.5v15.3h-4.4V24h-6.6v5.7H54v-5.2c0-2.6,1.2-3.9,3.5-3.9H65v-6.2L69.3,14.5L69.3,14.5z M54,21.3v-6.8
		h4.4v5.2h-0.9C56.4,19.7,54.9,19.9,54,21.3z"/>
	<path class="st1" d="M88,18.4v1c-1-1.3-2.4-1.6-3.5-1.6h-7.6c-1.1,0-1.1,0.9-1.1,1.3v6.4h-1.9c-1.1,0-2.5-0.8-2.5-2.7v-4.4
		c0-2.2,1.6-3.9,3.6-3.9h9.4C86.4,14.5,88,16.2,88,18.4z M88,22.6v3.2c0,2.1-1.6,3.9-3.6,3.9H75c-2,0-3.6-1.7-3.6-3.9v-0.6
		c0.5,0.8,1.8,1.2,2.5,1.2h8.6c1.1,0,1.1-0.9,1.1-1.2v-6.4h0.9C86.8,18.8,88,20.1,88,22.6z"/>
	<path class="st1" d="M106.8,14.5c-0.5,2.3-1.9,3.3-4.1,3.3h-8.2c-1.9,0-4,0.6-4.6,2.7c-0.1-0.3-0.1-0.7-0.1-1.1V19
		c0-2.6,2.2-4.6,4.2-4.6h12.8V14.5z M106.9,25.2c0,2.6-2.2,4.5-4.2,4.5H94c-1.8,0-3.8-1.4-4.1-3.3h11.6c1.2,0,1.2-1.2,1.2-1.2l0,0
		c0-0.4,0-1.2-1.2-1.2H94c-1.1,0-2.3-0.5-3-1.4c-0.2-0.3-0.3-0.7-0.3-1.1c0-1.9,2-2.6,3.5-2.6c0,0.1,0,0.2,0,0.3v0.3
		c0,0.3,0,1.2,1.1,1.2h7.5C105.1,20.6,106.9,22.8,106.9,25.2z"/>
	<path class="st1" d="M123.5,14.5c0,1.8-1.8,3.3-3.7,3.3h-13.1c0.2-1.7,1.7-3.3,3.5-3.3C110.2,14.5,123.5,14.5,123.5,14.5z
		 M117.3,18.8v10.9H113V18.8H117.3z"/>
	<path class="st1" d="M124.6,14.5h4.4v3.3h-4.4V14.5z M124.6,18.8h4.4v11h-4.4V18.8z"/>
	<path class="st1" d="M130.2,17.8c0.2-1.7,1.7-3.3,3.6-3.3h12.4V18l-2.4,2.3c0-0.1,0-0.2,0-0.3c0-1.7-1.8-2.2-3-2.2
		C138.4,17.8,130.2,17.8,130.2,17.8z M137.2,26.4h9.8c-0.1,1.5-1.4,3.3-3.6,3.3h-12.3v-3.3l8.4-7.7h1.3c1,0,2.2,0.3,2.2,1.6
		c0,0.3-0.1,0.6-0.2,0.9L137.2,26.4z"/>
	<path class="st1" d="M148.3,14.5h4.4v3.3h-4.4V14.5z M148.3,18.8h4.4v11h-4.4V18.8z"/>
</g>
</svg>
