<?xml version="1.0" encoding="utf-8"?>
<!-- Generator: Adobe Illustrator 25.0.1, SVG Export Plug-In . SVG Version: 6.00 Build 0)  -->
<svg version="1.1" id="图层_1" xmlns="http://www.w3.org/2000/svg" xmlns:xlink="http://www.w3.org/1999/xlink" x="0px" y="0px"
	 viewBox="0 0 150 150" style="enable-background:new 0 0 150 150;" xml:space="preserve">
<style type="text/css">
	.st0{fill:#006B33;}
	.st1{fill:#FFFFFF;}
</style>
<path class="st0" d="M111,147H39c-19.9,0-36-16.1-36-36V39C3,19.1,19.1,3,39,3h72c19.9,0,36,16.1,36,36v72
	C147,130.9,130.9,147,111,147z"/>
<path id="path1460" class="st1" d="M47,75.5V62.4h2h2v0.9c0,0.5,0,0.9,0,0.9c0,0,0.3-0.2,0.6-0.3c3.6-2.3,8.8-2.9,13.6-1.8
	c4.2,1.1,7.3,3.6,8.4,6.9c0.6,1.9,0.6,4.1-0.1,6c-0.9,2.3-2.7,4.2-5.2,5.5c-2.3,1.1-4.8,1.7-7.7,1.7c-2.4,0-4.6-0.4-6.6-1.2
	c-0.8-0.3-1.8-0.8-2.4-1.2l-0.5-0.3V84v4.6h-2h-2V75.5z M62.5,78.6c2.3-0.3,4.1-1.1,5.4-2.2c1-0.9,1.7-2.1,2-3.4
	c0.1-0.5,0.1-1.8,0-2.4c-0.3-1.6-1.2-2.9-2.6-3.9c-0.5-0.4-1.6-0.9-2.3-1.2c-2-0.7-4.4-0.9-6.6-0.5c-3.8,0.6-6.4,2.5-7.1,5.2
	c-0.3,1.2-0.3,2.5,0.2,3.7c0.9,2.6,3.6,4.3,7.5,4.8C59.7,78.7,61.8,78.7,62.5,78.6L62.5,78.6z M76,75.5V62.4h2h2v0.9
	c0,0.5,0,0.9,0,0.9c0,0,0.2-0.1,0.5-0.3c0.6-0.4,1.8-1,2.6-1.3c3.3-1.2,7.4-1.4,11-0.5c5.8,1.5,9.2,5.4,8.9,10.4
	c-0.2,3.8-2.8,6.9-6.9,8.5c-1.3,0.5-2.7,0.9-4.5,1.1c-0.9,0.1-3.4,0.1-4.3,0c-2.7-0.3-5.1-1.1-6.9-2.3l-0.4-0.3V84v4.6h-2h-2V75.5
	L76,75.5z M91.6,78.6c3.2-0.5,5.4-1.8,6.6-3.8c0.7-1.2,0.9-2.7,0.7-4.2c-0.5-3-3.2-5.1-7.2-5.7C89,64.6,86,65,84,66
	c-2.1,1-3.3,2.5-3.8,4.6c-0.1,0.5-0.1,1.9,0,2.4c0.3,1.4,1,2.6,2,3.5c1.4,1.2,3.3,1.9,5.7,2.2C88.8,78.7,90.8,78.7,91.6,78.6
	L91.6,78.6z M30.1,82.1c-2.2-0.2-4-0.6-5.6-1.3c-3.6-1.5-5.8-4.1-6.4-7.3c-0.1-0.6-0.2-2-0.1-2.7c0.4-3.9,3.3-7,7.8-8.4
	c2.4-0.8,5.4-1,8.1-0.7c4.9,0.6,8.6,2.9,10.2,6.3c1.3,2.7,1.2,6.1-0.4,8.6c-0.7,1.2-1.9,2.3-3.1,3.1c-1.9,1.2-4.1,2-6.9,2.3
	C33.2,82,30.7,82.1,30.1,82.1L30.1,82.1z M33,78.6c2.1-0.2,3.9-0.8,5.3-1.8c1.1-0.8,2-1.9,2.4-3.1c0.2-0.7,0.3-1,0.3-2
	c0-0.9,0-1.3-0.3-2c-0.7-2.3-2.9-4-6-4.7c-2.7-0.6-5.8-0.4-8.1,0.5c-1.7,0.7-3,1.7-3.8,3.1c-0.8,1.4-1,3.3-0.5,5
	c0.6,1.8,2,3.3,4.1,4.1c1.1,0.5,2.5,0.8,3.9,0.9C30.8,78.7,32.5,78.7,33,78.6L33,78.6z M117.2,82.1c-0.1,0-0.4,0-0.7-0.1
	c-2.3-0.2-4.6-0.9-6.4-1.9c-2.3-1.3-4-3.2-4.7-5.5c-0.5-1.5-0.6-3.2-0.2-4.8c0.5-2.4,2-4.4,4.2-5.9c3-2,7.3-2.8,11.5-2.3
	c3.5,0.4,6.4,1.7,8.4,3.7c1.5,1.5,2.4,3.3,2.7,5.4c0.1,0.5,0.1,1.6,0,2.2c-0.5,4.2-3.9,7.3-8.9,8.6c-1.5,0.4-2.5,0.5-4.3,0.5
	C117.9,82.1,117.2,82.1,117.2,82.1L117.2,82.1z M119.8,78.7c2.7-0.2,4.9-1.1,6.3-2.5c1-1,1.5-2,1.7-3.3c0.1-0.5,0.1-1.6,0-2.2
	c-0.5-2.9-3.1-5-6.9-5.7c-0.9-0.1-1.5-0.2-2.5-0.2c-4.3,0-7.6,1.6-8.9,4.3c-0.4,0.8-0.6,1.6-0.6,2.6c0,1.3,0.3,2.4,1,3.4
	c1.3,1.9,3.7,3.1,6.9,3.5C117.6,78.7,119.2,78.7,119.8,78.7L119.8,78.7z"/>
</svg>
