<svg xmlns="http://www.w3.org/2000/svg" viewBox="0 0 48 48"><linearGradient id="a" gradientUnits="userSpaceOnUse" x1=".611" y1="0" x2=".611" y2="1.222" gradientTransform="matrix(36 0 0 36 2 2)"><stop offset="0" stop-color="#fb6361"/><stop offset="1" stop-color="#ed3e45"/></linearGradient><path d="M14.3 2C5.3 2 2 5.3 2 14.3v19.3C2 42.7 5.3 46 14.3 46h19.3c9 0 12.4-3.3 12.4-12.3V14.3C46 5.3 42.7 2 33.7 2H14.3z" fill-rule="evenodd" clip-rule="evenodd" fill="url(#a)"/><path d="M21.2 27.5H23l-.9-2.1-.9 2.1zm-.4 1.1l-.5 1.2H19l2.5-5.8h1l2.5 5.8h-1.2l-.5-1.2h-2.5zM40 29.8h1.2V24H40v5.8zm-4.6-2.5h2.1v-1h-2.1v-1.2h3.1v-1h-4.2v5.8h4.3v-1h-3.2v-1.6zm-4.6.7l-1.3-4h-1l-1.3 4-1.3-4h-1.2l2 5.8h1L29 26l1.3 3.8h1l2-5.8h-1.2l-1.3 4zm-13.5-.7c0 .9-.5 1.4-1.3 1.4s-1.3-.5-1.3-1.5V24h-1.2v3.3c0 1.6.9 2.5 2.5 2.5s2.5-.9 2.5-2.6V24h-1.2v3.3zM10.7 24h1.2v5.8h-1.2v-2.3H8.1v2.3H6.9V24h1.2v2.3h2.6V24zM24 16.7c-4 0-7.3-3.3-7.3-7.3h1c0 3.5 2.8 6.3 6.3 6.3s6.3-2.8 6.3-6.3h1c0 4-3.3 7.3-7.3 7.3" fill-rule="evenodd" clip-rule="evenodd" fill="#fff"/></svg>