<svg xmlns="http://www.w3.org/2000/svg" viewBox="0 0 48 48"><linearGradient id="a" gradientUnits="userSpaceOnUse" x1="9.252" y1="391.411" x2="-19.702" y2="420.366" gradientTransform="matrix(1.0024 0 0 -.9907 15.208 431.08)"><stop offset="0" stop-color="#00a0ff"/><stop offset=".007" stop-color="#00a1ff"/><stop offset=".26" stop-color="#00beff"/><stop offset=".512" stop-color="#00d2ff"/><stop offset=".76" stop-color="#00dfff"/><stop offset="1" stop-color="#00e3ff"/></linearGradient><path d="M4.84 2.72c-.5.53-.79 1.35-.79 2.41v37.81c0 1.06.29 1.88.79 2.41l.12.12L26.39 24.3v-.56L4.95 2.57l-.11.15z" fill="url(#a)"/><linearGradient id="b" gradientUnits="userSpaceOnUse" x1="30.02" y1="410.897" x2="-11.723" y2="410.897" gradientTransform="matrix(1.0024 0 0 -.9907 15.208 431.08)"><stop offset="0" stop-color="#ffe000"/><stop offset=".409" stop-color="#ffbd00"/><stop offset=".775" stop-color="orange"/><stop offset="1" stop-color="#ff9c00"/></linearGradient><path d="M33.53 31.33l-7.15-7.06v-.53l7.15-7.06.15.09 8.47 4.76c2.41 1.35 2.41 3.56 0 4.94l-8.47 4.73-.15.13z" fill="url(#b)"/><linearGradient id="c" gradientUnits="userSpaceOnUse" x1=".076" y1="400.45" x2="-39.179" y2="439.704" gradientTransform="matrix(1.0024 0 0 -.9907 15.208 431.08)"><stop offset="0" stop-color="#ff3a44"/><stop offset="1" stop-color="#c31162"/></linearGradient><path d="M33.68 31.24l-7.29-7.2L4.84 45.33c.79.82 2.12.94 3.59.09l25.25-14.18" fill="url(#c)"/><linearGradient id="d" gradientUnits="userSpaceOnUse" x1="-30.172" y1="391.098" x2="-12.639" y2="408.631" gradientTransform="matrix(1.0024 0 0 -.9907 15.208 431.08)"><stop offset="0" stop-color="#32a071"/><stop offset=".069" stop-color="#2da771"/><stop offset=".476" stop-color="#15cf74"/><stop offset=".801" stop-color="#06e775"/><stop offset="1" stop-color="#00f076"/></linearGradient><path d="M33.68 16.77L8.42 2.57c-1.5-.82-2.79-.74-3.59.12l21.55 21.29 7.3-7.21z" fill="url(#d)"/></svg>