<?xml version="1.0" encoding="UTF-8"?> <svg xmlns="http://www.w3.org/2000/svg" xmlns:xlink="http://www.w3.org/1999/xlink" version="1.1" id="Layer_1" x="0px" y="0px" width="100" height="100" viewBox="0 0 100 100" style="enable-background:new 0 0 100 100;" xml:space="preserve"> <style type="text/css"> .st0{fill:url(#SVGID_1_);} </style> <linearGradient id="SVGID_1_" gradientUnits="userSpaceOnUse" x1="-0.5" y1="-3.3421" x2="1.5415" y2="-3.3421" gradientTransform="matrix(48 0 0 38 25 177)"> <stop offset="0" style="stop-color:#37C5EB;stop-opacity:0.7"></stop> <stop offset="1" style="stop-color:#37C5EB"></stop> </linearGradient> <path class="st0" d="M82.7,23.5h-8.2v-8.2c0-2.3-1.8-4.1-4.1-4.1c-2.3,0-4.1,1.8-4.1,4.1v8.2H33.7v-8.2c0-2.3-1.8-4.1-4.1-4.1 s-4.1,1.8-4.1,4.1v8.2h-8.2C8.3,23.5,1,30.8,1,39.8v32.7c0,9,7.3,16.3,16.3,16.3h65.3c9,0,16.3-7.3,16.3-16.3V39.8 C99,30.8,91.7,23.5,82.7,23.5z M37.8,60.2h-4.1v4.1c0,2.3-1.8,4.1-4.1,4.1s-4.1-1.8-4.1-4.1v-4.1h-4.1c-2.3,0-4.1-1.8-4.1-4.1 s1.8-4.1,4.1-4.1h4.1V48c0-2.3,1.8-4.1,4.1-4.1s4.1,1.8,4.1,4.1V52h4.1c2.3,0,4.1,1.8,4.1,4.1S40,60.2,37.8,60.2z M64.3,68.4 c-3.4,0-6.1-2.7-6.1-6.1s2.7-6.1,6.1-6.1s6.1,2.7,6.1,6.1C70.4,65.6,67.7,68.4,64.3,68.4z M76.5,56.1c-3.4,0-6.1-2.7-6.1-6.1 s2.7-6.1,6.1-6.1c3.4,0,6.1,2.7,6.1,6.1S79.9,56.1,76.5,56.1z"></path> </svg> 