<?xml version="1.0" encoding="UTF-8"?> <svg xmlns="http://www.w3.org/2000/svg" xmlns:xlink="http://www.w3.org/1999/xlink" version="1.1" id="Layer_1" x="0px" y="0px" width="100" height="100" viewBox="0 0 100 100" style="enable-background:new 0 0 100 100;" xml:space="preserve"> <style type="text/css"> .st0{fill:url(#SVGID_1_);} </style> <linearGradient id="SVGID_1_" gradientUnits="userSpaceOnUse" x1="0.8124" y1="-3.0228" x2="2.9192" y2="-3.0228" gradientTransform="matrix(46.5154 0 0 44.0001 -36.7884 183.0038)"> <stop offset="0" style="stop-color:#FBAA19;stop-opacity:0.7"></stop> <stop offset="1" style="stop-color:#FBAA19"></stop> </linearGradient> <path class="st0" d="M98.9,78l-5.4-59c-0.8-8.7-8.1-15.4-16.9-15.3H23.3C14.6,3.6,7.2,10.3,6.4,19L1.1,78c-0.8,9.3,6,17.5,15.3,18.3 c0.5,0.1,1.1,0.1,1.6,0.1h64.2c9.3,0,16.8-7.5,16.8-16.8C99,79,99,78.5,98.9,78z M50,45.8c-14,0-25.3-11.3-25.3-25.3 c0-2.3,1.9-4.2,4.2-4.2s4.2,1.9,4.2,4.2c0,9.3,7.5,16.9,16.8,16.9s16.8-7.5,16.8-16.9c0-2.3,1.9-4.2,4.2-4.2c2.3,0,4.2,1.9,4.2,4.2 C75.3,34.5,64,45.8,50,45.8z"></path> </svg> 