<?xml version="1.0" encoding="UTF-8"?> <svg xmlns="http://www.w3.org/2000/svg" xmlns:xlink="http://www.w3.org/1999/xlink" version="1.1" id="Layer_1" x="0px" y="0px" width="100" height="100" viewBox="0 0 100 100" style="enable-background:new 0 0 100 100;" xml:space="preserve"> <style type="text/css"> .st0{fill:url(#SVGID_1_);} </style> <linearGradient id="SVGID_1_" gradientUnits="userSpaceOnUse" x1="-3.5909" y1="-3.0262" x2="-1.3639" y2="-3.0262" gradientTransform="matrix(44 0 0 43.9518 159 183.0025)"> <stop offset="0" style="stop-color:#7D58A4;stop-opacity:0.7"></stop> <stop offset="1" style="stop-color:#7D58A4"></stop> </linearGradient> <path class="st0" d="M85.6,63.3h-2.2C95.6,44.9,90.6,20,72.2,7.7S28.8,0.5,16.6,19c-8.9,13.4-8.9,30.9,0,44.3h-2.2 C7,63.3,1,69.3,1,76.7v8.9C1,93,7,98.9,14.4,98.9h71.3C93,98.9,99,93,99,85.6v-8.9C99,69.3,93,63.3,85.6,63.3z M50,32.1 c4.9,0,8.9,4,8.9,8.9S54.9,50,50,50s-8.9-4-8.9-8.9S45.1,32.1,50,32.1z M90.1,85.8c0,2.3-1.9,4.2-4.2,4.2H14.1 c-2.3,0-4.2-1.9-4.2-4.2v-0.4c0-2.3,1.9-4.2,4.2-4.2h71.7c2.3,0,4.2,1.9,4.2,4.2C90.1,85.4,90.1,85.8,90.1,85.8z"></path> </svg> 