<?xml version="1.0" encoding="UTF-8"?> <svg xmlns="http://www.w3.org/2000/svg" xmlns:xlink="http://www.w3.org/1999/xlink" version="1.1" id="Layer_1" x="0px" y="0px" width="100" height="100" viewBox="0 0 100 100" style="enable-background:new 0 0 100 100;" xml:space="preserve"> <style type="text/css"> .st0{fill:url(#SVGID_1_);} </style> <linearGradient id="SVGID_1_" gradientUnits="userSpaceOnUse" x1="-3.1667" y1="-7.499997e-02" x2="-1.125" y2="-7.499997e-02" gradientTransform="matrix(48 0 0 40 153 53)"> <stop offset="0" style="stop-color:#56B947;stop-opacity:0.7"></stop> <stop offset="1" style="stop-color:#56B947"></stop> </linearGradient> <path class="st0" d="M1,74.5c0,9,7.3,16.3,16.3,16.3h65.3c9,0,16.3-7.3,16.3-16.3V41.8H1V74.5z M82.7,58.2h8.2v16.3h-8.2V58.2z M76.5,58.2h4.1v16.3h-4.1V58.2z M72.5,58.2h2v16.3h-2V58.2z M68.4,58.2h2v16.3h-2V58.2z M58.2,58.2h8.2v16.3h-8.2V58.2z M54.1,58.2 h2v16.3h-2V58.2z M48,58.2H52v16.3H48V58.2z M99,25.5v4.1H1v-4.1c0-9,7.3-16.3,16.3-16.3h65.3C91.7,9.2,99,16.5,99,25.5z"></path> </svg> 