<?xml version="1.0" encoding="utf-8"?>
<!-- Generator: Adobe Illustrator 28.0.0, SVG Export Plug-In . SVG Version: 6.00 Build 0)  -->
<svg version="1.1" id="Layer_1" xmlns="http://www.w3.org/2000/svg" xmlns:xlink="http://www.w3.org/1999/xlink" x="0px" y="0px"
	width="130" height="80" viewBox="0 0 130 80" style="enable-background:new 0 0 130 80;" xml:space="preserve">
<style type="text/css">
	.st0{fill:#7D7D7D;}
	.st1{fill:#46652F;}
	.st2{fill:#6D9A40;}
	.st3{fill:#E3C77C;}
	.st4{fill:#AA7E2F;}
</style>
<g>
	<rect x="2.55" y="69.37" class="st0" width="125" height="0.68"/>
	<rect x="44.22" y="69.37" class="st1" width="41.67" height="0.68"/>
	<rect x="2.55" y="69.37" class="st2" width="41.67" height="0.68"/>
	<path d="M49.65,73.88c-0.07-0.13-0.15-0.23-0.26-0.31c-0.11-0.08-0.23-0.14-0.38-0.18c-0.14-0.04-0.29-0.06-0.45-0.06
		c-0.12,0-0.25,0.01-0.38,0.04c-0.13,0.02-0.24,0.07-0.35,0.13l-0.25,0.24c-0.07,0.1-0.1,0.23-0.1,0.37c0,0.13,0.03,0.23,0.09,0.31
		l0.24,0.22c0.09,0.06,0.2,0.11,0.31,0.15c0.11,0.04,0.21,0.07,0.31,0.09l0.74,0.17c0.16,0.02,0.32,0.06,0.47,0.13
		c0.15,0.06,0.29,0.14,0.41,0.24c0.12,0.1,0.22,0.22,0.3,0.37c0.07,0.15,0.12,0.32,0.12,0.52c0,0.25-0.06,0.46-0.17,0.63
		c-0.11,0.17-0.25,0.31-0.43,0.42c-0.17,0.11-0.37,0.19-0.59,0.23c-0.22,0.05-0.43,0.07-0.64,0.07c-0.54,0-0.97-0.13-1.3-0.38
		c-0.33-0.25-0.52-0.66-0.57-1.22h0.55c0.02,0.38,0.16,0.66,0.41,0.85c0.25,0.19,0.56,0.29,0.93,0.29c0.14,0,0.28-0.01,0.42-0.04
		c0.15-0.03,0.28-0.08,0.4-0.15c0.12-0.07,0.23-0.16,0.3-0.27c0.08-0.11,0.12-0.24,0.12-0.4c0-0.14-0.03-0.25-0.08-0.34l-0.23-0.23
		c-0.09-0.06-0.2-0.11-0.32-0.15c-0.12-0.04-0.24-0.08-0.37-0.11l-0.71-0.16c-0.18-0.05-0.35-0.1-0.5-0.16
		c-0.15-0.06-0.29-0.14-0.4-0.23c-0.11-0.09-0.2-0.2-0.27-0.33c-0.06-0.13-0.1-0.3-0.1-0.49c0-0.23,0.05-0.43,0.15-0.59
		c0.1-0.16,0.24-0.3,0.4-0.4c0.16-0.1,0.35-0.18,0.55-0.22c0.2-0.05,0.4-0.07,0.61-0.07c0.23,0,0.44,0.03,0.64,0.09
		c0.2,0.06,0.37,0.15,0.52,0.27c0.15,0.12,0.27,0.28,0.36,0.46c0.09,0.18,0.14,0.4,0.15,0.64h-0.56
		C49.75,74.15,49.71,74,49.65,73.88"/>
	<path d="M51.82,71.24v2.53h0.02c0.11-0.28,0.29-0.5,0.57-0.67c0.27-0.17,0.57-0.25,0.89-0.25c0.32,0,0.58,0.04,0.8,0.12
		c0.22,0.08,0.39,0.2,0.52,0.35c0.13,0.15,0.22,0.33,0.27,0.55c0.05,0.22,0.08,0.46,0.08,0.73v2.93H54.4V74.7
		c0-0.19-0.02-0.37-0.05-0.54c-0.03-0.17-0.1-0.32-0.18-0.44c-0.09-0.12-0.21-0.22-0.36-0.29c-0.15-0.07-0.34-0.11-0.56-0.11
		c-0.22,0-0.42,0.04-0.6,0.12c-0.17,0.08-0.32,0.19-0.44,0.32c-0.12,0.14-0.21,0.3-0.28,0.49c-0.07,0.19-0.1,0.4-0.11,0.62v2.66
		h-0.56v-6.3H51.82z"/>
	<path d="M56.12,73.69c0.09-0.19,0.23-0.35,0.39-0.48c0.16-0.12,0.35-0.21,0.57-0.27c0.22-0.06,0.46-0.09,0.72-0.09
		c0.2,0,0.4,0.02,0.6,0.06c0.2,0.04,0.38,0.11,0.54,0.21c0.16,0.11,0.29,0.26,0.39,0.45c0.1,0.19,0.15,0.44,0.15,0.75v2.42
		c0,0.22,0.11,0.34,0.33,0.34l0.17-0.04v0.47l-0.17,0.03l-0.19,0.01c-0.14,0-0.25-0.02-0.34-0.06l-0.2-0.16l-0.09-0.25
		c-0.01-0.1-0.02-0.2-0.02-0.32h-0.02c-0.1,0.15-0.2,0.28-0.3,0.39c-0.11,0.12-0.22,0.21-0.35,0.29c-0.13,0.08-0.27,0.14-0.43,0.17
		c-0.16,0.04-0.35,0.06-0.58,0.06c-0.21,0-0.41-0.02-0.6-0.07c-0.18-0.05-0.34-0.13-0.48-0.24c-0.14-0.11-0.25-0.25-0.33-0.41
		c-0.08-0.17-0.12-0.37-0.12-0.6c0-0.32,0.07-0.57,0.21-0.75c0.14-0.18,0.33-0.31,0.56-0.41c0.23-0.09,0.49-0.16,0.79-0.2
		c0.29-0.04,0.59-0.08,0.89-0.11c0.12-0.01,0.22-0.02,0.31-0.04l0.22-0.09l0.14-0.18c0.03-0.07,0.05-0.17,0.05-0.3
		c0-0.19-0.03-0.34-0.09-0.46c-0.06-0.12-0.15-0.22-0.25-0.29c-0.11-0.07-0.23-0.12-0.38-0.15c-0.14-0.03-0.3-0.04-0.46-0.04
		c-0.35,0-0.64,0.08-0.87,0.25c-0.22,0.17-0.34,0.44-0.35,0.81h-0.56C55.97,74.12,56.03,73.89,56.12,73.69 M58.9,75.05l-0.2,0.14
		l-0.27,0.06c-0.23,0.04-0.48,0.08-0.73,0.11c-0.25,0.03-0.48,0.08-0.69,0.15c-0.21,0.06-0.37,0.16-0.51,0.28
		c-0.13,0.12-0.2,0.29-0.2,0.52c0,0.14,0.03,0.27,0.08,0.38l0.23,0.28c0.09,0.08,0.2,0.14,0.32,0.18c0.12,0.04,0.25,0.06,0.38,0.06
		c0.21,0,0.41-0.03,0.61-0.1c0.19-0.07,0.36-0.16,0.51-0.28c0.14-0.12,0.26-0.27,0.34-0.45c0.09-0.18,0.13-0.38,0.13-0.6v-0.72H58.9
		z"/>
	<path d="M61.1,72.99v1.07h0.02c0.14-0.37,0.36-0.66,0.65-0.86c0.3-0.2,0.65-0.29,1.06-0.28v0.56c-0.25-0.01-0.48,0.02-0.69,0.1
		c-0.21,0.08-0.38,0.19-0.54,0.34c-0.15,0.15-0.27,0.32-0.35,0.53c-0.08,0.2-0.13,0.42-0.13,0.67v2.43h-0.55v-4.55H61.1z"/>
	<path d="M63.93,72.13h-0.56v-0.89h0.56V72.13z M63.93,77.54h-0.56v-4.55h0.56V77.54z"/>
	<path d="M65.11,73.69c0.09-0.19,0.23-0.35,0.38-0.48c0.16-0.12,0.35-0.21,0.57-0.27c0.22-0.06,0.46-0.09,0.72-0.09
		c0.2,0,0.4,0.02,0.6,0.06c0.2,0.04,0.38,0.11,0.54,0.21c0.16,0.11,0.29,0.26,0.39,0.45c0.1,0.19,0.15,0.44,0.15,0.75v2.42
		c0,0.22,0.11,0.34,0.32,0.34l0.18-0.04v0.47l-0.17,0.03l-0.19,0.01c-0.14,0-0.26-0.02-0.34-0.06l-0.2-0.16l-0.09-0.25
		c-0.01-0.1-0.02-0.2-0.02-0.32h-0.02c-0.1,0.15-0.2,0.28-0.3,0.39c-0.1,0.12-0.22,0.21-0.35,0.29c-0.13,0.08-0.27,0.14-0.43,0.17
		c-0.16,0.04-0.35,0.06-0.58,0.06c-0.21,0-0.41-0.02-0.6-0.07c-0.18-0.05-0.34-0.13-0.48-0.24c-0.14-0.11-0.25-0.25-0.33-0.41
		c-0.08-0.17-0.12-0.37-0.12-0.6c0-0.32,0.07-0.57,0.21-0.75c0.14-0.18,0.33-0.31,0.56-0.41c0.23-0.09,0.49-0.16,0.78-0.2
		c0.29-0.04,0.59-0.08,0.89-0.11c0.12-0.01,0.22-0.02,0.31-0.04l0.22-0.09l0.14-0.18c0.03-0.07,0.05-0.17,0.05-0.3
		c0-0.19-0.03-0.34-0.09-0.46c-0.06-0.12-0.15-0.22-0.26-0.29c-0.11-0.07-0.23-0.12-0.38-0.15c-0.15-0.03-0.3-0.04-0.46-0.04
		c-0.35,0-0.64,0.08-0.86,0.25c-0.22,0.17-0.34,0.44-0.35,0.81h-0.56C64.96,74.12,65.02,73.89,65.11,73.69 M67.89,75.05l-0.2,0.14
		l-0.27,0.06c-0.24,0.04-0.48,0.08-0.73,0.11c-0.25,0.03-0.48,0.08-0.68,0.15c-0.21,0.06-0.37,0.16-0.51,0.28
		c-0.13,0.12-0.2,0.29-0.2,0.52c0,0.14,0.03,0.27,0.08,0.38l0.23,0.28c0.09,0.08,0.2,0.14,0.33,0.18c0.12,0.04,0.25,0.06,0.38,0.06
		c0.21,0,0.42-0.03,0.61-0.1c0.19-0.07,0.36-0.16,0.51-0.28c0.15-0.12,0.26-0.27,0.35-0.45c0.08-0.18,0.13-0.38,0.13-0.6v-0.72
		H67.89z"/>
	<path d="M70.12,71.24v2.53h0.02c0.11-0.28,0.29-0.5,0.56-0.67c0.27-0.17,0.57-0.25,0.89-0.25c0.32,0,0.58,0.04,0.8,0.12
		c0.22,0.08,0.39,0.2,0.52,0.35c0.13,0.15,0.22,0.33,0.27,0.55c0.05,0.22,0.08,0.46,0.08,0.73v2.93h-0.56V74.7
		c0-0.19-0.02-0.37-0.05-0.54c-0.03-0.17-0.1-0.32-0.18-0.44c-0.09-0.12-0.21-0.22-0.36-0.29c-0.15-0.07-0.34-0.11-0.56-0.11
		c-0.22,0-0.42,0.04-0.6,0.12c-0.17,0.08-0.32,0.19-0.44,0.32c-0.12,0.14-0.21,0.3-0.28,0.49c-0.07,0.19-0.1,0.4-0.11,0.62v2.66
		h-0.55v-6.3H70.12z"/>
	<path d="M77.32,71.24v2.61h0.02c0.06-0.16,0.14-0.31,0.25-0.43c0.11-0.12,0.23-0.23,0.38-0.31c0.14-0.08,0.29-0.15,0.46-0.19
		c0.16-0.04,0.33-0.06,0.49-0.06c0.35,0,0.65,0.07,0.9,0.19c0.26,0.13,0.47,0.3,0.64,0.53c0.17,0.22,0.3,0.48,0.38,0.77
		c0.08,0.29,0.12,0.6,0.12,0.92c0,0.33-0.04,0.63-0.12,0.92c-0.08,0.29-0.21,0.55-0.38,0.77c-0.17,0.22-0.38,0.39-0.64,0.52
		c-0.26,0.13-0.56,0.19-0.9,0.19c-0.37,0-0.7-0.09-0.99-0.26c-0.29-0.17-0.5-0.41-0.63-0.73h-0.02v0.87h-0.51v-6.3H77.32z
		 M80.33,74.56c-0.06-0.23-0.15-0.44-0.26-0.62c-0.12-0.18-0.28-0.33-0.46-0.44c-0.19-0.11-0.41-0.17-0.68-0.17
		c-0.29,0-0.54,0.06-0.75,0.17c-0.2,0.11-0.37,0.26-0.5,0.44c-0.13,0.18-0.22,0.39-0.27,0.62c-0.06,0.23-0.09,0.47-0.09,0.7
		c0,0.24,0.03,0.47,0.09,0.7c0.06,0.23,0.15,0.44,0.27,0.62c0.13,0.18,0.29,0.33,0.5,0.45c0.2,0.12,0.45,0.17,0.75,0.17
		c0.26,0,0.49-0.06,0.68-0.17c0.19-0.11,0.34-0.26,0.46-0.45c0.12-0.18,0.21-0.39,0.26-0.62c0.06-0.23,0.08-0.47,0.08-0.7
		C80.41,75.03,80.38,74.8,80.33,74.56"/>
	<path d="M81.94,73.69c0.1-0.19,0.22-0.35,0.38-0.48c0.16-0.12,0.35-0.21,0.57-0.27c0.22-0.06,0.46-0.09,0.73-0.09
		c0.2,0,0.4,0.02,0.6,0.06c0.2,0.04,0.38,0.11,0.54,0.21c0.16,0.11,0.29,0.26,0.38,0.45c0.1,0.19,0.15,0.44,0.15,0.75v2.42
		c0,0.22,0.11,0.34,0.33,0.34l0.17-0.04v0.47l-0.17,0.03l-0.19,0.01c-0.14,0-0.25-0.02-0.34-0.06l-0.2-0.16l-0.09-0.25
		c-0.01-0.1-0.02-0.2-0.02-0.32h-0.02c-0.1,0.15-0.2,0.28-0.3,0.39c-0.1,0.12-0.22,0.21-0.34,0.29c-0.13,0.08-0.27,0.14-0.43,0.17
		c-0.16,0.04-0.35,0.06-0.58,0.06c-0.21,0-0.41-0.02-0.6-0.07c-0.18-0.05-0.35-0.13-0.48-0.24c-0.14-0.11-0.25-0.25-0.33-0.41
		c-0.08-0.17-0.12-0.37-0.12-0.6c0-0.32,0.07-0.57,0.21-0.75c0.14-0.18,0.33-0.31,0.56-0.41c0.23-0.09,0.49-0.16,0.79-0.2
		c0.29-0.04,0.59-0.08,0.89-0.11c0.12-0.01,0.22-0.02,0.31-0.04l0.22-0.09l0.14-0.18c0.03-0.07,0.05-0.17,0.05-0.3
		c0-0.19-0.03-0.34-0.09-0.46c-0.06-0.12-0.15-0.22-0.26-0.29c-0.11-0.07-0.23-0.12-0.38-0.15c-0.15-0.03-0.3-0.04-0.46-0.04
		c-0.35,0-0.64,0.08-0.86,0.25c-0.22,0.17-0.34,0.44-0.35,0.81h-0.55C81.79,74.12,81.85,73.89,81.94,73.69 M84.72,75.05l-0.21,0.14
		l-0.26,0.06c-0.24,0.04-0.47,0.08-0.73,0.11c-0.25,0.03-0.48,0.08-0.68,0.15c-0.21,0.06-0.38,0.16-0.51,0.28
		c-0.13,0.12-0.2,0.29-0.2,0.52c0,0.14,0.03,0.27,0.08,0.38l0.23,0.28c0.09,0.08,0.2,0.14,0.32,0.18c0.12,0.04,0.25,0.06,0.38,0.06
		c0.21,0,0.42-0.03,0.61-0.1c0.19-0.07,0.36-0.16,0.51-0.28c0.14-0.12,0.26-0.27,0.34-0.45c0.09-0.18,0.13-0.38,0.13-0.6v-0.72
		H84.72z"/>
	<path d="M89.03,73.88c-0.07-0.13-0.15-0.23-0.26-0.31c-0.11-0.08-0.24-0.14-0.38-0.18c-0.14-0.04-0.29-0.06-0.45-0.06
		c-0.12,0-0.25,0.01-0.37,0.04c-0.13,0.02-0.24,0.07-0.35,0.13l-0.26,0.24c-0.06,0.1-0.1,0.23-0.1,0.37c0,0.13,0.03,0.23,0.09,0.31
		l0.24,0.22c0.09,0.06,0.2,0.11,0.31,0.15c0.11,0.04,0.21,0.07,0.31,0.09l0.74,0.17c0.16,0.02,0.31,0.06,0.47,0.13
		c0.16,0.06,0.29,0.14,0.42,0.24c0.12,0.1,0.22,0.22,0.3,0.37c0.08,0.15,0.11,0.32,0.11,0.52c0,0.25-0.06,0.46-0.17,0.63
		c-0.11,0.17-0.25,0.31-0.43,0.42c-0.17,0.11-0.37,0.19-0.59,0.23c-0.22,0.05-0.43,0.07-0.64,0.07c-0.53,0-0.97-0.13-1.3-0.38
		c-0.33-0.25-0.52-0.66-0.57-1.22h0.55c0.03,0.38,0.16,0.66,0.41,0.85c0.25,0.19,0.56,0.29,0.93,0.29c0.14,0,0.28-0.01,0.42-0.04
		c0.15-0.03,0.28-0.08,0.4-0.15c0.12-0.07,0.22-0.16,0.3-0.27c0.08-0.11,0.12-0.24,0.12-0.4c0-0.14-0.03-0.25-0.08-0.34l-0.23-0.23
		c-0.09-0.06-0.2-0.11-0.32-0.15c-0.12-0.04-0.24-0.08-0.37-0.11l-0.72-0.16c-0.18-0.05-0.35-0.1-0.5-0.16
		c-0.15-0.06-0.29-0.14-0.4-0.23c-0.11-0.09-0.2-0.2-0.27-0.33c-0.06-0.13-0.09-0.3-0.09-0.49c0-0.23,0.05-0.43,0.15-0.59
		s0.24-0.3,0.4-0.4c0.16-0.1,0.35-0.18,0.55-0.22c0.2-0.05,0.4-0.07,0.6-0.07c0.23,0,0.44,0.03,0.64,0.09
		c0.2,0.06,0.37,0.15,0.52,0.27c0.15,0.12,0.27,0.28,0.36,0.46c0.09,0.18,0.14,0.4,0.15,0.64h-0.56
		C89.13,74.15,89.09,74,89.03,73.88"/>
	<path d="M91.06,76.04c0.06,0.21,0.15,0.41,0.27,0.58c0.12,0.17,0.28,0.31,0.47,0.42c0.19,0.11,0.42,0.17,0.68,0.17
		c0.41,0,0.72-0.1,0.95-0.32c0.23-0.21,0.39-0.49,0.47-0.85h0.56c-0.12,0.52-0.33,0.92-0.65,1.2c-0.31,0.28-0.76,0.42-1.34,0.42
		c-0.36,0-0.67-0.06-0.93-0.19c-0.26-0.13-0.48-0.3-0.64-0.52c-0.16-0.22-0.29-0.48-0.37-0.77c-0.08-0.29-0.12-0.6-0.12-0.92
		c0-0.3,0.04-0.6,0.12-0.88c0.08-0.29,0.2-0.55,0.37-0.77c0.16-0.23,0.38-0.41,0.64-0.55c0.26-0.14,0.57-0.21,0.93-0.21
		c0.36,0,0.68,0.07,0.93,0.22c0.26,0.15,0.47,0.34,0.63,0.58c0.16,0.24,0.28,0.51,0.35,0.82c0.07,0.31,0.1,0.62,0.09,0.94h-3.5
		C90.98,75.62,91.01,75.82,91.06,76.04 M93.82,74.34c-0.07-0.19-0.16-0.37-0.29-0.52c-0.12-0.15-0.27-0.27-0.45-0.36
		c-0.18-0.09-0.38-0.14-0.6-0.14c-0.23,0-0.43,0.05-0.61,0.14c-0.17,0.09-0.32,0.21-0.45,0.36c-0.13,0.15-0.22,0.32-0.3,0.52
		c-0.07,0.2-0.12,0.4-0.15,0.61h2.95C93.92,74.74,93.88,74.53,93.82,74.34"/>
	<path d="M98.72,77.54v-0.86h-0.02c-0.06,0.15-0.15,0.28-0.26,0.4c-0.12,0.12-0.25,0.23-0.4,0.31c-0.15,0.09-0.3,0.15-0.47,0.2
		c-0.17,0.05-0.33,0.07-0.5,0.07c-0.35,0-0.65-0.06-0.9-0.19c-0.26-0.13-0.47-0.3-0.64-0.52c-0.17-0.22-0.3-0.48-0.38-0.77
		c-0.08-0.29-0.12-0.6-0.12-0.92c0-0.32,0.04-0.63,0.12-0.92c0.08-0.29,0.21-0.55,0.38-0.77c0.17-0.22,0.38-0.4,0.64-0.53
		c0.26-0.13,0.56-0.19,0.9-0.19c0.17,0,0.34,0.02,0.5,0.06c0.16,0.04,0.31,0.1,0.45,0.19c0.14,0.08,0.27,0.19,0.38,0.31
		c0.11,0.12,0.19,0.27,0.25,0.43h0.02v-2.61h0.55v6.3H98.72z M95.67,75.97c0.06,0.23,0.15,0.44,0.27,0.62
		c0.12,0.18,0.27,0.33,0.46,0.45c0.19,0.12,0.42,0.17,0.68,0.17c0.3,0,0.54-0.06,0.75-0.17c0.2-0.12,0.37-0.26,0.5-0.45
		c0.12-0.18,0.22-0.39,0.27-0.62c0.05-0.23,0.09-0.47,0.09-0.7c0-0.24-0.03-0.47-0.09-0.7c-0.06-0.23-0.15-0.44-0.27-0.62
		c-0.13-0.18-0.29-0.33-0.5-0.44c-0.2-0.11-0.45-0.17-0.75-0.17c-0.26,0-0.49,0.06-0.68,0.17c-0.19,0.11-0.34,0.26-0.46,0.44
		c-0.12,0.18-0.21,0.39-0.27,0.62c-0.06,0.23-0.08,0.46-0.08,0.7C95.59,75.5,95.62,75.73,95.67,75.97"/>
	<path d="M102.86,73.69c0.09-0.19,0.22-0.35,0.38-0.48c0.16-0.12,0.35-0.21,0.57-0.27c0.22-0.06,0.46-0.09,0.72-0.09
		c0.2,0,0.4,0.02,0.6,0.06c0.2,0.04,0.38,0.11,0.54,0.21c0.16,0.11,0.29,0.26,0.39,0.45c0.1,0.19,0.15,0.44,0.15,0.75v2.42
		c0,0.22,0.11,0.34,0.33,0.34l0.17-0.04v0.47l-0.17,0.03l-0.19,0.01c-0.14,0-0.25-0.02-0.34-0.06l-0.2-0.16l-0.09-0.25
		c-0.01-0.1-0.02-0.2-0.02-0.32h-0.02c-0.1,0.15-0.2,0.28-0.3,0.39c-0.1,0.12-0.22,0.21-0.35,0.29c-0.13,0.08-0.27,0.14-0.43,0.17
		c-0.16,0.04-0.36,0.06-0.58,0.06c-0.21,0-0.41-0.02-0.6-0.07c-0.18-0.05-0.35-0.13-0.48-0.24c-0.14-0.11-0.25-0.25-0.33-0.41
		c-0.08-0.17-0.12-0.37-0.12-0.6c0-0.32,0.07-0.57,0.21-0.75c0.14-0.18,0.33-0.31,0.56-0.41c0.23-0.09,0.49-0.16,0.78-0.2
		c0.29-0.04,0.59-0.08,0.89-0.11c0.12-0.01,0.22-0.02,0.31-0.04l0.22-0.09l0.14-0.18c0.03-0.07,0.05-0.17,0.05-0.3
		c0-0.19-0.03-0.34-0.09-0.46c-0.06-0.12-0.15-0.22-0.25-0.29c-0.11-0.07-0.23-0.12-0.38-0.15c-0.14-0.03-0.3-0.04-0.46-0.04
		c-0.35,0-0.64,0.08-0.87,0.25c-0.22,0.17-0.34,0.44-0.35,0.81h-0.55C102.71,74.12,102.77,73.89,102.86,73.69 M105.64,75.05
		l-0.2,0.14l-0.27,0.06c-0.24,0.04-0.48,0.08-0.73,0.11c-0.25,0.03-0.48,0.08-0.68,0.15c-0.21,0.06-0.38,0.16-0.51,0.28
		c-0.13,0.12-0.2,0.29-0.2,0.52c0,0.14,0.03,0.27,0.08,0.38l0.22,0.28c0.09,0.08,0.2,0.14,0.33,0.18c0.12,0.04,0.25,0.06,0.38,0.06
		c0.21,0,0.41-0.03,0.61-0.1c0.19-0.07,0.36-0.16,0.51-0.28c0.14-0.12,0.26-0.27,0.34-0.45c0.09-0.18,0.13-0.38,0.13-0.6v-0.72
		H105.64z"/>
	<rect x="107.33" y="71.24" width="0.55" height="6.3"/>
	<polygon points="109.09,72.99 110.25,76.89 110.27,76.89 111.38,72.99 112.01,72.99 113.12,76.89 113.14,76.89 114.3,72.99 
		114.89,72.99 113.43,77.54 112.82,77.54 111.7,73.71 111.68,73.71 110.57,77.54 109.96,77.54 108.5,72.99 	"/>
	<path d="M115.61,73.69c0.09-0.19,0.22-0.35,0.38-0.48c0.16-0.12,0.35-0.21,0.57-0.27c0.22-0.06,0.46-0.09,0.73-0.09
		c0.2,0,0.4,0.02,0.6,0.06c0.2,0.04,0.38,0.11,0.54,0.21c0.16,0.11,0.29,0.26,0.39,0.45c0.1,0.19,0.15,0.44,0.15,0.75v2.42
		c0,0.22,0.11,0.34,0.33,0.34l0.18-0.04v0.47l-0.17,0.03l-0.19,0.01c-0.14,0-0.25-0.02-0.34-0.06l-0.2-0.16l-0.09-0.25
		c-0.01-0.1-0.02-0.2-0.02-0.32h-0.02c-0.1,0.15-0.2,0.28-0.3,0.39c-0.1,0.12-0.22,0.21-0.35,0.29c-0.13,0.08-0.27,0.14-0.43,0.17
		c-0.16,0.04-0.35,0.06-0.58,0.06c-0.21,0-0.41-0.02-0.6-0.07c-0.19-0.05-0.35-0.13-0.48-0.24c-0.14-0.11-0.25-0.25-0.33-0.41
		c-0.08-0.17-0.12-0.37-0.12-0.6c0-0.32,0.07-0.57,0.21-0.75c0.14-0.18,0.33-0.31,0.56-0.41c0.24-0.09,0.49-0.16,0.79-0.2
		c0.29-0.04,0.59-0.08,0.89-0.11c0.12-0.01,0.22-0.02,0.31-0.04l0.22-0.09l0.14-0.18c0.03-0.07,0.05-0.17,0.05-0.3
		c0-0.19-0.03-0.34-0.09-0.46c-0.06-0.12-0.15-0.22-0.26-0.29c-0.11-0.07-0.23-0.12-0.38-0.15c-0.15-0.03-0.3-0.04-0.46-0.04
		c-0.35,0-0.64,0.08-0.86,0.25c-0.22,0.17-0.34,0.44-0.35,0.81h-0.55C115.46,74.12,115.51,73.89,115.61,73.69 M118.39,75.05
		l-0.2,0.14l-0.26,0.06c-0.24,0.04-0.48,0.08-0.73,0.11c-0.25,0.03-0.48,0.08-0.68,0.15c-0.21,0.06-0.38,0.16-0.51,0.28
		c-0.13,0.12-0.2,0.29-0.2,0.52c0,0.14,0.03,0.27,0.09,0.38l0.23,0.28c0.09,0.08,0.2,0.14,0.32,0.18c0.12,0.04,0.25,0.06,0.38,0.06
		c0.21,0,0.41-0.03,0.61-0.1c0.19-0.07,0.36-0.16,0.51-0.28c0.15-0.12,0.26-0.27,0.34-0.45c0.09-0.18,0.13-0.38,0.13-0.6v-0.72
		H118.39z"/>
	<path d="M120.15,72.99l1.5,3.88l1.4-3.88h0.55l-1.98,5.24c-0.08,0.19-0.16,0.35-0.23,0.48c-0.07,0.13-0.15,0.23-0.23,0.3
		c-0.09,0.07-0.19,0.13-0.3,0.16c-0.11,0.03-0.26,0.05-0.44,0.05c-0.11-0.01-0.2-0.01-0.26-0.01l-0.16-0.03V78.7l0.19,0.03
		l0.19,0.01c0.12,0,0.23-0.02,0.3-0.05l0.21-0.15l0.15-0.23l0.13-0.29l0.19-0.51l-1.82-4.53H120.15z"/>
	<path d="M126.78,73.88c-0.07-0.13-0.15-0.23-0.26-0.31c-0.11-0.08-0.24-0.14-0.38-0.18c-0.14-0.04-0.29-0.06-0.45-0.06
		c-0.12,0-0.25,0.01-0.38,0.04c-0.13,0.02-0.24,0.07-0.35,0.13l-0.26,0.24c-0.06,0.1-0.1,0.23-0.1,0.37c0,0.13,0.03,0.23,0.09,0.31
		l0.24,0.22c0.09,0.06,0.2,0.11,0.31,0.15c0.11,0.04,0.21,0.07,0.31,0.09l0.74,0.17c0.16,0.02,0.31,0.06,0.47,0.13
		c0.16,0.06,0.3,0.14,0.42,0.24c0.12,0.1,0.22,0.22,0.3,0.37c0.08,0.15,0.11,0.32,0.11,0.52c0,0.25-0.06,0.46-0.16,0.63
		c-0.11,0.17-0.26,0.31-0.43,0.42c-0.17,0.11-0.37,0.19-0.59,0.23c-0.22,0.05-0.43,0.07-0.64,0.07c-0.54,0-0.97-0.13-1.3-0.38
		c-0.33-0.25-0.52-0.66-0.57-1.22h0.55c0.02,0.38,0.16,0.66,0.41,0.85c0.25,0.19,0.56,0.29,0.93,0.29c0.13,0,0.28-0.01,0.42-0.04
		c0.14-0.03,0.28-0.08,0.4-0.15c0.12-0.07,0.23-0.16,0.3-0.27c0.08-0.11,0.12-0.24,0.12-0.4c0-0.14-0.03-0.25-0.08-0.34l-0.23-0.23
		c-0.09-0.06-0.2-0.11-0.32-0.15c-0.12-0.04-0.24-0.08-0.37-0.11l-0.72-0.16c-0.18-0.05-0.35-0.1-0.5-0.16
		c-0.15-0.06-0.29-0.14-0.4-0.23c-0.11-0.09-0.2-0.2-0.27-0.33c-0.06-0.13-0.1-0.3-0.1-0.49c0-0.23,0.05-0.43,0.15-0.59
		c0.11-0.16,0.24-0.3,0.4-0.4c0.16-0.1,0.35-0.18,0.55-0.22c0.2-0.05,0.41-0.07,0.61-0.07c0.23,0,0.44,0.03,0.64,0.09
		c0.2,0.06,0.37,0.15,0.52,0.27c0.15,0.12,0.27,0.28,0.36,0.46c0.09,0.18,0.14,0.4,0.15,0.64h-0.56
		C126.88,74.15,126.84,74,126.78,73.88"/>
	<path d="M19.91,40.53l-0.04,14.86h-2.03c-1.2,0-2.18-0.98-2.18-2.18v-0.94C13.43,55.72,2.4,59.43,2.4,50.04
		c0-7.32,7.62-6.56,13.26-8.67V39.3c0-2.61-1.09-3.87-3.87-3.87c-1.43,0-4.51-0.13-6.61,2.95L4,38.04c1.85-3.37,5.13-3.92,7.7-3.92
		C17.77,34.13,19.91,36.61,19.91,40.53 M15.66,51.13v-8.54c-4.25,1.35-8.67,1.35-8.67,7.07C6.99,55.26,11.87,55.55,15.66,51.13"/>
	<path d="M29.55,35.91v19.47h-1.98c-1.23,0-2.22-1-2.22-2.22v-14.7c0-1.93-1.39-3.79-3.75-4.08v-0.21h6.22
		C28.77,34.17,29.55,34.95,29.55,35.91 M27.49,25.54c-1.47,0-2.65,1.18-2.65,2.65c0,1.43,1.18,2.61,2.65,2.61
		c1.43,0,2.61-1.18,2.61-2.61C30.1,26.72,28.92,25.54,27.49,25.54"/>
	<path d="M56.19,45.2c0,6.15-2.65,10.78-9.14,10.78c-3.58,0-5.72-1.51-6.9-3.11v2.53h-2.02c-1.21,0-2.19-0.98-2.19-2.19V28.87
		c0-1.94-1.39-3.79-3.75-4.08v-0.21h6.12c1.01,0,1.83,0.82,1.83,1.83v11.09c1.22-1.56,3.41-3.16,6.9-3.16
		C53.54,34.34,56.19,39.05,56.19,45.2 M51.56,45.2c0-9.89-6.52-12.63-11.41-5.6v11.15C45.04,57.74,51.61,55.17,51.56,45.2"/>
	<path d="M64.43,26.34v29.04h-1.98c-1.23,0-2.23-1-2.23-2.24V28.49c0-1.77-1.47-3.45-3.71-3.7v-0.21h6.15
		C63.64,24.57,64.43,25.37,64.43,26.34"/>
	<path d="M3.04,67l3.11-6.95L9.34,67H8.19l-0.6-1.31h-3.5L3.5,67H3.04z M4.25,65.33h3.17l-1.61-3.49L4.25,65.33z"/>
	<path d="M11.13,60.05V67h-0.95v-6.07c0-0.4-0.33-0.78-0.84-0.84v-0.05H11.13z"/>
	<rect x="11.79" y="63.49" width="2.64" height="0.77"/>
	<path d="M15.1,67l3.12-6.95L21.4,67h-1.15l-0.6-1.31h-3.51L15.56,67H15.1z M16.31,65.33h3.17l-1.6-3.49L16.31,65.33z"/>
	<path d="M25.64,62.25v0.57c-0.69,0-1.44-0.1-1.69,1.33V67h-0.95v-3.79c0-0.43-0.31-0.84-0.84-0.91v-0.05h1.79v1.24
		C24.23,62.47,24.81,62.25,25.64,62.25"/>
	<path d="M29.79,63.65L29.78,67h-0.95v-0.7c-0.5,0.78-2.99,1.62-2.99-0.5c0-1.65,1.72-1.48,2.99-1.96v-0.46
		c0-0.59-0.24-0.87-0.87-0.87c-0.32,0-1.01-0.03-1.49,0.67l-0.26-0.08c0.42-0.76,1.16-0.88,1.74-0.88
		C29.3,62.2,29.79,62.76,29.79,63.65 M28.83,66.04v-1.93c-0.96,0.3-1.96,0.3-1.96,1.6C26.87,66.97,27.97,67.04,28.83,66.04"/>
	<path d="M32.02,61.21v1.03h0.93v0.36h-0.93V67h-0.95v-4.4h-0.9v-0.36h0.9v-0.75c0-0.79,0.4-1.47,1.6-1.47
		c0.32,0,0.59,0.07,0.82,0.16l-0.16,0.2c-0.16-0.07-0.35-0.1-0.57-0.1C32.13,60.28,32.02,60.57,32.02,61.21"/>
	<path d="M37.25,63.65L37.24,67h-0.95v-0.7c-0.5,0.78-2.99,1.62-2.99-0.5c0-1.65,1.72-1.48,2.99-1.96v-0.46
		c0-0.59-0.25-0.87-0.87-0.87c-0.32,0-1.02-0.03-1.49,0.67l-0.27-0.08c0.42-0.76,1.16-0.88,1.74-0.88
		C36.77,62.2,37.25,62.76,37.25,63.65 M36.29,66.04v-1.93c-0.96,0.3-1.96,0.3-1.96,1.6C34.33,66.97,35.43,67.04,36.29,66.04"/>
	<path d="M42.43,63.8L42.42,67h-0.95v-3.14c0-0.9-0.53-1.3-0.95-1.3c-0.56,0-0.95,0.3-1.2,0.61V67h-0.95v-5.97
		c0-0.44-0.31-0.86-0.85-0.93v-0.05h1.79v2.69c0.28-0.27,0.68-0.5,1.22-0.5C41.88,62.24,42.43,63.04,42.43,63.8"/>
	<path d="M47.36,60.05V67h-0.95v-5.98c0-0.41-0.26-0.76-0.84-0.92v-0.05H47.36z"/>
	<path d="M51.85,65.88c0,0.78-0.9,1.25-2.04,1.25c-0.69,0-1.69-0.33-1.69-1.35h0.38c0,0.8,0.78,1.02,1.33,1.04
		c0.65,0,1.16-0.27,1.16-0.7c0-0.62-0.51-0.72-1.37-1.1c-0.54-0.24-1.5-0.64-1.5-1.54c0-0.69,0.64-1.28,1.87-1.28
		c0.34,0,1.53,0.1,1.53,1.15h-0.33c0-0.72-0.85-0.88-1.19-0.88c-0.58,0-1.02,0.23-1.02,0.73c0,0.51,0.59,0.69,1.27,1.02
		C51.24,64.68,51.85,65,51.85,65.88"/>
	<path d="M53.54,60.05V67h-0.95v-6.07c0-0.4-0.33-0.78-0.84-0.84v-0.05H53.54z"/>
	<path d="M58.25,63.65L58.24,67h-0.95v-0.7c-0.5,0.78-2.99,1.62-2.99-0.5c0-1.65,1.72-1.48,2.99-1.96v-0.46
		c0-0.59-0.25-0.87-0.87-0.87c-0.32,0-1.02-0.03-1.49,0.67l-0.27-0.08c0.42-0.76,1.16-0.88,1.74-0.88
		C57.77,62.2,58.25,62.76,58.25,63.65 M57.29,66.04v-1.93c-0.96,0.3-1.96,0.3-1.96,1.6C55.34,66.97,56.44,67.04,57.29,66.04"/>
	<path d="M66.62,63.8L66.61,67h-0.95v-3.14c0-0.9-0.53-1.3-0.94-1.3c-0.58,0-0.93,0.27-1.19,0.62L63.52,67h-0.95v-3.14
		c0-0.9-0.53-1.3-0.94-1.3c-0.57,0-0.96,0.3-1.2,0.61V67h-0.95v-3.79c0-0.44-0.3-0.85-0.85-0.92v-0.05h1.8v0.5
		c0.29-0.27,0.69-0.5,1.22-0.5c0.85,0,1.39,0.28,1.66,0.69c0.34-0.4,0.83-0.69,1.42-0.69C66.08,62.24,66.62,63.04,66.62,63.8"/>
	<path d="M68.79,62.21V67h-0.95v-3.82c0-0.44-0.31-0.85-0.84-0.92v-0.05H68.79z M68.33,60.26c-0.33,0-0.6,0.27-0.6,0.6
		c0,0.32,0.27,0.59,0.6,0.59c0.32,0,0.59-0.26,0.59-0.59C68.92,60.53,68.65,60.26,68.33,60.26"/>
	<path d="M78.13,65.19c0,0.39-0.28,1.8-2.69,1.8h-2.54v-5.97c0-0.44-0.31-0.86-0.85-0.93v-0.05h3.39c2.13-0.03,2.38,1.51,2.38,1.82
		c0,0.96-0.64,1.39-1.21,1.6C77.3,63.62,78.13,64.05,78.13,65.19 M73.94,63.25h1.55c0.56,0,1.3-0.43,1.3-1.34
		c0-0.98-0.63-1.53-1.5-1.53h-1.35V63.25z M76.98,65.15c0-1.43-1.51-1.57-1.8-1.57h-1.24v3.05h1.5
		C75.44,66.63,76.98,66.59,76.98,65.15"/>
	<path d="M82.65,63.65L82.64,67h-0.95v-0.7c-0.5,0.78-2.99,1.62-2.99-0.5c0-1.65,1.72-1.48,2.99-1.96v-0.46
		c0-0.59-0.25-0.87-0.87-0.87c-0.32,0-1.02-0.03-1.49,0.67l-0.27-0.08c0.42-0.76,1.16-0.88,1.74-0.88
		C82.16,62.2,82.65,62.76,82.65,63.65 M81.69,66.04v-1.93c-0.96,0.3-1.96,0.3-1.96,1.6C79.73,66.97,80.83,67.04,81.69,66.04"/>
	<path d="M87.93,63.8L87.92,67h-0.95v-3.14c0-0.9-0.53-1.3-0.94-1.3c-0.57,0-0.96,0.3-1.21,0.61V67h-0.95v-3.82
		c0-0.43-0.32-0.83-0.84-0.89v-0.05h1.79v0.5c0.29-0.27,0.69-0.5,1.22-0.5C87.38,62.24,87.93,63.04,87.93,63.8"/>
	<path d="M93.02,67h-1.21l-1.81-2.32V67h-0.95v-5.98c0-0.44-0.3-0.86-0.85-0.92v-0.05h1.79v4.58l2.19-1.99h0.62l-1.85,1.73L93.02,67
		z"/>
	<path d="M101.46,66.57V67h-4.46v-5.98c0-0.41-0.25-0.76-0.83-0.92v-0.05h1.79v6.52H101.46z"/>
	<path d="M102.68,62.21V67h-0.95v-3.82c0-0.44-0.31-0.85-0.85-0.92v-0.05H102.68z M102.22,60.26c-0.33,0-0.6,0.27-0.6,0.6
		c0,0.32,0.26,0.59,0.6,0.59c0.32,0,0.59-0.26,0.59-0.59C102.8,60.53,102.54,60.26,102.22,60.26"/>
	<path d="M111.55,63.8l-0.01,3.2h-0.95v-3.14c0-0.9-0.54-1.3-0.94-1.3c-0.58,0-0.93,0.27-1.19,0.62L108.46,67h-0.95v-3.14
		c0-0.9-0.53-1.3-0.94-1.3c-0.57,0-0.96,0.3-1.2,0.61V67h-0.95v-3.79c0-0.44-0.3-0.85-0.84-0.92v-0.05h1.8v0.5
		c0.29-0.27,0.69-0.5,1.21-0.5c0.85,0,1.39,0.28,1.66,0.69c0.34-0.4,0.83-0.69,1.43-0.69C111.01,62.24,111.55,63.04,111.55,63.8"/>
	<path d="M113.73,62.21V67h-0.95v-3.82c0-0.44-0.31-0.85-0.84-0.92v-0.05H113.73z M113.26,60.26c-0.33,0-0.6,0.27-0.6,0.6
		c0,0.32,0.27,0.59,0.6,0.59c0.32,0,0.59-0.26,0.59-0.59C113.85,60.53,113.58,60.26,113.26,60.26"/>
	<path d="M117.71,66.47c-0.23,0.29-0.56,0.67-1.35,0.67c-0.86,0-0.91-0.46-0.91-0.9V62.6h-0.78v-0.36h0.78V62
		c0-0.44-0.31-0.85-0.84-0.9v-0.05h1.8v1.19h1.01v0.36h-1.01v3.45c0,0.27-0.07,0.66,0.26,0.75c0.2,0.05,0.62-0.03,0.85-0.47
		L117.71,66.47z"/>
	<path d="M118.95,64.46v0.22c0,1.75,1.59,3.08,3.07,1.35l0.16,0.15c-0.06,0.12-0.59,0.95-1.96,0.95c-1.46,0-2.32-1.06-2.32-2.45
		c0-1.39,0.85-2.44,2.32-2.44c1.75,0,1.97,1.34,1.97,1.86v0.36H118.95z M118.98,64.1h2.07c-0.02-1.04-0.19-1.53-0.82-1.53
		C119.63,62.57,119.1,62.9,118.98,64.1"/>
	<path d="M127.51,60.05V67h-0.95v-0.57c-0.28,0.36-0.76,0.7-1.57,0.7c-1.46,0-2.05-1.05-2.05-2.43c0-1.39,0.59-2.45,2.05-2.45
		c0.79,0,1.28,0.36,1.57,0.71v-1.97c0-0.43-0.32-0.83-0.85-0.89v-0.05H127.51z M126.56,63.44c-1.1-1.59-2.57-0.97-2.57,1.26
		c-0.01,2.25,1.47,2.83,2.57,1.25V63.44z"/>
	<path d="M99.1,22.16L82.09,35.43v19.31L99.1,41.29l17.3,13.45V35.61L99.1,22.16L99.1,22.16L99.1,22.16L99.1,22.16z M82.09,24.38
		v8.74l17.06-13.47l17.25,13.84v-8.93L99.15,10.89v0h0h-0.01v0L82.09,24.38z"/>
	<polygon class="st0" points="99.11,41.31 82.09,54.74 82.08,35.44 99.11,22.16 	"/>
	<polygon class="st0" points="99.15,19.64 82.1,33.13 82.1,24.37 99.14,10.9 	"/>
	<path class="st1" d="M99.25,0.78v5.1c21.47,8.94,23.56,18.37,23.56,22.96v26.6h4.71v-27.4C127.52,22.6,125.01,11.41,99.25,0.78"/>
	<path class="st2" d="M99.25,0.78C73.49,11.41,70.98,22.6,70.98,28.05v27.41h4.71V28.85c0-4.6,2.1-14.02,23.56-22.97l0,0L99.25,0.78
		L99.25,0.78z"/>
	<polygon class="st3" points="82.09,32.98 82.09,35.78 99.14,22.47 116.4,35.96 116.4,33.35 99.08,19.48 	"/>
	<polyline class="st4" points="99.14,22.47 116.4,35.96 116.4,33.35 99.08,19.48 	"/>
</g>
</svg>
