<?xml version="1.0" encoding="utf-8"?>
<!-- Generator: Adobe Illustrator 28.0.0, SVG Export Plug-In . SVG Version: 6.00 Build 0)  -->
<svg version="1.1" id="Layer_1" xmlns="http://www.w3.org/2000/svg" xmlns:xlink="http://www.w3.org/1999/xlink" x="0px" y="0px"
	width="130" height="80" viewBox="0 0 130 80" style="enable-background:new 0 0 130 80;" xml:space="preserve">
<style type="text/css">
	.st0{fill:#2B9ED9;}
	.st1{fill:#403C3B;}
</style>
<g>
	<path class="st0" d="M38.18,46.79c6.09,2.02,7.8,2.27,8.02,2.29V25.63c0-4-3.27-7.25-7.31-7.25H7.86l0,0
		c-4.04,0-7.31,3.24-7.31,7.25v30.74c0,4,3.27,7.25,7.31,7.25h31.03c4.04,0,7.31-3.25,7.31-7.25v-0.31
		c-0.14-0.06-11.87-4.9-17.83-7.74c-4.02,4.9-9.21,7.88-14.6,7.88c-9.11,0-12.2-7.9-7.89-13.1c0.94-1.13,2.54-2.22,5.02-2.82
		c3.88-0.95,10.07,0.59,15.86,2.48c1.04-1.9,1.92-4,2.57-6.23H11.49v-1.79h9.21v-3.21H9.54v-1.79h11.15v-4.58c0,0,0-0.77,0.79-0.77
		h4.5v5.35H37v1.79H25.98v3.21h9c-0.86,3.49-2.17,6.71-3.81,9.53C33.9,45.25,36.35,46.18,38.18,46.79z"/>
	<path class="st0" d="M11.68,42.96c-1.14,0.11-3.28,0.61-4.45,1.64c-3.51,3.03-1.41,8.57,5.69,8.57c4.13,0,8.25-2.61,11.49-6.8
		c-4.18-2.02-7.78-3.52-11.56-3.48C12.47,42.9,12.08,42.92,11.68,42.96z"/>
</g>
<g>
	<polygon class="st1" points="123.57,54.23 121.5,49.83 119.48,49.83 122.63,55.91 122.63,60.15 124.48,60.15 124.48,55.91 
		124.5,55.88 127.63,49.83 125.61,49.83 	"/>
	<path class="st1" d="M109.89,49.83l-3.81,10.32h1.94l0.72-2.08h3.82l0.69,2.08h1.94l-3.83-10.32H109.89z M109.2,56.77l1.49-4.28
		l1.44,4.28H109.2z"/>
	<path class="st1" d="M98.17,49.83L98.17,49.83l-4.04,0v10.32H96v-3.97h2.17c2.01,0,3.42-1.31,3.42-3.18S100.19,49.83,98.17,49.83z
		 M98.07,54.76L98.07,54.76l-2.06,0v-3.53h2.06c1.04,0,1.66,0.9,1.66,1.77C99.72,53.86,99.15,54.76,98.07,54.76z"/>
	<rect x="84.69" y="49.83" class="st1" width="1.87" height="10.32"/>
	<polygon class="st1" points="73.42,49.83 71.55,49.83 71.55,60.15 77.84,60.15 77.84,58.74 73.42,58.74 	"/>
	<path class="st1" d="M60.11,49.83L56.3,60.15h1.94l0.72-2.08h3.82l0.69,2.08h1.94l-3.83-10.32H60.11z M59.42,56.77l1.49-4.28
		l1.44,4.28H59.42z"/>
	<path class="st1" d="M77.49,44.55c-3.81-1.38-6.83-2.89-9.2-4.35c3.43-2.53,6.44-5.96,7.65-10.55v0h-8.01V26.8h9.29v-1.78h-9.29
		v-3.62h-4.14c-0.45,0-0.82,0.38-0.82,0.84v2.77h-9.23v1.78h9.23v2.85h-7.79v1.78h15.51c0,0-0.86,3.34-5.12,6.92
		c-3.81-2.87-5.09-5.15-5.09-5.15h-4.16c1.68,2.9,4.08,5.22,6.65,7.06c-2.37,1.53-5.44,3-9.4,4.18v2.13c0,0,6.12-1.15,12.04-4.61
		c5.93,3.44,11.88,4.61,11.88,4.61V44.55z"/>
	<path class="st1" d="M101.97,21.76H97.8v4.33H87.52v1.74H97.8v15.57c-0.04,0.36-0.32,0.63-0.67,0.65h-2.12v1.8h5.41
		c0.86-0.03,1.54-0.74,1.56-1.61V27.84h1.69v-1.74h-1.69L101.97,21.76z"/>
	<path class="st1" d="M93.17,30.77c-0.15-0.31-0.46-0.52-0.83-0.53h-3.48l2.71,8.47h4.11L93.17,30.77z"/>
	<polygon class="st1" points="78.12,32.8 81.79,32.8 81.79,46.18 85.81,46.18 85.81,28.43 84.35,28.43 87.38,21.56 82.91,21.56 	"/>
	<path class="st1" d="M127.99,40.65c-0.1-0.31-0.38-0.54-0.72-0.54h-3.89l1.13,3.78h-4.57v-7.32h8.97v-1.74h-8.97v-3.45h8.97v-1.74
		h-22.39v1.74h8.97v3.45h-8.97v1.74h8.97v7.32h-8.97v1.74h22.94l-0.02-0.06h0.02L127.99,40.65z"/>
	<path class="st1" d="M111.18,25.47h13.07v2.57h4.67V25c0-0.01,0-0.01,0-0.02c0-0.68-0.54-1.24-1.21-1.25h-7.56v-2.4h-4.89v2.4
		h-8.75v4.31h4.67L111.18,25.47z"/>
</g>
</svg>
