<?xml version="1.0" encoding="utf-8"?>
<!-- Generator: Adobe Illustrator 28.5.0, SVG Export Plug-In . SVG Version: 9.03 Build 54727)  -->
<svg version="1.1" id="Layer_1" xmlns="http://www.w3.org/2000/svg" xmlns:xlink="http://www.w3.org/1999/xlink" x="0px" y="0px"
	width="200" height="50" viewBox="0 0 200 50" style="enable-background:new 0 0 200 50;" xml:space="preserve">
<style type="text/css">
	.st0{fill:#0370CF;}
</style>
<g>
	<path class="st0" d="M42.77,6.82c0,4.88-0.01,9.75,0.01,14.63c0,0.45-0.09,0.62-0.58,0.6c-1.54-0.03-3.09-0.02-4.63-0.01
		c-0.36,0-0.48-0.09-0.48-0.46c0.01-6.88,0.01-13.75,0-20.63c0-0.36,0.09-0.48,0.46-0.48c2.74,0.01,5.49,0.01,8.23,0
		c0.29,0,0.42,0.09,0.52,0.37c0.56,1.61,1.14,3.21,1.72,4.8c0.67,1.85,1.38,3.69,2.03,5.55c0.32,0.92,0.68,1.83,1.06,2.85
		c0.36-1,0.69-1.9,1.02-2.8c1.24-3.44,2.48-6.87,3.71-10.31c0.09-0.25,0.15-0.47,0.51-0.47c2.78,0.01,5.55,0.01,8.33,0.01
		c0.08,0,0.16,0.02,0.22,0.03c0.14,0.14,0.08,0.29,0.08,0.43c0,6.88,0,13.75,0.01,20.63c0,0.35-0.07,0.48-0.46,0.48
		c-1.59-0.02-3.19-0.02-4.78,0c-0.34,0-0.49-0.09-0.44-0.44c0.01-0.06,0-0.13,0-0.19c0-4.6,0-9.2,0-13.8c0-0.24,0-0.47,0-0.73
		c-0.21,0.06-0.23,0.21-0.28,0.35c-1.76,4.79-3.52,9.57-5.26,14.36c-0.12,0.32-0.26,0.46-0.62,0.45c-1.41-0.02-2.83-0.02-4.24,0
		c-0.33,0-0.48-0.12-0.6-0.43c-1.75-4.79-3.5-9.58-5.26-14.36C43,7.09,42.91,6.94,42.84,6.79C42.82,6.8,42.79,6.81,42.77,6.82z"/>
	<path class="st0" d="M182.14,0.51c1.94,0,3.8,0,5.66,0c0.13,0.17,0.07,0.35,0.07,0.53c0,6.84,0,13.68,0.01,20.53
		c0,0.41-0.13,0.48-0.5,0.48c-2.02-0.01-4.03-0.01-6.05,0c-0.31,0-0.5-0.09-0.68-0.35c-2.8-4.24-5.62-8.47-8.43-12.71
		c-0.09-0.13-0.16-0.28-0.31-0.37c-0.13,0.08-0.06,0.2-0.06,0.3c0,4.21-0.01,8.42,0.01,12.63c0,0.38-0.08,0.51-0.48,0.5
		c-1.72-0.02-3.44-0.01-5.21-0.01c0-7.18,0-14.33,0-21.49c0.13-0.11,0.3-0.06,0.46-0.07c2.11,0,4.22,0,6.33-0.01
		c0.31,0,0.51,0.09,0.68,0.35c2.28,3.43,4.57,6.86,6.86,10.29c0.51,0.77,1.03,1.54,1.64,2.3C182.14,9.13,182.14,4.84,182.14,0.51z"
		/>
	<path class="st0" d="M120.73,41.99c2.39,2.6,4.71,5.13,7.04,7.66c-0.14,0.16-0.31,0.09-0.46,0.09c-2.06,0.01-4.13,0-6.19,0.01
		c-0.31,0-0.51-0.1-0.71-0.32c-1.99-2.29-3.98-4.58-5.97-6.87c-0.21-0.24-0.43-0.36-0.75-0.34c-0.36,0.03-0.72,0.03-1.07,0
		c-0.42-0.04-0.56,0.08-0.55,0.53c0.02,2.16,0.01,4.31,0.01,6.47c0,0.16,0.05,0.32-0.06,0.5c-1.88,0-3.77,0-5.65,0
		c-0.1-0.09-0.07-0.19-0.07-0.29c0-6.25-0.01-12.5-0.01-18.75c0-0.68,0.01-1.36-0.01-2.05c-0.01-0.28,0.07-0.42,0.38-0.42
		c4.4,0.04,8.81-0.1,13.21,0.08c1.57,0.06,3.01,0.61,4.25,1.62c1.7,1.39,2.41,3.24,2.37,5.37c-0.03,1.93-0.71,3.63-2.19,4.95
		c-0.88,0.78-1.89,1.31-3.02,1.61C121.13,41.87,120.99,41.92,120.73,41.99z M112.11,37.44c0.46,0,0.86,0,1.27,0
		c1.7-0.01,3.41,0.01,5.11-0.03c0.91-0.02,1.68-0.39,2.05-1.3c0.56-1.4-0.35-2.82-1.94-2.94c-1.1-0.08-2.2-0.05-3.3-0.05
		c-1.05-0.01-2.1,0-3.18,0C112.11,34.58,112.11,35.98,112.11,37.44z"/>
	<path class="st0" d="M105.88,14.32c2.34,2.55,4.66,5.08,6.98,7.62c-0.19,0.15-0.36,0.1-0.51,0.1c-2.02,0-4.03-0.01-6.05,0.01
		c-0.36,0-0.6-0.1-0.84-0.37c-1.88-2.18-3.77-4.33-5.64-6.52c-0.4-0.46-0.78-0.72-1.44-0.68c-1.24,0.06-1.24,0.02-1.24,1.27
		c0,1.95,0,3.9,0,5.85c0,0.2,0.07,0.45-0.27,0.45c-1.8,0-3.6,0-5.46,0c0-7.18,0-14.33,0-21.49c0.09-0.1,0.23-0.06,0.36-0.06
		c4.12,0,8.25-0.01,12.37,0.02c1.84,0.01,3.58,0.47,5.03,1.67c1.78,1.46,2.47,3.39,2.36,5.65c-0.07,1.32-0.45,2.51-1.2,3.59
		c-0.96,1.38-2.31,2.19-3.9,2.67C106.28,14.14,106.09,14.14,105.88,14.32z M100.74,9.73c0.85-0.04,1.99,0.08,3.12-0.06
		c0.6-0.08,1.13-0.32,1.5-0.81c0.49-0.65,0.56-1.38,0.25-2.12c-0.36-0.82-1.05-1.23-1.91-1.29c-2.06-0.14-4.12-0.03-6.18-0.07
		c-0.26,0-0.38,0.08-0.38,0.36c0.01,1.2,0.01,2.4,0,3.61c0,0.29,0.11,0.4,0.41,0.39C98.51,9.72,99.49,9.73,100.74,9.73z"/>
	<path class="st0" d="M129.58,49.71c-0.12-0.17-0.07-0.35-0.07-0.53c0-6.79,0-13.59-0.01-20.38c0-0.47,0.13-0.6,0.6-0.6
		c5.7,0.02,11.41,0.01,17.11,0c0.43,0,0.59,0.08,0.57,0.56c-0.04,1.3-0.03,2.6,0,3.9c0.01,0.38-0.12,0.47-0.47,0.47
		c-3.78-0.01-7.56-0.01-11.34-0.01c-0.69,0-0.69-0.01-0.69,0.67c0,0.74,0.04,1.49-0.01,2.23c-0.02,0.43,0.12,0.52,0.51,0.51
		c3.67-0.01,7.35-0.01,11.02-0.01c0.77,0,0.67,0,0.67,0.64c-0.01,1.25-0.02,2.5,0.01,3.75c0.01,0.41-0.1,0.52-0.51,0.52
		c-3.71-0.02-7.41,0-11.12-0.02c-0.43,0-0.6,0.09-0.58,0.56c0.04,0.93,0.01,1.87,0.01,2.87c4.18,0,8.31,0,12.47,0
		c0,1.65,0,3.23,0,4.85C141.68,49.71,135.63,49.71,129.58,49.71z"/>
	<path class="st0" d="M55.01,36.54c0.02,0.17,0.04,0.28,0.04,0.39c0,1.33-0.01,2.66,0.01,4c0.01,0.39-0.09,0.53-0.51,0.53
		c-3.71-0.02-7.41,0-11.12-0.02c-0.46,0-0.58,0.13-0.56,0.57c0.03,0.76,0.03,1.53,0,2.29c-0.02,0.44,0.09,0.58,0.56,0.58
		c3.78-0.02,7.57,0,11.35-0.02c0.5,0,0.63,0.14,0.62,0.63c-0.03,1.22-0.01,2.44-0.01,3.66c0,0.18,0,0.35,0,0.57
		c-6.1,0-12.15,0-18.21,0c-0.13-0.15-0.07-0.34-0.07-0.51c0-6.79,0-13.59-0.01-20.38c0-0.47,0.13-0.61,0.6-0.61
		c5.72,0.01,11.44,0.01,17.16,0c0.45,0,0.54,0.15,0.54,0.56c-0.02,1.27-0.02,2.54,0,3.8c0.01,0.41-0.1,0.56-0.54,0.56
		c-3.81-0.02-7.63,0-11.44-0.02c-0.44,0-0.55,0.13-0.54,0.55c0.03,0.94,0.01,1.88,0.01,2.87C46.95,36.54,50.98,36.54,55.01,36.54z"
		/>
	<path class="st0" d="M69.42,22.01c0-7.16,0-14.3,0-21.49c6.05,0,12.09,0,18.17,0c0,1.61,0,3.21,0,4.8
		c-0.17,0.14-0.36,0.07-0.53,0.07c-3.79,0-7.57,0.01-11.36-0.01c-0.44,0-0.6,0.1-0.57,0.57c0.05,0.76,0.04,1.53,0,2.29
		c-0.02,0.43,0.1,0.56,0.54,0.55c3.67-0.02,7.35-0.01,11.02-0.01c0.19,0,0.39-0.04,0.6,0.06c0,1.6,0,3.2,0,4.79
		c-0.18,0.13-0.36,0.07-0.53,0.07c-3.69,0-7.38,0.01-11.07-0.01c-0.45,0-0.59,0.11-0.56,0.57c0.04,0.79,0.03,1.59,0.01,2.39
		c-0.01,0.37,0.08,0.5,0.49,0.5c3.77-0.02,7.53-0.02,11.3-0.02c0.7,0,0.7,0,0.7,0.72c0,1.25-0.01,2.5,0.01,3.75
		c0,0.29-0.04,0.44-0.39,0.44c-5.87-0.01-11.74-0.01-17.6-0.01C69.57,22.04,69.51,22.02,69.42,22.01z"/>
	<path class="st0" d="M35.92,22.04c-0.52,0-1.02,0-1.53,0c-1.48,0-2.96-0.01-4.44,0.01c-0.33,0-0.49-0.1-0.61-0.41
		c-0.48-1.19-1-2.36-1.48-3.55c-0.13-0.32-0.3-0.43-0.65-0.43c-3.02,0.01-6.05,0.02-9.07,0c-0.36,0-0.51,0.14-0.63,0.44
		c-0.48,1.19-0.98,2.37-1.47,3.56c-0.09,0.22-0.18,0.38-0.48,0.38c-1.93-0.01-3.87-0.01-5.8-0.01c-0.06,0-0.13-0.02-0.23-0.04
		c0.48-1.09,0.96-2.17,1.44-3.25c2.63-5.95,5.27-11.91,7.88-17.87c0.15-0.33,0.33-0.41,0.66-0.41c2.19,0.01,4.38,0.01,6.58,0
		c0.29,0,0.46,0.07,0.59,0.36c1.24,2.84,2.49,5.68,3.74,8.51c1.8,4.08,3.61,8.16,5.41,12.23C35.89,21.71,35.96,21.82,35.92,22.04z
		 M22.69,5.73c-1.03,2.46-2.01,4.8-3.01,7.17c2.05,0,4,0,6.02,0C24.7,10.53,23.72,8.2,22.69,5.73z"/>
	<path class="st0" d="M164.97,21.95c-0.14,0.15-0.29,0.09-0.43,0.09c-1.85,0-3.71-0.01-5.56,0.01c-0.33,0-0.49-0.1-0.61-0.41
		c-0.49-1.2-1.02-2.39-1.51-3.59c-0.12-0.28-0.27-0.38-0.58-0.38c-3.02,0.01-6.05,0.01-9.07,0c-0.36,0-0.55,0.11-0.69,0.45
		c-0.47,1.18-0.97,2.34-1.45,3.51c-0.1,0.24-0.18,0.42-0.51,0.42c-1.92-0.02-3.84-0.01-5.75-0.01c-0.05,0-0.09-0.02-0.14-0.03
		c-0.12-0.14-0.01-0.25,0.04-0.36c0.95-2.17,1.91-4.33,2.87-6.5c1.8-4.08,3.61-8.17,5.41-12.25c0.3-0.68,0.61-1.36,0.9-2.04
		c0.12-0.28,0.27-0.39,0.58-0.38c2.21,0.01,4.42,0.02,6.62,0c0.35,0,0.48,0.15,0.61,0.43c1.43,3.25,2.87,6.51,4.31,9.76
		c1.6,3.63,3.21,7.27,4.81,10.9C164.89,21.68,164.99,21.8,164.97,21.95z M154.71,12.92c-1-2.4-1.97-4.72-2.94-7.03
		c-0.04,0-0.08,0-0.13,0c-0.97,2.33-1.95,4.65-2.95,7.04C150.74,12.92,152.67,12.92,154.71,12.92z"/>
	<path class="st0" d="M172.09,49.71c0-1.64,0-3.22,0-4.79c0.22-0.11,0.42-0.06,0.61-0.06c3.64,0,7.27,0,10.91,0
		c1.08,0,1.8-0.54,1.94-1.41c0.15-0.94-0.42-1.76-1.36-1.94c-0.29-0.05-0.58-0.07-0.87-0.07c-1.82-0.01-3.64,0.02-5.46-0.03
		c-1.62-0.04-3.14-0.48-4.42-1.53c-1.25-1.03-1.87-2.4-2.02-3.98c-0.23-2.35,0.38-4.42,2.26-5.98c1.38-1.15,3.03-1.64,4.79-1.66
		c4.08-0.05,8.16-0.03,12.24-0.03c0.05,0,0.09,0.02,0.17,0.04c-0.04,0.37-0.25,0.66-0.39,0.97c-0.53,1.17-1.08,2.33-1.6,3.5
		c-0.13,0.3-0.3,0.4-0.63,0.4c-3-0.01-6.01,0-9.01,0c-0.44,0-0.88,0.05-1.27,0.27c-0.68,0.4-0.96,1.09-0.77,1.88
		c0.17,0.69,0.88,1.22,1.74,1.24c1.02,0.02,2.05,0,3.07,0.01c1.17,0,2.34-0.04,3.51,0.08c2.01,0.21,3.76,0.91,4.9,2.67
		c0.87,1.36,1.05,2.89,0.86,4.46c-0.45,3.6-3.12,5.93-6.94,5.99c-4,0.06-8,0.02-11.99,0.02C172.27,49.74,172.19,49.73,172.09,49.71z
		"/>
	<path class="st0" d="M169.72,28.25c-0.29,0.66-0.55,1.25-0.81,1.83c-0.4,0.87-0.82,1.73-1.19,2.61c-0.15,0.35-0.35,0.44-0.7,0.44
		c-3-0.01-6-0.01-9.01,0c-0.81,0-1.54,0.22-1.91,1.01c-0.54,1.18,0.33,2.37,1.74,2.39c1.69,0.02,3.38-0.01,5.07,0.01
		c0.79,0.01,1.58,0.07,2.37,0.22c3.05,0.6,4.77,2.72,4.85,5.71c0.07,2.32-0.62,4.33-2.52,5.78c-1.28,0.98-2.77,1.45-4.35,1.47
		c-4.06,0.05-8.12,0.02-12.19,0.02c-0.05,0-0.1-0.01-0.19-0.03c0-1.59,0-3.19,0-4.79c0.16-0.13,0.35-0.07,0.52-0.07
		c3.65,0,7.31,0,10.96,0c0.84,0,1.55-0.23,1.89-1.08c0.4-1-0.18-2.07-1.24-2.27c-0.33-0.06-0.68-0.07-1.02-0.07
		c-2.06-0.05-4.13,0.15-6.18-0.1c-3.47-0.44-5.67-2.72-5.63-6.39c0.02-2.39,0.99-4.31,3.07-5.58c1.44-0.88,3.05-1.15,4.72-1.15
		c3.79-0.01,7.57,0,11.36,0C169.42,28.22,169.52,28.23,169.72,28.25z"/>
	<path class="st0" d="M56.52,28.29c0.13-0.14,0.3-0.07,0.45-0.07c2.15,0,4.29,0.01,6.44-0.01c0.37,0,0.6,0.13,0.83,0.39
		c1.73,2.02,3.47,4.03,5.23,6.07c0.48-0.36,0.79-0.83,1.16-1.26c1.42-1.63,2.83-3.26,4.23-4.9c0.16-0.18,0.31-0.3,0.57-0.3
		c2.23,0.01,4.45,0,6.68,0.01c0.06,0,0.12,0.02,0.18,0.03c0.06,0.23-0.13,0.3-0.22,0.41c-2.88,3.24-5.76,6.48-8.65,9.7
		c-0.29,0.32-0.26,0.48,0.02,0.79c3.07,3.44,6.12,6.9,9.17,10.35c0.04,0.05,0.07,0.1,0.15,0.21c-0.22,0.01-0.39,0.03-0.56,0.03
		c-2.13,0-4.26-0.01-6.39,0.01c-0.37,0-0.63-0.1-0.88-0.39c-1.77-2.07-3.56-4.13-5.34-6.2c-0.04-0.05-0.07-0.11-0.13-0.19
		c-0.46,0.33-0.72,0.76-1.05,1.13c-1.53,1.76-3.05,3.54-4.57,5.31c-0.13,0.16-0.25,0.33-0.51,0.33c-2.32-0.01-4.65,0-7,0
		c0.06-0.32,0.31-0.47,0.48-0.67c2.91-3.3,5.83-6.59,8.77-9.86c0.25-0.27,0.22-0.42-0.01-0.68c-2.97-3.31-5.92-6.64-8.88-9.96
		C56.61,28.5,56.5,28.44,56.52,28.29z"/>
	<path class="st0" d="M89.25,49.72c-1.94,0-3.82,0-5.69,0c-0.11-0.19-0.07-0.37-0.07-0.54c0-6.78,0-13.55,0-20.33
		c0-0.63,0-0.63,0.64-0.63c3.92,0,7.83,0,11.75,0c1.66,0,3.28,0.24,4.72,1.14c2.35,1.47,3.27,3.68,3.22,6.36
		c-0.07,3.89-2.8,6.48-6.47,6.93c-0.6,0.07-1.2,0.1-1.8,0.1c-1.9-0.01-3.8,0.01-5.7-0.01c-0.46-0.01-0.61,0.11-0.61,0.59
		c0.03,1.95,0.01,3.9,0.01,5.85C89.25,49.36,89.25,49.53,89.25,49.72z M92.68,37.85c0,0,0-0.01,0-0.01c1.04,0,2.08,0.03,3.12-0.01
		c1.08-0.04,1.87-0.66,2.14-1.61c0.28-0.98-0.07-2.08-0.87-2.64c-0.51-0.36-1.11-0.45-1.72-0.45c-1.88-0.01-3.77,0.01-5.65-0.01
		c-0.37,0-0.47,0.13-0.47,0.48c0.02,1.27,0.02,2.53,0,3.8c-0.01,0.38,0.13,0.46,0.48,0.46C90.7,37.83,91.69,37.85,92.68,37.85z"/>
	<path class="st0" d="M141.05,5.56c-2.04,0-4.02-0.01-6,0c-0.73,0-1.46,0.04-2.17,0.23c-2.01,0.53-3.36,2.04-3.61,4.12
		c-0.14,1.15-0.13,2.3,0.15,3.43c0.52,2.14,2.23,3.57,4.44,3.74c1.16,0.08,2.32,0.05,3.49,0.07c0.24,0,0.48,0,0.74,0
		c0.04,0.27-0.11,0.43-0.19,0.61c-0.58,1.25-1.18,2.49-1.75,3.75c-0.18,0.39-0.39,0.55-0.84,0.54c-1.66-0.01-3.32,0.02-4.93-0.45
		c-3.4-0.99-5.63-3.19-6.5-6.61c-0.77-3.02-0.73-6.06,0.58-8.96c1.13-2.48,3.04-4.1,5.65-4.93c1.5-0.48,3.05-0.61,4.61-0.62
		c1.92,0,3.83,0,5.75,0c0.19,0,0.39-0.04,0.59,0.06C141.05,2.19,141.05,3.84,141.05,5.56z"/>
	<path class="st0" d="M114.61,22.04c0-7.19,0-14.33,0-21.51c1.9,0,3.8,0,5.69,0c0.11,0.18,0.07,0.37,0.07,0.54
		c0,6.79,0,13.58,0.02,20.38c0,0.52-0.16,0.62-0.63,0.61c-1.53-0.03-3.05-0.01-4.58-0.01C115,22.04,114.83,22.04,114.61,22.04z"/>
</g>
</svg>
