<?xml version="1.0" encoding="utf-8"?>
<!-- Generator: Adobe Illustrator 28.0.0, SVG Export Plug-In . SVG Version: 6.00 Build 0)  -->
<svg version="1.1" id="Layer_1" xmlns="http://www.w3.org/2000/svg" xmlns:xlink="http://www.w3.org/1999/xlink" x="0px" y="0px"
	width="130" height="80" viewBox="0 0 130 80" style="enable-background:new 0 0 130 80;" xml:space="preserve">
<style type="text/css">
	.st0{fill:#FFFFFF;}
	.st1{fill:#1173BB;}
	.st2{fill:#E2A534;}
	.st3{fill:#1483BD;}
	.st4{fill:#5796C5;}
	.st5{fill:#87AED4;}
	.st6{fill:#B9CCDB;}
	.st7{clip-path:url(#SVGID_00000056400453578686679260000004537301259658508419_);}
	.st8{clip-path:url(#SVGID_00000049197452845252025700000011918551990501431718_);}
	.st9{fill:#131718;}
</style>
<path class="st0" d="M-76.54,86.03h22.86V63.18h-22.86V86.03"/>
<g>
	<g>
		<path class="st1" d="M76.46,11.2c-5.57,8.43-13.75,19.59-28.94,18.66V2.73H81.6C81.6,2.73,79.61,6.45,76.46,11.2"/>
		<path class="st2" d="M47.52,31.91v5.76h34.96V3.17C82.48,3.17,71.29,34.11,47.52,31.91"/>
		<path class="st3" d="M59.38,12c-4.72,0-8.54,3.8-8.54,8.52c0,3.89,2.61,7.15,6.18,8.18c4.26-1.38,7.78-3.81,10.78-6.65
			c0.09-0.49,0.13-1.01,0.13-1.53C67.94,15.8,64.11,12,59.38,12"/>
		<path class="st4" d="M65.81,20.52c0,3.53-2.87,6.4-6.43,6.4c-3.54,0-6.41-2.87-6.41-6.4c0-3.52,2.87-6.37,6.41-6.37
			C62.94,14.15,65.81,17,65.81,20.52"/>
		<path class="st5" d="M63.67,20.52c0,2.36-1.93,4.24-4.29,4.24c-2.35,0-4.26-1.89-4.26-4.24c0-2.34,1.9-4.26,4.26-4.26
			C61.74,16.26,63.67,18.17,63.67,20.52"/>
		<path class="st6" d="M61.53,20.52c0,1.18-0.97,2.13-2.15,2.13s-2.13-0.94-2.13-2.13c0-1.18,0.96-2.12,2.13-2.12
			S61.53,19.34,61.53,20.52"/>
	</g>
	<g>
		<path class="st1" d="M13.32,47.21h1.8c0.61,0,1.04,0.11,1.3,0.32c0.24,0.21,0.36,0.5,0.36,0.87c0,0.41-0.13,0.71-0.36,0.92
			c-0.26,0.22-0.7,0.32-1.33,0.32h-1.76V47.21z M9.21,57.47h7.03c0.29,0,0.91-0.06,1.82-0.17c0.69-0.09,1.21-0.22,1.55-0.42
			c0.55-0.31,0.99-0.73,1.3-1.27c0.32-0.52,0.48-1.13,0.48-1.8c0-0.82-0.22-1.5-0.67-2.05c-0.44-0.54-1.14-0.92-2.09-1.15
			c0.62-0.2,1.09-0.5,1.42-0.85c0.49-0.55,0.73-1.2,0.73-1.96c0-0.91-0.34-1.67-1.02-2.28c-0.68-0.61-1.66-0.93-2.92-0.93H9.21
			V57.47z M13.32,52.1h2.06c0.72,0,1.22,0.12,1.5,0.35c0.28,0.23,0.43,0.53,0.43,0.91c0,0.41-0.15,0.73-0.43,0.97
			c-0.29,0.24-0.78,0.36-1.49,0.36h-2.07"/>
		<path class="st1" d="M26.63,47.19h1.77c0.74,0,1.24,0.11,1.51,0.34c0.27,0.22,0.4,0.54,0.4,0.95c0,0.29-0.08,0.53-0.25,0.75
			c-0.17,0.22-0.39,0.35-0.65,0.41c-0.54,0.12-0.89,0.18-1.07,0.18h-1.71V47.19z M26.63,57.47v-5.23h0.35c0.37,0,0.71,0.09,1,0.29
			c0.21,0.15,0.45,0.48,0.73,1l2.16,3.94h4.61l-1.98-3.73c-0.1-0.19-0.29-0.45-0.57-0.8c-0.28-0.35-0.5-0.58-0.65-0.68
			c-0.22-0.16-0.57-0.32-1.06-0.47c0.61-0.13,1.09-0.31,1.44-0.51c0.55-0.32,0.98-0.74,1.29-1.26c0.32-0.52,0.47-1.14,0.47-1.85
			c0-0.82-0.2-1.51-0.62-2.08c-0.41-0.57-0.94-0.96-1.61-1.17c-0.67-0.2-1.63-0.32-2.89-0.32h-6.79v12.88"/>
		<path class="st1" d="M40.85,52.56l1.45-4.63l1.43,4.63H40.85z M45.25,57.47h4.27l-4.92-12.88H40.1l-4.95,12.88h4.16l0.67-2.12h4.6
			"/>
		<path class="st1" d="M58.4,52.16l3.59,1.02c-0.24,0.94-0.62,1.74-1.14,2.37c-0.51,0.63-1.16,1.11-1.92,1.43
			c-0.77,0.32-1.73,0.48-2.92,0.48c-1.43,0-2.61-0.19-3.51-0.59c-0.91-0.4-1.7-1.09-2.35-2.07c-0.66-0.99-0.99-2.26-0.99-3.8
			c0-2.06,0.57-3.64,1.74-4.75c1.16-1.11,2.79-1.67,4.91-1.67c1.67,0,2.96,0.32,3.91,0.96c0.95,0.64,1.66,1.61,2.12,2.92l-3.61,0.77
			c-0.13-0.38-0.26-0.67-0.4-0.84c-0.22-0.3-0.5-0.52-0.83-0.69c-0.33-0.16-0.7-0.24-1.1-0.24c-0.92,0-1.63,0.35-2.12,1.05
			c-0.37,0.52-0.56,1.34-0.56,2.45c0,1.38,0.23,2.32,0.67,2.84c0.44,0.51,1.07,0.77,1.87,0.77c0.78,0,1.37-0.21,1.77-0.61
			C57.93,53.55,58.22,52.95,58.4,52.16"/>
		<path class="st1" d="M70.48,47.21h1.8c0.61,0,1.05,0.11,1.3,0.32c0.25,0.21,0.37,0.5,0.37,0.87c0,0.41-0.12,0.71-0.37,0.92
			c-0.25,0.22-0.69,0.32-1.32,0.32h-1.77V47.21z M66.37,57.47h7.03c0.3,0,0.91-0.06,1.82-0.17c0.69-0.09,1.2-0.22,1.55-0.42
			c0.54-0.31,0.98-0.73,1.3-1.27c0.31-0.52,0.47-1.13,0.47-1.8c0-0.82-0.23-1.5-0.67-2.05c-0.45-0.54-1.14-0.92-2.09-1.15
			c0.62-0.2,1.09-0.5,1.42-0.85c0.48-0.55,0.73-1.2,0.73-1.96c0-0.91-0.34-1.67-1.02-2.28c-0.68-0.61-1.65-0.93-2.92-0.93h-7.62
			V57.47z M70.48,52.1h2.06c0.72,0,1.22,0.12,1.51,0.35c0.28,0.23,0.42,0.53,0.42,0.91c0,0.41-0.14,0.73-0.43,0.97
			c-0.29,0.24-0.78,0.36-1.48,0.36h-2.08"/>
		<path class="st1" d="M83.65,52.56l1.45-4.63l1.43,4.63H83.65z M88.04,57.47h4.27L87.4,44.59h-4.5l-4.94,12.88h4.16l0.67-2.12h4.6"
			/>
		<path class="st1" d="M92.53,44.59h3.79l4.98,7.13v-7.13h3.85v12.88h-3.85l-4.95-7.08v7.08h-3.83"/>
		<g>
			<defs>
				<rect id="SVGID_1_" x="106.76" y="44.13" width="14.03" height="13.35"/>
			</defs>
			<clipPath id="SVGID_00000007421949983241896000000018309605202059676572_">
				<use xlink:href="#SVGID_1_"  style="overflow:visible;"/>
			</clipPath>
			<g style="clip-path:url(#SVGID_00000007421949983241896000000018309605202059676572_);">
				<path class="st1" d="M106.79,44.59h4.08v4.87l4.27-4.87h5.42l-4.82,4.85l5.04,8.03h-5.02l-2.78-5.26l-2.12,2.14v3.12h-4.08"/>
			</g>
		</g>
		<g>
			<defs>
				<rect id="SVGID_00000015339887136942206720000018428488266175380662_" x="64.9" y="62.93" width="55.81" height="14.33"/>
			</defs>
			<clipPath id="SVGID_00000172419643958302724700000014218340880249595069_">
				<use xlink:href="#SVGID_00000015339887136942206720000018428488266175380662_"  style="overflow:visible;"/>
			</clipPath>
			<g style="clip-path:url(#SVGID_00000172419643958302724700000014218340880249595069_);">
				<path class="st9" d="M106.85,66.84l0.01-0.01l0.01-0.01L106.85,66.84z M111.79,70.79c0.05,0.1,0.08,0.19,0.08,0.27
					s-0.02,0.15-0.05,0.22c-0.27,0.53-1.46,0.91-2.16,1.03c-0.34-0.01-0.41-0.21-0.43-0.33l0.17-2.92
					C110.42,69.47,111.63,70.64,111.79,70.79 M106.31,71.96c-0.89-0.42-1.91-1.16-1.96-1.19c-0.12-0.09-0.19-0.17-0.21-0.27
					l-0.01-0.09c0-0.16,0.07-0.36,0.2-0.55v0l0-0.01c0.57-0.95,1.75-1.74,2.26-2.06C106.38,69.14,106.33,71.08,106.31,71.96
					 M120.5,66.33c-1.11-0.74-2.03-0.25-2.36,0.11l-0.07,0.11l-0.01,0.04c-1.33-0.73-3.56-0.41-3.59-0.41
					c-1.15,0.13-1.71,0.31-1.88,0.37c-1.63-0.62-2.78-0.02-3.3,0.36c-0.47-0.48-0.96-0.72-1.44-0.69c-0.63,0.04-0.96,0.5-0.99,0.55
					l-0.05,0.09l-0.01,0.02c-1.16-1-3.01-0.66-3.92-0.39l0.03-0.08l-0.04,0.05l0.06-0.09c0.11-0.32,0.69-1.87,2.02-2.3
					c1.01-0.32,2.24,0.07,3.66,1.16c0.08,0.07,0.18,0.1,0.29,0.08c0.11-0.01,0.21-0.07,0.27-0.16c0.14-0.18,0.1-0.43-0.07-0.57
					c-1.65-1.27-3.14-1.7-4.41-1.29c-1.87,0.6-2.52,2.77-2.53,2.81c-0.18,0.38-0.36,1.05-0.52,1.96c-0.56-1.15-1.07-1.75-1.61-1.83
					c-0.31-0.04-0.5,0.08-0.6,0.18l-0.06,0.01l-0.04,0.01l-0.03,0.02c-0.42,0.33-0.75,2.09-1.01,5.19
					c-0.23-0.14-0.52-0.31-0.89-0.51c0.26-0.44,0.46-0.97,0.6-1.63c0.07-0.43,0.31-2.55-1.32-3.08l-0.01,0l-0.01,0
					c-0.19-0.03-1.17-0.18-1.96,0.38c-0.53,0.37-0.85,0.96-0.96,1.75v0.02c0,0.14,0.02,0.85,0.51,1.28
					c0.32,0.27,0.73,0.37,1.23,0.29c0.22-0.03,0.37-0.24,0.34-0.46c-0.01-0.11-0.07-0.2-0.16-0.27c-0.09-0.06-0.2-0.09-0.31-0.07
					c-0.18,0.03-0.42,0.03-0.56-0.1c-0.23-0.2-0.23-0.58-0.24-0.62c0.07-0.54,0.28-0.93,0.61-1.17c0.47-0.33,1.06-0.29,1.31-0.25
					c0.68,0.22,0.78,1.09,0.78,1.59c0,0.18-0.01,0.38-0.04,0.55v0c-0.13,0.61-0.32,1.12-0.58,1.54l0.01-0.01l-0.3,0.38l-0.06,0.08
					c-0.68,0.71-1.46,0.66-1.46,0.66c-3.01-0.36-3.19-5.58-3.2-5.63c-0.01-0.23-0.19-0.41-0.41-0.4c-0.22,0.01-0.4,0.19-0.4,0.41
					c0.01,0.25,0.21,5.98,3.91,6.43h0.02c0.13,0.01,1.27,0.02,2.2-1.01c0.77,0.42,1.3,0.75,1.37,0.83c0.11,0.14,0.29,0.19,0.45,0.15
					c0.17-0.06,0.29-0.19,0.29-0.35c0.21-2.89,0.58-5.14,0.78-5.35l-0.08,0.04c0.06-0.01,0.11-0.05,0.16-0.08h0
					c0.03,0.01,0.51,0.11,1.32,2.08c0.04,0.09,0.12,0.15,0.21,0.2c-0.13,0.93-0.23,1.98-0.32,3.14l-0.01,0.09v0.03
					c0,0.21,0.16,0.39,0.37,0.41c0.23,0.01,0.41-0.16,0.43-0.38c0-0.04,0.24-3.3,0.65-5.16l0.03,0c0.09-0.04,2.06-0.77,3.29-0.17
					c-0.61,0.4-1.67,1.17-2.26,2.15c0-0.01-0.32,0.45-0.32,0.99c0,0.07,0.01,0.14,0.02,0.23c0.06,0.33,0.26,0.61,0.55,0.8
					c0.27,0.2,1.67,1.19,2.7,1.52c0.14,0.03,0.28,0.01,0.37-0.07c0.1-0.07,0.16-0.19,0.16-0.32v-0.1c0-0.4,0.01-3.96,0.43-5.27
					c0.05-0.05,0.16-0.17,0.36-0.18c0.21-0.01,0.47,0.15,0.76,0.43c-0.04,0.64-0.25,4.37-0.26,4.54c0.01,0.41,0.29,1.15,1.26,1.15
					h0.01l0.03,0h0l0.01,0h0.02c0.38-0.07,2.27-0.44,2.8-1.46c0.1-0.2,0.14-0.39,0.14-0.59c0-0.22-0.06-0.44-0.17-0.67l-0.07-0.11
					c-0.01-0.01-1.62-1.65-3-2.06l0.03-0.44l0.09-0.05c0.02-0.02,1.02-1.18,2.88-0.39c0.1,0.04,0.21,0.04,0.3,0.01l0.03-0.01l0-0.01
					c0.05-0.01,0.59-0.22,1.81-0.36c0.1-0.01,2.26-0.28,3.23,0.4c-0.1,0.47-0.15,0.97-0.19,1.44c-0.24-0.19-0.49-0.32-0.76-0.31
					c-0.37,0.02-0.73,0.24-1.05,0.64c-0.15-0.25-0.32-0.45-0.54-0.57c-0.4-0.22-0.78-0.17-0.96-0.13l-0.04,0.01h0v0.01
					c-0.97,0.19-1.3,1.82-1.39,2.54c-0.15,1.48,0.85,1.63,0.89,1.64c0.93,0.06,1.4-0.58,1.52-0.93c0.07-0.21-0.04-0.44-0.24-0.51
					c-0.22-0.07-0.45,0.04-0.52,0.24c-0.01,0.02-0.15,0.42-0.66,0.4c-0.03-0.02-0.24-0.12-0.18-0.74c0.1-0.84,0.44-1.81,0.75-1.85
					l0.07-0.01c0,0,0.19-0.05,0.38,0.06c0.21,0.12,0.37,0.4,0.46,0.81c0.04,0.17,0.18,0.29,0.35,0.31c0.18,0.02,0.34-0.07,0.42-0.23
					c0.13-0.29,0.49-0.85,0.78-0.86c0.17-0.01,0.39,0.21,0.61,0.61l0.06,0.06c-0.01,1.09,0.05,1.99,0.05,2.03
					c0.02,0.22,0.21,0.39,0.43,0.37c0.22-0.02,0.38-0.19,0.38-0.41l-0.02-0.09l0.02,0.07l0-0.04c-0.03-0.56-0.05-1.14-0.05-1.7
					c0-1.58,0.14-2.71,0.41-3.28c0.14-0.13,0.57-0.41,1.25,0.05c0.08,0.06,0.19,0.08,0.3,0.06c0.11-0.02,0.21-0.08,0.26-0.17
					C120.72,66.71,120.67,66.47,120.5,66.33 M81.52,69.7c-0.64-0.76-1.5-0.86-1.91-0.78c-0.27,0.05-0.47,0.2-0.63,0.41l-0.04-0.06
					l0.01,0.02l-0.05-0.07l0.01,0.01l-0.01-0.01l-0.01-0.01c-0.54-0.49-0.3-1.38-0.26-1.52l0,0l0.01-0.05l0-0.02
					c0.27-0.25,1.36-1.12,2.61-0.27c0.1,0.37,0.29,1.2,0.29,2.05C81.54,69.51,81.53,69.6,81.52,69.7 M85.88,66.23l-0.01,0h-0.01
					c-0.23,0-0.43,0.09-0.58,0.24c-0.24,0.25-0.27,0.62-0.27,0.77v0.2c-0.22-0.28-0.47-0.52-0.76-0.68
					c-1.02-0.53-2.13-0.18-2.34-0.09l-0.08,0.09c-1.75-1.31-3.32-0.11-3.72,0.23c-0.36-0.18-1.07-0.52-1.13-0.53l0.06,0.02
					c-0.47-0.31-0.8-0.24-0.99-0.13c-0.35,0.21-0.41,0.64-0.42,0.85c-0.39-0.59-0.77-0.92-1.15-0.98c-0.32-0.05-0.52,0.09-0.61,0.18
					l-0.05,0.01l-0.03,0.01l-0.03,0.02c-0.55,0.44-0.86,3.32-1.02,5.19c-0.27-0.17-0.58-0.34-0.89-0.51c0.26-0.46,0.47-1,0.59-1.63
					c0.02-0.11,0.42-2.51-1.32-3.08l-0.01-0.01H71.1c-0.27-0.05-1.19-0.16-1.96,0.38c-0.53,0.37-0.85,0.96-0.96,1.75
					c0,0.01-0.04,0.82,0.51,1.3c0.32,0.27,0.73,0.37,1.23,0.29c0.1-0.01,0.2-0.07,0.26-0.16c0.06-0.09,0.09-0.2,0.07-0.31
					c-0.01-0.1-0.07-0.19-0.16-0.25c-0.09-0.06-0.2-0.09-0.31-0.07c-0.17,0.03-0.41,0.03-0.55-0.1c-0.16-0.14-0.23-0.41-0.24-0.62
					c0.08-0.54,0.28-0.93,0.62-1.16c0.46-0.33,1.05-0.29,1.3-0.25c0.65,0.21,0.79,0.98,0.79,1.59c0,0.18-0.02,0.38-0.04,0.55v0
					c-0.12,0.6-0.31,1.11-0.57,1.54l-0.29,0.37l-0.04,0.05c-0.69,0.74-1.48,0.69-1.49,0.69c-3.01-0.36-3.19-5.58-3.19-5.63
					c-0.01-0.23-0.19-0.41-0.41-0.4c-0.11,0-0.21,0.05-0.29,0.13c-0.07,0.08-0.11,0.18-0.11,0.29c0.01,0.24,0.18,5.97,3.91,6.43
					h0.02c0.21,0.01,1.3,0,2.2-1.01c0.76,0.41,1.3,0.74,1.37,0.83c0.1,0.14,0.29,0.2,0.44,0.15c0.17-0.05,0.28-0.18,0.29-0.35
					c0.21-2.89,0.58-5.14,0.78-5.35l0.08-0.04c0.03,0,0.47,0.11,1.22,1.83l-0.11,3.87c0,0.23,0.18,0.41,0.4,0.41
					c0.1,0,0.21-0.04,0.29-0.11c0.08-0.08,0.12-0.18,0.13-0.28l0.09-3.62l0.01-0.38l0.04-1.45c0-0.09,0.01-0.16,0.03-0.21
					c0.04,0.01,0.09,0.04,0.18,0.09l0.02,0.01c0.23,0.1,0.78,0.36,1.13,0.54c-0.04,0.19-0.07,0.39-0.07,0.57
					c0,0.6,0.2,1.11,0.58,1.47l-0.02-0.02c0.1,0.14,0.25,0.37,0.38,0.6l0.13,0.27c0.05,0.11,0.06,0.18,0.06,0.2
					c0,0.19-0.06,0.54-0.22,0.64c-0.16,0.09-0.51,0-0.95-0.27c-0.19-0.11-0.44-0.06-0.55,0.13c-0.12,0.2-0.06,0.45,0.14,0.56
					c0.73,0.44,1.33,0.53,1.78,0.27c0.59-0.34,0.62-1.13,0.62-1.37v-0.02c-0.01-0.17-0.08-0.36-0.2-0.61
					c0.02-0.19,0.09-0.41,0.27-0.43c0.01,0,0.88-0.14,1.41,0.85c0.05,0.08,0.12,0.14,0.2,0.17c-0.02,0.07-0.03,0.14-0.04,0.22
					c-0.41,0.19-0.7,0.45-0.84,0.77c-0.31,0.72,0.14,1.44,0.15,1.45l0.08,0.09l-0.02-0.03c0.36,0.37,0.71,0.41,0.95,0.39
					c0.66-0.07,1.05-0.74,1.06-0.75c0.05-0.08,0.07-0.19,0.05-0.29c-0.02-0.11-0.08-0.2-0.18-0.25c-0.19-0.12-0.43-0.07-0.55,0.12
					c-0.09,0.13-0.29,0.35-0.46,0.36c-0.07,0.01-0.16-0.04-0.25-0.12c-0.03-0.06-0.11-0.23-0.11-0.42c0-0.08,0.02-0.15,0.05-0.22
					c0.11-0.26,0.5-0.47,1.07-0.57c0.13,0,0.94,0,1.34,0.5c0.28,0.34,0.32,0.86,0.12,1.56c-0.01,0.01-0.6,1.47-4.5,0.51
					c-0.14-0.04-0.28,0-0.39,0.1c-0.1,0.1-0.14,0.24-0.11,0.39c0.05,0.16,1.11,3.68,8.05,2.47c0.22-0.04,0.37-0.25,0.33-0.47
					c-0.04-0.22-0.25-0.36-0.47-0.33c-4.25,0.74-6.01-0.4-6.7-1.2c3.76,0.66,4.49-1.03,4.56-1.23c0.27-0.99,0.18-1.77-0.27-2.32
					c-0.67-0.82-1.82-0.8-2.05-0.79h-0.01l-0.01,0.01c0.32-1.14,0.1-2.5-0.07-3.25l0.09-0.01l-0.03,0.01h0.01l0.02,0
					c0.16-0.06,0.98-0.32,1.67,0.05c0.51,0.27,0.86,0.81,1.04,1.62L85,69.24l-0.02,3.63c0,0.22,0.18,0.4,0.4,0.41
					c0.24,0,0.42-0.18,0.42-0.41l0.03-5.63c0-0.06,0.01-0.15,0.04-0.19c0.57,0.1,1.24,0.24,1.46,0.36c0.09,0.05,0.2,0.06,0.3,0.03
					c0.1-0.03,0.2-0.1,0.25-0.2c0.1-0.21,0.03-0.45-0.17-0.55C87.21,66.44,85.93,66.24,85.88,66.23"/>
			</g>
		</g>
	</g>
</g>
</svg>
