<?xml version="1.0" encoding="UTF-8"?>
<svg id="Layer_1" xmlns="http://www.w3.org/2000/svg" version="1.1" width="130" height="80" viewBox="0 0 130 80">
  <!-- Generator: Adobe Illustrator 29.0.1, SVG Export Plug-In . SVG Version: 2.1.0 Build 192)  -->
  <defs>
    <style>
      .st0 {
        fill: #f3ba2c;
      }
    </style>
  </defs>
  <g>
    <polygon class="st0" points="56.3 24.6 65 15.9 73.71 24.6 78.77 19.54 65 5.77 51.23 19.53 56.3 24.6"/>
    <rect class="st0" x="44.08" y="24.59" width="7.16" height="7.16" transform="translate(-5.96 41.95) rotate(-45)"/>
    <polygon class="st0" points="56.3 31.75 65 40.45 73.71 31.75 78.77 36.81 78.77 36.81 65 50.58 51.23 36.81 51.23 36.81 56.3 31.75"/>
    <rect class="st0" x="78.76" y="24.59" width="7.16" height="7.16" transform="translate(4.2 66.48) rotate(-45)"/>
    <polygon class="st0" points="70.14 28.17 70.14 28.17 65 23.03 61.2 26.83 61.2 26.83 60.77 27.27 59.87 28.17 59.86 28.17 59.87 28.18 65 33.32 70.14 28.18 70.14 28.17 70.14 28.17"/>
  </g>
  <g>
    <path class="st0" d="M15.61,66.3c-.58-.66-1.39-1.19-2.4-1.57.32-.17.61-.37.89-.6.28-.24.52-.51.72-.82.21-.32.38-.67.5-1.04.13-.39.19-.83.19-1.33v-.05c0-1.19-.4-2.19-1.2-2.99-1.04-1.04-2.57-1.56-4.59-1.56H1.55v17.6h8.36c.99,0,1.89-.1,2.7-.3.81-.2,1.51-.5,2.08-.91s1.02-.91,1.33-1.51c.31-.6.46-1.31.46-2.11v-.05c0-1.17-.29-2.09-.88-2.75ZM5.32,59.73h3.82c.82,0,1.45.16,1.89.47.44.31.65.76.65,1.34v.05c0,.65-.25,1.13-.75,1.42-.5.29-1.18.44-2.04.44h-3.57v-3.72ZM12.66,68.63c0,.65-.24,1.14-.73,1.45-.49.31-1.16.47-2.01.47h0s-4.6,0-4.6,0v-3.87h4.48c1.01,0,1.73.17,2.19.52.45.34.68.81.68,1.4v.05Z"/>
    <rect class="st0" x="21.34" y="56.33" width="3.87" height="17.6"/>
    <polygon class="st0" points="31.08 56.33 34.65 56.33 42.89 67.17 42.89 56.33 46.72 56.33 46.72 73.93 43.42 73.93 34.9 62.74 34.9 73.93 31.08 73.93 31.08 56.33"/>
    <path class="st0" d="M62.01,56.21h-3.57l-7.54,17.73h3.95l1.61-3.95h7.44l1.61,3.95h4.05l-7.54-17.73ZM57.83,66.56l2.34-5.71,2.34,5.71h-4.68Z"/>
    <polygon class="st0" points="73.73 56.33 77.3 56.33 85.55 67.17 85.55 56.33 89.37 56.33 89.37 73.93 86.08 73.93 77.55 62.74 77.55 73.93 73.73 73.93 73.73 56.33"/>
    <path class="st0" d="M103.3,74.23c-1.29,0-2.49-.23-3.6-.7s-2.06-1.11-2.87-1.92c-.8-.81-1.43-1.77-1.89-2.88-.45-1.11-.68-2.29-.68-3.55v-.05c0-1.26.23-2.43.68-3.53.45-1.1,1.08-2.06,1.89-2.89.8-.83,1.77-1.48,2.89-1.96s2.36-.72,3.72-.72c.82,0,1.57.07,2.25.2.68.13,1.29.32,1.85.55.54.23,1.06.51,1.53.85.47.33.9.7,1.31,1.11l-2.46,2.84c-.69-.62-1.39-1.11-2.1-1.46-.71-.35-1.51-.53-2.4-.53-.74,0-1.42.14-2.05.43-.62.28-1.17.68-1.62,1.18-.45.5-.8,1.09-1.06,1.75-.25.66-.38,1.37-.38,2.12v.05c0,.75.13,1.47.38,2.14.25.67.6,1.26,1.04,1.76.44.5.98.9,1.61,1.19.63.29,1.32.44,2.07.44,1.01,0,1.86-.18,2.55-.55.7-.37,1.39-.87,2.07-1.51l2.46,2.49c-.44.47-.91.91-1.41,1.31-.49.39-1.03.72-1.6.99-.58.28-1.21.49-1.9.63-.69.14-1.46.21-2.31.21h0Z"/>
    <polygon class="st0" points="115.08 56.33 128.33 56.33 128.33 59.78 118.9 59.78 118.9 63.35 127.19 63.35 127.19 66.79 118.9 66.79 118.9 70.49 128.45 70.49 128.45 73.93 115.08 73.93 115.08 56.33"/>
  </g>
</svg>