<?xml version="1.0" encoding="UTF-8"?>
<svg id="Layer_1" xmlns="http://www.w3.org/2000/svg" version="1.1" width="130" height="80" viewBox="0 0 130 80">
  <!-- Generator: Adobe Illustrator 29.0.1, SVG Export Plug-In . SVG Version: 2.1.0 Build 192)  -->
  <defs>
    <style>
      .st0 {
        fill: #fe9401;
      }
    </style>
  </defs>
  <path class="st0" d="M62.38,1.88C94.38.06,114.77,35.61,96.19,62.02c-15.99,22.73-50.3,21.19-64.27-2.79C17.73,34.9,34.31,3.48,62.38,1.88ZM63.51,7.78c-25.77,1.22-39.91,30.82-24.35,51.62,13.74,18.36,41.92,16.73,53.57-2.96,13.02-22-3.79-49.86-29.22-48.66Z"/>
  <path class="st0" d="M62.5,12.29c22.37-1.57,37.66,21.69,26.63,41.43-11.1,19.89-40.51,18.27-49.66-2.55-7.55-17.18,4.23-37.56,23.03-38.88ZM66.91,23.18l-2.99-.76-1.26,5.01-6.27-1.63-.75,3.38c.93.16,3.13.47,3.45,1.5.21.69-.06,1.4-.2,2.07-.96,4.31-2.35,8.56-3.46,12.83-.64.98-2.64-.1-3.55-.22-.02.58-1.66,3.35-1.38,3.64l6.02,1.51-1.18,5.15,2.94.69,1.37-4.91,2.39.58-1.25,5.14c.61-.07,2.61.87,3.01.58l1.25-4.83c3.24.37,7.17,1.13,9.59-1.63,2.11-2.42,2.88-6.57.25-8.91-.44-.39-1-.58-1.37-.87-.12-.1-.1-.1-.08-.26,3.2-.48,4.71-4.59,3.51-7.34-.96-2.22-3.62-3.44-5.77-4.2l1.25-4.93c-.07-.2-2.84-.92-2.99-.82l-1.28,4.74-2.36-.5,1.1-4.99Z"/>
  <path class="st0" d="M60.65,47.74l1.76-6.77c2.72.7,8.3,1.6,7.76,5.44-.53,3.8-7.14,1.99-9.52,1.33Z"/>
  <path class="st0" d="M63.28,37.96l1.51-6.14c2.53.41,7.62,1.63,6.29,5.22-1.05,2.83-5.64,1.38-7.8.92Z"/>
</svg>