<?xml version="1.0" encoding="utf-8"?>
<!-- Generator: Adobe Illustrator 28.0.0, SVG Export Plug-In . SVG Version: 6.00 Build 0)  -->
<svg version="1.1" id="Layer_1" xmlns="http://www.w3.org/2000/svg" xmlns:xlink="http://www.w3.org/1999/xlink" x="0px" y="0px"
	width="130" height="80" viewBox="0 0 130 80" style="enable-background:new 0 0 130 80;" xml:space="preserve">
<style type="text/css">
	.st0{fill:#D22154;}
	.st1{fill:#E1136E;}
	.st2{fill:#9F1C3A;}
	.st3{fill:#231F20;}
</style>
<g>
	<path class="st0" d="M117.04,43.54l-27.58-4.32l3.66,16.44L117.04,43.54z"/>
	<path class="st1" d="M117.04,43.54L96.25,14.66l-6.79,24.56L117.04,43.54z"/>
	<path class="st0" d="M88.82,38.89L67.04,11.05l28.52,3.41L88.82,38.89z"/>
	<path class="st2" d="M78.9,27.26L66.8,15.86h3.18L78.9,27.26z"/>
	<path class="st0" d="M122.92,29.5l-5.12,13.88l-8.3-11.47L122.92,29.5z"/>
	<path class="st1" d="M96.33,54.82l20.08-8.07l0.84-2.56L96.33,54.82z"/>
	<path class="st2" d="M80.27,70.04l8.6-30.18l4.36,19.64L80.27,70.04z"/>
	<path class="st1" d="M123.72,29.61l-2.11,5.73l7.61-0.12L123.72,29.61z M0.71,31.91c0.37,0.03,0.74,0.1,1.14,0.1
		s0.72-0.07,1.14-0.1v12.21c1.2-2.04,2.72-3.39,4.94-3.39c4.03,0,5.75,3.98,5.75,7.65c0,4.38-2.34,8.58-6.44,8.58
		c-1.67,0.04-3.23-0.86-4.04-2.33c-0.69,0.6-1.3,1.33-1.95,1.98H0.73L0.71,31.91z M2.94,49.86c0,3.56,1.51,6.04,3.99,6.04
		c3.22,0,4.25-4.33,4.25-7.4c0-3.56-1.18-6.37-3.96-6.4C3.96,42.08,2.94,45.93,2.94,49.86L2.94,49.86z"/>
	<path class="st3" d="M24.18,39.8l-2.42,3.12c2.28,3.33,4.64,6.59,6.93,9.96L31,56.52v0.18c-0.57-0.04-1.08-0.11-1.56-0.11
		c-0.48,0-1.08,0.07-1.59,0.11c-0.63-1.17-1.25-2.24-1.97-3.3l-6.24-9.23c-0.14-0.15-0.48-0.26-0.48-0.11v12.64
		c-0.46-0.04-0.86-0.11-1.25-0.11s-0.85,0.07-1.25,0.11v-24.8c0.4,0.03,0.83,0.11,1.25,0.11s0.8-0.08,1.25-0.11V43.1
		c0,0.22,0.43,0.07,0.71-0.22c0.54-0.56,1.05-1.16,1.52-1.78l7.02-9.21c0.37,0.03,0.74,0.11,1.14,0.11c0.4,0,0.71-0.08,1.11-0.11
		L24.18,39.8z M43.06,53.91c0,1.29-0.08,1.95,1.6,1.52v0.72c-0.27,0.14-0.56,0.25-0.86,0.33c-1.48,0.3-2.71,0.03-2.94-1.91
		l-0.25,0.29c-1,1.32-2.57,2.09-4.22,2.08c-2.02,0-3.79-1.59-3.79-4.03c0-3.76,2.6-4.25,5.27-4.75c2.26-0.43,3.03-0.62,3.03-2.21
		c0-2.44-1.2-3.86-3.33-3.86c-1.5-0.03-2.85,0.88-3.39,2.27h-0.31v-1.83c1.28-1.12,2.91-1.76,4.61-1.81c2.99,0,4.62,1.81,4.62,5.54
		L43.06,53.91z M40.78,48.47l-1,0.23c-1.94,0.43-4.85,0.75-4.85,3.77c0,2.08,1.04,3.12,2.79,3.12c0.9-0.11,1.73-0.57,2.31-1.27
		c0.21-0.24,0.78-0.8,0.78-1.04L40.78,48.47z M48.14,53.48c0.68,1.3,1.93,2.46,3.28,2.46c1.59-0.08,2.83-1.41,2.8-3.01
		c0-4.45-6.74-1.56-6.74-7.32c0-3.16,2.08-4.87,4.64-4.87c1.13-0.02,2.25,0.27,3.22,0.85c-0.28,0.76-0.51,1.55-0.68,2.34h-0.26
		c-0.37-1.09-1.37-2.18-2.42-2.18c-1.43,0-2.6,0.96-2.6,2.75c0,4.22,6.74,1.97,6.74,7.25c0,3.53-2.74,5.2-5.25,5.2
		c-1.26,0-2.5-0.36-3.56-1.04c0.26-0.79,0.46-1.6,0.6-2.42L48.14,53.48z M59.96,31.91c0.38,0.03,0.75,0.1,1.14,0.1
		s0.72-0.07,1.14-0.1v12.01c1-2.01,2.56-3.19,4.59-3.19c3.31,0,4.59,2.27,4.59,6.43v9.55c-0.43-0.04-0.76-0.1-1.14-0.1
		s-0.77,0.07-1.14,0.1v-8.8c0-3.64-0.73-5.48-3.16-5.48c-2.57,0-3.73,1.85-3.73,5.28v9c-0.43-0.04-0.76-0.1-1.14-0.1
		c-0.38,0-0.76,0.07-1.14,0.1L59.96,31.91z"/>
</g>
</svg>
