<?xml version="1.0" encoding="utf-8"?>
<!-- Generator: Adobe Illustrator 28.5.0, SVG Export Plug-In . SVG Version: 9.03 Build 54727)  -->
<svg version="1.1" id="Layer_1" xmlns="http://www.w3.org/2000/svg" xmlns:xlink="http://www.w3.org/1999/xlink" x="0px" y="0px"
	width="150" height="100" viewBox="0 0 150 100" style="enable-background:new 0 0 150 100;" xml:space="preserve">
<style type="text/css">
	.st0{fill:#F05886;}
	.st1{fill:#F6968C;}
	.st2{fill:#FDEAED;}
	.st3{fill:#FACFD8;}
</style>
<g>
	<path class="st0" d="M-0.09,86.81c0-15.18,0-30.36,0-45.54c25.18,0,50.35,0.01,75.53,0.01c24.74,0,49.48-0.01,74.21-0.01
		c0,15.37,0,30.75,0,46.12c-0.43,0.28-0.4,0.78-0.48,1.17c-0.97,4.46-6.85,9.69-12.62,9.68c-41.18-0.07-82.35-0.03-123.53-0.05
		c-3.78,0-6.98-1.47-9.62-4.2C1.44,91.96,0.51,89.47-0.09,86.81z M109.96,80.66c5.8,0,11.59,0.01,17.39,0
		c2.88-0.01,4.73-1.85,4.74-4.75c0.02-5.35,0.03-10.7,0.02-16.05c0-3.6-1.86-5.47-5.46-5.47c-11.2-0.01-22.41-0.01-33.61,0
		c-3.01,0-4.82,1.78-4.82,4.77c0,5.54,0.01,11.09,0.02,16.63c0.01,3.09,1.8,4.87,4.91,4.87C98.76,80.66,104.36,80.66,109.96,80.66z
		 M39.31,63.17c5.8,0,11.6,0.01,17.39,0c2.68-0.01,4.64-1.9,4.63-4.41c-0.01-2.46-2.01-4.36-4.68-4.36c-11.55-0.01-23.09,0-34.64,0
		c-0.58,0-1.15,0-1.72,0.22c-2,0.75-3.18,2.75-2.82,4.86c0.36,2.12,2.19,3.68,4.44,3.69C27.72,63.18,33.51,63.17,39.31,63.17z
		 M30.49,71.92c-2.78,0-5.55-0.01-8.33,0c-2.88,0.01-4.7,1.71-4.69,4.38c0.01,2.5,1.97,4.34,4.67,4.35c5.65,0.01,11.3,0.01,16.94,0
		c2.71-0.01,4.67-1.85,4.68-4.35c0.01-2.45-2.01-4.36-4.66-4.37C36.23,71.91,33.36,71.92,30.49,71.92z"/>
	<path class="st1" d="M-0.09,12.66c0.75-1.4,0.97-3.01,1.85-4.38c2.67-4.19,6.49-6.39,11.43-6.4C54.26,1.85,95.33,1.87,136.4,1.85
		c6.15,0,11.22,4.19,12.84,9.9c0.11,0.4-0.03,0.9,0.41,1.19c0,3.6,0,7.2,0,10.8c-49.91,0-99.83,0-149.74,0
		C-0.09,20.05-0.09,16.36-0.09,12.66z"/>
	<path class="st2" d="M-0.09,23.75c49.91,0,99.83,0,149.74,0c0,5.84,0,11.68,0,17.52c-24.74,0-49.48,0.01-74.21,0.01
		c-25.18,0-50.35-0.01-75.53-0.01C-0.09,35.43-0.09,29.59-0.09,23.75z"/>
	<path class="st3" d="M109.96,80.66c-5.6,0-11.2,0-16.81,0c-3.11,0-4.9-1.78-4.91-4.87c-0.01-5.54-0.02-11.09-0.02-16.63
		c0-2.99,1.8-4.77,4.82-4.77c11.2,0,22.41-0.01,33.61,0c3.6,0,5.45,1.87,5.46,5.47c0,5.35,0,10.7-0.02,16.05
		c-0.01,2.89-1.85,4.74-4.74,4.75C121.55,80.66,115.76,80.66,109.96,80.66z"/>
	<path class="st3" d="M39.31,63.17c-5.8,0-11.6,0.01-17.39-0.01c-2.25-0.01-4.08-1.57-4.44-3.69c-0.36-2.11,0.82-4.11,2.82-4.86
		c0.57-0.22,1.14-0.22,1.72-0.22c11.55,0,23.09-0.01,34.64,0c2.66,0,4.67,1.9,4.68,4.36c0.01,2.51-1.95,4.4-4.63,4.41
		C50.91,63.18,45.11,63.17,39.31,63.17z"/>
	<path class="st3" d="M30.49,71.92c2.87,0,5.74-0.01,8.62,0c2.65,0.01,4.66,1.92,4.66,4.37c-0.01,2.5-1.96,4.35-4.68,4.35
		c-5.65,0.01-11.3,0.01-16.94,0c-2.7-0.01-4.66-1.85-4.67-4.35c-0.01-2.66,1.81-4.37,4.69-4.38C24.94,71.92,27.71,71.92,30.49,71.92
		z"/>
</g>
</svg>
