<?xml version="1.0" encoding="utf-8"?>
<!-- Generator: Adobe Illustrator 28.5.0, SVG Export Plug-In . SVG Version: 9.03 Build 54727)  -->
<svg version="1.1" id="Layer_1" xmlns="http://www.w3.org/2000/svg" xmlns:xlink="http://www.w3.org/1999/xlink" x="0px" y="0px"
	width="150" height="100" viewBox="0 0 150 100" style="enable-background:new 0 0 150 100;" xml:space="preserve">
<style type="text/css">
	.st0{fill:none;stroke:#054C77;stroke-miterlimit:10;}
	.st1{fill:#054C77;}
</style>
<path class="st0" d="M121.15,88.94h-92.3c-5.52,0-10-4.48-10-10V21.06c0-5.52,4.48-10,10-10h92.3c5.52,0,10,4.48,10,10v57.88
	C131.15,84.47,126.67,88.94,121.15,88.94z"/>
<g>
	<path class="st1" d="M58.49,45.31h-4.05c-0.16-0.87-0.45-1.63-0.87-2.28c-0.42-0.66-0.94-1.22-1.56-1.67
		c-0.61-0.46-1.3-0.8-2.06-1.04c-0.76-0.23-1.56-0.35-2.41-0.35c-1.53,0-2.9,0.38-4.11,1.15c-1.21,0.77-2.16,1.9-2.86,3.39
		c-0.7,1.49-1.04,3.31-1.04,5.45c0,2.16,0.35,3.99,1.04,5.48c0.7,1.49,1.65,2.61,2.86,3.38c1.21,0.76,2.57,1.14,4.09,1.14
		c0.84,0,1.64-0.11,2.4-0.34c0.76-0.23,1.44-0.57,2.06-1.02c0.61-0.45,1.14-1,1.56-1.66s0.72-1.4,0.89-2.25l4.05,0.01
		c-0.22,1.31-0.63,2.51-1.25,3.6s-1.41,2.04-2.38,2.83c-0.97,0.79-2.07,1.4-3.3,1.84c-1.24,0.43-2.59,0.65-4.05,0.65
		c-2.3,0-4.35-0.55-6.15-1.64s-3.22-2.66-4.25-4.71c-1.03-2.04-1.55-4.48-1.55-7.31c0-2.84,0.52-5.28,1.56-7.31
		c1.04-2.04,2.46-3.6,4.26-4.7c1.8-1.09,3.85-1.64,6.14-1.64c1.41,0,2.73,0.2,3.95,0.6s2.33,0.99,3.3,1.77
		c0.98,0.77,1.79,1.72,2.43,2.83C57.83,42.62,58.27,43.89,58.49,45.31z"/>
	<path class="st1" d="M68.78,63.69c-1.26,0-2.41-0.24-3.43-0.71c-1.02-0.47-1.83-1.16-2.42-2.06c-0.59-0.9-0.89-2-0.89-3.31
		c0-1.12,0.22-2.05,0.65-2.78c0.43-0.73,1.02-1.3,1.75-1.73c0.74-0.42,1.56-0.74,2.47-0.96c0.91-0.22,1.83-0.38,2.78-0.49
		c1.19-0.14,2.16-0.25,2.91-0.34s1.28-0.24,1.62-0.45c0.34-0.21,0.51-0.55,0.51-1.01v-0.09c0-1.13-0.32-2.01-0.95-2.63
		c-0.64-0.62-1.58-0.93-2.84-0.93c-1.31,0-2.33,0.29-3.08,0.86c-0.75,0.58-1.27,1.21-1.55,1.91l-3.65-0.83
		c0.43-1.21,1.07-2.19,1.9-2.94c0.83-0.75,1.8-1.29,2.89-1.64s2.24-0.51,3.44-0.51c0.8,0,1.64,0.09,2.54,0.28s1.73,0.53,2.52,1.02
		c0.78,0.49,1.42,1.2,1.93,2.11s0.75,2.1,0.75,3.55v13.24h-3.79v-2.73h-0.16c-0.25,0.5-0.63,1-1.13,1.48s-1.15,0.89-1.93,1.21
		C70.82,63.53,69.88,63.69,68.78,63.69z M69.63,60.58c1.07,0,1.99-0.21,2.76-0.64c0.77-0.42,1.35-0.98,1.75-1.67s0.6-1.43,0.6-2.21
		v-2.57c-0.14,0.14-0.4,0.27-0.8,0.38c-0.39,0.12-0.84,0.22-1.34,0.3c-0.5,0.08-0.99,0.16-1.47,0.22c-0.48,0.07-0.87,0.12-1.19,0.16
		c-0.75,0.1-1.44,0.26-2.06,0.48S66.77,55.58,66.4,56s-0.55,0.98-0.55,1.67c0,0.96,0.35,1.69,1.06,2.17
		C67.62,60.33,68.53,60.58,69.63,60.58z"/>
	<path class="st1" d="M83.79,63.25V43.32h3.75v3.17h0.21c0.36-1.07,1.01-1.92,1.93-2.54c0.92-0.62,1.97-0.93,3.13-0.93
		c0.24,0,0.53,0.01,0.86,0.03c0.33,0.02,0.59,0.04,0.79,0.06v3.71c-0.16-0.04-0.43-0.09-0.83-0.15c-0.4-0.06-0.8-0.08-1.19-0.08
		c-0.92,0-1.73,0.19-2.45,0.58c-0.71,0.39-1.28,0.92-1.69,1.6c-0.42,0.68-0.62,1.45-0.62,2.32v12.17H83.79z"/>
	<path class="st1" d="M104.57,63.64c-1.61,0-3.04-0.41-4.3-1.24c-1.26-0.83-2.25-2.01-2.96-3.54s-1.07-3.38-1.07-5.54
		c0-2.16,0.36-4,1.08-5.53c0.72-1.53,1.71-2.7,2.98-3.52s2.7-1.22,4.3-1.22c1.24,0,2.23,0.21,2.99,0.62
		c0.76,0.41,1.34,0.89,1.76,1.43s0.75,1.03,0.98,1.44h0.23v-9.88h3.88v26.58h-3.79v-3.1h-0.32c-0.23,0.42-0.57,0.91-1.01,1.45
		c-0.44,0.54-1.04,1.02-1.8,1.43S105.78,63.64,104.57,63.64z M105.42,60.33c1.12,0,2.06-0.3,2.84-0.89s1.36-1.42,1.76-2.47
		s0.6-2.28,0.6-3.69c0-1.38-0.2-2.6-0.6-3.63c-0.4-1.04-0.98-1.85-1.75-2.43c-0.77-0.58-1.72-0.87-2.86-0.87
		c-1.17,0-2.14,0.3-2.92,0.91c-0.78,0.61-1.36,1.43-1.76,2.48c-0.39,1.05-0.59,2.23-0.59,3.54c0,1.33,0.2,2.53,0.6,3.59
		s0.99,1.91,1.77,2.52C103.31,60.02,104.27,60.33,105.42,60.33z"/>
</g>
</svg>
