<?xml version="1.0" encoding="utf-8"?>
<!-- Generator: Adobe Illustrator 28.5.0, SVG Export Plug-In . SVG Version: 9.03 Build 54727)  -->
<svg version="1.1" id="Layer_1" xmlns="http://www.w3.org/2000/svg" xmlns:xlink="http://www.w3.org/1999/xlink" x="0px" y="0px"
	width="150" height="100" viewBox="0 0 150 100" style="enable-background:new 0 0 150 100;" xml:space="preserve">
<style type="text/css">
	.st0{fill:#663B61;}
	.st1{fill:#FEFEFE;}
	.st2{fill:#928892;}
	.st3{fill:#EA7AAF;}
	.st4{fill:#FCE244;}
</style>
<g>
	<path class="st0" d="M75.12,11.06c13.48,0,26.96,0,40.45,0c5.88,0,10.47,2.38,13.55,7.47c1.4,2.31,2.02,4.86,2.03,7.54
		c0.02,15.85,0.01,31.7-0.01,47.56c-0.01,7.41-4.55,13.23-11.6,14.94c-1.19,0.29-2.41,0.38-3.63,0.38c-27.27,0-54.54,0-81.81-0.01
		c-8.71,0-15.2-6.48-15.22-15.21c-0.03-15.89-0.04-31.78-0.02-47.67c0.01-8.54,6.67-14.98,15.47-14.99
		C47.93,11.05,61.53,11.06,75.12,11.06z M128.89,51.87c-36.01,0-71.86,0-107.77,0c0,0.29,0,0.51,0,0.74c0,7.14,0,14.29,0.01,21.43
		c0,0.61,0.02,1.23,0.12,1.82c1.14,6.62,6.16,10.84,12.98,10.85c27.19,0.01,54.38,0.01,81.57,0c0.84,0,1.69-0.02,2.51-0.16
		c6.24-1.12,10.53-6.18,10.57-12.53c0.04-6.76,0.01-13.52,0.01-20.28C128.89,53.13,128.89,52.53,128.89,51.87z M21.2,24.75
		c35.92,0,71.75,0,107.59,0c-0.52-6.45-5.96-11.41-12.58-11.45c-6.91-0.04-13.82-0.01-20.73-0.01c-20.47,0-40.93-0.01-61.4,0
		C27.25,13.3,21.95,17.99,21.2,24.75z M21.19,37.02c35.93,0,71.77,0,107.58,0c0-3.37,0-6.63,0-9.89c-35.91,0-71.72,0-107.58,0
		C21.19,30.44,21.19,33.68,21.19,37.02z M128.83,39.49c-35.95,0-71.79,0-107.65,0c0,3.37,0,6.68,0,10.03c35.9,0,71.74,0,107.65,0
		C128.83,46.16,128.83,42.86,128.83,39.49z"/>
	<path class="st1" d="M128.89,51.87c0,0.66,0,1.26,0,1.86c0,6.76,0.03,13.52-0.01,20.28c-0.04,6.35-4.33,11.41-10.57,12.53
		c-0.82,0.15-1.67,0.16-2.51,0.16c-27.19,0.01-54.38,0.01-81.57,0c-6.82,0-11.84-4.22-12.98-10.85c-0.1-0.6-0.12-1.22-0.12-1.82
		c-0.01-7.14-0.01-14.29-0.01-21.43c0-0.22,0-0.45,0-0.74C57.03,51.87,92.87,51.87,128.89,51.87z M104.56,59.9
		c-6.55-5.04-13.04-2.38-15.98,0.98c-4.11,4.71-4.08,10.85,0.07,15.48c3.2,3.56,9.7,5.72,15.91,0.9c6.48,4.93,12.77,2.56,15.89-0.94
		c4.15-4.65,4.2-10.59,0.26-15.29C116.82,56.38,111.09,55.98,104.56,59.9z M52.94,62.81c5.19,0,10.38,0,15.56,0
		c1.52,0,2.2-0.35,2.08-1.15c-0.19-1.23-1.19-1.08-2.06-1.08c-10.34,0-20.68,0-31.01,0c-0.38,0-0.77,0-1.14,0.07
		c-0.59,0.11-0.98,0.52-0.95,1.11c0.03,0.58,0.43,0.97,1.04,1.03c0.3,0.03,0.61,0.02,0.91,0.02C42.56,62.81,47.75,62.81,52.94,62.81
		z M53.02,76.56c5.19,0,10.38,0,15.56,0c0.88,0,1.99,0.13,1.97-1.12c-0.01-1.23-1.12-1.11-2-1.11c-10.38,0-20.75,0-31.13,0
		c-0.41,0-0.84,0.03-1.24,0.13c-0.5,0.12-0.78,0.53-0.77,1.02c0.01,0.55,0.36,0.93,0.9,1.04c0.33,0.07,0.68,0.04,1.03,0.04
		C42.56,76.56,47.79,76.56,53.02,76.56z M52.93,69.68c5.38,0,10.76-0.01,16.14,0.01c0.86,0,1.48-0.32,1.49-1.19
		c0.01-0.84-0.63-1.12-1.42-1.12c-10.76,0.01-21.52,0-32.29,0.01c-0.3,0-0.61-0.02-0.88,0.18c-0.43,0.32-0.7,0.73-0.53,1.27
		c0.22,0.7,0.78,0.85,1.45,0.84C42.25,69.68,47.59,69.68,52.93,69.68z"/>
	<path class="st1" d="M21.2,24.75c0.75-6.76,6.05-11.45,12.88-11.46c20.47-0.01,40.93,0,61.4,0c6.91,0,13.82-0.03,20.73,0.01
		c6.62,0.04,12.06,5,12.58,11.45C92.95,24.75,57.11,24.75,21.2,24.75z"/>
	<path class="st2" d="M21.19,37.02c0-3.34,0-6.58,0-9.89c35.87,0,71.68,0,107.58,0c0,3.27,0,6.53,0,9.89
		C92.96,37.02,57.12,37.02,21.19,37.02z"/>
	<path class="st1" d="M128.83,39.49c0,3.37,0,6.67,0,10.03c-35.9,0-71.74,0-107.65,0c0-3.35,0-6.66,0-10.03
		C57.04,39.49,92.88,39.49,128.83,39.49z M52.31,43.34c-8.17,0-16.34,0-24.5,0c-0.9,0-1.98-0.06-1.98,1.14c0,1.23,1.12,1.11,2,1.11
		c16.34,0,32.67,0,49.01,0c0.34,0,0.69,0.02,1.03-0.04c0.59-0.11,0.99-0.48,0.98-1.09c-0.01-0.61-0.41-0.98-1-1.08
		c-0.33-0.06-0.68-0.04-1.03-0.04C68.64,43.34,60.48,43.34,52.31,43.34z M99.68,45.59c2.13,0,4.27-0.01,6.4,0
		c0.84,0,1.63-0.16,1.62-1.16c-0.01-0.91-0.76-1.1-1.57-1.1c-4.23,0.01-8.46,0.01-12.68,0c-0.85,0-1.64,0.2-1.63,1.17
		c0.02,0.99,0.86,1.1,1.68,1.09C95.56,45.58,97.62,45.59,99.68,45.59z"/>
	<path class="st0" d="M104.56,59.9c6.52-3.92,12.25-3.51,16.15,1.13c3.94,4.7,3.88,10.64-0.26,15.29
		c-3.12,3.49-9.41,5.86-15.89,0.94c-6.21,4.82-12.71,2.66-15.91-0.9c-4.15-4.63-4.19-10.76-0.07-15.48
		C91.52,57.51,98.01,54.86,104.56,59.9z M97.08,59.36c-5.02-0.03-9.28,4.11-9.21,9.13c0.07,4.98,3.69,9.06,9.07,9.13
		c5.12,0.07,9.1-3.81,9.21-9.1C106.25,63.55,102.04,59.39,97.08,59.36z M106.16,61.66c3.06,4.59,3.05,9.17,0.12,13.69
		c3.09,3.16,8.87,2.95,12.29-0.37c3.52-3.41,3.59-9.14,0.16-12.8C115.45,58.66,109.73,58.39,106.16,61.66z"/>
	<path class="st0" d="M52.94,62.81c-5.19,0-10.38,0-15.56,0c-0.31,0-0.61,0.01-0.91-0.02c-0.62-0.06-1.01-0.45-1.04-1.03
		c-0.03-0.6,0.36-1,0.95-1.11c0.37-0.07,0.76-0.07,1.14-0.07c10.34,0,20.68,0,31.01,0c0.87,0,1.87-0.15,2.06,1.08
		c0.12,0.8-0.56,1.15-2.08,1.15C63.32,62.81,58.13,62.81,52.94,62.81z"/>
	<path class="st0" d="M53.02,76.56c-5.23,0-10.45,0-15.68,0c-0.34,0-0.7,0.03-1.03-0.04c-0.54-0.11-0.89-0.49-0.9-1.04
		c-0.01-0.49,0.28-0.89,0.77-1.02c0.4-0.1,0.83-0.12,1.24-0.13c10.38-0.01,20.75-0.01,31.13,0c0.88,0,1.99-0.12,2,1.11
		c0.01,1.24-1.09,1.12-1.97,1.12C63.39,76.56,58.21,76.56,53.02,76.56z"/>
	<path class="st0" d="M52.93,69.68c-5.34,0-10.69,0-16.03,0.01c-0.67,0-1.23-0.15-1.45-0.84c-0.17-0.54,0.11-0.95,0.53-1.27
		c0.26-0.2,0.57-0.18,0.88-0.18c10.76,0,21.52,0,32.29-0.01c0.79,0,1.43,0.28,1.42,1.12c-0.01,0.87-0.63,1.19-1.49,1.19
		C63.7,69.68,58.32,69.68,52.93,69.68z"/>
	<path class="st0" d="M52.31,43.34c8.17,0,16.34,0,24.5,0c0.34,0,0.69-0.02,1.03,0.04c0.59,0.1,0.99,0.47,1,1.08
		c0.01,0.61-0.39,0.98-0.98,1.09c-0.33,0.06-0.68,0.04-1.03,0.04c-16.34,0-32.67,0-49.01,0c-0.88,0-1.99,0.12-2-1.11
		c0-1.2,1.08-1.14,1.98-1.14C35.97,43.34,44.14,43.34,52.31,43.34z"/>
	<path class="st0" d="M99.68,45.59c-2.06,0-4.11-0.01-6.17,0c-0.82,0.01-1.66-0.1-1.68-1.09c-0.02-0.97,0.78-1.17,1.63-1.17
		c4.23,0.01,8.46,0.01,12.68,0c0.8,0,1.55,0.19,1.57,1.1c0.01,0.99-0.78,1.16-1.62,1.16C103.94,45.58,101.81,45.59,99.68,45.59z"/>
	<path class="st3" d="M97.08,59.36c4.96,0.03,9.17,4.19,9.07,9.15c-0.11,5.29-4.09,9.16-9.21,9.1c-5.38-0.07-9-4.15-9.07-9.13
		C87.8,63.46,92.06,59.32,97.08,59.36z"/>
	<path class="st4" d="M106.16,61.66c3.57-3.27,9.28-3,12.57,0.51c3.43,3.67,3.36,9.39-0.16,12.8c-3.42,3.32-9.2,3.53-12.29,0.37
		C109.22,70.83,109.23,66.25,106.16,61.66z"/>
</g>
</svg>
