<?xml version="1.0" encoding="utf-8"?>
<!-- Generator: Adobe Illustrator 28.5.0, SVG Export Plug-In . SVG Version: 9.03 Build 54727)  -->
<svg version="1.1" id="Layer_1" xmlns="http://www.w3.org/2000/svg" xmlns:xlink="http://www.w3.org/1999/xlink" x="0px" y="0px"
	width="150" height="100" viewBox="0 0 150 100" style="enable-background:new 0 0 150 100;" xml:space="preserve">
<style type="text/css">
	.st0{fill:#5D647F;}
	.st1{fill:#FD4F19;}
	.st2{fill:#FE9400;}
	.st3{fill:#FED000;}
	.st4{fill:#898794;}
	.st5{fill:#B7B9BF;}
</style>
<g>
	<path class="st0" d="M20,82.21c0-21.73,0-43.46,0-65.19c0.32-0.14,0.28-0.48,0.36-0.73c1.27-3.81,4.39-6.13,8.39-6.13
		c30.83-0.01,61.66-0.01,92.49,0c4.16,0,7.42,2.53,8.52,6.53c0.05,0.19-0.02,0.45,0.24,0.54c0,21.66,0,43.32,0,64.98
		c-0.08,0.11-0.19,0.2-0.24,0.32c-1.68,4.67-4.36,6.54-9.37,6.54c-27.58,0-55.17,0-82.75,0c-3.01,0-6.01,0.02-9.02-0.01
		c-3.86-0.03-7.03-2.37-8.24-6.03C20.3,82.76,20.34,82.39,20,82.21z M40.62,44.44c1.15,0,2.29,0,3.44,0c4.6,0.01,9.2,0.05,13.8,0.02
		c1.88-0.01,3.3-1.46,3.38-3.32c0.03-0.6-0.02-1.21-0.03-1.81c0-1.14,0-2.29,0-3.43c0-1.14,0-2.29,0-3.43c0-1.14,0-2.29,0-3.43
		c0.01-0.6,0.05-1.21,0.03-1.81c-0.08-1.86-1.51-3.31-3.38-3.32c-4.6-0.02-9.2,0.01-13.8,0.02c-1.15,0-2.29,0-3.44,0
		c-1.18-0.01-2.36-0.06-3.54-0.02c-1.88,0.06-3.31,1.49-3.33,3.37c-0.03,4.6-0.03,9.2,0,13.81c0.01,1.88,1.46,3.32,3.33,3.38
		C38.26,44.5,39.44,44.45,40.62,44.44z M105.91,44.47c5.68,0.01,10.32-4.61,10.33-10.27c0.01-5.67-4.61-10.3-10.28-10.31
		c-5.67-0.01-10.32,4.61-10.34,10.27C95.62,39.82,100.24,44.46,105.91,44.47z M52.66,77.07c5.44,0,10.88,0,16.32,0
		c1.76,0,2.57-0.55,2.56-1.72c-0.01-1.17-0.81-1.71-2.58-1.71c-10.88,0-21.76,0-32.64,0c-0.39,0-0.8-0.02-1.18,0.06
		c-0.88,0.19-1.38,0.76-1.37,1.66c0,0.9,0.51,1.47,1.39,1.65c0.38,0.08,0.78,0.05,1.18,0.05C41.79,77.07,47.23,77.07,52.66,77.07z
		 M41.48,66.77c1.43,0,2.86,0.03,4.29-0.01c1.97-0.05,3.36-1.44,3.44-3.39c0.02-0.57,0.02-1.14,0-1.71c-0.07-2-1.47-3.43-3.49-3.45
		c-2.83-0.03-5.65-0.03-8.48,0c-2.03,0.02-3.43,1.43-3.5,3.44c-0.02,0.53-0.02,1.07,0,1.61c0.05,2.07,1.46,3.48,3.54,3.51
		C38.69,66.79,40.08,66.77,41.48,66.77z M63.72,66.77c1.39,0,2.79,0,4.18,0c0.07,0,0.14,0,0.21,0c1.96-0.08,3.36-1.45,3.44-3.4
		c0.02-0.57,0.02-1.14,0-1.71c-0.07-2-1.48-3.43-3.49-3.45c-2.83-0.03-5.65-0.03-8.48,0c-2.03,0.02-3.42,1.44-3.49,3.45
		c-0.02,0.53-0.02,1.07,0,1.61c0.05,2.07,1.46,3.47,3.55,3.51C61,66.79,62.36,66.77,63.72,66.77z M86.08,66.77c1.39,0,2.79,0,4.18,0
		c0.07,0,0.14,0,0.21,0c1.96-0.08,3.35-1.46,3.43-3.41c0.02-0.57,0.02-1.14,0-1.71c-0.07-2-1.49-3.42-3.5-3.44
		c-2.83-0.03-5.65-0.03-8.48,0c-2.02,0.02-3.42,1.44-3.48,3.46c-0.02,0.53-0.02,1.07,0,1.61c0.06,2.06,1.47,3.46,3.56,3.5
		C83.36,66.79,84.72,66.77,86.08,66.77z M108.54,66.77c1.43,0,2.86,0.03,4.29-0.01c1.96-0.05,3.34-1.46,3.41-3.42
		c0.02-0.57,0.02-1.14,0-1.71c-0.07-1.95-1.46-3.39-3.41-3.42c-2.9-0.04-5.79-0.04-8.69,0c-1.9,0.03-3.27,1.46-3.36,3.36
		c-0.02,0.53-0.01,1.07,0,1.61c0.04,2.14,1.44,3.56,3.57,3.59C105.75,66.79,107.14,66.77,108.54,66.77z M84.46,77.07
		c2.43,0,4.86,0.01,7.3,0c1.37-0.01,2.14-0.64,2.13-1.72c0-1.07-0.77-1.7-2.14-1.71c-4.86-0.01-9.73-0.01-14.59,0
		c-1.37,0-2.14,0.64-2.13,1.72c0,1.07,0.77,1.7,2.14,1.71C79.59,77.08,82.03,77.07,84.46,77.07z"/>
	<path class="st1" d="M105.91,44.47c-5.67-0.01-10.3-4.65-10.29-10.32c0.01-5.66,4.66-10.28,10.34-10.27
		c5.67,0.01,10.3,4.65,10.28,10.31C116.24,39.86,111.59,44.48,105.91,44.47z"/>
	<path class="st2" d="M44.06,44.44c-1.15,0-2.29,0-3.44,0c0-6.84,0-13.68,0-20.52c1.15,0,2.29,0,3.44,0c0,1.25,0.06,2.5-0.02,3.74
		c-0.07,1.1,0.36,1.4,1.42,1.39c5.25-0.04,10.5-0.02,15.75-0.02c0,1.14,0,2.29,0,3.43c-5.04,0-10.09,0-15.13,0
		c-2.04,0-1.99,0-2.04,2.04c-0.03,1.07,0.31,1.43,1.4,1.42c5.26-0.05,10.52-0.02,15.77-0.02c0,1.14,0,2.29,0,3.43
		c-5.29,0-10.57,0.01-15.86-0.01c-0.85,0-1.36,0.16-1.31,1.17C44.11,41.8,44.06,43.12,44.06,44.44z"/>
	<path class="st3" d="M40.62,23.92c0,6.84,0,13.68,0,20.52c-1.18,0.01-2.36,0.06-3.54,0.02c-1.87-0.06-3.31-1.5-3.33-3.38
		c-0.03-4.6-0.03-9.2,0-13.81c0.01-1.89,1.45-3.31,3.33-3.37C38.26,23.86,39.44,23.91,40.62,23.92z"/>
	<path class="st4" d="M52.66,77.07c-5.44,0-10.88,0-16.32,0c-0.39,0-0.8,0.02-1.18-0.05c-0.88-0.18-1.39-0.75-1.39-1.65
		c0-0.9,0.5-1.48,1.37-1.66c0.38-0.08,0.78-0.06,1.18-0.06c10.88,0,21.76,0,32.64,0c1.77,0,2.57,0.54,2.58,1.71
		c0.01,1.18-0.8,1.72-2.56,1.72C63.54,77.07,58.1,77.07,52.66,77.07z"/>
	<path class="st5" d="M41.48,66.77c-1.39,0-2.79,0.02-4.18,0c-2.08-0.04-3.49-1.45-3.54-3.51c-0.01-0.54-0.02-1.07,0-1.61
		c0.07-2.01,1.47-3.42,3.5-3.44c2.83-0.03,5.65-0.03,8.48,0c2.01,0.02,3.42,1.45,3.49,3.45c0.02,0.57,0.02,1.14,0,1.71
		c-0.08,1.95-1.48,3.34-3.44,3.39C44.34,66.8,42.91,66.77,41.48,66.77z"/>
	<path class="st5" d="M63.72,66.77c-1.36,0-2.72,0.02-4.08-0.01c-2.08-0.04-3.49-1.44-3.55-3.51c-0.01-0.54-0.02-1.07,0-1.61
		c0.07-2.01,1.46-3.42,3.49-3.45c2.83-0.03,5.65-0.03,8.48,0c2.01,0.02,3.43,1.45,3.49,3.45c0.02,0.57,0.02,1.14,0,1.71
		c-0.08,1.95-1.47,3.32-3.44,3.4c-0.07,0-0.14,0-0.21,0C66.51,66.77,65.11,66.77,63.72,66.77z"/>
	<path class="st5" d="M86.08,66.77c-1.36,0-2.72,0.02-4.08,0c-2.09-0.04-3.5-1.44-3.56-3.5c-0.01-0.54-0.02-1.07,0-1.61
		c0.06-2.02,1.45-3.43,3.48-3.46c2.83-0.03,5.65-0.03,8.48,0c2.02,0.02,3.43,1.44,3.5,3.44c0.02,0.57,0.02,1.14,0,1.71
		c-0.08,1.95-1.47,3.33-3.43,3.41c-0.07,0-0.14,0-0.21,0C88.87,66.77,87.47,66.77,86.08,66.77z"/>
	<path class="st5" d="M108.54,66.77c-1.39,0-2.79,0.02-4.18,0c-2.13-0.04-3.53-1.45-3.57-3.59c-0.01-0.54-0.02-1.07,0-1.61
		c0.08-1.9,1.46-3.32,3.36-3.36c2.9-0.05,5.79-0.04,8.69,0c1.95,0.03,3.34,1.47,3.41,3.42c0.02,0.57,0.02,1.14,0,1.71
		c-0.07,1.96-1.46,3.36-3.41,3.42C111.4,66.8,109.97,66.77,108.54,66.77z"/>
	<path class="st3" d="M61.21,29.03c-5.25,0-10.5-0.02-15.75,0.02c-1.06,0.01-1.49-0.29-1.42-1.39c0.08-1.24,0.02-2.49,0.02-3.74
		c4.6-0.01,9.2-0.05,13.8-0.02c1.87,0.01,3.3,1.46,3.38,3.32C61.27,27.82,61.23,28.43,61.21,29.03z"/>
	<path class="st3" d="M44.06,44.44c0-1.32,0.05-2.64-0.02-3.96c-0.05-1.01,0.46-1.17,1.31-1.17c5.29,0.02,10.57,0.01,15.86,0.01
		c0.01,0.6,0.05,1.21,0.03,1.81c-0.08,1.86-1.5,3.31-3.38,3.32C53.26,44.48,48.66,44.45,44.06,44.44z"/>
	<path class="st4" d="M84.46,77.07c-2.43,0-4.86,0.01-7.3,0c-1.37-0.01-2.14-0.63-2.14-1.71c0-1.07,0.76-1.71,2.13-1.72
		c4.86-0.01,9.73-0.01,14.59,0c1.37,0,2.14,0.63,2.14,1.71c0,1.07-0.76,1.71-2.13,1.72C89.32,77.08,86.89,77.07,84.46,77.07z"/>
	<path class="st3" d="M61.21,35.89c-5.26,0-10.52-0.03-15.77,0.02c-1.09,0.01-1.43-0.34-1.4-1.42c0.06-2.03,0.01-2.04,2.04-2.04
		c5.04,0,10.09,0,15.13,0C61.21,33.61,61.21,34.75,61.21,35.89z"/>
</g>
</svg>
