<?xml version="1.0" encoding="UTF-8"?>
<svg id="Layer_1" xmlns="http://www.w3.org/2000/svg" version="1.1" width="130" height="80" viewBox="0 0 130 80">
  <!-- Generator: Adobe Illustrator 29.0.1, SVG Export Plug-In . SVG Version: 2.1.0 Build 192)  -->
  <defs>
    <style>
      .st0 {
        fill: #e11f26;
      }

      .st1 {
        fill: #41ab48;
      }

      .st2 {
        fill: #088141;
      }

      .st3 {
        fill: #95c13d;
      }

      .st4 {
        fill: #010101;
        font-family: MyriadPro-Regular, 'Myriad Pro';
        font-size: 7.92px;
      }
    </style>
  </defs>
  <path class="st2" d="M18.4,60.92c-.5-2.27-.33-4.43-1-6.72-1.44-4.95-6.14-8.91-11.16-9.87-1.18-.23-2.56-.17-3.68-.38-.92-.17-.88-.78-.94-1.58-.63-7.54.5-15.94,0-23.58.02-.81.52-1.49,1.26-1.78l21.94-.13c.73.01,1.23.64,1.58,1.21v41.69c-.24.94-.97,1.3-1.87,1.42s-5.67.16-6.12-.29ZM13.78,21.97c-4.51.45-8.82,4.49-7.43,9.33.53,1.82,3.08,3.46,4.93,2.94l2.5-12.27ZM22.4,22.22h-5.45c-.6.79-.53,2.07-.89,3.04h5.83l.51-3.04ZM19.86,27.54h-4.31l-.51,3.04h4.18c.68-.82.64-2.04.63-3.04Z"/>
  <path class="st2" d="M88.14,33.12c-4.3,6.57-8.19,14.59-15.09,18.85-3.9,2.42-9.84,3.85-13.99,1.36s-4.17-8.64.63-10.16c.77-.24,2.49-.73,3.01-.07,1.18,1.47-1.5,1.54-2.32,2.29-2.87,2.64-.24,6.76,3.2,7.21,9.12,1.18,15.7-12.92,19.86-19.11.07-.51-.02-.33-.37-.38-.76-.09-1.62.15-2.38-.28l.2-1.39c.59-.76,3.07-.12,4.03-.41,3.11-5.22,8.94-15.3,16.28-13.77,4.52.94,4.56,6.97-.1,6.95-1.2-.4.9-3.1-.41-4.41-1.23-1.23-3.98.76-4.96,1.65-2.74,2.52-4.22,6.32-6.45,9.26-.07.52.02.33.37.38,3.09.41,6.99-.24,10.14-.25l.65.64c.06.77-7.3,11.09-8.32,12.97-.57,1.04-1.37,2.12-1.32,3.36.36.03.72,0,1.08-.06,2.86-.52,8.75-6.54,10.57-8.94.88-1.16,4.24-7.2,5-7.42.39-.11,3.13-.38,3.46-.27,1.04.34-.29,1.47.55,1.49,3.52-3.09,10.67-2.33,8.19,3.63-.99,2.38-7.18,9.49-7.07,10.93.06.76.79.68,1.38.62,4.37-.43,10.65-9.24,13.19-12.67,1.08-.53,1.81.09,1.27,1.28-.48,1.06-3.04,4.13-3.92,5.2-2.71,3.24-8.78,10.18-13.43,7.62-5.36-2.95,2.66-10.38,4.53-13.23.36-.55,1.69-2.54,1.29-3.1-1.83-.69-3.93.97-5.3,2.13-4.51,3.8-8.25,9.3-11.27,14.32h-3.93c-.28-1.09.62-1.58.76-2.53-2.09,1.73-6.3,4.48-8.84,2.13-2.06-1.91-.62-4.61.44-6.6,1.7-3.21,4.38-6,6.12-9.2h-6.71Z"/>
  <path class="st0" d="M50.26,28.3h-4.05c-.43-3.38-4.66-4.47-7.1-2.41-2.94,2.48-2.74,10.95,1.32,12.12,2.82.82,5.14-.58,5.78-3.38h4.05c-.62,8.17-12.35,9.92-16.07,3.02-2.48-4.59-1.8-12.63,3.14-15.32,5.12-2.79,12.73-.45,12.93,5.96Z"/>
  <path class="st0" d="M64.96,35.14h-9.88c-.02,2.07,1.26,3.54,3.38,3.46,1.83-.07,2.41-1.68,2.57-1.68h3.67c-.61,3.93-4.74,5.36-8.37,4.7-6.83-1.25-7.11-12.9-.7-14.91,5.95-1.86,9.97,2.67,9.32,8.44ZM60.9,32.61c-.12-4.12-5.58-4.06-5.83,0h5.83Z"/>
  <path class="st0" d="M77.37,21.72v19.38c-.4.58-3.49.5-3.82.27l-.25-18.78.39-.87h3.67Z"/>
  <path class="st0" d="M70.53,21.72v19.76c-1.2-.17-2.85.41-3.8-.38v-19.38h3.8Z"/>
  <path class="st1" d="M2.56,45.58c1.61-.46,5.1.39,6.66,1.09,4.68,2.11,7.95,7.8,7.35,12.92-.26,2.24-2.98,2.14-3.28.23-.18-1.17.07-2.28-.19-3.61-.79-4.01-4.19-6.66-8.08-7.37-.93-.17-2.5.29-3.16-.64-.55-.78-.29-2.34.7-2.63Z"/>
  <path class="st3" d="M1.94,53.57c-.73-.77-.35-2.49.83-2.71,5.14-.97,9.06,3.87,8.48,8.74-.27,2.33-3.1,2.05-3.3.22-.17-1.56.57-2.08-.65-3.88-1.73-2.56-4.48-1.43-5.36-2.36Z"/>
  <path class="st2" d="M100.08,24.59c2.17-.13,3.56,2.64,1.75,4.24-3.48,3.07-6.09-3.97-1.75-4.24Z"/>
  <path class="st0" d="M2.46,59.64c-2.21-2.42,1.89-4.97,3.22-2.59s-1.71,4.25-3.22,2.59Z"/>
  <path class="st1" d="M13.78,21.97l-2.5,12.27c-1.84.52-4.4-1.12-4.93-2.94-1.4-4.84,2.91-8.88,7.43-9.33Z"/>
  <path class="st3" d="M22.4,22.22l-.51,3.04h-5.83c.36-.97.29-2.25.89-3.04h5.45Z"/>
  <path class="st3" d="M19.86,27.54c0,1,.04,2.22-.63,3.04h-4.18l.51-3.04h4.31Z"/>
  <text class="st4" transform="translate(32.32 61.13)"><tspan x="0" y="0">Banking and beyond</tspan></text>
</svg>