<?xml version="1.0" encoding="utf-8"?>
<!-- Generator: Adobe Illustrator 28.0.0, SVG Export Plug-In . SVG Version: 6.00 Build 0)  -->
<svg version="1.1" id="Layer_1" xmlns="http://www.w3.org/2000/svg" xmlns:xlink="http://www.w3.org/1999/xlink" x="0px" y="0px"
	width="130" height="80" viewBox="0 0 130 80" style="enable-background:new 0 0 130 80;" xml:space="preserve">
<style type="text/css">
	.st0{fill:#606469;}
	.st1{fill:#557EBF;}
	.st2{fill:#36A852;}
	.st3{fill:#F9BC15;}
	.st4{fill:#EA4535;}
</style>
<g>
	<path class="st0" d="M61.48,39.41v15.13h-4.8V17.17h12.73c3.07-0.06,6.04,1.1,8.24,3.24c2.23,2.01,3.49,4.88,3.44,7.89
		c0.06,3.02-1.19,5.92-3.44,7.93c-2.23,2.12-4.97,3.18-8.24,3.18L61.48,39.41L61.48,39.41z M61.48,21.77v13.04h8.05
		c1.78,0.05,3.51-0.65,4.75-1.93c1.23-1.2,1.93-2.85,1.93-4.57c0-1.72-0.7-3.37-1.93-4.57c-1.23-1.31-2.96-2.03-4.75-1.98
		L61.48,21.77L61.48,21.77z M92.16,28.14c3.55,0,6.35,0.95,8.4,2.84c2.05,1.9,3.08,4.5,3.08,7.8v15.76h-4.59v-3.55h-0.21
		c-1.99,2.92-4.63,4.38-7.93,4.38c-2.82,0-5.17-0.83-7.07-2.5C82,51.32,80.95,49.02,81,46.61c0-2.65,1-4.75,3-6.31
		c2-1.56,4.67-2.35,8.01-2.35c2.85,0,5.2,0.52,7.04,1.57v-1.1c0.01-1.64-0.72-3.2-1.98-4.25c-1.27-1.15-2.92-1.77-4.63-1.75
		c-2.68,0-4.8,1.13-6.37,3.39l-4.23-2.66C84.16,29.81,87.6,28.14,92.16,28.14z M85.95,46.71c-0.01,1.24,0.59,2.41,1.59,3.13
		c1.06,0.84,2.38,1.28,3.73,1.25c2.03,0,3.97-0.81,5.4-2.24c1.59-1.5,2.39-3.25,2.39-5.27c-1.5-1.19-3.58-1.79-6.26-1.79
		c-1.95,0-3.58,0.47-4.88,1.41C86.6,44.16,85.95,45.32,85.95,46.71z M130,28.97l-16.03,36.84h-4.96l5.95-12.89l-10.54-23.95h5.22
		l7.62,18.37h0.1l7.41-18.37H130z"/>
	<g>
		<path class="st1" d="M42.08,36.15c0-1.46-0.12-2.92-0.37-4.37H21.47v8.27h11.6c-0.48,2.67-2.03,5.03-4.29,6.52v5.37h6.92
			C39.75,48.2,42.08,42.68,42.08,36.15z"/>
		<path class="st2" d="M21.47,57.13c5.79,0,10.67-1.9,14.23-5.18l-6.92-5.37c-1.93,1.31-4.41,2.05-7.31,2.05
			c-5.6,0-10.35-3.77-12.05-8.86H2.29v5.53C5.93,52.55,13.35,57.13,21.47,57.13z"/>
		<path class="st3" d="M9.42,39.77c-0.9-2.67-0.9-5.55,0-8.22v-5.53H2.29c-3.05,6.07-3.05,13.21,0,19.28L9.42,39.77z"/>
		<path class="st4" d="M21.47,22.69c3.06-0.05,6.02,1.11,8.24,3.22l6.13-6.13c-3.89-3.65-9.03-5.65-14.36-5.59
			c-8.12,0-15.54,4.58-19.18,11.83l7.13,5.53C11.11,26.46,15.87,22.69,21.47,22.69z"/>
	</g>
</g>
</svg>
