<?xml version="1.0" encoding="utf-8"?>
<!-- Generator: Adobe Illustrator 28.0.0, SVG Export Plug-In . SVG Version: 6.00 Build 0)  -->
<svg version="1.1" id="Layer_1" xmlns="http://www.w3.org/2000/svg" xmlns:xlink="http://www.w3.org/1999/xlink" x="0px" y="0px"
	width="130" height="80" viewBox="0 0 130 80" style="enable-background:new 0 0 130 80;" xml:space="preserve">
<style type="text/css">
	.st0{fill:#078C45;}
	.st1{clip-path:url(#SVGID_00000024723088110327599120000017096295238262860187_);}
	.st2{fill:#231F20;}
	.st3{fill:#07A64F;}
	.st4{fill:none;}
</style>
<g>
	<g>
		<path class="st0" d="M7.1,37.77c0,0-1.91-0.35-2.35,0.73c0,0-0.91,1.75,0.79,5.63c0,0,0.66-1.16,1.03-0.27
			c0,0,0.25,0.39-0.05,0.86c0,0,0.94-0.42,1.39-1.7C7.9,43.03,7.05,38.21,7.1,37.77z M5.77,41.57c-0.41,0-0.75-0.62-0.75-1.39
			c0-0.77,0.33-1.39,0.75-1.39c0.41,0,0.75,0.62,0.75,1.39C6.52,40.95,6.18,41.57,5.77,41.57z"/>
		<path class="st0" d="M20.52,59.32l2.05,2.44c0.96-0.51,4.15-1.96,9.11-1.96c2.94,0,5.99,0.52,9.07,1.53l1.86-2.09
			c-2.81-1.59-6.78-2.49-10.98-2.49C27.35,56.76,23.34,57.68,20.52,59.32z M22.39,62.79l-3.08-3.67l0.39-0.24
			c2.96-1.86,7.3-2.92,11.92-2.92c4.56,0,8.87,1.04,11.82,2.86l0.41,0.25l-2.86,3.2l-0.25-0.09c-3.08-1.05-6.13-1.58-9.06-1.58
			c-5.66,0-8.96,1.99-8.99,2.01L22.39,62.79"/>
		<g>
			<path class="st0" d="M9.89,37.78H6.91c0.72,9.3,6.28,17.16,14.02,20.73l4.58-1.49C17.1,54.88,10.71,47.2,9.89,37.78z M10.3,47.49
				l1.69-0.93l0.22,0.39l-1.69,0.93L10.3,47.49z M11.1,48.96c-0.41-0.67-0.14-0.99,0.06-1.12l0.23,0.36
				c-0.09,0.06-0.23,0.22-0.02,0.55c0.11,0.18,0.28,0.36,0.45,0.25c0.13-0.08,0.08-0.24,0-0.45l-0.08-0.22
				c-0.12-0.33-0.24-0.65,0.12-0.88c0.18-0.11,0.57-0.21,0.94,0.38c0.35,0.56,0.12,0.91-0.09,1.04l-0.23-0.36
				c0.07-0.05,0.22-0.19,0.01-0.52c-0.09-0.15-0.24-0.29-0.39-0.19c-0.13,0.08-0.08,0.21-0.05,0.3l0.18,0.5
				c0.1,0.28,0.15,0.56-0.14,0.75C11.59,49.65,11.2,49.12,11.1,48.96z M11.78,49.92l1.55-1.14l0.26,0.36l-1.27,0.93l0.63,0.86
				l-0.28,0.21L11.78,49.92z M14.08,52.79l-0.32-0.37l0.21-0.36l-0.52-0.6l-0.4,0.15l-0.31-0.36l1.96-0.68l0.34,0.39L14.08,52.79z
				 M17.74,53.53l-1.23,1.49l-0.34-0.28l1.22-1.49L17.74,53.53z M17.19,53.1l-1.32,1.4l-0.3-0.29l1.11-1.17l0,0l-1.4,0.9l-0.32-0.3
				l0.83-1.44l0,0l-1.11,1.17l-0.3-0.28l1.33-1.4l0.48,0.45l-0.76,1.37h0l1.32-0.84L17.19,53.1z"/>
			<polygon class="st0" points="13.79,51.33 14.15,51.74 14.55,51.04 14.55,51.04 			"/>
			<polygon class="st0" points="42.54,55.2 41.89,54.72 41.88,54.73 42.1,55.51 			"/>
			<path class="st0" d="M40.71,56.25l-0.49,0.28l0.26,0.45l0.48-0.27c0.19-0.11,0.26-0.24,0.16-0.41
				C41.02,56.14,40.85,56.17,40.71,56.25z"/>
			<polygon class="st0" points="48.23,49.32 47.45,49.1 47.45,49.11 47.92,49.77 			"/>
			<path class="st0" d="M49.24,47.2c-0.49-0.28-0.68-0.05-0.78,0.12l-0.22,0.37l1.09,0.63l0.22-0.38
				C49.74,47.63,49.52,47.36,49.24,47.2z"/>
			<path class="st0" d="M40.67,55.65c-0.08-0.14-0.21-0.12-0.39-0.02l-0.44,0.26l0.21,0.36l0.45-0.26
				C40.66,55.9,40.75,55.78,40.67,55.65z"/>
			<path class="st0" d="M50.61,38.1c-0.89,8.8-6.65,16.03-14.33,18.55l4.58,1.28c7.07-3.76,12.1-11.19,12.84-19.93L50.61,38.1z
				 M41.55,56.54c-0.05,0.15-0.12,0.27-0.5,0.49l-0.79,0.45l-0.96-1.67l0.9-0.52c0.46-0.26,0.72-0.07,0.82,0.1
				c0.14,0.24,0.03,0.39-0.03,0.47c0.27-0.05,0.43,0.08,0.52,0.24C41.59,56.24,41.6,56.4,41.55,56.54z M43.18,55.64l-0.34-0.25
				l-0.65,0.45l0.1,0.41l-0.38,0.27l-0.49-2.02l0.42-0.3l1.73,1.14L43.18,55.64z M44.77,54.35l-1.56-0.48l0,0l0.89,1.05l-0.32,0.27
				l-1.25-1.47l0.36-0.31l1.52,0.47l0,0l-0.87-1.02l0.32-0.27l1.25,1.47L44.77,54.35z M46.55,52.62l-0.21-0.13
				c0.01,0.16,0.02,0.4-0.25,0.68c-0.36,0.37-0.93,0.47-1.41,0c-0.38-0.37-0.5-0.95,0-1.46c0.46-0.47,0.91-0.39,1.12-0.22
				l-0.31,0.32c-0.06-0.05-0.33-0.11-0.55,0.12c-0.22,0.23-0.29,0.58,0.07,0.92c0.38,0.37,0.7,0.23,0.91,0.02
				c0.07-0.07,0.27-0.33,0.06-0.66l-0.35,0.36l-0.23-0.23l0.63-0.64l0.74,0.73L46.55,52.62z M47.04,52.08l-1.49-1.22l0.29-0.34
				l1.22,1l0.68-0.82L48,50.91L47.04,52.08z M48.98,49.52l-0.4-0.12l-0.45,0.65l0.24,0.35l-0.27,0.39l-1.14-1.73l0.29-0.42
				l2.01,0.48L48.98,49.52z M49.87,48.06l-0.46,0.8l-1.67-0.96l0.47-0.82c0.36-0.63,0.91-0.48,1.23-0.29
				C49.8,47,50.23,47.45,49.87,48.06z M50.48,46.98l-1.74-0.83l0.68-1.42l0.31,0.15l-0.49,1.03l0.37,0.17l0.45-0.94l0.31,0.15
				l-0.45,0.94l0.45,0.21l0.51-1.07l0.31,0.15L50.48,46.98z M51.66,44.44c-0.28,0.73-0.71,0.71-0.93,0.62l0.15-0.4
				c0.1,0.03,0.32,0.05,0.45-0.31c0.08-0.2,0.12-0.43-0.07-0.51c-0.14-0.06-0.23,0.08-0.36,0.28l-0.13,0.2
				c-0.19,0.3-0.38,0.58-0.77,0.43c-0.2-0.08-0.51-0.33-0.26-0.98c0.23-0.61,0.66-0.64,0.88-0.55l-0.15,0.4
				c-0.08-0.02-0.29-0.06-0.43,0.31c-0.06,0.16-0.08,0.37,0.08,0.43c0.14,0.05,0.22-0.06,0.27-0.14l0.3-0.44
				c0.16-0.25,0.36-0.46,0.68-0.34C51.91,43.63,51.72,44.26,51.66,44.44z M52.15,42.88l-0.13,0.43l-1.85-0.55l0.13-0.43l0.7,0.21
				l0.24-0.8l-0.7-0.21l0.13-0.43l1.85,0.55l-0.13,0.43l-0.83-0.24l-0.24,0.8L52.15,42.88z"/>
		</g>
		<g>
			<defs>
				<rect id="SVGID_1_" x="23.16" y="60.87" width="3.17" height="2.13"/>
			</defs>
			<clipPath id="SVGID_00000146470347819265862190000010884953062171319986_">
				<use xlink:href="#SVGID_1_"  style="overflow:visible;"/>
			</clipPath>
			<g style="clip-path:url(#SVGID_00000146470347819265862190000010884953062171319986_);">
				<path class="st0" d="M26.26,60.89c0,0-0.7,3.6-3.07,1.4"/>
			</g>
		</g>
		<path class="st0" d="M39.2,61.61c0,0-2.75,2.44-3.45-0.84"/>
		<path class="st2" d="M26.97,59.15l0.63-0.12c0.18-0.03,0.37-0.02,0.4,0.12c0.03,0.16-0.09,0.26-0.33,0.31l-0.61,0.12L26.97,59.15
			 M26.63,59.95l1.01-0.2c0.49-0.1,0.6-0.18,0.72-0.29c0.11-0.11,0.17-0.24,0.14-0.37c-0.03-0.16-0.14-0.3-0.44-0.31
			c0.09-0.05,0.28-0.16,0.23-0.38c-0.03-0.17-0.23-0.38-0.81-0.26l-1.16,0.23L26.63,59.95 M26.85,58.54l0.57-0.11
			c0.23-0.04,0.37-0.03,0.4,0.1c0.02,0.13-0.12,0.21-0.32,0.25l-0.58,0.11L26.85,58.54"/>
		<path class="st2" d="M29.72,58.18L29.72,58.18l0.37,0.61l-0.62,0.06L29.72,58.18 M29.37,59.14l0.89-0.09l0.19,0.32l0.55-0.06
			l-1.01-1.52l-0.58,0.06l-0.7,1.69l0.53-0.05L29.37,59.14"/>
		<path class="st2" d="M32.77,57.7l0.47,0l-0.01,1.62l-0.51,0l-0.98-1.16h-0.01l-0.01,1.16l-0.47,0l0.01-1.62l0.53,0l0.96,1.13h0
			L32.77,57.7"/>
		<path class="st2" d="M34.21,59.41l-0.5-0.06l0.2-1.6l0.5,0.06l-0.08,0.65l1-0.54L35.98,58l-1.06,0.53l0.92,1.08l-0.65-0.08
			l-0.65-0.8l-0.26,0.13L34.21,59.41"/>
		<path class="st2" d="M14.06,38.62l0.33,0.62l0.69,0.07l-0.48,0.5l0.14,0.68l-0.63-0.3l-0.61,0.34l0.09-0.69l-0.51-0.47l0.69-0.12
			L14.06,38.62"/>
		<path class="st2" d="M16.29,42.21c0,0,0.01,0.03,0.05,0.1c0.03,0.07,0.04,0.14,0.02,0.21c-0.1-0.08-0.18-0.1-0.23-0.08
			c-0.05,0.02-0.07,0.07-0.07,0.15c0,0.08,0.01,0.13,0.02,0.15c0,0.02,0.05,0.11,0.14,0.27c0.1,0.18,0.16,0.28,0.18,0.31
			c0.14,0.3,0.2,0.52,0.19,0.67c-0.02,0.27-0.13,0.45-0.33,0.54l0.07,0.15l-0.14,0.5l-0.58-1.27c-0.03,0.03-0.03,0.12,0,0.27
			c0.04,0.16,0.01,0.33-0.09,0.51c-0.1,0.17-0.22,0.28-0.36,0.32c-0.3,0.09-0.59-0.03-0.89-0.36c0.01,0.07,0.01,0.19-0.01,0.38
			c-0.02,0.16-0.04,0.28-0.06,0.37l-0.13,0.51l-0.43,0.36c0.17-0.49,0.26-0.93,0.27-1.32c0.01-0.4-0.03-0.77-0.11-1.11l0.52-0.7
			c-0.03,0.38,0.02,0.69,0.13,0.93c0.04,0.09,0.08,0.16,0.12,0.21c0.09,0.1,0.15,0.16,0.18,0.19c0.06,0.05,0.14,0.09,0.23,0.12
			c0.03,0.01,0.06,0,0.09-0.01c0.08-0.04,0.14-0.1,0.17-0.18c0.03-0.08,0.01-0.17-0.05-0.25c-0.11,0.03-0.24,0-0.39-0.08
			c-0.1-0.05-0.17-0.13-0.22-0.24c-0.04-0.09-0.05-0.18-0.04-0.26c0.02-0.09,0.06-0.15,0.14-0.18c0.06-0.03,0.14-0.04,0.23-0.02
			c0.09,0.01,0.17,0.05,0.23,0.1c0.04,0.02,0.1,0.07,0.17,0.15c0.05,0.06,0.08,0.1,0.07,0.1l0.03-0.16l-0.33-0.73l0.14-0.5L16,43.99
			c0.05,0.09,0.08,0.13,0.08,0.13c0.02,0.03,0.07,0.06,0.13,0.08c0,0,0.01,0,0.01,0c0.01-0.01,0.01-0.05,0.01-0.13
			c-0.01-0.09-0.04-0.17-0.08-0.24c-0.05-0.12-0.13-0.27-0.24-0.46c-0.04-0.08-0.07-0.13-0.09-0.16c-0.11-0.25-0.14-0.47-0.1-0.68
			c0.03-0.17,0.11-0.28,0.23-0.33c0.09-0.04,0.19-0.05,0.27-0.01C16.27,42.2,16.29,42.21,16.29,42.21"/>
		<path class="st2" d="M16.65,45.84l0.51,0.77l-0.48,0.32c0.06-0.25,0.05-0.42-0.01-0.52c-0.03-0.04-0.1-0.09-0.19-0.13l-0.07-0.03
			C16.56,46.15,16.64,46.01,16.65,45.84 M17.69,47.4l0.06-0.51l-1.61-2.42l-0.05,0.46L16.09,45c-0.02,0.04-0.03,0.07-0.03,0.08
			c-0.03,0.09-0.01,0.21,0.08,0.37c0.11,0.17,0.16,0.28,0.15,0.35c0,0.12-0.07,0.24-0.2,0.35l-0.32-0.03
			c-0.14-0.02-0.22-0.04-0.24-0.08c-0.02-0.03-0.01-0.08,0.03-0.18c0.03-0.06,0.08-0.13,0.16-0.19l-0.38-0.11
			c-0.16,0.33-0.22,0.55-0.19,0.64c0,0.06,0.04,0.13,0.1,0.22c0.03,0.04,0.05,0.07,0.06,0.08c0.06,0.07,0.33,0.13,0.8,0.16
			c0.11,0.01,0.19,0.04,0.23,0.11c0.03,0.05,0.04,0.11,0.04,0.19c0,0.08-0.02,0.14-0.05,0.18l-0.87,0.58l-0.1,0.53l1.99-1.33
			L17.69,47.4"/>
		<path class="st2" d="M19.12,48.87l-1.74,1.62L17.35,50l0.94-0.88c0.03-0.03,0.05-0.09,0.05-0.17c0-0.08-0.02-0.15-0.07-0.19
			c-0.03-0.04-0.08-0.05-0.13-0.05c-0.05,0.01-0.12,0.07-0.21,0.2l-0.28-0.15c0.08-0.03,0.12-0.06,0.13-0.12
			c0.03-0.1,0.03-0.17,0.03-0.2c0-0.11-0.05-0.21-0.14-0.31c-0.08-0.08-0.16-0.12-0.27-0.13c-0.11-0.01-0.19,0.02-0.26,0.09
			c-0.08,0.07-0.1,0.16-0.06,0.26c0.01-0.03,0.03-0.05,0.06-0.07c0.06-0.06,0.14-0.08,0.23-0.07c0.09,0.01,0.17,0.05,0.23,0.12
			c0.11,0.11,0.13,0.25,0.06,0.4c-0.05,0.12-0.11,0.2-0.17,0.22c-0.17,0.05-0.34,0-0.48-0.16c-0.16-0.17-0.24-0.35-0.25-0.54
			c-0.01-0.19,0.06-0.36,0.21-0.5c0.13-0.12,0.27-0.18,0.44-0.2c0.19-0.02,0.35,0.04,0.48,0.19c0.14,0.14,0.22,0.31,0.22,0.52
			l0,0.04c0.06-0.01,0.13-0.01,0.2,0.01c0.09,0.02,0.15,0.05,0.19,0.09c0.08,0.09,0.11,0.18,0.12,0.28c0,0.04-0.01,0.09-0.02,0.13
			c0,0.01,0,0.02,0,0.03l0.24-0.23l-1.35-1.45l-0.02-0.53l1.97,2.11l0.02,0.53L19.12,48.87"/>
		<path class="st2" d="M19.73,49.21l0.05-0.06c0.08-0.12,0.2-0.28,0.36-0.47l0.07,0.27c-0.05,0.08-0.09,0.16-0.11,0.23
			c0,0.02,0,0.05,0.01,0.08l0.13,0.11l0.07,0.52l-0.4-0.34l-1.58,1.86l-0.06-0.52l1.1-1.29c0.04-0.05,0.06-0.09,0.06-0.1
			c0.03-0.07,0.04-0.15,0.01-0.24c-0.02-0.09-0.07-0.17-0.14-0.23c-0.01-0.01-0.04-0.03-0.07-0.06l-0.08-0.49
			c0.14,0.1,0.24,0.17,0.3,0.22C19.64,48.85,19.74,49.03,19.73,49.21"/>
		<path class="st2" d="M20.79,51.83c-0.04-0.18-0.07-0.32-0.1-0.41c0.05-0.05,0.08-0.11,0.1-0.16c0.07-0.18,0.1-0.33,0.1-0.44
			c0-0.1-0.02-0.21-0.04-0.31c-0.02-0.05-0.05-0.15-0.1-0.31l0.79,0.54L20.79,51.83 M20.31,50.26c0.11,0.12,0.19,0.23,0.23,0.32
			c0.05,0.12,0.04,0.24-0.01,0.36c-0.02-0.03-0.05-0.05-0.09-0.08c-0.18-0.12-0.32-0.17-0.44-0.14c-0.14,0.03-0.24,0.09-0.3,0.18
			c-0.02,0.02-0.03,0.05-0.04,0.07c-0.03,0.08-0.04,0.12-0.04,0.13c0,0.02,0,0.07,0.02,0.13c0.02,0.11,0.1,0.2,0.24,0.3
			c0.14,0.09,0.31,0.13,0.5,0.11c0.04,0.07,0.09,0.2,0.15,0.36c0.03,0.09,0.03,0.19,0,0.31c-0.01,0.04-0.03,0.14-0.07,0.29
			l0.07,0.31l1.34-1.97l0.43,0.29l-0.13-0.51l-2.19-1.48l0.12,0.47l-0.01,0.11c0.02,0.09,0.03,0.16,0.06,0.22
			C20.16,50.08,20.22,50.16,20.31,50.26"/>
		<path class="st2" d="M22.7,51.38l-1.12,2.11l-0.18-0.48l0.96-1.82l-0.26-0.14l-0.21-0.5l0.64,0.34l0.02-0.1
			c0.02-0.07,0-0.2-0.04-0.38c-0.03-0.12-0.08-0.23-0.15-0.33c-0.05-0.06-0.14-0.15-0.27-0.27c-0.12-0.11-0.25-0.2-0.42-0.29
			c-0.08-0.04-0.19-0.09-0.33-0.14c-0.19-0.05-0.29-0.06-0.31-0.02c-0.02,0.03,0.03,0.07,0.14,0.14c0.14,0.08,0.28,0.16,0.42,0.24
			c0.18,0.11,0.31,0.2,0.38,0.28c0.07,0.08,0.11,0.17,0.12,0.27c0.01,0.1,0,0.2-0.04,0.28c-0.03,0.04-0.06,0.1-0.12,0.15l-0.45-0.24
			c0.2-0.02,0.3-0.04,0.32-0.07c0.03-0.05-0.06-0.14-0.25-0.26c-0.13-0.08-0.26-0.15-0.38-0.22c-0.14-0.1-0.25-0.2-0.31-0.31
			c-0.09-0.14-0.11-0.27-0.05-0.39c0.05-0.1,0.12-0.15,0.21-0.16c0.2-0.02,0.45,0.02,0.76,0.13c0.06,0.02,0.12,0.04,0.16,0.06
			c0.15,0.08,0.33,0.22,0.54,0.42c0.09,0.09,0.18,0.23,0.28,0.41c0.05,0.11,0.09,0.23,0.11,0.39c0.02,0.15,0.02,0.28,0,0.39
			l-0.03,0.17l0.21,0.11l0.18,0.48L22.7,51.38"/>
		<path class="st2" d="M25.39,54.01c-0.14-0.29-0.34-0.55-0.6-0.77c0.32-0.07,0.61-0.11,0.87-0.11L25.39,54.01 M26.73,52.89
			l-0.27-0.44l-2.48-0.76l0.27,0.44l1.56,0.48l-0.02,0.06c-0.55-0.01-1.11,0.06-1.71,0.22l0.23,0.57c0.22,0.08,0.41,0.2,0.58,0.37
			c0.23,0.22,0.37,0.5,0.42,0.86l0.16,0.38l0.71-2.34L26.73,52.89"/>
		<path class="st2" d="M27.63,52.98c-0.09-0.02-0.18-0.01-0.27,0.02c-0.09,0.03-0.15,0.08-0.18,0.16c-0.01,0.03-0.03,0.08-0.03,0.13
			c-0.03,0.15-0.04,0.33-0.04,0.54c0.01,0.38,0,0.59-0.01,0.66c-0.05,0.27-0.24,0.46-0.59,0.56c-0.16,0.05-0.28,0.06-0.37,0.04
			c-0.08-0.02-0.14-0.06-0.16-0.14c0-0.02,0-0.03,0-0.04c0.01-0.05,0.05-0.07,0.13-0.08l0.17-0.02c0.12-0.05,0.19-0.09,0.22-0.11
			c0.05-0.04,0.09-0.13,0.13-0.25c0.01-0.05,0.01-0.19-0.02-0.43c-0.02-0.24-0.02-0.41,0-0.51c0.03-0.17,0.11-0.32,0.23-0.46
			c0.07-0.05,0.15-0.11,0.21-0.17l-0.62-0.12l-0.33-0.4l1.44,0.27l0.34,0.41C27.75,53.01,27.65,52.98,27.63,52.98"/>
		<path class="st2" d="M28.07,52.93v-0.08c0-0.15,0.01-0.35,0.04-0.59l0.21,0.18c0,0.1,0.02,0.18,0.04,0.25
			c0.01,0.02,0.03,0.04,0.05,0.06l0.18,0.02l0.34,0.39l-0.52-0.06l-0.28,2.42l-0.34-0.39l0.19-1.68c0-0.07,0-0.11-0.01-0.13
			c-0.01-0.08-0.05-0.15-0.12-0.21c-0.07-0.06-0.15-0.1-0.24-0.11c-0.02,0-0.05,0-0.09-0.01l-0.34-0.36c0.17,0,0.3,0.01,0.37,0.02
			C27.8,52.68,27.98,52.77,28.07,52.93"/>
		<path class="st2" d="M29.68,53.43c0,0.06-0.01,0.1-0.02,0.13c-0.02,0.04-0.08,0.09-0.17,0.13c-0.09,0.05-0.16,0.07-0.21,0.07
			c-0.06,0-0.08-0.04-0.08-0.11c0-0.11,0.04-0.18,0.11-0.24c0.14-0.1,0.24-0.14,0.31-0.12C29.66,53.31,29.69,53.35,29.68,53.43
			 M30.07,53.56c0-0.15-0.05-0.29-0.18-0.42c-0.12-0.13-0.27-0.19-0.44-0.2c-0.17-0.01-0.31,0.05-0.45,0.17
			c-0.13,0.12-0.2,0.25-0.2,0.39c-0.01,0.15,0.06,0.29,0.18,0.41c0.13,0.12,0.28,0.18,0.45,0.19c0.09,0,0.16,0,0.21-0.02
			c0.07-0.02,0.14-0.07,0.23-0.15C30,53.83,30.06,53.7,30.07,53.56 M30.45,55.81l0.01-0.34c-0.42-0.48-0.7-0.78-0.84-0.91
			c-0.25-0.22-0.48-0.41-0.67-0.56l-0.02,0.66c0.56,0.37,0.93,0.63,1.11,0.79L30.45,55.81"/>
		<path class="st2" d="M31.87,54.48c-0.2-0.21-0.46-0.37-0.78-0.46c0.12-0.09,0.19-0.15,0.22-0.17c0.12-0.09,0.28-0.18,0.47-0.27
			L31.87,54.48 M32.64,53.85c-0.05,0-0.11,0.02-0.18,0.05c-0.11,0.1-0.16,0.2-0.15,0.29c0.01,0.09,0.06,0.16,0.14,0.22
			c0.08,0.06,0.18,0.08,0.29,0.07c0.14-0.02,0.25-0.07,0.33-0.18c0.08-0.1,0.11-0.21,0.1-0.34c-0.03-0.3-0.18-0.53-0.47-0.7
			c-0.22-0.13-0.42-0.19-0.6-0.17l-0.01-0.06l1.27-0.13l-0.42-0.3l-3.19,0.33l0.43,0.29l1.53-0.16l0.01,0.08
			c-0.5,0.2-0.97,0.48-1.4,0.85l0.46,0.4c0.38,0,0.7,0.11,0.97,0.35c0.1,0.09,0.17,0.16,0.21,0.21c0.02,0.03,0.07,0.12,0.14,0.25
			l0.23,0.16l-0.2-1.87c0.18-0.02,0.34,0.03,0.49,0.13c0.1,0.07,0.17,0.15,0.2,0.23C32.78,53.85,32.71,53.85,32.64,53.85"/>
		<path class="st2" d="M36.49,53.4c-0.29-0.15-0.6-0.23-0.95-0.25c0.21-0.25,0.42-0.45,0.63-0.61L36.49,53.4 M36.87,51.7l-0.48-0.18
			l-2.43,0.9l0.48,0.18l1.53-0.57L36,52.09c-0.44,0.32-0.85,0.73-1.22,1.22l0.52,0.31c0.22-0.07,0.45-0.09,0.68-0.06
			c0.32,0.03,0.6,0.18,0.86,0.43l0.35,0.2l-0.85-2.29L36.87,51.7"/>
		<path class="st2" d="M36.88,51.49l-0.04-0.06c-0.08-0.12-0.17-0.3-0.29-0.52l0.27,0.04c0.06,0.08,0.11,0.15,0.17,0.19
			c0.02,0.01,0.05,0.02,0.08,0.03l0.15-0.08l0.5,0.14l-0.47,0.23l1.08,2.19l-0.5-0.14l-0.75-1.52c-0.03-0.06-0.06-0.09-0.07-0.1
			c-0.05-0.06-0.13-0.1-0.22-0.11c-0.09-0.01-0.18,0-0.26,0.04c-0.02,0.01-0.04,0.02-0.08,0.04l-0.48-0.12
			c0.15-0.09,0.25-0.16,0.32-0.19C36.52,51.43,36.72,51.41,36.88,51.49"/>
		<path class="st2" d="M38.51,51.03c0.03,0.05,0.05,0.1,0.05,0.12c0,0.05-0.02,0.11-0.07,0.21c-0.05,0.09-0.09,0.15-0.14,0.18
			c-0.05,0.03-0.09,0.01-0.13-0.05c-0.05-0.09-0.07-0.17-0.03-0.26c0.06-0.16,0.13-0.24,0.19-0.27
			C38.42,50.95,38.47,50.97,38.51,51.03 M38.89,50.94c-0.08-0.13-0.2-0.21-0.37-0.26c-0.17-0.04-0.33-0.01-0.48,0.08
			c-0.14,0.09-0.24,0.21-0.29,0.38c-0.05,0.17-0.03,0.32,0.04,0.44c0.08,0.13,0.2,0.21,0.38,0.24c0.17,0.03,0.34,0,0.48-0.09
			c0.08-0.05,0.14-0.09,0.17-0.13c0.04-0.05,0.08-0.14,0.11-0.25C38.98,51.2,38.97,51.06,38.89,50.94 M40.44,52.63l-0.18-0.29
			c-0.61-0.18-1.01-0.28-1.2-0.31c-0.33-0.05-0.62-0.08-0.87-0.1l0.34,0.56c0.67,0,1.13,0.02,1.36,0.06L40.44,52.63"/>
		<path class="st2" d="M40.7,49.12l1.47,1.86l-0.5-0.01l-0.8-1c-0.03-0.04-0.09-0.06-0.17-0.06c-0.08-0.01-0.15,0.01-0.19,0.05
			c-0.04,0.03-0.06,0.07-0.05,0.13c0.01,0.05,0.07,0.13,0.18,0.23l-0.17,0.26c-0.02-0.08-0.05-0.13-0.11-0.14
			c-0.1-0.03-0.17-0.05-0.2-0.05c-0.11,0-0.22,0.03-0.32,0.12c-0.09,0.07-0.14,0.15-0.16,0.26c-0.02,0.1,0,0.19,0.06,0.27
			c0.07,0.08,0.15,0.11,0.25,0.08c-0.02-0.02-0.04-0.04-0.06-0.06c-0.05-0.06-0.07-0.14-0.05-0.23c0.02-0.09,0.07-0.17,0.14-0.22
			c0.12-0.1,0.26-0.11,0.4-0.03c0.12,0.07,0.18,0.13,0.2,0.19c0.04,0.18-0.03,0.34-0.2,0.47c-0.18,0.14-0.37,0.21-0.56,0.21
			c-0.19,0-0.35-0.09-0.48-0.25c-0.11-0.13-0.16-0.28-0.16-0.46c0-0.19,0.08-0.35,0.23-0.47c0.15-0.13,0.33-0.19,0.53-0.18l0.03,0
			c0-0.06,0-0.13,0.03-0.2c0.03-0.09,0.06-0.15,0.11-0.18c0.09-0.07,0.19-0.1,0.29-0.1c0.05,0.01,0.09,0.02,0.13,0.03
			c0.01,0,0.02,0,0.03,0l-0.2-0.26l-1.55,1.23l-0.54-0.02l2.27-1.8l0.53,0.02L40.7,49.12"/>
		<path class="st2" d="M41.08,48.53l-0.06-0.05c-0.12-0.09-0.26-0.23-0.44-0.4l0.27-0.05c0.08,0.06,0.15,0.1,0.22,0.13
			c0.02,0,0.05,0,0.08,0l0.12-0.12l0.52-0.03l-0.37,0.37l1.73,1.72l-0.52,0.03l-1.2-1.2c-0.05-0.04-0.08-0.06-0.1-0.07
			c-0.07-0.04-0.15-0.05-0.24-0.03c-0.09,0.02-0.17,0.06-0.24,0.12c-0.01,0.01-0.03,0.03-0.06,0.06l-0.49,0.04
			c0.11-0.13,0.19-0.23,0.24-0.28C40.72,48.59,40.9,48.51,41.08,48.53"/>
		<path class="st2" d="M42.5,47.49c-0.04,0.33,0.04,0.61,0.24,0.85c0.11,0.13,0.19,0.21,0.25,0.26c0.2,0.17,0.44,0.2,0.73,0.09
			c0.03-0.01,0.06-0.03,0.08-0.07c0.01,0,0.02,0,0.03,0.01c0.02,0.02,0.01,0.06-0.02,0.13c0.04-0.05,0.06-0.08,0.06-0.08l-0.03,0.01
			l-0.06,0.01c-0.1,0.02-0.18,0-0.25-0.06c-0.09-0.08-0.12-0.19-0.08-0.34c0.02-0.06,0.05-0.12,0.08-0.16
			c0.05-0.06,0.1-0.09,0.17-0.1c0.13-0.06,0.24-0.04,0.34,0.04c0.09,0.08,0.14,0.19,0.13,0.32c-0.01,0.13-0.06,0.25-0.15,0.36
			c-0.2,0.23-0.46,0.33-0.77,0.29c-0.26-0.04-0.5-0.15-0.72-0.34c-0.28-0.23-0.45-0.58-0.5-1.02l-0.44,0.51l-0.51,0.08l1.17-1.37
			l0.47-0.07C42.6,47.07,42.52,47.29,42.5,47.49"/>
		<path class="st2" d="M43.63,46.96l-0.01-0.09l-0.03-0.35c0-0.23,0.04-0.5,0.12-0.82l0.57-0.25c0.16,0.33,0.31,0.56,0.47,0.7
			c0.17,0.15,0.31,0.25,0.41,0.29c0.03,0.02,0.18,0.09,0.45,0.2l0.09,0.04l-0.28,0.19c-0.43-0.15-0.73-0.28-0.9-0.4
			c-0.13-0.09-0.26-0.19-0.38-0.32c-0.1,0.44-0.03,0.86,0.23,1.26l-0.56,0.15l-1.05-0.69l-0.13,0.19l-0.5,0.15l1.47-2.24l0.5-0.15
			l-1.12,1.7L43.63,46.96"/>
		<path class="st2" d="M45.5,43.81v-0.02c0.04,0.04,0.06,0.11,0.05,0.19c0,0.07-0.01,0.14-0.04,0.21c-0.06,0.14-0.17,0.23-0.33,0.28
			c0.08,0.16,0.09,0.32,0.02,0.47c-0.07,0.16-0.2,0.24-0.39,0.22c-0.04,0-0.07-0.01-0.1-0.02c-0.14-0.07-0.24-0.21-0.28-0.42
			c-0.01-0.04-0.02-0.1-0.03-0.17c-0.04,0.01-0.09,0.02-0.15,0.04c-0.07,0.04-0.13,0.11-0.17,0.2c0.06-0.12,0.03-0.03-0.09,0.26
			l-0.48,0.21l0.28-0.63c0.06-0.12,0.13-0.21,0.24-0.28c0.07-0.03,0.17-0.08,0.31-0.12c-0.1-0.15-0.13-0.34-0.08-0.57
			c0.01-0.07,0.03-0.11,0.03-0.13c0.05-0.12,0.28-0.22,0.68-0.31l0.05-0.01l-0.44-0.15l-0.52-0.19c0.14-0.08,0.25-0.13,0.33-0.17
			c0.06-0.01,0.11-0.01,0.15,0.01c0.03,0.01,0.04,0.02,0.04,0.02c0.03,0,0.08-0.05,0.14-0.15l0.46-0.2l-0.22,0.48l2.16,0.97
			l-0.47,0.23l-1.3-0.6c-0.06-0.02-0.17-0.02-0.33,0.03c-0.16,0.05-0.25,0.1-0.28,0.17c-0.03,0.09-0.03,0.16,0.01,0.22
			c0.15-0.09,0.24-0.14,0.28-0.15c0.11-0.04,0.2-0.04,0.29,0C45.42,43.72,45.47,43.76,45.5,43.81"/>
		<path class="st2" d="M46.81,38.79l0.33,0.61l0.69,0.08l-0.49,0.5l0.14,0.68l-0.63-0.3l-0.6,0.34l0.09-0.69l-0.51-0.47l0.69-0.13
			L46.81,38.79"/>
		<path class="st0" d="M30.22,17.8c-10.54,0-19.11,8.57-19.11,19.11c0,10.54,8.57,19.11,19.11,19.11c10.54,0,19.11-8.57,19.11-19.11
			C49.33,26.37,40.76,17.8,30.22,17.8z M30.22,56.82c-10.98,0-19.91-8.93-19.91-19.91C10.31,25.93,19.24,17,30.22,17
			c10.98,0,19.91,8.93,19.91,19.91C50.13,47.89,41.2,56.82,30.22,56.82"/>
		<path class="st0" d="M23.33,49.61c0,0-12.66-8.07-3.93-20.95c0,0,3.69-5.32,10.77-5.27c0,0,9.32-0.89,13.54,9.53
			c0,0,3.77,11.14-6.13,16.69l-0.16-15.26c0,0,0.23-1.38-1.28-2.21c0,0,0.02-2.99-1.99-3.69c0,0-2.7-1.84-3.91-4.22
			c0,0-1.18,2.4-4.35,4.44c0,0-1.6,0.29-1.36,3.43c0,0-1.3,0.87-1.11,3.33L23.33,49.61"/>
		<path class="st2" d="M15.11,35.45c-0.07,0.62-0.09,0.93-0.1,1.58c0,0.14-0.03,0.26-0.07,0.37c-0.05,0.11-0.1,0.17-0.16,0.17
			c-0.05,0-0.1,0-0.15-0.01c-0.05-0.01-0.09-0.02-0.15-0.05c0-0.03,0-0.05,0-0.09c0.06-0.03,0.1-0.08,0.13-0.15
			c0.02-0.06,0.03-0.14,0.04-0.24c0.01-0.57,0.03-0.85,0.09-1.39c-0.25-0.01-0.47,0.03-0.64,0.15c-0.21,0.14-0.36,0.4-0.45,0.76
			c-0.16-0.02-0.24-0.04-0.4-0.06c0.14-0.44,0.36-0.74,0.64-0.91c0.23-0.13,0.53-0.18,0.87-0.16
			C14.89,35.44,14.97,35.44,15.11,35.45"/>
		<path class="st2" d="M14.53,37.48c0.04,0.01,0.07,0.02,0.1,0.03c0.03,0.01,0.07,0.01,0.11,0.01l0.03,0c0.04,0,0.08-0.05,0.11-0.14
			c0.04-0.11,0.07-0.22,0.07-0.35c0.01-0.62,0.03-0.94,0.1-1.52l-0.3-0.02c-0.34-0.02-0.62,0.03-0.84,0.15
			c-0.26,0.15-0.46,0.42-0.59,0.81c0.09,0.02,0.17,0.03,0.27,0.04c0.09-0.35,0.25-0.6,0.46-0.75c0.18-0.12,0.41-0.17,0.68-0.16
			l0.06,0l-0.01,0.06c-0.05,0.55-0.07,0.83-0.09,1.39c0,0.11-0.02,0.2-0.04,0.26c-0.03,0.07-0.07,0.13-0.13,0.17V37.48z
			 M14.74,37.64c-0.05,0-0.09,0-0.13-0.01c-0.05-0.01-0.11-0.03-0.16-0.06l-0.04-0.02l0-0.16l0.03-0.02
			c0.05-0.02,0.08-0.06,0.1-0.12c0.02-0.05,0.03-0.13,0.03-0.22c0.01-0.55,0.03-0.82,0.08-1.33c-0.22,0-0.4,0.05-0.54,0.14
			c-0.2,0.14-0.34,0.38-0.43,0.73l-0.01,0.05l-0.06-0.01c-0.16-0.02-0.25-0.04-0.4-0.06l-0.07-0.01l0.02-0.07
			c0.14-0.45,0.37-0.77,0.67-0.94c0.24-0.13,0.54-0.19,0.9-0.17l0.42,0.03l-0.01,0.06c-0.07,0.62-0.09,0.93-0.1,1.58
			c0,0.15-0.03,0.28-0.08,0.4c-0.06,0.14-0.13,0.21-0.22,0.21C14.76,37.64,14.75,37.64,14.74,37.64"/>
		<path class="st2" d="M13.38,33.46c0.07,0.13,0.11,0.2,0.2,0.33c-0.11,0.23-0.17,0.34-0.28,0.57c-0.09-0.12-0.13-0.19-0.2-0.31
			C13.22,33.81,13.27,33.7,13.38,33.46z M13.38,34.34c0.09,0.13,0.14,0.19,0.23,0.31c-0.11,0.23-0.16,0.35-0.25,0.59
			c-0.1-0.12-0.15-0.18-0.23-0.3C13.22,34.69,13.27,34.57,13.38,34.34z M15.36,33.78c-0.15,0.74-0.21,1.12-0.28,1.92
			c-0.14-0.01-0.21-0.01-0.36-0.02c0.07-0.7,0.12-1.05,0.25-1.71c-0.16-0.02-0.3-0.01-0.39,0.04c-0.07,0.03-0.18,0.13-0.32,0.29
			c-0.12-0.13-0.18-0.19-0.29-0.32c0.16-0.15,0.28-0.24,0.36-0.27c0.12-0.05,0.31-0.05,0.55,0C15.07,33.73,15.18,33.75,15.36,33.78"
			/>
		<path class="st2" d="M13.18,34.05c0.04,0.07,0.08,0.13,0.12,0.19c0.07-0.16,0.13-0.27,0.22-0.44c-0.05-0.08-0.09-0.14-0.13-0.2
			C13.31,33.76,13.26,33.87,13.18,34.05z M13.19,34.92c0.05,0.07,0.09,0.13,0.15,0.19c0.07-0.17,0.12-0.28,0.2-0.46
			c-0.06-0.08-0.1-0.13-0.15-0.2C13.31,34.63,13.26,34.74,13.19,34.92z M13.37,35.35l-0.06-0.08c-0.1-0.12-0.15-0.19-0.24-0.31
			l-0.02-0.03l0.01-0.03c0.08-0.2,0.13-0.32,0.21-0.49l-0.01-0.02c-0.09-0.13-0.13-0.19-0.2-0.32l-0.02-0.03l0.01-0.03
			c0.1-0.24,0.16-0.35,0.27-0.59l0.05-0.1l0.06,0.1c0.07,0.13,0.11,0.19,0.2,0.32l0.02,0.03l-0.02,0.03
			c-0.1,0.19-0.15,0.3-0.23,0.46l0.01,0.02c0.09,0.12,0.13,0.18,0.23,0.31l0.02,0.03l-0.02,0.03c-0.11,0.23-0.16,0.35-0.25,0.58
			L13.37,35.35z M14.79,35.62l0.24,0.01c0.07-0.73,0.12-1.1,0.27-1.8c-0.15-0.03-0.25-0.04-0.42-0.07c-0.25-0.04-0.42-0.04-0.52,0
			c-0.04,0.02-0.13,0.06-0.3,0.22c0.08,0.09,0.13,0.15,0.2,0.23c0.09-0.1,0.21-0.21,0.3-0.26c0.11-0.06,0.26-0.07,0.43-0.05
			l0.06,0.01l-0.01,0.06C14.9,34.63,14.85,34.96,14.79,35.62z M15.14,35.76l-0.48-0.03l0.01-0.06c0.07-0.68,0.11-1.02,0.24-1.65
			c-0.12-0.01-0.22,0-0.29,0.04c-0.04,0.02-0.13,0.08-0.31,0.28l-0.04,0.05l-0.05-0.05c-0.12-0.13-0.18-0.19-0.29-0.32l-0.04-0.04
			l0.04-0.04c0.16-0.15,0.29-0.25,0.38-0.28c0.13-0.05,0.32-0.05,0.58-0.01c0.2,0.03,0.3,0.05,0.49,0.08l0.06,0.01l-0.01,0.06
			c-0.15,0.75-0.21,1.13-0.28,1.91L15.14,35.76"/>
		<path class="st2" d="M15.59,31.5c-0.08,0-0.17,0.02-0.26,0.05c-0.08,0.03-0.22,0.08-0.26,0.13c-0.04,0.05-0.02,0.2,0,0.28
			c0.01,0.05,0.07,0.2,0.09,0.21c0.02,0,0.15-0.16,0.24-0.28c0.08-0.12,0.15-0.24,0.2-0.36C15.6,31.52,15.59,31.52,15.59,31.5z
			 M16.08,31.29c-0.05,0.12-0.07,0.18-0.11,0.31c-0.05,0.13-0.12,0.28-0.21,0.44c-0.11,0.18-0.33,0.4-0.34,0.48
			c-0.01,0.07,0.09,0.28,0.09,0.42c0,0.14-0.03,0.32-0.08,0.57c-0.04,0.2-0.07,0.3-0.1,0.51c-0.14-0.02-0.21-0.03-0.35-0.05
			c0.04-0.2,0.06-0.31,0.11-0.51c0.04-0.2,0.06-0.38,0.04-0.55c-0.02-0.13-0.06-0.25-0.12-0.37c-0.08-0.16-0.14-0.35-0.16-0.57
			c-0.02-0.2-0.04-0.45,0.02-0.52c0.07-0.1,0.35-0.18,0.49-0.23c0.19-0.06,0.33-0.07,0.41-0.04C15.89,31.22,15.95,31.24,16.08,31.29
			"/>
		<path class="st2" d="M15.52,31.57c-0.06,0.01-0.12,0.02-0.18,0.04c-0.05,0.02-0.2,0.07-0.22,0.11c-0.02,0.02-0.01,0.13,0.01,0.24
			c0.01,0.03,0.03,0.08,0.05,0.13c0.04-0.05,0.11-0.13,0.17-0.22C15.42,31.76,15.48,31.66,15.52,31.57z M15.16,32.24
			c-0.09-0.01-0.15-0.25-0.15-0.25c-0.01-0.04-0.05-0.24,0.01-0.33c0.04-0.07,0.16-0.11,0.28-0.15c0.1-0.04,0.2-0.05,0.29-0.06
			l0.04,0l0.04,0.1l-0.01,0.02c-0.05,0.12-0.12,0.24-0.21,0.37C15.39,32.02,15.23,32.24,15.16,32.24z M15.04,33.9l0.23,0.04
			c0.03-0.17,0.05-0.27,0.09-0.45c0.06-0.26,0.08-0.44,0.08-0.56c0-0.06-0.03-0.15-0.05-0.22c-0.03-0.1-0.05-0.16-0.04-0.21
			c0.01-0.05,0.06-0.12,0.16-0.24c0.07-0.08,0.14-0.18,0.19-0.26c0.09-0.16,0.16-0.3,0.2-0.43c0.04-0.1,0.06-0.16,0.09-0.25
			l-0.26-0.1c-0.08-0.03-0.21-0.01-0.37,0.04l-0.06,0.02c-0.12,0.04-0.35,0.11-0.4,0.18c-0.01,0.01-0.05,0.08-0.01,0.48
			c0.02,0.21,0.07,0.39,0.15,0.55c0.06,0.13,0.1,0.26,0.12,0.39c0.02,0.17,0.01,0.36-0.04,0.57C15.1,33.64,15.07,33.74,15.04,33.9z
			 M15.37,34.08l-0.47-0.07l0.01-0.06c0.04-0.21,0.06-0.31,0.11-0.51c0.04-0.2,0.06-0.37,0.03-0.53c-0.02-0.12-0.05-0.24-0.11-0.35
			c-0.09-0.17-0.14-0.37-0.16-0.59c-0.05-0.46,0.01-0.53,0.03-0.56c0.07-0.1,0.26-0.16,0.46-0.23l0.06-0.02
			c0.2-0.07,0.35-0.08,0.45-0.04l0.38,0.14l-0.02,0.06c-0.05,0.12-0.07,0.18-0.11,0.31c-0.05,0.14-0.12,0.28-0.21,0.45
			c-0.05,0.09-0.13,0.19-0.2,0.28c-0.05,0.07-0.13,0.16-0.13,0.18c0,0.02,0.02,0.1,0.04,0.15c0.02,0.08,0.05,0.18,0.05,0.26
			c0,0.13-0.02,0.32-0.08,0.59c-0.04,0.2-0.06,0.3-0.1,0.5L15.37,34.08"/>
		<path class="st2" d="M17,30.06c0.05,0.13,0.07,0.19,0.11,0.31c-0.13,0.15-0.19,0.22-0.32,0.37c-0.05-0.12-0.08-0.18-0.14-0.31
			C16.79,30.28,16.86,30.2,17,30.06z M16.85,30.74c0.05,0.12,0.07,0.18,0.12,0.3c-0.12,0.16-0.17,0.23-0.29,0.4
			c-0.05-0.11-0.08-0.17-0.14-0.29C16.66,30.97,16.73,30.89,16.85,30.74z M16.68,29.88c-0.3,0.62-0.44,0.94-0.68,1.62
			c-0.13-0.04-0.19-0.07-0.32-0.11c0.22-0.6,0.34-0.89,0.61-1.45c-0.14-0.07-0.26-0.1-0.36-0.08c-0.07,0.01-0.19,0.07-0.35,0.17
			c-0.08-0.15-0.11-0.22-0.18-0.37c0.18-0.09,0.3-0.14,0.38-0.14c0.12-0.01,0.28,0.05,0.49,0.16
			C16.44,29.75,16.52,29.79,16.68,29.88"/>
		<path class="st2" d="M16.73,30.44c0.03,0.07,0.05,0.12,0.08,0.18c0.08-0.1,0.14-0.17,0.23-0.27c-0.02-0.07-0.04-0.12-0.07-0.18
			C16.89,30.27,16.82,30.34,16.73,30.44z M16.61,31.14c0.03,0.06,0.06,0.11,0.08,0.17c0.07-0.1,0.13-0.17,0.21-0.28
			c-0.02-0.06-0.04-0.11-0.07-0.17C16.75,30.95,16.7,31.03,16.61,31.14z M16.67,31.55l-0.04-0.09c-0.05-0.11-0.08-0.17-0.14-0.29
			l-0.02-0.03l0.02-0.03c0.1-0.13,0.16-0.21,0.25-0.32l0-0.01c-0.05-0.12-0.08-0.18-0.13-0.31l-0.02-0.04l0.03-0.03
			c0.14-0.16,0.2-0.23,0.34-0.38l0.07-0.07l0.03,0.09c0.05,0.13,0.07,0.19,0.11,0.31l0.01,0.03l-0.02,0.03
			c-0.1,0.12-0.16,0.19-0.25,0.3l0,0.01c0.05,0.12,0.07,0.18,0.12,0.3l0.01,0.03l-0.02,0.03c-0.11,0.16-0.17,0.23-0.29,0.39
			L16.67,31.55z M15.76,31.34l0.21,0.07c0.22-0.61,0.36-0.93,0.64-1.51l-0.36-0.19c-0.19-0.1-0.34-0.15-0.44-0.15l-0.02,0
			c-0.04,0-0.13,0.02-0.31,0.11c0.05,0.1,0.08,0.17,0.13,0.26c0.14-0.08,0.25-0.13,0.32-0.15c0.11-0.02,0.25,0.01,0.4,0.08
			l0.05,0.03l-0.03,0.05C16.08,30.5,15.96,30.79,15.76,31.34z M16.04,31.57l-0.44-0.15l0.02-0.06c0.21-0.58,0.33-0.87,0.58-1.4
			c-0.1-0.04-0.19-0.06-0.27-0.05c-0.03,0.01-0.12,0.03-0.33,0.16l-0.06,0.04l-0.03-0.06c-0.07-0.15-0.11-0.22-0.18-0.38l-0.02-0.05
			l0.05-0.03c0.18-0.1,0.31-0.15,0.41-0.15c0.13-0.01,0.3,0.05,0.52,0.16l0.47,0.25l-0.03,0.05c-0.31,0.63-0.44,0.94-0.68,1.61
			L16.04,31.57"/>
		<path class="st2" d="M17.29,28.76c-0.3,0.5-0.44,0.76-0.7,1.31c-0.12-0.06-0.18-0.09-0.3-0.15c0.21-0.44,0.33-0.66,0.56-1.08
			c-0.63-0.23-1-0.36-1.56-0.5c-0.05,0.06-0.07,0.08-0.12,0.14c-0.06-0.04-0.12-0.08-0.15-0.14c-0.04-0.05-0.06-0.12-0.08-0.2
			c0.02-0.02,0.02-0.02,0.04-0.04c0.04,0.03,0.12-0.02,0.22-0.14c0.08-0.09,0.2-0.27,0.23-0.28c0.02,0,0.08,0.07,0.13,0.12
			c0.04,0.05,0.07,0.09,0.09,0.13c-0.04,0.05-0.06,0.08-0.11,0.13c0.53,0.14,0.87,0.27,1.45,0.48
			C17.11,28.64,17.17,28.68,17.29,28.76"/>
		<path class="st2" d="M16.38,29.89l0.19,0.09c0.23-0.49,0.37-0.74,0.64-1.21l-0.26-0.17c-0.56-0.21-0.9-0.34-1.43-0.48l-0.09-0.02
			l0.06-0.07c0.03-0.04,0.05-0.07,0.08-0.1c-0.01-0.02-0.03-0.05-0.06-0.08c-0.03-0.03-0.06-0.06-0.08-0.08
			c-0.03,0.03-0.07,0.09-0.1,0.13c-0.03,0.04-0.06,0.08-0.09,0.11c-0.09,0.11-0.17,0.17-0.24,0.17c0.01,0.05,0.03,0.09,0.06,0.13
			c0.02,0.04,0.05,0.07,0.09,0.09c0.03-0.03,0.05-0.06,0.09-0.1l0.02-0.03l0.04,0.01c0.57,0.14,0.95,0.28,1.57,0.5l0.07,0.02
			l-0.04,0.06C16.68,29.28,16.57,29.49,16.38,29.89z M16.62,30.15l-0.41-0.2l0.03-0.05c0.2-0.42,0.31-0.63,0.53-1.02
			c-0.57-0.2-0.93-0.33-1.45-0.47c-0.03,0.04-0.06,0.07-0.1,0.11l-0.03,0.04l-0.04-0.03c-0.07-0.04-0.13-0.09-0.17-0.16
			c-0.04-0.06-0.07-0.14-0.09-0.22l-0.01-0.03l0.09-0.1l0.04,0.02c0,0,0.04-0.01,0.14-0.13c0.02-0.03,0.05-0.07,0.08-0.11
			c0.1-0.14,0.14-0.18,0.19-0.19c0.03,0,0.06,0,0.18,0.14c0.05,0.06,0.08,0.11,0.1,0.15l0.01,0.03l-0.02,0.03
			c-0.02,0.02-0.03,0.04-0.05,0.05c0.49,0.13,0.83,0.26,1.36,0.46l0.01,0.01l0.36,0.24l-0.03,0.05c-0.3,0.51-0.44,0.76-0.69,1.3
			L16.62,30.15"/>
		<path class="st2" d="M20.43,22.74c-0.03,0.15-0.04,0.23-0.06,0.38c-0.19,0.06-0.28,0.09-0.47,0.16c0.02-0.15,0.03-0.23,0.05-0.37
			C20.14,22.84,20.23,22.81,20.43,22.74z M19.79,22.85c-0.03,0.14-0.04,0.22-0.06,0.37c-0.19,0.07-0.28,0.11-0.46,0.2
			c0.02-0.14,0.03-0.22,0.05-0.35C19.5,22.97,19.6,22.93,19.79,22.85z M19.95,23.32c-0.02,0.15-0.02,0.23-0.03,0.39
			c-0.19,0.07-0.28,0.1-0.46,0.18c0.01-0.15,0.01-0.23,0.03-0.38C19.67,23.43,19.76,23.39,19.95,23.32z M21.45,24.26
			c-0.07,0.05-0.1,0.07-0.17,0.12c-0.09,0.06-0.17,0.11-0.25,0.14c-0.08,0.03-0.22,0.04-0.25,0.06c-0.04,0.03-0.07,0.16-0.11,0.21
			c-0.05,0.07-0.15,0.16-0.27,0.27c-0.1,0.09-0.15,0.13-0.26,0.22c0.07,0.1,0.1,0.22,0.1,0.35c0,0.18-0.06,0.36-0.16,0.56
			c-0.13,0.25-0.33,0.51-0.59,0.8c-0.24,0.26-0.43,0.45-0.6,0.55c-0.19,0.11-0.34,0.11-0.48-0.01c-0.07-0.07-0.14-0.16-0.2-0.26
			c-0.06-0.11-0.11-0.23-0.15-0.37c-0.02-0.08-0.06-0.22-0.09-0.41c0.04-0.03,0.06-0.04,0.1-0.07c0.04,0.25,0.09,0.42,0.14,0.53
			c0.05,0.11,0.11,0.19,0.17,0.25c0.11,0.11,0.24,0.11,0.4,0.04c0.16-0.08,0.33-0.23,0.52-0.45c0.23-0.26,0.42-0.51,0.57-0.76
			c0.18-0.31,0.23-0.54,0.12-0.7c-0.07-0.11-0.17-0.19-0.29-0.24c-0.09-0.04-0.21-0.06-0.33-0.06c-0.03-0.2-0.04-0.31-0.06-0.51
			c0.14,0.02,0.24,0.06,0.31,0.11c0.1,0.07,0.21,0.19,0.33,0.36c0.1-0.09,0.16-0.14,0.26-0.23c0.14-0.12,0.22-0.21,0.26-0.29
			c0.03-0.07,0.03-0.14,0-0.2c-0.02-0.03-0.04-0.07-0.07-0.1c-0.03-0.03-0.06-0.06-0.09-0.1c0.01-0.07,0.02-0.11,0.03-0.18
			c0.05,0.06,0.08,0.09,0.14,0.15c0.1,0.09,0.19,0.14,0.27,0.15c0.09,0.01,0.19-0.03,0.31-0.11c0.03-0.03,0.06-0.05,0.07-0.08
			c0.01-0.03,0.01-0.06-0.01-0.09c-0.03-0.06-0.09-0.11-0.17-0.15c-0.06-0.03-0.14-0.04-0.22-0.05c0.02-0.13,0.03-0.19,0.05-0.32
			c0.12,0.04,0.2,0.08,0.23,0.1c0.07,0.05,0.15,0.16,0.22,0.31C21.32,24,21.37,24.09,21.45,24.26"/>
		<path class="st2" d="M19.37,23.1c-0.01,0.08-0.02,0.14-0.03,0.21c0.12-0.05,0.2-0.09,0.34-0.14c0.01-0.09,0.02-0.15,0.03-0.22
			C19.59,23,19.5,23.04,19.37,23.1z M19.19,23.51l0.01-0.11c0.02-0.15,0.03-0.22,0.05-0.35l0.01-0.03L19.29,23
			c0.19-0.09,0.28-0.14,0.48-0.22l0.1-0.04l-0.02,0.11c-0.03,0.14-0.04,0.21-0.06,0.36l0,0.04l-0.03,0.01
			c-0.19,0.07-0.28,0.11-0.46,0.2L19.19,23.51z M20,22.96c-0.01,0.09-0.02,0.15-0.03,0.23c0.12-0.04,0.21-0.07,0.34-0.12
			c0.01-0.1,0.02-0.16,0.04-0.25C20.22,22.88,20.14,22.91,20,22.96z M19.54,23.55c-0.01,0.09-0.01,0.16-0.02,0.25
			c0.12-0.05,0.21-0.08,0.34-0.13c0.01-0.1,0.01-0.17,0.02-0.25C19.76,23.46,19.67,23.5,19.54,23.55z M19.39,23.99l0-0.1
			c0.01-0.16,0.01-0.23,0.03-0.38l0-0.04l0.03-0.01c0.15-0.07,0.25-0.1,0.38-0.16l0-0.02c0.02-0.15,0.03-0.23,0.05-0.37l0.01-0.03
			l0.03-0.01c0.19-0.08,0.29-0.11,0.48-0.18l0.1-0.03l-0.02,0.1c-0.03,0.15-0.04,0.23-0.06,0.38l0,0.04l-0.04,0.01
			c-0.15,0.05-0.24,0.08-0.37,0.12l0,0.02c-0.02,0.15-0.02,0.23-0.03,0.39l0,0.04l-0.04,0.01c-0.19,0.07-0.28,0.1-0.46,0.18
			L19.39,23.99z M18.11,26.87c0,0.01,0,0.02,0.01,0.02c0.04,0.13,0.08,0.25,0.14,0.36c0.05,0.1,0.11,0.18,0.18,0.25
			c0.12,0.11,0.24,0.1,0.41,0c0.15-0.09,0.33-0.26,0.59-0.54c0.28-0.32,0.47-0.56,0.59-0.78c0.1-0.19,0.16-0.37,0.16-0.53
			c0-0.13-0.03-0.23-0.09-0.32l-0.03-0.04l0.04-0.04c0.1-0.09,0.15-0.14,0.26-0.22c0.13-0.11,0.21-0.19,0.26-0.26
			c0.01-0.02,0.03-0.06,0.04-0.09c0.02-0.06,0.05-0.11,0.08-0.14c0.03-0.02,0.07-0.03,0.14-0.04c0.04-0.01,0.09-0.02,0.12-0.03
			c0.07-0.03,0.15-0.07,0.23-0.13c0.05-0.04,0.09-0.06,0.13-0.09c-0.07-0.14-0.12-0.23-0.2-0.39c-0.07-0.14-0.14-0.24-0.2-0.29
			c-0.01-0.01-0.04-0.03-0.15-0.07c-0.01,0.06-0.02,0.12-0.03,0.18c0.07,0.01,0.12,0.03,0.18,0.05c0.1,0.04,0.16,0.1,0.2,0.18
			c0.02,0.04,0.02,0.09,0.01,0.13c-0.01,0.04-0.04,0.08-0.09,0.12c-0.13,0.09-0.24,0.13-0.35,0.12c-0.1-0.01-0.2-0.07-0.31-0.17
			c-0.02-0.02-0.04-0.04-0.05-0.06c0,0.01,0,0.02,0,0.03c0.03,0.03,0.05,0.05,0.07,0.08c0.03,0.03,0.05,0.07,0.07,0.11
			c0.05,0.08,0.05,0.17,0,0.26c-0.04,0.09-0.13,0.19-0.28,0.31c-0.1,0.09-0.16,0.14-0.26,0.23l-0.05,0.05l-0.04-0.06
			c-0.11-0.17-0.22-0.29-0.31-0.35c-0.05-0.03-0.12-0.06-0.21-0.08c0.01,0.14,0.03,0.23,0.04,0.37c0.11,0.01,0.21,0.03,0.3,0.07
			c0.13,0.06,0.24,0.14,0.32,0.26c0.12,0.18,0.08,0.42-0.12,0.77c-0.14,0.24-0.33,0.49-0.58,0.77c-0.21,0.24-0.39,0.39-0.54,0.46
			c-0.18,0.09-0.34,0.07-0.46-0.05c-0.07-0.07-0.13-0.16-0.18-0.27C18.14,26.95,18.13,26.91,18.11,26.87z M18.63,27.7
			c-0.1,0-0.19-0.04-0.27-0.11s-0.15-0.17-0.21-0.28c-0.06-0.11-0.11-0.24-0.15-0.38c-0.02-0.07-0.05-0.19-0.09-0.41l-0.01-0.04
			l0.21-0.14l0.02,0.09c0.05,0.28,0.1,0.44,0.14,0.52c0.05,0.1,0.1,0.18,0.15,0.23c0.09,0.09,0.19,0.09,0.33,0.03
			c0.14-0.07,0.3-0.21,0.5-0.43c0.24-0.27,0.42-0.51,0.56-0.75c0.18-0.3,0.22-0.5,0.13-0.63c-0.07-0.1-0.16-0.17-0.26-0.22
			c-0.09-0.04-0.19-0.06-0.31-0.06h-0.05l-0.01-0.05c-0.03-0.2-0.04-0.31-0.06-0.51l-0.01-0.08l0.08,0.01
			c0.14,0.02,0.26,0.06,0.34,0.12c0.1,0.06,0.2,0.17,0.3,0.32c0.07-0.06,0.12-0.11,0.21-0.18c0.13-0.11,0.21-0.2,0.25-0.27
			c0.03-0.05,0.03-0.1,0-0.14c-0.02-0.03-0.04-0.06-0.06-0.09c-0.02-0.03-0.05-0.06-0.09-0.09l-0.02-0.02l0-0.03
			c0.01-0.07,0.02-0.11,0.03-0.18l0.02-0.12l0.08,0.09c0.05,0.06,0.08,0.09,0.14,0.15c0.09,0.08,0.17,0.12,0.24,0.13
			c0.08,0.01,0.16-0.02,0.26-0.1c0.02-0.02,0.04-0.03,0.04-0.05c0-0.02,0-0.03,0-0.04c-0.03-0.05-0.07-0.09-0.14-0.12
			c-0.06-0.02-0.12-0.04-0.2-0.05l-0.06-0.01l0.01-0.06c0.02-0.13,0.03-0.19,0.05-0.32l0.01-0.07l0.07,0.02
			c0.12,0.04,0.21,0.08,0.25,0.11c0.08,0.06,0.16,0.17,0.24,0.33c0.09,0.18,0.13,0.27,0.22,0.44l0.02,0.05l-0.04,0.03
			c-0.07,0.05-0.1,0.07-0.17,0.12c-0.09,0.07-0.18,0.12-0.26,0.15c-0.04,0.02-0.1,0.03-0.15,0.04c-0.03,0.01-0.08,0.01-0.09,0.02
			c-0.01,0.01-0.03,0.06-0.04,0.09c-0.02,0.04-0.04,0.09-0.06,0.11c-0.06,0.08-0.14,0.16-0.28,0.28c-0.09,0.08-0.14,0.12-0.22,0.19
			c0.05,0.1,0.08,0.21,0.08,0.34c0,0.18-0.06,0.37-0.17,0.59c-0.13,0.23-0.31,0.48-0.6,0.81c-0.26,0.29-0.45,0.47-0.61,0.56
			C18.81,27.67,18.72,27.7,18.63,27.7"/>
		<path class="st2" d="M22.72,23.9c-0.03,0.14-0.04,0.2-0.07,0.33c-0.17,0.03-0.25,0.05-0.42,0.09c0.02-0.13,0.03-0.2,0.06-0.34
			C22.46,23.94,22.55,23.93,22.72,23.9z M22.27,24.35c-0.02,0.13-0.03,0.19-0.06,0.31c-0.16,0.05-0.25,0.07-0.41,0.12
			c0.02-0.12,0.03-0.19,0.04-0.33C22.02,24.41,22.1,24.39,22.27,24.35z M22.58,23.54c-0.53,0.3-0.78,0.46-1.28,0.82
			c-0.06-0.12-0.1-0.18-0.16-0.31c0.45-0.32,0.67-0.47,1.14-0.75c-0.06-0.15-0.14-0.26-0.21-0.31c-0.05-0.04-0.16-0.08-0.33-0.11
			c0.02-0.17,0.03-0.26,0.05-0.43c0.17,0.04,0.28,0.1,0.33,0.15c0.08,0.08,0.17,0.24,0.27,0.47C22.47,23.27,22.51,23.36,22.58,23.54
			"/>
		<path class="st2" d="M21.21,24.07c0.04,0.08,0.07,0.13,0.1,0.2c0.45-0.32,0.71-0.49,1.18-0.76c-0.06-0.15-0.1-0.25-0.17-0.42
			c-0.09-0.23-0.18-0.38-0.25-0.45c-0.03-0.02-0.09-0.07-0.24-0.11c-0.02,0.11-0.02,0.19-0.04,0.31c0.14,0.03,0.24,0.06,0.3,0.11
			c0.09,0.06,0.17,0.18,0.23,0.34l0.02,0.05l-0.05,0.03C21.85,23.63,21.63,23.77,21.21,24.07z M21.28,24.46l-0.03-0.06
			c-0.06-0.12-0.1-0.18-0.16-0.31l-0.02-0.05l0.04-0.03c0.43-0.31,0.66-0.46,1.1-0.72c-0.05-0.12-0.11-0.2-0.17-0.24
			c-0.02-0.02-0.1-0.06-0.3-0.1l-0.06-0.01l0.01-0.06c0.02-0.17,0.03-0.26,0.05-0.43l0.01-0.07l0.07,0.02
			c0.17,0.05,0.29,0.1,0.36,0.16c0.09,0.08,0.18,0.24,0.28,0.49c0.08,0.19,0.12,0.29,0.19,0.47l0.02,0.05l-0.05,0.03
			c-0.53,0.3-0.78,0.46-1.28,0.82L21.28,24.46z M22.34,24.03c-0.01,0.08-0.02,0.14-0.03,0.21c0.1-0.02,0.18-0.04,0.3-0.06
			c0.02-0.07,0.03-0.13,0.04-0.2C22.53,23.99,22.45,24.01,22.34,24.03z M21.9,24.5c-0.01,0.08-0.02,0.13-0.03,0.19
			c0.1-0.03,0.17-0.05,0.28-0.08c0.01-0.07,0.02-0.12,0.03-0.18C22.09,24.45,22.02,24.47,21.9,24.5z M21.73,24.86l0.01-0.09
			c0.02-0.12,0.03-0.19,0.04-0.32l0.01-0.04l0.04-0.01c0.14-0.03,0.22-0.05,0.33-0.08l0-0.01c0.02-0.13,0.03-0.2,0.06-0.34
			l0.01-0.04l0.04-0.01c0.18-0.03,0.26-0.05,0.44-0.08l0.09-0.01l-0.02,0.09c-0.03,0.14-0.04,0.2-0.07,0.33l-0.01,0.04l-0.04,0.01
			c-0.13,0.03-0.21,0.04-0.33,0.07l0,0.01c-0.02,0.13-0.03,0.19-0.06,0.31l-0.01,0.04l-0.04,0.01c-0.16,0.05-0.25,0.07-0.41,0.12
			L21.73,24.86"/>
		<path class="st2" d="M24.22,22.74c-0.44,0.18-0.65,0.28-1.08,0.5c-0.09,0.05-0.18,0.07-0.26,0.06c-0.09,0-0.14-0.03-0.17-0.09
			c-0.02-0.05-0.03-0.1-0.04-0.14c-0.01-0.04-0.02-0.1-0.02-0.15c0.02-0.01,0.03-0.02,0.05-0.03c0.04,0.05,0.09,0.07,0.14,0.07
			c0.05,0,0.1-0.02,0.17-0.05c0.37-0.19,0.56-0.28,0.94-0.44c-0.08-0.24-0.18-0.42-0.31-0.54c-0.16-0.14-0.38-0.19-0.65-0.13
			c-0.04-0.16-0.06-0.24-0.09-0.39c0.34-0.04,0.61,0.05,0.81,0.25c0.16,0.16,0.29,0.42,0.39,0.74
			C24.16,22.53,24.18,22.6,24.22,22.74"/>
		<path class="st2" d="M22.72,22.98c0,0.03,0.01,0.06,0.01,0.08c0.01,0.04,0.02,0.08,0.04,0.13c0.01,0.01,0.02,0.05,0.11,0.05
			l0.02,0c0.07,0,0.14-0.02,0.22-0.06c0.41-0.21,0.62-0.31,1.03-0.48c-0.03-0.1-0.05-0.17-0.09-0.29c-0.1-0.33-0.23-0.57-0.38-0.72
			c-0.17-0.17-0.41-0.25-0.69-0.24c0.02,0.09,0.04,0.16,0.06,0.26c0.26-0.04,0.48,0.01,0.64,0.15c0.14,0.12,0.25,0.31,0.33,0.57
			l0.02,0.05l-0.05,0.02c-0.39,0.16-0.57,0.25-0.94,0.44c-0.08,0.04-0.14,0.06-0.2,0.06C22.8,23.01,22.76,23,22.72,22.98z
			 M22.9,23.36l-0.02,0c-0.14-0.01-0.2-0.07-0.22-0.13c-0.02-0.05-0.04-0.1-0.05-0.15c-0.01-0.05-0.02-0.1-0.02-0.17l0-0.04
			l0.13-0.07l0.03,0.04c0.05,0.06,0.12,0.06,0.23,0c0.35-0.18,0.54-0.27,0.9-0.42c-0.07-0.21-0.16-0.36-0.28-0.46
			c-0.15-0.13-0.35-0.17-0.6-0.11l-0.06,0.01l-0.01-0.06c-0.04-0.16-0.06-0.24-0.09-0.39l-0.02-0.07l0.07-0.01
			c0.35-0.04,0.65,0.05,0.86,0.27c0.17,0.16,0.3,0.42,0.41,0.77c0.04,0.14,0.06,0.21,0.11,0.34l0.02,0.05l-0.05,0.02
			c-0.44,0.18-0.65,0.28-1.07,0.5C23.08,23.34,22.99,23.36,22.9,23.36"/>
		<path class="st2" d="M26.05,20.98c0.01,0.03,0.01,0.05,0.01,0.07c0,0.02-0.01,0.08-0.01,0.08c-0.02,0.01-0.32-0.29-0.56-0.41
			c-0.27-0.13-0.47-0.17-0.6-0.13c-0.03,0.01-0.05,0.03-0.07,0.07c-0.02,0.04-0.05,0.07-0.08,0.08c-0.05,0.02-0.13,0.02-0.25,0.01
			c-0.15-0.01-0.27-0.03-0.38-0.07c-0.14-0.05-0.22-0.13-0.25-0.22c-0.02-0.06,0-0.11,0.08-0.14c0.13-0.05,0.36-0.08,0.68-0.08
			c0.35,0.01,0.66,0.07,0.92,0.18C25.84,20.57,26.01,20.76,26.05,20.98z M27.36,21.82c-0.07,0.01-0.11,0.02-0.19,0.04
			c-0.15,0.03-0.27-0.01-0.38-0.11c-0.13-0.12-0.22-0.34-0.27-0.66c0-0.02-0.01-0.05-0.02-0.09c-0.01-0.04-0.02-0.07-0.02-0.07
			c-0.01,0-0.22,0.7-0.32,0.87c-0.12,0.2-0.32,0.36-0.58,0.49c-0.22,0.11-0.61,0.26-1.16,0.48c-0.01-0.02-0.01-0.03-0.02-0.05
			c0.41-0.28,0.72-0.49,0.93-0.64c0.33-0.24,0.59-0.47,0.75-0.69c0.2-0.27,0.28-0.54,0.23-0.81c-0.02-0.13-0.06-0.25-0.1-0.35
			c-0.04-0.1-0.1-0.2-0.16-0.29c0.03-0.07,0.04-0.1,0.07-0.16c0.03-0.06,0.08-0.15,0.08-0.15c0.02,0,0.17,0.29,0.25,0.49
			c0.06,0.14,0.11,0.29,0.17,0.46c0.07,0.21,0.13,0.39,0.17,0.52c0.06,0.17,0.13,0.29,0.2,0.35c0.05,0.04,0.1,0.06,0.14,0.05
			c0.08-0.01,0.11-0.02,0.19-0.04C27.33,21.61,27.34,21.68,27.36,21.82"/>
		<path class="st2" d="M24.99,20.52c0.14,0,0.31,0.05,0.52,0.15c0.16,0.08,0.34,0.23,0.46,0.33c0.01,0.01,0.02,0.02,0.03,0.02
			c0-0.01,0-0.02,0-0.03c-0.04-0.2-0.21-0.38-0.49-0.5c-0.25-0.11-0.55-0.17-0.89-0.17c-0.28-0.01-0.51,0.02-0.65,0.07
			c-0.06,0.02-0.05,0.04-0.04,0.06c0.03,0.07,0.1,0.13,0.22,0.18c0.1,0.04,0.22,0.06,0.36,0.07c0.11,0.01,0.19,0,0.23-0.01
			c0.01,0,0.03-0.01,0.05-0.05c0.03-0.06,0.06-0.09,0.11-0.11C24.9,20.52,24.95,20.52,24.99,20.52z M26.04,21.2
			c-0.03,0-0.05-0.02-0.15-0.1c-0.11-0.1-0.29-0.24-0.44-0.32c-0.24-0.12-0.44-0.16-0.56-0.13c-0.01,0-0.02,0.02-0.03,0.04
			c-0.03,0.06-0.07,0.1-0.12,0.11c-0.06,0.02-0.14,0.02-0.27,0.01c-0.15-0.01-0.29-0.04-0.39-0.08c-0.15-0.06-0.25-0.14-0.29-0.25
			c-0.02-0.05-0.04-0.16,0.12-0.21c0.16-0.06,0.4-0.08,0.7-0.08c0.36,0.01,0.67,0.07,0.94,0.18c0.32,0.14,0.52,0.35,0.57,0.59
			c0.01,0.03,0.01,0.06,0.01,0.08c0,0.02-0.01,0.07-0.02,0.09l-0.01,0.04L26.04,21.2z M26.12,19.93c0.06,0.08,0.11,0.18,0.15,0.27
			c0.05,0.1,0.08,0.23,0.1,0.36c0.05,0.29-0.03,0.58-0.24,0.86c-0.16,0.21-0.41,0.44-0.76,0.7c-0.13,0.09-0.3,0.21-0.51,0.35
			c-0.05,0.04-0.11,0.07-0.17,0.11c0.04-0.02,0.08-0.03,0.12-0.05c0.32-0.13,0.58-0.23,0.74-0.31c0.26-0.13,0.44-0.28,0.56-0.47
			c0.07-0.11,0.19-0.49,0.26-0.69c0.07-0.21,0.07-0.21,0.12-0.21h0.05l0.01,0.05c0,0,0.01,0.03,0.02,0.06
			c0.01,0.04,0.02,0.07,0.03,0.1c0.05,0.3,0.13,0.51,0.26,0.62c0.09,0.09,0.2,0.12,0.33,0.09c0.05-0.01,0.09-0.02,0.13-0.02
			c-0.01-0.08-0.02-0.14-0.03-0.23c-0.04,0.01-0.07,0.01-0.13,0.02c-0.06,0.01-0.13-0.01-0.19-0.06c-0.08-0.07-0.16-0.19-0.22-0.37
			c-0.04-0.12-0.09-0.28-0.15-0.46l-0.02-0.06c-0.06-0.18-0.11-0.33-0.17-0.46c-0.06-0.14-0.14-0.31-0.19-0.4
			c-0.01,0.02-0.02,0.04-0.03,0.06C26.15,19.85,26.13,19.88,26.12,19.93z M24.37,22.85l-0.05-0.15l0.04-0.03
			c0.15-0.1,0.29-0.2,0.42-0.28c0.21-0.14,0.38-0.26,0.51-0.35c0.35-0.25,0.59-0.47,0.74-0.68c0.19-0.26,0.27-0.52,0.22-0.77
			c-0.02-0.13-0.05-0.24-0.1-0.34c-0.04-0.1-0.1-0.19-0.16-0.28l-0.02-0.03l0.01-0.03c0.03-0.07,0.04-0.1,0.07-0.16
			c0.09-0.19,0.1-0.19,0.14-0.19c0.02,0,0.09,0,0.31,0.53c0.05,0.13,0.11,0.29,0.17,0.47l0.02,0.06c0.06,0.18,0.11,0.34,0.15,0.46
			c0.05,0.16,0.12,0.27,0.18,0.32c0.03,0.02,0.06,0.04,0.08,0.04c0.09-0.02,0.13-0.02,0.2-0.04l0.06-0.01l0.01,0.06
			c0.02,0.14,0.03,0.21,0.04,0.35l0.01,0.06l-0.06,0.01c-0.07,0.01-0.11,0.02-0.19,0.03c-0.17,0.03-0.32-0.01-0.44-0.12
			c-0.14-0.13-0.23-0.35-0.29-0.65c-0.1,0.29-0.2,0.59-0.27,0.7c-0.13,0.2-0.32,0.37-0.61,0.51c-0.16,0.08-0.41,0.18-0.75,0.31
			c-0.13,0.05-0.26,0.1-0.41,0.16L24.37,22.85"/>
		<path class="st2" d="M28.49,19.76c-0.08,0.11-0.12,0.17-0.2,0.29c-0.19-0.05-0.29-0.07-0.49-0.11c0.08-0.12,0.12-0.18,0.19-0.29
			C28.2,19.7,28.3,19.72,28.49,19.76z M29.51,21.58c-0.16,0.01-0.24,0.01-0.39,0.02c-0.12,0.01-0.23,0-0.36-0.03
			c-0.15-0.04-0.3-0.17-0.32-0.18c-0.04,0-0.25,0.17-0.4,0.24c-0.18,0.08-0.39,0.14-0.62,0.18c-0.09,0.02-0.14,0.03-0.24,0.04
			c-0.02-0.14-0.03-0.21-0.05-0.35c0.1-0.02,0.14-0.03,0.24-0.04c0.15-0.03,0.29-0.06,0.42-0.1c0.14-0.05,0.29-0.12,0.43-0.2
			c-0.05-0.04-0.07-0.06-0.12-0.1c-0.06-0.05-0.13-0.06-0.21-0.05c-0.03,0-0.06,0.01-0.09,0.03c-0.03,0.01-0.05,0.04-0.08,0.07
			c-0.02,0-0.03,0.01-0.06,0.01c0-0.05-0.01-0.07-0.01-0.12c-0.02-0.15,0.03-0.27,0.13-0.34c0.09-0.07,0.27-0.11,0.52-0.14
			c0.21-0.02,0.39-0.02,0.53,0.01c0.18,0.04,0.27,0.12,0.27,0.23c0,0.06-0.03,0.12-0.1,0.19c-0.05,0.05-0.27,0.19-0.27,0.22
			c0,0.01,0.09,0.05,0.17,0.07c0.08,0.02,0.15,0.02,0.21,0.02c0.16-0.01,0.24-0.02,0.4-0.02C29.51,21.37,29.51,21.44,29.51,21.58"/>
		<path class="st2" d="M27.9,19.91c0.13,0.03,0.22,0.05,0.36,0.08c0.05-0.07,0.08-0.13,0.13-0.19c-0.13-0.03-0.22-0.05-0.37-0.08
			C27.98,19.79,27.94,19.84,27.9,19.91z M28.32,20.13l-0.04-0.01c-0.2-0.05-0.29-0.07-0.49-0.11l-0.09-0.02l0.05-0.08
			c0.08-0.12,0.12-0.18,0.2-0.29l0.02-0.03l0.04,0.01c0.2,0.04,0.3,0.06,0.5,0.1l0.09,0.02l-0.06,0.07
			c-0.08,0.11-0.12,0.17-0.2,0.29L28.32,20.13z M27.19,21.55c0.01,0.09,0.02,0.15,0.03,0.23c0.06-0.01,0.1-0.02,0.17-0.03
			c0.23-0.04,0.44-0.1,0.61-0.18c0.07-0.03,0.16-0.09,0.23-0.14c0.1-0.07,0.15-0.1,0.19-0.1c0.03,0,0.05,0.02,0.1,0.05
			c0.06,0.04,0.15,0.11,0.24,0.13c0.11,0.03,0.23,0.04,0.34,0.03c0.14-0.01,0.21-0.02,0.34-0.02c0-0.08,0-0.14,0-0.23
			c-0.12,0.01-0.2,0.01-0.34,0.02c-0.06,0-0.13,0-0.23-0.02c-0.02,0-0.23-0.04-0.22-0.13c0-0.04,0.03-0.06,0.17-0.16
			c0.05-0.03,0.1-0.07,0.12-0.09c0.06-0.06,0.08-0.11,0.08-0.15c0-0.03,0-0.12-0.22-0.17c-0.13-0.03-0.31-0.03-0.51-0.01
			c-0.29,0.03-0.43,0.09-0.49,0.13c-0.08,0.06-0.12,0.15-0.11,0.28l0,0.04c0.02-0.02,0.04-0.03,0.06-0.04
			c0.03-0.02,0.07-0.03,0.11-0.03c0.09-0.01,0.17,0.01,0.25,0.06l0.2,0.16l-0.08,0.04c-0.14,0.08-0.29,0.15-0.44,0.2
			c-0.13,0.04-0.27,0.08-0.43,0.11C27.3,21.53,27.26,21.54,27.19,21.55z M27.12,21.93l-0.01-0.06c-0.02-0.14-0.03-0.21-0.05-0.35
			l-0.01-0.06l0.06-0.01c0.1-0.02,0.15-0.03,0.24-0.04c0.15-0.03,0.29-0.06,0.41-0.1c0.11-0.04,0.23-0.09,0.34-0.15l-0.05-0.04
			c-0.05-0.03-0.1-0.05-0.16-0.04c-0.03,0-0.05,0.01-0.07,0.02c-0.01,0.01-0.03,0.02-0.06,0.06l-0.02,0.02l-0.14,0.02l-0.02-0.19
			c-0.02-0.18,0.04-0.31,0.16-0.4c0.11-0.07,0.29-0.12,0.54-0.15c0.22-0.02,0.4-0.02,0.55,0.02c0.26,0.06,0.32,0.19,0.32,0.29
			c0,0.08-0.04,0.15-0.12,0.24c-0.02,0.03-0.08,0.06-0.13,0.11c-0.02,0.02-0.05,0.04-0.07,0.05c0.02,0.01,0.05,0.02,0.08,0.02
			c0.08,0.01,0.14,0.02,0.19,0.02c0.16-0.01,0.24-0.02,0.4-0.02l0.06,0l0,0.06c0,0.14,0,0.21,0,0.35v0.06l-0.06,0
			c-0.16,0.01-0.24,0.01-0.39,0.02c-0.12,0.01-0.25,0-0.37-0.03c-0.11-0.03-0.21-0.1-0.28-0.15c-0.02-0.01-0.03-0.02-0.04-0.03
			c-0.02,0.01-0.07,0.05-0.11,0.08c-0.08,0.06-0.17,0.12-0.25,0.15c-0.18,0.08-0.39,0.14-0.64,0.18c-0.09,0.02-0.14,0.03-0.24,0.04
			L27.12,21.93"/>
		<path class="st2" d="M30.77,19.71c-0.1,0.1-0.15,0.16-0.24,0.27c-0.19-0.07-0.28-0.1-0.47-0.16c0.09-0.11,0.14-0.16,0.23-0.26
			C30.48,19.62,30.58,19.65,30.77,19.71z M30.85,21.57c-0.61-0.02-0.92-0.02-1.53,0.02c0-0.14,0-0.21,0-0.35
			c0.54-0.03,0.82-0.03,1.36-0.02c0.01-0.16,0-0.28-0.05-0.37c-0.03-0.06-0.11-0.15-0.25-0.26c0.1-0.13,0.15-0.2,0.25-0.33
			c0.13,0.13,0.21,0.23,0.24,0.3c0.04,0.11,0.05,0.28,0.03,0.53C30.87,21.28,30.86,21.38,30.85,21.57"/>
		<path class="st2" d="M30.16,19.79c0.13,0.04,0.21,0.07,0.35,0.12c0.06-0.07,0.1-0.11,0.15-0.17c-0.13-0.04-0.22-0.07-0.36-0.12
			C30.25,19.68,30.21,19.73,30.16,19.79z M30.55,20.05l-0.04-0.01c-0.19-0.07-0.28-0.1-0.47-0.16l-0.09-0.03l0.06-0.07
			c0.09-0.11,0.14-0.16,0.23-0.26l0.03-0.03l0.04,0.01c0.2,0.06,0.29,0.09,0.49,0.16l0.09,0.03l-0.07,0.07
			c-0.1,0.1-0.14,0.15-0.24,0.26L30.55,20.05z M29.38,21.3c0,0.08,0,0.15,0,0.23c0.36-0.02,0.6-0.03,0.86-0.03
			c0.16,0,0.33,0,0.56,0.01c0.01-0.15,0.02-0.25,0.04-0.43c0.02-0.23,0.01-0.4-0.02-0.5c-0.01-0.03-0.05-0.1-0.17-0.23
			c-0.06,0.08-0.11,0.14-0.17,0.23c0.11,0.1,0.19,0.18,0.22,0.24c0.05,0.1,0.07,0.23,0.06,0.4l0,0.06l-0.06,0
			C30.17,21.26,29.91,21.27,29.38,21.3z M29.26,21.65l0-0.06c0-0.14,0-0.21,0-0.35v-0.06l0.06,0c0.56-0.03,0.82-0.03,1.31-0.02
			c0-0.12-0.01-0.21-0.05-0.28c-0.02-0.03-0.07-0.11-0.23-0.24L30.3,20.6l0.03-0.05c0.1-0.13,0.15-0.2,0.25-0.33l0.04-0.05
			l0.05,0.05c0.13,0.13,0.22,0.23,0.25,0.32c0.05,0.12,0.06,0.3,0.03,0.55c-0.02,0.2-0.03,0.3-0.04,0.49l0,0.06l-0.06,0
			c-0.25-0.01-0.44-0.01-0.61-0.01c-0.27,0-0.52,0.01-0.91,0.03L29.26,21.65"/>
		<path class="st2" d="M31.85,22.07c-0.09,0.09-0.14,0.13-0.23,0.21c-0.16-0.06-0.24-0.1-0.4-0.16c0.09-0.09,0.13-0.14,0.22-0.24
			C31.6,21.96,31.68,22,31.85,22.07z M32.19,21.66c-0.61-0.07-0.91-0.09-1.53-0.1c0.01-0.13,0.02-0.2,0.03-0.34
			c0.55,0.01,0.82,0.03,1.36,0.09c0.03-0.16,0.02-0.28-0.02-0.37c-0.03-0.06-0.1-0.16-0.23-0.28c0.11-0.12,0.16-0.19,0.27-0.31
			c0.12,0.13,0.19,0.24,0.21,0.31c0.03,0.11,0.03,0.29-0.02,0.52C32.24,21.38,32.22,21.48,32.19,21.66"/>
		<path class="st2" d="M30.73,21.5c0.55,0.01,0.86,0.03,1.41,0.09c0.03-0.15,0.04-0.25,0.07-0.42c0.04-0.23,0.05-0.4,0.02-0.5
			c-0.01-0.03-0.04-0.11-0.15-0.24c-0.07,0.08-0.12,0.13-0.19,0.21c0.1,0.11,0.17,0.19,0.2,0.26c0.04,0.1,0.05,0.24,0.02,0.4
			l-0.01,0.06l-0.06-0.01c-0.52-0.05-0.79-0.07-1.3-0.08C30.74,21.36,30.73,21.42,30.73,21.5z M32.24,21.73l-0.06-0.01
			c-0.61-0.07-0.91-0.09-1.52-0.1l-0.06,0l0-0.06c0.01-0.13,0.02-0.2,0.03-0.34l0-0.06l0.06,0c0.52,0.01,0.8,0.03,1.31,0.08
			c0.01-0.12,0.01-0.21-0.02-0.28c-0.01-0.03-0.06-0.11-0.21-0.26l-0.04-0.04l0.04-0.04c0.11-0.13,0.16-0.19,0.27-0.31l0.05-0.05
			l0.04,0.05c0.12,0.14,0.2,0.25,0.22,0.33c0.04,0.12,0.03,0.3-0.01,0.55c-0.03,0.2-0.05,0.29-0.08,0.48L32.24,21.73z M31.32,22.1
			c0.1,0.04,0.17,0.07,0.28,0.11c0.05-0.05,0.09-0.08,0.14-0.13c-0.1-0.05-0.18-0.08-0.29-0.13C31.4,22.02,31.36,22.06,31.32,22.1z
			 M31.63,22.36l-0.04-0.01c-0.16-0.06-0.24-0.1-0.4-0.16l-0.08-0.03l0.06-0.07c0.09-0.09,0.13-0.14,0.22-0.24l0.03-0.03l0.04,0.02
			c0.17,0.07,0.25,0.11,0.42,0.18l0.08,0.04l-0.07,0.06c-0.09,0.09-0.14,0.13-0.23,0.22L31.63,22.36"/>
		<path class="st2" d="M36.25,21.34c-0.06,0.13-0.17,0.22-0.33,0.25c-0.16,0.03-0.36,0.01-0.59-0.06c-0.11-0.03-0.23-0.08-0.35-0.14
			c-0.08-0.04-0.19-0.09-0.33-0.17c0.02-0.01,0.04-0.02,0.06-0.03c0.04,0.01,0.1,0.03,0.16,0.05c0.14,0.05,0.23,0.08,0.26,0.09
			c0.21,0.06,0.39,0.09,0.56,0.1c0.16,0,0.26-0.02,0.28-0.08c0.01-0.03,0-0.05-0.02-0.08c-0.02-0.03-0.06-0.05-0.1-0.06
			c-0.05-0.02-0.08-0.03-0.11-0.03c-0.08-0.02-0.12-0.03-0.19-0.05c-0.05-0.01-0.08-0.03-0.11-0.06c-0.03-0.03-0.03-0.06-0.02-0.1
			c0.04-0.1,0.16-0.21,0.38-0.29c0.21-0.08,0.42-0.11,0.61-0.08c-0.05,0.08-0.08,0.12-0.14,0.2c-0.14-0.02-0.24-0.03-0.32-0.03
			c-0.13,0.01-0.2,0.04-0.22,0.1c-0.01,0.02,0,0.04,0.03,0.06c0.03,0.02,0.06,0.03,0.1,0.05c0.03,0.01,0.06,0.02,0.09,0.02
			c0.06,0.01,0.09,0.02,0.15,0.04c0.09,0.03,0.16,0.07,0.18,0.12C36.29,21.19,36.28,21.25,36.25,21.34z M36.68,22.83
			c-0.72-0.31-1.09-0.44-1.85-0.65c-0.41-0.12-0.69-0.22-0.85-0.33c-0.17-0.12-0.23-0.27-0.17-0.46c0.03-0.12,0.11-0.24,0.24-0.37
			c0.04-0.04,0.11-0.1,0.22-0.19c0.03,0.02,0.05,0.04,0.08,0.06c-0.09,0.09-0.16,0.16-0.19,0.21c-0.04,0.05-0.06,0.1-0.07,0.15
			c-0.04,0.14,0.03,0.27,0.22,0.37c0.14,0.08,0.36,0.16,0.64,0.24c0.67,0.19,1,0.3,1.64,0.56c0.16-0.67,0.27-1.07,0.36-1.65
			c-0.05-0.04-0.08-0.06-0.13-0.09c0.03-0.07,0.07-0.13,0.11-0.18c0.05-0.05,0.1-0.09,0.16-0.12c0.02,0.01,0.02,0.02,0.04,0.03
			c-0.02,0.05,0.03,0.11,0.15,0.19c0.11,0.07,0.17,0.1,0.27,0.18c-0.02,0.04-0.05,0.09-0.1,0.14c-0.05,0.05-0.09,0.09-0.13,0.11
			c-0.05-0.03-0.07-0.05-0.12-0.08c-0.1,0.55-0.2,0.91-0.36,1.53C36.78,22.62,36.74,22.69,36.68,22.83"/>
		<path class="st2" d="M35.98,20.7c0.07,0,0.16,0.01,0.26,0.02c0.02-0.03,0.04-0.06,0.06-0.08c-0.14-0.01-0.28,0.02-0.42,0.07
			c0.02,0,0.04-0.01,0.07-0.01C35.95,20.7,35.97,20.7,35.98,20.7z M35.16,21.4c0.07,0.03,0.13,0.05,0.19,0.07
			c0.23,0.07,0.41,0.09,0.56,0.06c0.14-0.03,0.23-0.1,0.28-0.21c0.03-0.06,0.03-0.11,0.02-0.14c-0.01-0.02-0.04-0.05-0.14-0.09
			c-0.06-0.01-0.09-0.02-0.15-0.03c-0.03-0.01-0.06-0.02-0.09-0.03c-0.04-0.01-0.08-0.03-0.11-0.05c-0.07-0.05-0.06-0.11-0.05-0.13
			c0.01-0.02,0.02-0.04,0.04-0.06c-0.12,0.06-0.2,0.13-0.22,0.2c-0.01,0.02,0,0.03,0,0.03c0.02,0.02,0.05,0.03,0.08,0.04
			c0.08,0.02,0.11,0.03,0.19,0.05c0.03,0.01,0.06,0.02,0.11,0.03c0.05,0.02,0.1,0.05,0.13,0.08c0.05,0.06,0.04,0.12,0.03,0.14
			c-0.04,0.11-0.19,0.12-0.3,0.12l-0.04,0C35.53,21.48,35.36,21.45,35.16,21.4z M35.77,21.66c-0.13,0-0.28-0.03-0.45-0.08
			c-0.11-0.03-0.22-0.08-0.36-0.14c-0.08-0.04-0.19-0.09-0.34-0.17l-0.11-0.06l0.19-0.09l0.02,0.01c0.04,0.01,0.1,0.03,0.16,0.05
			l0.07,0.02c0.1,0.03,0.16,0.05,0.19,0.06c0.21,0.06,0.38,0.09,0.54,0.09l0.03,0c0.17,0,0.19-0.04,0.19-0.04
			c0-0.01,0-0.01-0.01-0.02c-0.02-0.02-0.04-0.03-0.07-0.04c-0.05-0.02-0.08-0.03-0.11-0.03c-0.08-0.02-0.12-0.03-0.19-0.05
			c-0.06-0.02-0.1-0.04-0.14-0.08c-0.04-0.04-0.05-0.1-0.03-0.16c0.05-0.13,0.18-0.24,0.41-0.33c0.22-0.09,0.43-0.11,0.64-0.08
			l0.1,0.01l-0.06,0.08c-0.05,0.08-0.08,0.12-0.14,0.2l-0.02,0.03l-0.04-0.01c-0.13-0.02-0.23-0.03-0.31-0.03
			c-0.08,0-0.14,0.02-0.16,0.05c0.02,0.02,0.05,0.03,0.08,0.04c0.03,0.01,0.06,0.02,0.08,0.02c0.06,0.01,0.09,0.02,0.15,0.04
			c0.12,0.04,0.19,0.09,0.22,0.15c0.03,0.06,0.03,0.14-0.01,0.25c-0.06,0.15-0.19,0.25-0.37,0.29
			C35.88,21.66,35.83,21.66,35.77,21.66z M34.13,21.02c-0.03,0.02-0.04,0.04-0.05,0.05c-0.12,0.12-0.19,0.23-0.22,0.34
			c-0.05,0.17,0,0.29,0.15,0.4c0.14,0.1,0.39,0.2,0.83,0.32c0.74,0.21,1.12,0.34,1.81,0.63l0.14-0.3l0.05-0.2
			c0.13-0.5,0.21-0.83,0.3-1.31l0.02-0.09l0.08,0.05c0.03,0.02,0.06,0.04,0.08,0.05c0.03-0.02,0.05-0.05,0.09-0.08
			c0.03-0.03,0.05-0.05,0.06-0.08c-0.08-0.05-0.13-0.09-0.22-0.14c-0.07-0.05-0.16-0.11-0.18-0.19c-0.04,0.02-0.07,0.05-0.1,0.08
			c-0.03,0.03-0.06,0.07-0.08,0.12c0.03,0.02,0.05,0.04,0.09,0.06L37,20.74L37,20.77c-0.08,0.51-0.17,0.88-0.3,1.4l-0.08,0.33
			l-0.07-0.03c-0.64-0.26-0.96-0.37-1.63-0.56c-0.31-0.09-0.52-0.17-0.66-0.24c-0.22-0.12-0.3-0.27-0.25-0.44
			c0.02-0.06,0.04-0.11,0.08-0.17C34.11,21.05,34.12,21.03,34.13,21.02z M36.71,22.91l-0.05-0.02c-0.72-0.3-1.08-0.43-1.85-0.65
			c-0.46-0.13-0.72-0.23-0.87-0.34c-0.19-0.14-0.26-0.31-0.2-0.53c0.04-0.13,0.12-0.26,0.25-0.39c0.04-0.04,0.12-0.11,0.22-0.19
			l0.04-0.03l0.18,0.13l-0.05,0.05c-0.11,0.1-0.16,0.16-0.18,0.2c-0.03,0.05-0.05,0.09-0.07,0.13c-0.02,0.07-0.02,0.18,0.19,0.3
			c0.13,0.07,0.33,0.15,0.63,0.23c0.65,0.18,0.98,0.3,1.58,0.53l0.05-0.19c0.13-0.52,0.21-0.87,0.29-1.35
			c-0.03-0.02-0.06-0.04-0.1-0.07l-0.04-0.03l0.02-0.05c0.03-0.08,0.07-0.14,0.13-0.2c0.05-0.05,0.11-0.1,0.18-0.13l0.03-0.02
			l0.1,0.08l-0.02,0.04c0,0,0.01,0.04,0.13,0.12c0.11,0.07,0.17,0.1,0.27,0.18l0.04,0.03L37.6,20.8c-0.02,0.05-0.06,0.1-0.11,0.15
			c-0.05,0.05-0.1,0.09-0.14,0.12l-0.03,0.02l-0.03-0.02c-0.02-0.01-0.03-0.02-0.04-0.03c-0.08,0.44-0.16,0.76-0.28,1.23l-0.06,0.22
			L36.71,22.91"/>
		<path class="st2" d="M38.58,21.68c-0.13,0.05-0.19,0.08-0.32,0.14c-0.13-0.14-0.2-0.21-0.34-0.34c0.13-0.06,0.19-0.09,0.31-0.14
			C38.37,21.47,38.44,21.54,38.58,21.68z M37.87,23.4c-0.53-0.28-0.81-0.41-1.37-0.64c0.06-0.12,0.09-0.18,0.15-0.31
			c0.5,0.2,0.74,0.32,1.22,0.56c0.08-0.14,0.11-0.26,0.11-0.36c0-0.07-0.04-0.18-0.11-0.34c0.14-0.08,0.21-0.12,0.35-0.2
			c0.06,0.17,0.09,0.29,0.08,0.37c-0.01,0.12-0.07,0.28-0.19,0.49C38.01,23.15,37.96,23.23,37.87,23.4"/>
		<path class="st2" d="M38.02,21.5c0.09,0.09,0.16,0.15,0.25,0.25c0.08-0.04,0.13-0.06,0.2-0.09c-0.09-0.09-0.16-0.15-0.26-0.25
			C38.14,21.44,38.09,21.46,38.02,21.5z M38.24,21.89l-0.03-0.03c-0.14-0.14-0.2-0.21-0.34-0.34l-0.06-0.06l0.08-0.04
			c0.13-0.06,0.19-0.09,0.31-0.14l0.04-0.02l0.03,0.03c0.15,0.13,0.22,0.2,0.36,0.34l0.06,0.07l-0.08,0.03
			c-0.13,0.05-0.19,0.08-0.32,0.14L38.24,21.89z M36.59,22.72c0.5,0.2,0.77,0.33,1.26,0.59c0.07-0.13,0.12-0.22,0.21-0.37
			c0.12-0.21,0.18-0.36,0.19-0.47c0-0.04,0-0.12-0.06-0.28c-0.09,0.05-0.15,0.08-0.24,0.13c0.06,0.14,0.09,0.24,0.09,0.31
			c0,0.11-0.04,0.24-0.12,0.39l-0.03,0.05l-0.05-0.03c-0.46-0.23-0.69-0.35-1.16-0.54L36.59,22.72z M37.9,23.48l-0.05-0.03
			c-0.54-0.29-0.81-0.41-1.36-0.64l-0.06-0.02l0.2-0.42l0.05,0.02c0.48,0.2,0.73,0.31,1.17,0.54c0.05-0.11,0.08-0.2,0.08-0.27
			c0-0.04-0.02-0.13-0.1-0.32l-0.02-0.05l0.05-0.03c0.14-0.08,0.21-0.12,0.35-0.2l0.06-0.03l0.02,0.07c0.06,0.17,0.09,0.3,0.09,0.39
			c-0.01,0.12-0.07,0.29-0.2,0.52c-0.1,0.17-0.15,0.26-0.24,0.42L37.9,23.48"/>
		<path class="st2" d="M38.55,24.3c-0.12,0.04-0.18,0.06-0.29,0.1c-0.12-0.13-0.17-0.2-0.29-0.33c0.11-0.05,0.17-0.07,0.29-0.12
			C38.38,24.09,38.43,24.16,38.55,24.3z M39.02,24.07c-0.51-0.34-0.77-0.49-1.31-0.76c0.06-0.12,0.1-0.18,0.17-0.3
			c0.47,0.25,0.71,0.38,1.16,0.67c0.09-0.13,0.13-0.25,0.13-0.35c0-0.07-0.03-0.19-0.09-0.35c0.14-0.07,0.22-0.1,0.36-0.16
			c0.05,0.18,0.07,0.3,0.06,0.38c-0.02,0.12-0.09,0.28-0.22,0.48C39.17,23.83,39.12,23.92,39.02,24.07"/>
		<path class="st2" d="M37.79,23.29c0.47,0.24,0.73,0.39,1.21,0.7c0.08-0.13,0.14-0.21,0.23-0.35c0.13-0.2,0.2-0.35,0.22-0.45
			c0-0.04,0.01-0.12-0.04-0.29c-0.09,0.04-0.15,0.07-0.25,0.11c0.05,0.14,0.07,0.25,0.07,0.32c0,0.11-0.05,0.24-0.14,0.38
			l-0.03,0.05L39,23.73c-0.43-0.27-0.65-0.41-1.1-0.64L37.79,23.29z M39.03,24.16l-0.05-0.03c-0.52-0.34-0.78-0.49-1.3-0.76
			l-0.06-0.03l0.23-0.41l0.05,0.03c0.47,0.24,0.7,0.38,1.12,0.64c0.06-0.1,0.09-0.19,0.09-0.27c0-0.04-0.01-0.13-0.08-0.33
			l-0.02-0.05l0.05-0.02c0.15-0.07,0.22-0.1,0.36-0.16l0.06-0.03l0.02,0.07c0.05,0.18,0.07,0.32,0.06,0.41
			c-0.02,0.12-0.09,0.29-0.23,0.5c-0.11,0.17-0.16,0.25-0.27,0.41L39.03,24.16z M38.07,24.09c0.07,0.08,0.13,0.14,0.21,0.23
			c0.06-0.02,0.11-0.04,0.17-0.06c-0.07-0.09-0.13-0.15-0.21-0.25C38.17,24.05,38.12,24.07,38.07,24.09z M38.24,24.47l-0.03-0.03
			c-0.12-0.13-0.17-0.2-0.29-0.33l-0.06-0.06l0.08-0.03c0.11-0.05,0.17-0.07,0.29-0.12l0.04-0.02l0.03,0.03
			c0.12,0.14,0.18,0.21,0.29,0.35l0.06,0.07l-0.08,0.03c-0.12,0.04-0.18,0.06-0.3,0.1L38.24,24.47"/>
		<path class="st2" d="M42.45,27.27c-0.12-0.16-0.18-0.23-0.31-0.39c-0.18-0.22-0.33-0.38-0.43-0.48c-0.1-0.1-0.17-0.14-0.19-0.12
			c-0.03,0.03,0.02,0.1,0.13,0.23c0.05,0.06,0.09,0.1,0.12,0.14c0.03,0.03,0.09,0.11,0.17,0.23c0.05,0.07,0.08,0.13,0.1,0.16
			c0.02,0.05,0.01,0.09-0.02,0.12c-0.16,0.14-0.33,0.15-0.54,0.04c-0.22-0.12-0.5-0.38-0.89-0.76c-0.27-0.26-0.47-0.48-0.59-0.68
			c-0.13-0.21-0.16-0.38-0.05-0.51c0.08-0.11,0.22-0.19,0.41-0.24c0.07-0.02,0.23-0.05,0.5-0.08c0.02,0.04,0.03,0.06,0.06,0.11
			c-0.11,0.02-0.22,0.03-0.32,0.06c-0.17,0.04-0.28,0.09-0.33,0.16c-0.09,0.12-0.07,0.27,0.05,0.47c0.12,0.19,0.31,0.42,0.58,0.68
			c0.18,0.18,0.34,0.34,0.48,0.46c0.18,0.16,0.29,0.23,0.32,0.19c0.01-0.01,0.02-0.03,0-0.06c-0.01-0.03-0.04-0.07-0.08-0.11
			c-0.03-0.04-0.08-0.1-0.14-0.18c-0.07-0.08-0.11-0.13-0.13-0.16c-0.08-0.08-0.13-0.15-0.15-0.2c-0.02-0.05-0.02-0.09,0.01-0.11
			c0.1-0.1,0.24-0.15,0.4-0.12c0.13,0.02,0.28,0.09,0.43,0.21c0.12,0.09,0.23,0.19,0.33,0.32c0.13,0.16,0.19,0.23,0.31,0.4
			C42.59,27.15,42.54,27.19,42.45,27.27"/>
		<path class="st2" d="M40.58,25.04c-0.13,0.02-0.18,0.04-0.2,0.04c-0.18,0.05-0.3,0.12-0.38,0.22c-0.05,0.07-0.1,0.18,0.06,0.44
			c0.11,0.17,0.29,0.38,0.58,0.67c0.4,0.39,0.67,0.64,0.87,0.75c0.19,0.1,0.33,0.09,0.47-0.03c0,0,0.02-0.02,0-0.05
			c-0.01-0.01-0.03-0.06-0.09-0.15c-0.09-0.12-0.15-0.2-0.17-0.23c-0.03-0.03-0.06-0.08-0.11-0.13c-0.11-0.12-0.2-0.24-0.13-0.32
			c0.02-0.02,0.04-0.02,0.06-0.02c0.03,0,0.09,0.02,0.21,0.14c0.09,0.08,0.23,0.23,0.44,0.49c0.11,0.14,0.17,0.21,0.27,0.34
			c0.06-0.05,0.1-0.08,0.16-0.13c-0.1-0.13-0.16-0.21-0.28-0.35c-0.1-0.12-0.21-0.22-0.32-0.31c-0.14-0.11-0.28-0.18-0.41-0.2
			c-0.14-0.02-0.25,0.01-0.34,0.1c0,0-0.01,0.01,0,0.05c0.02,0.04,0.06,0.1,0.14,0.18c0.02,0.02,0.07,0.08,0.14,0.16
			c0.04,0.05,0.08,0.1,0.11,0.14l0.03,0.04c0.05,0.06,0.07,0.1,0.09,0.13c0.03,0.07,0,0.11-0.02,0.13
			c-0.02,0.02-0.04,0.03-0.07,0.03c-0.06,0-0.14-0.04-0.34-0.21c-0.13-0.12-0.29-0.27-0.49-0.47c-0.3-0.3-0.48-0.51-0.59-0.69
			c-0.14-0.23-0.16-0.41-0.05-0.54C40.29,25.14,40.42,25.08,40.58,25.04z M42.44,27.36l-0.04-0.05c-0.12-0.16-0.18-0.23-0.31-0.38
			c-0.17-0.21-0.3-0.35-0.39-0.44c0.05,0.05,0.08,0.1,0.11,0.13c0.03,0.03,0.09,0.11,0.18,0.24c0.05,0.07,0.09,0.13,0.1,0.17
			c0.04,0.1,0,0.16-0.03,0.19c-0.18,0.16-0.37,0.17-0.6,0.05c-0.22-0.12-0.48-0.36-0.9-0.77c-0.31-0.3-0.48-0.51-0.6-0.69
			c-0.15-0.24-0.17-0.43-0.05-0.58c0.09-0.12,0.24-0.21,0.44-0.26c0.09-0.02,0.27-0.06,0.51-0.09l0.04-0.01l0.12,0.22l-0.15,0.02
			c-0.09,0.01-0.17,0.03-0.25,0.04c-0.14,0.03-0.25,0.08-0.3,0.14c-0.05,0.06-0.09,0.16,0.06,0.4c0.1,0.17,0.28,0.38,0.57,0.67
			c0.2,0.2,0.35,0.35,0.48,0.46c0.11,0.09,0.17,0.14,0.21,0.16c-0.02-0.02-0.03-0.05-0.05-0.06l-0.04-0.05
			c-0.03-0.04-0.06-0.08-0.11-0.13c-0.07-0.08-0.11-0.13-0.13-0.15c-0.09-0.09-0.14-0.16-0.16-0.22c-0.04-0.09-0.01-0.15,0.02-0.18
			c0.12-0.12,0.28-0.17,0.45-0.14c0.15,0.03,0.3,0.1,0.46,0.22c0.12,0.09,0.23,0.2,0.34,0.33c0.13,0.16,0.19,0.23,0.31,0.4
			l0.04,0.05l-0.05,0.04c-0.1,0.08-0.15,0.13-0.25,0.21L42.44,27.36"/>
		<path class="st2" d="M43.86,28.74c0.05-0.06,0.09-0.13,0.13-0.22c0.03-0.07,0.08-0.2,0.06-0.26c-0.02-0.06-0.13-0.13-0.2-0.17
			c-0.05-0.02-0.19-0.07-0.2-0.06c-0.02,0.01,0.01,0.2,0.05,0.33c0.03,0.13,0.08,0.25,0.13,0.36
			C43.84,28.73,43.85,28.73,43.86,28.74z M43.71,29.22c-0.06-0.11-0.09-0.16-0.15-0.27c-0.06-0.11-0.12-0.25-0.18-0.41
			c-0.06-0.18-0.07-0.47-0.12-0.52c-0.04-0.05-0.25-0.1-0.34-0.18c-0.09-0.08-0.2-0.2-0.33-0.38c-0.11-0.14-0.16-0.21-0.27-0.35
			c0.1-0.08,0.15-0.13,0.25-0.21c0.11,0.14,0.16,0.21,0.27,0.35c0.1,0.14,0.22,0.25,0.34,0.33c0.1,0.06,0.21,0.11,0.32,0.13
			c0.16,0.04,0.32,0.11,0.49,0.22c0.15,0.1,0.34,0.24,0.35,0.32c0.03,0.11-0.09,0.36-0.14,0.48c-0.07,0.17-0.15,0.28-0.22,0.32
			C43.88,29.13,43.82,29.16,43.71,29.22"/>
		<path class="st2" d="M43.71,28.11c0.01,0.06,0.02,0.15,0.05,0.24c0.03,0.11,0.06,0.2,0.1,0.29c0.03-0.04,0.05-0.09,0.07-0.14
			c0.05-0.12,0.07-0.2,0.06-0.22c-0.01-0.02-0.08-0.09-0.17-0.13C43.8,28.14,43.75,28.12,43.71,28.11z M43.88,28.81l-0.1-0.03
			l-0.01-0.02c-0.05-0.11-0.09-0.23-0.13-0.37c-0.09-0.35-0.04-0.38-0.03-0.4l0.02-0.01l0.03,0c0.05,0,0.18,0.05,0.22,0.07
			c0.02,0.01,0.2,0.1,0.23,0.2c0.02,0.07-0.02,0.18-0.06,0.29c-0.04,0.09-0.08,0.17-0.14,0.24L43.88,28.81z M42.41,27.12
			c0.09,0.11,0.14,0.18,0.23,0.31c0.13,0.18,0.24,0.3,0.32,0.37c0.04,0.03,0.11,0.06,0.18,0.09c0.09,0.04,0.14,0.06,0.17,0.1
			c0.03,0.04,0.04,0.11,0.07,0.25c0.02,0.1,0.03,0.21,0.06,0.29c0.05,0.16,0.11,0.29,0.17,0.4c0.05,0.09,0.08,0.14,0.12,0.21
			l0.22-0.13c0.05-0.03,0.12-0.1,0.2-0.29l0.03-0.06c0.05-0.11,0.13-0.31,0.11-0.39c-0.01-0.02-0.08-0.12-0.33-0.28
			c-0.16-0.1-0.31-0.17-0.47-0.21c-0.12-0.03-0.24-0.08-0.34-0.14c-0.13-0.08-0.25-0.2-0.36-0.35c-0.09-0.12-0.14-0.19-0.23-0.3
			L42.41,27.12z M43.69,29.31l-0.03-0.06c-0.06-0.11-0.09-0.16-0.15-0.27c-0.07-0.12-0.13-0.26-0.18-0.42
			c-0.03-0.09-0.05-0.21-0.07-0.31c-0.01-0.07-0.03-0.17-0.04-0.19c-0.01-0.01-0.08-0.04-0.12-0.06c-0.07-0.03-0.16-0.07-0.21-0.11
			c-0.09-0.08-0.2-0.2-0.34-0.39c-0.11-0.14-0.16-0.21-0.27-0.35l-0.04-0.05l0.34-0.29l0.04,0.05c0.11,0.14,0.16,0.21,0.27,0.35
			c0.1,0.14,0.21,0.24,0.33,0.32c0.09,0.06,0.19,0.1,0.31,0.12c0.17,0.04,0.34,0.12,0.51,0.23c0.35,0.23,0.37,0.32,0.38,0.35
			c0.03,0.11-0.04,0.27-0.12,0.46l-0.02,0.06c-0.07,0.18-0.16,0.3-0.25,0.35L43.69,29.31"/>
		<path class="st2" d="M45.62,31.12c-0.02,0.01-0.04,0.01-0.06,0.02c-0.02,0-0.07-0.01-0.07-0.01c-0.01-0.03,0.2-0.4,0.26-0.69
			c0.07-0.32,0.06-0.56-0.01-0.7c-0.01-0.03-0.04-0.06-0.08-0.07c-0.04-0.02-0.07-0.05-0.09-0.09c-0.03-0.05-0.05-0.15-0.06-0.29
			c-0.02-0.17-0.03-0.31-0.01-0.43c0.02-0.16,0.07-0.26,0.14-0.31c0.06-0.03,0.1,0,0.15,0.08c0.07,0.15,0.15,0.4,0.21,0.76
			c0.07,0.4,0.07,0.76,0.02,1.07C45.95,30.83,45.81,31.05,45.62,31.12z M45.09,32.73c-0.02-0.09-0.04-0.13-0.06-0.22
			c-0.05-0.17-0.04-0.32,0.04-0.46c0.09-0.16,0.27-0.29,0.54-0.38c0.02-0.01,0.04-0.02,0.07-0.04c0.03-0.02,0.06-0.03,0.06-0.03
			c0-0.02-0.67-0.2-0.84-0.3c-0.2-0.13-0.37-0.34-0.54-0.62c-0.14-0.24-0.34-0.67-0.65-1.25c0.02-0.01,0.03-0.01,0.04-0.02
			c0.33,0.42,0.57,0.76,0.75,0.98c0.28,0.35,0.53,0.63,0.75,0.8c0.27,0.21,0.53,0.28,0.77,0.2c0.11-0.04,0.21-0.09,0.3-0.15
			c0.08-0.06,0.16-0.13,0.23-0.21c0.07,0.03,0.1,0.04,0.16,0.07c0.06,0.03,0.15,0.08,0.16,0.09c0,0.03-0.25,0.21-0.41,0.32
			c-0.11,0.08-0.25,0.15-0.39,0.24c-0.18,0.1-0.33,0.18-0.44,0.25c-0.14,0.08-0.23,0.17-0.28,0.27c-0.03,0.06-0.04,0.12-0.02,0.17
			c0.03,0.09,0.04,0.13,0.06,0.22C45.28,32.69,45.21,32.7,45.09,32.73"/>
		<path class="st2" d="M45.68,28.6c0,0-0.01,0-0.01,0c-0.06,0.03-0.1,0.12-0.11,0.26c-0.01,0.11-0.01,0.25,0.01,0.42
			c0.02,0.13,0.04,0.22,0.06,0.27c0.01,0.03,0.03,0.05,0.06,0.06c0.06,0.02,0.09,0.06,0.11,0.11c0.07,0.17,0.08,0.42,0.01,0.74
			c-0.04,0.18-0.13,0.39-0.2,0.53c-0.01,0.03-0.03,0.06-0.04,0.09c0.01,0,0.02,0,0.04-0.01c0.17-0.06,0.29-0.27,0.35-0.61
			c0.05-0.3,0.04-0.66-0.02-1.05c-0.05-0.32-0.13-0.59-0.2-0.75C45.7,28.61,45.69,28.6,45.68,28.6z M45.55,31.2
			c-0.11,0-0.12-0.03-0.12-0.05c-0.01-0.04,0-0.07,0.07-0.22c0.06-0.13,0.15-0.34,0.19-0.51c0.06-0.29,0.06-0.52,0-0.67
			c-0.01-0.02-0.02-0.03-0.05-0.04c-0.06-0.02-0.1-0.06-0.12-0.12c-0.03-0.06-0.05-0.16-0.07-0.3c-0.02-0.18-0.03-0.33-0.01-0.45
			c0.02-0.18,0.08-0.3,0.18-0.35c0.09-0.05,0.17-0.01,0.23,0.11c0.06,0.12,0.14,0.35,0.22,0.78c0.07,0.4,0.07,0.77,0.02,1.09
			c-0.08,0.49-0.28,0.66-0.43,0.71c-0.03,0.01-0.05,0.02-0.08,0.02L45.55,31.2z M43.96,29.76c0.06,0.11,0.11,0.22,0.16,0.31
			c0.12,0.25,0.22,0.44,0.3,0.57c0.17,0.29,0.34,0.49,0.52,0.6c0.1,0.07,0.43,0.17,0.63,0.23c0.24,0.07,0.24,0.07,0.24,0.12l0,0.04
			l-0.04,0.02c0,0-0.03,0.01-0.05,0.03c-0.03,0.02-0.06,0.03-0.09,0.04c-0.25,0.08-0.42,0.2-0.51,0.35
			c-0.07,0.12-0.08,0.26-0.03,0.41c0.02,0.07,0.03,0.11,0.04,0.16l0.19-0.05c-0.01-0.06-0.03-0.1-0.04-0.16
			c-0.02-0.06-0.01-0.14,0.03-0.21c0.05-0.11,0.15-0.2,0.3-0.29c0.11-0.07,0.26-0.15,0.44-0.25c0.15-0.08,0.28-0.16,0.39-0.23
			c0.16-0.1,0.29-0.2,0.35-0.26c-0.03-0.01-0.06-0.03-0.09-0.04c-0.05-0.02-0.08-0.03-0.12-0.05c-0.07,0.07-0.14,0.13-0.22,0.19
			c-0.09,0.06-0.19,0.11-0.31,0.15c-0.25,0.08-0.53,0.01-0.83-0.21c-0.21-0.16-0.46-0.42-0.76-0.81c-0.08-0.1-0.16-0.21-0.27-0.35
			C44.12,29.98,44.05,29.88,43.96,29.76z M45.05,32.81l-0.02-0.06c-0.02-0.09-0.04-0.13-0.06-0.22c-0.05-0.19-0.04-0.36,0.04-0.51
			c0.1-0.18,0.29-0.31,0.57-0.41c-0.02-0.01-0.04-0.01-0.06-0.02c-0.28-0.09-0.55-0.17-0.66-0.24c-0.2-0.13-0.38-0.34-0.56-0.64
			c-0.08-0.14-0.18-0.33-0.3-0.58c-0.1-0.19-0.21-0.42-0.34-0.67l-0.03-0.05l0.14-0.08l0.03,0.04c0.19,0.24,0.35,0.45,0.48,0.63
			c0.1,0.14,0.19,0.25,0.27,0.35c0.3,0.38,0.54,0.63,0.74,0.79c0.26,0.2,0.5,0.26,0.71,0.19c0.11-0.04,0.2-0.08,0.28-0.14
			c0.08-0.06,0.16-0.13,0.22-0.2l0.03-0.03l0.04,0.02c0.07,0.03,0.1,0.04,0.16,0.07c0.19,0.09,0.19,0.11,0.19,0.14
			c0,0.03,0.01,0.08-0.44,0.38c-0.11,0.07-0.24,0.15-0.4,0.24c-0.18,0.1-0.33,0.18-0.44,0.25c-0.13,0.08-0.22,0.16-0.25,0.24
			c-0.02,0.05-0.03,0.09-0.02,0.13c0.03,0.09,0.04,0.13,0.06,0.23l0.02,0.06L45.05,32.81"/>
		<path class="st2" d="M45.66,36.35c-0.01-0.11-0.01-0.16-0.02-0.27c-0.01-0.15-0.01-0.28,0-0.39c0.01-0.11,0.07-0.24,0.06-0.3
			c-0.01-0.07-0.1-0.2-0.12-0.27c-0.04-0.11-0.07-0.27-0.1-0.47c-0.01-0.09-0.02-0.13-0.03-0.22c-0.02-0.11-0.03-0.23-0.02-0.35
			c0-0.08,0.04-0.22,0.03-0.29c-0.02-0.07-0.11-0.19-0.15-0.27c-0.03-0.08-0.07-0.22-0.12-0.41c-0.06-0.24-0.09-0.36-0.16-0.6
			c0.12-0.03,0.18-0.05,0.31-0.09c0.07,0.24,0.1,0.37,0.16,0.61c0.04,0.17,0.08,0.3,0.11,0.37c0.06,0.12,0.13,0.17,0.21,0.16
			c0.04-0.01,0.07-0.02,0.11-0.03c0.03-0.01,0.07-0.03,0.11-0.06c0.06,0.05,0.09,0.07,0.14,0.12c-0.1,0.09-0.18,0.15-0.22,0.2
			c-0.08,0.09-0.13,0.18-0.16,0.27c-0.04,0.11-0.04,0.24-0.02,0.38c0.01,0.09,0.02,0.14,0.03,0.23c0.02,0.17,0.06,0.3,0.09,0.38
			c0.04,0.09,0.1,0.13,0.18,0.12c0.04,0,0.08-0.01,0.11-0.03s0.08-0.03,0.12-0.05c0.05,0.06,0.08,0.08,0.13,0.14
			c-0.07,0.04-0.1,0.06-0.17,0.09c-0.14,0.08-0.23,0.16-0.27,0.26c-0.04,0.08-0.05,0.19-0.04,0.33c0,0.06,0.02,0.12,0.04,0.15
			c0.02,0.04,0.05,0.06,0.09,0.06c0.07,0,0.15-0.06,0.22-0.16c0.01-0.02,0.05-0.08,0.11-0.19c0.09,0.09,0.14,0.13,0.23,0.23
			c-0.07,0.11-0.14,0.18-0.19,0.22c-0.08,0.06-0.2,0.09-0.35,0.09C45.92,36.34,45.83,36.34,45.66,36.35"/>
		<path class="st2" d="M45.11,32.56c0.06,0.2,0.09,0.32,0.14,0.54c0.05,0.2,0.08,0.33,0.11,0.4c0.01,0.03,0.04,0.07,0.06,0.11
			c0.04,0.06,0.07,0.12,0.09,0.17c0.01,0.06,0,0.13-0.01,0.21c-0.01,0.04-0.01,0.07-0.01,0.1c0,0.11,0,0.23,0.02,0.34
			c0.01,0.09,0.02,0.13,0.03,0.22c0.03,0.2,0.06,0.35,0.09,0.46c0.01,0.03,0.03,0.07,0.05,0.11c0.03,0.06,0.07,0.13,0.07,0.18
			c0,0.04-0.01,0.09-0.03,0.16c-0.01,0.05-0.03,0.11-0.03,0.15c-0.01,0.1-0.01,0.22,0,0.38c0.01,0.09,0.01,0.14,0.01,0.21
			c0.14-0.01,0.23-0.01,0.39-0.01c0.14,0,0.24-0.03,0.31-0.08c0.03-0.02,0.08-0.06,0.15-0.16c-0.05-0.05-0.09-0.09-0.14-0.14
			c-0.04,0.07-0.06,0.11-0.07,0.12c-0.1,0.15-0.2,0.18-0.27,0.19h0c-0.04,0-0.1-0.01-0.14-0.08c-0.03-0.05-0.05-0.11-0.05-0.18
			c-0.01-0.15,0-0.27,0.05-0.36c0.05-0.11,0.15-0.2,0.3-0.29c0.04-0.02,0.07-0.04,0.1-0.05c-0.02-0.02-0.03-0.03-0.05-0.05
			c-0.03,0.01-0.06,0.02-0.08,0.03c-0.04,0.02-0.08,0.02-0.13,0.03c-0.01,0-0.01,0-0.02,0c-0.06,0-0.15-0.03-0.21-0.16
			c-0.04-0.08-0.07-0.21-0.1-0.4c-0.01-0.09-0.02-0.14-0.03-0.23c-0.02-0.16-0.02-0.29,0.02-0.41c0.03-0.1,0.09-0.2,0.18-0.29
			c0.04-0.04,0.09-0.09,0.17-0.16c-0.02-0.01-0.03-0.03-0.05-0.04c-0.03,0.02-0.06,0.03-0.09,0.04c-0.04,0.02-0.08,0.03-0.12,0.03
			c-0.12,0.02-0.21-0.04-0.28-0.19c-0.03-0.07-0.07-0.19-0.12-0.38c-0.05-0.23-0.09-0.35-0.14-0.55L45.11,32.56z M45.6,36.41l0-0.06
			c-0.01-0.11-0.01-0.16-0.02-0.27c-0.01-0.16-0.01-0.29,0-0.4c0.01-0.06,0.02-0.12,0.04-0.17c0.01-0.04,0.03-0.1,0.02-0.11
			c0-0.03-0.03-0.09-0.06-0.13c-0.02-0.05-0.05-0.09-0.06-0.13c-0.04-0.11-0.07-0.27-0.1-0.48c-0.01-0.09-0.02-0.13-0.03-0.22
			c-0.02-0.12-0.03-0.24-0.02-0.36c0-0.03,0.01-0.07,0.01-0.11c0.01-0.06,0.02-0.13,0.01-0.16c-0.01-0.03-0.04-0.08-0.07-0.13
			c-0.03-0.04-0.06-0.09-0.07-0.13c-0.03-0.08-0.07-0.21-0.12-0.42c-0.06-0.24-0.09-0.36-0.16-0.6l-0.02-0.06l0.43-0.12l0.02,0.06
			c0.07,0.25,0.1,0.37,0.16,0.62c0.04,0.18,0.08,0.29,0.11,0.36c0.04,0.09,0.09,0.13,0.15,0.12c0.03-0.01,0.06-0.02,0.1-0.03
			c0.03-0.01,0.07-0.03,0.1-0.06l0.04-0.02l0.03,0.03c0.06,0.05,0.09,0.07,0.14,0.12l0.06,0.05l-0.06,0.05
			c-0.11,0.09-0.18,0.15-0.22,0.2c-0.07,0.08-0.12,0.16-0.15,0.25c-0.03,0.1-0.04,0.22-0.02,0.36c0.01,0.09,0.02,0.14,0.03,0.23
			c0.02,0.17,0.05,0.29,0.09,0.36c0.04,0.09,0.09,0.09,0.11,0.09c0.04,0,0.08-0.01,0.11-0.02c0.03-0.01,0.07-0.03,0.11-0.05
			l0.04-0.02l0.03,0.03c0.05,0.06,0.08,0.08,0.13,0.14l0.05,0.06l-0.07,0.04c-0.07,0.04-0.1,0.06-0.17,0.09
			c-0.12,0.07-0.2,0.15-0.25,0.23c-0.03,0.07-0.05,0.17-0.04,0.3c0,0.05,0.02,0.1,0.03,0.13c0.01,0.01,0.02,0.03,0.03,0.03
			c0.05,0,0.11-0.05,0.17-0.13c0.01-0.02,0.05-0.08,0.11-0.18l0.04-0.07l0.06,0.05c0.09,0.09,0.14,0.14,0.23,0.23l0.04,0.04
			l-0.03,0.04c-0.08,0.11-0.15,0.19-0.21,0.23c-0.09,0.06-0.22,0.1-0.38,0.1c-0.19,0.01-0.28,0.01-0.45,0.02L45.6,36.41"/>
		<path class="st2" d="M46.17,37.58c-0.1,0-0.2-0.04-0.3-0.11c-0.05-0.04-0.13-0.12-0.24-0.24c0.01-0.03,0.01-0.04,0.02-0.07
			c0.04,0.01,0.08,0.01,0.12,0.02c0.05,0.01,0.08,0.01,0.1,0.01c0.13,0,0.32-0.02,0.56-0.06c0.24-0.04,0.5-0.09,0.74-0.15
			c0.15-0.04,0.37-0.14,0.43-0.13c0.03,0.01,0.1,0.11,0.15,0.18c0.05,0.07,0.15,0.18,0.14,0.19c-0.01,0.02-0.26,0.1-0.49,0.16
			c-0.23,0.06-0.45,0.11-0.66,0.14C46.5,37.56,46.3,37.58,46.17,37.58"/>
		<path class="st2" d="M45.73,37.23c0.1,0.11,0.16,0.16,0.18,0.18c0.09,0.07,0.17,0.1,0.26,0.1l0.03,0c0.13,0,0.31-0.02,0.54-0.05
			c0.23-0.04,0.45-0.08,0.65-0.14c0.25-0.07,0.36-0.11,0.42-0.13c-0.03-0.03-0.06-0.08-0.08-0.11l-0.02-0.03
			c-0.01-0.02-0.03-0.04-0.04-0.05c-0.03-0.04-0.07-0.09-0.09-0.11c-0.02,0-0.11,0.04-0.19,0.06c-0.07,0.03-0.14,0.05-0.2,0.07
			c-0.22,0.06-0.47,0.11-0.75,0.15c-0.24,0.04-0.43,0.06-0.56,0.06c-0.03,0-0.06,0-0.11-0.01C45.76,37.23,45.74,37.23,45.73,37.23z
			 M46.21,37.64l-0.03,0c-0.11,0-0.23-0.05-0.33-0.13c-0.05-0.04-0.14-0.13-0.25-0.25l-0.02-0.02l0.04-0.15l0.06,0.01
			c0.03,0.01,0.07,0.01,0.12,0.02c0.04,0.01,0.07,0.01,0.09,0.01c0.14,0,0.32-0.02,0.55-0.06c0.27-0.05,0.52-0.1,0.74-0.15
			c0.06-0.01,0.13-0.04,0.19-0.06c0.12-0.04,0.21-0.08,0.27-0.06c0.04,0.01,0.08,0.06,0.15,0.15c0.01,0.02,0.03,0.04,0.04,0.05
			l0.02,0.03c0.13,0.17,0.14,0.18,0.13,0.22c-0.01,0.04-0.02,0.06-0.53,0.2c-0.21,0.06-0.43,0.1-0.67,0.14
			C46.53,37.62,46.34,37.64,46.21,37.64"/>
		<path class="st3" d="M34.46,44.71c-0.35,0.72,0.5,0.61,0.5,0.61c0.24,0.35-0.54,0.84-1.14,0.88c-0.6,0.04-0.69,0.42-0.6,0.5
			c1.56,0.21,2.25-1.07,2.2-1.74C35.36,44.29,34.81,43.99,34.46,44.71"/>
		<path class="st3" d="M35.15,42.28c0.28-0.28,0.29,0.3,0.29,0.3C35.29,42.55,34.94,42.49,35.15,42.28z M35.84,42.66
			c-0.04-0.48-0.42-0.89-0.81-0.52c-0.39,0.37,0.25,0.97,0.25,0.97c-0.12,0.44-1.24,0.69-1.57,0.69c-0.33,0-0.71,0.1-0.43,0.34
			C35.27,44.33,35.88,43.14,35.84,42.66"/>
		<path class="st3" d="M34.53,42.14c0.01,0.13,0.03,0.23,0.08,0.08c0,0,0.43-1.05-0.11-2.19c-0.37,0.38-0.52,0.57-0.52,0.57
			S34.53,40.87,34.53,42.14"/>
		<path class="st3" d="M32.07,40.09c-0.04,0.79,0.15,2.04,0.23,2.73c0.11,0.94-0.44,0.89-0.82,0.94c-0.38,0.05-0.73-0.1-0.96-0.28
			c-0.09,0.4,0.08,0.64,1.1,0.64c1.02,0,1.13-0.79,1.07-1.26c0.99,0.07,1.21-0.04,1.55-0.24c-0.16-0.7-1.33-0.7-1.33-0.7
			c0.17,0.03,0.54,0.35,0.56,0.57c0.02,0.16-0.87,0.05-0.87,0.05s-0.18-2.71-0.39-3.08c-0.05,0.06-0.08,0.16-0.11,0.28
			C32.23,39.85,32.15,39.99,32.07,40.09"/>
		<path class="st3" d="M26.46,41.86c0.15,0.04,0.07,0.34,0.07,0.34C26.24,42.26,26.31,41.83,26.46,41.86z M30.9,39.03
			c0,0.49,0.16,0.41,0.28,0.41c0.12,0,0.43,0.68-0.12,0.73c-0.19,0.05-0.02,0.78-0.03,0.87c-0.02,0.09-0.07,1.3-0.2,1.37
			c0,0-0.22,0.29-0.18-0.35c0.04-0.64-0.03-3.51-0.03-3.51S30.9,38.54,30.9,39.03z M25.99,42.41c-0.15,0.09-1.08,1.34,0.47,1.58
			c0.52,0.01,1.52-0.17,1.55-0.56c-0.05-0.11-0.1-0.11-0.41-0.02c-0.31,0.09-1.85,0.34-1.65-0.37c0.19-0.55,0.65-0.58,1.25-0.54
			c0.32,0.06,0.42,0.02,0.42,0.02s0-0.18,0.1-0.17c0.1,0.01,0.21,0.21,0.21,0.21s0.74,0.16,0.73-0.4c-0.01-0.55,0.04-0.93,0.14-0.92
			c0.1,0.01,0.18,0.14,0.15,0.43c-0.03,0.29,0,1.32,0,1.32s0.31-0.06,0.36-0.28c0.05-0.22,0.29-0.33,0.45,0.03
			c0.16,0.36,0.53,0.23,0.63,0.17c0.1-0.06,0.12,0.5,0.57,0.12c0.27-0.27,0.37-0.48,0.35-0.6s-0.05-1.47,0.04-1.47
			c0.09,0,0.21,0.09,0.17,0.55c-0.04,0.46-0.05,1.26,0.15,1.22c0,0,0.32-0.19,0.26-0.87c-0.06-0.69-0.73-1.77,0.11-1.71
			c0.01-0.02,0.03-0.04,0.05-0.06c0.01-0.13,0.02-0.25,0.04-0.36c-0.05-0.05-0.14-0.09-0.3-0.13c-0.17-0.27-0.78-1.15-0.78-1.39
			c0-0.24,0.02-0.99-0.12-0.96c-0.14,0.03-0.32,0.31-0.17,0.8c-0.1,0.07-0.02-0.12-0.17-0.12c-0.16,0-0.36-0.46-0.36,0.39
			s0.05,4.04,0.05,4.04s-0.4,0.41-0.32-1.06c-0.05-0.07-0.29-0.07-0.35,0.31c-0.06,0.38-0.45,0.4-0.44,0.09c0.02-0.31,0-2.37,0-2.37
			s0.22-0.13,0.17-0.28c-0.05-0.15-0.18-0.19-0.23-0.35c-0.05-0.17-0.02-1.39-0.02-1.39s-0.44,0.07-0.4,0.84
			c-0.02,0.74,0.03,0.81,0.2,0.94c0,1.28,0,1.61,0,1.61s-0.21,0.13-0.24-0.19c0.01-0.12-0.23-0.17-0.22-0.35
			c0.01-0.18,0-0.87,0-0.87s-0.45-0.14-0.45,0.45c0,0.59,0.19,0.79,0.31,0.86c0.12,0.07,0,1.49,0,1.49s-0.36,0.19-0.38-0.05
			c-0.04-0.12-0.4-0.27-0.48,0.09c-0.17,0.01-0.36-0.19-0.43-0.32c-0.07-0.13-1.03-0.73-1.41,0.02
			C25.76,41.96,26.14,42.32,25.99,42.41"/>
		<path class="st3" d="M30.63,36.42c0,0-0.86-0.41-0.95-0.5c-0.09-0.09-0.36-0.28-0.43-0.18C29.17,35.84,29.26,36.85,30.63,36.42"/>
		<path class="st3" d="M33.1,44.82c-0.2-0.03-0.65-0.1-0.75,0.02c-0.1,0.12,0.5,0.46,0.5,0.46s0,0-0.49,0.37
			c-0.49,0.37-0.18,0.58-0.18,0.58c0.14,0.09,1.12-0.48,1.76-0.83C34.6,45.08,33.3,44.85,33.1,44.82"/>
		<path class="st3" d="M30.97,44.48c-0.26-0.06-0.15,0.31-0.15,0.31c0.02,0.09-0.28,0.51-0.53,0.64c-0.25,0.12-0.31,0.59-0.3,1.94
			c0.02,1.35,0.36,1.07,0.36,1.07s0.04-1.61,0.04-2.35c0-0.74,0.67-0.79,1.22-0.81C32.34,45.09,31.23,44.54,30.97,44.48"/>
		<path class="st3" d="M26.19,45.63c0,0-0.07-1.35-0.51-1.29C25.57,44.66,25.75,45.84,26.19,45.63"/>
		<path class="st3" d="M27.51,45.71c0.01-0.02,0.04-0.18,0.56-0.46c0.52-0.28,0.02-0.69-0.17-0.72c0.11,0.26-0.24,0.5-0.42,0.57
			c-0.23-0.49-0.63-0.51-0.63-0.51c-0.38,0.44-0.25,0.65,0.14,0.89c0.39,0.24-0.32,0.53-0.86,0.74c-0.54,0.2-0.19,0.4-0.12,0.46
			C27.13,46.58,27.5,45.73,27.51,45.71"/>
		<path class="st3" d="M29.73,43.25c0,0-0.37,0.3-0.69,0.66c-0.39,0.94,0.61,0.8,0.61,0.8c-0.01,0.76,0.31,0.62,0.31,0.62
			s0.01-0.4,0.01-1.23C29.97,43.27,29.73,43.25,29.73,43.25"/>
		<path class="st3" d="M29.15,45.46c-0.19,0.42-0.72,0.31-0.72,0.31l-0.01,0.4c0,0,0,0,0.15,0.1c0.16,0.43-1.19,1-1.5,1.05
			c-0.31,0.05-0.45,0.15-0.38,0.44c1.53,0.22,2.63-1.7,2.81-2.01C29.69,45.43,29.35,45.41,29.15,45.46"/>
		<path class="st3" d="M30.97,46.63c-0.16,0.38-0.31,0.61,0.31,0.89c0.61,0.28,0.69-0.32,0.64-0.72
			C31.57,47.45,30.97,46.63,30.97,46.63"/>
		<path class="st3" d="M26.8,42.96c0,0.09,0.08,0.17,0.17,0.17c0.09,0,0.17-0.08,0.17-0.17c0-0.09-0.08-0.17-0.17-0.17
			C26.88,42.79,26.8,42.87,26.8,42.96"/>
		<path class="st3" d="M26.16,43.09c0,0.09,0.08,0.17,0.17,0.17c0.09,0,0.17-0.08,0.17-0.17c0-0.09-0.08-0.17-0.17-0.17
			C26.23,42.92,26.16,42.99,26.16,43.09"/>
		<path class="st0" d="M53.55,38.01c0,0,1.91-0.35,2.35,0.73c0,0,0.91,1.75-0.79,5.63c0,0-0.66-1.16-1.03-0.27
			c0,0-0.25,0.39,0.05,0.86c0,0-0.94-0.42-1.39-1.7C52.75,43.26,53.61,38.45,53.55,38.01z M54.89,41.81c0.41,0,0.75-0.62,0.75-1.39
			c0-0.77-0.33-1.39-0.75-1.39s-0.75,0.62-0.75,1.39C54.14,41.19,54.47,41.81,54.89,41.81z"/>
		<line class="st4" x1="20.93" y1="58.51" x2="20.52" y2="58.65"/>
		<line class="st4" x1="26.32" y1="56.76" x2="25.51" y2="57.02"/>
		<line class="st4" x1="36.27" y1="56.65" x2="35.84" y2="56.53"/>
		<line class="st4" x1="41.43" y1="58.1" x2="40.85" y2="57.94"/>
	</g>
	<g>
		<g>
			<path d="M63.14,29.61v7.48h-1.05v-7.48H63.14z"/>
			<path d="M67.24,37.16c-0.36,0-0.71-0.03-1.03-0.1c-0.32-0.07-0.62-0.17-0.9-0.31c-0.28-0.14-0.54-0.31-0.78-0.51l0.65-0.8
				c0.28,0.25,0.6,0.43,0.94,0.56s0.71,0.19,1.12,0.19c0.54,0,0.96-0.1,1.26-0.3c0.3-0.2,0.45-0.48,0.45-0.85v0
				c0-0.28-0.08-0.5-0.23-0.65c-0.15-0.15-0.35-0.26-0.59-0.34s-0.51-0.13-0.8-0.18c-0.28-0.05-0.57-0.1-0.85-0.17
				c-0.29-0.07-0.55-0.17-0.79-0.31s-0.43-0.34-0.58-0.6c-0.15-0.26-0.22-0.61-0.22-1.04v-0.01c0-0.7,0.23-1.23,0.69-1.62
				c0.46-0.38,1.12-0.57,1.96-0.57c0.4,0,0.79,0.06,1.18,0.19c0.38,0.13,0.76,0.32,1.12,0.59l-0.6,0.83
				c-0.29-0.21-0.57-0.37-0.85-0.47c-0.28-0.1-0.57-0.15-0.85-0.15c-0.51,0-0.91,0.1-1.19,0.31c-0.28,0.2-0.42,0.49-0.42,0.87v0
				c0,0.28,0.08,0.5,0.25,0.64c0.17,0.15,0.38,0.26,0.65,0.33c0.27,0.07,0.55,0.14,0.86,0.2c0.27,0.05,0.55,0.12,0.82,0.2
				s0.52,0.19,0.75,0.33c0.22,0.15,0.4,0.35,0.54,0.6c0.14,0.25,0.2,0.58,0.2,0.99v0.01c0,0.69-0.24,1.22-0.72,1.6
				C68.79,36.97,68.11,37.16,67.24,37.16z"/>
			<path d="M71.48,37.08v-7.48h1.05v7.48H71.48z M72,37.08v-1h4.28v1H72z"/>
			<path d="M76.79,37.08l2.76-7.48h0.89l2.76,7.48h-1.13L80,31.05l-2.07,6.03H76.79z M78.06,35.44v-1H82v1H78.06z"/>
			<path d="M87.51,34.54l2.2-4.94h0.98v7.48h-1.02v-5.6l0.05,0.33l-1.84,4.23h-0.73l-1.84-4.13l0.05-0.43v5.6h-1.02v-7.48h0.98
				L87.51,34.54z"/>
			<path d="M93.59,29.61v7.48h-1.05v-7.48H93.59z"/>
			<path d="M98.27,37.08v-7.48h1.04v7.48H98.27z M98.88,37.08v-0.97h2.03c0.56,0,0.95-0.11,1.18-0.32s0.35-0.49,0.35-0.84v-0.02
				c0-0.37-0.1-0.67-0.3-0.89c-0.2-0.22-0.52-0.33-0.97-0.33h-2.28v-0.95h2.28c0.39,0,0.68-0.09,0.88-0.28
				c0.2-0.18,0.3-0.45,0.3-0.8c0-0.37-0.11-0.65-0.33-0.84c-0.22-0.19-0.55-0.28-0.99-0.28h-2.14v-0.97h2.33
				c0.74,0,1.29,0.18,1.64,0.55c0.36,0.37,0.54,0.86,0.54,1.48c0,0.37-0.11,0.72-0.33,1.03c-0.22,0.31-0.56,0.51-1.03,0.59
				c0.46,0.07,0.82,0.27,1.08,0.61s0.38,0.73,0.38,1.17v0.02c0,0.61-0.2,1.1-0.59,1.48c-0.39,0.37-0.93,0.56-1.6,0.56H98.88z"/>
			<path d="M104.34,37.08l2.76-7.48H108l2.76,7.48h-1.13l-2.07-6.03l-2.07,6.03H104.34z M105.61,35.44v-1h3.93v1H105.61z"/>
			<path d="M111.88,37.08v-7.47h0.95l3.66,5.78l-0.12,0.13v-5.91h1.04v7.47h-0.96l-3.65-5.69l0.12-0.13v5.83H111.88z"/>
			<path d="M119.25,37.08v-7.48h1.05v7.48H119.25z M119.92,35.38l0.15-1.57l3.3-4.2h1.29L119.92,35.38z M123.7,37.08l-2.38-3.99
				l0.83-0.77l2.83,4.76H123.7z"/>
			<path d="M62.06,49.19v-7.16h1v7.16H62.06z M62.65,49.19v-0.93h1.94c0.53,0,0.91-0.1,1.13-0.3c0.22-0.2,0.33-0.47,0.33-0.8v-0.01
				c0-0.35-0.09-0.64-0.28-0.85s-0.5-0.32-0.93-0.32h-2.19v-0.91h2.19c0.37,0,0.65-0.09,0.84-0.26s0.28-0.43,0.28-0.77
				c0-0.36-0.11-0.63-0.32-0.8c-0.21-0.18-0.52-0.27-0.95-0.27h-2.05v-0.93h2.23c0.71,0,1.23,0.18,1.58,0.53
				c0.34,0.35,0.52,0.82,0.52,1.42c0,0.36-0.11,0.69-0.32,0.98c-0.21,0.3-0.54,0.49-0.99,0.57c0.44,0.07,0.79,0.26,1.03,0.59
				c0.24,0.33,0.37,0.7,0.37,1.12v0.01c0,0.58-0.19,1.06-0.57,1.41c-0.38,0.36-0.89,0.54-1.54,0.54H62.65z"/>
			<path d="M67.88,49.19l2.64-7.16h0.86l2.64,7.16h-1.08l-1.99-5.78l-1.99,5.78H67.88z M69.1,47.62v-0.96h3.77v0.96H69.1z"/>
			<path d="M75.1,49.19v-7.16h0.91l3.5,5.54l-0.12,0.13v-5.67h1v7.16h-0.92l-3.49-5.46l0.12-0.13v5.58H75.1z"/>
			<path d="M84.58,45.33h2.48v1.25c0,0.54-0.1,1.01-0.31,1.41c-0.21,0.4-0.5,0.71-0.87,0.94c-0.38,0.22-0.82,0.33-1.32,0.33
				c-0.51,0-0.95-0.1-1.33-0.31c-0.38-0.21-0.68-0.5-0.89-0.88c-0.21-0.38-0.32-0.82-0.32-1.33v-2.11c0-0.54,0.1-1.01,0.31-1.41
				c0.21-0.4,0.5-0.71,0.88-0.93c0.37-0.22,0.81-0.33,1.32-0.33c0.42,0,0.8,0.09,1.14,0.27c0.34,0.18,0.63,0.43,0.87,0.74
				c0.23,0.32,0.39,0.69,0.47,1.12h-1.09c-0.09-0.37-0.27-0.66-0.54-0.85s-0.55-0.3-0.85-0.3c-0.45,0-0.8,0.16-1.07,0.47
				s-0.4,0.72-0.4,1.23v2.11c0,0.47,0.14,0.84,0.41,1.12c0.28,0.28,0.64,0.42,1.09,0.42c0.45,0,0.8-0.15,1.07-0.44
				c0.27-0.29,0.4-0.71,0.4-1.24v-0.31h-1.45V45.33z"/>
			<path d="M88.69,49.19v-7.16h1.01v7.16H88.69z M89.2,49.19v-0.96h4.1v0.96H89.2z"/>
			<path d="M93.79,49.19l2.64-7.16h0.86l2.64,7.16h-1.08l-1.99-5.78l-1.99,5.78H93.79z M95.01,47.62v-0.96h3.77v0.96H95.01z"/>
			<path d="M101.01,49.19v-7.16h1.01v7.16H101.01z M101.69,49.19v-0.96h1.62c0.53,0,0.94-0.14,1.23-0.41
				c0.29-0.27,0.44-0.66,0.44-1.16v-2.11c0-0.5-0.15-0.89-0.44-1.16c-0.29-0.27-0.7-0.41-1.23-0.41h-1.62v-0.96h1.59
				c0.87,0,1.54,0.22,2.01,0.67s0.71,1.08,0.71,1.89v2.03c0,0.54-0.11,1-0.32,1.39c-0.21,0.38-0.52,0.67-0.93,0.88
				s-0.9,0.3-1.48,0.3H101.69z"/>
			<path d="M107.63,49.19v-7.16h1.01v7.16H107.63z M108.12,42.98v-0.96h4.11v0.96H108.12z M108.12,46.11v-0.96h3.57v0.96H108.12z
				 M108.12,49.19v-0.96h4.11v0.96H108.12z"/>
			<path d="M115.82,49.27c-0.35,0-0.68-0.03-0.98-0.1c-0.31-0.07-0.59-0.16-0.86-0.3c-0.27-0.13-0.52-0.3-0.75-0.49l0.63-0.77
				c0.27,0.24,0.57,0.41,0.9,0.53c0.33,0.12,0.69,0.18,1.07,0.18c0.52,0,0.92-0.1,1.21-0.29c0.29-0.19,0.43-0.46,0.43-0.81v0
				c0-0.27-0.07-0.48-0.22-0.63s-0.33-0.25-0.57-0.32c-0.24-0.07-0.49-0.13-0.77-0.17c-0.27-0.05-0.54-0.1-0.82-0.16
				s-0.53-0.16-0.76-0.29c-0.23-0.13-0.41-0.32-0.55-0.57c-0.14-0.25-0.21-0.58-0.21-1v0c0-0.67,0.22-1.18,0.67-1.55
				c0.44-0.37,1.07-0.55,1.88-0.55c0.38,0,0.76,0.06,1.13,0.18c0.37,0.12,0.73,0.31,1.07,0.56l-0.57,0.8
				c-0.27-0.2-0.54-0.35-0.82-0.45c-0.27-0.1-0.54-0.15-0.82-0.15c-0.49,0-0.87,0.1-1.14,0.29c-0.27,0.2-0.41,0.47-0.41,0.83v0
				c0,0.27,0.08,0.47,0.24,0.62c0.16,0.14,0.36,0.25,0.62,0.31s0.53,0.13,0.82,0.19c0.26,0.05,0.53,0.12,0.79,0.19
				c0.26,0.07,0.5,0.18,0.72,0.32c0.22,0.14,0.39,0.33,0.52,0.57s0.2,0.56,0.2,0.95v0.01c0,0.66-0.23,1.17-0.69,1.53
				S116.65,49.27,115.82,49.27z"/>
			<path d="M119.88,49.19v-7.16h1.01v7.16H119.88z M120.51,46.14v-0.96h3.98v0.96H120.51z M123.95,49.19v-7.16h1v7.16H123.95z"/>
		</g>
	</g>
</g>
</svg>
