<?xml version="1.0" encoding="utf-8"?>
<!-- Generator: Adobe Illustrator 28.1.0, SVG Export Plug-In . SVG Version: 6.00 Build 0)  -->
<svg version="1.1" id="Layer_1" xmlns="http://www.w3.org/2000/svg" xmlns:xlink="http://www.w3.org/1999/xlink" x="0px" y="0px"
	width="130" height="80" viewBox="0 0 130 80" style="enable-background:new 0 0 130 80;" xml:space="preserve">
<style type="text/css">
	.st0{fill:#183812;}
	.st1{clip-path:url(#SVGID_00000035518428706126846530000011118358227839114135_);}
	.st2{fill:#231F20;}
	.st3{fill:none;}
	.st4{fill:#CEA00E;}
</style>
<g>
	<g>
		<path class="st0" d="M45.7,22.4c0,0-1.6-0.3-1.9,0.6c0,0-0.7,1.4,0.7,4.6c0,0,0.5-1,0.8-0.2c0,0,0.2,0.3,0,0.7
			c0,0,0.8-0.3,1.1-1.4C46.3,26.8,45.6,22.8,45.7,22.4z M44.6,25.6c-0.3,0-0.6-0.5-0.6-1.1c0-0.6,0.3-1.1,0.6-1.1
			c0.3,0,0.6,0.5,0.6,1.1C45.2,25.1,44.9,25.6,44.6,25.6z"/>
		<path class="st0" d="M56.7,40.2l1.7,2c0.8-0.4,3.4-1.6,7.5-1.6c2.4,0,4.9,0.4,7.5,1.3l1.5-1.7c-2.3-1.3-5.6-2.1-9-2.1
			C62.3,38.1,59,38.8,56.7,40.2z M58.2,43.1l-2.5-3l0.3-0.2c2.4-1.5,6-2.4,9.8-2.4c3.8,0,7.3,0.9,9.7,2.4l0.3,0.2l-2.4,2.6l-0.2-0.1
			c-2.5-0.9-5.1-1.3-7.5-1.3c-4.7,0-7.4,1.6-7.4,1.7L58.2,43.1"/>
		<g>
			<path class="st0" d="M48,22.5h-2.5c0.6,7.7,5.2,14.1,11.6,17.1l3.8-1.2C53.9,36.5,48.6,30.2,48,22.5z M48.3,30.5l1.4-0.8l0.2,0.3
				l-1.4,0.8L48.3,30.5z M48.9,31.7c-0.3-0.6-0.1-0.8,0-0.9l0.2,0.3c-0.1,0-0.2,0.2,0,0.5c0.1,0.1,0.2,0.3,0.4,0.2
				c0.1-0.1,0.1-0.2,0-0.4l-0.1-0.2c-0.1-0.3-0.2-0.5,0.1-0.7c0.1-0.1,0.5-0.2,0.8,0.3c0.3,0.5,0.1,0.7-0.1,0.9l-0.2-0.3
				c0.1,0,0.2-0.2,0-0.4c-0.1-0.1-0.2-0.2-0.3-0.2c-0.1,0.1-0.1,0.2,0,0.2l0.1,0.4c0.1,0.2,0.1,0.5-0.1,0.6
				C49.4,32.2,49,31.8,48.9,31.7z M49.5,32.5l1.3-0.9l0.2,0.3l-1,0.8l0.5,0.7l-0.2,0.2L49.5,32.5z M51.4,34.8l-0.3-0.3l0.2-0.3
				l-0.4-0.5l-0.3,0.1l-0.3-0.3l1.6-0.6l0.3,0.3L51.4,34.8z M54.4,35.4l-1,1.2l-0.3-0.2l1-1.2L54.4,35.4z M54,35.1l-1.1,1.2L52.6,36
				l0.9-1l0,0l-1.2,0.7l-0.3-0.2l0.7-1.2l0,0l-0.9,1l-0.2-0.2l1.1-1.2l0.4,0.4l-0.6,1.1l0,0l1.1-0.7L54,35.1z"/>
			<polygon class="st0" points="51.2,33.6 51.5,34 51.8,33.4 51.8,33.4 			"/>
			<polygon class="st0" points="74.8,36.8 74.3,36.4 74.3,36.4 74.5,37.1 			"/>
			<path class="st0" d="M73.3,37.7l-0.4,0.2l0.2,0.4l0.4-0.2c0.2-0.1,0.2-0.2,0.1-0.3C73.6,37.6,73.5,37.6,73.3,37.7z"/>
			<polygon class="st0" points="79.5,32 78.9,31.8 78.9,31.8 79.3,32.3 			"/>
			<path class="st0" d="M80.4,30.2c-0.4-0.2-0.6,0-0.6,0.1l-0.2,0.3l0.9,0.5l0.2-0.3C80.8,30.6,80.6,30.3,80.4,30.2z"/>
			<path class="st0" d="M73.3,37.2c-0.1-0.1-0.2-0.1-0.3,0l-0.4,0.2l0.2,0.3l0.4-0.2C73.3,37.4,73.4,37.3,73.3,37.2z"/>
			<path class="st0" d="M81.5,22.7C80.8,30,76,35.9,69.7,38l3.8,1.1c5.8-3.1,10-9.2,10.6-16.4L81.5,22.7z M74,37.9
				c0,0.1-0.1,0.2-0.4,0.4L73,38.7l-0.8-1.4l0.7-0.4c0.4-0.2,0.6-0.1,0.7,0.1c0.1,0.2,0,0.3,0,0.4c0.2,0,0.4,0.1,0.4,0.2
				C74.1,37.7,74.1,37.8,74,37.9z M75.4,37.2L75.1,37l-0.5,0.4l0.1,0.3l-0.3,0.2l-0.4-1.7l0.3-0.2l1.4,0.9L75.4,37.2z M76.7,36.1
				l-1.3-0.4l0,0l0.7,0.9l-0.3,0.2l-1-1.2l0.3-0.3l1.3,0.4l0,0l-0.7-0.8l0.3-0.2l1,1.2L76.7,36.1z M78.2,34.7L78,34.6
				c0,0.1,0,0.3-0.2,0.6c-0.3,0.3-0.8,0.4-1.2,0c-0.3-0.3-0.4-0.8,0-1.2c0.4-0.4,0.7-0.3,0.9-0.2L77.3,34c0,0-0.3-0.1-0.5,0.1
				c-0.2,0.2-0.2,0.5,0.1,0.8c0.3,0.3,0.6,0.2,0.7,0c0.1-0.1,0.2-0.3,0-0.5l-0.3,0.3l-0.2-0.2l0.5-0.5l0.6,0.6L78.2,34.7z
				 M78.6,34.2l-1.2-1l0.2-0.3l1,0.8l0.6-0.7l0.2,0.2L78.6,34.2z M80.2,32.1L79.8,32l-0.4,0.5l0.2,0.3l-0.2,0.3l-0.9-1.4l0.2-0.3
				l1.7,0.4L80.2,32.1z M80.9,30.9l-0.4,0.7l-1.4-0.8l0.4-0.7c0.3-0.5,0.7-0.4,1-0.2C80.8,30.1,81.2,30.4,80.9,30.9z M81.4,30
				L80,29.4l0.6-1.2l0.3,0.1l-0.4,0.8l0.3,0.1l0.4-0.8l0.3,0.1l-0.4,0.8l0.4,0.2l0.4-0.9l0.3,0.1L81.4,30z M82.4,27.9
				c-0.2,0.6-0.6,0.6-0.8,0.5l0.1-0.3c0.1,0,0.3,0,0.4-0.3c0.1-0.2,0.1-0.4-0.1-0.4c-0.1,0-0.2,0.1-0.3,0.2l-0.1,0.2
				c-0.2,0.2-0.3,0.5-0.6,0.4c-0.2-0.1-0.4-0.3-0.2-0.8c0.2-0.5,0.5-0.5,0.7-0.5l-0.1,0.3c-0.1,0-0.2,0-0.4,0.3
				c0,0.1-0.1,0.3,0.1,0.4c0.1,0,0.2,0,0.2-0.1l0.2-0.4c0.1-0.2,0.3-0.4,0.6-0.3C82.6,27.3,82.4,27.8,82.4,27.9z M82.8,26.7L82.7,27
				l-1.5-0.5l0.1-0.4l0.6,0.2l0.2-0.7l-0.6-0.2l0.1-0.4l1.5,0.5L83,26l-0.7-0.2l-0.2,0.7L82.8,26.7z"/>
		</g>
		<g>
			<defs>
				<rect id="SVGID_1_" x="58.9" y="41.5" width="2.6" height="1.8"/>
			</defs>
			<clipPath id="SVGID_00000104683553106895713890000012773629746370212001_">
				<use xlink:href="#SVGID_1_"  style="overflow:visible;"/>
			</clipPath>
			<g style="clip-path:url(#SVGID_00000104683553106895713890000012773629746370212001_);">
				<path class="st0" d="M61.4,41.5c0,0-0.6,3-2.5,1.2"/>
			</g>
		</g>
		<path class="st0" d="M72.1,42.1c0,0-2.3,2-2.8-0.7"/>
		<path class="st2" d="M62,40.1l0.5-0.1c0.1,0,0.3,0,0.3,0.1c0,0.1-0.1,0.2-0.3,0.3l-0.5,0.1L62,40.1 M61.7,40.7l0.8-0.2
			c0.4-0.1,0.5-0.1,0.6-0.2c0.1-0.1,0.1-0.2,0.1-0.3c0-0.1-0.1-0.2-0.4-0.3c0.1,0,0.2-0.1,0.2-0.3c0-0.1-0.2-0.3-0.7-0.2l-1,0.2
			L61.7,40.7 M61.9,39.6l0.5-0.1c0.2,0,0.3,0,0.3,0.1c0,0.1-0.1,0.2-0.3,0.2L62,39.8L61.9,39.6"/>
		<path class="st2" d="M64.3,39.3L64.3,39.3l0.3,0.5l-0.5,0L64.3,39.3 M64,40.1l0.7-0.1l0.2,0.3l0.5,0l-0.8-1.3L64,39l-0.6,1.4
			l0.4,0L64,40.1"/>
		<path class="st2" d="M66.8,38.9h0.4l0,1.3h-0.4l-0.8-1h0l0,1h-0.4l0-1.3H66l0.8,0.9l0,0L66.8,38.9"/>
		<path class="st2" d="M68,40.3l-0.4,0l0.2-1.3l0.4,0l-0.1,0.5l0.8-0.4l0.5,0.1l-0.9,0.4l0.8,0.9l-0.5-0.1l-0.5-0.7L68,39.8L68,40.3
			"/>
		<path class="st2" d="M51.4,23.1l0.3,0.5l0.6,0.1l-0.4,0.4l0.1,0.6l-0.5-0.2l-0.5,0.3l0.1-0.6l-0.4-0.4l0.6-0.1L51.4,23.1"/>
		<path class="st2" d="M53.2,26.1C53.2,26.1,53.2,26.1,53.2,26.1c0.1,0.1,0.1,0.2,0.1,0.3c-0.1-0.1-0.1-0.1-0.2-0.1S53,26.4,53,26.4
			c0,0.1,0,0.1,0,0.1c0,0,0,0.1,0.1,0.2c0.1,0.1,0.1,0.2,0.1,0.3c0.1,0.2,0.2,0.4,0.2,0.6c0,0.2-0.1,0.4-0.3,0.4l0.1,0.1l-0.1,0.4
			l-0.5-1c0,0,0,0.1,0,0.2c0,0.1,0,0.3-0.1,0.4c-0.1,0.1-0.2,0.2-0.3,0.3c-0.2,0.1-0.5,0-0.7-0.3c0,0.1,0,0.2,0,0.3
			c0,0.1,0,0.2,0,0.3l-0.1,0.4L51,29.4c0.1-0.4,0.2-0.8,0.2-1.1c0-0.3,0-0.6-0.1-0.9l0.4-0.6c0,0.3,0,0.6,0.1,0.8
			c0,0.1,0.1,0.1,0.1,0.2c0.1,0.1,0.1,0.1,0.1,0.2c0,0,0.1,0.1,0.2,0.1c0,0,0,0,0.1,0c0.1,0,0.1-0.1,0.1-0.1c0-0.1,0-0.1,0-0.2
			c-0.1,0-0.2,0-0.3-0.1c-0.1,0-0.1-0.1-0.2-0.2c0-0.1,0-0.1,0-0.2c0-0.1,0-0.1,0.1-0.1c0,0,0.1,0,0.2,0c0.1,0,0.1,0,0.2,0.1
			c0,0,0.1,0.1,0.1,0.1c0,0,0.1,0.1,0.1,0.1l0-0.1l-0.3-0.6l0.1-0.4l0.6,1.4c0,0.1,0.1,0.1,0.1,0.1c0,0,0.1,0,0.1,0.1h0
			c0,0,0,0,0-0.1c0-0.1,0-0.1-0.1-0.2c0-0.1-0.1-0.2-0.2-0.4c0-0.1-0.1-0.1-0.1-0.1c-0.1-0.2-0.1-0.4-0.1-0.6c0-0.1,0.1-0.2,0.2-0.3
			C53,26.1,53.1,26.1,53.2,26.1C53.2,26.1,53.2,26.1,53.2,26.1"/>
		<path class="st2" d="M53.5,29.1l0.4,0.6L53.5,30c0-0.2,0-0.3,0-0.4c0,0-0.1-0.1-0.2-0.1l-0.1,0C53.4,29.4,53.5,29.2,53.5,29.1
			 M54.4,30.4l0-0.4l-1.3-2l0,0.4v0.1c0,0,0,0.1,0,0.1c0,0.1,0,0.2,0.1,0.3c0.1,0.1,0.1,0.2,0.1,0.3c0,0.1-0.1,0.2-0.2,0.3l-0.3,0
			c-0.1,0-0.2,0-0.2-0.1c0,0,0-0.1,0-0.1c0,0,0.1-0.1,0.1-0.2l-0.3-0.1c-0.1,0.3-0.2,0.5-0.2,0.5c0,0,0,0.1,0.1,0.2c0,0,0,0.1,0,0.1
			c0,0.1,0.3,0.1,0.7,0.1c0.1,0,0.2,0,0.2,0.1c0,0,0,0.1,0,0.2c0,0.1,0,0.1,0,0.1l-0.7,0.5l-0.1,0.4l1.6-1.1L54.4,30.4"/>
		<path class="st2" d="M55.6,31.6l-1.4,1.3l0-0.4l0.8-0.7c0,0,0-0.1,0-0.1c0-0.1,0-0.1-0.1-0.2c0,0-0.1,0-0.1,0c0,0-0.1,0.1-0.2,0.2
			l-0.2-0.1c0.1,0,0.1,0,0.1-0.1c0-0.1,0-0.1,0-0.2c0-0.1,0-0.2-0.1-0.3c-0.1-0.1-0.1-0.1-0.2-0.1c-0.1,0-0.2,0-0.2,0.1
			c-0.1,0.1-0.1,0.1,0,0.2c0,0,0,0,0-0.1c0,0,0.1-0.1,0.2-0.1c0.1,0,0.1,0,0.2,0.1c0.1,0.1,0.1,0.2,0,0.3c0,0.1-0.1,0.2-0.1,0.2
			c-0.1,0-0.3,0-0.4-0.1c-0.1-0.1-0.2-0.3-0.2-0.4c0-0.2,0-0.3,0.2-0.4c0.1-0.1,0.2-0.1,0.4-0.2c0.2,0,0.3,0,0.4,0.2
			c0.1,0.1,0.2,0.3,0.2,0.4v0c0,0,0.1,0,0.2,0c0.1,0,0.1,0,0.2,0.1c0.1,0.1,0.1,0.1,0.1,0.2c0,0,0,0.1,0,0.1c0,0,0,0,0,0l0.2-0.2
			l-1.1-1.2l0-0.4l1.6,1.7l0,0.4L55.6,31.6"/>
		<path class="st2" d="M56.1,31.9L56.1,31.9c0.1-0.1,0.2-0.3,0.3-0.4l0.1,0.2c0,0.1-0.1,0.1-0.1,0.2c0,0,0,0,0,0.1l0.1,0.1l0.1,0.4
			l-0.3-0.3l-1.3,1.5l0-0.4l0.9-1.1c0,0,0-0.1,0-0.1c0-0.1,0-0.1,0-0.2c0-0.1-0.1-0.1-0.1-0.2c0,0,0,0-0.1,0l-0.1-0.4
			c0.1,0.1,0.2,0.1,0.2,0.2C56,31.6,56.1,31.7,56.1,31.9"/>
		<path class="st2" d="M56.9,34c0-0.1-0.1-0.3-0.1-0.3c0,0,0.1-0.1,0.1-0.1c0.1-0.1,0.1-0.3,0.1-0.4c0-0.1,0-0.2,0-0.3
			c0,0,0-0.1-0.1-0.3l0.7,0.4L56.9,34 M56.5,32.7c0.1,0.1,0.2,0.2,0.2,0.3c0,0.1,0,0.2,0,0.3c0,0,0,0-0.1-0.1
			c-0.1-0.1-0.3-0.1-0.4-0.1c-0.1,0-0.2,0.1-0.2,0.1c0,0,0,0,0,0.1c0,0.1,0,0.1,0,0.1c0,0,0,0.1,0,0.1c0,0.1,0.1,0.2,0.2,0.2
			c0.1,0.1,0.3,0.1,0.4,0.1c0,0.1,0.1,0.2,0.1,0.3c0,0.1,0,0.2,0,0.3c0,0,0,0.1-0.1,0.2l0.1,0.3l1.1-1.6l0.4,0.2l-0.1-0.4l-1.8-1.2
			l0.1,0.4l0,0.1c0,0.1,0,0.1,0,0.2C56.4,32.6,56.5,32.7,56.5,32.7"/>
		<path class="st2" d="M58.5,33.7l-0.9,1.7L57.4,35l0.8-1.5L58,33.4L57.8,33l0.5,0.3l0-0.1c0-0.1,0-0.2,0-0.3c0-0.1-0.1-0.2-0.1-0.3
			c0,0-0.1-0.1-0.2-0.2c-0.1-0.1-0.2-0.2-0.3-0.2c-0.1,0-0.2-0.1-0.3-0.1c-0.2,0-0.2,0-0.3,0c0,0,0,0.1,0.1,0.1
			c0.1,0.1,0.2,0.1,0.3,0.2c0.1,0.1,0.3,0.2,0.3,0.2c0.1,0.1,0.1,0.1,0.1,0.2c0,0.1,0,0.2,0,0.2c0,0,0,0.1-0.1,0.1l-0.4-0.2
			c0.2,0,0.2,0,0.3-0.1c0,0,0-0.1-0.2-0.2c-0.1-0.1-0.2-0.1-0.3-0.2c-0.1-0.1-0.2-0.2-0.3-0.3c-0.1-0.1-0.1-0.2,0-0.3
			c0-0.1,0.1-0.1,0.2-0.1c0.2,0,0.4,0,0.6,0.1c0,0,0.1,0,0.1,0c0.1,0.1,0.3,0.2,0.4,0.3c0.1,0.1,0.1,0.2,0.2,0.3
			c0,0.1,0.1,0.2,0.1,0.3c0,0.1,0,0.2,0,0.3l0,0.1l0.2,0.1l0.1,0.4L58.5,33.7"/>
		<path class="st2" d="M60.7,35.8c-0.1-0.2-0.3-0.5-0.5-0.6c0.3-0.1,0.5-0.1,0.7-0.1L60.7,35.8 M61.8,34.9l-0.2-0.4l-2-0.6l0.2,0.4
			l1.3,0.4l0,0c-0.5,0-0.9,0-1.4,0.2l0.2,0.5c0.2,0.1,0.3,0.2,0.5,0.3c0.2,0.2,0.3,0.4,0.3,0.7l0.1,0.3l0.6-1.9L61.8,34.9"/>
		<path class="st2" d="M62.6,35c-0.1,0-0.1,0-0.2,0c-0.1,0-0.1,0.1-0.1,0.1c0,0,0,0.1,0,0.1c0,0.1,0,0.3,0,0.4c0,0.3,0,0.5,0,0.5
			c0,0.2-0.2,0.4-0.5,0.5c-0.1,0-0.2,0-0.3,0c-0.1,0-0.1,0-0.1-0.1c0,0,0,0,0,0c0,0,0-0.1,0.1-0.1l0.1,0c0.1,0,0.2-0.1,0.2-0.1
			c0,0,0.1-0.1,0.1-0.2c0,0,0-0.2,0-0.4c0-0.2,0-0.3,0-0.4c0-0.1,0.1-0.3,0.2-0.4c0.1,0,0.1-0.1,0.2-0.1l-0.5-0.1l-0.3-0.3l1.2,0.2
			l0.3,0.3C62.7,35,62.6,35,62.6,35"/>
		<path class="st2" d="M62.9,34.9L62.9,34.9c0-0.2,0-0.4,0-0.6l0.2,0.1c0,0.1,0,0.1,0,0.2c0,0,0,0,0,0l0.1,0l0.3,0.3l-0.4,0l-0.2,2
			l-0.3-0.3l0.2-1.4c0-0.1,0-0.1,0-0.1c0-0.1,0-0.1-0.1-0.2S62.6,35,62.5,35c0,0,0,0-0.1,0l-0.3-0.3c0.1,0,0.2,0,0.3,0
			C62.7,34.7,62.9,34.8,62.9,34.9"/>
		<path class="st2" d="M64.3,35.3c0,0,0,0.1,0,0.1c0,0-0.1,0.1-0.1,0.1c-0.1,0-0.1,0.1-0.2,0.1c0,0-0.1,0-0.1-0.1
			c0-0.1,0-0.1,0.1-0.2c0.1-0.1,0.2-0.1,0.3-0.1C64.2,35.2,64.3,35.3,64.3,35.3 M64.6,35.5c0-0.1,0-0.2-0.1-0.3
			c-0.1-0.1-0.2-0.2-0.4-0.2c-0.1,0-0.3,0-0.4,0.1c-0.1,0.1-0.2,0.2-0.2,0.3c0,0.1,0,0.2,0.1,0.3c0.1,0.1,0.2,0.1,0.4,0.2
			c0.1,0,0.1,0,0.2,0c0.1,0,0.1-0.1,0.2-0.1C64.5,35.7,64.6,35.6,64.6,35.5 M64.9,37.3l0-0.3c-0.3-0.4-0.6-0.6-0.7-0.7
			c-0.2-0.2-0.4-0.3-0.6-0.5l0,0.5c0.5,0.3,0.8,0.5,0.9,0.7L64.9,37.3"/>
		<path class="st2" d="M66.1,36.2c-0.2-0.2-0.4-0.3-0.6-0.4c0.1-0.1,0.2-0.1,0.2-0.1c0.1-0.1,0.2-0.1,0.4-0.2L66.1,36.2 M66.7,35.7
			c0,0-0.1,0-0.1,0c-0.1,0.1-0.1,0.2-0.1,0.2s0,0.1,0.1,0.2c0.1,0,0.1,0.1,0.2,0.1c0.1,0,0.2-0.1,0.3-0.1c0.1-0.1,0.1-0.2,0.1-0.3
			c0-0.2-0.1-0.4-0.4-0.6c-0.2-0.1-0.3-0.2-0.5-0.1l0,0l1-0.1l-0.3-0.2l-2.6,0.3l0.4,0.2l1.3-0.1l0,0.1c-0.4,0.2-0.8,0.4-1.2,0.7
			l0.4,0.3c0.3,0,0.6,0.1,0.8,0.3c0.1,0.1,0.1,0.1,0.2,0.2c0,0,0.1,0.1,0.1,0.2l0.2,0.1l-0.2-1.5c0.1,0,0.3,0,0.4,0.1
			c0.1,0.1,0.1,0.1,0.2,0.2C66.8,35.7,66.8,35.7,66.7,35.7"/>
		<path class="st2" d="M69.9,35.3c-0.2-0.1-0.5-0.2-0.8-0.2c0.2-0.2,0.3-0.4,0.5-0.5L69.9,35.3 M70.2,33.9l-0.4-0.1l-2,0.7l0.4,0.1
			l1.3-0.5l0,0c-0.4,0.3-0.7,0.6-1,1l0.4,0.3c0.2-0.1,0.4-0.1,0.6,0c0.3,0,0.5,0.1,0.7,0.4l0.3,0.2l-0.7-1.9L70.2,33.9"/>
		<path class="st2" d="M70.2,33.7L70.2,33.7c-0.1-0.1-0.2-0.3-0.3-0.5l0.2,0c0,0.1,0.1,0.1,0.1,0.2c0,0,0,0,0.1,0l0.1-0.1l0.4,0.1
			l-0.4,0.2l0.9,1.8L71,35.4l-0.6-1.3c0,0,0-0.1-0.1-0.1c0,0-0.1-0.1-0.2-0.1c-0.1,0-0.1,0-0.2,0c0,0,0,0-0.1,0L69.4,34
			c0.1-0.1,0.2-0.1,0.3-0.2C69.9,33.7,70.1,33.7,70.2,33.7"/>
		<path class="st2" d="M71.5,33.4C71.6,33.4,71.6,33.5,71.5,33.4c0,0.1,0,0.2,0,0.3c0,0.1-0.1,0.1-0.1,0.1s-0.1,0-0.1,0
			c0-0.1-0.1-0.1,0-0.2c0-0.1,0.1-0.2,0.2-0.2C71.5,33.3,71.5,33.3,71.5,33.4 M71.8,33.3c-0.1-0.1-0.2-0.2-0.3-0.2
			c-0.1,0-0.3,0-0.4,0.1c-0.1,0.1-0.2,0.2-0.2,0.3s0,0.3,0,0.4c0.1,0.1,0.2,0.2,0.3,0.2c0.1,0,0.3,0,0.4-0.1c0.1,0,0.1-0.1,0.1-0.1
			c0,0,0.1-0.1,0.1-0.2C71.9,33.5,71.9,33.4,71.8,33.3 M73.1,34.7L73,34.5c-0.5-0.1-0.8-0.2-1-0.3c-0.3,0-0.5-0.1-0.7-0.1l0.3,0.5
			c0.6,0,0.9,0,1.1,0L73.1,34.7"/>
		<path class="st2" d="M73.3,31.8l1.2,1.5l-0.4,0l-0.7-0.8c0,0-0.1,0-0.1,0c-0.1,0-0.1,0-0.2,0c0,0,0,0.1,0,0.1c0,0,0.1,0.1,0.1,0.2
			L73.1,33c0-0.1,0-0.1-0.1-0.1c-0.1,0-0.1,0-0.2,0c-0.1,0-0.2,0-0.3,0.1c-0.1,0.1-0.1,0.1-0.1,0.2c0,0.1,0,0.2,0,0.2
			c0.1,0.1,0.1,0.1,0.2,0.1c0,0,0,0,0,0c0,0-0.1-0.1,0-0.2c0-0.1,0.1-0.1,0.1-0.2c0.1-0.1,0.2-0.1,0.3,0c0.1,0.1,0.1,0.1,0.2,0.2
			c0,0.1,0,0.3-0.2,0.4c-0.1,0.1-0.3,0.2-0.5,0.2s-0.3-0.1-0.4-0.2c-0.1-0.1-0.1-0.2-0.1-0.4c0-0.2,0.1-0.3,0.2-0.4
			c0.1-0.1,0.3-0.2,0.4-0.1h0c0,0,0-0.1,0-0.2c0-0.1,0-0.1,0.1-0.1c0.1-0.1,0.2-0.1,0.2-0.1c0,0,0.1,0,0.1,0c0,0,0,0,0,0L73.1,32
			l-1.3,1l-0.4,0l1.9-1.5l0.4,0L73.3,31.8"/>
		<path class="st2" d="M73.6,31.3L73.6,31.3c-0.1-0.1-0.3-0.2-0.4-0.4l0.2,0c0.1,0,0.1,0.1,0.2,0.1c0,0,0,0,0.1,0l0.1-0.1l0.4,0
			l-0.3,0.3l1.4,1.4l-0.4,0l-1-1c0,0-0.1,0-0.1-0.1c-0.1,0-0.1,0-0.2,0c-0.1,0-0.1,0-0.2,0.1c0,0,0,0,0,0l-0.4,0
			c0.1-0.1,0.2-0.2,0.2-0.2C73.3,31.4,73.5,31.3,73.6,31.3"/>
		<path class="st2" d="M74.8,30.5c0,0.3,0,0.5,0.2,0.7c0.1,0.1,0.2,0.2,0.2,0.2c0.2,0.1,0.4,0.2,0.6,0.1c0,0,0,0,0.1-0.1
			c0,0,0,0,0,0c0,0,0,0,0,0.1c0,0,0-0.1,0-0.1l0,0l0,0c-0.1,0-0.1,0-0.2,0c-0.1-0.1-0.1-0.2-0.1-0.3c0,0,0-0.1,0.1-0.1
			c0,0,0.1-0.1,0.1-0.1c0.1,0,0.2,0,0.3,0c0.1,0.1,0.1,0.2,0.1,0.3c0,0.1,0,0.2-0.1,0.3c-0.2,0.2-0.4,0.3-0.6,0.2
			c-0.2,0-0.4-0.1-0.6-0.3c-0.2-0.2-0.4-0.5-0.4-0.8L74.1,31l-0.4,0.1l1-1.1l0.4-0.1C74.9,30.1,74.8,30.3,74.8,30.5"/>
		<path class="st2" d="M75.7,30L75.7,30l0-0.4c0-0.2,0-0.4,0.1-0.7l0.5-0.2c0.1,0.3,0.3,0.5,0.4,0.6c0.1,0.1,0.3,0.2,0.3,0.2
			c0,0,0.1,0.1,0.4,0.2l0.1,0l-0.2,0.2c-0.4-0.1-0.6-0.2-0.7-0.3c-0.1-0.1-0.2-0.2-0.3-0.3c-0.1,0.4,0,0.7,0.2,1l-0.5,0.1L75,29.9
			l-0.1,0.2l-0.4,0.1l1.2-1.8l0.4-0.1l-0.9,1.4L75.7,30"/>
		<path class="st2" d="M77.3,27.4L77.3,27.4c0,0,0,0.1,0,0.1c0,0.1,0,0.1,0,0.2c0,0.1-0.1,0.2-0.3,0.2c0.1,0.1,0.1,0.3,0,0.4
			c-0.1,0.1-0.2,0.2-0.3,0.2c0,0-0.1,0-0.1,0c-0.1-0.1-0.2-0.2-0.2-0.3c0,0,0-0.1,0-0.1c0,0-0.1,0-0.1,0c-0.1,0-0.1,0.1-0.1,0.2
			c0-0.1,0,0-0.1,0.2l-0.4,0.2l0.2-0.5c0-0.1,0.1-0.2,0.2-0.2c0.1,0,0.1-0.1,0.3-0.1c-0.1-0.1-0.1-0.3-0.1-0.5c0-0.1,0-0.1,0-0.1
			c0-0.1,0.2-0.2,0.6-0.3l0,0l-0.4-0.1l-0.4-0.2c0.1-0.1,0.2-0.1,0.3-0.1c0,0,0.1,0,0.1,0c0,0,0,0,0,0c0,0,0.1,0,0.1-0.1l0.4-0.2
			l-0.2,0.4l1.8,0.8l-0.4,0.2l-1.1-0.5c0,0-0.1,0-0.3,0c-0.1,0-0.2,0.1-0.2,0.1c0,0.1,0,0.1,0,0.2c0.1-0.1,0.2-0.1,0.2-0.1
			c0.1,0,0.2,0,0.2,0C77.2,27.3,77.3,27.4,77.3,27.4"/>
		<path class="st2" d="M78.4,23.3l0.3,0.5l0.6,0.1l-0.4,0.4l0.1,0.6l-0.5-0.2l-0.5,0.3l0.1-0.6l-0.4-0.4l0.6-0.1L78.4,23.3"/>
		<path class="st0" d="M64.7,6C56,6,49,13.1,49,21.7S56,37.5,64.7,37.5s15.7-7.1,15.7-15.7S73.4,6,64.7,6z M64.7,38.1
			c-9,0-16.4-7.4-16.4-16.4S55.7,5.3,64.7,5.3s16.4,7.4,16.4,16.4C81.1,30.8,73.7,38.1,64.7,38.1"/>
		<path class="st0" d="M59,32.2c0,0-10.4-6.6-3.2-17.3c0,0,3-4.4,8.9-4.3c0,0,7.7-0.7,11.2,7.9c0,0,3.1,9.2-5.1,13.8l-0.1-12.6
			c0,0,0.2-1.1-1.1-1.8c0,0,0-2.5-1.6-3c0,0-2.2-1.5-3.2-3.5c0,0-1,2-3.6,3.7c0,0-1.3,0.2-1.1,2.8c0,0-1.1,0.7-0.9,2.7L59,32.2"/>
		<path class="st2" d="M52.3,20.5c-0.1,0.5-0.1,0.8-0.1,1.3c0,0.1,0,0.2-0.1,0.3c0,0.1-0.1,0.1-0.1,0.1c0,0-0.1,0-0.1,0
			s-0.1,0-0.1,0c0,0,0,0,0-0.1c0,0,0.1-0.1,0.1-0.1c0,0,0-0.1,0-0.2c0-0.5,0-0.7,0.1-1.1c-0.2,0-0.4,0-0.5,0.1
			c-0.2,0.1-0.3,0.3-0.4,0.6c-0.1,0-0.2,0-0.3,0c0.1-0.4,0.3-0.6,0.5-0.7c0.2-0.1,0.4-0.1,0.7-0.1C52.1,20.5,52.1,20.5,52.3,20.5"/>
		<path class="st2" d="M51.8,22.2C51.8,22.2,51.8,22.2,51.8,22.2c0.1,0,0.1,0,0.2,0h0c0,0,0.1,0,0.1-0.1c0-0.1,0.1-0.2,0.1-0.3
			c0-0.5,0-0.8,0.1-1.3l-0.2,0c-0.3,0-0.5,0-0.7,0.1c-0.2,0.1-0.4,0.3-0.5,0.7c0.1,0,0.1,0,0.2,0c0.1-0.3,0.2-0.5,0.4-0.6
			c0.1-0.1,0.3-0.1,0.6-0.1h0l0,0c0,0.5-0.1,0.7-0.1,1.1c0,0.1,0,0.2,0,0.2C51.8,22.1,51.8,22.2,51.8,22.2L51.8,22.2L51.8,22.2z
			 M51.9,22.3c0,0-0.1,0-0.1,0c0,0-0.1,0-0.1,0l0,0v-0.1l0,0c0,0,0.1,0,0.1-0.1c0,0,0-0.1,0-0.2c0-0.5,0-0.7,0.1-1.1
			c-0.2,0-0.3,0-0.4,0.1c-0.2,0.1-0.3,0.3-0.4,0.6l0,0l0,0c-0.1,0-0.2,0-0.3,0l-0.1,0l0-0.1c0.1-0.4,0.3-0.6,0.6-0.8
			c0.2-0.1,0.4-0.2,0.7-0.1l0.3,0l0,0c-0.1,0.5-0.1,0.8-0.1,1.3c0,0.1,0,0.2-0.1,0.3C52.1,22.3,52,22.3,51.9,22.3
			C52,22.3,52,22.3,51.9,22.3"/>
		<path class="st2" d="M50.8,18.9c0.1,0.1,0.1,0.2,0.2,0.3c-0.1,0.2-0.1,0.3-0.2,0.5c-0.1-0.1-0.1-0.2-0.2-0.3
			C50.7,19.2,50.7,19.1,50.8,18.9z M50.8,19.6c0.1,0.1,0.1,0.2,0.2,0.3c-0.1,0.2-0.1,0.3-0.2,0.5c-0.1-0.1-0.1-0.1-0.2-0.2
			C50.7,19.9,50.7,19.8,50.8,19.6z M52.5,19.2c-0.1,0.6-0.2,0.9-0.2,1.6c-0.1,0-0.2,0-0.3,0c0.1-0.6,0.1-0.9,0.2-1.4
			c-0.1,0-0.2,0-0.3,0c-0.1,0-0.1,0.1-0.3,0.2c-0.1-0.1-0.1-0.2-0.2-0.3c0.1-0.1,0.2-0.2,0.3-0.2c0.1,0,0.3,0,0.5,0
			C52.2,19.1,52.3,19.1,52.5,19.2"/>
		<path class="st2" d="M50.7,19.4c0,0.1,0.1,0.1,0.1,0.2c0.1-0.1,0.1-0.2,0.2-0.4c0-0.1-0.1-0.1-0.1-0.2
			C50.8,19.1,50.7,19.2,50.7,19.4z M50.7,20.1c0,0.1,0.1,0.1,0.1,0.2c0.1-0.1,0.1-0.2,0.2-0.4c0-0.1-0.1-0.1-0.1-0.2
			C50.8,19.9,50.7,20,50.7,20.1z M50.8,20.5L50.8,20.5c-0.1-0.2-0.2-0.2-0.2-0.3l0,0l0,0c0.1-0.2,0.1-0.3,0.2-0.4l0,0
			c-0.1-0.1-0.1-0.2-0.2-0.3l0,0l0,0c0.1-0.2,0.1-0.3,0.2-0.5l0-0.1l0,0.1C50.9,19,51,19,51,19.1l0,0l0,0c-0.1,0.2-0.1,0.2-0.2,0.4
			l0,0c0.1,0.1,0.1,0.1,0.2,0.3l0,0l0,0C50.9,20.1,50.9,20.2,50.8,20.5L50.8,20.5z M52,20.7l0.2,0c0.1-0.6,0.1-0.9,0.2-1.5
			c-0.1,0-0.2,0-0.3-0.1c-0.2,0-0.3,0-0.4,0c0,0-0.1,0-0.2,0.2c0.1,0.1,0.1,0.1,0.2,0.2c0.1-0.1,0.2-0.2,0.2-0.2
			c0.1,0,0.2-0.1,0.4,0l0,0l0,0C52.1,19.9,52,20.1,52,20.7z M52.3,20.8l-0.4,0l0,0c0.1-0.6,0.1-0.8,0.2-1.4c-0.1,0-0.2,0-0.2,0
			c0,0-0.1,0.1-0.3,0.2l0,0l0,0c-0.1-0.1-0.1-0.2-0.2-0.3l0,0l0,0c0.1-0.1,0.2-0.2,0.3-0.2c0.1,0,0.3,0,0.5,0c0.2,0,0.2,0,0.4,0.1
			l0,0l0,0C52.4,19.8,52.3,20.1,52.3,20.8L52.3,20.8"/>
		<path class="st2" d="M52.6,17.3c-0.1,0-0.1,0-0.2,0c-0.1,0-0.2,0.1-0.2,0.1c0,0,0,0.2,0,0.2c0,0,0.1,0.2,0.1,0.2
			c0,0,0.1-0.1,0.2-0.2C52.6,17.5,52.6,17.4,52.6,17.3C52.7,17.3,52.6,17.3,52.6,17.3z M53,17.1c0,0.1-0.1,0.1-0.1,0.3
			c0,0.1-0.1,0.2-0.2,0.4c-0.1,0.1-0.3,0.3-0.3,0.4c0,0.1,0.1,0.2,0.1,0.3c0,0.1,0,0.3-0.1,0.5c0,0.2-0.1,0.2-0.1,0.4
			c-0.1,0-0.2,0-0.3,0c0-0.2,0-0.3,0.1-0.4c0-0.2,0-0.3,0-0.5c0-0.1,0-0.2-0.1-0.3c-0.1-0.1-0.1-0.3-0.1-0.5c0-0.2,0-0.4,0-0.4
			c0.1-0.1,0.3-0.1,0.4-0.2c0.2,0,0.3-0.1,0.3,0C52.9,17.1,52.9,17.1,53,17.1"/>
		<path class="st2" d="M52.6,17.3c0,0-0.1,0-0.1,0c0,0-0.2,0.1-0.2,0.1c0,0,0,0.1,0,0.2c0,0,0,0.1,0,0.1c0,0,0.1-0.1,0.1-0.2
			C52.5,17.5,52.6,17.4,52.6,17.3z M52.3,17.9c-0.1,0-0.1-0.2-0.1-0.2c0,0,0-0.2,0-0.3c0-0.1,0.1-0.1,0.2-0.1c0.1,0,0.2,0,0.2,0h0
			l0,0.1l0,0c0,0.1-0.1,0.2-0.2,0.3C52.5,17.7,52.3,17.9,52.3,17.9z M52.2,19.3l0.2,0c0-0.1,0-0.2,0.1-0.4c0-0.2,0.1-0.4,0.1-0.5
			c0,0,0-0.1,0-0.2c0-0.1,0-0.1,0-0.2c0,0,0-0.1,0.1-0.2c0.1-0.1,0.1-0.1,0.2-0.2c0.1-0.1,0.1-0.2,0.2-0.4c0-0.1,0-0.1,0.1-0.2
			l-0.2-0.1c-0.1,0-0.2,0-0.3,0l0,0c-0.1,0-0.3,0.1-0.3,0.1c0,0,0,0.1,0,0.4c0,0.2,0.1,0.3,0.1,0.5c0,0.1,0.1,0.2,0.1,0.3
			c0,0.1,0,0.3,0,0.5C52.2,19,52.2,19.1,52.2,19.3z M52.5,19.4l-0.4-0.1l0,0c0-0.2,0-0.3,0.1-0.4c0-0.2,0-0.3,0-0.4
			c0-0.1,0-0.2-0.1-0.3C52,18,52,17.8,52,17.7c0-0.4,0-0.4,0-0.5c0.1-0.1,0.2-0.1,0.4-0.2l0,0c0.2-0.1,0.3-0.1,0.4,0l0.3,0.1l0,0
			c0,0.1-0.1,0.1-0.1,0.3c0,0.1-0.1,0.2-0.2,0.4c0,0.1-0.1,0.2-0.2,0.2c0,0.1-0.1,0.1-0.1,0.1c0,0,0,0.1,0,0.1c0,0.1,0,0.1,0,0.2
			c0,0.1,0,0.3-0.1,0.5C52.5,19.1,52.5,19.2,52.5,19.4L52.5,19.4"/>
		<path class="st2" d="M53.8,16.1c0,0.1,0.1,0.2,0.1,0.3c-0.1,0.1-0.2,0.2-0.3,0.3c0-0.1-0.1-0.1-0.1-0.3
			C53.6,16.3,53.7,16.2,53.8,16.1z M53.7,16.7c0,0.1,0.1,0.1,0.1,0.2c-0.1,0.1-0.1,0.2-0.2,0.3c0-0.1-0.1-0.1-0.1-0.2
			C53.5,16.8,53.6,16.8,53.7,16.7z M53.5,15.9c-0.2,0.5-0.4,0.8-0.6,1.3c-0.1,0-0.2-0.1-0.3-0.1c0.2-0.5,0.3-0.7,0.5-1.2
			c-0.1-0.1-0.2-0.1-0.3-0.1c-0.1,0-0.2,0.1-0.3,0.1c-0.1-0.1-0.1-0.2-0.1-0.3c0.1-0.1,0.2-0.1,0.3-0.1c0.1,0,0.2,0,0.4,0.1
			C53.3,15.8,53.4,15.9,53.5,15.9"/>
		<path class="st2" d="M53.6,16.4c0,0.1,0,0.1,0.1,0.1c0.1-0.1,0.1-0.1,0.2-0.2c0-0.1,0-0.1-0.1-0.1C53.7,16.3,53.7,16.3,53.6,16.4z
			 M53.5,17c0,0,0,0.1,0.1,0.1c0.1-0.1,0.1-0.1,0.2-0.2c0,0,0-0.1-0.1-0.1C53.6,16.8,53.6,16.9,53.5,17z M53.5,17.3L53.5,17.3
			c-0.1-0.2-0.1-0.2-0.1-0.3l0,0l0,0c0.1-0.1,0.1-0.2,0.2-0.3v0c0-0.1-0.1-0.1-0.1-0.3l0,0l0,0c0.1-0.1,0.2-0.2,0.3-0.3l0.1-0.1
			l0,0.1c0,0.1,0.1,0.2,0.1,0.3l0,0l0,0c-0.1,0.1-0.1,0.2-0.2,0.2v0c0,0.1,0.1,0.1,0.1,0.2l0,0l0,0C53.7,17.1,53.7,17.1,53.5,17.3
			L53.5,17.3z M52.8,17.1l0.2,0.1c0.2-0.5,0.3-0.8,0.5-1.2l-0.3-0.2c-0.2-0.1-0.3-0.1-0.4-0.1h0c0,0-0.1,0-0.3,0.1
			c0,0.1,0.1,0.1,0.1,0.2c0.1-0.1,0.2-0.1,0.3-0.1c0.1,0,0.2,0,0.3,0.1l0,0l0,0C53,16.5,53,16.7,52.8,17.1z M53,17.3l-0.4-0.1l0,0
			c0.2-0.5,0.3-0.7,0.5-1.2c-0.1,0-0.2,0-0.2,0c0,0-0.1,0-0.3,0.1l0,0l0,0c-0.1-0.1-0.1-0.2-0.1-0.3l0,0l0,0
			c0.1-0.1,0.3-0.1,0.3-0.1c0.1,0,0.2,0,0.4,0.1l0.4,0.2l0,0C53.3,16.5,53.2,16.7,53,17.3L53,17.3"/>
		<path class="st2" d="M54,15c-0.2,0.4-0.4,0.6-0.6,1.1c-0.1,0-0.1-0.1-0.2-0.1c0.2-0.4,0.3-0.5,0.5-0.9c-0.5-0.2-0.8-0.3-1.3-0.4
			c0,0-0.1,0.1-0.1,0.1c0,0-0.1-0.1-0.1-0.1c0,0,0-0.1-0.1-0.2c0,0,0,0,0,0c0,0,0.1,0,0.2-0.1c0.1-0.1,0.2-0.2,0.2-0.2
			c0,0,0.1,0.1,0.1,0.1c0,0,0.1,0.1,0.1,0.1c0,0,0,0.1-0.1,0.1c0.4,0.1,0.7,0.2,1.2,0.4C53.9,14.9,53.9,15,54,15"/>
		<path class="st2" d="M53.3,16l0.2,0.1c0.2-0.4,0.3-0.6,0.5-1l-0.2-0.1c-0.5-0.2-0.7-0.3-1.2-0.4l-0.1,0l0-0.1c0,0,0-0.1,0.1-0.1
			c0,0,0,0,0-0.1c0,0,0,0-0.1-0.1c0,0-0.1,0.1-0.1,0.1c0,0,0,0.1-0.1,0.1c-0.1,0.1-0.1,0.1-0.2,0.1c0,0,0,0.1,0,0.1
			c0,0,0,0.1,0.1,0.1c0,0,0,0,0.1-0.1l0,0l0,0c0.5,0.1,0.8,0.2,1.3,0.4l0.1,0l0,0C53.5,15.5,53.5,15.6,53.3,16z M53.5,16.2L53.2,16
			l0,0c0.2-0.3,0.3-0.5,0.4-0.8c-0.5-0.2-0.8-0.3-1.2-0.4c0,0,0,0.1-0.1,0.1l0,0l0,0c-0.1,0-0.1-0.1-0.1-0.1c0,0-0.1-0.1-0.1-0.2
			l0,0l0.1-0.1l0,0c0,0,0,0,0.1-0.1c0,0,0-0.1,0.1-0.1c0.1-0.1,0.1-0.1,0.2-0.2c0,0,0,0,0.1,0.1c0,0,0.1,0.1,0.1,0.1l0,0l0,0
			c0,0,0,0,0,0c0.4,0.1,0.7,0.2,1.1,0.4l0,0l0.3,0.2l0,0C53.8,15.5,53.7,15.7,53.5,16.2L53.5,16.2"/>
		<path class="st2" d="M56.6,10.1c0,0.1,0,0.2,0,0.3c-0.2,0-0.2,0.1-0.4,0.1c0-0.1,0-0.2,0-0.3C56.4,10.1,56.5,10.1,56.6,10.1z
			 M56.1,10.2c0,0.1,0,0.2,0,0.3c-0.2,0.1-0.2,0.1-0.4,0.2c0-0.1,0-0.2,0-0.3C55.9,10.3,55.9,10.2,56.1,10.2z M56.2,10.5
			c0,0.1,0,0.2,0,0.3c-0.2,0.1-0.2,0.1-0.4,0.1c0-0.1,0-0.2,0-0.3C56,10.6,56.1,10.6,56.2,10.5z M57.5,11.3c-0.1,0-0.1,0.1-0.1,0.1
			c-0.1,0-0.1,0.1-0.2,0.1c-0.1,0-0.2,0-0.2,0c0,0-0.1,0.1-0.1,0.2c0,0.1-0.1,0.1-0.2,0.2c-0.1,0.1-0.1,0.1-0.2,0.2
			c0.1,0.1,0.1,0.2,0.1,0.3c0,0.1,0,0.3-0.1,0.5c-0.1,0.2-0.3,0.4-0.5,0.7c-0.2,0.2-0.4,0.4-0.5,0.5c-0.2,0.1-0.3,0.1-0.4,0
			c-0.1-0.1-0.1-0.1-0.2-0.2c0-0.1-0.1-0.2-0.1-0.3c0-0.1,0-0.2-0.1-0.3c0,0,0,0,0.1-0.1c0,0.2,0.1,0.3,0.1,0.4
			c0,0.1,0.1,0.2,0.1,0.2c0.1,0.1,0.2,0.1,0.3,0c0.1-0.1,0.3-0.2,0.4-0.4c0.2-0.2,0.3-0.4,0.5-0.6c0.1-0.3,0.2-0.4,0.1-0.6
			C56.2,12.1,56.1,12,56,12c-0.1,0-0.2,0-0.3,0c0-0.2,0-0.3,0-0.4c0.1,0,0.2,0,0.3,0.1c0.1,0.1,0.2,0.2,0.3,0.3
			c0.1-0.1,0.1-0.1,0.2-0.2c0.1-0.1,0.2-0.2,0.2-0.2c0-0.1,0-0.1,0-0.2c0,0,0-0.1-0.1-0.1c0,0,0,0-0.1-0.1c0-0.1,0-0.1,0-0.1
			c0,0,0.1,0.1,0.1,0.1c0.1,0.1,0.2,0.1,0.2,0.1c0.1,0,0.2,0,0.3-0.1c0,0,0,0,0.1-0.1c0,0,0,0,0-0.1c0,0-0.1-0.1-0.1-0.1
			c0,0-0.1,0-0.2,0c0-0.1,0-0.2,0-0.3c0.1,0,0.2,0.1,0.2,0.1c0.1,0,0.1,0.1,0.2,0.3C57.4,11.1,57.4,11.2,57.5,11.3"/>
		<path class="st2" d="M55.8,10.4c0,0.1,0,0.1,0,0.2c0.1,0,0.2-0.1,0.3-0.1c0-0.1,0-0.1,0-0.2C55.9,10.3,55.9,10.3,55.8,10.4z
			 M55.6,10.7L55.6,10.7c0-0.2,0-0.3,0-0.4l0,0l0,0c0.2-0.1,0.2-0.1,0.4-0.2l0.1,0l0,0.1c0,0.1,0,0.2,0,0.3v0l0,0
			C55.9,10.6,55.9,10.6,55.6,10.7L55.6,10.7z M56.3,10.2c0,0.1,0,0.1,0,0.2c0.1,0,0.2-0.1,0.3-0.1c0-0.1,0-0.1,0-0.2
			C56.5,10.2,56.4,10.2,56.3,10.2z M55.9,10.7c0,0.1,0,0.1,0,0.2c0.1,0,0.2-0.1,0.3-0.1c0-0.1,0-0.1,0-0.2
			C56.1,10.7,56,10.7,55.9,10.7z M55.8,11.1L55.8,11.1c0-0.2,0-0.3,0-0.4v0l0,0c0.1-0.1,0.2-0.1,0.3-0.1v0c0-0.1,0-0.2,0-0.3l0,0
			l0,0c0.2-0.1,0.2-0.1,0.4-0.1l0.1,0l0,0.1c0,0.1,0,0.2,0,0.3v0l0,0c-0.1,0-0.2,0.1-0.3,0.1v0c0,0.1,0,0.2,0,0.3v0l0,0
			C56.1,11,56,11,55.8,11.1L55.8,11.1z M54.7,13.5C54.7,13.5,54.7,13.5,54.7,13.5c0,0.1,0.1,0.2,0.1,0.3c0,0.1,0.1,0.1,0.1,0.2
			c0.1,0.1,0.2,0.1,0.3,0c0.1-0.1,0.3-0.2,0.5-0.4c0.2-0.3,0.4-0.5,0.5-0.6c0.1-0.2,0.1-0.3,0.1-0.4c0-0.1,0-0.2-0.1-0.3l0,0l0,0
			c0.1-0.1,0.1-0.1,0.2-0.2c0.1-0.1,0.2-0.2,0.2-0.2c0,0,0,0,0-0.1c0,0,0-0.1,0.1-0.1c0,0,0.1,0,0.1,0c0,0,0.1,0,0.1,0
			c0.1,0,0.1-0.1,0.2-0.1c0,0,0.1,0,0.1-0.1c-0.1-0.1-0.1-0.2-0.2-0.3c-0.1-0.1-0.1-0.2-0.2-0.2c0,0,0,0-0.1-0.1c0,0,0,0.1,0,0.1
			c0.1,0,0.1,0,0.1,0c0.1,0,0.1,0.1,0.2,0.1c0,0,0,0.1,0,0.1c0,0,0,0.1-0.1,0.1c-0.1,0.1-0.2,0.1-0.3,0.1c-0.1,0-0.2-0.1-0.3-0.1
			c0,0,0,0,0,0c0,0,0,0,0,0c0,0,0,0,0.1,0.1c0,0,0,0.1,0.1,0.1c0,0.1,0,0.1,0,0.2c0,0.1-0.1,0.2-0.2,0.3c-0.1,0.1-0.1,0.1-0.2,0.2
			l0,0l0,0c-0.1-0.1-0.2-0.2-0.3-0.3c0,0-0.1,0-0.2-0.1c0,0.1,0,0.2,0,0.3c0.1,0,0.2,0,0.2,0.1c0.1,0,0.2,0.1,0.3,0.2
			c0.1,0.1,0.1,0.3-0.1,0.6c-0.1,0.2-0.3,0.4-0.5,0.6c-0.2,0.2-0.3,0.3-0.4,0.4c-0.1,0.1-0.3,0.1-0.4,0c-0.1-0.1-0.1-0.1-0.1-0.2
			C54.7,13.5,54.7,13.5,54.7,13.5z M55.2,14.2c-0.1,0-0.2,0-0.2-0.1c-0.1-0.1-0.1-0.1-0.2-0.2c0-0.1-0.1-0.2-0.1-0.3
			c0-0.1,0-0.2-0.1-0.3l0,0l0.2-0.1l0,0.1c0,0.2,0.1,0.4,0.1,0.4c0,0.1,0.1,0.1,0.1,0.2c0.1,0.1,0.2,0.1,0.3,0
			c0.1-0.1,0.2-0.2,0.4-0.4c0.2-0.2,0.3-0.4,0.5-0.6c0.1-0.2,0.2-0.4,0.1-0.5c-0.1-0.1-0.1-0.1-0.2-0.2c-0.1,0-0.2,0-0.3,0h0l0,0
			c0-0.2,0-0.3,0-0.4l0-0.1l0.1,0c0.1,0,0.2,0,0.3,0.1c0.1,0,0.2,0.1,0.2,0.3c0.1,0,0.1-0.1,0.2-0.1c0.1-0.1,0.2-0.2,0.2-0.2
			c0,0,0-0.1,0-0.1c0,0,0,0,0-0.1c0,0,0,0-0.1-0.1l0,0v0c0-0.1,0-0.1,0-0.1l0-0.1l0.1,0.1c0,0,0.1,0.1,0.1,0.1
			c0.1,0.1,0.1,0.1,0.2,0.1c0.1,0,0.1,0,0.2-0.1c0,0,0,0,0,0c0,0,0,0,0,0c0,0-0.1-0.1-0.1-0.1c0,0-0.1,0-0.2,0l0,0l0,0
			c0-0.1,0-0.2,0-0.3l0-0.1l0.1,0c0.1,0,0.2,0.1,0.2,0.1c0.1,0,0.1,0.1,0.2,0.3c0.1,0.1,0.1,0.2,0.2,0.4l0,0l0,0
			c-0.1,0-0.1,0.1-0.1,0.1c-0.1,0.1-0.1,0.1-0.2,0.1c0,0-0.1,0-0.1,0c0,0-0.1,0-0.1,0s0,0,0,0.1c0,0,0,0.1,0,0.1
			c0,0.1-0.1,0.1-0.2,0.2c-0.1,0.1-0.1,0.1-0.2,0.2c0,0.1,0.1,0.2,0.1,0.3c0,0.1,0,0.3-0.1,0.5c-0.1,0.2-0.3,0.4-0.5,0.7
			c-0.2,0.2-0.4,0.4-0.5,0.5C55.3,14.1,55.2,14.2,55.2,14.2"/>
		<path class="st2" d="M58.5,11c0,0.1,0,0.2-0.1,0.3c-0.1,0-0.2,0-0.3,0.1c0-0.1,0-0.2,0-0.3C58.3,11.1,58.4,11,58.5,11z M58.1,11.4
			c0,0.1,0,0.2,0,0.3c-0.1,0-0.2,0.1-0.3,0.1c0-0.1,0-0.2,0-0.3C57.9,11.4,58,11.4,58.1,11.4z M58.4,10.7c-0.4,0.2-0.6,0.4-1.1,0.7
			c0-0.1-0.1-0.1-0.1-0.3c0.4-0.3,0.6-0.4,0.9-0.6c0-0.1-0.1-0.2-0.2-0.3c0,0-0.1-0.1-0.3-0.1c0-0.1,0-0.2,0-0.4
			c0.1,0,0.2,0.1,0.3,0.1c0.1,0.1,0.1,0.2,0.2,0.4C58.3,10.5,58.3,10.6,58.4,10.7"/>
		<path class="st2" d="M57.3,11.2c0,0.1,0.1,0.1,0.1,0.2c0.4-0.3,0.6-0.4,1-0.6c0-0.1-0.1-0.2-0.1-0.3C58.1,10.2,58,10,58,10
			c0,0-0.1-0.1-0.2-0.1c0,0.1,0,0.2,0,0.3c0.1,0,0.2,0,0.2,0.1c0.1,0,0.1,0.1,0.2,0.3l0,0l0,0C57.8,10.8,57.6,10.9,57.3,11.2z
			 M57.3,11.5L57.3,11.5c-0.1-0.1-0.1-0.2-0.2-0.3l0,0l0,0c0.4-0.3,0.5-0.4,0.9-0.6c0-0.1-0.1-0.2-0.1-0.2c0,0-0.1,0-0.2-0.1l0,0
			l0,0c0-0.1,0-0.2,0-0.4l0-0.1l0.1,0c0.1,0,0.2,0.1,0.3,0.1c0.1,0.1,0.1,0.2,0.2,0.4c0.1,0.2,0.1,0.2,0.2,0.4l0,0l0,0
			C58,11,57.8,11.2,57.3,11.5L57.3,11.5z M58.2,11.1c0,0.1,0,0.1,0,0.2c0.1,0,0.1,0,0.2,0c0-0.1,0-0.1,0-0.2
			C58.4,11.1,58.3,11.1,58.2,11.1z M57.8,11.5c0,0.1,0,0.1,0,0.2c0.1,0,0.1,0,0.2-0.1c0-0.1,0-0.1,0-0.1
			C58,11.5,57.9,11.5,57.8,11.5z M57.7,11.8L57.7,11.8c0-0.2,0-0.2,0-0.3l0,0l0,0c0.1,0,0.2,0,0.3-0.1v0c0-0.1,0-0.2,0-0.3l0,0l0,0
			c0.1,0,0.2,0,0.4-0.1l0.1,0l0,0.1c0,0.1,0,0.2-0.1,0.3l0,0l0,0c-0.1,0-0.2,0-0.3,0.1v0c0,0.1,0,0.2,0,0.3l0,0l0,0
			C58,11.8,57.9,11.8,57.7,11.8L57.7,11.8"/>
		<path class="st2" d="M59.8,10.1c-0.4,0.1-0.5,0.2-0.9,0.4c-0.1,0-0.1,0.1-0.2,0c-0.1,0-0.1,0-0.1-0.1c0,0,0-0.1,0-0.1
			c0,0,0-0.1,0-0.1c0,0,0,0,0,0c0,0,0.1,0.1,0.1,0.1c0,0,0.1,0,0.1,0c0.3-0.2,0.5-0.2,0.8-0.4c-0.1-0.2-0.1-0.3-0.3-0.4
			c-0.1-0.1-0.3-0.2-0.5-0.1c0-0.1,0-0.2-0.1-0.3c0.3,0,0.5,0,0.7,0.2c0.1,0.1,0.2,0.3,0.3,0.6C59.7,9.9,59.7,9.9,59.8,10.1"/>
		<path class="st2" d="M58.5,10.3C58.5,10.3,58.5,10.3,58.5,10.3c0,0.1,0,0.1,0,0.2c0,0,0,0,0.1,0h0c0.1,0,0.1,0,0.2,0
			c0.3-0.2,0.5-0.3,0.8-0.4c0-0.1,0-0.1-0.1-0.2c-0.1-0.3-0.2-0.5-0.3-0.6C59.2,9.1,59,9,58.7,9c0,0.1,0,0.1,0,0.2
			c0.2,0,0.4,0,0.5,0.1c0.1,0.1,0.2,0.3,0.3,0.5l0,0l0,0c-0.3,0.1-0.5,0.2-0.8,0.4c-0.1,0-0.1,0-0.2,0
			C58.6,10.3,58.6,10.3,58.5,10.3z M58.7,10.6L58.7,10.6c-0.1,0-0.2-0.1-0.2-0.1c0,0,0-0.1,0-0.1c0,0,0-0.1,0-0.1v0l0.1-0.1l0,0
			c0,0,0.1,0,0.2,0c0.3-0.1,0.4-0.2,0.7-0.3c-0.1-0.2-0.1-0.3-0.2-0.4c-0.1-0.1-0.3-0.1-0.5-0.1l0,0l0,0c0-0.1,0-0.2-0.1-0.3l0-0.1
			l0.1,0c0.3,0,0.5,0,0.7,0.2c0.1,0.1,0.2,0.3,0.3,0.6c0,0.1,0,0.2,0.1,0.3l0,0l0,0c-0.4,0.1-0.5,0.2-0.9,0.4
			C58.8,10.6,58.7,10.6,58.7,10.6"/>
		<path class="st2" d="M61.3,8.6C61.3,8.6,61.3,8.7,61.3,8.6c0,0.1,0,0.1,0,0.1c0,0-0.3-0.2-0.5-0.3c-0.2-0.1-0.4-0.1-0.5-0.1
			c0,0,0,0-0.1,0.1c0,0,0,0.1-0.1,0.1c0,0-0.1,0-0.2,0c-0.1,0-0.2,0-0.3-0.1c-0.1,0-0.2-0.1-0.2-0.2c0,0,0-0.1,0.1-0.1
			C59.6,8,59.8,8,60.1,8c0.3,0,0.5,0.1,0.8,0.1C61.1,8.3,61.2,8.4,61.3,8.6z M62.3,9.3c-0.1,0-0.1,0-0.2,0c-0.1,0-0.2,0-0.3-0.1
			c-0.1-0.1-0.2-0.3-0.2-0.5c0,0,0,0,0-0.1c0,0,0-0.1,0-0.1c0,0-0.2,0.6-0.3,0.7c-0.1,0.2-0.3,0.3-0.5,0.4c-0.2,0.1-0.5,0.2-1,0.4
			c0,0,0,0,0,0c0.3-0.2,0.6-0.4,0.8-0.5c0.3-0.2,0.5-0.4,0.6-0.6c0.2-0.2,0.2-0.4,0.2-0.7c0-0.1,0-0.2-0.1-0.3
			c0-0.1-0.1-0.2-0.1-0.2c0-0.1,0-0.1,0.1-0.1c0,0,0.1-0.1,0.1-0.1c0,0,0.1,0.2,0.2,0.4c0,0.1,0.1,0.2,0.1,0.4
			c0.1,0.2,0.1,0.3,0.1,0.4C61.9,8.9,62,9,62,9c0,0,0.1,0,0.1,0c0.1,0,0.1,0,0.2,0C62.3,9.1,62.3,9.2,62.3,9.3"/>
		<path class="st2" d="M60.4,8.2c0.1,0,0.3,0,0.4,0.1c0.1,0.1,0.3,0.2,0.4,0.3c0,0,0,0,0,0c0,0,0,0,0,0c0-0.2-0.2-0.3-0.4-0.4
			c-0.2-0.1-0.5-0.1-0.7-0.1c-0.2,0-0.4,0-0.5,0.1c0,0,0,0,0,0c0,0.1,0.1,0.1,0.2,0.1c0.1,0,0.2,0,0.3,0.1c0.1,0,0.2,0,0.2,0
			c0,0,0,0,0,0C60.3,8.3,60.3,8.3,60.4,8.2C60.3,8.2,60.4,8.2,60.4,8.2z M61.3,8.8c0,0,0,0-0.1-0.1c-0.1-0.1-0.2-0.2-0.4-0.3
			c-0.2-0.1-0.4-0.1-0.5-0.1c0,0,0,0,0,0c0,0-0.1,0.1-0.1,0.1c0,0-0.1,0-0.2,0c-0.1,0-0.2,0-0.3-0.1c-0.1,0-0.2-0.1-0.2-0.2
			c0,0,0-0.1,0.1-0.2C59.6,8,59.8,8,60.1,8c0.3,0,0.6,0.1,0.8,0.1c0.3,0.1,0.4,0.3,0.5,0.5c0,0,0,0,0,0.1S61.3,8.7,61.3,8.8
			L61.3,8.8L61.3,8.8z M61.3,7.7c0,0.1,0.1,0.1,0.1,0.2c0,0.1,0.1,0.2,0.1,0.3c0,0.2,0,0.5-0.2,0.7c-0.1,0.2-0.3,0.4-0.6,0.6
			c-0.1,0.1-0.2,0.2-0.4,0.3c0,0-0.1,0.1-0.1,0.1c0,0,0.1,0,0.1,0c0.3-0.1,0.5-0.2,0.6-0.3c0.2-0.1,0.4-0.2,0.5-0.4
			c0.1-0.1,0.2-0.4,0.2-0.6c0.1-0.2,0.1-0.2,0.1-0.2h0l0,0c0,0,0,0,0,0c0,0,0,0.1,0,0.1c0,0.2,0.1,0.4,0.2,0.5
			c0.1,0.1,0.2,0.1,0.3,0.1c0,0,0.1,0,0.1,0c0-0.1,0-0.1,0-0.2c0,0-0.1,0-0.1,0s-0.1,0-0.2,0C62,9,61.9,8.9,61.8,8.7
			c0-0.1-0.1-0.2-0.1-0.4l0,0c0-0.1-0.1-0.3-0.1-0.4c0-0.1-0.1-0.3-0.2-0.3c0,0,0,0,0,0C61.3,7.7,61.3,7.7,61.3,7.7z M59.9,10.2
			l0-0.1l0,0c0.1-0.1,0.2-0.2,0.3-0.2c0.2-0.1,0.3-0.2,0.4-0.3c0.3-0.2,0.5-0.4,0.6-0.6c0.2-0.2,0.2-0.4,0.2-0.6
			c0-0.1,0-0.2-0.1-0.3c0-0.1-0.1-0.2-0.1-0.2l0,0l0,0c0-0.1,0-0.1,0.1-0.1c0.1-0.2,0.1-0.2,0.1-0.2c0,0,0.1,0,0.3,0.4
			c0,0.1,0.1,0.2,0.1,0.4l0,0c0,0.1,0.1,0.3,0.1,0.4C62,8.8,62,8.9,62.1,9c0,0,0,0,0.1,0c0.1,0,0.1,0,0.2,0l0,0l0,0
			c0,0.1,0,0.2,0,0.3l0,0l0,0c-0.1,0-0.1,0-0.2,0c-0.1,0-0.3,0-0.4-0.1c-0.1-0.1-0.2-0.3-0.2-0.5c-0.1,0.2-0.2,0.5-0.2,0.6
			c-0.1,0.2-0.3,0.3-0.5,0.4c-0.1,0.1-0.3,0.1-0.6,0.3C60.1,10,60,10.1,59.9,10.2L59.9,10.2"/>
		<path class="st2" d="M63.3,7.6c-0.1,0.1-0.1,0.1-0.2,0.2c-0.2,0-0.2-0.1-0.4-0.1c0.1-0.1,0.1-0.1,0.2-0.2
			C63,7.6,63.1,7.6,63.3,7.6z M64.1,9.1c-0.1,0-0.2,0-0.3,0c-0.1,0-0.2,0-0.3,0c-0.1,0-0.2-0.1-0.3-0.1c0,0-0.2,0.1-0.3,0.2
			c-0.1,0.1-0.3,0.1-0.5,0.1c-0.1,0-0.1,0-0.2,0c0-0.1,0-0.2,0-0.3c0.1,0,0.1,0,0.2,0c0.1,0,0.2,0,0.3-0.1c0.1,0,0.2-0.1,0.4-0.2
			c0,0-0.1,0-0.1-0.1c0,0-0.1,0-0.2,0c0,0,0,0-0.1,0c0,0,0,0-0.1,0.1c0,0,0,0,0,0c0,0,0-0.1,0-0.1c0-0.1,0-0.2,0.1-0.3
			c0.1-0.1,0.2-0.1,0.4-0.1c0.2,0,0.3,0,0.4,0c0.1,0,0.2,0.1,0.2,0.2c0,0,0,0.1-0.1,0.2c0,0-0.2,0.2-0.2,0.2c0,0,0.1,0,0.1,0.1
			c0.1,0,0.1,0,0.2,0c0.1,0,0.2,0,0.3,0C64.1,8.9,64.1,9,64.1,9.1"/>
		<path class="st2" d="M62.8,7.7c0.1,0,0.2,0,0.3,0.1c0-0.1,0.1-0.1,0.1-0.2c-0.1,0-0.2,0-0.3-0.1C62.9,7.6,62.8,7.7,62.8,7.7z
			 M63.1,7.9L63.1,7.9c-0.2,0-0.3-0.1-0.4-0.1l-0.1,0l0-0.1c0.1-0.1,0.1-0.1,0.2-0.2l0,0l0,0c0.2,0,0.2,0,0.4,0.1l0.1,0l0,0.1
			C63.2,7.7,63.2,7.8,63.1,7.9L63.1,7.9z M62.2,9.1c0,0.1,0,0.1,0,0.2c0,0,0.1,0,0.1,0c0.2,0,0.4-0.1,0.5-0.1C62.9,9.1,63,9,63.1,9
			c0.1-0.1,0.1-0.1,0.2-0.1c0,0,0,0,0.1,0c0,0,0.1,0.1,0.2,0.1c0.1,0,0.2,0,0.3,0c0.1,0,0.2,0,0.3,0c0-0.1,0-0.1,0-0.2
			c-0.1,0-0.2,0-0.3,0c0,0-0.1,0-0.2,0c0,0-0.2,0-0.2-0.1c0,0,0,0,0.1-0.1c0,0,0.1-0.1,0.1-0.1c0,0,0.1-0.1,0.1-0.1
			c0,0,0-0.1-0.2-0.1c-0.1,0-0.3,0-0.4,0c-0.2,0-0.4,0.1-0.4,0.1c-0.1,0-0.1,0.1-0.1,0.2v0c0,0,0,0,0,0c0,0,0.1,0,0.1,0
			c0.1,0,0.1,0,0.2,0l0.2,0.1l-0.1,0c-0.1,0.1-0.2,0.1-0.4,0.2c-0.1,0-0.2,0.1-0.4,0.1C62.3,9.1,62.3,9.1,62.2,9.1z M62.1,9.4
			L62.1,9.4c0-0.2,0-0.2,0-0.3l0,0l0,0c0.1,0,0.1,0,0.2,0c0.1,0,0.2,0,0.3-0.1c0.1,0,0.2-0.1,0.3-0.1l0,0c0,0-0.1,0-0.1,0
			c0,0,0,0-0.1,0c0,0,0,0,0,0l0,0l-0.1,0l0-0.2c0-0.1,0-0.3,0.1-0.3c0.1-0.1,0.2-0.1,0.4-0.1c0.2,0,0.3,0,0.5,0
			c0.2,0,0.3,0.2,0.3,0.2c0,0.1,0,0.1-0.1,0.2c0,0-0.1,0-0.1,0.1c0,0,0,0-0.1,0c0,0,0,0,0.1,0c0.1,0,0.1,0,0.2,0c0.1,0,0.2,0,0.3,0
			h0v0c0,0.1,0,0.2,0,0.3v0h0c-0.1,0-0.2,0-0.3,0c-0.1,0-0.2,0-0.3,0c-0.1,0-0.2-0.1-0.2-0.1c0,0,0,0,0,0c0,0-0.1,0-0.1,0.1
			c-0.1,0-0.1,0.1-0.2,0.1c-0.1,0.1-0.3,0.1-0.5,0.1C62.3,9.4,62.3,9.4,62.1,9.4L62.1,9.4"/>
		<path class="st2" d="M65.2,7.6C65.1,7.7,65,7.7,65,7.8c-0.2-0.1-0.2-0.1-0.4-0.1c0.1-0.1,0.1-0.1,0.2-0.2
			C64.9,7.5,65,7.5,65.2,7.6z M65.2,9.1c-0.5,0-0.8,0-1.3,0c0-0.1,0-0.2,0-0.3c0.4,0,0.7,0,1.1,0c0-0.1,0-0.2,0-0.3
			c0,0-0.1-0.1-0.2-0.2C64.9,8.2,65,8.1,65,8c0.1,0.1,0.2,0.2,0.2,0.2c0,0.1,0,0.2,0,0.4C65.2,8.9,65.2,8.9,65.2,9.1"/>
		<path class="st2" d="M64.6,7.6c0.1,0,0.2,0.1,0.3,0.1c0-0.1,0.1-0.1,0.1-0.1c-0.1,0-0.2-0.1-0.3-0.1C64.7,7.5,64.7,7.6,64.6,7.6z
			 M65,7.8L65,7.8c-0.2-0.1-0.3-0.1-0.4-0.1l-0.1,0l0-0.1c0.1-0.1,0.1-0.1,0.2-0.2l0,0l0,0c0.2,0,0.2,0.1,0.4,0.1l0.1,0l-0.1,0.1
			C65.1,7.7,65.1,7.7,65,7.8L65,7.8z M64,8.9c0,0.1,0,0.1,0,0.2c0.3,0,0.5,0,0.7,0c0.1,0,0.3,0,0.5,0c0-0.1,0-0.2,0-0.4
			c0-0.2,0-0.3,0-0.4c0,0,0-0.1-0.1-0.2c0,0.1-0.1,0.1-0.1,0.2c0.1,0.1,0.2,0.1,0.2,0.2c0,0.1,0.1,0.2,0,0.3v0h0
			C64.7,8.8,64.4,8.9,64,8.9z M63.9,9.2L63.9,9.2c0-0.2,0-0.2,0-0.3v0h0c0.5,0,0.7,0,1.1,0c0-0.1,0-0.2,0-0.2c0,0-0.1-0.1-0.2-0.2
			l0,0l0,0C64.9,8.2,64.9,8.1,65,8l0,0l0,0c0.1,0.1,0.2,0.2,0.2,0.3c0,0.1,0,0.2,0,0.5c0,0.2,0,0.2,0,0.4v0h0c-0.2,0-0.4,0-0.5,0
			C64.5,9.1,64.3,9.2,63.9,9.2L63.9,9.2"/>
		<path class="st2" d="M66,9.5c-0.1,0.1-0.1,0.1-0.2,0.2c-0.1,0-0.2-0.1-0.3-0.1c0.1-0.1,0.1-0.1,0.2-0.2C65.8,9.4,65.9,9.5,66,9.5z
			 M66.3,9.2c-0.5-0.1-0.7-0.1-1.3-0.1c0-0.1,0-0.2,0-0.3c0.5,0,0.7,0,1.1,0.1c0-0.1,0-0.2,0-0.3c0,0-0.1-0.1-0.2-0.2
			c0.1-0.1,0.1-0.2,0.2-0.3c0.1,0.1,0.2,0.2,0.2,0.3c0,0.1,0,0.2,0,0.4C66.4,8.9,66.3,9,66.3,9.2"/>
		<path class="st2" d="M65.1,9c0.5,0,0.7,0,1.2,0.1c0-0.1,0-0.2,0.1-0.3c0-0.2,0-0.3,0-0.4c0,0,0-0.1-0.1-0.2
			c-0.1,0.1-0.1,0.1-0.2,0.2c0.1,0.1,0.1,0.2,0.2,0.2c0,0.1,0,0.2,0,0.3l0,0l0,0c-0.4,0-0.7-0.1-1.1-0.1C65.1,8.9,65.1,9,65.1,9z
			 M66.4,9.2L66.4,9.2c-0.6-0.1-0.8-0.1-1.3-0.1h0v0c0-0.1,0-0.2,0-0.3v0h0c0.4,0,0.7,0,1.1,0.1c0-0.1,0-0.2,0-0.2
			c0,0,0-0.1-0.2-0.2l0,0l0,0c0.1-0.1,0.1-0.2,0.2-0.3l0,0l0,0c0.1,0.1,0.2,0.2,0.2,0.3c0,0.1,0,0.2,0,0.5C66.4,9,66.4,9,66.4,9.2
			L66.4,9.2z M65.6,9.5c0.1,0,0.1,0.1,0.2,0.1c0,0,0.1-0.1,0.1-0.1c-0.1,0-0.1-0.1-0.2-0.1C65.7,9.5,65.6,9.5,65.6,9.5z M65.9,9.8
			L65.9,9.8c-0.2-0.1-0.2-0.1-0.4-0.1l-0.1,0l0-0.1c0.1-0.1,0.1-0.1,0.2-0.2l0,0l0,0c0.1,0.1,0.2,0.1,0.3,0.1l0.1,0l-0.1,0
			C66,9.6,66,9.7,65.9,9.8L65.9,9.8"/>
		<path class="st2" d="M69.7,8.9c0,0.1-0.1,0.2-0.3,0.2s-0.3,0-0.5,0C68.8,9,68.7,9,68.6,9c-0.1,0-0.2-0.1-0.3-0.1c0,0,0,0,0,0
			c0,0,0.1,0,0.1,0c0.1,0,0.2,0.1,0.2,0.1C68.9,9,69.1,9,69.2,9c0.1,0,0.2,0,0.2-0.1c0,0,0,0,0-0.1c0,0,0,0-0.1,0c0,0-0.1,0-0.1,0
			c-0.1,0-0.1,0-0.2,0c0,0-0.1,0-0.1,0c0,0,0,0,0-0.1c0-0.1,0.1-0.2,0.3-0.2c0.2-0.1,0.3-0.1,0.5-0.1c0,0.1-0.1,0.1-0.1,0.2
			c-0.1,0-0.2,0-0.3,0c-0.1,0-0.2,0-0.2,0.1c0,0,0,0,0,0c0,0,0,0,0.1,0c0,0,0,0,0.1,0c0,0,0.1,0,0.1,0c0.1,0,0.1,0.1,0.1,0.1
			C69.7,8.8,69.7,8.8,69.7,8.9z M70,10.1c-0.6-0.3-0.9-0.4-1.5-0.5c-0.3-0.1-0.6-0.2-0.7-0.3c-0.1-0.1-0.2-0.2-0.1-0.4
			c0-0.1,0.1-0.2,0.2-0.3c0,0,0.1-0.1,0.2-0.2c0,0,0,0,0.1,0C68,8.6,68,8.7,67.9,8.7c0,0,0,0.1-0.1,0.1c0,0.1,0,0.2,0.2,0.3
			c0.1,0.1,0.3,0.1,0.5,0.2c0.6,0.2,0.8,0.2,1.4,0.5c0.1-0.6,0.2-0.9,0.3-1.4c0,0-0.1,0-0.1-0.1c0-0.1,0.1-0.1,0.1-0.1
			c0,0,0.1-0.1,0.1-0.1c0,0,0,0,0,0c0,0,0,0.1,0.1,0.2c0.1,0.1,0.1,0.1,0.2,0.1c0,0,0,0.1-0.1,0.1c0,0-0.1,0.1-0.1,0.1
			c0,0-0.1,0-0.1-0.1c-0.1,0.5-0.2,0.7-0.3,1.3C70.1,10,70.1,10,70,10.1"/>
		<path class="st2" d="M69.4,8.4c0.1,0,0.1,0,0.2,0c0,0,0,0,0-0.1C69.6,8.3,69.5,8.4,69.4,8.4C69.4,8.4,69.4,8.4,69.4,8.4
			C69.4,8.4,69.4,8.4,69.4,8.4z M68.8,9c0.1,0,0.1,0,0.2,0.1c0.2,0.1,0.3,0.1,0.5,0c0.1,0,0.2-0.1,0.2-0.2c0,0,0-0.1,0-0.1
			c0,0,0,0-0.1-0.1c0,0-0.1,0-0.1,0c0,0,0,0-0.1,0c0,0-0.1,0-0.1,0c-0.1,0,0-0.1,0-0.1s0,0,0,0c-0.1,0-0.2,0.1-0.2,0.2c0,0,0,0,0,0
			c0,0,0,0,0.1,0c0.1,0,0.1,0,0.2,0c0,0,0,0,0.1,0c0,0,0.1,0,0.1,0.1c0,0,0,0.1,0,0.1C69.5,9,69.3,9,69.2,9h0C69.1,9,68.9,9,68.8,9z
			 M69.3,9.2c-0.1,0-0.2,0-0.4-0.1c-0.1,0-0.2-0.1-0.3-0.1c-0.1,0-0.2-0.1-0.3-0.1l-0.1,0l0.2-0.1l0,0c0,0,0.1,0,0.1,0l0.1,0
			c0.1,0,0.1,0,0.2,0c0.2,0,0.3,0.1,0.4,0.1h0c0.1,0,0.2,0,0.2,0c0,0,0,0,0,0c0,0,0,0-0.1,0c0,0-0.1,0-0.1,0c-0.1,0-0.1,0-0.2,0
			c0,0-0.1,0-0.1-0.1c0,0,0-0.1,0-0.1c0-0.1,0.1-0.2,0.3-0.3c0.2-0.1,0.4-0.1,0.5-0.1l0.1,0l0,0.1c0,0.1-0.1,0.1-0.1,0.2l0,0l0,0
			c-0.1,0-0.2,0-0.3,0s-0.1,0-0.1,0c0,0,0,0,0.1,0c0,0,0,0,0.1,0c0,0,0.1,0,0.1,0c0.1,0,0.2,0.1,0.2,0.1c0,0,0,0.1,0,0.2
			c0,0.1-0.2,0.2-0.3,0.2C69.4,9.2,69.3,9.2,69.3,9.2z M67.9,8.6C67.9,8.7,67.9,8.7,67.9,8.6c-0.1,0.1-0.2,0.2-0.2,0.3
			c0,0.1,0,0.2,0.1,0.3c0.1,0.1,0.3,0.2,0.7,0.3c0.6,0.2,0.9,0.3,1.5,0.5l0.1-0.2l0-0.2c0.1-0.4,0.2-0.7,0.2-1.1l0-0.1l0.1,0
			c0,0,0,0,0.1,0c0,0,0,0,0.1-0.1c0,0,0,0,0-0.1c-0.1,0-0.1-0.1-0.2-0.1c-0.1,0-0.1-0.1-0.1-0.2c0,0-0.1,0-0.1,0.1
			c0,0,0,0.1-0.1,0.1c0,0,0,0,0.1,0l0,0v0c-0.1,0.4-0.1,0.7-0.2,1.2L70,9.9l-0.1,0c-0.5-0.2-0.8-0.3-1.3-0.5
			c-0.3-0.1-0.4-0.1-0.5-0.2c-0.2-0.1-0.2-0.2-0.2-0.4C67.8,8.8,67.9,8.7,67.9,8.6C67.9,8.7,67.9,8.7,67.9,8.6z M70,10.2L70,10.2
			c-0.6-0.3-0.9-0.4-1.6-0.6c-0.4-0.1-0.6-0.2-0.7-0.3c-0.2-0.1-0.2-0.3-0.2-0.4c0-0.1,0.1-0.2,0.2-0.3c0,0,0.1-0.1,0.2-0.2l0,0
			l0.1,0.1l0,0C68,8.7,68,8.7,68,8.7c0,0,0,0.1-0.1,0.1c0,0.1,0,0.1,0.2,0.2c0.1,0.1,0.3,0.1,0.5,0.2c0.5,0.1,0.8,0.2,1.3,0.4l0-0.2
			c0.1-0.4,0.2-0.7,0.2-1.1c0,0,0,0-0.1-0.1l0,0l0,0c0-0.1,0.1-0.1,0.1-0.2c0,0,0.1-0.1,0.1-0.1l0,0l0.1,0.1l0,0c0,0,0,0,0.1,0.1
			c0.1,0.1,0.1,0.1,0.2,0.1l0,0l0,0c0,0,0,0.1-0.1,0.1s-0.1,0.1-0.1,0.1l0,0l0,0c0,0,0,0,0,0c-0.1,0.4-0.1,0.6-0.2,1l0,0.2L70,10.2"
			/>
		<path class="st2" d="M71.6,9.2c-0.1,0-0.2,0.1-0.3,0.1C71.2,9.2,71.2,9.1,71,9c0.1,0,0.2-0.1,0.3-0.1C71.4,9,71.5,9.1,71.6,9.2z
			 M71,10.6c-0.4-0.2-0.7-0.3-1.1-0.5c0-0.1,0.1-0.1,0.1-0.3c0.4,0.2,0.6,0.3,1,0.5c0.1-0.1,0.1-0.2,0.1-0.3c0-0.1,0-0.1-0.1-0.3
			c0.1-0.1,0.2-0.1,0.3-0.2c0,0.1,0.1,0.2,0.1,0.3c0,0.1-0.1,0.2-0.2,0.4C71.1,10.4,71.1,10.5,71,10.6"/>
		<path class="st2" d="M71.1,9c0.1,0.1,0.1,0.1,0.2,0.2c0.1,0,0.1,0,0.2-0.1c-0.1-0.1-0.1-0.1-0.2-0.2C71.2,9,71.2,9,71.1,9z
			 M71.3,9.4L71.3,9.4c-0.1-0.1-0.2-0.2-0.3-0.3l0,0L71,9c0.1,0,0.2-0.1,0.3-0.1l0,0l0,0C71.5,9,71.5,9,71.6,9.1l0,0.1l-0.1,0
			C71.5,9.3,71.5,9.3,71.3,9.4L71.3,9.4z M69.9,10c0.4,0.2,0.6,0.3,1,0.5c0.1-0.1,0.1-0.2,0.2-0.3c0.1-0.2,0.1-0.3,0.2-0.4
			c0,0,0-0.1,0-0.2c-0.1,0-0.1,0.1-0.2,0.1c0,0.1,0.1,0.2,0.1,0.3c0,0.1,0,0.2-0.1,0.3l0,0l0,0c-0.4-0.2-0.6-0.3-1-0.4L69.9,10z
			 M71,10.7L71,10.7c-0.5-0.3-0.7-0.4-1.2-0.6l0,0L70,9.8l0,0c0.4,0.2,0.6,0.3,1,0.4c0-0.1,0.1-0.2,0.1-0.2c0,0,0-0.1-0.1-0.3l0,0
			l0,0c0.1-0.1,0.2-0.1,0.3-0.2l0,0l0,0.1c0,0.1,0.1,0.2,0.1,0.3c0,0.1-0.1,0.2-0.2,0.4C71.2,10.4,71.1,10.5,71,10.7L71,10.7"/>
		<path class="st2" d="M71.6,11.3c-0.1,0-0.1,0-0.2,0.1c-0.1-0.1-0.1-0.2-0.2-0.3c0.1,0,0.1-0.1,0.2-0.1
			C71.4,11.2,71.5,11.2,71.6,11.3z M71.9,11.2c-0.4-0.3-0.6-0.4-1.1-0.6c0-0.1,0.1-0.1,0.1-0.2c0.4,0.2,0.6,0.3,1,0.6
			c0.1-0.1,0.1-0.2,0.1-0.3c0-0.1,0-0.2-0.1-0.3c0.1-0.1,0.2-0.1,0.3-0.1c0,0.1,0.1,0.2,0,0.3c0,0.1-0.1,0.2-0.2,0.4
			C72.1,11,72,11,71.9,11.2"/>
		<path class="st2" d="M70.9,10.5c0.4,0.2,0.6,0.3,1,0.6c0.1-0.1,0.1-0.2,0.2-0.3c0.1-0.2,0.2-0.3,0.2-0.4c0,0,0-0.1,0-0.2
			c-0.1,0-0.1,0.1-0.2,0.1c0,0.1,0.1,0.2,0.1,0.3c0,0.1,0,0.2-0.1,0.3l0,0l0,0c-0.4-0.2-0.5-0.3-0.9-0.5L70.9,10.5z M72,11.2
			L72,11.2c-0.5-0.3-0.7-0.4-1.1-0.7l0,0l0.2-0.3l0,0c0.4,0.2,0.6,0.3,0.9,0.5c0-0.1,0.1-0.2,0.1-0.2c0,0,0-0.1-0.1-0.3l0,0l0,0
			c0.1-0.1,0.2-0.1,0.3-0.1l0,0l0,0.1c0,0.1,0.1,0.3,0,0.3c0,0.1-0.1,0.2-0.2,0.4C72.1,11,72.1,11.1,72,11.2L72,11.2z M71.2,11.2
			c0.1,0.1,0.1,0.1,0.2,0.2c0,0,0.1,0,0.1,0c-0.1-0.1-0.1-0.1-0.2-0.2C71.2,11.1,71.2,11.2,71.2,11.2z M71.3,11.5L71.3,11.5
			c-0.1-0.1-0.2-0.2-0.3-0.3l0,0l0.1,0c0.1,0,0.1-0.1,0.2-0.1l0,0l0,0c0.1,0.1,0.1,0.2,0.2,0.3l0,0.1l-0.1,0
			C71.5,11.4,71.4,11.4,71.3,11.5L71.3,11.5"/>
		<path class="st2" d="M74.8,13.8c-0.1-0.1-0.1-0.2-0.3-0.3c-0.1-0.2-0.3-0.3-0.4-0.4S74,13,74,13c0,0,0,0.1,0.1,0.2
			c0,0,0.1,0.1,0.1,0.1c0,0,0.1,0.1,0.1,0.2c0,0.1,0.1,0.1,0.1,0.1c0,0,0,0.1,0,0.1c-0.1,0.1-0.3,0.1-0.4,0
			c-0.2-0.1-0.4-0.3-0.7-0.6c-0.2-0.2-0.4-0.4-0.5-0.6c-0.1-0.2-0.1-0.3,0-0.4c0.1-0.1,0.2-0.2,0.3-0.2c0.1,0,0.2,0,0.4-0.1
			c0,0,0,0,0,0.1c-0.1,0-0.2,0-0.3,0c-0.1,0-0.2,0.1-0.3,0.1c-0.1,0.1-0.1,0.2,0,0.4c0.1,0.2,0.3,0.3,0.5,0.6
			c0.1,0.1,0.3,0.3,0.4,0.4c0.1,0.1,0.2,0.2,0.3,0.2c0,0,0,0,0,0c0,0,0-0.1-0.1-0.1c0,0-0.1-0.1-0.1-0.1c-0.1-0.1-0.1-0.1-0.1-0.1
			c-0.1-0.1-0.1-0.1-0.1-0.2c0,0,0-0.1,0-0.1c0.1-0.1,0.2-0.1,0.3-0.1c0.1,0,0.2,0.1,0.4,0.2c0.1,0.1,0.2,0.2,0.3,0.3
			c0.1,0.1,0.2,0.2,0.3,0.3C74.9,13.7,74.8,13.7,74.8,13.8"/>
		<path class="st2" d="M73.2,12c-0.1,0-0.1,0-0.2,0c-0.1,0-0.2,0.1-0.3,0.2c0,0.1-0.1,0.1,0,0.4c0.1,0.1,0.2,0.3,0.5,0.6
			c0.3,0.3,0.6,0.5,0.7,0.6c0.2,0.1,0.3,0.1,0.4,0c0,0,0,0,0,0c0,0,0,0-0.1-0.1c-0.1-0.1-0.1-0.2-0.1-0.2c0,0,0-0.1-0.1-0.1
			C74,13.1,73.9,13,74,13c0,0,0,0,0,0c0,0,0.1,0,0.2,0.1c0.1,0.1,0.2,0.2,0.4,0.4c0.1,0.1,0.1,0.2,0.2,0.3c0,0,0.1-0.1,0.1-0.1
			c-0.1-0.1-0.1-0.2-0.2-0.3c-0.1-0.1-0.2-0.2-0.3-0.3c-0.1-0.1-0.2-0.1-0.3-0.2c-0.1,0-0.2,0-0.3,0.1c0,0,0,0,0,0
			c0,0,0,0.1,0.1,0.1c0,0,0.1,0.1,0.1,0.1c0,0,0.1,0.1,0.1,0.1l0,0c0,0,0.1,0.1,0.1,0.1c0,0.1,0,0.1,0,0.1c0,0,0,0-0.1,0
			c0,0-0.1,0-0.3-0.2c-0.1-0.1-0.2-0.2-0.4-0.4c-0.2-0.2-0.4-0.4-0.5-0.6c-0.1-0.2-0.1-0.3,0-0.4C73,12,73.1,12,73.2,12z M74.8,13.9
			L74.8,13.9c-0.1-0.2-0.2-0.2-0.3-0.4c-0.1-0.2-0.2-0.3-0.3-0.4c0,0,0.1,0.1,0.1,0.1c0,0,0.1,0.1,0.1,0.2c0,0.1,0.1,0.1,0.1,0.1
			c0,0.1,0,0.1,0,0.2c-0.1,0.1-0.3,0.1-0.5,0c-0.2-0.1-0.4-0.3-0.7-0.6c-0.3-0.2-0.4-0.4-0.5-0.6c-0.1-0.2-0.1-0.4,0-0.5
			c0.1-0.1,0.2-0.2,0.4-0.2c0.1,0,0.2,0,0.4-0.1l0,0l0.1,0.2l-0.1,0c-0.1,0-0.1,0-0.2,0c-0.1,0-0.2,0.1-0.2,0.1s-0.1,0.1,0,0.3
			c0.1,0.1,0.2,0.3,0.5,0.6c0.2,0.2,0.3,0.3,0.4,0.4c0.1,0.1,0.1,0.1,0.2,0.1c0,0,0,0,0,0l0,0c0,0,0-0.1-0.1-0.1
			c-0.1-0.1-0.1-0.1-0.1-0.1c-0.1-0.1-0.1-0.1-0.1-0.2c0-0.1,0-0.1,0-0.1c0.1-0.1,0.2-0.1,0.4-0.1c0.1,0,0.2,0.1,0.4,0.2
			c0.1,0.1,0.2,0.2,0.3,0.3c0.1,0.1,0.2,0.2,0.3,0.3l0,0l0,0C74.9,13.7,74.9,13.8,74.8,13.9L74.8,13.9"/>
		<path class="st2" d="M75.9,15c0,0,0.1-0.1,0.1-0.2c0-0.1,0.1-0.2,0-0.2c0,0-0.1-0.1-0.2-0.1c0,0-0.2-0.1-0.2,0c0,0,0,0.2,0,0.3
			C75.8,14.8,75.9,14.9,75.9,15C75.9,15,75.9,15,75.9,15z M75.8,15.4c0-0.1-0.1-0.1-0.1-0.2s-0.1-0.2-0.1-0.3c0-0.1-0.1-0.4-0.1-0.4
			c0,0-0.2-0.1-0.3-0.1c-0.1-0.1-0.2-0.2-0.3-0.3c-0.1-0.1-0.1-0.2-0.2-0.3c0.1-0.1,0.1-0.1,0.2-0.2c0.1,0.1,0.1,0.2,0.2,0.3
			c0.1,0.1,0.2,0.2,0.3,0.3c0.1,0,0.2,0.1,0.3,0.1c0.1,0,0.3,0.1,0.4,0.2c0.1,0.1,0.3,0.2,0.3,0.3c0,0.1-0.1,0.3-0.1,0.4
			c-0.1,0.1-0.1,0.2-0.2,0.3C76,15.3,75.9,15.4,75.8,15.4"/>
		<path class="st2" d="M75.8,14.5c0,0,0,0.1,0,0.2c0,0.1,0,0.2,0.1,0.2c0,0,0-0.1,0.1-0.1c0-0.1,0.1-0.2,0-0.2
			C76,14.6,76,14.6,75.8,14.5C75.9,14.5,75.8,14.5,75.8,14.5z M76,15.1L76,15.1L76,15.1c-0.1-0.1-0.2-0.2-0.2-0.3
			c-0.1-0.3,0-0.3,0-0.3l0,0h0c0,0,0.1,0,0.2,0.1c0,0,0.2,0.1,0.2,0.2c0,0.1,0,0.1,0,0.2C76.1,14.9,76,15,76,15.1L76,15.1z
			 M74.7,13.7c0.1,0.1,0.1,0.1,0.2,0.3c0.1,0.1,0.2,0.2,0.3,0.3c0,0,0.1,0,0.1,0.1c0.1,0,0.1,0,0.1,0.1c0,0,0,0.1,0.1,0.2
			c0,0.1,0,0.2,0,0.2c0,0.1,0.1,0.2,0.1,0.3c0,0.1,0.1,0.1,0.1,0.2l0.2-0.1c0,0,0.1-0.1,0.2-0.2l0,0c0-0.1,0.1-0.3,0.1-0.3
			c0,0-0.1-0.1-0.3-0.2c-0.1-0.1-0.3-0.1-0.4-0.2c-0.1,0-0.2-0.1-0.3-0.1c-0.1-0.1-0.2-0.2-0.3-0.3c-0.1-0.1-0.1-0.2-0.2-0.2
			L74.7,13.7z M75.8,15.5L75.8,15.5c-0.1-0.1-0.1-0.2-0.1-0.3c-0.1-0.1-0.1-0.2-0.1-0.3c0-0.1,0-0.2-0.1-0.3c0-0.1,0-0.1,0-0.2
			c0,0-0.1,0-0.1,0c-0.1,0-0.1-0.1-0.2-0.1c-0.1-0.1-0.2-0.2-0.3-0.3c-0.1-0.1-0.1-0.2-0.2-0.3l0,0l0.3-0.2l0,0
			c0.1,0.1,0.1,0.2,0.2,0.3c0.1,0.1,0.2,0.2,0.3,0.3c0.1,0,0.2,0.1,0.3,0.1c0.1,0,0.3,0.1,0.4,0.2c0.3,0.2,0.3,0.3,0.3,0.3
			c0,0.1,0,0.2-0.1,0.4l0,0c-0.1,0.1-0.1,0.2-0.2,0.3L75.8,15.5"/>
		<path class="st2" d="M77.4,17C77.4,17,77.4,17,77.4,17c-0.1,0-0.1,0-0.1,0c0,0,0.2-0.3,0.2-0.6c0.1-0.3,0-0.5,0-0.6
			c0,0,0,0-0.1-0.1c0,0-0.1,0-0.1-0.1c0,0,0-0.1,0-0.2c0-0.1,0-0.3,0-0.4c0-0.1,0.1-0.2,0.1-0.3c0,0,0.1,0,0.1,0.1
			c0.1,0.1,0.1,0.3,0.2,0.6c0.1,0.3,0.1,0.6,0,0.9C77.7,16.7,77.5,16.9,77.4,17z M76.9,18.3c0-0.1,0-0.1,0-0.2c0-0.1,0-0.3,0-0.4
			c0.1-0.1,0.2-0.2,0.4-0.3c0,0,0,0,0.1,0c0,0,0,0,0,0c0,0-0.6-0.2-0.7-0.2c-0.2-0.1-0.3-0.3-0.4-0.5c-0.1-0.2-0.3-0.6-0.5-1
			c0,0,0,0,0,0c0.3,0.3,0.5,0.6,0.6,0.8c0.2,0.3,0.4,0.5,0.6,0.7c0.2,0.2,0.4,0.2,0.6,0.2c0.1,0,0.2-0.1,0.2-0.1
			c0.1,0,0.1-0.1,0.2-0.2c0.1,0,0.1,0,0.1,0.1c0,0,0.1,0.1,0.1,0.1c0,0-0.2,0.2-0.3,0.3c-0.1,0.1-0.2,0.1-0.3,0.2
			c-0.1,0.1-0.3,0.1-0.4,0.2c-0.1,0.1-0.2,0.1-0.2,0.2c0,0,0,0.1,0,0.1c0,0.1,0,0.1,0,0.2C77.1,18.3,77,18.3,76.9,18.3"/>
		<path class="st2" d="M77.4,14.9L77.4,14.9c-0.1,0-0.1,0.1-0.1,0.2c0,0.1,0,0.2,0,0.3c0,0.1,0,0.2,0,0.2c0,0,0,0,0,0
			c0,0,0.1,0,0.1,0.1c0.1,0.1,0.1,0.3,0,0.6c0,0.1-0.1,0.3-0.2,0.4c0,0,0,0,0,0.1c0,0,0,0,0,0c0.1,0,0.2-0.2,0.3-0.5
			c0-0.2,0-0.5,0-0.9C77.6,15.3,77.5,15.1,77.4,14.9C77.5,14.9,77.4,14.9,77.4,14.9z M77.3,17C77.2,17,77.2,17,77.3,17
			c-0.1-0.1-0.1-0.1,0-0.2c0-0.1,0.1-0.3,0.2-0.4c0-0.2,0-0.4,0-0.6c0,0,0,0,0,0c0,0-0.1,0-0.1-0.1c0,0,0-0.1-0.1-0.2
			c0-0.1,0-0.3,0-0.4c0-0.1,0.1-0.2,0.1-0.3c0.1,0,0.1,0,0.2,0.1s0.1,0.3,0.2,0.6c0.1,0.3,0.1,0.6,0,0.9C77.7,16.8,77.5,17,77.3,17
			C77.4,17,77.4,17,77.3,17L77.3,17z M76,15.8c0,0.1,0.1,0.2,0.1,0.3c0.1,0.2,0.2,0.4,0.2,0.5c0.1,0.2,0.3,0.4,0.4,0.5
			c0.1,0.1,0.4,0.1,0.5,0.2c0.2,0.1,0.2,0.1,0.2,0.1v0l0,0c0,0,0,0,0,0c0,0,0,0-0.1,0c-0.2,0.1-0.3,0.2-0.4,0.3
			c-0.1,0.1-0.1,0.2,0,0.3c0,0.1,0,0.1,0,0.1l0.2,0c0,0,0-0.1,0-0.1c0,0,0-0.1,0-0.2c0-0.1,0.1-0.2,0.2-0.2c0.1-0.1,0.2-0.1,0.4-0.2
			c0.1-0.1,0.2-0.1,0.3-0.2c0.1-0.1,0.2-0.2,0.3-0.2c0,0,0,0-0.1,0c0,0-0.1,0-0.1,0c-0.1,0.1-0.1,0.1-0.2,0.2
			c-0.1,0-0.2,0.1-0.3,0.1c-0.2,0.1-0.4,0-0.7-0.2c-0.2-0.1-0.4-0.3-0.6-0.7c-0.1-0.1-0.1-0.2-0.2-0.3C76.2,16,76.1,15.9,76,15.8z
			 M76.9,18.4L76.9,18.4c0-0.1,0-0.2-0.1-0.2c0-0.2,0-0.3,0-0.4c0.1-0.1,0.2-0.3,0.5-0.3c0,0,0,0,0,0c-0.2-0.1-0.5-0.1-0.5-0.2
			c-0.2-0.1-0.3-0.3-0.5-0.5c-0.1-0.1-0.1-0.3-0.2-0.5c-0.1-0.2-0.2-0.3-0.3-0.6l0,0l0.1-0.1l0,0c0.2,0.2,0.3,0.4,0.4,0.5
			c0.1,0.1,0.2,0.2,0.2,0.3c0.2,0.3,0.4,0.5,0.6,0.7c0.2,0.2,0.4,0.2,0.6,0.2c0.1,0,0.2-0.1,0.2-0.1c0.1,0,0.1-0.1,0.2-0.2l0,0l0,0
			c0.1,0,0.1,0,0.1,0.1c0.2,0.1,0.2,0.1,0.2,0.1s0,0.1-0.4,0.3c-0.1,0.1-0.2,0.1-0.3,0.2c-0.1,0.1-0.3,0.1-0.4,0.2
			c-0.1,0.1-0.2,0.1-0.2,0.2c0,0,0,0.1,0,0.1c0,0.1,0,0.1,0,0.2l0,0L76.9,18.4"/>
		<path class="st2" d="M77.4,21.3c0-0.1,0-0.1,0-0.2c0-0.1,0-0.2,0-0.3c0-0.1,0.1-0.2,0-0.2c0-0.1-0.1-0.2-0.1-0.2
			c0-0.1-0.1-0.2-0.1-0.4c0-0.1,0-0.1,0-0.2c0-0.1,0-0.2,0-0.3c0-0.1,0-0.2,0-0.2c0-0.1-0.1-0.2-0.1-0.2c0-0.1-0.1-0.2-0.1-0.3
			c0-0.2-0.1-0.3-0.1-0.5c0.1,0,0.1,0,0.3-0.1c0.1,0.2,0.1,0.3,0.1,0.5c0,0.1,0.1,0.2,0.1,0.3c0,0.1,0.1,0.1,0.2,0.1
			c0,0,0.1,0,0.1,0c0,0,0.1,0,0.1,0c0,0,0.1,0.1,0.1,0.1c-0.1,0.1-0.1,0.1-0.2,0.2c-0.1,0.1-0.1,0.1-0.1,0.2c0,0.1,0,0.2,0,0.3
			c0,0.1,0,0.1,0,0.2c0,0.1,0,0.2,0.1,0.3c0,0.1,0.1,0.1,0.1,0.1c0,0,0.1,0,0.1,0c0,0,0.1,0,0.1,0c0,0,0.1,0.1,0.1,0.1
			c-0.1,0-0.1,0-0.1,0.1c-0.1,0.1-0.2,0.1-0.2,0.2c0,0.1,0,0.2,0,0.3c0,0,0,0.1,0,0.1c0,0,0,0,0.1,0c0.1,0,0.1,0,0.2-0.1
			c0,0,0-0.1,0.1-0.2c0.1,0.1,0.1,0.1,0.2,0.2c-0.1,0.1-0.1,0.1-0.2,0.2c-0.1,0-0.2,0.1-0.3,0.1C77.6,21.3,77.6,21.3,77.4,21.3"/>
		<path class="st2" d="M77,18.2c0,0.2,0.1,0.3,0.1,0.4c0,0.2,0.1,0.3,0.1,0.3c0,0,0,0.1,0,0.1c0,0,0.1,0.1,0.1,0.1c0,0,0,0.1,0,0.2
			c0,0,0,0.1,0,0.1c0,0.1,0,0.2,0,0.3c0,0.1,0,0.1,0,0.2c0,0.2,0,0.3,0.1,0.4c0,0,0,0.1,0,0.1c0,0,0.1,0.1,0.1,0.1c0,0,0,0.1,0,0.1
			c0,0,0,0.1,0,0.1c0,0.1,0,0.2,0,0.3c0,0.1,0,0.1,0,0.2c0.1,0,0.2,0,0.3,0c0.1,0,0.2,0,0.3-0.1c0,0,0.1,0,0.1-0.1
			c0,0-0.1-0.1-0.1-0.1C78,21,78,21,78,21c-0.1,0.1-0.2,0.1-0.2,0.2l0,0c0,0-0.1,0-0.1-0.1c0,0,0-0.1,0-0.1c0-0.1,0-0.2,0-0.3
			c0-0.1,0.1-0.2,0.2-0.2c0,0,0.1,0,0.1,0c0,0,0,0,0,0c0,0,0,0-0.1,0c0,0-0.1,0-0.1,0c0,0,0,0,0,0c0,0-0.1,0-0.2-0.1
			c0-0.1-0.1-0.2-0.1-0.3c0-0.1,0-0.1,0-0.2c0-0.1,0-0.2,0-0.3c0-0.1,0.1-0.2,0.1-0.2c0,0,0.1-0.1,0.1-0.1c0,0,0,0,0,0
			c0,0,0,0-0.1,0c0,0-0.1,0-0.1,0c-0.1,0-0.2,0-0.2-0.2c0-0.1-0.1-0.2-0.1-0.3c0-0.2-0.1-0.3-0.1-0.5L77,18.2z M77.4,21.3L77.4,21.3
			c0-0.1,0-0.2,0-0.3c0-0.1,0-0.2,0-0.3c0,0,0-0.1,0-0.1c0,0,0-0.1,0-0.1c0,0,0-0.1,0-0.1c0,0,0-0.1,0-0.1c0-0.1-0.1-0.2-0.1-0.4
			c0-0.1,0-0.1,0-0.2c0-0.1,0-0.2,0-0.3c0,0,0-0.1,0-0.1c0,0,0-0.1,0-0.1c0,0,0-0.1-0.1-0.1c0,0,0-0.1-0.1-0.1
			c0-0.1-0.1-0.2-0.1-0.3c0-0.2-0.1-0.3-0.1-0.5l0,0l0.4-0.1l0,0c0.1,0.2,0.1,0.3,0.1,0.5c0,0.1,0.1,0.2,0.1,0.3
			c0,0.1,0.1,0.1,0.1,0.1c0,0,0,0,0.1,0c0,0,0.1,0,0.1,0l0,0l0,0c0,0,0.1,0.1,0.1,0.1l0,0l0,0c-0.1,0.1-0.1,0.1-0.2,0.2
			c-0.1,0.1-0.1,0.1-0.1,0.2c0,0.1,0,0.2,0,0.3c0,0.1,0,0.1,0,0.2c0,0.1,0,0.2,0.1,0.3c0,0.1,0.1,0.1,0.1,0.1c0,0,0.1,0,0.1,0
			c0,0,0.1,0,0.1,0l0,0l0,0c0,0,0.1,0.1,0.1,0.1l0,0l-0.1,0c-0.1,0-0.1,0-0.1,0.1c-0.1,0.1-0.2,0.1-0.2,0.2c0,0.1,0,0.1,0,0.2
			c0,0,0,0.1,0,0.1c0,0,0,0,0,0c0,0,0.1,0,0.1-0.1c0,0,0-0.1,0.1-0.1l0-0.1l0,0c0.1,0.1,0.1,0.1,0.2,0.2l0,0l0,0
			c-0.1,0.1-0.1,0.2-0.2,0.2c-0.1,0-0.2,0.1-0.3,0.1C77.6,21.3,77.6,21.3,77.4,21.3L77.4,21.3"/>
		<path class="st2" d="M77.8,22.3c-0.1,0-0.2,0-0.2-0.1c0,0-0.1-0.1-0.2-0.2c0,0,0,0,0-0.1c0,0,0.1,0,0.1,0c0,0,0.1,0,0.1,0
			c0.1,0,0.3,0,0.5,0c0.2,0,0.4-0.1,0.6-0.1c0.1,0,0.3-0.1,0.4-0.1c0,0,0.1,0.1,0.1,0.1c0,0.1,0.1,0.1,0.1,0.2c0,0-0.2,0.1-0.4,0.1
			c-0.2,0-0.4,0.1-0.5,0.1C78.1,22.3,77.9,22.3,77.8,22.3"/>
		<path class="st2" d="M77.5,22c0.1,0.1,0.1,0.1,0.1,0.1c0.1,0.1,0.1,0.1,0.2,0.1h0c0.1,0,0.3,0,0.4,0c0.2,0,0.4-0.1,0.5-0.1
			c0.2-0.1,0.3-0.1,0.3-0.1c0,0,0-0.1-0.1-0.1l0,0c0,0,0,0,0,0c0,0-0.1-0.1-0.1-0.1c0,0-0.1,0-0.2,0c-0.1,0-0.1,0-0.2,0.1
			c-0.2,0-0.4,0.1-0.6,0.1c-0.2,0-0.4,0-0.5,0C77.6,22,77.6,22,77.5,22C77.5,22,77.5,22,77.5,22z M77.9,22.3L77.9,22.3
			c-0.1,0-0.2,0-0.3-0.1c0,0-0.1-0.1-0.2-0.2l0,0l0-0.1l0,0c0,0,0.1,0,0.1,0c0,0,0.1,0,0.1,0c0.1,0,0.3,0,0.5,0
			c0.2,0,0.4-0.1,0.6-0.1c0,0,0.1,0,0.2,0c0.1,0,0.2-0.1,0.2,0c0,0,0.1,0,0.1,0.1c0,0,0,0,0,0l0,0c0.1,0.1,0.1,0.1,0.1,0.2
			c0,0,0,0-0.4,0.2c-0.2,0-0.4,0.1-0.6,0.1C78.1,22.3,78,22.3,77.9,22.3"/>
		<path class="st0" d="M68.2,28.2c-0.3,0.6,0.4,0.5,0.4,0.5c0.2,0.3-0.4,0.7-0.9,0.7s-0.6,0.3-0.5,0.4c1.3,0.2,1.9-0.9,1.8-1.4
			C68.9,27.8,68.5,27.6,68.2,28.2"/>
		<path class="st0" d="M68.8,26.2c0.2-0.2,0.2,0.2,0.2,0.2C68.9,26.4,68.6,26.3,68.8,26.2z M69.3,26.5c0-0.4-0.3-0.7-0.7-0.4
			c-0.3,0.3,0.2,0.8,0.2,0.8c-0.1,0.4-1,0.6-1.3,0.6s-0.6,0.1-0.4,0.3C68.9,27.9,69.4,26.9,69.3,26.5"/>
		<path class="st0" d="M68.2,26C68.3,26.2,68.3,26.2,68.2,26c0.1,0.1,0.4-0.8,0-1.7c-0.3,0.3-0.4,0.5-0.4,0.5S68.2,25,68.2,26"/>
		<path class="st0" d="M66.2,24.4c0,0.7,0.1,1.7,0.2,2.2c0.1,0.8-0.4,0.7-0.7,0.8c-0.3,0-0.6-0.1-0.8-0.2c-0.1,0.3,0.1,0.5,0.9,0.5
			c0.8,0,0.9-0.7,0.9-1c0.8,0.1,1,0,1.3-0.2c-0.1-0.6-1.1-0.6-1.1-0.6c0.1,0,0.4,0.3,0.5,0.5c0,0.1-0.7,0-0.7,0s-0.1-2.2-0.3-2.5
			c0,0-0.1,0.1-0.1,0.2C66.4,24.2,66.3,24.3,66.2,24.4"/>
		<path class="st0" d="M61.6,25.8c0.1,0,0.1,0.3,0.1,0.3C61.4,26.1,61.5,25.8,61.6,25.8z M65.3,23.5c0,0.4,0.1,0.3,0.2,0.3
			s0.4,0.6-0.1,0.6c-0.2,0,0,0.6,0,0.7c0,0.1-0.1,1.1-0.2,1.1c0,0-0.2,0.2-0.1-0.3c0-0.5,0-2.9,0-2.9S65.3,23.1,65.3,23.5z
			 M61.2,26.3c-0.1,0.1-0.9,1.1,0.4,1.3c0.4,0,1.3-0.1,1.3-0.5c0-0.1-0.1-0.1-0.3,0s-1.5,0.3-1.4-0.3c0.2-0.5,0.5-0.5,1-0.4
			c0.3,0,0.3,0,0.3,0s0-0.1,0.1-0.1c0.1,0,0.2,0.2,0.2,0.2s0.6,0.1,0.6-0.3c0-0.5,0-0.8,0.1-0.8c0.1,0,0.1,0.1,0.1,0.4
			c0,0.2,0,1.1,0,1.1s0.3,0,0.3-0.2c0-0.2,0.2-0.3,0.4,0c0.1,0.3,0.4,0.2,0.5,0.1c0.1,0,0.1,0.4,0.5,0.1c0.2-0.2,0.3-0.4,0.3-0.5
			c0-0.1,0-1.2,0-1.2c0.1,0,0.2,0.1,0.1,0.5c0,0.4,0,1,0.1,1c0,0,0.3-0.2,0.2-0.7c0-0.6-0.6-1.5,0.1-1.4c0,0,0,0,0,0
			c0-0.1,0-0.2,0-0.3c0,0-0.1-0.1-0.2-0.1c-0.1-0.2-0.6-0.9-0.6-1.1c0-0.2,0-0.8-0.1-0.8c-0.1,0-0.3,0.3-0.1,0.7
			c-0.1,0.1,0-0.1-0.1-0.1c-0.1,0-0.3-0.4-0.3,0.3c0,0.7,0,3.3,0,3.3s-0.3,0.3-0.3-0.9c0-0.1-0.2-0.1-0.3,0.3c0,0.3-0.4,0.3-0.4,0.1
			c0-0.3,0-2,0-2s0.2-0.1,0.1-0.2c0-0.1-0.1-0.2-0.2-0.3c0-0.1,0-1.1,0-1.1s-0.4,0.1-0.3,0.7c0,0.6,0,0.7,0.2,0.8c0,1.1,0,1.3,0,1.3
			s-0.2,0.1-0.2-0.2c0-0.1-0.2-0.1-0.2-0.3s0-0.7,0-0.7s-0.4-0.1-0.4,0.4c0,0.5,0.2,0.7,0.3,0.7c0.1,0.1,0,1.2,0,1.2s-0.3,0.2-0.3,0
			c0-0.1-0.3-0.2-0.4,0.1c-0.1,0-0.3-0.2-0.4-0.3s-0.8-0.6-1.2,0C61,25.9,61.3,26.2,61.2,26.3"/>
		<path class="st0" d="M65,21.3c0,0-0.7-0.3-0.8-0.4c-0.1-0.1-0.3-0.2-0.4-0.1C63.8,20.9,63.9,21.7,65,21.3"/>
		<path class="st0" d="M67.1,28.3c-0.2,0-0.5-0.1-0.6,0c-0.1,0.1,0.4,0.4,0.4,0.4s0,0-0.4,0.3s-0.1,0.5-0.1,0.5
			c0.1,0.1,0.9-0.4,1.4-0.7C68.3,28.5,67.2,28.3,67.1,28.3"/>
		<path class="st0" d="M65.3,28c-0.2,0-0.1,0.3-0.1,0.3c0,0.1-0.2,0.4-0.4,0.5c-0.2,0.1-0.3,0.5-0.2,1.6c0,1.1,0.3,0.9,0.3,0.9
			s0-1.3,0-1.9c0-0.6,0.6-0.7,1-0.7C66.4,28.5,65.5,28,65.3,28"/>
		<path class="st0" d="M61.4,28.9c0,0-0.1-1.1-0.4-1.1C60.9,28.1,61,29.1,61.4,28.9"/>
		<path class="st0" d="M62.5,29c0,0,0-0.1,0.5-0.4s0-0.6-0.1-0.6c0.1,0.2-0.2,0.4-0.3,0.5c-0.2-0.4-0.5-0.4-0.5-0.4
			c-0.3,0.4-0.2,0.5,0.1,0.7c0.3,0.2-0.3,0.4-0.7,0.6c-0.4,0.2-0.2,0.3-0.1,0.4C62.2,29.7,62.5,29,62.5,29"/>
		<path class="st0" d="M64.3,27c0,0-0.3,0.2-0.6,0.5c-0.3,0.8,0.5,0.7,0.5,0.7c0,0.6,0.3,0.5,0.3,0.5s0-0.3,0-1
			C64.5,27,64.3,27,64.3,27"/>
		<path class="st0" d="M63.8,28.8c-0.2,0.3-0.6,0.3-0.6,0.3l0,0.3c0,0,0,0,0.1,0.1c0.1,0.4-1,0.8-1.2,0.9c-0.3,0-0.4,0.1-0.3,0.4
			c1.3,0.2,2.2-1.4,2.3-1.7C64.3,28.8,64,28.7,63.8,28.8"/>
		<path class="st0" d="M65.3,29.7c-0.1,0.3-0.3,0.5,0.3,0.7c0.5,0.2,0.6-0.3,0.5-0.6C65.8,30.4,65.3,29.7,65.3,29.7"/>
		<path class="st0" d="M61.9,26.7c0,0.1,0.1,0.1,0.1,0.1s0.1-0.1,0.1-0.1c0-0.1-0.1-0.1-0.1-0.1S61.9,26.6,61.9,26.7"/>
		<path class="st0" d="M61.4,26.8c0,0.1,0.1,0.1,0.1,0.1s0.1-0.1,0.1-0.1c0-0.1-0.1-0.1-0.1-0.1C61.4,26.7,61.4,26.7,61.4,26.8"/>
		<path class="st0" d="M83.9,22.6c0,0,1.6-0.3,1.9,0.6c0,0,0.7,1.4-0.7,4.6c0,0-0.5-1-0.8-0.2c0,0-0.2,0.3,0,0.7
			c0,0-0.8-0.3-1.1-1.4C83.3,27,84,23,83.9,22.6z M85,25.8c0.3,0,0.6-0.5,0.6-1.1c0-0.6-0.3-1.1-0.6-1.1s-0.6,0.5-0.6,1.1
			C84.4,25.3,84.7,25.8,85,25.8z"/>
		<line class="st3" x1="57" y1="39.5" x2="56.7" y2="39.6"/>
		<line class="st3" x1="61.5" y1="38.1" x2="60.8" y2="38.3"/>
		<line class="st3" x1="69.7" y1="38" x2="69.3" y2="37.9"/>
		<line class="st3" x1="73.9" y1="39.2" x2="73.5" y2="39.1"/>
	</g>
	<g>
		<path class="st0" d="M60.6,64.2c-0.6,0-1.1,0-1.6,0c-0.6,0-1.2,0-1.9,0c-1.1,0-1.6-0.5-1.6-1.6c0-1.8,0-3.5,0-5.3
			c0-0.3,0-0.5-0.1-0.8c-0.1-0.6-0.5-0.9-1.1-1c-0.6,0-1.1,0.4-1.2,1c0,0.2,0,0.4,0,0.6c0,1.7,0,3.3,0,5c0,0.8,0.2,1.4,0.8,1.9
			c0,0,0,0.1,0,0.1c-0.1,0.1-0.2,0.1-0.3,0.1c-1,0-2,0-3,0c-1,0-1.6-0.6-1.6-1.6c0-1.8,0-3.6,0-5.3c0-0.2,0-0.4,0-0.6
			c-0.1-0.6-0.7-1-1.3-1c-0.6,0-1.1,0.6-1.1,1.1c0,1.2,0,2.4,0,3.6c0,0.7,0,1.3,0,2c0,0.6,0.2,1.1,0.6,1.5c0.1,0.1,0.1,0.1,0.1,0.2
			c0,0,0,0,0,0c-1.2,0.1-2.4,0.1-3.6,0c-0.8,0-1.3-0.7-1.3-1.5c0-1.6,0-3.3,0-4.9c0-0.7,0-1.4,0-2.2c0-0.9-0.1-1.7-1.1-2.2
			c0.7-0.1,1.3-0.1,1.8-0.2c0.6-0.1,1.1-0.1,1.7-0.2c0.2,0,0.4,0,0.5,0c0.8,0.1,1,0.4,1.1,1.2c0,0.1,0,0.1,0.1,0.2
			c0.7-0.8,1.6-1.2,2.7-1.2c1.1,0,2,0.4,2.7,1.2c0.2,0,0.3-0.1,0.5-0.2c0.9-0.7,1.9-1,2.9-1c1,0,2,0.1,2.8,0.8
			c0.8,0.6,1.2,1.4,1.2,2.4c0,2,0,3.9,0,5.9c0,0.5,0.1,1,0.4,1.4C60.2,63.8,60.4,63.9,60.6,64.2z"/>
		<path class="st0" d="M81.5,55.4c0.1,0.1,0.3,0.1,0.4,0.2c1.7,0.6,2.6,1.9,2.7,3.7c0.1,2.7-2.1,4.9-4.7,4.9c-2.6,0-5.1,0-7.7,0
			c-0.1,0-0.2,0-0.3-0.1c0-0.2,0.2-0.3,0.3-0.4c0.4-0.4,0.7-0.9,0.7-1.5c0-3.7,0-7.5,0-11.2c0-0.6,0-1.1-0.3-1.6
			c-0.1-0.2-0.3-0.4-0.5-0.6c0-0.2,0.1-0.1,0.2-0.1c2.4,0,4.8,0,7.2,0c0.7,0,1.3,0.1,1.9,0.3c1.4,0.5,2.4,1.9,2.3,3.4
			c0,1.3-0.7,2.2-1.8,2.7C81.8,55.2,81.6,55.2,81.5,55.4C81.5,55.3,81.5,55.3,81.5,55.4z M77.3,56.8c0,0.1-0.1,0.1-0.1,0.2
			c0,1.4,0,2.9,0,4.3c0,0.4,0.2,0.5,0.6,0.6c0.9,0.1,1.8-0.4,2.2-1.2c0.4-0.9,0.4-1.9,0-2.8c-0.2-0.6-0.7-1-1.4-1.1
			C78.2,56.8,77.8,56.8,77.3,56.8z M77.3,51c-0.1,0.2-0.1,0.4-0.1,0.6c0,0.8,0,1.6,0,2.3c0,0.8,0.2,1,1,0.7c0.1-0.1,0.3-0.1,0.4-0.2
			c0.6-0.5,0.8-1.2,0.7-2C79.1,51.2,78.5,50.8,77.3,51z"/>
		<path class="st0" d="M114.9,59.4c0,1.2,0,2.3,0,3.4c0,0.4,0.2,0.7,0.5,1c0.1,0.1,0.2,0.1,0.3,0.3c-0.1,0.1-0.3,0.1-0.5,0.1
			c-0.9,0-1.8,0-2.6,0c-1.2,0-1.7-0.5-1.7-1.7c0-3.6,0-7.2,0-10.8c0-0.4,0-0.9,0-1.3c0-0.6-0.2-1.1-0.6-1.5
			c-0.1-0.1-0.1-0.1-0.1-0.2c0.1-0.1,0.3-0.1,0.4-0.1c0.9-0.1,1.9-0.1,2.8-0.2c1.1-0.1,1.6,0.4,1.6,1.5c0,2.5,0,5,0,7.4
			c0,0.2,0,0.3,0,0.5c0.2,0.1,0.2-0.1,0.3-0.1c1-1.3,2.2-2.5,3.2-3.8c0.5-0.6,1.1-0.9,1.9-0.8c0.7,0,1.3,0,2,0c0.1,0,0.2,0,0.3,0.1
			c-1.4,1.2-2.5,2.7-3.8,4.1c-0.3,0.3-0.3,0.3,0,0.7c1,1.5,2,3,2.9,4.5c0.4,0.6,0.8,1.1,1.4,1.5c0,0,0.1,0.1,0.1,0.2
			c0,0.1-0.2,0.1-0.3,0.1c-1.2,0-2.4,0-3.6,0c-0.8,0-1.4-0.3-1.8-1c-0.8-1.2-1.5-2.4-2.3-3.6C115.1,59.6,115,59.5,114.9,59.4z"/>
		<path class="st0" d="M102.2,54.1c0.1,0,0.1,0,0.2,0c1.2-1.1,2.6-1.2,4.1-0.8c1.3,0.3,2.2,1.1,2.6,2.4c0.1,0.4,0.2,0.8,0.2,1.2
			c0,1.9,0,3.7,0,5.6c0,0.7,0.2,1.3,0.8,1.6c-0.1,0.2-0.2,0.1-0.3,0.1c-1,0-2,0-3,0c-1,0-1.5-0.5-1.6-1.5c0-1.6,0-3.2,0-4.9
			c0-0.3,0-0.5,0-0.8c0-0.6-0.3-1.1-0.9-1.4c-0.9-0.5-2,0.1-2,1.1c0,1.3,0,2.5,0,3.8c0,0.6,0,1.2,0,1.8c0,0.6,0.2,1.1,0.7,1.5
			c0,0,0.1,0.1,0.1,0.1c0,0,0,0,0,0.1c-0.1,0.1-0.2,0.1-0.3,0.1c-1,0-2,0-3,0c-0.4,0-0.8-0.1-1.1-0.4c-0.3-0.3-0.5-0.6-0.5-1.1
			c0-1.3,0-2.6,0-3.9c0-1.1,0-2.2,0-3.3c0-0.8-0.1-1.6-0.8-2.1c0-0.1,0.1-0.2,0.2-0.2c1.1,0,2.3-0.2,3.4-0.3c0,0,0,0,0.1,0
			C101.9,53,102.1,53.2,102.2,54.1z"/>
		<path class="st0" d="M31.6,56c-0.1-0.2,0-0.2,0-0.3c0.3-0.8,0.6-1.5,0.9-2.2c1.1-0.2,2.3-0.3,3.4-0.3c0.7,0,1.4,0.1,2,0.4
			c1.3,0.6,1.8,1.8,1.9,3.1c0.1,1.2,0,2.4,0,3.6c0,0.2,0,0.5,0.1,0.7c0.2,0.6,0.5,1,1.1,1.1c0.2,0.1,0.4,0.1,0.7,0.1
			c-0.2,0.5-0.5,0.7-0.8,1c-0.9,0.9-2,1.1-3.2,0.6c-1.2-0.5-1.9-1.4-1.9-2.7c0-0.5,0-1,0-1.5c0-0.2,0-0.4-0.1-0.6
			c-0.5,0.3-1.1,0.4-1.5,0.9c-0.4,0.4-0.4,1-0.2,1.5c0.3,0.5,0.8,0.8,1.4,0.8c0.1,0,0.1,0,0.2,0c0.1,0.1,0.1,0.2,0,0.3
			c0,0,0,0.1-0.1,0.1c-0.6,1.4-1.3,1.8-2.9,1.6c-0.5-0.1-1-0.2-1.5-0.5c-1.6-0.9-1.8-2.9-1.4-4c0.2-0.6,0.7-0.9,1.2-1.2
			c0.9-0.5,1.8-0.7,2.8-0.9c0.6-0.2,1.2-0.3,1.8-0.6c0.3-0.2,0.5-0.4,0.4-0.7c0-0.3-0.2-0.6-0.5-0.8c-0.2-0.1-0.3-0.1-0.5-0.1
			c-0.8-0.1-1.6,0-2.4,0.3C32.2,55.8,31.9,56,31.6,56z"/>
		<path class="st0" d="M87.2,56.1c0.3-1,0.7-1.8,1-2.7c1.5-0.2,2.9-0.4,4.4-0.2c1.8,0.3,2.9,1.6,3,3.5c0,1.1,0,2.2,0,3.3
			c0,0.2,0,0.4,0,0.6c0,0.9,0.5,1.5,1.5,1.6c0.1,0,0.3,0,0.4,0.1c-1,2.1-3.8,2.5-5.2,0.8c-0.5-0.6-0.7-1.3-0.7-2.1
			c0-0.6,0-1.2,0-1.9c-0.6,0-1.5,0.6-1.8,1c-0.5,0.9,0.1,2,1.2,2.1c0.1,0,0.3-0.1,0.4,0c-0.3,1.4-1.2,2.1-2.6,2
			c-0.6-0.1-1.2-0.2-1.7-0.5C85.5,63,85,61.6,85.3,60c0.1-0.7,0.7-1.1,1.3-1.5c0.9-0.5,1.8-0.7,2.8-0.9c0.5-0.1,1.1-0.3,1.6-0.5
			c0.5-0.2,0.7-0.5,0.7-0.9c-0.1-0.5-0.4-0.8-0.9-0.8c-0.9-0.1-1.9,0-2.7,0.4C87.7,55.9,87.5,56,87.2,56.1z"/>
		<path class="st0" d="M12.9,61.3c0.5,0.2,0.8,0.4,1.2,0.6c1,0.5,2.1,0.7,3.2,0.7c0.3,0,0.6-0.1,0.9-0.2c0.6-0.3,0.7-0.8,0.2-1.3
			c-0.3-0.3-0.6-0.5-1-0.6c-0.7-0.3-1.4-0.6-2.1-0.9c-0.4-0.2-0.8-0.4-1.1-0.6c-1.4-1.1-1.5-3-0.2-4.2c0.7-0.7,1.6-1.1,2.5-1.2
			c1.2-0.2,2.5-0.1,3.7,0.1c0.5,0.1,1,0.1,1.6,0.2c0,0.8,0,1.6,0,2.4c-0.2,0-0.3-0.1-0.4-0.2c-1-0.6-2-0.7-3.1-0.6
			c-0.5,0-0.6,0.4-0.9,0.7c0.3,0.5,0.7,0.7,1.2,0.9c0.8,0.3,1.5,0.5,2.2,0.8c0.2,0.1,0.5,0.2,0.7,0.3c1.9,1,2.2,4.1,0.2,5.3
			c-1,0.6-2,0.9-3.1,1c-1.7,0.2-3.3,0-4.9-0.4c-0.2,0-0.3-0.1-0.4-0.3C13.2,62.9,13,62.2,12.9,61.3z"/>
		<path class="st0" d="M12,64.2c-1.9,0-3.8,0-5.7,0c0,0,0-0.1,0-0.1c0.6-0.4,0.8-1,0.8-1.7c0-3.9,0-7.8,0-11.8
			c0-0.7-0.2-1.3-0.8-1.8c0.3-0.2,0.5-0.1,0.7-0.2c1-0.1,1.9-0.2,2.9-0.3c0.9-0.1,1.4,0.4,1.4,1.3c0,2.3,0,4.6,0,6.8c0,2,0,4,0,6
			c0,0.6,0.2,1.1,0.6,1.4C12,64,12,64.1,12,64.2z"/>
		<path class="st0" d="M23.4,48.7c0.8-0.2,1.5-0.1,2.2-0.2c0.5-0.1,0.9-0.1,1.4-0.1c1-0.1,1.4,0.3,1.4,1.3c0,4.2,0,8.4,0,12.6
			c0,0.7,0,1.3,0.6,1.8c-0.2,0.2-0.3,0.1-0.4,0.1c-1,0-2,0-3,0c-0.8,0-1.3-0.5-1.3-1.3c0-0.3,0-0.5,0-0.8c0-3.7,0-7.4,0-11.1
			C24.3,50.2,24.3,49.4,23.4,48.7z"/>
		<path class="st0" d="M61.2,53.4c1.2-0.1,2.3-0.1,3.4-0.2c1-0.1,1.4,0.5,1.4,1.4c0,2.5,0,5.1,0,7.6c0,0.7,0.1,1.3,0.7,1.8
			c0,0,0,0.1,0.1,0.2c-0.1,0.1-0.3,0.1-0.4,0.1c-1,0-1.9,0-2.9,0c-1,0-1.5-0.5-1.5-1.5c0-2.3,0-4.6,0-7C62,54.5,61.9,54.3,61.2,53.4
			z"/>
		<path class="st0" d="M6.5,73c0.3-0.4,0.2-0.8,0.2-1.3c0-1,0-2,0-3c0-0.4,0-0.8-0.3-1.2c1,0,1.9-0.1,2.7,0.1c0.5,0.1,0.8,0.4,1,0.9
			c0.1,0.5-0.1,0.8-0.4,1.1c-0.1,0-0.1,0.1-0.2,0.2c0.1,0.2,0.2,0.2,0.3,0.2c0.9,0.5,1.1,1.6,0.4,2.3C9.9,72.7,9.5,72.9,9,73
			C8.2,73,7.4,73,6.7,73C6.6,73,6.6,73,6.5,73z M7.7,72.3c0.4,0.1,0.8,0.1,1.2,0c0.5-0.1,0.8-0.4,0.8-0.9c0-0.5-0.2-0.9-0.7-1
			c-0.4-0.1-0.9-0.2-1.4-0.1C7.6,71,7.5,71.7,7.7,72.3z M7.7,69.7c0.4,0,0.7,0,1-0.1c0.3-0.2,0.5-0.5,0.5-0.8c0-0.4-0.2-0.6-0.7-0.6
			c-0.3,0-0.6-0.1-0.9,0C7.6,68.7,7.6,69.2,7.7,69.7z"/>
		<path class="st4" d="M63.6,47.1c0.8,0.7,1.5,1.3,2.2,2c0.4,0.4,0.4,0.6,0,1.1c-0.3,0.2-0.5,0.5-0.8,0.7c-0.4,0.4-0.9,0.7-1.1,1.3
			c-0.8-0.7-1.5-1.4-2.2-2.1c-0.3-0.3-0.3-0.5,0-0.8c0.3-0.3,0.6-0.6,0.9-0.9C63,48,63.3,47.7,63.6,47.1z"/>
		<path class="st0" d="M21.9,72.2c0.2,0.1,0.4,0.1,0.6,0.1c0.4,0,0.7,0,1,0.1c0.3,0.1,0.6,0.3,0.8,0.5c0.3,0.5,0.3,1-0.2,1.4
			c-0.4,0.3-0.8,0.5-1.3,0.6c-0.7,0.1-1.5,0.1-2.2-0.3c-0.2-0.1-0.4-0.2-0.5-0.4c-0.3-0.5-0.1-1,0.4-1.1c0.1,0,0.3,0,0.4,0
			c0,0,0,0.1,0,0.1c-0.2,0.6-0.1,0.9,0.5,1.1c0.5,0.2,1,0.2,1.4,0c0.5-0.2,0.7-0.5,0.7-0.8c0-0.4-0.3-0.6-0.8-0.7
			c-0.4,0-0.9,0-1.3-0.1c-0.5,0-0.5-0.1-0.7-0.6c0.1-0.2,0.3-0.2,0.4-0.3c0-0.2-0.1-0.2-0.2-0.3c-0.8-0.6-0.8-1.7,0.1-2.2
			c0.3-0.2,0.6-0.3,1-0.3c0.1,0,0.1,0,0.2,0c0.8,0.1,1.6,0,2.3,0.1c0,0.6,0,0.6-1,0.6c-0.1,0.2,0.1,0.3,0.2,0.4
			c0.2,0.5,0.1,1-0.3,1.4c-0.3,0.3-0.7,0.3-1.1,0.4C22.2,71.9,22,71.8,21.9,72.2z M23.1,70.6c0-0.5-0.4-1-1-1
			c-0.5,0-0.9,0.3-0.9,0.8c0,0.5,0.5,1,1,1C22.8,71.4,23.1,71.1,23.1,70.6z"/>
		<path class="st0" d="M64.3,67.6c0,0.3,0,0.6,0,0.8c-0.2,0.1-0.3,0-0.4,0c-0.2-0.1-0.4-0.1-0.6-0.2c-1.6-0.4-2.9,0.9-2.5,2.6
			c0.2,0.9,1.2,1.9,2.5,1.6c0.4-0.1,0.8-0.3,1.2-0.4c-0.2,0.9-0.3,1-1.1,1.2c-0.8,0.1-1.5,0-2.2-0.4c-2-1-1.7-3.8-0.4-4.7
			c0.7-0.5,1.5-0.8,2.4-0.7C63.6,67.4,64,67.4,64.3,67.6z"/>
		<path class="st0" d="M51.5,67.5c0.7,0,1.5,0,2.2,0c0.9,0,1.4,0.7,1.5,1.3c0.1,0.8-0.4,1.4-1.2,1.7c-0.3,0.1-0.7,0.2-1.1,0
			c0.1-0.2,0.3-0.2,0.5-0.3c0.5-0.2,0.8-0.7,0.8-1.2c0-0.4-0.3-0.7-0.7-0.8c-0.3-0.1-0.7-0.1-1,0c-0.1,0.2-0.1,0.4-0.1,0.6
			c0,1,0,2.1,0,3.1c0,0.4,0,0.7,0.4,1.1c-0.5,0.2-1,0-1.4,0.1C51.7,71.2,51.7,69.3,51.5,67.5z"/>
		<path class="st0" d="M34.6,69.4c0-0.6,0.1-1.2-0.2-1.8c0.3-0.1,0.6,0,0.9-0.1c0.2,0.1,0.1,0.3,0.1,0.5c0,1.2,0,2.3,0,3.5
			c0,0.6,0,1.1,0.2,1.7c-0.3,0.1-0.6,0-0.9,0c-0.2-0.2-0.1-0.4-0.1-0.6c0-0.5,0-1.1,0-1.6c0-0.7-0.5-1.1-1.1-1.2
			c-0.6,0-1.1,0.3-1.2,1c-0.3,1.1,0.6,2,1.6,1.9c0.1,0,0.2-0.1,0.3,0c-0.1,0.5-0.2,0.6-0.7,0.6c-1.2,0-2-0.7-2.1-1.8
			c-0.1-1.2,0.6-2.1,1.8-2.3c0.3,0,0.6,0,0.9,0.2C34.2,69.3,34.3,69.4,34.6,69.4z"/>
		<path class="st0" d="M48.4,73c-0.5,0-0.8,0-1.3,0c0.3-0.4,0.3-0.7,0.3-1c0-0.5,0-1,0-1.5c0-0.5-0.4-0.8-0.9-0.8
			c-0.5,0-0.9,0.3-0.9,0.8c0,0.8-0.1,1.7,0.2,2.5c-0.4,0.1-0.7,0-1.1,0.1c0.2-1,0.1-1.9,0.1-2.8c0-0.9,0.1-1.8-0.1-2.7
			c0.3,0,0.6,0,0.9,0c0,0.7,0,1.3,0,1.9c0.2,0.1,0.3,0,0.4-0.1c0.4-0.2,0.9-0.3,1.4-0.2c0.5,0.1,0.8,0.4,0.9,0.9
			c0.1,0.7,0,1.3,0.1,2C48.2,72.3,48.2,72.7,48.4,73z"/>
		<path class="st0" d="M16.5,69c0.1,0.2,0.1,0.3,0.2,0.4c0.1,0,0.2,0,0.2-0.1c0.5-0.5,1.1-0.5,1.7-0.2c0.4,0.2,0.6,0.5,0.6,1
			c0,0.3,0,0.7,0,1c0,0.6,0,1.2,0.2,1.8c-0.4,0-0.7,0-1.1,0c0.2-0.9,0.1-1.7,0.1-2.5c0-0.4-0.2-0.6-0.6-0.8c-0.4-0.1-0.7-0.1-1,0.2
			c-0.1,0.1-0.2,0.3-0.2,0.4c0,0.9-0.1,1.7,0.1,2.6c-0.4,0-0.7,0-1.1,0c0.2-1.3,0.2-2.6,0-3.9C16,69.1,16.3,69.1,16.5,69z"/>
		<path class="st0" d="M57.1,72.3c0.8,0,1.7,0.2,2.5-0.5c-0.1,0.5-0.3,0.8-0.4,1.2c-1.1,0-2.2,0-3.5,0c0.4-0.4,0.3-0.8,0.3-1.1
			c0-1.1,0-2.3,0-3.4c0-0.3,0-0.6-0.3-0.9c0.5-0.1,1,0,1.5-0.1C56.9,68,57,68.6,57,69.1c0,0.9,0,1.7,0,2.6
			C57,71.9,57,72.1,57.1,72.3z"/>
		<path class="st0" d="M11.9,69.9c0.4-1,0.7-0.9,1.6-0.8c0.7,0.1,1,0.5,1,1.2c0,0.7,0,1.3,0.1,2c0.2,0.1,0.3,0.1,0.5,0.2
			c-0.2,0.5-0.2,0.6-0.5,0.5c-0.5,0-0.8-0.3-0.8-0.7c0-0.3,0-0.6,0-0.9c0-0.1,0-0.3-0.1-0.5c-0.3,0.1-0.7,0.2-1.1,0.3
			c-0.3,0.1-0.5,0.3-0.4,0.6c0,0.3,0.2,0.5,0.6,0.6c0.2,0,0.5-0.1,0.7,0c0,0.3-0.1,0.4-0.3,0.5c-0.6,0.3-1.4,0-1.7-0.6
			c-0.4-0.7-0.1-1.4,0.7-1.6c0.4-0.1,0.8-0.2,1.2-0.3c0.2-0.1,0.4-0.1,0.4-0.4c0-0.3-0.2-0.4-0.4-0.5c-0.3-0.1-0.5,0-0.8,0
			C12.3,69.8,12.2,69.9,11.9,69.9z"/>
		<path class="st0" d="M40.2,71c-1,0-2,0-2.9,0c0,0.8,0.4,1.3,1,1.5c0.6,0.1,1.2,0,1.8-0.3C40,72.7,39.8,73,39.4,73
			c-0.7,0.1-1.4,0.1-2.1-0.2c-1.5-0.7-1.3-2.7-0.3-3.4c0.9-0.6,2-0.5,2.7,0.2C40.1,70,40.2,70.4,40.2,71z M37.2,70.5
			c0.4,0,0.7,0,1,0c0.3,0,0.7,0.1,1,0c-0.2-0.6-0.5-0.9-1-0.9C37.8,69.6,37.4,69.8,37.2,70.5z"/>
		<path class="st0" d="M30.9,72.5c-0.3,0.7-0.6,0.7-1.4,0.1c-0.1-0.5,0-1.1-0.1-1.7c-0.5,0-0.8,0.2-1.2,0.3
			c-0.3,0.1-0.4,0.3-0.4,0.6c0,0.3,0.2,0.5,0.5,0.6c0.3,0,0.5,0,0.8,0c-0.2,0.5-0.3,0.6-0.7,0.6c-0.8,0-1.3-0.3-1.5-0.9
			c-0.2-0.6,0.1-1.1,0.7-1.3c0.2-0.1,0.4-0.1,0.6-0.2c0.2,0,0.4-0.1,0.6-0.1c0.2-0.1,0.5-0.1,0.5-0.4c0-0.3-0.2-0.5-0.6-0.5
			c-0.4-0.1-0.8,0.1-1.1,0.3c0.1-0.7,0.4-1,1-0.9c0.2,0,0.3,0,0.5,0.1c0.6,0.1,1,0.5,1,1.2c0,0.4,0,0.8,0,1.2
			C30.3,72,30.3,72.5,30.9,72.5z"/>
		<path class="st0" d="M75.3,70.2c0.6,0.4,0.7,0.9,0.6,1.5c-0.1,0.4-0.4,0.8-0.8,0.9c-0.6,0.1-1.2,0.1-1.9,0.1c0-1.5,0-3,0-4.6
			c0.6-0.1,1.1-0.1,1.6,0c0.8,0.1,1.2,1,0.8,1.7C75.6,70,75.4,70.1,75.3,70.2z M73.9,72.2c0.5-0.1,1,0.1,1.4-0.4
			c0.2-0.3,0.2-0.8-0.1-1c-0.4-0.4-0.9-0.3-1.4-0.2C73.8,71.1,73.7,71.6,73.9,72.2z M73.8,70c0.3,0.1,0.6,0.1,0.8,0
			c0.3,0,0.4-0.2,0.5-0.5c0.1-0.4,0-0.8-0.2-0.8c-0.4-0.1-0.7-0.2-1.1,0C73.8,69.1,73.7,69.5,73.8,70z"/>
		<path class="st0" d="M121,68.1c0.2-0.1,0.4-0.1,0.6,0c0.1,0.4-0.1,0.8,0.1,1.2c0.2,0,0.4-0.1,0.5-0.2c0.6-0.2,1.1,0.1,1.1,0.8
			c0,0.9,0,1.8,0,2.7c-0.2,0.1-0.3,0.1-0.5,0c-0.1-1,0-2-0.1-2.9c-0.2-0.2-0.4-0.1-0.6-0.1c-0.4,0.1-0.5,0.2-0.5,0.6
			c0,0.6,0,1.3,0,1.9c0,0.2,0,0.3,0,0.5c-0.1,0.1-0.3,0.1-0.5,0C121,71.2,121,69.6,121,68.1z"/>
		<path class="st0" d="M88.5,69.3c0-0.4,0-0.8,0-1.2c0.2-0.1,0.3-0.1,0.5-0.1c0.1,1.5,0,3,0,4.5c-0.3,0.3-0.4,0-0.6-0.1
			c-0.1,0-0.1,0.1-0.2,0.1c-0.7,0.3-1.2,0.1-1.5-0.6c-0.2-0.7-0.2-1.5-0.1-2.2c0.1-0.5,0.8-0.8,1.3-0.6
			C88.2,69.2,88.3,69.4,88.5,69.3z M88.5,71c0-0.3,0-0.7-0.2-1c-0.1-0.2-0.3-0.4-0.6-0.4c-0.2,0-0.4,0.2-0.4,0.4
			c-0.2,0.6-0.2,1.2,0,1.8c0.1,0.2,0.2,0.5,0.5,0.4c0.3,0,0.5-0.2,0.6-0.5C88.5,71.5,88.5,71.2,88.5,71z"/>
		<path class="st0" d="M40.8,72.2c0.4,0.1,0.7,0.3,1.1,0.4c0.3,0,0.6,0.1,0.9-0.1c0.2-0.1,0.3-0.2,0.3-0.4c0-0.2-0.1-0.4-0.3-0.5
			c-0.2-0.1-0.4-0.2-0.6-0.2c-0.3-0.1-0.6-0.2-0.8-0.4c-0.7-0.4-0.5-1.4,0.1-1.7c0.3-0.1,0.5-0.2,0.8-0.2c0.4-0.1,0.8,0,1.1,0.1
			c0.1,0.2,0.1,0.4,0.1,0.7c-0.2,0.1-0.4-0.1-0.6-0.1c-0.3-0.1-0.6-0.1-0.9,0c-0.3,0.2-0.4,0.4,0,0.6c0.2,0.1,0.5,0.2,0.8,0.3
			c0.2,0.1,0.5,0.2,0.7,0.3c0.7,0.4,0.8,1.4,0.1,1.8c-0.7,0.5-1.5,0.5-2.3,0.2C40.9,72.9,40.8,72.5,40.8,72.2z"/>
		<path class="st0" d="M117.6,70.2c0-0.5,0.1-0.8,0.5-1c0.5-0.2,1-0.2,1.4,0.1c0.2,0.2,0.3,0.5,0.3,0.7c0,0.4,0,0.8,0,1.2
			c0,0.5-0.1,1,0.3,1.4c-0.4,0.2-0.4,0.2-0.9-0.1c-0.3,0.2-0.6,0.4-0.9,0.3c-0.4,0-0.6-0.2-0.7-0.5c-0.3-0.7,0-1.2,0.7-1.5
			c0.2-0.1,0.4-0.1,0.6-0.2c0.3-0.1,0.4-0.2,0.4-0.5c0-0.2-0.1-0.4-0.3-0.5c-0.3-0.1-0.5,0-0.7,0.2c0,0.1-0.1,0.1-0.1,0.2
			C118.1,70.3,117.9,70.3,117.6,70.2z M119.1,70.9c-0.3,0-0.6,0.2-0.8,0.3c-0.3,0.1-0.3,0.4-0.3,0.6c0,0.2,0.1,0.4,0.4,0.4
			c0.3,0,0.5-0.1,0.6-0.3c0.1-0.1,0.1-0.2,0.1-0.3C119.2,71.4,119.2,71.2,119.1,70.9z"/>
		<path class="st0" d="M101.4,71.3c0,0.2,0,0.3,0.1,0.4c0.1,0.5,0.5,0.7,1,0.6c0.4-0.1,0.6-0.5,0.6-0.9c0-0.3-0.2-0.5-0.5-0.6
			c-0.3-0.2-0.7-0.3-1-0.4c-0.8-0.4-0.9-1.4-0.3-2c0.4-0.4,1.4-0.4,1.8-0.1c0.3,0.2,0.4,0.5,0.4,0.9c0,0.1,0,0.2-0.2,0.3
			c-0.1,0-0.2,0-0.3-0.1c-0.1-0.1-0.1-0.2-0.1-0.3c-0.1-0.3-0.4-0.5-0.7-0.5c-0.3,0-0.6,0.2-0.7,0.5c-0.1,0.3,0,0.7,0.3,0.9
			c0.1,0.1,0.3,0.1,0.4,0.2c0.2,0.1,0.5,0.2,0.7,0.3c0.6,0.3,0.8,0.7,0.7,1.3c-0.1,0.5-0.4,0.9-0.9,1.1c-0.3,0.1-0.6,0.1-0.9,0
			c-0.6-0.1-1-0.7-1-1.3C100.9,71.2,100.9,71.2,101.4,71.3z"/>
		<path class="st0" d="M104.7,68.1c0.2,0,0.3,0,0.5,0c0.1,0.4,0,0.8,0.1,1.3c0.3,0,0.4-0.2,0.7-0.2c0.5-0.1,1,0.1,1,0.7
			c0,1,0,1.9,0,2.9c-0.1,0.1-0.3,0.1-0.5,0c-0.1-0.5,0-1.1,0-1.6c0-0.3,0-0.7-0.1-1c0-0.2-0.1-0.5-0.4-0.5c-0.3,0-0.7,0.2-0.7,0.5
			c0,0.4,0,0.8,0,1.2c0,0.5,0,0.9,0,1.3c-0.2,0.1-0.3,0.1-0.5,0C104.7,71.1,104.7,69.6,104.7,68.1z"/>
		<path class="st0" d="M108.1,70.2c0-0.5,0.1-0.8,0.5-1c0.4-0.2,1.1-0.2,1.4,0.1c0.2,0.1,0.2,0.3,0.2,0.5c0,0.6,0,1.2,0.1,1.7
			c0,0.3,0,0.6,0.2,0.8c0.1,0,0,0.1,0,0.3c-0.3,0.2-0.6,0-0.8-0.3c-0.3,0.2-0.5,0.4-0.8,0.4c-0.5,0-0.8-0.2-0.9-0.7
			c-0.1-0.5,0-1,0.5-1.2c0.3-0.1,0.6-0.2,0.9-0.3c0.3-0.1,0.4-0.2,0.4-0.5c0-0.2-0.1-0.4-0.4-0.4c-0.3-0.1-0.5,0-0.7,0.3
			C108.6,70.1,108.5,70.4,108.1,70.2z M109.7,70.9c-0.3,0.1-0.5,0.2-0.8,0.3c-0.3,0.2-0.4,0.4-0.3,0.7c0,0.2,0.2,0.4,0.4,0.4
			c0.3,0,0.5-0.2,0.7-0.5C109.8,71.5,109.7,71.2,109.7,70.9z"/>
		<path class="st0" d="M97.2,72.7c0-0.7,0-1.3,0-2c0-0.3,0-0.5,0-0.8c0-0.2-0.2-0.3-0.4-0.3c-0.4,0-0.6,0.2-0.6,0.7
			c0,0.8,0,1.6,0,2.3c-0.2,0.2-0.4,0.2-0.6,0.1c0-1.2,0-2.3,0-3.5c0.3-0.2,0.4,0.1,0.6,0.2c0.1-0.1,0.3-0.2,0.4-0.2
			c0.7-0.2,1.2,0.1,1.2,0.8c0,0.9,0,1.8,0,2.6C97.7,72.8,97.5,72.7,97.2,72.7z"/>
		<path class="st0" d="M94.5,70.9c0,0.4,0,0.8-0.2,1.2c-0.3,0.5-0.6,0.7-1.2,0.7c-0.5,0-0.8-0.3-1-0.9c-0.2-0.6-0.2-1.2,0-1.8
			c0.2-0.6,0.6-0.9,1.1-0.9c0.5,0,0.9,0.3,1.1,0.8C94.5,70.2,94.5,70.6,94.5,70.9z M93.9,70.9c0-0.3,0-0.6-0.1-0.9
			c-0.1-0.3-0.2-0.4-0.5-0.4c-0.3,0-0.4,0.2-0.5,0.4c-0.2,0.6-0.2,1.3,0,1.9c0.1,0.2,0.2,0.4,0.5,0.4c0.3,0,0.4-0.2,0.5-0.4
			C93.9,71.6,93.9,71.3,93.9,70.9z"/>
		<path class="st0" d="M79.4,72.6c-0.4,0.2-0.6,0-0.9-0.3c-0.3,0.2-0.5,0.4-0.9,0.4c-0.4,0-0.6-0.2-0.7-0.5
			c-0.2-0.5-0.2-1.3,0.7-1.5c0.2,0,0.4-0.1,0.6-0.2c0.3-0.1,0.4-0.2,0.4-0.5c0-0.2-0.1-0.4-0.4-0.4c-0.3-0.1-0.5,0-0.6,0.3
			c0,0.1,0,0.1-0.1,0.2c-0.1,0.2-0.2,0.3-0.5,0.2c-0.2-0.3,0-0.5,0-0.8c0.3-0.3,0.6-0.4,1-0.4c0.8,0,1.1,0.3,1.1,1
			c0,0.3,0,0.6,0,0.9c0,0.3,0,0.6,0,0.9C79.1,72.2,79.4,72.3,79.4,72.6z M78.5,70.9c-0.3,0-0.6,0.2-0.9,0.3
			c-0.3,0.2-0.3,0.4-0.2,0.7c0.1,0.2,0.2,0.3,0.4,0.4c0.3,0,0.5-0.2,0.6-0.4C78.6,71.6,78.6,71.3,78.5,70.9z"/>
		<path class="st0" d="M25.2,67.5c0.4,0,0.7,0,1,0c0,1.9-0.1,3.7,0.1,5.6c-0.3,0-0.7,0-1,0c0.2-0.9,0.1-1.9,0.1-2.8
			C25.3,69.3,25.5,68.4,25.2,67.5z"/>
		<path class="st0" d="M85.7,71c-0.6,0-1.2,0-1.7,0c-0.2,0.3,0,0.6,0,0.8c0.1,0.3,0.2,0.5,0.5,0.5c0.3,0,0.5-0.1,0.6-0.4
			c0-0.1,0-0.2,0.1-0.2c0.1-0.2,0.2-0.2,0.4-0.2c0.1,0.6-0.2,1-0.7,1.2c-0.6,0.2-1.1,0-1.4-0.5c-0.4-0.8-0.4-1.7,0-2.5
			c0.2-0.4,0.6-0.6,1.1-0.6c0.4,0,0.8,0.3,0.9,0.8C85.6,70.2,85.8,70.6,85.7,71z M85.1,70.5c-0.1-0.7-0.2-0.9-0.6-0.9
			c-0.4,0-0.6,0.3-0.6,1C84.3,70.6,84.7,70.6,85.1,70.5z"/>
		<path class="st0" d="M82.3,70.2c-0.3,0.1-0.4-0.1-0.5-0.3c-0.2-0.4-0.3-0.4-0.6-0.4c-0.2,0-0.3,0.2-0.4,0.4
			c-0.1,0.2,0,0.3,0.2,0.5c0.2,0.2,0.5,0.2,0.7,0.3c0.7,0.2,0.8,0.6,0.7,1.1c-0.1,0.6-0.6,0.9-1.2,0.9c-0.6,0-1-0.4-1.1-0.9
			c0-0.1,0-0.3,0.1-0.3c0.2,0,0.3,0,0.4,0.2c0,0.1,0.1,0.3,0.1,0.4c0.1,0.2,0.3,0.3,0.6,0.3c0.2,0,0.4-0.2,0.5-0.5
			c0-0.3-0.1-0.5-0.3-0.6c-0.3-0.1-0.6-0.2-0.9-0.4c-0.5-0.2-0.7-0.7-0.4-1.2c0.2-0.5,0.8-0.7,1.4-0.6
			C82.1,69.3,82.4,69.6,82.3,70.2z"/>
		<path class="st0" d="M112,72.6c-0.2,0.1-0.3,0.1-0.5,0c0-1.1,0-2.3,0-3.4c0.3-0.1,0.5,0.1,0.7,0.1c0.2-0.1,0.5-0.3,0.8-0.2
			c0.1,0.5,0.1,0.5-0.2,0.6c-0.5,0.1-0.6,0.3-0.7,0.8c0,0.4,0,0.7,0,1.1C112,72,112,72.3,112,72.6z"/>
		<path class="st0" d="M69.8,67.8c0.2-0.1,0.3,0,0.3,0.1c0,0.1,0,0.2,0,0.3c0,1.5,0,3,0,4.5c0,0.2,0.1,0.5-0.3,0.4
			C69.8,71.4,69.8,69.6,69.8,67.8z"/>
		<path class="st0" d="M113.9,69.2c0.2-0.1,0.3-0.1,0.5,0c0,1.1,0,2.2,0,3.4c-0.1,0.2-0.3,0.1-0.5,0.1
			C113.9,71.5,113.9,70.4,113.9,69.2z"/>
		<path class="st0" d="M66.4,72.5c0,0.3-0.2,0.5-0.5,0.6c-0.3,0-0.6-0.2-0.6-0.5c0-0.3,0.2-0.6,0.5-0.6C66.1,72,66.4,72.2,66.4,72.5
			z"/>
		<path class="st0" d="M115.8,69.7c-0.1-0.9,0-1.3,0.5-1.5c0.1,0.1,0,0.2,0,0.3c-0.2,0.2-0.2,0.5,0,0.7c0.1,0.1,0.2,0.3,0.1,0.5
			C116.2,69.8,116,69.7,115.8,69.7z"/>
		<path class="st0" d="M114.4,68.1c0.1,0.6,0,0.7-0.2,0.7c-0.2,0-0.3-0.1-0.3-0.3C113.9,68.1,113.9,68.1,114.4,68.1z"/>
	</g>
</g>
</svg>
