<?xml version="1.0" encoding="UTF-8"?>
<svg id="Layer_1" xmlns="http://www.w3.org/2000/svg" version="1.1" width="150" height="50" viewBox="0 0 150 50">
  <!-- Generator: Adobe Illustrator 29.0.1, SVG Export Plug-In . SVG Version: 2.1.0 Build 192)  -->
  <defs>
    <style>
      .st0 {
        fill: #140230;
      }
    </style>
  </defs>
  <path class="st0" d="M9.8,32.1c-.9.9-1.7,1.6-2.3,1.6s-.5-1.1-.5-2c0-1.3.3-4,.7-5.6.3-1.3,1.1-4.2,1.8-6.8.2-.8.4-1.6.5-2.3.2-1,0-1.8-.6-2.4-.6-.6-1.5-.7-2.3-.7-1.4,0-3,.4-4.6,1,.5.7.7,1.4.7,2.3s0,1.6-.2,2.5c-.3,1.7-.7,4.4-1.5,7.2-.9,3.5-1,6.4-.9,7.4.2,2.9,1.7,4.2,4.1,4.2s6.1-2.9,7.4-5.8c.5-1.2.7-2,.7-2.5,0-.9-1-.3-3,1.9Z"/>
  <path class="st0" d="M12,2.2c-2.2,0-4.4.4-6.3,1.2,0,.2.2.4.2.7,0,1.8-.7,4.5-.7,5.8s.5,1.7,2.4,1.3c2.7-.6,2.6-.5,4.7-3.6,1.2-1.8,1.6-2.6,1.8-3.5,0-.2,0-.4,0-.5,0-.7-.8-1.2-2.2-1.2Z"/>
  <path class="st0" d="M42.3,10.6c0-6.5-5-8.6-12.6-8.6s-7.4.7-10.1,2.2c-.5.4-.6,1.2-.7,2.3,0,1.7,1.5,0,1.5,1.8s-.2,1.8-.3,2.6c-1.1,5.9-3,13.5-5.1,22.1-.3,1.4-.6,2.7-.6,3.9s.8,2,2.8,2,3.9-.5,5-1.2c-.3-.8-.5-1.3-.5-2.5s.4-4.2,1-7.1c1.1-5.9,2.6-11.3,3.9-17.2.2-1.1.4-1.9.4-2.7s-.1-1.4-.4-2.1c.8-.2,1.6-.2,2.1-.3,4,0,6.7,1.4,6.7,5.6s-3.8,9-9.6,9-.4,0-.4.2c0,1.7.5,3.3,1.8,3.3,8.5,0,15.1-6,15.1-13.3Z"/>
  <path class="st0" d="M64.6,30.2c0-.3,0-.4-.2-.4-.5,0-1.4.7-2.8,2.3-.9.9-1.5,1.5-2.3,1.6-.5,0-.5-1-.5-1.9,0-3.5,2.8-14.9,4.5-17.5-1.3-.7-2.7-1.1-4.1-1.1s-2.2.4-2.9,1.2c-1.2-.9-2.7-1.3-4.5-1.3-7.4,0-14.4,10.1-14.6,19,0,3.8,1.3,6.5,5,6.5h.5c3-.1,6.4-3,9.9-8.7-.1,1-.2,2.6-.2,3.7,0,3.3,1.6,4.9,4.1,4.9,3.3,0,8.2-5,8.2-8.4ZM49.6,29.6c-1.8,2.7-3.2,4.2-4.2,4.2s-1.4-.8-1.5-2.4c0-6,3.7-14.8,7.4-14.8s3.2.8,3.7,2.7c-1,2.8-3,6.9-5.4,10.3Z"/>
  <path class="st0" d="M83.6,12.9c-.4,0-1.2,0-1.7.1.6.6,1.1,2.1,1.1,2.9,0,3.3-3.2,9.5-7.8,16-.3-4.6-.9-10.3-1.6-15-.4-2.6-1.5-3.8-3.2-3.8s-3.4.6-5.2,1.7c1.7,1.3,3.3,7.8,4.6,18.2,0,.7.2,1.5.2,2.3s0,1.7-.4,2.1c-2.1,3-4.9,5.4-7.8,5.4s-1.9-.4-2.3-.7c-.5,1-.8,2.1-.8,3s0,.4,0,.5c.3,1.5,1.5,2.2,3.5,2.2,3.4,0,7.5-2.3,14.2-11.3,7.3-9.6,12.1-17.7,12.1-20.6,0-2.1-1.5-3.1-4.8-3.1Z"/>
  <path class="st0" d="M98.8,27.3c6.2-2.2,10.3-6.2,10.3-9.4,0-3.1-1.8-4.8-5.7-4.8s-8.1,2-11.2,5.7c-3.2,3.5-4.8,8.1-4.6,12.9s3.3,7.1,8.7,7.1,5-.5,7.3-1.6c1.5-.6,2.7-1.5,3.5-2.5.8-1.1.9-2.5.3-3.6-2.4,2.3-4.9,3.7-8.2,4-1.8.2-3.4-.7-4.4-2.1-.4-.6-.6-1.6-.5-2.7,0-1.2,3-2.5,4.5-3ZM95.2,25.1c1.3-5.7,3.4-8.9,5.9-8.9s2.2,1.4,1.8,3-1.3,3.1-4.2,4.7c-1.7.9-3.1,1.5-3.9,3.2.3-1.3.5-2.1.5-2.1Z"/>
  <path class="st0" d="M121.3,35.1c-1.8.2-3.4-.7-4.4-2.1-.4-.6-.6-1.6-.5-2.7,0-1.2,3-2.5,4.5-3,6.2-2.2,10.3-6.2,10.3-9.4,0-3.1-1.8-4.8-5.7-4.8s-8.1,2-11.2,5.7c-3.2,3.5-4.8,8.1-4.6,12.9s3.3,7.1,8.7,7.1,5-.5,7.3-1.6c1.5-.6,2.7-1.5,3.4-2.5.8-1.1.9-2.5.3-3.6-2.4,2.3-4.9,3.7-8.1,4.1ZM117.3,25.1c1.3-5.7,3.4-8.9,5.9-8.9s2.2,1.4,1.8,3-1.3,3.1-4.2,4.7c-1.7.9-3.1,1.5-3.9,3.2.3-1.3.5-2.1.5-2.1Z"/>
  <path class="st0" d="M146.8,12.6c-5.3,0-11.3,2.6-11.3,8.5s.6,3.6,1.8,5c1.8,2,3.7,3.5,3.7,5.7s-1.4,3.7-3.6,3.7c-2.8-.1-4.6-2.7-5.6-5.5-.8.5-1.8,1.4-1.8,3,0,3.6,3.6,5.7,6.8,5.7,5.6,0,10.6-4.3,10.6-9.8s-2-5.5-4-7.9c-.7-.9-1.2-1.8-1.2-2.7,0-1.8.8-2.9,2.7-2.9s1.8.4,2.7,1.3c1.4-1,1.8-1.8,1.8-2.7-.3-1.1-1-1.4-2.6-1.4Z"/>
</svg>