<?xml version="1.0" encoding="utf-8"?>
<!-- Generator: Adobe Illustrator 28.0.0, SVG Export Plug-In . SVG Version: 6.00 Build 0)  -->
<svg version="1.1" id="Layer_1" xmlns="http://www.w3.org/2000/svg" xmlns:xlink="http://www.w3.org/1999/xlink" x="0px" y="0px"
	width="200" height="80" viewBox="0 0 200 80" style="enable-background:new 0 0 200 80;" xml:space="preserve">
<style type="text/css">
	.st0{fill:none;stroke:#594A42;stroke-width:0.5;stroke-miterlimit:10;}
	.st1{fill:#D22255;}
	.st2{fill:#E1136E;}
	.st3{fill:#9F1C3B;}
	.st4{fill:#231F20;}
	.st5{fill:#1274BB;}
	.st6{fill:#E3A632;}
	.st7{fill:#1B83BD;}
	.st8{fill:#5896C5;}
	.st9{fill:#88AFD5;}
	.st10{fill:#B8CCDB;}
	.st11{clip-path:url(#SVGID_00000083082919940499634010000011894425178043879591_);}
	.st12{fill:#7E7E7E;}
	.st13{fill:#47662F;}
	.st14{fill:#6D9A40;}
	.st15{fill:#010101;}
	.st16{fill:#E3C77C;}
	.st17{fill:#AA7F2E;}
	.st18{fill:#0D8D45;}
	.st19{clip-path:url(#SVGID_00000155850100408036920670000006851081118912932225_);}
	.st20{fill:#0AA64E;}
	.st21{fill:none;}
	.st22{fill:#EB1C24;}
	.st23{fill:#F06522;}
	.st24{fill:#F5921E;}
	.st25{fill:#272324;}
</style>
<g>
	<path class="st0" d="M93.8,36H36.9c-0.9,0-1.6-0.7-1.6-1.6V7.6C35.3,6.7,36,6,36.9,6h56.9c0.9,0,1.6,0.7,1.6,1.6v26.8
		C95.4,35.3,94.7,36,93.8,36z"/>
	<g>
		<path class="st1" d="M84.9,22.1l-10.3-1.6l1.4,6.1L84.9,22.1z"/>
		<path class="st2" d="M84.9,22.1l-7.8-10.8l-2.5,9.2L84.9,22.1z"/>
		<path class="st1" d="M74.3,20.3L66.1,9.9l10.7,1.3L74.3,20.3z"/>
		<path class="st3" d="M70.6,16l-4.5-4.3h1.2L70.6,16z"/>
		<path class="st1" d="M87.1,16.8l-2,5.2L82,17.7L87.1,16.8z"/>
		<path class="st2" d="M77.1,26.3l7.5-3l0.3-1L77.1,26.3z"/>
		<path class="st3" d="M71.1,32l3.2-11.3l1.6,7.4L71.1,32z"/>
		<path class="st2" d="M87.4,16.9L86.6,19h2.8L87.4,16.9z M41.3,17.7c0.1,0,0.3,0,0.4,0s0.3,0,0.4,0v4.6c0.5-0.8,1-1.3,1.8-1.3
			c1.5,0,2.2,1.5,2.2,2.9c0,1.6-0.9,3.2-2.4,3.2c-0.6,0-1.2-0.3-1.5-0.9c-0.3,0.2-0.5,0.5-0.7,0.7h-0.2V17.7z M42.2,24.4
			c0,1.3,0.6,2.3,1.5,2.3c1.2,0,1.6-1.6,1.6-2.8c0-1.3-0.4-2.4-1.5-2.4C42.5,21.5,42.2,23,42.2,24.4L42.2,24.4z"/>
		<path class="st4" d="M50.1,20.7l-0.9,1.2c0.8,1.2,1.7,2.5,2.6,3.7l0.9,1.4v0c-0.2,0-0.4,0-0.6,0s-0.4,0-0.6,0
			c-0.2-0.4-0.5-0.8-0.7-1.2l-2.3-3.5c0-0.1-0.2-0.1-0.2,0V27c-0.2,0-0.3,0-0.5,0s-0.3,0-0.5,0v-9.3c0.2,0,0.3,0,0.5,0s0.3,0,0.5,0
			v4.2c0,0.1,0.2,0,0.3-0.1c0.2-0.2,0.4-0.4,0.6-0.7l2.6-3.5c0.1,0,0.3,0,0.4,0s0.3,0,0.4,0L50.1,20.7z M57.2,26
			c0,0.5,0,0.7,0.6,0.6v0.3c-0.1,0-0.2,0.1-0.3,0.1c-0.5,0.1-1,0-1.1-0.7l-0.1,0.1c-0.4,0.5-1,0.8-1.6,0.8c-0.8,0-1.4-0.6-1.4-1.5
			c0-1.4,1-1.6,2-1.8c0.8-0.2,1.1-0.2,1.1-0.8c0-0.9-0.5-1.4-1.2-1.4c-0.6,0-1.1,0.3-1.3,0.9h-0.1v-0.7c0.5-0.4,1.1-0.7,1.7-0.7
			c1.1,0,1.7,0.7,1.7,2.1L57.2,26z M56.3,23.9L55.9,24c-0.7,0.2-1.8,0.3-1.8,1.4c0,0.8,0.4,1.2,1,1.2c0.3,0,0.7-0.2,0.9-0.5
			c0.1-0.1,0.3-0.3,0.3-0.4L56.3,23.9z M59.1,25.8c0.2,0.5,0.7,0.9,1.2,0.9c0.6,0,1.1-0.5,1-1.1c0-1.7-2.5-0.6-2.5-2.7
			c0-1.2,0.8-1.8,1.7-1.8c0.4,0,0.8,0.1,1.2,0.3c-0.1,0.3-0.2,0.6-0.2,0.9h-0.1c-0.1-0.4-0.5-0.8-0.9-0.8c-0.5,0-1,0.4-1,1
			c0,1.6,2.5,0.7,2.5,2.7c0,1.3-1,2-2,2c-0.5,0-0.9-0.1-1.3-0.4C58.9,26.4,58.9,26.1,59.1,25.8L59.1,25.8z M63.5,17.7
			c0.1,0,0.3,0,0.4,0c0.1,0,0.3,0,0.4,0v4.5c0.4-0.8,1-1.2,1.7-1.2c1.2,0,1.7,0.9,1.7,2.4V27c-0.2,0-0.3,0-0.4,0s-0.3,0-0.4,0v-3.3
			c0-1.4-0.3-2-1.2-2c-1,0-1.4,0.7-1.4,2V27c-0.2,0-0.3,0-0.4,0c-0.1,0-0.3,0-0.4,0L63.5,17.7z"/>
	</g>
</g>
<path class="st0" d="M163.1,36h-56.9c-0.9,0-1.6-0.7-1.6-1.6V7.6c0-0.9,0.7-1.6,1.6-1.6h56.9c0.9,0,1.6,0.7,1.6,1.6v26.8
	C164.7,35.3,164,36,163.1,36z"/>
<g>
	<g>
		<path class="st0" d="M128.4,74.1H71.6c-0.9,0-1.6-0.7-1.6-1.6V45.6c0-0.9,0.7-1.6,1.6-1.6h56.9c0.9,0,1.6,0.7,1.6,1.6v26.8
			C130.1,73.3,129.3,74.1,128.4,74.1z"/>
		<g>
			<g>
				<path class="st5" d="M104.9,50.9c-2.4,3.6-5.9,8.4-12.5,8V47.2h14.7C107.2,47.2,106.3,48.8,104.9,50.9"/>
				<path class="st6" d="M92.5,59.8v2.5h15.1V47.4C107.5,47.4,102.7,60.8,92.5,59.8"/>
				<path class="st7" d="M97.6,51.2c-2,0-3.7,1.6-3.7,3.7c0,1.7,1.1,3.1,2.7,3.5c1.8-0.6,3.3-1.6,4.7-2.9c0-0.2,0.1-0.4,0.1-0.7
					C101.3,52.9,99.6,51.2,97.6,51.2"/>
				<path class="st8" d="M100.3,54.9c0,1.5-1.2,2.8-2.8,2.8s-2.8-1.2-2.8-2.8c0-1.5,1.2-2.8,2.8-2.8
					C99.1,52.2,100.3,53.4,100.3,54.9"/>
				<path class="st9" d="M99.4,54.9c0,1-0.8,1.8-1.8,1.8s-1.8-0.8-1.8-1.8s0.8-1.8,1.8-1.8C98.6,53.1,99.4,53.9,99.4,54.9"/>
				<path class="st10" d="M98.5,54.9c0,0.5-0.4,0.9-0.9,0.9s-0.9-0.4-0.9-0.9s0.4-0.9,0.9-0.9S98.5,54.4,98.5,54.9"/>
			</g>
			<path class="st5" d="M77.7,66.4h0.8c0.3,0,0.4,0.1,0.6,0.1c0.1,0.1,0.2,0.2,0.2,0.4c0,0.2-0.1,0.3-0.2,0.4s-0.3,0.1-0.6,0.1h-0.8
				V66.4L77.7,66.4z M75.9,70.8h3c0.1,0,0.4,0,0.8-0.1c0.3,0,0.5-0.1,0.7-0.2s0.4-0.3,0.6-0.6c0.1-0.2,0.2-0.5,0.2-0.8
				s-0.1-0.7-0.3-0.9c-0.2-0.2-0.5-0.4-0.9-0.5c0.3-0.1,0.5-0.2,0.6-0.4c0.2-0.2,0.3-0.5,0.3-0.8c0-0.4-0.2-0.7-0.4-1
				s-0.7-0.4-1.3-0.4h-3.3L75.9,70.8L75.9,70.8z M77.7,68.5h0.9c0.3,0,0.5,0.1,0.7,0.2s0.2,0.2,0.2,0.4c0,0.2-0.1,0.3-0.2,0.4
				s-0.3,0.2-0.6,0.2h-0.9"/>
			<path class="st5" d="M83.5,66.4h0.8c0.3,0,0.5,0.1,0.7,0.2c0,0.1,0,0.2,0,0.4c0,0.1,0,0.2-0.1,0.3s-0.2,0.2-0.3,0.2
				c-0.2,0.1-0.4,0.1-0.5,0.1h-0.7C83.5,67.5,83.5,66.4,83.5,66.4z M83.5,70.8v-2.2h0.2c0.2,0,0.3,0,0.4,0.1s0.2,0.2,0.3,0.4
				l0.9,1.7h2l-0.8-1.6c0-0.1-0.1-0.2-0.2-0.3c-0.1-0.2-0.2-0.2-0.3-0.3c-0.1-0.1-0.2-0.1-0.5-0.2c0.3-0.1,0.5-0.1,0.6-0.2
				c0.2-0.1,0.4-0.3,0.6-0.5s0.2-0.5,0.2-0.8s-0.1-0.7-0.3-0.9s-0.4-0.4-0.7-0.5c-0.3-0.1-0.7-0.1-1.2-0.1h-2.9V71"/>
			<path class="st5" d="M89.6,68.7l0.6-2l0.6,2H89.6z M91.5,70.8h1.8l-2.1-5.6h-1.9l-2.1,5.6H89l0.3-0.9h2"/>
			<path class="st5" d="M97.2,68.6l1.6,0.4c-0.1,0.4-0.3,0.8-0.5,1s-0.5,0.5-0.8,0.6s-0.8,0.2-1.3,0.2c-0.6,0-1.1-0.1-1.5-0.2
				s-0.7-0.5-1-0.9s-0.4-1-0.4-1.6c0-0.9,0.2-1.6,0.8-2.1s1.2-0.7,2.1-0.7c0.7,0,1.3,0.1,1.7,0.4c0.4,0.3,0.7,0.7,0.9,1.3l-1.6,0.3
				C97,67.1,97,67,96.9,66.9s-0.2-0.2-0.4-0.3c-0.1-0.1-0.3-0.1-0.5-0.1c-0.4,0-0.7,0.2-0.9,0.4c-0.2,0.2-0.2,0.6-0.2,1.1
				c0,0.6,0.1,1,0.3,1.2s0.5,0.3,0.8,0.3s0.6-0.1,0.8-0.3C96.9,69.2,97.1,68.9,97.2,68.6"/>
			<path class="st5" d="M102.4,66.4h0.8c0.3,0,0.4,0.1,0.6,0.1s0.2,0.2,0.2,0.4c0,0.2-0.1,0.3-0.2,0.4s-0.3,0.1-0.6,0.1h-0.8V66.4
				L102.4,66.4z M100.6,70.8h3c0.1,0,0.4,0,0.8-0.1c0.3,0,0.5-0.1,0.7-0.2s0.4-0.3,0.6-0.6c0.1-0.2,0.2-0.5,0.2-0.8
				s-0.1-0.7-0.3-0.9c-0.2-0.2-0.5-0.4-0.9-0.5c0.3-0.1,0.5-0.2,0.6-0.4c0.2-0.2,0.3-0.5,0.3-0.8c0-0.4-0.2-0.7-0.4-1
				s-0.7-0.4-1.3-0.4h-3.3L100.6,70.8L100.6,70.8z M102.4,68.5h0.9c0.3,0,0.5,0.1,0.7,0.2s0.2,0.2,0.2,0.4c0,0.2-0.1,0.3-0.2,0.4
				s-0.3,0.2-0.6,0.2h-0.9"/>
			<path class="st5" d="M108,68.7l0.6-2l0.6,2H108z M109.9,70.8h1.8l-2.1-5.6h-1.9l-2.1,5.6h1.8l0.3-0.9h2"/>
			<path class="st5" d="M111.9,65.3h1.6l2.2,3.1v-3.1h1.7v5.6h-1.7l-2.1-3.1v3.1h-1.7"/>
			<g>
				<g>
					<g>
						<g>
							<defs>
								<rect id="SVGID_1_" x="118" y="65.1" width="6.1" height="5.8"/>
							</defs>
							<clipPath id="SVGID_00000038413839704200819570000004427509240608119168_">
								<use xlink:href="#SVGID_1_"  style="overflow:visible;"/>
							</clipPath>
							<g style="clip-path:url(#SVGID_00000038413839704200819570000004427509240608119168_);">
								<path class="st5" d="M118,65.3h1.8v2.1l1.8-2.1h2.3l-2.1,2.1l2.2,3.5h-2.2l-1.2-2.3l-0.9,0.9v1.3H118"/>
							</g>
						</g>
					</g>
				</g>
			</g>
		</g>
	</g>
	<g>
		<path class="st0" d="M197.7,74.1h-56.9c-0.9,0-1.6-0.7-1.6-1.6V45.6c0-0.9,0.7-1.6,1.6-1.6h56.9c0.9,0,1.6,0.7,1.6,1.6v26.8
			C199.3,73.3,198.6,74.1,197.7,74.1z"/>
		<g>
			<rect x="145.3" y="68.2" class="st12" width="48" height="0.2"/>
			<rect x="161.3" y="68.2" class="st13" width="16" height="0.2"/>
			<rect x="145.3" y="68.2" class="st14" width="16" height="0.2"/>
			<path class="st15" d="M163.4,69.6l-0.1-0.1c0,0-0.1,0-0.1-0.1c-0.1,0-0.1,0-0.2,0c-0.1,0-0.1,0-0.1,0c-0.1,0-0.1,0-0.1,0
				l-0.1,0.1v0.1v0.1l0.1,0.1c0,0,0.1,0,0.1,0.1h0.1l0.3,0.1c0.1,0,0.1,0,0.2,0c0.1,0,0.1,0,0.2,0.1s0.1,0.1,0.1,0.1
				c0,0.1,0.1,0.1,0.1,0.2s0,0.1-0.1,0.2c0,0.1-0.1,0.1-0.2,0.1c-0.1,0-0.1,0.1-0.2,0.1c-0.1,0-0.2,0-0.2,0c-0.2,0-0.4,0-0.5-0.1
				s-0.2-0.2-0.2-0.4h0.2c0,0.1,0.1,0.2,0.2,0.3s0.2,0.1,0.4,0.1c0.1,0,0.1,0,0.2,0c0.1,0,0.1,0,0.1-0.1c0.1,0,0.1-0.1,0.1-0.1
				l0.1-0.1v-0.1l-0.1-0.1c0,0-0.1,0-0.1-0.1s-0.1,0-0.1,0l-0.3-0.1c-0.1,0-0.1,0-0.2-0.1c-0.1,0-0.1,0-0.1-0.1s-0.1-0.1-0.1-0.1
				s0-0.1,0-0.2s0-0.1,0.1-0.2s0.1-0.1,0.1-0.1c0.1,0,0.1-0.1,0.2-0.1c0.1,0,0.1,0,0.2,0c0.1,0,0.2,0,0.2,0s0.1,0.1,0.2,0.1
				c0.1,0,0.1,0.1,0.1,0.1c0,0.1,0.1,0.1,0.1,0.2h-0.2C163.4,69.7,163.4,69.7,163.4,69.6"/>
			<path class="st15" d="M164.2,68.8v0.8l0,0c0-0.1,0.1-0.2,0.2-0.2c0.1-0.1,0.2-0.1,0.3-0.1s0.2,0,0.3,0s0.1,0.1,0.2,0.1
				s0.1,0.1,0.1,0.2s0,0.1,0,0.2v0.9h-0.2v-0.9c0-0.1,0-0.1,0-0.2s0-0.1-0.1-0.1l-0.1-0.1c0,0-0.1,0-0.2,0s-0.2,0-0.2,0
				c-0.1,0-0.1,0.1-0.2,0.1s-0.1,0.1-0.1,0.2s0,0.1,0,0.2v0.8H164v-2L164.2,68.8L164.2,68.8z"/>
			<path class="st15" d="M165.9,69.6c0-0.1,0.1-0.1,0.1-0.2s0.1-0.1,0.2-0.1s0.2,0,0.3,0s0.1,0,0.2,0c0.1,0,0.1,0,0.2,0.1
				c0.1,0,0.1,0.1,0.1,0.1s0.1,0.1,0.1,0.2v0.8c0,0.1,0,0.1,0.1,0.1h0.1v0.2h-0.1h-0.1c-0.1,0-0.1,0-0.1,0l-0.1-0.1v-0.1v-0.1l0,0
				c0,0.1-0.1,0.1-0.1,0.1l-0.1,0.1c0,0-0.1,0-0.2,0.1c-0.1,0-0.1,0-0.2,0c-0.1,0-0.2,0-0.2,0c-0.1,0-0.1,0-0.2-0.1
				c-0.1,0-0.1-0.1-0.1-0.1c0-0.1-0.1-0.1-0.1-0.2s0-0.2,0.1-0.2c0.1-0.1,0.1-0.1,0.2-0.1s0.2-0.1,0.3-0.1s0.2,0,0.3,0s0.1,0,0.1,0
				h0.1l0.1-0.1v-0.1c0-0.1,0-0.1,0-0.1l-0.1-0.1c0,0-0.1,0-0.1-0.1c-0.1,0-0.1,0-0.2,0c-0.1,0-0.2,0-0.3,0.1s-0.1,0.1-0.1,0.2h-0.2
				C165.8,69.7,165.8,69.6,165.9,69.6 M166.9,70L166.9,70l-0.2,0.1c-0.1,0-0.2,0-0.3,0s-0.2,0-0.3,0.1c-0.1,0-0.1,0.1-0.2,0.1
				c-0.1,0-0.1,0.1-0.1,0.2v0.1l0.1,0.1c0,0,0.1,0,0.1,0.1c0.1,0,0.1,0,0.1,0c0.1,0,0.2,0,0.2,0c0.1,0,0.1-0.1,0.2-0.1
				c0.1,0,0.1-0.1,0.1-0.1s0.1-0.1,0.1-0.2L166.9,70L166.9,70L166.9,70z"/>
			<path class="st15" d="M167.8,69.3v0.3l0,0c0.1-0.1,0.1-0.2,0.2-0.3c0.1-0.1,0.2-0.1,0.4-0.1v0.2c-0.1,0-0.2,0-0.3,0
				s-0.1,0.1-0.2,0.1c-0.1,0.1-0.1,0.1-0.1,0.2s-0.1,0.1-0.1,0.2v0.8h-0.2v-1.4L167.8,69.3L167.8,69.3z"/>
			<path class="st15" d="M168.9,69.1h-0.2v-0.3h0.2V69.1z M168.9,70.8h-0.2v-1.4h0.2V70.8z"/>
			<path class="st15" d="M169.3,69.6c0-0.1,0.1-0.1,0.1-0.2s0.1-0.1,0.2-0.1s0.2,0,0.3,0s0.1,0,0.2,0c0.1,0,0.1,0,0.2,0.1
				c0.1,0,0.1,0.1,0.1,0.1s0.1,0.1,0.1,0.2v0.8c0,0.1,0,0.1,0.1,0.1h0.1v0.2h-0.1h-0.1c-0.1,0-0.1,0-0.1,0l-0.1-0.1v-0.1v-0.1l0,0
				c0,0.1-0.1,0.1-0.1,0.1l-0.1,0.1c0,0-0.1,0-0.2,0.1c-0.1,0-0.1,0-0.2,0c-0.1,0-0.2,0-0.2,0c-0.1,0-0.1,0-0.2-0.1
				c-0.1,0-0.1-0.1-0.1-0.1c0-0.1-0.1-0.1-0.1-0.2s0-0.2,0.1-0.2c0.1-0.1,0.1-0.1,0.2-0.1s0.2-0.1,0.3-0.1s0.2,0,0.3,0s0.1,0,0.1,0
				h0.1l0.1-0.1v-0.1c0-0.1,0-0.1,0-0.1l-0.1-0.1c0,0-0.1,0-0.1-0.1s-0.1,0-0.2,0c-0.1,0-0.2,0-0.3,0.1s-0.1,0.1-0.1,0.2h-0.2
				C169.2,69.7,169.3,69.6,169.3,69.6 M170.4,70L170.4,70l-0.2,0.1c-0.1,0-0.2,0-0.3,0s-0.2,0-0.3,0.1c-0.1,0-0.1,0.1-0.2,0.1
				c-0.1,0-0.1,0.1-0.1,0.2v0.1l0.1,0.1c0,0,0.1,0,0.1,0.1c0.1,0,0.1,0,0.1,0c0.1,0,0.2,0,0.2,0c0.1,0,0.1-0.1,0.2-0.1
				c0.1,0,0.1-0.1,0.1-0.1s0.1-0.1,0.1-0.2L170.4,70L170.4,70L170.4,70z"/>
			<path class="st15" d="M171.2,68.8v0.8l0,0c0-0.1,0.1-0.2,0.2-0.2c0.1-0.1,0.2-0.1,0.3-0.1s0.2,0,0.3,0s0.1,0.1,0.2,0.1
				s0.1,0.1,0.1,0.2s0,0.1,0,0.2v0.9h-0.2v-0.9c0-0.1,0-0.1,0-0.2s0-0.1-0.1-0.1l-0.1-0.1c0,0-0.1,0-0.2,0s-0.2,0-0.2,0
				c-0.1,0-0.1,0.1-0.2,0.1s-0.1,0.1-0.1,0.2s0,0.1,0,0.2v0.8H171v-2L171.2,68.8L171.2,68.8z"/>
			<path class="st15" d="M174,68.8v0.8l0,0c0-0.1,0.1-0.1,0.1-0.1l0.1-0.1c0.1,0,0.1-0.1,0.2-0.1c0.1,0,0.1,0,0.2,0
				c0.1,0,0.2,0,0.4,0.1s0.2,0.1,0.2,0.2c0.1,0.1,0.1,0.2,0.1,0.2s0.1,0.2,0.1,0.3s0,0.2-0.1,0.3s-0.1,0.2-0.1,0.2
				c-0.1,0.1-0.1,0.1-0.2,0.2s-0.2,0.1-0.4,0.1c-0.1,0-0.3,0-0.4-0.1s-0.2-0.1-0.2-0.2l0,0v0.3h-0.2v-2h0.2V68.8z M175.2,69.8
				c0-0.1-0.1-0.1-0.1-0.2c-0.1-0.1-0.1-0.1-0.2-0.1c-0.1,0-0.2-0.1-0.3-0.1s-0.2,0-0.3,0.1c-0.1,0-0.1,0.1-0.2,0.1
				s-0.1,0.1-0.1,0.2s0,0.2,0,0.2v0.2c0,0,0.1,0.1,0.1,0.2c0.1,0.1,0.1,0.1,0.2,0.1s0.2,0.1,0.3,0.1s0.2,0,0.3-0.1
				c0.1,0,0.1-0.1,0.2-0.1c0.1-0.1,0.1-0.1,0.1-0.2s0-0.2,0-0.2S175.2,69.9,175.2,69.8"/>
			<path class="st15" d="M175.8,69.6c0-0.1,0.1-0.1,0.1-0.2c0.1,0,0.1-0.1,0.2-0.1s0.2,0,0.3,0s0.1,0,0.2,0c0.1,0,0.1,0,0.2,0.1
				c0.1,0,0.1,0.1,0.1,0.1s0.1,0.1,0.1,0.2v0.8c0,0.1,0,0.1,0.1,0.1h0.1v0.2h-0.1H177c-0.1,0-0.1,0-0.1,0l-0.1-0.1v-0.1v-0.1l0,0
				c0,0.1-0.1,0.1-0.1,0.1l-0.1,0.1c0,0-0.1,0-0.2,0.1c-0.1,0-0.1,0-0.2,0c-0.1,0-0.2,0-0.2,0c-0.1,0-0.1,0-0.2-0.1
				c-0.1,0-0.1-0.1-0.1-0.1c0-0.1-0.1-0.1-0.1-0.2s0-0.2,0.1-0.2c0.1-0.1,0.1-0.1,0.2-0.1s0.2-0.1,0.3-0.1s0.2,0,0.3,0s0.1,0,0.1,0
				h0.1l0.1-0.1v-0.1c0-0.1,0-0.1,0-0.1l-0.1-0.1c0,0-0.1,0-0.1-0.1s-0.1,0-0.2,0c-0.1,0-0.2,0-0.3,0.1s-0.1,0.1-0.1,0.2h-0.2
				C175.7,69.7,175.7,69.6,175.8,69.6 M176.8,70L176.8,70l-0.2,0.1c-0.1,0-0.2,0-0.3,0s-0.2,0-0.3,0.1c-0.1,0-0.1,0.1-0.2,0.1
				c-0.1,0-0.1,0.1-0.1,0.2v0.1l0.1,0.1c0,0,0.1,0,0.1,0.1c0.1,0,0.1,0,0.1,0c0.1,0,0.2,0,0.2,0c0.1,0,0.1-0.1,0.2-0.1
				c0.1,0,0.1-0.1,0.1-0.1s0.1-0.1,0.1-0.2L176.8,70L176.8,70L176.8,70z"/>
			<path class="st15" d="M178.5,69.6l-0.1-0.1c0,0-0.1,0-0.1-0.1c-0.1,0-0.1,0-0.2,0c-0.1,0-0.1,0-0.1,0c-0.1,0-0.1,0-0.1,0
				l-0.1,0.1v0.1v0.1l0.1,0.1c0,0,0.1,0,0.1,0.1s0.1,0,0.1,0l0.3,0.1c0.1,0,0.1,0,0.2,0c0.1,0,0.1,0,0.2,0.1s0.1,0.1,0.1,0.1
				s0,0.1,0,0.2s0,0.1-0.1,0.2c0,0.1-0.1,0.1-0.2,0.1c-0.1,0-0.1,0.1-0.2,0.1c-0.1,0-0.2,0-0.2,0c-0.2,0-0.4,0-0.5-0.1
				s-0.2-0.2-0.2-0.4h0.2c0,0.1,0.1,0.2,0.2,0.3s0.2,0.1,0.4,0.1c0.1,0,0.1,0,0.2,0c0.1,0,0.1,0,0.1-0.1c0.1,0,0.1-0.1,0.1-0.1
				l0.1-0.1v-0.1l-0.1-0.1c0,0-0.1,0-0.1-0.1c-0.1,0-0.1,0-0.1,0l-0.3-0.1c-0.1,0-0.1,0-0.2-0.1c-0.1,0-0.1,0-0.1-0.1
				s-0.1-0.1-0.1-0.1s0-0.1,0-0.2s0-0.1,0.1-0.2s0.1-0.1,0.1-0.1c0.1,0,0.1-0.1,0.2-0.1c0.1,0,0.1,0,0.2,0c0.1,0,0.2,0,0.2,0
				s0.1,0.1,0.2,0.1c0.1,0,0.1,0.1,0.1,0.1c0,0.1,0.1,0.1,0.1,0.2h-0.2C178.5,69.7,178.5,69.7,178.5,69.6"/>
			<path class="st15" d="M179.3,70.3c0,0.1,0.1,0.1,0.1,0.2s0.1,0.1,0.2,0.1c0.1,0,0.2,0.1,0.3,0.1c0.2,0,0.3,0,0.4-0.1
				c0.1-0.1,0.1-0.2,0.2-0.3h0.2c-0.1,0.2-0.1,0.3-0.2,0.4c-0.1,0.1-0.3,0.1-0.5,0.1c-0.1,0-0.3,0-0.4-0.1s-0.2-0.1-0.2-0.2
				C179.3,70.4,179.3,70.3,179.3,70.3S179,70.1,179,70s0-0.2,0.1-0.3c0-0.1,0.1-0.2,0.1-0.2s0.1-0.1,0.2-0.2s0.2-0.1,0.4-0.1
				s0.3,0,0.4,0.1s0.2,0.1,0.2,0.2s0.1,0.2,0.1,0.3c0,0.1,0,0.2,0,0.3h-1.3C179.2,70.2,179.3,70.2,179.3,70.3 M180.3,69.8
				c0-0.1-0.1-0.1-0.1-0.2c-0.1-0.1-0.1-0.1-0.2-0.1s-0.1,0-0.2,0c-0.1,0-0.2,0-0.2,0c-0.1,0-0.1,0.1-0.2,0.1
				c-0.1,0.1-0.1,0.1-0.1,0.2s-0.1,0.1-0.1,0.2h1.1C180.4,69.9,180.4,69.8,180.3,69.8"/>
			<path class="st15" d="M182.2,70.8v-0.3l0,0c0,0.1-0.1,0.1-0.1,0.1c-0.1,0-0.1,0.1-0.1,0.1c-0.1,0-0.1,0.1-0.2,0.1s-0.1,0-0.2,0
				c-0.1,0-0.2,0-0.4-0.1s-0.2-0.1-0.2-0.2c-0.1-0.1-0.1-0.2-0.1-0.2s-0.1-0.2-0.1-0.3s0-0.2,0.1-0.3c0-0.1,0.1-0.2,0.1-0.2
				c0.1-0.1,0.1-0.1,0.2-0.2s0.2-0.1,0.4-0.1c0.1,0,0.1,0,0.2,0c0.1,0,0.1,0,0.2,0.1c0.1,0,0.1,0.1,0.1,0.1l0.1,0.1l0,0v-0.8h0.2v2
				L182.2,70.8L182.2,70.8z M181.1,70.3c0,0.1,0.1,0.1,0.1,0.2s0.1,0.1,0.2,0.1c0.1,0,0.2,0.1,0.3,0.1s0.2,0,0.3-0.1
				c0.1,0,0.1-0.1,0.2-0.1s0.1-0.1,0.1-0.2s0-0.2,0-0.2v-0.2c0,0-0.1-0.1-0.1-0.2c-0.1-0.1-0.1-0.1-0.2-0.1c-0.1,0-0.2-0.1-0.3-0.1
				s-0.2,0-0.3,0.1c-0.1,0-0.1,0.1-0.2,0.1s-0.1,0.1-0.1,0.2s0,0.1,0,0.2S181,70.2,181.1,70.3"/>
			<path class="st15" d="M183.8,69.6c0-0.1,0.1-0.1,0.1-0.2c0.1,0,0.1-0.1,0.2-0.1c0.1,0,0.2,0,0.3,0s0.1,0,0.2,0
				c0.1,0,0.1,0,0.2,0.1c0.1,0,0.1,0.1,0.1,0.1s0.1,0.1,0.1,0.2v0.8c0,0.1,0,0.1,0.1,0.1h0.1v0.2h-0.1H185c-0.1,0-0.1,0-0.1,0
				l-0.1-0.1v-0.1v-0.1l0,0c0,0.1-0.1,0.1-0.1,0.1l-0.1,0.1c0,0-0.1,0-0.2,0.1c-0.1,0-0.1,0-0.2,0s-0.2,0-0.2,0
				c-0.1,0-0.1,0-0.2-0.1c-0.1,0-0.1-0.1-0.1-0.1c0-0.1-0.1-0.1-0.1-0.2s0-0.2,0.1-0.2c0.1-0.1,0.1-0.1,0.2-0.1s0.2-0.1,0.3-0.1
				s0.2,0,0.3,0s0.1,0,0.1,0h0.1l0.1-0.1v-0.1c0-0.1,0-0.1,0-0.1l-0.1-0.1c0,0-0.1,0-0.1-0.1c-0.1,0-0.1,0-0.2,0
				c-0.1,0-0.2,0-0.3,0.1s-0.1,0.1-0.1,0.2h-0.2C183.8,69.7,183.8,69.6,183.8,69.6 M184.9,70L184.9,70l-0.2,0.1c-0.1,0-0.2,0-0.3,0
				s-0.2,0-0.3,0.1c-0.1,0-0.1,0.1-0.2,0.1c-0.1,0-0.1,0.1-0.1,0.2v0.1l0.1,0.1c0,0,0.1,0,0.1,0.1c0.1,0,0.1,0,0.1,0
				c0.1,0,0.2,0,0.2,0c0.1,0,0.1-0.1,0.2-0.1c0.1,0,0.1-0.1,0.1-0.1s0.1-0.1,0.1-0.2V70H184.9L184.9,70z"/>
			<rect x="185.5" y="68.8" class="st15" width="0.2" height="2"/>
			<polygon class="st15" points="186.2,69.3 186.6,70.6 186.7,70.6 187.1,69.3 187.3,69.3 187.8,70.6 187.8,70.6 188.2,69.3 
				188.4,69.3 187.9,70.8 187.6,70.8 187.2,69.6 187.2,69.6 186.8,70.8 186.5,70.8 186,69.3 			"/>
			<path class="st15" d="M188.7,69.6c0-0.1,0.1-0.1,0.1-0.2c0.1,0,0.1-0.1,0.2-0.1s0.2,0,0.3,0s0.1,0,0.2,0c0.1,0,0.1,0,0.2,0.1
				c0.1,0,0.1,0.1,0.1,0.1s0.1,0.1,0.1,0.2v0.8c0,0.1,0,0.1,0.1,0.1h0.1v0.2H190h-0.1c-0.1,0-0.1,0-0.1,0l-0.1-0.1v-0.1v-0.1l0,0
				c0,0.1-0.1,0.1-0.1,0.1l-0.1,0.1c0,0-0.1,0-0.2,0.1c-0.1,0-0.1,0-0.2,0c-0.1,0-0.2,0-0.2,0c-0.1,0-0.1,0-0.2-0.1
				c-0.1,0-0.1-0.1-0.1-0.1c0-0.1-0.1-0.1-0.1-0.2s0-0.2,0.1-0.2c0.1-0.1,0.1-0.1,0.2-0.1s0.2-0.1,0.3-0.1s0.2,0,0.3,0s0.1,0,0.1,0
				h0.1l0.1-0.1v-0.1c0-0.1,0-0.1,0-0.1l-0.1-0.1c0,0-0.1,0-0.1-0.1s-0.1,0-0.2,0c-0.1,0-0.2,0-0.3,0.1s-0.1,0.1-0.1,0.2h-0.2
				C188.6,69.7,188.7,69.6,188.7,69.6 M189.8,70L189.8,70l-0.2,0.1c-0.1,0-0.2,0-0.3,0s-0.2,0-0.3,0.1c-0.1,0-0.1,0.1-0.2,0.1
				c-0.1,0-0.1,0.1-0.1,0.2v0.1l0.1,0.1c0,0,0.1,0,0.1,0.1c0.1,0,0.1,0,0.1,0c0.1,0,0.2,0,0.2,0c0.1,0,0.1-0.1,0.2-0.1
				c0.1,0,0.1-0.1,0.1-0.1s0.1-0.1,0.1-0.2L189.8,70L189.8,70L189.8,70z"/>
			<path class="st15" d="M190.4,69.3l0.6,1.2l0.5-1.2h0.2L191,71c0,0.1-0.1,0.1-0.1,0.2s-0.1,0.1-0.1,0.1s-0.1,0-0.1,0.1
				c0,0-0.1,0-0.2,0h-0.1h-0.1v-0.2h0.1h0.1c0.1,0,0.1,0,0.1,0l0.1-0.1l0.1-0.1l0.1-0.1l0.1-0.2L190.4,69.3L190.4,69.3L190.4,69.3z"
				/>
			<path class="st15" d="M193,69.6l-0.1-0.1c0,0-0.1,0-0.1-0.1c-0.1,0-0.1,0-0.2,0c-0.1,0-0.1,0-0.1,0c-0.1,0-0.1,0-0.1,0l-0.1,0.1
				v0.1v0.1l0.1,0.1c0,0,0.1,0,0.1,0.1h0.1l0.3,0.1c0.1,0,0.1,0,0.2,0c0.1,0,0.1,0,0.2,0.1c0.1,0,0.1,0.1,0.1,0.1s0,0.1,0,0.2
				s0,0.1-0.1,0.2c0,0.1-0.1,0.1-0.2,0.1c-0.1,0-0.1,0.1-0.2,0.1c-0.1,0-0.2,0-0.2,0c-0.2,0-0.4,0-0.5-0.1s-0.2-0.2-0.2-0.4h0.2
				c0,0.1,0.1,0.2,0.2,0.3s0.2,0.1,0.4,0.1c0.1,0,0.1,0,0.2,0s0.1,0,0.1-0.1c0.1,0,0.1-0.1,0.1-0.1l0.1-0.1v-0.1l-0.1-0.1
				c0,0-0.1,0-0.1-0.1s-0.1,0-0.1,0l-0.3-0.1c-0.1,0-0.1,0-0.2-0.1c-0.1,0-0.1,0-0.1-0.1s-0.1-0.1-0.1-0.1s0-0.1,0-0.2
				s0-0.1,0.1-0.2s0.1-0.1,0.1-0.1c0.1,0,0.1-0.1,0.2-0.1c0.1,0,0.2,0,0.2,0c0.1,0,0.2,0,0.2,0s0.1,0.1,0.2,0.1
				c0.1,0,0.1,0.1,0.1,0.1c0,0.1,0.1,0.1,0.1,0.2L193,69.6C193,69.7,193,69.7,193,69.6"/>
			<path class="st15" d="M151.9,59.2v4.6h-0.8c-0.5,0-0.8-0.3-0.8-0.7v-0.3c-0.9,1.1-5.1,2.2-5.1-0.7c0-2.3,2.9-2,5.1-2.7v-0.7
				c0-0.8-0.4-1.2-1.5-1.2c-0.6,0-1.7,0-2.5,0.9l-0.4-0.1c0.7-1,2-1.2,3-1.2C151.1,57.2,151.9,58,151.9,59.2 M150.3,62.5v-2.7
				c-1.6,0.4-3.3,0.4-3.3,2.2S148.9,63.9,150.3,62.5"/>
			<path class="st15" d="M155.6,57.8v6.1h-0.8c-0.5,0-0.9-0.3-0.9-0.7v-4.6c0-0.6-0.5-1.2-1.4-1.3v-0.1h2.4
				C155.4,57.2,155.6,57.5,155.6,57.8 M154.9,54.5c-0.6,0-1,0.4-1,0.8c0,0.5,0.4,0.8,1,0.8s1-0.4,1-0.8S155.4,54.5,154.9,54.5"/>
			<path class="st15" d="M165.9,60.7c0,1.9-1,3.4-3.5,3.4c-1.4,0-2.2-0.5-2.6-1v0.8H159c-0.5,0-0.8-0.3-0.8-0.7v-7.6
				c0-0.6-0.5-1.2-1.4-1.3v-0.1h2.4c0.4,0,0.7,0.3,0.7,0.6v3.5c0.5-0.5,1.3-1,2.6-1C164.9,57.3,165.9,58.7,165.9,60.7 M164.1,60.7
				c0-3.1-2.5-3.9-4.4-1.8v3.5C161.6,64.6,164.1,63.8,164.1,60.7"/>
			<path class="st15" d="M169.1,54.8v9.1h-0.8c-0.5,0-0.9-0.3-0.9-0.7v-7.7c0-0.5-0.6-1.1-1.4-1.2v-0.1h2.4
				C168.7,54.2,169.1,54.5,169.1,54.8"/>
			<path class="st15" d="M145.5,67.5l1.2-2.2l1.2,2.2h-0.4l-0.2-0.4H146l-0.2,0.4H145.5z M145.9,66.9h1.2l-0.6-1.1L145.9,66.9z"/>
			<path class="st15" d="M148.6,65.3v2.2h-0.4v-1.9c0-0.1-0.1-0.2-0.3-0.3l0,0L148.6,65.3L148.6,65.3z"/>
			<rect x="148.8" y="66.4" class="st15" width="1" height="0.2"/>
			<path class="st15" d="M150.1,67.5l1.2-2.2l1.2,2.2h-0.4l-0.2-0.4h-1.4l-0.2,0.4H150.1z M150.6,66.9h1.2l-0.6-1.1L150.6,66.9z"/>
			<path class="st15" d="M154.1,66v0.2c-0.3,0-0.6,0-0.6,0.4v0.9h-0.4v-1.2c0-0.1-0.1-0.3-0.3-0.3l0,0h0.7v0.4
				C153.6,66.1,153.8,66,154.1,66"/>
			<path class="st15" d="M155.7,66.4v1.1h-0.4v-0.2c-0.2,0.2-1.1,0.5-1.1-0.2c0-0.5,0.7-0.5,1.1-0.6v-0.1c0-0.2-0.1-0.3-0.3-0.3
				c-0.1,0-0.4,0-0.6,0.2h-0.1c0.2-0.2,0.4-0.3,0.7-0.3C155.6,66,155.7,66.2,155.7,66.4 M155.4,67.2v-0.6c-0.4,0.1-0.8,0.1-0.8,0.5
				C154.6,67.5,155,67.5,155.4,67.2"/>
			<path class="st15" d="M156.6,65.7V66h0.4v0.1h-0.4v1.4h-0.4v-1.4h-0.4V66h0.4v-0.2c0-0.2,0.1-0.5,0.6-0.5c0.1,0,0.2,0,0.3,0.1
				l-0.1,0.1c-0.1,0-0.1,0-0.2,0C156.6,65.4,156.6,65.5,156.6,65.7"/>
			<path class="st15" d="M158.6,66.4v1.1h-0.4v-0.2c-0.2,0.2-1.1,0.5-1.1-0.2c0-0.5,0.7-0.5,1.1-0.6v-0.1c0-0.2-0.1-0.3-0.3-0.3
				c-0.1,0-0.4,0-0.6,0.2h-0.1c0.2-0.2,0.4-0.3,0.7-0.3C158.4,66,158.6,66.2,158.6,66.4 M158.2,67.2v-0.6c-0.4,0.1-0.8,0.1-0.8,0.5
				C157.5,67.5,157.9,67.5,158.2,67.2"/>
			<path class="st15" d="M160.6,66.5v1h-0.4v-1c0-0.3-0.2-0.4-0.4-0.4s-0.4,0.1-0.5,0.2v1.2h-0.4v-1.9c0-0.1-0.1-0.3-0.3-0.3l0,0
				h0.7v0.8c0.1-0.1,0.3-0.2,0.5-0.2C160.4,66,160.6,66.2,160.6,66.5"/>
			<path class="st15" d="M162.5,65.3v2.2h-0.4v-1.9c0-0.1-0.1-0.2-0.3-0.3l0,0C161.8,65.3,162.5,65.3,162.5,65.3z"/>
			<path class="st15" d="M164.2,67.1c0,0.2-0.4,0.4-0.8,0.4c-0.3,0-0.6-0.1-0.6-0.4h0.1c0,0.2,0.3,0.3,0.5,0.3s0.4-0.1,0.4-0.2
				c0-0.2-0.2-0.2-0.5-0.3c-0.2-0.1-0.6-0.2-0.6-0.5c0-0.2,0.2-0.4,0.7-0.4c0.1,0,0.6,0,0.6,0.4h0c0-0.2-0.3-0.3-0.5-0.3
				s-0.4,0.1-0.4,0.2s0.2,0.2,0.5,0.3C164,66.8,164.2,66.8,164.2,67.1"/>
			<path class="st15" d="M164.9,65.3v2.2h-0.4v-1.9c0-0.1-0.1-0.2-0.3-0.3l0,0L164.9,65.3L164.9,65.3z"/>
			<path class="st15" d="M166.7,66.4v1.1h-0.4v-0.2c-0.2,0.2-1.1,0.5-1.1-0.2c0-0.5,0.7-0.5,1.1-0.6v-0.1c0-0.2-0.1-0.3-0.3-0.3
				c-0.1,0-0.4,0-0.6,0.2h-0.1c0.2-0.2,0.4-0.3,0.7-0.3C166.5,66,166.7,66.2,166.7,66.4 M166.3,67.2v-0.6c-0.4,0.1-0.8,0.1-0.8,0.5
				C165.6,67.5,166,67.5,166.3,67.2"/>
			<path class="st15" d="M169.9,66.5v1h-0.4v-1c0-0.3-0.2-0.4-0.4-0.4s-0.4,0.1-0.5,0.2v1.2h-0.4v-1c0-0.3-0.2-0.4-0.4-0.4
				s-0.4,0.1-0.5,0.2v1.2h-0.4v-1.2c0-0.1-0.1-0.3-0.3-0.3l0,0h0.7v0.2c0.1-0.1,0.3-0.2,0.5-0.2c0.3,0,0.5,0.1,0.6,0.2
				c0.1-0.1,0.3-0.2,0.6-0.2C169.7,66,169.9,66.2,169.9,66.5"/>
			<path class="st15" d="M170.7,66v1.5h-0.4v-1.2c0-0.1-0.1-0.3-0.3-0.3l0,0H170.7z M170.6,65.4c-0.1,0-0.2,0.1-0.2,0.2
				s0.1,0.2,0.2,0.2c0.1,0,0.2-0.1,0.2-0.2S170.7,65.4,170.6,65.4"/>
			<path class="st15" d="M174.3,66.9c0,0.1-0.1,0.6-1,0.6h-1v-1.9c0-0.1-0.1-0.3-0.3-0.3l0,0h1.3c0.8,0,0.9,0.5,0.9,0.6
				c0,0.3-0.2,0.4-0.5,0.5C174,66.4,174.3,66.6,174.3,66.9 M172.7,66.3h0.6c0.2,0,0.5-0.1,0.5-0.4s-0.2-0.5-0.6-0.5h-0.5V66.3z
				 M173.9,66.9c0-0.4-0.6-0.5-0.7-0.5h-0.5v0.9h0.6C173.3,67.4,173.9,67.3,173.9,66.9"/>
			<path class="st15" d="M176.1,66.4v1.1h-0.4v-0.2c-0.2,0.2-1.1,0.5-1.1-0.2c0-0.5,0.7-0.5,1.1-0.6v-0.1c0-0.2-0.1-0.3-0.3-0.3
				c-0.1,0-0.4,0-0.6,0.2h-0.1c0.2-0.2,0.4-0.3,0.7-0.3C175.9,66,176.1,66.2,176.1,66.4 M175.7,67.2v-0.6c-0.4,0.1-0.8,0.1-0.8,0.5
				S175.4,67.5,175.7,67.2"/>
			<path class="st15" d="M178.1,66.5v1h-0.4v-1c0-0.3-0.2-0.4-0.4-0.4s-0.4,0.1-0.5,0.2v1.2h-0.4v-1.2c0-0.1-0.1-0.3-0.3-0.3l0,0
				h0.7v0.2c0.1-0.1,0.3-0.2,0.5-0.2C177.9,66,178.1,66.2,178.1,66.5"/>
			<path class="st15" d="M180,67.5h-0.5l-0.7-0.7v0.7h-0.4v-1.9c0-0.1-0.1-0.3-0.3-0.3l0,0h0.7v1.4l0.8-0.6h0.2l-0.7,0.5L180,67.5z"
				/>
			<path class="st15" d="M183.3,67.3L183.3,67.3l-1.7,0.1v-1.9c0-0.1-0.1-0.2-0.3-0.3l0,0h0.7v2C181.9,67.3,183.3,67.3,183.3,67.3z"
				/>
			<path class="st15" d="M183.7,66v1.5h-0.4v-1.2c0-0.1-0.1-0.3-0.3-0.3l0,0H183.7z M183.6,65.4c-0.1,0-0.2,0.1-0.2,0.2
				s0.1,0.2,0.2,0.2c0.1,0,0.2-0.1,0.2-0.2C183.8,65.4,183.7,65.4,183.6,65.4"/>
			<path class="st15" d="M187.1,66.5v1h-0.4v-1c0-0.3-0.2-0.4-0.4-0.4s-0.4,0.1-0.5,0.2v1.2h-0.4v-1c0-0.3-0.2-0.4-0.4-0.4
				s-0.4,0.1-0.5,0.2v1.2h-0.4v-1.2c0-0.1-0.1-0.3-0.3-0.3l0,0h0.7v0.2c0.1-0.1,0.3-0.2,0.5-0.2c0.3,0,0.5,0.1,0.6,0.2
				c0.1-0.1,0.3-0.2,0.6-0.2C186.9,66,187.1,66.2,187.1,66.5"/>
			<path class="st15" d="M188,66v1.5h-0.4v-1.2c0-0.1-0.1-0.3-0.3-0.3l0,0H188z M187.8,65.4c-0.1,0-0.2,0.1-0.2,0.2s0.1,0.2,0.2,0.2
				c0.1,0,0.2-0.1,0.2-0.2S187.9,65.4,187.8,65.4"/>
			<path class="st15" d="M189.5,67.3c-0.1,0.1-0.2,0.2-0.5,0.2s-0.4-0.1-0.4-0.3v-1.1h-0.3V66h0.3v-0.1c0-0.1-0.1-0.3-0.3-0.3l0,0
				h0.7V66h0.4v0.1H189v1.1c0,0.1,0,0.2,0.1,0.2C189.2,67.4,189.4,67.4,189.5,67.3L189.5,67.3z"/>
			<path class="st15" d="M190,66.7L190,66.7c0,0.6,0.6,1,1.2,0.5l0.1,0.1c0,0-0.2,0.3-0.8,0.3s-0.9-0.3-0.9-0.8
				c0-0.4,0.3-0.8,0.9-0.8c0.7,0,0.8,0.4,0.8,0.6v0.1C191.2,66.7,190,66.7,190,66.7z M190,66.6h0.8c0-0.3-0.1-0.5-0.3-0.5
				C190.2,66.1,190.1,66.2,190,66.6"/>
			<path class="st15" d="M193.3,65.3v2.2h-0.4v-0.2c-0.1,0.1-0.3,0.2-0.6,0.2c-0.6,0-0.8-0.3-0.8-0.8s0.2-0.8,0.8-0.8
				c0.3,0,0.5,0.1,0.6,0.2v-0.6c0-0.1-0.1-0.3-0.3-0.3l0,0h0.7V65.3z M192.9,66.4c-0.4-0.5-1-0.3-1,0.4c0,0.7,0.6,0.9,1,0.4V66.4z"
				/>
			<path class="st15" d="M182.4,53.5l-6.5,4.1v6l6.5-4.2l6.6,4.2v-6L182.4,53.5L182.4,53.5L182.4,53.5L182.4,53.5z M175.8,54.2v2.7
				l6.6-4.2L189,57v-2.8l-6.6-4.3l0,0l0,0l0,0l0,0L175.8,54.2z"/>
			<polygon class="st12" points="182.4,59.5 175.8,63.6 175.8,57.6 182.4,53.5 			"/>
			<polygon class="st12" points="182.4,52.7 175.8,56.9 175.8,54.2 182.4,50 			"/>
			<path class="st13" d="M182.4,46.8v1.6c8.2,2.8,9.1,5.7,9.1,7.2v8.3h1.8v-8.6C193.3,53.6,192.3,50.1,182.4,46.8"/>
			<path class="st14" d="M182.4,46.8c-9.9,3.3-10.9,6.8-10.9,8.5v8.6h1.8v-8.3c0-1.4,0.8-4.4,9.1-7.2l0,0L182.4,46.8L182.4,46.8z"/>
			<polygon class="st16" points="175.8,56.8 175.8,57.7 182.4,53.6 189,57.8 189,57 182.4,52.6 			"/>
			<polyline class="st17" points="182.4,53.6 189,57.8 189,57 182.4,52.6 			"/>
		</g>
	</g>
	<g>
		<path class="st0" d="M59.2,74.1H2.3c-0.9,0-1.6-0.7-1.6-1.6V45.6c0-0.9,0.7-1.6,1.6-1.6h56.9c0.9,0,1.6,0.7,1.6,1.6v26.8
			C60.8,73.3,60.1,74.1,59.2,74.1z"/>
		<g>
			<g>
				<path class="st18" d="M7.7,58.2c0,0-0.8-0.1-0.9,0.3c0,0-0.4,0.7,0.3,2.2c0,0,0.3-0.5,0.4-0.1c0,0,0.1,0.2,0,0.3
					c0,0,0.4-0.2,0.6-0.7C8,60.2,7.7,58.3,7.7,58.2z M7.2,59.7c-0.2,0-0.3-0.2-0.3-0.5s0.1-0.5,0.3-0.5c0.2,0,0.3,0.2,0.3,0.5
					S7.4,59.7,7.2,59.7z"/>
				<path class="st18" d="M13.1,66.8l0.8,1c0.4-0.2,1.7-0.8,3.6-0.8c1.2,0,2.4,0.2,3.6,0.6l0.7-0.8c-1.1-0.6-2.7-1-4.4-1
					C15.8,65.7,14.2,66.1,13.1,66.8z M13.8,68.1l-1.2-1.5l0.2-0.1c1.2-0.7,2.9-1.2,4.8-1.2c1.8,0,3.5,0.4,4.7,1.1l0.2,0.1l-1.1,1.3
					h-0.1c-1.2-0.4-2.5-0.6-3.6-0.6c-2.3,0-3.6,0.8-3.6,0.8L13.8,68.1"/>
				<g>
					<path class="st18" d="M8.8,58.2H7.6c0.3,3.7,2.5,6.9,5.6,8.3l1.8-0.6C11.7,65,9.2,61.9,8.8,58.2z M9,62l0.7-0.4l0.1,0.2
						l-0.7,0.4L9,62z M9.3,62.6c-0.2-0.3-0.1-0.4,0-0.5l0.1,0.1c0,0-0.1,0.1,0,0.2c0,0.1,0.1,0.1,0.2,0.1c0.1,0,0-0.1,0-0.2v-0.1
						c-0.1-0.1-0.1-0.3,0.1-0.3c0.1,0,0.2-0.1,0.4,0.2c0.1,0.2,0.1,0.4,0,0.4L10,62.4c0,0,0.1-0.1,0-0.2c0-0.1-0.1-0.1-0.2-0.1
						c-0.1,0,0,0.1,0,0.1l0.1,0.2c0,0.1,0.1,0.2-0.1,0.3C9.5,62.9,9.4,62.7,9.3,62.6z M9.6,63l0.6-0.5l0.1,0.1L9.8,63l0.2,0.3
						l-0.1,0.1L9.6,63z M10.5,64.2L10.4,64l0.1-0.1l-0.2-0.2l-0.2,0.1L10,63.5l0.8-0.3l0.1,0.2L10.5,64.2z M12,64.4L11.5,65
						l-0.1-0.1l0.5-0.6L12,64.4z M11.7,64.3l-0.5,0.6l-0.1-0.1l0.4-0.5l0,0L11,64.6l-0.1-0.1l0.3-0.6l0,0l-0.4,0.5l-0.1-0.1l0.5-0.6
						l0.2,0.2L11,64.4l0,0l0.5-0.3L11.7,64.3z"/>
					<polygon class="st18" points="10.4,63.6 10.5,63.7 10.7,63.5 10.7,63.5 					"/>
					<polygon class="st18" points="21.9,65.1 21.6,64.9 21.6,64.9 21.7,65.2 					"/>
					<path class="st18" d="M21.1,65.5l-0.2,0.1l0.1,0.2l0.2-0.1c0.1,0,0.1-0.1,0.1-0.2C21.3,65.5,21.2,65.5,21.1,65.5z"/>
					<polygon class="st18" points="24.1,62.8 23.8,62.7 23.8,62.7 24,62.9 					"/>
					<path class="st18" d="M24.5,61.9c-0.2-0.1-0.3,0-0.3,0l-0.1,0.2l0.4,0.2l0.1-0.2C24.7,62.1,24.7,62,24.5,61.9z"/>
					<path class="st18" d="M21.1,65.3c0-0.1-0.1-0.1-0.2,0l-0.2,0.1l0.1,0.1l0.2-0.1C21.1,65.4,21.2,65.3,21.1,65.3z"/>
					<path class="st18" d="M25.1,58.3c-0.4,3.5-2.6,6.4-5.7,7.4l1.8,0.5c2.8-1.5,4.8-4.5,5.1-8L25.1,58.3z M21.5,65.6
						c0,0.1,0,0.1-0.2,0.2L21,66l-0.4-0.7l0.4-0.2c0.2-0.1,0.3,0,0.3,0c0.1,0.1,0,0.2,0,0.2c0.1,0,0.2,0,0.2,0.1
						S21.5,65.6,21.5,65.6z M22.1,65.3L22,65.2l-0.3,0.2v0.2l-0.1,0.1l-0.2-0.8l0.2-0.1l0.7,0.5L22.1,65.3z M22.8,64.8l-0.6-0.2l0,0
						l0.4,0.4l-0.1,0.1L22,64.5l0.1-0.1l0.6,0.2l0,0l-0.4-0.4l0.1-0.1l0.5,0.6L22.8,64.8z M23.5,64.1L23.5,64.1
						c-0.1,0-0.1,0.1-0.2,0.2c-0.1,0.2-0.4,0.2-0.6,0c-0.1-0.2-0.2-0.4,0-0.6c0.2-0.2,0.4-0.2,0.5-0.1l-0.1,0.1c0,0-0.1,0-0.2,0
						s-0.1,0.2,0,0.4c0.1,0.2,0.3,0.1,0.4,0c0,0,0.1-0.1,0-0.3l-0.1,0.1L23,64l0.2-0.3L23.5,64.1L23.5,64.1z M23.7,63.9l-0.6-0.5
						l0.1-0.1l0.5,0.4l0.3-0.3l0.1,0.1L23.7,63.9z M24.4,62.8h-0.2L24.1,63l0.1,0.1l-0.1,0.2l-0.5-0.7l0.1-0.2l0.8,0.2L24.4,62.8z
						 M24.8,62.3l-0.2,0.3l-0.7-0.4l0.2-0.3c0.1-0.2,0.4-0.2,0.5-0.1C24.8,61.8,24.9,62,24.8,62.3z M25,61.8l-0.7-0.3l0.3-0.6
						l0.1,0.1l-0.2,0.4l0.1,0.1l0.2-0.4l0.1,0.1l-0.2,0.4l0.2,0.1l0.2-0.4l0.1,0.1L25,61.8z M25.5,60.8c-0.1,0.3-0.3,0.3-0.4,0.2
						l0.1-0.2C25.2,60.8,25.3,60.8,25.5,60.8c-0.1-0.2-0.1-0.3-0.1-0.3c-0.1,0-0.1,0-0.1,0.1v0.1c-0.1,0.1-0.1,0.2-0.3,0.2
						c-0.1,0-0.2-0.1-0.1-0.4c0.1-0.2,0.3-0.3,0.4-0.2L25,60.5c0,0-0.1,0-0.2,0.1c0,0.1,0,0.2,0,0.2c0.1,0,0.1,0,0.1-0.1l0.1-0.2
						c0.1-0.1,0.1-0.2,0.3-0.1C25.6,60.5,25.5,60.7,25.5,60.8z M25.7,60.2v0.2L25,60.2V60l0.3,0.1l0.1-0.3l-0.3-0.1v-0.2l0.7,0.2
						v0.2l-0.3-0.1l-0.1,0.3L25.7,60.2z"/>
				</g>
				<g>
					<g>
						<g>
							<g>
								<defs>
									<rect id="SVGID_00000158720121563017068020000003156399675062675328_" x="14.1" y="67.4" width="1.3" height="0.8"/>
								</defs>
								<clipPath id="SVGID_00000168825898993446334350000012013156344339654311_">
									<use xlink:href="#SVGID_00000158720121563017068020000003156399675062675328_"  style="overflow:visible;"/>
								</clipPath>
								<g style="clip-path:url(#SVGID_00000168825898993446334350000012013156344339654311_);">
									<path class="st18" d="M15.4,67.4c0,0-0.3,1.4-1.2,0.6"/>
								</g>
							</g>
						</g>
					</g>
				</g>
				<path class="st18" d="M20.5,67.7c0,0-1.1,1-1.4-0.3"/>
				<path class="st4" d="M15.7,66.7l0.2-0.1c0.1,0,0.1,0,0.2,0.1c0,0.1,0,0.1-0.1,0.1l-0.2,0.1L15.7,66.7 M15.5,67l0.4-0.1
					c0.2,0,0.2-0.1,0.3-0.1c0,0,0.1-0.1,0.1-0.2s-0.1-0.1-0.2-0.1c0,0,0.1-0.1,0.1-0.2s-0.1-0.2-0.3-0.1l-0.5,0.1L15.5,67
					 M15.6,66.4h0.2c0.1,0,0.1,0,0.2,0c0,0.1-0.1,0.1-0.1,0.1L15.6,66.4L15.6,66.4"/>
				<path class="st4" d="M16.7,66.3L16.7,66.3l0.1,0.2h-0.2L16.7,66.3 M16.6,66.7H17l0.1,0.1h0.2l-0.4-0.6h-0.2l-0.3,0.7h0.2
					L16.6,66.7"/>
				<path class="st4" d="M18,66.1h0.2v0.7H18l-0.4-0.5l0,0v0.5h-0.2v-0.7h0.2l0.4,0.4l0,0V66.1"/>
				<path class="st4" d="M18.5,66.8h-0.2l0.1-0.6h0.2v0.3l0.4-0.2h0.3l-0.4,0.2l0.4,0.4H19l-0.3-0.3l-0.1,0.1L18.5,66.8"/>
				<path class="st4" d="M10.5,58.5l0.1,0.2h0.3L10.7,59l0.1,0.3l-0.2-0.1l-0.2,0.1V59l-0.2-0.2h0.3L10.5,58.5"/>
				<path class="st4" d="M11.4,59.9L11.4,59.9C11.4,60,11.4,60,11.4,59.9C11.4,60,11.3,60,11.4,59.9c-0.1,0.1-0.1,0.1-0.1,0.2
					s0,0,0,0.1c0,0,0,0,0.1,0.1s0.1,0.1,0.1,0.1c0.1,0.1,0.1,0.2,0.1,0.3s-0.1,0.2-0.1,0.2V61l-0.1,0.2l-0.2-0.5c0,0,0,0,0,0.1
					s0,0.1,0,0.2s-0.2,0-0.3,0s-0.2,0-0.4-0.1c0,0,0,0.1,0,0.2c0,0.1,0,0.1,0,0.2l-0.1,0.2l-0.2,0.1c0.1-0.2,0.1-0.4,0.1-0.5
					c0-0.2,0-0.3,0-0.4l0.2-0.3c0,0.2,0,0.3,0.1,0.4c0,0,0,0.1,0.1,0.1l0.1,0.1h0.1l0,0c0,0,0.1,0,0.1-0.1v-0.1c0,0-0.1,0-0.2,0
					c0,0-0.1,0-0.1-0.1v-0.1c0,0,0-0.1,0.1-0.1h0.1H11c0,0,0,0,0.1,0.1l0,0v-0.1L11,60.2l0-0.2l0.3,0.7l0,0c0,0,0,0,0.1,0l0,0l0,0
					v-0.1c0,0-0.1-0.1-0.1-0.2c0,0,0,0,0-0.1s-0.1-0.2,0-0.3C11.3,59.9,11.3,59.9,11.4,59.9C11.3,59.9,11.3,59.9,11.4,59.9
					L11.4,59.9"/>
				<path class="st4" d="M11.5,61.4l0.2,0.3l-0.2,0.1c0-0.1,0-0.2,0-0.2s0,0-0.1,0l0,0C11.5,61.5,11.5,61.4,11.5,61.4 M11.9,62v-0.2
					l-0.6-1V61l0,0l0,0c0,0,0,0.1,0,0.2c0,0.1,0.1,0.1,0.1,0.1s0,0.1-0.1,0.1h-0.1c-0.1,0-0.1,0-0.1,0s0,0,0-0.1c0,0,0,0,0.1-0.1
					h-0.1C11,61.3,11,61.4,11,61.5c0,0,0,0,0,0.1l0,0c0,0,0.1,0,0.3,0.1h0.1c0,0,0,0,0,0.1s0,0.1,0,0.1L11,62.1v0.2l0.8-0.5L11.9,62
					"/>
				<path class="st4" d="M12.5,62.6l-0.7,0.7v-0.2l0.4-0.3c0,0,0,0,0-0.1s0-0.1,0-0.1s0,0-0.1,0s-0.1,0-0.1,0.1l-0.1-0.1H12v-0.1
					c0,0,0-0.1-0.1-0.1h-0.1h-0.1v0.1l0,0h0.1h0.1c0,0,0.1,0.1,0,0.2c0,0,0,0.1-0.1,0.1s-0.1,0-0.2-0.1c-0.1-0.1-0.1-0.1-0.1-0.2
					s0-0.1,0.1-0.2c0.1,0,0.1-0.1,0.2-0.1c0.1,0,0.1,0,0.2,0.1c0.1,0.1,0.1,0.1,0.1,0.2l0,0h0.1h0.1c0,0,0,0.1,0.1,0.1l0,0l0,0
					L12.5,62.6L12,61.9v-0.2l0.8,0.8v0.2L12.5,62.6"/>
				<path class="st4" d="M12.8,62.7L12.8,62.7c0.1-0.1,0.1-0.1,0.2-0.2v0.1v0.1l0,0h0.1v0.2l-0.2-0.1l-0.6,0.7v-0.2l0.4-0.5l0,0
					v-0.1c0,0,0-0.1-0.1-0.1l0,0v-0.2c0.1,0,0.1,0.1,0.1,0.1C12.7,62.6,12.8,62.7,12.8,62.7"/>
				<path class="st4" d="M13.2,63.8c0-0.1,0-0.1,0-0.2c0,0,0,0,0-0.1s0-0.1,0-0.2v-0.1v-0.1l0.3,0.2L13.2,63.8 M13,63.1l0.1,0.1v0.1
					l0,0C13,63.3,13,63.2,13,63.1c-0.2,0.1-0.2,0.1-0.2,0.2l0,0l0,0l0,0c0,0,0,0.1,0.1,0.1s0.1,0,0.2,0c0,0,0,0.1,0.1,0.1v0.1v0.1
					v0.1l0.5-0.8l0.2,0.1l-0.1-0.2l-0.9-0.6l0.1,0.2l0,0v0.1C12.9,63.1,13,63.1,13,63.1"/>
				<path class="st4" d="M13.9,63.6l-0.4,0.8l-0.1-0.2l0.4-0.7l-0.1-0.1l-0.1-0.2l0.3,0.1l0,0c0,0,0-0.1,0-0.2c0,0,0-0.1-0.1-0.1
					l-0.1-0.1c-0.1,0-0.1-0.1-0.2-0.1c0,0-0.1,0-0.1-0.1c-0.1,0-0.1,0-0.1,0s0,0,0.1,0.1c0.1,0,0.1,0.1,0.2,0.1
					c0.1,0,0.1,0.1,0.1,0.1s0,0.1,0.1,0.1s0,0.1,0,0.1s0,0-0.1,0.1l-0.2-0.1c0.1,0,0.1,0,0.1,0s0-0.1-0.1-0.1S13.4,63,13.4,63
					c-0.1,0-0.1-0.1-0.1-0.1c0-0.1,0-0.1,0-0.2l0.1-0.1c0.1,0,0.2,0,0.3,0h0.1c0.1,0,0.1,0.1,0.2,0.2c0,0,0.1,0.1,0.1,0.2
					c0,0,0,0.1,0,0.2c0,0.1,0,0.1,0,0.2v0.1h0.1l0.1,0.2L13.9,63.6"/>
				<path class="st4" d="M15,64.6c-0.1-0.1-0.1-0.2-0.2-0.3c0.1,0,0.2,0,0.4,0L15,64.6 M15.6,64.2L15.4,64l-1-0.3l0.1,0.2l0.6,0.2
					l0,0c-0.2,0-0.4,0-0.7,0.1l0.1,0.2c0.1,0,0.2,0.1,0.2,0.2c0.1,0.1,0.1,0.2,0.2,0.3l0.1,0.2l0.3-0.9L15.6,64.2"/>
				<path class="st4" d="M15.9,64.2h-0.1c0,0-0.1,0-0.1,0.1c0,0,0,0,0,0.1s0,0.1,0,0.2c0,0.2,0,0.2,0,0.3c0,0.1-0.1,0.2-0.2,0.2
					c-0.1,0-0.1,0-0.1,0s-0.1,0-0.1-0.1l0,0c0,0,0,0,0.1,0h0.1c0.1,0,0.1,0,0.1,0s0-0.1,0.1-0.1c0,0,0-0.1,0-0.2s0-0.2,0-0.2
					c0-0.1,0-0.1,0.1-0.2C15.8,64.3,15.9,64.3,15.9,64.2l-0.2-0.1L15.3,64L15.9,64.2L15.9,64.2C16,64.2,15.9,64.2,15.9,64.2"/>
				<path class="st4" d="M16.1,64.2L16.1,64.2c0-0.1,0-0.2,0-0.3l0.1,0.1v0.1l0,0h0.1l0.1,0.2h-0.2l-0.1,1L16,65.1l0.1-0.7
					c0,0,0,0,0-0.1C16.1,64.3,16,64.3,16.1,64.2c-0.1,0.1-0.1,0-0.2,0l0,0l-0.1-0.1c0.1,0,0.1,0,0.1,0C16,64.1,16.1,64.1,16.1,64.2"
					/>
				<path class="st4" d="M16.7,64.4L16.7,64.4c0,0.1,0,0.1-0.1,0.1h-0.1l0,0v-0.1C16.6,64.4,16.7,64.3,16.7,64.4
					C16.7,64.3,16.7,64.4,16.7,64.4 M16.9,64.4c0-0.1,0-0.1-0.1-0.2c0-0.1-0.1-0.1-0.2-0.1s-0.1,0-0.2,0.1c0,0.1-0.1,0.1-0.1,0.2
					s0,0.1,0.1,0.2c0,0.1,0.1,0.1,0.2,0.1h0.1c0,0,0.1,0,0.1-0.1C16.9,64.6,16.9,64.5,16.9,64.4 M17,65.3L17,65.3
					c-0.2-0.3-0.3-0.4-0.3-0.5c-0.1-0.1-0.2-0.2-0.3-0.2v0.3c0.2,0.2,0.4,0.2,0.4,0.3L17,65.3"/>
				<path class="st4" d="M17.6,64.8c-0.1-0.1-0.2-0.2-0.3-0.2l0.1-0.1c0,0,0.1-0.1,0.2-0.1L17.6,64.8 M17.9,64.6L17.9,64.6
					c-0.1,0.1-0.1,0.1-0.1,0.1s0,0.1,0.1,0.1H18c0.1,0,0.1,0,0.1-0.1v-0.1c0-0.1-0.1-0.2-0.2-0.3c-0.1-0.1-0.2-0.1-0.2-0.1l0,0
					l0.5-0.1H18l-1.3,0.1l0.2,0.1l0.6-0.1l0,0c-0.2,0.1-0.4,0.2-0.6,0.3l0.2,0.2c0.1,0,0.3,0,0.4,0.1l0.1,0.1c0,0,0,0.1,0.1,0.1
					l0.1,0.1l-0.1-0.8C17.8,64.4,17.9,64.4,17.9,64.6C18,64.5,18,64.5,17.9,64.6C18,64.6,17.9,64.6,17.9,64.6"/>
				<path class="st4" d="M19.5,64.4c-0.1-0.1-0.2-0.1-0.4-0.1c0.1-0.1,0.2-0.2,0.2-0.2L19.5,64.4 M19.6,63.7l-0.2-0.1l-1,0.4
					l0.2,0.1l0.6-0.2l0,0c-0.2,0.1-0.3,0.3-0.5,0.5l0.2,0.1c0.1,0,0.2,0,0.3,0c0.1,0,0.2,0.1,0.3,0.2l0.1,0.1l-0.3-0.9L19.6,63.7"/>
				<path class="st4" d="M19.6,63.6L19.6,63.6c0-0.1-0.1-0.2-0.1-0.2h0.1c0,0,0,0.1,0.1,0.1l0,0h0.1l0.2,0.1l-0.2,0.1l0.4,0.9
					L20,64.4l-0.3-0.6l0,0c0,0,0,0-0.1,0s-0.1,0-0.1,0l0,0h-0.2c0.1,0,0.1-0.1,0.1-0.1C19.5,63.6,19.5,63.6,19.6,63.6"/>
				<path class="st4" d="M20.3,63.4C20.3,63.5,20.3,63.5,20.3,63.4C20.3,63.5,20.3,63.5,20.3,63.4c0,0.1,0,0.2-0.1,0.2l0,0v-0.1
					C20.1,63.5,20.2,63.4,20.3,63.4C20.2,63.4,20.2,63.4,20.3,63.4 M20.4,63.4l-0.1-0.1c-0.1,0-0.1,0-0.2,0S20,63.4,20,63.5
					s0,0.1,0,0.2s0.1,0.1,0.1,0.1c0.1,0,0.1,0,0.2,0h0.1v-0.1C20.4,63.5,20.4,63.5,20.4,63.4 M21,64.1L21,64.1
					c-0.2-0.2-0.4-0.2-0.5-0.2s-0.2,0-0.4,0l0.1,0.2c0.3,0,0.5,0,0.5,0H21"/>
				<path class="st4" d="M21.1,62.7l0.6,0.7h-0.2L21.2,63c0,0,0,0-0.1,0S21,63,21,63l0,0c0,0,0,0,0.1,0.1L21,63.3c0,0,0,0,0-0.1
					h-0.1h-0.1l-0.1,0.1v0.1h0.1l0,0v-0.1c0,0,0-0.1,0.1-0.1c0,0,0.1,0,0.2,0c0,0,0.1,0,0.1,0.1s0,0.1-0.1,0.2
					c-0.1,0.1-0.1,0.1-0.2,0.1s-0.1,0-0.2-0.1c0,0-0.1-0.1-0.1-0.2c0-0.1,0-0.1,0.1-0.2s0.1-0.1,0.2-0.1l0,0c0,0,0,0,0-0.1v-0.1H21
					l0,0l0,0v0l-0.6,0.5h-0.2l0.9-0.7h0.2L21.1,62.7"/>
				<path class="st4" d="M21.3,62.5L21.3,62.5c-0.1-0.1-0.1-0.1-0.2-0.2h0.1h0.1l0,0l0,0h0.2l-0.1,0.2l0.7,0.7h-0.2l-0.5-0.5l0,0
					h-0.1h-0.1l0,0H21l0.1-0.1C21.1,62.5,21.2,62.4,21.3,62.5"/>
				<path class="st4" d="M21.9,62c0,0.1,0,0.2,0.1,0.3l0.1,0.1c0.1,0.1,0.2,0.1,0.3,0l0,0l0,0l0,0l0,0l0,0l0,0h-0.1v-0.1
					c0,0,0,0,0-0.1c0,0,0,0,0.1,0h0.1c0,0,0.1,0.1,0,0.1c0,0,0,0.1-0.1,0.1c-0.1,0.1-0.2,0.1-0.3,0.1c-0.1,0-0.2-0.1-0.3-0.1
					c-0.1-0.1-0.2-0.2-0.2-0.4l-0.2,0.2h-0.2l0.5-0.5h0.2C21.9,61.9,21.9,62,21.9,62"/>
				<path class="st4" d="M22.3,61.8L22.3,61.8v-0.2c0-0.1,0-0.2,0-0.3l0.2-0.1c0.1,0.1,0.1,0.2,0.2,0.3s0.1,0.1,0.2,0.1
					c0,0,0.1,0,0.2,0.1l0,0L23,61.8c-0.2-0.1-0.3-0.1-0.4-0.2l-0.1-0.1c0,0.2,0,0.3,0.1,0.5l-0.2,0.1L22,61.8v0.1L21.8,62l0.6-0.9
					l0.2-0.1l-0.5,0.7L22.3,61.8"/>
				<path class="st4" d="M23,60.6L23,60.6C23.1,60.6,23.1,60.6,23,60.6c0,0.1,0,0.1,0,0.2c0,0.1-0.1,0.1-0.1,0.1c0,0.1,0,0.1,0,0.2
					c0,0.1-0.1,0.1-0.2,0.1l0,0c-0.1,0-0.1-0.1-0.1-0.2c0,0,0,0,0-0.1c0,0,0,0-0.1,0c0,0,0,0-0.1,0.1c0,0,0,0,0,0.1l-0.2,0.1
					l0.1-0.2c0,0,0-0.1,0.1-0.1h0.1c0-0.1,0-0.1,0-0.2l0,0c0,0,0.1-0.1,0.3-0.1l0,0l-0.2-0.1l-0.2-0.1c0.1,0,0.1,0,0.1-0.1
					c0,0,0,0,0.1,0l0,0c0,0,0,0,0.1-0.1l0.2-0.1l-0.1,0.2l0.9,0.4l-0.2,0.1L23,60.4h-0.1c-0.1,0-0.1,0-0.1,0.1v0.1
					c0.1,0,0.1-0.1,0.1-0.1S22.9,60.5,23,60.6C23,60.5,23,60.5,23,60.6"/>
				<path class="st4" d="M23.6,58.6l0.1,0.2H24L23.8,59l0.1,0.3l-0.2-0.1l-0.2,0.1V59l-0.2-0.2h0.3L23.6,58.6"/>
				<path class="st18" d="M16.9,50.2c-4.2,0-7.6,3.4-7.6,7.6s3.4,7.6,7.6,7.6s7.6-3.4,7.6-7.6S21.2,50.2,16.9,50.2z M16.9,65.8
					c-4.4,0-7.9-3.6-7.9-8s3.6-8,7.9-8s8,3.6,8,8S21.3,65.8,16.9,65.8"/>
				<path class="st18" d="M14.2,62.9c0,0-5.1-3.2-1.6-8.4c0,0,1.5-2.1,4.3-2.1c0,0,3.7-0.4,5.4,3.8c0,0,1.5,4.5-2.5,6.7l-0.1-6.1
					c0,0,0.1-0.5-0.5-0.9c0,0,0-1.2-0.8-1.5c0,0-1.1-0.7-1.6-1.7c0,0-0.5,1-1.7,1.8c0,0-0.6,0.1-0.5,1.4c0,0-0.5,0.3-0.4,1.3V62.9"
					/>
				<path class="st4" d="M10.9,57.2c0,0.2,0,0.4,0,0.6c0,0.1,0,0.1,0,0.2c0,0,0,0.1-0.1,0.1s0,0-0.1,0s0,0-0.1,0l0,0
					c0,0,0,0,0.1-0.1v-0.1c0-0.2,0-0.3,0-0.5c-0.1,0-0.2,0-0.3,0.1s-0.1,0.2-0.2,0.3c-0.1,0-0.1,0-0.2,0c0.1-0.2,0.1-0.3,0.3-0.4
					c0.1,0,0.2-0.1,0.4-0.1C10.8,57.2,10.9,57.2,10.9,57.2"/>
				<path class="st4" d="M10.7,58L10.7,58C10.7,58,10.8,58,10.7,58L10.7,58c0.1,0,0.1,0,0.1-0.1v-0.1c0-0.2,0-0.4,0-0.6h-0.1
					c-0.1,0-0.2,0-0.3,0.1s-0.2,0.2-0.2,0.3h0.1c0-0.1,0.1-0.2,0.2-0.3c0.1,0,0.2-0.1,0.3-0.1l0,0l0,0c0,0.2,0,0.3,0,0.5v0.1
					C10.7,58,10.7,58,10.7,58L10.7,58L10.7,58z M10.8,58.1C10.7,58.1,10.7,58.1,10.8,58.1c-0.1,0-0.1,0-0.1,0l0,0V58l0,0l0,0
					c0,0,0,0,0-0.1c0-0.2,0-0.3,0-0.5c-0.1,0-0.2,0-0.2,0.1c-0.1,0.1-0.1,0.2-0.2,0.3l0,0l0,0c-0.1,0-0.1,0-0.2,0l0,0l0,0
					c0.1-0.2,0.1-0.3,0.3-0.4c0.1,0,0.2-0.1,0.4-0.1H11l0,0c0,0.2,0,0.4,0,0.6C10.9,57.9,10.9,58,10.8,58.1L10.8,58.1L10.8,58.1"/>
				<path class="st4" d="M10.2,56.4c0,0,0,0.1,0.1,0.1c0,0.1-0.1,0.1-0.1,0.2l-0.1-0.1C10.2,56.6,10.2,56.5,10.2,56.4z M10.2,56.8
					l0.1,0.1c0,0.1-0.1,0.1-0.1,0.2L10.1,57C10.2,56.9,10.2,56.9,10.2,56.8z M11,56.6c-0.1,0.3-0.1,0.5-0.1,0.8c-0.1,0-0.1,0-0.1,0
					c0-0.3,0.1-0.4,0.1-0.7c-0.1,0-0.1,0-0.2,0c0,0-0.1,0-0.1,0.1c-0.1,0-0.1-0.1-0.1-0.1c0.1-0.1,0.1-0.1,0.1-0.1
					c0.1,0,0.1,0,0.2,0C10.9,56.5,10.9,56.5,11,56.6"/>
				<path class="st4" d="M10.1,56.7C10.2,56.7,10.2,56.7,10.1,56.7c0.1,0,0.1,0,0.1-0.1c0,0,0-0.1-0.1-0.1
					C10.2,56.5,10.2,56.6,10.1,56.7z M10.2,57C10.2,57,10.2,57.1,10.2,57c0.1,0,0.1,0,0.1-0.1c0,0,0,0-0.1-0.1
					C10.2,56.9,10.2,56.9,10.2,57z M10.2,57.2L10.2,57.2c-0.1-0.1-0.1-0.1-0.1-0.1l0,0l0,0c0-0.1,0.1-0.1,0.1-0.2l0,0l-0.1-0.1l0,0
					l0,0c0-0.1,0.1-0.1,0.1-0.2l0,0l0,0c0,0,0,0.1,0.1,0.1l0,0l0,0c0,0.1-0.1,0.1-0.1,0.2l0,0l0.1,0.1l0,0l0,0
					C10.3,57,10.3,57,10.2,57.2L10.2,57.2z M10.8,57.3h0.1c0-0.3,0.1-0.4,0.1-0.7c-0.1,0-0.1,0-0.2,0c-0.1,0-0.2,0-0.2,0
					s-0.1,0-0.1,0.1l0.1,0.1l0.1-0.1c0,0,0.1,0,0.2,0l0,0l0,0C10.8,56.9,10.8,57,10.8,57.3z M10.9,57.3h-0.2l0,0
					c0-0.3,0-0.4,0.1-0.7c-0.1,0-0.1,0-0.1,0s-0.1,0-0.1,0.1l0,0l0,0c-0.1,0-0.1-0.1-0.1-0.1l0,0l0,0c0.1-0.1,0.1-0.1,0.1-0.1
					c0.1,0,0.1,0,0.2,0c0.1,0,0.1,0,0.2,0l0,0l0,0C11,56.9,11,57,10.9,57.3L10.9,57.3"/>
				<path class="st4" d="M11.1,55.7H11h-0.1v0.1v0.1l0.1-0.1C11.1,55.8,11.1,55.7,11.1,55.7L11.1,55.7z M11.3,55.6L11.3,55.6
					c0,0.1-0.1,0.2-0.1,0.3c0,0.1-0.1,0.2-0.1,0.2s0,0.1,0,0.2c0,0.1,0,0.1,0,0.2c0,0.1,0,0.1,0,0.2c-0.1,0-0.1,0-0.1,0
					c0-0.1,0-0.1,0-0.2c0-0.1,0-0.2,0-0.2s0-0.1-0.1-0.2c0-0.1-0.1-0.1-0.1-0.2c0-0.1,0-0.2,0-0.2s0.1-0.1,0.2-0.1
					c0.1,0,0.1,0,0.2,0C11.2,55.5,11.3,55.5,11.3,55.6"/>
				<path class="st4" d="M11.1,55.7C11.1,55.7,11,55.7,11.1,55.7c-0.1,0-0.1,0-0.2,0.1c0,0,0,0,0,0.1l0,0
					C10.9,55.9,10.9,55.9,11.1,55.7C11,55.8,11.1,55.7,11.1,55.7z M10.9,55.9C10.9,55.9,10.9,55.8,10.9,55.9
					c-0.1-0.1-0.1-0.2-0.1-0.2s0.1,0,0.1-0.1H11l0,0l0,0l0,0C11,55.6,10.9,55.7,10.9,55.9C11,55.9,11,55.9,10.9,55.9z M10.9,56.6
					L10.9,56.6c0.1,0,0.1-0.1,0.1-0.2c0-0.1,0-0.2,0-0.2v-0.1V56c0,0,0,0,0.1-0.1l0.1-0.1c0-0.1,0.1-0.1,0.1-0.2v-0.1h-0.1h-0.1l0,0
					c-0.1,0-0.1,0-0.2,0.1c0,0,0,0,0,0.2c0,0.1,0,0.2,0.1,0.2c0,0,0,0.1,0.1,0.2c0,0.1,0,0.1,0,0.2C10.9,56.5,10.9,56.5,10.9,56.6z
					 M11,56.7h-0.2l0,0c0-0.1,0-0.1,0-0.2c0-0.1,0-0.2,0-0.2v-0.1c0-0.1-0.1-0.2-0.1-0.2c0-0.2,0-0.2,0-0.2s0.1-0.1,0.2-0.1l0,0
					c0.1,0,0.1,0,0.2,0l0.1,0.1l0,0v0.1c0,0.1-0.1,0.1-0.1,0.2L11,56.2l-0.1,0.1c0,0,0,0,0,0.1v0.1c0,0,0,0.1,0,0.2
					C11.1,56.5,11.1,56.6,11,56.7L11,56.7"/>
				<path class="st4" d="M11.7,55.1L11.7,55.1c-0.1,0.2-0.1,0.2-0.1,0.3c0,0,0-0.1-0.1-0.1C11.6,55.2,11.6,55.1,11.7,55.1z
					 M11.6,55.3c0,0,0,0.1,0.1,0.1c-0.1,0.1-0.1,0.1-0.1,0.2c0,0,0-0.1-0.1-0.1C11.5,55.4,11.6,55.4,11.6,55.3z M11.5,55
					c-0.1,0.2-0.2,0.4-0.3,0.7c-0.1,0-0.1,0-0.1,0c0.1-0.2,0.1-0.4,0.2-0.6c-0.1,0-0.1,0-0.1,0s-0.1,0-0.1,0.1c0-0.1,0-0.1-0.1-0.2
					c0.1,0,0.1-0.1,0.1-0.1c0.1,0,0.1,0,0.2,0.1C11.4,55,11.5,55,11.5,55"/>
				<path class="st4" d="M11.6,55.2C11.6,55.3,11.6,55.3,11.6,55.2c0.1,0,0.1,0,0.1,0s0,0,0-0.1C11.6,55.2,11.6,55.2,11.6,55.2z
					 M11.5,55.5L11.5,55.5c0.1,0,0.1,0,0.1,0s0,0,0-0.1C11.6,55.4,11.6,55.5,11.5,55.5z M11.5,55.7L11.5,55.7c0-0.1-0.1-0.1-0.1-0.2
					l0,0l0,0l0.1-0.1l0,0c0,0,0-0.1-0.1-0.1l0,0l0,0c0.1-0.1,0.1-0.1,0.1-0.2l0,0l0,0v0.1l0,0l0,0l-0.1,0.1l0,0c0,0,0,0.1,0.1,0.1
					l0,0l0,0C11.6,55.5,11.6,55.6,11.5,55.7L11.5,55.7z M11.2,55.6L11.2,55.6c0.2-0.2,0.2-0.3,0.3-0.6l-0.1-0.1
					c-0.1,0-0.1-0.1-0.2-0.1l0,0h-0.1c0,0,0,0.1,0.1,0.1s0.1,0,0.1-0.1c0,0,0.1,0,0.2,0l0,0l0,0C11.3,55.2,11.3,55.4,11.2,55.6z
					 M11.3,55.7l-0.2-0.1l0,0c0.1-0.2,0.1-0.3,0.2-0.6h-0.1c0,0-0.1,0-0.1,0.1l0,0l0,0c0-0.1,0-0.1-0.1-0.2l0,0l0,0
					c0.1,0,0.1-0.1,0.2-0.1c0.1,0,0.1,0,0.2,0.1l0.2,0.1l0,0C11.4,55.3,11.4,55.4,11.3,55.7L11.3,55.7"/>
				<path class="st4" d="M11.8,54.5c-0.1,0.2-0.2,0.3-0.3,0.5c-0.1,0-0.1,0-0.1-0.1c0.1-0.2,0.1-0.3,0.2-0.4
					c-0.2-0.1-0.4-0.1-0.6-0.2c0,0,0,0-0.1,0.1c0,0-0.1,0-0.1-0.1c0,0,0,0,0-0.1l0,0c0,0,0.1,0,0.1-0.1L11,54c0,0,0,0,0.1,0s0,0,0,0
					l0,0c0.2,0.1,0.4,0.1,0.6,0.2C11.7,54.5,11.7,54.5,11.8,54.5"/>
				<path class="st4" d="M11.4,55L11.4,55c0.2-0.2,0.2-0.3,0.3-0.4l-0.1-0.1c-0.2-0.1-0.4-0.1-0.6-0.2l0,0l0,0l0,0l0,0l0,0l0,0l0,0
					l-0.1,0.1l0,0l0,0l0,0l0,0l0,0c0.2,0.1,0.4,0.1,0.6,0.2l0,0l0,0C11.5,54.8,11.5,54.8,11.4,55z M11.5,55.1L11.4,55l0,0
					c0.1-0.2,0.1-0.2,0.2-0.4c-0.2-0.1-0.4-0.1-0.6-0.2l0,0l0,0l0,0c0,0-0.1,0-0.1-0.1v-0.1l0,0l0,0l0,0c0,0,0,0,0.1,0l0,0
					c0-0.1,0.1-0.1,0.1-0.1s0,0,0.1,0.1c0,0,0,0,0,0.1l0,0l0,0l0,0c0.2,0,0.3,0.1,0.5,0.2l0,0l0.1,0.1l0,0
					C11.7,54.8,11.6,54.9,11.5,55.1L11.5,55.1"/>
				<path class="st4" d="M13,52.2c0,0.1,0,0.1,0,0.2c-0.1,0-0.1,0-0.2,0.1c0-0.1,0-0.1,0-0.2C12.9,52.2,13,52.2,13,52.2z M12.8,52.2
					c0,0.1,0,0.1,0,0.2c-0.1,0-0.1,0-0.2,0.1c0-0.1,0-0.1,0-0.1C12.7,52.2,12.7,52.2,12.8,52.2z M12.8,52.4c0,0.1,0,0.1,0,0.2
					c-0.1,0-0.1,0-0.2,0.1c0-0.1,0-0.1,0-0.2C12.7,52.4,12.8,52.4,12.8,52.4z M13.4,52.8L13.4,52.8c-0.1,0.1-0.1,0.1-0.2,0.1h-0.1
					V53L13,53.1c0,0-0.1,0-0.1,0.1v0.1c0,0.1,0,0.1-0.1,0.2c-0.1,0.1-0.1,0.2-0.2,0.3c-0.1,0.1-0.2,0.2-0.2,0.2c-0.1,0-0.1,0-0.2,0
					l-0.1-0.1c0,0,0-0.1-0.1-0.2c0,0,0-0.1,0-0.2l0,0c0,0.1,0,0.2,0.1,0.2s0,0.1,0.1,0.1c0,0,0.1,0,0.2,0c0.1,0,0.1-0.1,0.2-0.2
					c0.1-0.1,0.2-0.2,0.2-0.3c0.1-0.1,0.1-0.2,0.1-0.3l-0.1-0.1h-0.1c0-0.1,0-0.1,0-0.2c0.1,0,0.1,0,0.1,0l0.1,0.1l0.1-0.1
					c0.1,0,0.1-0.1,0.1-0.1v-0.1l0,0l0,0c0,0,0,0,0-0.1c0,0,0,0,0.1,0.1l0.1,0.1h0.1l0,0l0,0c0,0,0,0-0.1-0.1h-0.1v-0.1
					c0.1,0,0.1,0,0.1,0l0.1,0.1C13.4,52.7,13.4,52.7,13.4,52.8"/>
				<path class="st4" d="M12.6,52.3C12.6,52.3,12.6,52.4,12.6,52.3c0,0.1,0.1,0,0.1,0v-0.1C12.7,52.3,12.7,52.3,12.6,52.3z
					 M12.5,52.5L12.5,52.5c0-0.1,0-0.1,0-0.2l0,0l0,0c0.1,0,0.1-0.1,0.2-0.1l0,0l0,0c0,0.1,0,0.1,0,0.1l0,0l0,0
					C12.7,52.4,12.7,52.4,12.5,52.5L12.5,52.5z M12.9,52.2C12.9,52.3,12.9,52.3,12.9,52.2c0,0.1,0.1,0.1,0.1,0v-0.1
					C13,52.2,12.9,52.2,12.9,52.2z M12.7,52.5L12.7,52.5c0,0.1,0.1,0.1,0.1,0v-0.1L12.7,52.5z M12.6,52.7L12.6,52.7
					c0-0.1,0-0.1,0-0.2l0,0l0,0c0.1,0,0.1,0,0.1-0.1l0,0c0-0.1,0-0.1,0-0.2l0,0l0,0c0.1,0,0.1,0,0.2-0.1l0,0l0,0c0,0.1,0,0.1,0,0.2
					l0,0l0,0c-0.1,0-0.1,0-0.1,0l0,0c0,0.1,0,0.1,0,0.2l0,0l0,0C12.7,52.6,12.7,52.6,12.6,52.7L12.6,52.7z M12.1,53.8L12.1,53.8
					c0,0.1,0,0.1,0.1,0.2s0,0.1,0.1,0.1s0.1,0,0.2,0c0.1,0,0.1-0.1,0.2-0.2c0.1-0.1,0.2-0.2,0.2-0.3s0.1-0.2,0.1-0.2v-0.1l0,0l0,0
					l0.1-0.1c0.1,0,0.1-0.1,0.1-0.1l0,0c0,0,0,0,0-0.1c0,0,0,0,0.1,0c0,0,0,0,0.1,0h0.1c0,0,0,0,0.1,0c0-0.1-0.1-0.1-0.1-0.2
					c0-0.1-0.1-0.1-0.1-0.1s0,0-0.1,0c0,0,0,0,0,0.1h0.1c0,0,0.1,0,0.1,0.1l0,0l0,0c-0.1,0-0.1,0-0.1,0s-0.1,0-0.1-0.1l0,0l0,0l0,0
					l0,0v0.1L13.2,53l-0.1,0.1l0,0l0,0C13.1,53,13,53,13,53h-0.1c0,0.1,0,0.1,0,0.2H13c0.1,0,0.1,0.1,0.1,0.1c0.1,0.1,0,0.2-0.1,0.3
					s-0.1,0.2-0.2,0.3c-0.1,0.1-0.2,0.2-0.2,0.2c-0.1,0-0.1,0-0.2,0C12.2,53.9,12.2,53.9,12.1,53.8L12.1,53.8z M12.3,54.1h-0.1
					c0,0,0-0.1-0.1-0.1c0,0,0-0.1-0.1-0.2c0,0,0-0.1,0-0.2l0,0l0.1-0.1l0,0c0,0.1,0,0.2,0.1,0.2c0,0,0,0.1,0.1,0.1h0.1
					c0.1,0,0.1-0.1,0.2-0.2c0.1-0.1,0.2-0.2,0.2-0.3c0.1-0.1,0.1-0.2,0.1-0.2L12.8,53h-0.1l0,0l0,0c0-0.1,0-0.1,0-0.2l0,0l0,0
					c0.1,0,0.1,0,0.1,0l0.1,0.1c0,0,0.1,0,0.1-0.1c0.1,0,0.1-0.1,0.1-0.1s0,0,0-0.1l0,0l0,0l0,0l0,0c0,0,0,0,0-0.1l0,0l0,0
					c0,0,0,0,0.1,0.1h0.1h0.1l0,0l0,0c0,0,0,0-0.1,0h-0.1l0,0l0,0v-0.1l0,0l0,0c0.1,0,0.1,0,0.1,0l0.1,0.1c0,0.1,0.1,0.1,0.1,0.2
					l0,0l0,0c0,0,0,0-0.1,0c0,0-0.1,0-0.1,0.1c0,0,0,0-0.1,0l0,0l0,0l0,0L13.1,53c0,0-0.1,0-0.1,0.1v0.1c0,0.1,0,0.2-0.1,0.2
					c-0.1,0.1-0.1,0.2-0.2,0.3c-0.1,0.1-0.2,0.2-0.2,0.2C12.4,54.1,12.4,54.1,12.3,54.1"/>
				<path class="st4" d="M14,52.6C14,52.7,14,52.7,14,52.6c-0.1,0.1-0.1,0.1-0.2,0.1v-0.1C13.9,52.6,13.9,52.6,14,52.6z M13.8,52.8
					L13.8,52.8c-0.1,0.1-0.1,0.1-0.2,0.1v-0.1C13.7,52.8,13.7,52.8,13.8,52.8z M13.9,52.5c-0.2,0.1-0.3,0.2-0.5,0.3
					c0,0,0-0.1-0.1-0.1c0.2-0.1,0.3-0.2,0.5-0.3c0-0.1-0.1-0.1-0.1-0.1h-0.1c0-0.1,0-0.1,0-0.2c0.1,0,0.1,0,0.1,0.1
					c0,0,0.1,0.1,0.1,0.2C13.9,52.4,13.9,52.4,13.9,52.5"/>
				<path class="st4" d="M13.4,52.7L13.4,52.7c0.2,0,0.3-0.1,0.5-0.2c0-0.1,0-0.1-0.1-0.2c0-0.1-0.1-0.2-0.1-0.2s0,0-0.1,0v0.1
					c0.1,0,0.1,0,0.1,0l0.1,0.1l0,0l0,0C13.6,52.5,13.5,52.6,13.4,52.7z M13.4,52.8L13.4,52.8c0-0.1-0.1-0.1-0.1-0.1l0,0l0,0
					c0.2-0.1,0.3-0.2,0.4-0.3c0,0,0-0.1-0.1-0.1c0,0,0,0-0.1,0l0,0l0,0c0-0.1,0-0.1,0-0.2l0,0l0,0c0.1,0,0.1,0,0.1,0.1
					c0,0,0.1,0.1,0.1,0.2c0,0.1,0.1,0.1,0.1,0.2l0,0l0,0C13.7,52.6,13.6,52.7,13.4,52.8L13.4,52.8z M13.8,52.7L13.8,52.7
					c0,0.1,0.1,0.1,0.1,0.1s0,0,0-0.1C13.9,52.7,13.8,52.7,13.8,52.7z M13.6,52.8C13.6,52.9,13.6,52.9,13.6,52.8
					C13.7,52.9,13.7,52.9,13.6,52.8c0.1,0,0.1,0,0.1,0C13.7,52.8,13.7,52.8,13.6,52.8z M13.6,53L13.6,53c0-0.1,0-0.1,0-0.2l0,0l0,0
					c0.1,0,0.1,0,0.1,0l0,0v-0.1l0,0l0,0c0.1,0,0.1,0,0.2,0l0,0l0,0c0,0.1,0,0.1,0,0.1l0,0l0,0c-0.1,0-0.1,0-0.1,0l0,0v0.1l0,0l0,0
					C13.7,53,13.7,53,13.6,53L13.6,53"/>
				<path class="st4" d="M14.6,52.2c-0.2,0.1-0.3,0.1-0.4,0.2h-0.1H14c0,0,0,0,0-0.1s0,0,0-0.1l0,0c0,0,0,0,0.1,0s0,0,0.1,0
					c0.1-0.1,0.2-0.1,0.4-0.2c0-0.1-0.1-0.2-0.1-0.2c-0.1-0.1-0.1-0.1-0.3,0c0-0.1,0-0.1,0-0.2c0.1,0,0.2,0,0.3,0.1s0.1,0.2,0.2,0.3
					C14.5,52.1,14.5,52.1,14.6,52.2"/>
				<path class="st4" d="M14,52.2C14,52.3,14,52.3,14,52.2C14,52.3,14,52.3,14,52.2C14,52.3,14,52.3,14,52.2L14,52.2
					c0.1,0.1,0.1,0.1,0.2,0.1c0.2-0.1,0.2-0.1,0.4-0.2V52c0-0.1-0.1-0.2-0.1-0.3c-0.1-0.1-0.2-0.1-0.3-0.1v0.1c0.1,0,0.2,0,0.3,0.1
					c0.1,0,0.1,0.1,0.1,0.2l0,0l0,0c-0.2,0.1-0.2,0.1-0.4,0.2C14,52.2,14,52.2,14,52.2C14,52.3,14,52.3,14,52.2z M14,52.4L14,52.4
					c-0.1,0-0.1,0-0.1,0s0,0,0-0.1s0,0,0-0.1l0,0H14l0,0h0.1c0.1-0.1,0.2-0.1,0.4-0.2c0-0.1-0.1-0.1-0.1-0.2c-0.1,0-0.1-0.1-0.2,0
					l0,0l0,0c0-0.1,0-0.1,0-0.2l0,0l0,0c0.1,0,0.3,0,0.3,0.1c0.1,0.1,0.1,0.2,0.2,0.3c0,0.1,0,0.1,0,0.1l0,0l0,0
					C14.4,52.2,14.3,52.3,14,52.4C14.1,52.4,14.1,52.4,14,52.4"/>
				<path class="st4" d="M15.3,51.5L15.3,51.5L15.3,51.5c0,0.1-0.1-0.1-0.2-0.1c-0.1,0-0.2-0.1-0.2,0l0,0l0,0h-0.1
					c-0.1,0-0.1,0-0.1,0c-0.1,0-0.1,0-0.1-0.1c0,0,0,0,0-0.1c0.1,0,0.1,0,0.3,0c0.1,0,0.3,0,0.4,0.1C15.2,51.3,15.3,51.4,15.3,51.5z
					 M15.8,51.8L15.8,51.8c-0.1,0-0.2,0-0.2,0c-0.1,0-0.1-0.1-0.1-0.3l0,0l0,0l-0.1,0.3c-0.1,0.1-0.1,0.1-0.2,0.2
					c-0.1,0-0.2,0.1-0.5,0.2l0,0c0.2-0.1,0.3-0.2,0.4-0.3c0.1-0.1,0.2-0.2,0.3-0.3s0.1-0.2,0.1-0.3v-0.1c0,0,0-0.1-0.1-0.1
					c0,0,0,0,0-0.1v-0.1c0,0,0.1,0.1,0.1,0.2c0,0.1,0,0.1,0.1,0.2c0,0.1,0.1,0.2,0.1,0.2c0,0.1,0.1,0.1,0.1,0.1s0,0,0.1,0
					c0,0,0,0,0.1,0C15.8,51.7,15.8,51.7,15.8,51.8"/>
				<path class="st4" d="M14.9,51.3c0.1,0,0.1,0,0.2,0.1c0.1,0,0.1,0.1,0.2,0.1l0,0l0,0c0-0.1-0.1-0.2-0.2-0.2
					c-0.1,0-0.2-0.1-0.4-0.1c-0.1,0-0.2,0-0.3,0l0,0c0,0,0,0,0.1,0.1h0.1h0.1C14.7,51.3,14.8,51.3,14.9,51.3
					C14.8,51.3,14.8,51.3,14.9,51.3C14.8,51.3,14.8,51.3,14.9,51.3z M15.3,51.5L15.3,51.5c-0.1-0.1-0.2-0.1-0.2-0.2
					c-0.1,0-0.2-0.1-0.2,0l0,0c0,0,0,0-0.1,0h-0.1c-0.1,0-0.1,0-0.2,0c-0.1,0-0.1-0.1-0.1-0.1s0-0.1,0.1-0.1s0.2,0,0.3,0
					s0.3,0,0.4,0.1C15.2,51.3,15.3,51.4,15.3,51.5L15.3,51.5L15.3,51.5L15.3,51.5L15.3,51.5z M15.3,51c0,0,0,0.1,0.1,0.1
					s0,0.1,0,0.1c0,0.1,0,0.2-0.1,0.3s-0.2,0.2-0.3,0.3c-0.1,0-0.1,0.1-0.2,0.1c0,0,0,0-0.1,0c0,0,0,0,0.1,0s0.2-0.1,0.3-0.1
					s0.2-0.1,0.2-0.2c0,0,0.1-0.2,0.1-0.3s0-0.1,0.1-0.1l0,0l0,0l0,0l0,0c0,0.1,0.1,0.2,0.1,0.2h0.1c0,0,0,0,0.1,0v-0.1
					c0,0,0,0-0.1,0h-0.1c0,0-0.1-0.1-0.1-0.2c0,0,0-0.1-0.1-0.2l0,0c0-0.1,0-0.1-0.1-0.2C15.4,51.1,15.4,51,15.3,51L15.3,51L15.3,51
					z M14.6,52.2L14.6,52.2L14.6,52.2c0.1-0.1,0.1-0.2,0.2-0.2c0.1-0.1,0.1-0.1,0.2-0.1c0.1-0.1,0.2-0.2,0.3-0.3s0.1-0.2,0.1-0.3
					v-0.1c0,0,0-0.1-0.1-0.1l0,0l0,0c0,0,0,0,0-0.1s0-0.1,0.1-0.1c0,0,0,0,0.1,0.2c0,0,0,0.1,0.1,0.2l0,0c0,0.1,0,0.1,0.1,0.2
					c0,0.1,0.1,0.1,0.1,0.1l0,0h0.1l0,0l0,0c0,0.1,0,0.1,0,0.1l0,0l0,0c0,0,0,0-0.1,0s-0.1,0-0.2,0c-0.1,0-0.1-0.1-0.1-0.3
					c0,0.1-0.1,0.2-0.1,0.3c-0.1,0.1-0.1,0.2-0.2,0.2c-0.1,0-0.2,0.1-0.3,0.1C14.7,52.1,14.7,52.1,14.6,52.2L14.6,52.2"/>
				<path class="st4" d="M16.3,51c0,0,0,0.1-0.1,0.1s-0.1,0-0.2,0l0.1-0.1C16.1,50.9,16.2,51,16.3,51z M16.7,51.7
					c-0.1,0-0.1,0-0.2,0h-0.1c-0.1,0-0.1-0.1-0.1-0.1s-0.1,0.1-0.2,0.1s-0.2,0.1-0.2,0.1h-0.1c0-0.1,0-0.1,0-0.1h0.1
					c0.1,0,0.1,0,0.2,0c0.1,0,0.1,0,0.2-0.1l0,0c0,0,0,0-0.1,0l0,0l0,0l0,0l0,0c0-0.1,0-0.1,0.1-0.1s0.1,0,0.2-0.1
					c0.1,0,0.2,0,0.2,0c0.1,0,0.1,0,0.1,0.1c0,0,0,0,0,0.1L16.7,51.7c0,0,0,0,0.1,0h0.1c0.1,0,0.1,0,0.2,0
					C16.7,51.6,16.7,51.6,16.7,51.7"/>
				<path class="st4" d="M16,51h0.1c0,0,0,0,0-0.1C16.2,51,16.1,50.9,16,51C16.1,51,16,51,16,51z M16.2,51.1L16.2,51.1
					c-0.1,0-0.1,0-0.2,0l0,0l0,0c0,0,0-0.1,0.1-0.1l0,0l0,0c0.1,0,0.1,0,0.2,0l0,0l0,0C16.3,51,16.2,51.1,16.2,51.1L16.2,51.1z
					 M15.7,51.7L15.7,51.7C15.8,51.8,15.8,51.8,15.7,51.7c0.2,0.1,0.3,0,0.3,0s0.1,0,0.1-0.1h0.1l0,0h0.1h0.1c0.1,0,0.1,0,0.1,0
					v-0.1h-0.1c0,0,0,0-0.1,0h-0.1c0,0,0,0,0.1-0.1l0,0c0,0,0,0,0-0.1c0,0,0,0-0.1-0.1c0,0-0.1,0-0.2,0s-0.2,0-0.2,0s-0.1,0.1,0,0.1
					l0,0l0,0l0,0h0.1l0.1,0.1l0,0c-0.1,0-0.1,0.1-0.2,0.1C15.9,51.6,15.9,51.7,15.7,51.7C15.8,51.7,15.8,51.7,15.7,51.7z M15.7,51.8
					L15.7,51.8c0-0.1,0-0.1,0-0.2l0,0l0,0h0.1c0.1,0,0.1,0,0.2,0c0.1,0,0.1,0,0.1-0.1l0,0c0,0,0,0-0.1,0l0,0l0,0l0,0h-0.1v-0.1
					c0-0.1,0-0.1,0.1-0.2c0,0,0.1,0,0.2-0.1c0.1,0,0.2,0,0.2,0c0.1,0,0.1,0.1,0.1,0.1v0.1l0,0l0,0l0,0h0.1c0.1,0,0.1,0,0.2,0l0,0
					l0,0c0,0.1,0,0.1,0,0.1l0,0l0,0c-0.1,0-0.1,0-0.2,0h-0.1c0,0-0.1,0-0.1-0.1l0,0l0,0c0,0-0.1,0-0.1,0.1c-0.1,0-0.2,0.1-0.3,0.1
					C15.8,51.8,15.8,51.8,15.7,51.8L15.7,51.8"/>
				<path class="st4" d="M17.2,50.9L17.1,51c-0.1,0-0.1,0-0.2,0l0.1-0.1C17.1,50.9,17.1,50.9,17.2,50.9z M17.2,51.7
					c-0.2,0-0.4,0-0.6,0c0-0.1,0-0.1,0-0.1c0.2,0,0.3,0,0.5,0c0-0.1,0-0.1,0-0.2c0,0,0-0.1-0.1-0.1l0.1-0.1l0.1,0.1c0,0,0,0.1,0,0.2
					C17.2,51.6,17.2,51.6,17.2,51.7"/>
				<path class="st4" d="M16.9,51H17c0,0,0,0,0.1-0.1C17.1,50.9,17,50.9,16.9,51C17,50.9,16.9,51,16.9,51z M17.1,51.1L17.1,51.1
					c-0.1,0-0.1,0-0.2-0.1l0,0l0,0l0.1-0.1l0,0l0,0c0.1,0,0.1,0,0.2,0.1l0,0l0,0C17.2,51,17.1,51,17.1,51.1L17.1,51.1z M16.6,51.6
					L16.6,51.6c0.1,0.1,0.2,0.1,0.3,0.1c0.1,0,0.1,0,0.2,0c0-0.1,0-0.1,0-0.2c0-0.1,0-0.2,0-0.2s0,0-0.1-0.1c0,0,0,0.1-0.1,0.1
					l0.1,0.1c0,0,0,0.1,0,0.2l0,0l0,0C16.9,51.6,16.8,51.6,16.6,51.6z M16.6,51.7L16.6,51.7c0-0.1,0-0.1,0-0.2l0,0l0,0
					c0.2,0,0.3,0,0.5,0v-0.1c0,0,0,0-0.1-0.1l0,0l0,0l0.1-0.1l0,0l0,0l0.1,0.1c0,0,0,0.1,0,0.2c0,0.1,0,0.1,0,0.2l0,0l0,0
					c-0.1,0-0.2,0-0.2,0C16.9,51.7,16.8,51.7,16.6,51.7L16.6,51.7"/>
				<path class="st4" d="M17.6,51.9C17.6,51.9,17.5,51.9,17.6,51.9c-0.1,0.1-0.2,0-0.2,0s0-0.1,0.1-0.1
					C17.5,51.8,17.5,51.9,17.6,51.9z M17.7,51.7c-0.2,0-0.4,0-0.6,0v-0.1c0.2,0,0.3,0,0.5,0c0-0.1,0-0.1,0-0.2c0,0,0-0.1-0.1-0.1
					l0.1-0.1l0.1,0.1c0,0,0,0.1,0,0.2C17.8,51.6,17.7,51.7,17.7,51.7"/>
				<path class="st4" d="M17.2,51.7c0.2,0,0.3,0,0.6,0c0-0.1,0-0.1,0-0.2c0-0.1,0-0.2,0-0.2s0,0-0.1-0.1c0,0,0,0-0.1,0.1l0.1,0.1
					c0,0,0,0.1,0,0.2l0,0l0,0C17.5,51.6,17.4,51.6,17.2,51.7C17.2,51.6,17.2,51.6,17.2,51.7z M17.8,51.8L17.8,51.8
					c-0.3,0-0.4,0-0.6,0l0,0l0,0v-0.1l0,0l0,0c0.2,0,0.3,0,0.5,0v-0.1c0,0,0,0-0.1-0.1l0,0l0,0l0.1-0.1l0,0l0,0
					c0,0.1,0.1,0.1,0.1,0.1S17.8,51.6,17.8,51.8C17.8,51.6,17.8,51.7,17.8,51.8L17.8,51.8z M17.4,51.9h0.1c0,0,0,0,0.1,0
					C17.5,51.9,17.5,51.9,17.4,51.9L17.4,51.9z M17.5,52L17.5,52c-0.1,0-0.1,0-0.2-0.1l0,0l0,0c0,0,0-0.1,0.1-0.1l0,0l0,0
					c0.1,0,0.1,0,0.2,0.1l0,0l0,0C17.6,52,17.6,52,17.5,52L17.5,52"/>
				<path class="st4" d="M19.4,51.6l-0.1,0.1c0,0-0.1,0-0.2,0c0,0-0.1,0-0.1-0.1c0,0-0.1,0-0.1-0.1l0,0c0,0,0,0,0.1,0s0.1,0,0.1,0
					c0.1,0,0.2,0,0.2,0L19.4,51.6L19.4,51.6L19.4,51.6L19.4,51.6c0-0.1,0-0.1-0.1-0.1l0,0l0,0l0.1-0.1c0.1,0,0.2,0,0.2,0
					s0,0-0.1,0.1C19.4,51.5,19.4,51.5,19.4,51.6l-0.1-0.1l0,0l0,0l0,0C19.3,51.5,19.2,51.5,19.4,51.6C19.3,51.5,19.3,51.5,19.4,51.6
					C19.4,51.5,19.4,51.6,19.4,51.6z M19.5,52.2c-0.3-0.1-0.4-0.2-0.7-0.3c-0.2,0-0.3-0.1-0.3-0.1c-0.1,0-0.1-0.1-0.1-0.2
					c0,0,0-0.1,0.1-0.2c0,0,0,0,0.1-0.1l0,0l-0.1,0.1c0,0,0,0,0,0.1s0,0.1,0.1,0.2c0.1,0,0.1,0.1,0.3,0.1c0.3,0.1,0.4,0.1,0.6,0.2
					c0.1-0.3,0.1-0.4,0.1-0.7l0,0c0,0,0,0,0-0.1c0,0,0,0,0.1,0l0,0c0,0,0,0,0.1,0.1c0,0,0.1,0,0.1,0.1c0,0,0,0,0,0.1s0,0,0,0l0,0
					c0,0.2-0.1,0.4-0.1,0.6C19.6,52.1,19.6,52.1,19.5,52.2"/>
				<path class="st4" d="M19.2,51.3h0.1l0,0C19.3,51.3,19.3,51.3,19.2,51.3L19.2,51.3L19.2,51.3z M18.9,51.6
					C19,51.6,19,51.6,18.9,51.6c0.2,0.1,0.2,0.1,0.3,0c0.1,0,0.1,0,0.1-0.1c0,0,0,0,0-0.1c0,0,0,0-0.1,0c0,0,0,0-0.1,0l0,0l0,0l0,0
					l0,0C19.1,51.4,19,51.4,18.9,51.6L18.9,51.6L18.9,51.6c0.1-0.1,0.1-0.1,0.2-0.1l0,0l0,0c0,0,0,0,0,0.1H18.9L18.9,51.6
					C19.1,51.7,19,51.6,18.9,51.6z M19.2,51.7c0,0-0.1,0-0.2,0c0,0-0.1,0-0.1-0.1c0,0-0.1,0-0.1-0.1l0,0h0.1l0,0c0,0,0,0,0.1,0l0,0
					h0.1c0.1,0,0.1,0,0.2,0l0,0c0.1,0,0.1,0,0.1,0l0,0l0,0l0,0c0,0,0,0-0.1,0c0,0,0,0-0.1,0s0,0,0-0.1c0,0,0.1-0.1,0.2-0.1
					s0.2,0,0.3,0l0,0l0,0c0,0,0,0-0.1,0.1l0,0l0,0h-0.1h-0.1l0,0l0,0c0,0,0,0,0.1,0c0,0,0.1,0,0.1,0.1s0,0.1,0,0.1
					C19.4,51.7,19.3,51.7,19.2,51.7L19.2,51.7z M18.5,51.5L18.5,51.5c-0.1,0.1-0.1,0.1-0.1,0.2c0,0.1,0,0.1,0.1,0.2s0.2,0.1,0.3,0.1
					c0.3,0.1,0.5,0.1,0.7,0.2l0.1-0.1V52c0-0.2,0.1-0.3,0.1-0.5l0,0l0,0l0,0l0,0l0,0c0,0,0,0-0.1-0.1c0,0-0.1,0-0.1-0.1l0,0l0,0l0,0
					l0,0l0,0c0,0.2-0.1,0.3-0.1,0.6V52l0,0c-0.3-0.1-0.4-0.2-0.6-0.2c-0.1,0-0.2-0.1-0.3-0.1C18.5,51.7,18.4,51.6,18.5,51.5
					L18.5,51.5L18.5,51.5z M19.5,52.2L19.5,52.2c-0.3-0.1-0.5-0.2-0.8-0.3c-0.2,0-0.3-0.1-0.4-0.1c-0.1-0.1-0.1-0.1-0.1-0.2
					c0,0,0-0.1,0.1-0.2c0,0,0,0,0.1-0.1l0,0h0.1l0,0l-0.1,0.1l0,0c0,0,0,0.1,0.1,0.1c0,0,0.1,0.1,0.2,0.1c0.3,0.1,0.4,0.1,0.6,0.2
					v-0.1c0-0.2,0.1-0.3,0.1-0.5l0,0l0,0l0,0v-0.1c0,0,0,0,0.1,0l0,0l0,0l0,0l0,0c0,0,0.1,0,0.1,0.1l0,0l0,0c0,0,0,0,0,0.1
					s0,0-0.1,0l0,0l0,0l0,0c0,0.2-0.1,0.3-0.1,0.5v0.1L19.5,52.2"/>
				<path class="st4" d="M20.3,51.7c0,0-0.1,0-0.1,0.1c0-0.1-0.1-0.1-0.1-0.1s0.1,0,0.1-0.1C20.2,51.6,20.2,51.7,20.3,51.7z
					 M20,52.4c-0.2-0.1-0.3-0.2-0.5-0.3c0,0,0-0.1,0.1-0.1c0.2,0.1,0.3,0.1,0.5,0.2c0-0.1,0-0.1,0-0.1V52c0.1,0,0.1,0,0.1-0.1
					c0,0.1,0,0.1,0,0.2c0,0,0,0.1-0.1,0.2C20.1,52.3,20,52.3,20,52.4"/>
				<path class="st4" d="M20.1,51.7l0.1,0.1c0,0,0,0,0.1,0C20.2,51.7,20.2,51.7,20.1,51.7C20.1,51.6,20.1,51.6,20.1,51.7z
					 M20.2,51.8L20.2,51.8c-0.1-0.1-0.1-0.1-0.1-0.1l0,0l0,0c0,0,0.1,0,0.1-0.1l0,0l0,0c0.1,0,0.1,0.1,0.1,0.1l0,0l0,0
					C20.2,51.8,20.2,51.8,20.2,51.8L20.2,51.8z M19.5,52.1c0.2,0.1,0.3,0.1,0.5,0.2c0,0,0-0.1,0.1-0.2c0-0.1,0.1-0.1,0.1-0.2
					c0,0,0,0,0-0.1h-0.1c0,0.1,0,0.1,0,0.1s0,0.1,0,0.2l0,0l0,0C19.8,52.2,19.7,52.1,19.5,52.1L19.5,52.1z M20,52.5L20,52.5
					c-0.2-0.1-0.3-0.2-0.6-0.3l0,0l0.1-0.2l0,0c0.2,0.1,0.3,0.1,0.5,0.2v-0.1c0,0,0,0,0-0.1l0,0l0,0c0.1,0,0.1,0,0.1-0.1l0,0l0,0
					c0,0.1,0,0.1,0,0.2c0,0,0,0.1-0.1,0.2C20.1,52.3,20.1,52.4,20,52.5L20,52.5"/>
				<path class="st4" d="M20.3,52.8h-0.1l-0.1-0.1h0.1C20.2,52.7,20.2,52.7,20.3,52.8z M20.5,52.7c-0.2-0.1-0.3-0.2-0.5-0.3
					c0,0,0-0.1,0.1-0.1c0.2,0.1,0.3,0.2,0.5,0.3v-0.1v-0.1c0.1,0,0.1,0,0.1-0.1c0,0.1,0,0.1,0,0.2c0,0,0,0.1-0.1,0.2
					C20.5,52.6,20.5,52.6,20.5,52.7"/>
				<path class="st4" d="M20,52.4c0.2,0.1,0.3,0.2,0.5,0.3l0.1-0.1c0-0.1,0.1-0.1,0.1-0.2c0,0,0,0,0-0.1h-0.1c0,0.1,0,0.1,0,0.1
					s0,0.1-0.1,0.2l0,0l0,0C20.3,52.4,20.2,52.4,20,52.4L20,52.4z M20.5,52.7L20.5,52.7c-0.2-0.1-0.3-0.2-0.5-0.3l0,0l0.1-0.2l0,0
					c0.2,0.1,0.3,0.2,0.5,0.3v-0.1c0,0,0,0,0-0.1l0,0l0,0c0.1,0,0.1,0,0.1-0.1l0,0l0,0c0,0.1,0,0.1,0,0.2c0,0,0,0.1-0.1,0.2
					C20.5,52.6,20.5,52.6,20.5,52.7L20.5,52.7z M20.1,52.7C20.1,52.7,20.1,52.8,20.1,52.7c0.1,0.1,0.1,0.1,0.1,0.1
					C20.2,52.7,20.2,52.7,20.1,52.7L20.1,52.7z M20.2,52.8L20.2,52.8c-0.1-0.1-0.1-0.1-0.1-0.1l0,0l0,0L20.2,52.8L20.2,52.8
					L20.2,52.8c0,0,0.1,0,0.1,0l0,0l0,0C20.2,52.8,20.2,52.8,20.2,52.8L20.2,52.8"/>
				<path class="st4" d="M21.8,54c0-0.1-0.1-0.1-0.1-0.2c-0.1-0.1-0.1-0.2-0.2-0.2c0,0-0.1-0.1-0.1,0c0,0,0,0,0,0.1c0,0,0,0,0,0.1
					c0,0,0,0,0.1,0.1c0,0,0,0,0,0.1l0,0c-0.1,0.1-0.1,0.1-0.2,0c-0.1,0-0.2-0.2-0.4-0.3c-0.1-0.1-0.2-0.2-0.2-0.3s-0.1-0.2,0-0.2
					c0,0,0.1-0.1,0.2-0.1c0,0,0.1,0,0.2,0l0,0H21c-0.1,0-0.1,0-0.1,0.1c0,0,0,0.1,0,0.2c0,0.1,0.1,0.2,0.2,0.3s0.1,0.1,0.2,0.2
					c0.1,0.1,0.1,0.1,0.1,0.1l0,0l0,0c0,0,0,0-0.1-0.1c0,0,0,0,0-0.1c0,0,0-0.1-0.1-0.1s0,0,0,0s0.1-0.1,0.2,0c0,0,0.1,0,0.2,0.1
					l0.1,0.1C21.8,53.8,21.9,53.8,21.8,54C21.9,53.9,21.9,53.9,21.8,54"/>
				<path class="st4" d="M21.1,53.1C21,53.1,21,53.1,21.1,53.1c-0.1,0-0.2,0.1-0.2,0.1s0,0.1,0,0.2c0,0.1,0.1,0.2,0.2,0.3
					c0.2,0.2,0.3,0.3,0.4,0.3s0.1,0,0.2,0l0,0c0,0,0,0,0-0.1l-0.1-0.1l0,0c0,0-0.1-0.1,0-0.1l0,0c0,0,0,0,0.1,0.1
					c0,0,0.1,0.1,0.2,0.2c0,0.1,0.1,0.1,0.1,0.1s0,0,0.1,0L22,54l-0.1-0.1c-0.1,0-0.1-0.1-0.2-0.1s-0.1,0-0.1,0l0,0c0,0,0,0,0.1,0.1
					c0,0,0,0,0.1,0.1c0,0,0,0,0,0.1l0,0l0,0l0,0l0,0c0,0-0.1,0-0.1-0.1c0,0-0.1-0.1-0.2-0.2c-0.1-0.1-0.2-0.2-0.2-0.3
					c-0.1-0.1-0.1-0.2,0-0.2C21,53.1,21,53.1,21.1,53.1z M21.8,54L21.8,54c-0.1-0.1-0.1-0.1-0.1-0.2c-0.1-0.1-0.1-0.1-0.2-0.2l0,0
					c0,0,0,0,0.1,0.1c0,0,0,0,0,0.1v0.1c-0.1,0.1-0.1,0.1-0.2,0s-0.2-0.1-0.4-0.3c-0.1-0.1-0.2-0.2-0.2-0.3c-0.1-0.1-0.1-0.2,0-0.2
					c0,0,0.1-0.1,0.2-0.1c0,0,0.1,0,0.2,0l0,0v0.1h-0.1H21c-0.1,0-0.1,0-0.1,0.1c0,0,0,0.1,0,0.2c0,0.1,0.1,0.2,0.2,0.3
					s0.1,0.1,0.2,0.2l0.1,0.1l0,0l0,0l0,0c0,0,0,0,0-0.1l-0.1-0.1v-0.1c0,0,0.1-0.1,0.2-0.1s0.1,0,0.2,0.1l0.1,0.1
					c0,0.1,0.1,0.1,0.1,0.2l0,0l0,0C21.9,53.9,21.9,54,21.8,54L21.8,54"/>
				<path class="st4" d="M22.4,54.5L22.4,54.5c0.1-0.1,0.1-0.2,0.1-0.2s0,0-0.1-0.1h-0.1v0.1C22.3,54.5,22.4,54.5,22.4,54.5
					L22.4,54.5z M22.3,54.7c0,0,0-0.1-0.1-0.1s0-0.1-0.1-0.2c0-0.1,0-0.2,0-0.2s-0.1,0-0.1-0.1c0,0-0.1-0.1-0.1-0.2
					c0-0.1-0.1-0.1-0.1-0.1s0.1,0,0.1-0.1c0,0.1,0.1,0.1,0.1,0.1c0,0.1,0.1,0.1,0.1,0.1h0.1c0.1,0,0.1,0,0.2,0.1
					c0.1,0,0.1,0.1,0.1,0.1s0,0.1-0.1,0.2c0,0.1-0.1,0.1-0.1,0.1C22.4,54.7,22.4,54.7,22.3,54.7"/>
				<path class="st4" d="M22.3,54.3C22.3,54.3,22.3,54.4,22.3,54.3c0,0.1,0,0.2,0.1,0.2c0,0,0,0,0-0.1v-0.1
					C22.4,54.3,22.4,54.3,22.3,54.3C22.4,54.3,22.3,54.3,22.3,54.3z M22.4,54.6L22.4,54.6L22.4,54.6c-0.1-0.1-0.1-0.1-0.1-0.2
					c0-0.1,0-0.2,0-0.2l0,0l0,0h0.1c0,0,0.1,0,0.1,0.1C22.5,54.4,22.5,54.4,22.4,54.6C22.5,54.5,22.5,54.5,22.4,54.6L22.4,54.6z
					 M21.8,53.9l0.1,0.1c0,0.1,0.1,0.1,0.1,0.2c0,0,0,0,0.1,0h0.1c0,0,0,0,0,0.1v0.1c0,0.1,0,0.1,0.1,0.2v0.1h0.1c0,0,0,0,0.1-0.1
					l0,0c0,0,0-0.1,0-0.2c0,0,0,0-0.1-0.1c-0.1,0-0.1-0.1-0.2-0.1c0,0-0.1,0-0.1-0.1L22,54C21.9,53.9,21.9,53.9,21.8,53.9L21.8,53.9
					z M22.3,54.8L22.3,54.8c0-0.1-0.1-0.1-0.1-0.1s0-0.1-0.1-0.2v-0.1v-0.1l0,0H22c0,0-0.1-0.1-0.1-0.2c0-0.1-0.1-0.1-0.1-0.1l0,0
					l0.1-0.1l0,0C21.9,54,22,54,22,54c0,0.1,0.1,0.1,0.1,0.1h0.1c0.1,0,0.1,0,0.2,0.1s0.1,0.1,0.1,0.1s0,0.1,0,0.2l0,0
					c0,0.1-0.1,0.1-0.1,0.1L22.3,54.8"/>
				<path class="st4" d="M23.1,55.5L23.1,55.5C23.1,55.5,23,55.5,23.1,55.5c-0.1,0,0-0.2,0-0.3s0-0.2,0-0.3l0,0l0,0v-0.1
					c0-0.1,0-0.1,0-0.2c0-0.1,0-0.1,0.1-0.1c0,0,0,0,0.1,0c0,0.1,0.1,0.2,0.1,0.3c0,0.2,0,0.3,0,0.4C23.2,55.4,23.2,55.5,23.1,55.5z
					 M22.9,56.1L22.9,56.1c0-0.2,0-0.2,0-0.3s0.1-0.1,0.2-0.2l0,0l0,0l-0.3-0.1c-0.1,0-0.1-0.1-0.2-0.2c-0.1-0.1-0.1-0.3-0.3-0.5
					l0,0c0.1,0.2,0.2,0.3,0.3,0.4c0.1,0.1,0.2,0.2,0.3,0.3c0.1,0.1,0.2,0.1,0.3,0.1c0,0,0.1,0,0.1-0.1c0,0,0.1,0,0.1-0.1
					c0,0,0,0,0.1,0h0.1c0,0-0.1,0.1-0.2,0.1c0,0-0.1,0.1-0.2,0.1s-0.1,0.1-0.2,0.1c0,0.2,0,0.2,0,0.3c0,0,0,0,0,0.1c0,0,0,0,0,0.1
					C23,56.1,22.9,56.1,22.9,56.1"/>
				<path class="st4" d="M23.1,54.5L23.1,54.5L23.1,54.5c0,0.1,0,0.2,0,0.3v0.1l0,0l0,0c0,0.1,0,0.2,0,0.3s0,0.2-0.1,0.2l0,0l0,0
					c0.1,0,0.1-0.1,0.1-0.2c0-0.1,0-0.3,0-0.4C23.2,54.7,23.2,54.6,23.1,54.5L23.1,54.5z M23.1,55.5C23,55.5,23,55.5,23.1,55.5
					C23.1,55.5,23.1,55.5,23.1,55.5c0-0.1,0.1-0.2,0.1-0.3c0-0.1,0-0.2,0-0.3l0,0l0,0v-0.1c0-0.1,0-0.1,0-0.2c0-0.1,0-0.1,0.1-0.1
					h0.1c0,0,0.1,0.1,0.1,0.3s0,0.3,0,0.4C23.3,55.4,23.2,55.5,23.1,55.5L23.1,55.5L23.1,55.5L23.1,55.5z M22.4,55
					c0,0,0,0.1,0.1,0.1c0,0.1,0.1,0.2,0.1,0.2c0.1,0.1,0.1,0.2,0.2,0.2l0.2,0.1c0.1,0,0.1,0,0.1,0l0,0l0,0l0,0l0,0
					c-0.1,0-0.2,0.1-0.2,0.1s0,0.1,0,0.2c0,0,0,0,0,0.1H23c0,0,0,0,0-0.1s0-0.1,0-0.1l0.1-0.1c0,0,0.1-0.1,0.2-0.1s0.1-0.1,0.2-0.1
					s0.1-0.1,0.1-0.1l0,0l0,0c0,0-0.1,0-0.1,0.1c0,0-0.1,0-0.1,0.1c-0.1,0-0.2,0-0.3-0.1c-0.1-0.1-0.2-0.2-0.3-0.3l-0.1-0.1
					C22.5,55,22.5,55,22.4,55z M22.9,56.2L22.9,56.2C22.9,56.1,22.9,56.1,22.9,56.2c0-0.2,0-0.2,0-0.3c0-0.1,0.1-0.1,0.2-0.2l0,0
					c-0.1,0-0.2-0.1-0.3-0.1c-0.1,0-0.1-0.1-0.2-0.3c0-0.1-0.1-0.1-0.1-0.2c0-0.1-0.1-0.2-0.1-0.3l0,0h0.1l0,0
					c0.1,0.1,0.1,0.2,0.2,0.2c0,0.1,0.1,0.1,0.1,0.1c0.1,0.2,0.2,0.2,0.3,0.3c0.1,0.1,0.2,0.1,0.3,0.1c0,0,0.1,0,0.1-0.1
					c0,0,0.1,0,0.1-0.1l0,0l0,0c0,0,0,0,0.1,0s0.1,0,0.1,0.1s0,0-0.2,0.2c0,0-0.1,0.1-0.2,0.1s-0.1,0.1-0.2,0.1l-0.1,0.1l0,0
					c0,0,0,0,0,0.1l0,0L22.9,56.2"/>
				<path class="st4" d="M23.1,57.6L23.1,57.6c0-0.2,0-0.2,0-0.3v-0.1v-0.1c0,0,0-0.1,0-0.2c0,0,0,0,0-0.1v-0.1v-0.1
					c0,0,0-0.1-0.1-0.1c0,0,0-0.1,0-0.2c0-0.1,0-0.1-0.1-0.2H23c0,0.1,0,0.2,0.1,0.2c0,0.1,0,0.1,0,0.2c0,0,0,0.1,0.1,0.1l0,0l0,0
					c0,0,0,0,0.1,0l-0.1,0.1c0,0,0,0.1-0.1,0.1c0,0,0,0.1,0,0.2v0.1c0,0.1,0,0.1,0,0.2c0,0,0,0,0.1,0l0,0l0,0c0,0,0,0,0,0.1
					c0,0,0,0-0.1,0S23,57.5,23,57.5v0.1c0,0,0,0,0,0.1l0,0C23,57.7,23.1,57.7,23.1,57.6C23.1,57.6,23.1,57.6,23.1,57.6
					c0-0.1,0.1-0.1,0.1,0H23.1L23,57.7C23.2,57.6,23.2,57.6,23.1,57.6"/>
				<path class="st4" d="M22.9,56.1c0,0.1,0,0.1,0.1,0.2c0,0.1,0,0.1,0,0.2l0,0c0,0,0,0,0,0.1c0,0,0,0,0,0.1l0,0v0.1c0,0,0,0,0,0.1
					s0,0.1,0,0.2l0,0c0,0,0,0,0,0.1s0,0,0,0.1c0,0,0,0,0,0.1c0,0,0,0.1,0,0.2v0.1c0.1,0,0.1,0,0.2,0s0.1,0,0.1,0s0,0,0.1-0.1
					c0,0,0,0-0.1-0.1l0,0c0,0.1-0.1,0.1-0.1,0.1l0,0c0,0,0,0-0.1,0c0,0,0,0,0-0.1s0-0.1,0-0.1l0.1-0.1l0,0l0,0l0,0l0,0l0,0
					c0,0-0.1,0-0.1-0.1c0,0,0-0.1,0-0.2v-0.1c0-0.1,0-0.1,0-0.2c0,0,0-0.1,0.1-0.1c0,0,0,0,0.1-0.1l0,0l0,0l0,0c0,0-0.1,0-0.1-0.1
					c0,0,0-0.1,0-0.2C23,56.2,23,56.1,22.9,56.1L22.9,56.1z M23.1,57.6L23.1,57.6C23.1,57.5,23.1,57.5,23.1,57.6c0-0.2,0-0.2,0-0.3
					c0,0,0,0,0-0.1l0,0l0,0l0,0c0,0,0-0.1,0-0.2c0,0,0,0,0-0.1s0-0.1,0-0.2l0,0c0,0,0,0,0-0.1s0,0,0,0l0,0c0,0,0-0.1,0-0.2
					c0-0.1,0-0.1-0.1-0.2l0,0h0.2l0,0c0,0.1,0,0.2,0.1,0.2c0,0.1,0,0.1,0,0.1s0,0,0.1,0l0,0l0,0l0,0l0,0c0,0,0,0,0.1,0l0,0l0,0
					l-0.1,0.1c0,0,0,0.1-0.1,0.1v0.1v0.1c0,0.1,0,0.1,0,0.1l0,0l0,0l0,0l0,0l0,0c0,0,0,0,0,0.1l0,0l0,0c0,0,0,0-0.1,0l-0.1,0.1v0.1
					l0,0l0,0c0,0,0,0,0.1,0c0,0,0,0,0-0.1l0,0l0,0l0.1,0.1l0,0l0,0l-0.1,0.1h-0.1C23.2,57.6,23.2,57.6,23.1,57.6L23.1,57.6"/>
				<path class="st4" d="M23.3,58.1h-0.1c0,0,0,0-0.1-0.1l0,0l0,0l0,0C23.1,58,23.2,58,23.3,58.1c0.1-0.1,0.2-0.1,0.3-0.2
					c0.1,0,0.1-0.1,0.2,0c0,0,0,0,0.1,0.1l0.1,0.1c0,0-0.1,0-0.2,0.1c-0.1,0-0.2,0-0.3,0.1C23.4,58.1,23.4,58.1,23.3,58.1"/>
				<path class="st4" d="M23.1,57.9C23.2,58,23.2,58,23.1,57.9c0.1,0.1,0.1,0.1,0.2,0.1l0,0c0,0,0.1,0,0.2,0s0.2,0,0.3-0.1
					c0.1,0,0.1,0,0.2,0l0,0l0,0l0,0l0,0c0,0,0,0-0.1,0h-0.1c-0.1,0-0.2,0-0.3,0.1C23.3,57.9,23.2,57.9,23.1,57.9
					C23.2,57.9,23.2,57.9,23.1,57.9C23.2,57.9,23.1,57.9,23.1,57.9z M23.3,58.1L23.3,58.1c-0.1,0-0.1,0-0.1,0s-0.1,0-0.1-0.1l0,0
					v-0.1l0,0l0,0l0,0c0.1,0,0.1,0,0.2,0s0.2,0,0.3-0.1c0,0,0,0,0.1,0h0.1c0,0,0,0,0.1,0.1l0,0l0,0c0,0.1,0.1,0.1,0,0.1
					c0,0,0,0-0.2,0.1c-0.1,0-0.2,0-0.3,0.1C23.5,58.1,23.4,58.1,23.3,58.1"/>
				<path class="st20" d="M18.6,60.9c-0.1,0.3,0.2,0.2,0.2,0.2c0.1,0.1-0.2,0.3-0.5,0.3c-0.2,0-0.3,0.2-0.2,0.2
					c0.6,0.1,0.9-0.4,0.9-0.7C19,60.8,18.8,60.6,18.6,60.9"/>
				<path class="st20" d="M18.9,60c0.1-0.1,0.1,0.1,0.1,0.1S18.8,60,18.9,60z M19.2,60.1c0-0.2-0.2-0.4-0.3-0.2
					C18.7,60,19,60.3,19,60.3c0,0.2-0.5,0.3-0.6,0.3s-0.3,0-0.2,0.1C19,60.8,19.2,60.3,19.2,60.1"/>
				<path class="st20" d="M18.7,59.9C18.7,60,18.7,60,18.7,59.9c0,0,0.2-0.4,0-0.8c-0.1,0.2-0.2,0.2-0.2,0.2S18.7,59.4,18.7,59.9"/>
				<path class="st20" d="M17.7,59.1c0,0.3,0.1,0.8,0.1,1.1c0,0.4-0.2,0.4-0.3,0.4s-0.3,0-0.4-0.1c0,0.2,0,0.3,0.4,0.3
					s0.5-0.3,0.4-0.5c0.4,0,0.5,0,0.6-0.1c-0.1-0.3-0.5-0.3-0.5-0.3c0.1,0,0.2,0.1,0.2,0.2c0,0.1-0.4,0-0.4,0s-0.1-1.1-0.2-1.2
					L17.7,59.1C17.8,59,17.7,59,17.7,59.1"/>
				<path class="st20" d="M15.4,59.8C15.5,59.8,15.4,59.9,15.4,59.8C15.4,59.9,15.4,59.8,15.4,59.8z M17.2,58.7
					c0,0.2,0.1,0.2,0.1,0.2s0.2,0.3,0,0.3c-0.1,0,0,0.3,0,0.3s0,0.5-0.1,0.5c0,0-0.1,0.1-0.1-0.1s0-1.4,0-1.4S17.2,58.5,17.2,58.7z
					 M15.3,60c-0.1,0-0.4,0.5,0.2,0.6c0.2,0,0.6-0.1,0.6-0.2c0,0,0,0-0.2,0c-0.1,0-0.7,0.1-0.7-0.2c0.1-0.2,0.3-0.2,0.5-0.2
					c0.1,0,0.2,0,0.2,0v-0.1L16,60c0,0,0.3,0.1,0.3-0.2c0-0.2,0-0.4,0.1-0.4c0,0,0.1,0.1,0.1,0.2c0,0.1,0,0.5,0,0.5s0.1,0,0.1-0.1
					s0.1-0.1,0.2,0s0.2,0.1,0.2,0.1s0,0.2,0.2,0c0.1-0.1,0.1-0.2,0.1-0.2v-0.6c0,0,0.1,0,0.1,0.2s0,0.5,0.1,0.5c0,0,0.1-0.1,0.1-0.3
					c0-0.3-0.3-0.7,0-0.7l0,0v-0.1h-0.1c-0.1-0.1-0.3-0.5-0.3-0.5V58c0,0-0.1,0.1-0.1,0.3c0,0,0,0-0.1,0s0-0.3,0,0.1s0,1.6,0,1.6
					s-0.2,0.2-0.1-0.4c0,0-0.1,0-0.1,0.1c0,0.2-0.2,0.2-0.2,0c0-0.1,0-1,0-1s0.1,0,0.1-0.1s-0.1-0.1-0.1-0.1c0-0.1,0-0.5,0-0.5
					s-0.2,0-0.2,0.3s0,0.3,0.1,0.4c0,0.5,0,0.6,0,0.6s-0.1,0-0.1-0.1l-0.1-0.1v-0.3c0,0-0.3-0.1-0.3,0.1s0.1,0.3,0.1,0.3v0.6
					c0,0-0.1,0.1-0.1,0c0,0-0.2-0.1-0.2,0c-0.1,0-0.1-0.1-0.2-0.1s-0.4-0.3-0.6,0C15.2,59.8,15.3,60,15.3,60"/>
				<path class="st20" d="M17.1,57.6c0,0-0.3-0.2-0.4-0.2c0,0-0.1-0.1-0.2-0.1C16.5,57.4,16.6,57.8,17.1,57.6"/>
				<path class="st20" d="M18.1,61c-0.1,0-0.3,0-0.3,0l0.2,0.2c0,0,0,0-0.2,0.2s-0.1,0.2-0.1,0.2c0.1,0,0.5-0.2,0.7-0.3
					C18.7,61.1,18.2,61,18.1,61"/>
				<path class="st20" d="M17.2,60.8c-0.1,0-0.1,0.1-0.1,0.1s-0.1,0.2-0.2,0.3c-0.1,0-0.1,0.2-0.1,0.8c0,0.5,0.1,0.4,0.1,0.4
					s0-0.6,0-0.9s0.3-0.3,0.5-0.3C17.8,61.1,17.4,60.8,17.2,60.8"/>
				<path class="st20" d="M15.3,61.3c0,0,0-0.5-0.2-0.5C15.1,60.9,15.2,61.4,15.3,61.3"/>
				<path class="st20" d="M15.9,61.3c0,0,0-0.1,0.2-0.2c0.2-0.1,0-0.3-0.1-0.3c0,0.1-0.1,0.2-0.2,0.2c-0.1-0.2-0.2-0.2-0.2-0.2
					c-0.1,0.2-0.1,0.3,0.1,0.4c0.2,0.1-0.1,0.2-0.3,0.3s-0.1,0.2-0.1,0.2C15.7,61.7,15.9,61.3,15.9,61.3"/>
				<path class="st20" d="M16.8,60.3c0,0-0.1,0.1-0.3,0.3c-0.2,0.4,0.2,0.3,0.2,0.3c0,0.3,0.1,0.2,0.1,0.2s0-0.2,0-0.5
					C16.8,60.3,16.8,60.3,16.8,60.3"/>
				<path class="st20" d="M16.5,61.2c-0.1,0.2-0.3,0.1-0.3,0.1v0.2c0,0,0,0,0.1,0c0.1,0.2-0.5,0.4-0.6,0.4s-0.2,0.1-0.1,0.2
					c0.6,0.1,1-0.7,1.1-0.8C16.7,61.2,16.6,61.2,16.5,61.2"/>
				<path class="st20" d="M17.2,61.7c-0.1,0.2-0.1,0.2,0.1,0.4c0.2,0.1,0.3-0.1,0.3-0.3C17.5,62,17.2,61.7,17.2,61.7"/>
				<path class="st20" d="M15.6,60.2C15.6,60.3,15.6,60.3,15.6,60.2c0.1,0.1,0.1,0,0.1,0S15.7,60.2,15.6,60.2L15.6,60.2"/>
				<path class="st20" d="M15.3,60.3C15.3,60.3,15.4,60.3,15.3,60.3c0.1,0.1,0.1,0,0.1,0S15.4,60.2,15.3,60.3
					C15.4,60.2,15.3,60.2,15.3,60.3"/>
				<path class="st18" d="M26.3,58.2c0,0,0.8-0.1,0.9,0.3c0,0,0.4,0.7-0.3,2.2c0,0-0.3-0.5-0.4-0.1c0,0-0.1,0.2,0,0.3
					c0,0-0.4-0.2-0.5-0.7C25.9,60.3,26.3,58.4,26.3,58.2z M26.8,59.8c0.2,0,0.3-0.2,0.3-0.5s-0.1-0.5-0.3-0.5s-0.3,0.2-0.3,0.5
					S26.6,59.8,26.8,59.8z"/>
				<line class="st21" x1="13.2" y1="66.4" x2="13.1" y2="66.5"/>
				<line class="st21" x1="15.4" y1="65.7" x2="15.1" y2="65.8"/>
				<line class="st21" x1="19.4" y1="65.7" x2="19.2" y2="65.6"/>
				<line class="st21" x1="21.4" y1="66.3" x2="21.2" y2="66.2"/>
			</g>
			<g>
				<g>
					<path class="st15" d="M30.1,54.9v3h-0.4v-3H30.1z"/>
					<path class="st15" d="M31.7,57.9c-0.1,0-0.3,0-0.4,0s-0.2-0.1-0.4-0.1s-0.2-0.1-0.3-0.2l0.3-0.3c0.1,0.1,0.2,0.2,0.4,0.2
						c0.1,0,0.3,0.1,0.5,0.1c0.2,0,0.4,0,0.5-0.1c0.1-0.1,0.2-0.2,0.2-0.3l0,0c0-0.1,0-0.2-0.1-0.3s-0.1-0.1-0.2-0.1s-0.2,0-0.3-0.1
						c-0.1,0-0.2,0-0.3-0.1c-0.1,0-0.2-0.1-0.3-0.1c-0.1-0.1-0.2-0.1-0.2-0.2C31,56.2,31,56.1,31,55.9l0,0c0-0.3,0.1-0.5,0.3-0.7
						c0.2-0.2,0.5-0.2,0.8-0.2c0.2,0,0.3,0,0.5,0.1c0.2,0,0.3,0.1,0.5,0.2l-0.2,0.3c-0.1-0.1-0.2-0.2-0.3-0.2s-0.2-0.1-0.3-0.1
						c-0.2,0-0.4,0-0.5,0.1s-0.2,0.2-0.2,0.3l0,0c0,0.1,0,0.2,0.1,0.3s0.1,0.1,0.3,0.1c0.1,0,0.2,0.1,0.3,0.1s0.2,0,0.3,0.1
						s0.2,0.1,0.3,0.1c0.1,0.1,0.2,0.1,0.2,0.2c0.1,0.1,0.1,0.2,0.1,0.4l0,0c0,0.3-0.1,0.5-0.3,0.6C32.3,57.8,32.1,57.9,31.7,57.9z"
						/>
					<path class="st15" d="M33.4,57.9v-3h0.4v3H33.4z M33.6,57.9v-0.4h1.7v0.4H33.6z"/>
					<path class="st15" d="M35.5,57.9l1.1-3H37l1.1,3h-0.5l-0.8-2.4L36,57.9H35.5z M36,57.2v-0.4h1.6v0.4H36z"/>
					<path class="st15" d="M39.8,56.9l0.9-2h0.4v3h-0.4v-2.2v0.1L40,57.5h-0.3L39,55.8v-0.2v2.2h-0.4v-3H39L39.8,56.9z"/>
					<path class="st15" d="M42.2,54.9v3h-0.4v-3H42.2z"/>
					<path class="st15" d="M44.1,57.9v-3h0.4v3H44.1z M44.4,57.9v-0.4h0.8c0.2,0,0.4,0,0.5-0.1s0.1-0.2,0.1-0.3l0,0
						c0-0.2,0-0.3-0.1-0.4c-0.1-0.1-0.2-0.1-0.4-0.1h-0.9v-0.4h0.9c0.2,0,0.3,0,0.3-0.1c0.1-0.1,0.1-0.2,0.1-0.3
						c0-0.2,0-0.3-0.1-0.3s-0.2-0.1-0.4-0.1h-0.8V55h0.9c0.3,0,0.5,0.1,0.7,0.2c0.1,0.2,0.2,0.3,0.2,0.6c0,0.2,0,0.3-0.1,0.4
						s-0.2,0.2-0.4,0.2c0.2,0,0.3,0.1,0.4,0.2c0.1,0.1,0.2,0.3,0.2,0.5l0,0c0,0.2-0.1,0.4-0.2,0.6s-0.4,0.2-0.6,0.2
						C45.3,57.9,44.4,57.9,44.4,57.9z"/>
					<path class="st15" d="M46.5,57.9l1.1-3H48l1.1,3h-0.5l-0.8-2.4L47,57.9H46.5z M47,57.2v-0.4h1.6v0.4H47z"/>
					<path class="st15" d="M49.5,57.9v-3h0.4l1.5,2.3l0,0v-2.4h0.4v3h-0.4l-1.5-2.3l0,0v2.3L49.5,57.9L49.5,57.9z"/>
					<path class="st15" d="M52.5,57.9v-3h0.4v3H52.5z M52.8,57.2l0.1-0.6l1.3-1.7h0.5L52.8,57.2z M54.3,57.9l-1-1.6l0.3-0.3l1.1,1.9
						C54.7,57.9,54.3,57.9,54.3,57.9z"/>
					<path class="st15" d="M29.7,62.7v-2.9h0.4v2.9H29.7z M29.9,62.7v-0.4h0.8c0.2,0,0.4,0,0.5-0.1s0.1-0.2,0.1-0.3l0,0
						c0-0.1,0-0.3-0.1-0.3c-0.1-0.1-0.2-0.1-0.4-0.1h-0.9v-0.4h0.9c0.1,0,0.3,0,0.3-0.1c0.1-0.1,0.1-0.2,0.1-0.3s0-0.2-0.1-0.3
						s-0.2-0.1-0.4-0.1h-0.8v-0.4h0.9c0.3,0,0.5,0.1,0.6,0.2s0.2,0.3,0.2,0.6c0,0.1,0,0.3-0.1,0.4c-0.1,0.1-0.2,0.2-0.4,0.2
						c0.2,0,0.3,0.1,0.4,0.2c0.1,0.1,0.1,0.3,0.1,0.5l0,0c0,0.2-0.1,0.4-0.2,0.6c-0.1,0.1-0.4,0.2-0.6,0.2L29.9,62.7L29.9,62.7z"/>
					<path class="st15" d="M32,62.7l1.1-2.9h0.3l1,2.9H34l-0.8-2.3l-0.8,2.3H32z M32.5,62.1v-0.4H34v0.4H32.5z"/>
					<path class="st15" d="M34.9,62.7v-2.9h0.4l1.4,2.2l0,0v-2.3H37v2.9h-0.4l-1.4-2.2l0,0v2.2L34.9,62.7L34.9,62.7z"/>
					<path class="st15" d="M38.6,61.2h1v0.5c0,0.2,0,0.4-0.1,0.6c-0.1,0.2-0.2,0.3-0.3,0.4c-0.2,0.1-0.3,0.1-0.5,0.1s-0.4,0-0.5-0.1
						s-0.3-0.2-0.4-0.3c-0.1-0.2-0.1-0.3-0.1-0.5v-0.8c0-0.2,0-0.4,0.1-0.6c0.1-0.2,0.2-0.3,0.3-0.4c0.2-0.1,0.3-0.1,0.5-0.1
						s0.3,0,0.5,0.1s0.2,0.2,0.3,0.3s0.2,0.3,0.2,0.5h-0.4c0-0.2-0.1-0.3-0.2-0.3s-0.2-0.1-0.3-0.1c-0.2,0-0.3,0.1-0.4,0.2
						c-0.1,0.1-0.2,0.3-0.2,0.5V62c0,0.2,0.1,0.3,0.2,0.5c0.1,0.1,0.3,0.2,0.4,0.2s0.3-0.1,0.4-0.2s0.2-0.3,0.2-0.5v-0.1h-0.6
						C38.6,61.6,38.6,61.2,38.6,61.2z"/>
					<path class="st15" d="M40.3,62.7v-2.9h0.4v2.9H40.3z M40.5,62.7v-0.4h1.6v0.4H40.5z"/>
					<path class="st15" d="M42.3,62.7l1-2.9h0.3l1,2.9h-0.4l-0.8-2.3l-0.8,2.3H42.3z M42.8,62.1v-0.4h1.5v0.4H42.8z"/>
					<path class="st15" d="M45.2,62.7v-2.9h0.4v2.9H45.2z M45.5,62.7v-0.4h0.7c0.2,0,0.4-0.1,0.5-0.2c0.1-0.1,0.2-0.3,0.2-0.5v-0.8
						c0-0.2-0.1-0.4-0.2-0.5c-0.1-0.1-0.3-0.2-0.5-0.2h-0.7v-0.4h0.6c0.3,0,0.6,0.1,0.8,0.3s0.3,0.4,0.3,0.8v0.8
						c0,0.2,0,0.4-0.1,0.5c-0.1,0.2-0.2,0.3-0.4,0.3c-0.2,0.1-0.4,0.1-0.6,0.1L45.5,62.7L45.5,62.7z"/>
					<path class="st15" d="M47.9,62.7v-2.9h0.4v2.9H47.9z M48,60.2v-0.4h1.6v0.4H48z M48,61.5v-0.4h1.4v0.4H48z M48,62.7v-0.4h1.6
						v0.4H48z"/>
					<path class="st15" d="M51.1,62.7c-0.1,0-0.3,0-0.4,0c-0.1,0-0.2-0.1-0.3-0.1s-0.2-0.1-0.3-0.2l0.2-0.3c0.1,0.1,0.2,0.2,0.4,0.2
						s0.3,0.1,0.4,0.1c0.2,0,0.4,0,0.5-0.1s0.2-0.2,0.2-0.3l0,0c0-0.1,0-0.2-0.1-0.2s-0.1-0.1-0.2-0.1c-0.1,0-0.2,0-0.3-0.1
						s-0.2,0-0.3-0.1s-0.2-0.1-0.3-0.1s-0.2-0.1-0.2-0.2s-0.1-0.2-0.1-0.4l0,0c0-0.3,0.1-0.5,0.3-0.6C50.8,60,51,60,51.4,60
						c0.2,0,0.3,0,0.5,0.1s0.3,0.1,0.4,0.2l-0.2,0.3c-0.1-0.1-0.2-0.1-0.3-0.2s-0.2-0.1-0.3-0.1c-0.2,0-0.3,0-0.5,0.1
						c-0.1,0.1-0.2,0.2-0.2,0.3l0,0c0,0.1,0,0.2,0.1,0.2C51,61,51,61,51.1,61c0.1,0,0.2,0,0.3,0.1c0.1,0,0.2,0,0.3,0.1
						s0.2,0.1,0.3,0.1s0.2,0.1,0.2,0.2s0.1,0.2,0.1,0.4l0,0c0,0.3-0.1,0.5-0.3,0.6C51.7,62.7,51.5,62.7,51.1,62.7z"/>
					<path class="st15" d="M52.7,62.7v-2.9h0.4v2.9H52.7z M53,61.5v-0.4h1.6v0.4H53z M54.4,62.7v-2.9h0.4v2.9H54.4z"/>
				</g>
			</g>
		</g>
	</g>
</g>
<g>
	<path class="st22" d="M134,23.9c0,0.6,0,1.3,0,1.9c0,0-0.1,0-0.1,0c-0.7,0-1.4,0-2.1,0c-1.1,0-2.1-0.8-2.2-1.9c0-0.1,0-0.3,0-0.4
		c0-0.9,0-1.8,0-2.7c0-0.4,0.1-0.8,0.2-1.2c0.3-0.7,0.8-1.1,1.5-1.2c0.7-0.1,1.3,0.1,2,0.4c0.5,0.3,0.9,0.7,1.4,1
		c0.8,0.7,1.6,1.3,2.4,2c0,0,0,0,0,0c0-1.5,0-3,0-4.5c-2.6,0-5.2,0-7.7,0c0-0.6,0-1.3,0-1.9c0,0,0.1,0,0.1,0c2.6,0,5.1,0,7.7,0
		c1,0,1.8,0.7,1.8,1.7c0,0.1,0,0.2,0,0.3c0,2.6,0,5.1,0,7.7c0,0.1,0,0.2,0,0.2c-0.1,0.2-0.3,0.2-0.5,0.1c-0.4-0.3-0.7-0.6-1.1-0.9
		c-1.7-1.4-3.4-2.8-5-4.1c-0.1-0.1-0.3-0.2-0.4-0.2c-0.1,0-0.3,0-0.3,0.2c0,0.1-0.1,0.2-0.1,0.3c0,0.9,0,1.8,0,2.8
		c0,0.3,0.2,0.6,0.6,0.6c0.6,0,1.2,0,1.9,0C133.9,23.9,134,23.9,134,23.9z"/>
	<path class="st22" d="M159.3,25.9c-0.6,0-1.3,0-1.9,0c0,0,0-0.1,0-0.1c0-1.7,0-3.4,0-5c0-0.1,0-0.2,0-0.3c-0.1-0.2-0.2-0.3-0.4-0.2
		c-0.1,0-0.2,0.1-0.3,0.2c-2,1.7-4,3.3-6.1,5c-0.1,0-0.1,0.1-0.2,0.1c-0.2,0.1-0.5,0-0.5-0.2c0,0,0-0.1,0-0.1c0-2.6,0-5.1,0-7.7
		c0-0.4,0.1-0.8,0.3-1.2c0.4-0.5,0.9-0.8,1.5-0.8c2.6,0,5.2,0,7.8,0c0,0,0.1,0,0.1,0c0,0.6,0,1.3,0,1.9c-2.6,0-5.2,0-7.7,0
		c0,1.5,0,3,0,4.5c0.1-0.1,0.2-0.1,0.2-0.2c1-0.8,1.9-1.6,2.9-2.4c0.5-0.4,1-0.7,1.6-0.8c0.5-0.1,1.1-0.1,1.6,0.2
		c0.5,0.3,0.8,0.7,1,1.3c0.1,0.3,0.1,0.6,0.1,0.9C159.3,22.4,159.3,24.1,159.3,25.9C159.3,25.8,159.3,25.8,159.3,25.9z"/>
	<path class="st22" d="M140,21C140,21,140,21,140,21c0-1.3,0-2.6,0-3.9c0-0.9,0.8-1.7,1.8-1.7c1.7,0,3.5,0,5.2,0
		c0.9,0,1.7,0.8,1.8,1.7c0,0.1,0,0.3,0,0.4c0,2.7,0,5.4,0,8.1c0,0,0,0.1,0,0.2c-0.6,0-1.3,0-1.9,0c0,0,0-0.1,0-0.1
		c0-2.6,0-5.2,0-7.8c0-0.4-0.2-0.6-0.6-0.6c-1.2,0-2.5,0-3.7,0c-0.4,0-0.6,0.2-0.6,0.6c0,0.4,0,0.7,0,1.1c0,0,0.1,0,0.1,0
		c0.4,0,0.9,0,1.3,0c1,0.1,2,0.9,2.1,1.9c0.1,0.5,0.1,1.1-0.1,1.6c-0.3,0.9-1.2,1.6-2.2,1.6c-1,0-1.9,0-2.9,0
		c-0.2,0-0.3-0.1-0.3-0.3c0-0.4,0-0.9,0-1.3c0-0.2,0.1-0.3,0.3-0.3c0.9,0,1.8,0,2.7,0c0.3,0,0.5-0.2,0.6-0.4c0.1-0.3,0-0.6-0.2-0.8
		c-0.1-0.1-0.2-0.1-0.4-0.1c-0.9,0-1.9,0-2.8,0C140.1,21,140.1,21,140,21z"/>
	<path class="st23" d="M119.7,25.3c0.2-0.1,0.3-0.2,0.5-0.3c1-0.7,1.7-1.6,1.9-2.8c0.3-1.3-0.1-2.4-0.8-3.5c0,0,0,0,0-0.1
		c0.1,0,0.1,0.1,0.2,0.1c0.5,0.6,0.9,1.3,1.1,2c0.3,0.7,0.4,1.5,0.3,2.3c0,0.2,0,0.5-0.1,0.7c-0.1,0.6-0.3,1.2-0.5,1.7
		c-0.4,0.8-0.9,1.5-1.6,2.1c-0.5,0.4-1,0.8-1.6,1c-0.8,0.4-1.7,0.5-2.6,0.5c-0.2,0-0.3,0-0.5,0c-0.1,0-0.2,0-0.3,0
		c-0.2,0-0.4,0-0.5-0.1c0,0,0,0,0,0c0,0,0,0-0.1,0c-0.4-0.1-0.9-0.3-1.3-0.6c-2.2-1.3-3.6-3.2-4.1-5.7c-0.4-2,0-3.9,1-5.6
		c0,0,0,0,0.1-0.1c0,0,0,0.1,0,0.1c-0.1,0.1-0.1,0.2-0.1,0.4c-0.3,0.8-0.4,1.6-0.4,2.4c0,0.3,0,0.5,0.1,0.8c0.1,0.6,0.3,1.2,0.6,1.7
		c0.4,0.7,0.9,1.4,1.5,2c0.4,0.3,0.8,0.6,1.3,0.9c0.8,0.4,1.7,0.7,2.7,0.7c0.4,0,0.8,0,1.2-0.1c0.6-0.1,1.2-0.3,1.7-0.5
		C119.5,25.5,119.6,25.4,119.7,25.3C119.7,25.3,119.7,25.3,119.7,25.3C119.7,25.3,119.7,25.3,119.7,25.3z"/>
	<path class="st24" d="M115.3,29.1c0.2,0,0.4,0,0.5,0.1c0.1,0,0.2,0,0.3,0c0.2,0,0.3,0,0.5,0c0.9,0,1.7-0.2,2.6-0.5
		c0.6-0.3,1.1-0.6,1.6-1c0.7-0.6,1.2-1.3,1.6-2.1c0.3-0.5,0.4-1.1,0.5-1.7c0-0.2,0.1-0.5,0.1-0.7c0.1-0.8-0.1-1.6-0.3-2.3
		c-0.3-0.7-0.6-1.4-1.1-2c0-0.1-0.1-0.1-0.2-0.1c0,0,0,0,0,0c0,0,0-0.1,0-0.1c0,0,0,0,0,0c0,0,0,0,0,0c0,0,0,0,0,0c0,0,0,0,0,0
		c-0.1-0.1-0.2-0.2-0.3-0.3c0.4,0,0.7,0,1.1,0.1c1.6,0.5,2.7,1.6,3.2,3.2c0.4,1.3,0.3,2.6-0.3,3.8c-0.3,0.6-0.7,1.1-1.1,1.5
		c-1.1,1.2-2.4,2-3.9,2.4c-0.6,0.2-1.3,0.2-1.9,0.3c-0.9,0-1.8-0.1-2.7-0.4C115.4,29.2,115.3,29.2,115.3,29.1z"/>
	<path class="st22" d="M119.7,25.3c-0.1,0.1-0.2,0.1-0.3,0.2c-0.5,0.3-1.1,0.4-1.7,0.5c-0.4,0.1-0.8,0.1-1.2,0.1
		c-0.9,0-1.8-0.3-2.7-0.7c-0.5-0.2-0.9-0.5-1.3-0.9c-0.6-0.6-1.1-1.2-1.5-2c-0.3-0.6-0.5-1.1-0.6-1.7c0-0.3-0.1-0.5-0.1-0.8
		c0-0.8,0.1-1.6,0.4-2.4c0-0.1,0.1-0.3,0.1-0.4c0,0,0-0.1,0-0.1c0.3-0.5,0.6-0.9,1-1.3c0.6-0.7,1.3-1.2,2.1-1.6c0,0,0.1,0,0.1,0
		c0,0,0,0,0,0c-0.6,0.9-1,1.9-1.2,3c-0.4,1.8-0.3,3.6,0.5,5.2c0.5,1.2,1.4,2.1,2.5,2.7C117.1,25.7,118.4,25.8,119.7,25.3
		C119.7,25.3,119.7,25.3,119.7,25.3z"/>
	<path class="st22" d="M116.1,18.9c0.5-0.6,1.1-1,1.8-1.4c0.9-0.5,1.8-0.7,2.8-0.9c0.8-0.1,1.7-0.1,2.5,0c0,0,0,0,0.1,0
		c0-0.6-0.1-1.1-0.1-1.7c0.2,0,0.5,0,0.7,0c0.9,0.1,1.8,0.5,2.6,1c0.3,0.2,0.4,0.6,0.2,1c-0.6,0.9-1.2,1.8-1.7,2.7c0,0,0,0,0,0
		c-0.2-0.1-0.3-0.3-0.5-0.4c-0.8-0.6-1.8-1-2.8-1.2c-1.4-0.2-2.8,0-4.1,0.4c-0.5,0.1-0.9,0.3-1.3,0.5
		C116.2,18.9,116.2,18.9,116.1,18.9C116.1,18.9,116.1,18.9,116.1,18.9z"/>
	<path class="st23" d="M119.1,15.1c-0.3-0.5-0.5-1-0.8-1.5c0,0,0-0.1,0.1-0.1c0.9-0.6,1.8-0.9,2.9-1c0.3,0,0.7,0,1,0
		c0.4,0,0.6,0.2,0.6,0.6c0,0.8,0.1,1.7,0.1,2.5c0,0.2,0,0.4,0,0.6c-0.2,0-0.3,0-0.5,0c-1.6-0.1-3.2,0.1-4.7,0.8
		c-1.3,0.6-2.3,1.6-3,2.9c0,0,0,0.1-0.1,0.2c0-0.1,0-0.2,0-0.3c0.2-1,0.8-1.9,1.5-2.7c0.8-0.9,1.7-1.5,2.8-1.9
		C119,15.1,119,15.1,119.1,15.1z"/>
	<path class="st24" d="M113.7,21.5c-0.1-0.2-0.2-0.4-0.2-0.7c-0.2-0.8-0.4-1.7-0.3-2.6c0.1-1.6,0.6-3,1.6-4.2
		c0.5-0.6,1.1-1.1,1.7-1.5c0.2-0.1,0.4-0.2,0.6-0.1c0.1,0,0.2,0.1,0.2,0.2c0.4,0.7,0.8,1.4,1.2,2.1c0,0,0,0,0,0
		c-1.4,0.5-2.5,1.5-3.3,2.7C114.4,18.7,113.9,20.1,113.7,21.5z"/>
	<path class="st25" d="M144.3,28.3C144.3,28.3,144.3,28.3,144.3,28.3c-0.4,0-0.6-0.1-0.6-0.4c0-0.1,0-0.2,0-0.4c-0.3,0-0.6,0-0.8,0
		c0,0.5,0,1,0,1.4c-0.1,0-0.1,0-0.2,0c0-0.5,0-1,0-1.5c-0.1,0-0.1,0-0.2,0c0-0.1,0-0.1,0-0.2c0.1,0,0.1,0,0.2,0c0,0,0,0,0-0.1
		c0-0.3,0.2-0.6,0.6-0.6c0.1,0,0.1,0,0.2,0c0.2,0,0.5,0.1,0.8,0.1c0,0.1,0,0.1,0,0.2c-0.3,0-0.5-0.1-0.8-0.1c-0.3,0-0.5,0.2-0.5,0.5
		c0.6,0,1.3,0,1.9,0c0,0,0-0.1,0-0.1c0-0.3,0.3-0.6,0.6-0.6c0.3,0,0.6,0.1,1,0.1c0,0.1,0,0.1,0,0.2c-0.2,0-0.4,0-0.6-0.1
		c-0.1,0-0.2,0-0.3,0c-0.3,0-0.4,0.2-0.4,0.5c1.1,0,2.2,0,3.3,0c0-0.1,0-0.2-0.2-0.2c-0.1,0-0.2,0-0.4,0c-0.2,0-0.3-0.1-0.3-0.3
		c0.1,0,0.1,0,0.2,0c0,0.1,0.1,0.1,0.2,0.1c0.1,0,0.2,0,0.3,0c0.3,0,0.4,0.1,0.5,0.4c0.9,0,1.7,0,2.6,0c0,0.1,0,0.1,0,0.2
		c-0.1,0-0.1,0-0.2,0c0,0.5,0,1,0,1.5c-0.1,0-0.2,0-0.2,0c0-0.2,0-0.3,0-0.5c0-0.1,0-0.2,0-0.3c0-0.1-0.1-0.2-0.2-0.2
		c-0.1,0-0.2,0.1-0.2,0.2c0,0.1,0,0.1,0,0.2c-0.1,0-0.1,0-0.2,0c0,0,0-0.1,0-0.1c0-0.1-0.1-0.2-0.1-0.2c-0.1,0-0.2,0-0.3,0.1
		c-0.1,0.2,0,0.4,0.1,0.5c0.1,0,0.2,0,0.2,0c0,0.1,0,0.1,0,0.2c-0.3,0-0.5-0.1-0.6-0.3c-0.1-0.2-0.1-0.5,0.1-0.6
		c0.2-0.1,0.4-0.2,0.7,0c0.2-0.1,0.3-0.1,0.5-0.1c0-0.1,0-0.2,0-0.3c-0.5,0-1.1,0-1.6,0c0,0.5,0,1,0,1.5c-0.1,0-0.1,0-0.2,0
		c0-0.5,0-1,0-1.5c-0.4,0-0.8,0-1.2,0c0,0.3,0,0.7,0,1c0,0.2,0.2,0.3,0.5,0.2c0.2-0.1,0.2-0.2,0.2-0.4c0-0.1-0.1-0.2-0.3-0.2
		c0,0,0,0-0.1,0c0-0.1,0-0.1,0-0.2c0.3-0.1,0.6,0.1,0.6,0.4c0,0.3-0.2,0.6-0.5,0.7c-0.1,0-0.2,0-0.2,0c-0.2,0-0.4-0.2-0.4-0.5
		c0-0.3,0-0.7,0-1c-0.3,0-0.6,0-0.9,0c0,0.2,0.1,0.2,0.6,0.3c0,0.4,0,0.8,0,1.2c-0.1,0-0.1,0-0.2,0c0-0.3,0-0.7,0-1
		c-0.3-0.1-0.5-0.2-0.6-0.5c-0.1,0-0.2,0.1-0.2,0.2c0,0.1,0,0.2,0,0.3c0,0.1,0.1,0.1,0.1,0.1c0.1,0,0.1,0,0.2-0.1
		c0.1-0.1,0.2-0.1,0.3-0.1c0,0.1,0,0.3,0,0.4c0,0.3-0.3,0.5-0.6,0.5c-0.2,0-0.4,0-0.5-0.2c-0.1-0.1-0.2-0.2-0.2-0.4c0,0,0-0.1,0-0.1
		c0-0.2,0-0.3,0-0.5c0.1,0,0.2,0,0.2,0c0,0.2,0,0.4,0,0.6c0,0.2,0.1,0.4,0.3,0.4c0.3,0,0.4-0.1,0.5-0.3c0,0,0-0.1,0-0.1
		c-0.1,0-0.1,0-0.2,0c-0.2,0-0.4-0.2-0.4-0.4c0-0.2,0-0.3,0.1-0.5c-0.3,0-0.6,0-1,0c0,0.5,0,1,0,1.5c-0.1,0-0.2,0-0.2,0
		c0-0.5,0-1,0-1.5c-0.3,0-0.6,0-0.9,0c0,0.2,0,0.3,0,0.5c0,0.1,0.1,0.1,0.2,0.1c0.1,0,0.2,0,0.2-0.1c0,0,0-0.1,0-0.1
		c0.1,0,0.1,0,0.2,0c0,0.2,0,0.5,0,0.7c-0.1,0.2-0.3,0.4-0.6,0.4c-0.2,0-0.5,0-0.6-0.2c-0.1-0.1-0.1-0.2-0.1-0.3c0-0.2,0-0.4,0-0.6
		c0.1,0,0.1,0,0.2,0c0,0.2,0,0.3,0,0.5c0,0.1,0,0.2,0,0.3c0.1,0.2,0.3,0.3,0.6,0.2C144.3,28.7,144.4,28.5,144.3,28.3z"/>
	<path class="st25" d="M155,28.5c0,0.1,0,0.1,0,0.2c-0.2,0-0.4,0-0.5-0.2c-0.1-0.2-0.1-0.4,0-0.5c0.1-0.2,0.3-0.3,0.5-0.3
		c0.1,0,0.3,0.1,0.4,0.1c0-0.1,0-0.2,0-0.4c-0.4,0-0.9,0-1.3,0c0,0.5,0,1,0,1.5c-0.1,0-0.1,0-0.2,0c0-0.1,0-0.1,0-0.2
		c0-0.2,0-0.4,0-0.6c0-0.2-0.1-0.2-0.2-0.2c-0.1,0-0.2,0.1-0.2,0.2c0,0,0,0.1,0,0.1c-0.1,0-0.1,0-0.2,0c0,0,0-0.1,0-0.1
		c0-0.1,0-0.2-0.1-0.2c-0.1,0-0.2,0-0.3,0.1c-0.1,0.1-0.1,0.4,0.1,0.5c0.1,0,0.2,0,0.3,0c0,0.1,0,0.1,0,0.2c-0.3,0-0.5-0.1-0.6-0.3
		c-0.1-0.2-0.1-0.5,0.1-0.6c0.2-0.1,0.4-0.2,0.7,0c0.2-0.1,0.3-0.1,0.5-0.1c0-0.1,0-0.2,0-0.3c0,0-0.1,0-0.1,0c-0.4,0-0.8,0-1.3,0
		c-0.2,0-0.4,0.1-0.4,0.3c0,0.2,0,0.4,0,0.6c0,0.2,0.1,0.3,0.3,0.3c0,0.1,0,0.1,0,0.2c-0.2,0-0.5-0.2-0.5-0.5c0-0.2,0-0.4,0-0.6
		c0.1-0.3,0.3-0.5,0.6-0.5c2.3,0,4.6,0,6.9,0c0,0,0.1,0,0.1,0c0,0.1,0,0.1,0,0.2c-0.1,0-0.1,0-0.2,0c0,0.5,0,1,0,1.5
		c-0.1,0-0.2,0-0.2,0c0-0.2,0-0.4,0-0.6c0-0.3-0.2-0.5-0.5-0.4c-0.1,0-0.2,0.1-0.3,0.2c0,0.1,0,0.3,0.1,0.3c0.1,0,0.1,0,0.2,0
		c0,0.1,0,0.1,0,0.2c-0.2,0.1-0.4,0-0.5-0.2c-0.1-0.2-0.1-0.5,0.1-0.6c0.2-0.2,0.5-0.2,0.8,0c0-0.1,0-0.2,0-0.4c-0.7,0-1.5,0-2.2,0
		c0,0.2,0,0.5,0,0.8c0.1-0.1,0.2-0.2,0.3-0.3c0.1-0.1,0.2-0.1,0.3-0.1c0.2,0.1,0.3,0.2,0.3,0.4c0,0.2,0,0.5,0,0.7
		c-0.1,0-0.1,0-0.2,0c0-0.2,0-0.4,0-0.6c0-0.1,0-0.1-0.1-0.2c-0.1-0.1-0.1-0.1-0.2,0c-0.1,0.1-0.2,0.2-0.3,0.3
		c-0.1,0.1-0.2,0.1-0.3,0.1c0-0.3,0-0.7,0-1c-0.3-0.1-0.4,0.1-0.5,0.3c0,0.2,0,0.4,0,0.6c0,0.2,0.1,0.3,0.3,0.3c0,0.1,0,0.1,0,0.2
		c-0.3,0-0.5-0.2-0.5-0.5c0-0.2,0-0.4,0-0.5c0-0.1,0.1-0.3,0.2-0.4c-0.2,0-0.3,0-0.5,0c0,0.5,0,1,0,1.5c-0.1,0-0.2,0-0.2,0
		c0-0.2,0-0.4,0-0.6c0-0.2-0.1-0.3-0.2-0.4c-0.1-0.1-0.3-0.1-0.4,0c-0.1,0.1-0.2,0.2-0.1,0.3C154.7,28.4,154.8,28.5,155,28.5
		C155,28.5,155,28.5,155,28.5z"/>
	<path class="st25" d="M135.7,26.9c-0.3,0-0.5-0.1-0.8-0.1c-0.3,0-0.5,0.2-0.5,0.5c1.5,0,3.1,0,4.6,0c0,0.1,0,0.1,0,0.2
		c-0.3,0.1-0.4,0.2-0.4,0.5c0,0.1,0,0.2,0,0.3c0,0.2,0.1,0.4,0.3,0.4c0,0.1,0,0.1,0,0.2c-0.3,0-0.5-0.2-0.5-0.5c0-0.2,0-0.4,0-0.6
		c0-0.1,0.1-0.2,0.1-0.3c-0.2,0-0.3,0-0.5,0c0,0.5,0,1,0,1.5c-0.1,0-0.2,0-0.2,0c0-0.5,0-1,0-1.5c-0.7,0-1.3,0-2,0c0,0.5,0,1,0,1.5
		c-0.1,0-0.2,0-0.3,0c-0.3-0.1-0.5-0.2-0.8-0.4c-0.1,0-0.1-0.1-0.1-0.1c0-0.1,0-0.1,0-0.2c0-0.3,0.1-0.4,0.4-0.5
		c0.2-0.1,0.4-0.1,0.6-0.2c0,0,0-0.1,0-0.1c-0.4,0-0.8,0-1.2,0c0,0.5,0,1,0,1.5c-0.1,0-0.2,0-0.2,0c0-0.5,0-1,0-1.5
		c-0.1,0-0.1,0-0.2,0c0-0.1,0-0.1,0-0.2c0.1,0,0.1,0,0.2,0c0-0.1,0-0.2,0-0.2c0.1-0.2,0.3-0.4,0.5-0.4c0.3,0,0.6,0.1,1,0.1
		C135.7,26.8,135.7,26.8,135.7,26.9z M135.6,27.8C135.6,27.8,135.6,27.8,135.6,27.8c-0.2,0-0.3,0.1-0.5,0.1
		c-0.2,0.1-0.3,0.1-0.3,0.4c0,0.1,0,0.1,0.1,0.1c0.2,0.1,0.3,0.2,0.5,0.2c0,0,0.1,0.1,0.1,0C135.6,28.4,135.6,28.1,135.6,27.8z"/>
	<path class="st25" d="M132.8,28.9c-0.1,0-0.3,0-0.4-0.1c-0.2-0.1-0.5-0.2-0.7-0.3c-0.1,0-0.1-0.1-0.1-0.1c0-0.1,0-0.1,0-0.2
		c0-0.2,0.1-0.4,0.3-0.4c0.2-0.1,0.3-0.1,0.5-0.2c0.1,0,0.1-0.1,0.1-0.2c-0.4,0-0.8,0-1.2,0c0,0.5,0,1,0,1.5c-0.1,0-0.1,0-0.2,0
		c0-0.5,0-1,0-1.5c-0.3,0-0.6,0-0.9,0c0,0.1,0,0.3,0,0.4c0,0.1,0.1,0.2,0.2,0.2c0.1,0,0.2-0.1,0.2-0.2c0,0,0,0,0-0.1
		c0.1,0,0.1,0,0.2,0c0,0.2,0,0.4,0,0.6c0,0.3-0.3,0.5-0.6,0.5c-0.1,0-0.2,0-0.3,0c-0.3-0.1-0.4-0.3-0.4-0.6c0-0.2,0-0.4,0-0.6
		c0,0,0,0,0,0c0.1,0,0.1,0,0.2,0c0,0.2,0,0.4,0,0.6c0,0.2,0.1,0.4,0.3,0.4c0.2,0.1,0.4,0,0.6-0.1c0.1-0.1,0.1-0.2,0.1-0.3
		c-0.1,0-0.1,0-0.2,0c-0.2,0-0.4-0.2-0.4-0.4c0-0.1,0-0.3,0-0.4c-0.2,0-0.5,0-0.7,0c0-0.1,0-0.1,0-0.2c1.4,0,2.9,0,4.3,0
		c0,0.1,0,0.1,0,0.2c-0.3,0-0.5,0-0.8,0c0,0,0,0.1,0,0.1c0.1,0,0.1,0,0.2,0c0.3,0,0.5,0.3,0.5,0.5c0,0.2-0.2,0.4-0.4,0.4
		c0-0.1,0-0.1,0-0.2c0.2-0.1,0.2-0.2,0.2-0.3c0-0.2-0.2-0.2-0.4-0.2C132.8,28.2,132.8,28.6,132.8,28.9z M132.5,27.8
		c-0.2,0-0.3,0.1-0.5,0.1c-0.2,0.1-0.3,0.1-0.3,0.4c0,0.1,0,0.1,0.1,0.1c0.1,0.1,0.3,0.1,0.4,0.2c0.1,0,0.1,0.1,0.2,0.1
		C132.5,28.4,132.5,28.1,132.5,27.8z"/>
	<path class="st25" d="M139.4,27.8c0.2,0,0.3,0,0.4,0.2c0.1,0.1,0.1,0.2,0.1,0.3c0,0.3-0.3,0.4-0.7,0.4c0-0.1,0-0.1,0-0.2
		c0.1,0,0.1,0,0.2,0c0.1,0,0.2,0,0.2-0.1c0-0.1,0.1-0.1,0-0.2c0-0.1-0.1-0.1-0.2-0.1c-0.1,0-0.2,0-0.3,0c0-0.3,0-0.5,0.2-0.6
		c0.3-0.2,0.5-0.1,0.8,0c0,0,0-0.1,0-0.1c0.6,0,1.3,0,1.9,0c0,0.1,0,0.1,0,0.2c-0.1,0-0.1,0-0.2,0c0,0.5,0,1,0,1.5
		c-0.1,0-0.2,0-0.4,0c-0.2-0.1-0.5-0.2-0.7-0.4c-0.1,0-0.1-0.1-0.1-0.1c0-0.1,0-0.1,0-0.2c0-0.2,0.1-0.4,0.3-0.5
		c0.2-0.1,0.3-0.1,0.5-0.2c0.1,0,0.1,0,0.1-0.1c-0.4,0-0.8,0-1.2,0c0,0.5,0,1,0,1.5c-0.1,0-0.2,0-0.2,0c0-0.2,0-0.3,0-0.5
		c0-0.2,0-0.4,0-0.6c0-0.4-0.4-0.5-0.6-0.4C139.4,27.5,139.3,27.7,139.4,27.8z M141.6,28.7c0-0.3,0-0.6,0-0.9c0,0,0,0,0,0
		c-0.2,0-0.3,0.1-0.5,0.1c-0.2,0.1-0.3,0.2-0.2,0.4c0,0,0,0,0,0C141.2,28.5,141.4,28.6,141.6,28.7z"/>
	<path class="st25" d="M136.2,27.8c0.1,0,0.1,0,0.2,0c0,0.2,0,0.4,0,0.6c0,0.3,0.2,0.4,0.4,0.4c0,0,0.1,0,0.1,0
		c0.2,0,0.4-0.2,0.4-0.4c0-0.1,0-0.1,0-0.2c-0.2,0.2-0.3,0.2-0.5,0.1c-0.1-0.1-0.2-0.3-0.1-0.4c0.1-0.1,0.2-0.2,0.4-0.2
		c0,0.1,0,0.1,0,0.2c0,0-0.1,0-0.1,0c-0.1,0-0.1,0.1,0,0.2c0,0.1,0.1,0.1,0.2,0c0,0,0.1-0.1,0.1-0.1c0.1-0.1,0.1-0.1,0.3-0.1
		c0,0.2,0,0.4,0,0.6c0,0.3-0.3,0.5-0.6,0.5c-0.1,0-0.1,0-0.2,0c-0.3,0-0.6-0.2-0.6-0.6C136.2,28.2,136.2,28,136.2,27.8z"/>
	<path class="st25" d="M141,29.1c-0.1,0-0.2-0.1-0.1-0.1c0-0.1,0.1-0.1,0.1-0.1c0.1,0,0.1,0.1,0.1,0.1
		C141.2,29.1,141.1,29.1,141,29.1z"/>
	<path class="st23" d="M121.3,18.6C121.3,18.6,121.3,18.7,121.3,18.6C121.3,18.7,121.3,18.7,121.3,18.6z"/>
	<path class="st24" d="M115.2,29.1C115.2,29.1,115.3,29.1,115.2,29.1C115.3,29.1,115.2,29.1,115.2,29.1z"/>
	<path class="st22" d="M119.7,25.3C119.7,25.3,119.7,25.3,119.7,25.3C119.7,25.3,119.7,25.3,119.7,25.3z"/>
	<path class="st22" d="M114.1,14.2C114.1,14.2,114.1,14.2,114.1,14.2C114.1,14.2,114.1,14.2,114.1,14.2
		C114.1,14.2,114.1,14.2,114.1,14.2z"/>
	<path class="st23" d="M121.2,18.6C121.2,18.6,121.2,18.6,121.2,18.6C121.2,18.6,121.2,18.6,121.2,18.6z"/>
	<path class="st23" d="M121.2,18.6C121.2,18.6,121.2,18.6,121.2,18.6C121.2,18.6,121.2,18.6,121.2,18.6z"/>
	<path class="st22" d="M116.1,18.9C116.1,18.9,116.1,18.9,116.1,18.9C116.1,18.9,116.1,18.9,116.1,18.9
		C116.1,18.9,116.1,18.9,116.1,18.9z"/>
</g>
</svg>
