<svg version="1.1" id="Layer_1" xmlns="http://www.w3.org/2000/svg" xmlns:xlink="http://www.w3.org/1999/xlink" x="0px" y="0px"
	                width="150" height="50" viewBox="0 0 150 50" style="enable-background:new 0 0 150 50;" xml:space="preserve">
                <style type="text/css">
	                .st0{fill:#FFFFFF;}
                </style>
                    <g>
	                    <path class="st0" d="M9.8,32.09c-0.92,0.88-1.7,1.61-2.26,1.61c-0.46,0-0.51-1.06-0.51-1.98c0-1.34,0.32-3.96,0.69-5.57
                            c0.28-1.29,1.11-4.19,1.8-6.77c0.23-0.83,0.37-1.57,0.51-2.3c0.18-1.01,0-1.8-0.55-2.4c-0.55-0.6-1.52-0.74-2.3-0.74
		                    c-1.43,0-2.99,0.37-4.61,0.97c0.46,0.69,0.69,1.43,0.69,2.3c0,0.69-0.05,1.57-0.23,2.49c-0.32,1.7-0.74,4.42-1.52,7.19
		                    c-0.92,3.46-1.01,6.4-0.92,7.42c0.18,2.86,1.66,4.24,4.1,4.24c2.4,0,6.13-2.86,7.42-5.85c0.51-1.2,0.74-2.03,0.74-2.49
		                    C12.84,29.28,11.82,29.88,9.8,32.09z"/>
	                    <path class="st0" d="M12.01,2.15c-2.21,0-4.38,0.41-6.26,1.15c0.09,0.23,0.23,0.41,0.23,0.65c0.05,1.84-0.74,4.47-0.74,5.8
		                    c0,0.74,0.51,1.7,2.44,1.29c2.67-0.55,2.63-0.51,4.65-3.64c1.2-1.84,1.61-2.63,1.84-3.5c0.05-0.23,0.05-0.37,0.05-0.55
		                    C14.17,2.66,13.44,2.15,12.01,2.15z"/>
	                    <path class="st0" d="M42.27,10.58c0-6.49-5.02-8.57-12.58-8.57c-3.32,0-7.37,0.74-10.09,2.16c-0.51,0.41-0.64,1.15-0.74,2.35
		                    c0,1.66,1.52,0.09,1.52,1.84c0,0.74-0.18,1.8-0.32,2.63c-1.06,5.9-2.99,13.54-5.11,22.11c-0.32,1.38-0.6,2.72-0.6,3.87
                            c0,1.29,0.83,2.03,2.76,2.03c1.84,0,3.87-0.46,5.02-1.2c-0.28-0.78-0.46-1.34-0.46-2.53c0-1.66,0.37-4.19,0.97-7.14
                            c1.15-5.9,2.63-11.33,3.92-17.23c0.23-1.11,0.37-1.93,0.37-2.67c0-0.78-0.14-1.43-0.41-2.07c0.78-0.18,1.57-0.23,2.12-0.28
                            c4.05,0,6.68,1.43,6.68,5.57c0,5.85-3.78,8.98-9.58,8.98c-0.32,0-0.41,0-0.41,0.18c0,1.7,0.46,3.32,1.8,3.32
                            C35.64,23.94,42.27,17.91,42.27,10.58z"/>
	                    <path class="st0" d="M64.56,30.25c0-0.28-0.05-0.41-0.23-0.41c-0.46,0-1.38,0.74-2.81,2.3c-0.88,0.88-1.52,1.52-2.26,1.61
                            c-0.46,0.05-0.51-1.01-0.51-1.93c0-3.55,2.81-14.92,4.51-17.46c-1.34-0.69-2.67-1.11-4.1-1.11c-1.15,0-2.17,0.41-2.9,1.2
                            c-1.2-0.92-2.72-1.29-4.51-1.29c-7.42,0-14.37,10.13-14.56,19.02c0,3.78,1.29,6.49,4.97,6.49h0.51c3.04-0.14,6.4-3.04,9.86-8.66
                            c-0.14,0.97-0.23,2.63-0.23,3.73c0,3.32,1.57,4.88,4.1,4.88C59.68,38.63,64.56,33.61,64.56,30.25z M49.59,29.61
                            c-1.8,2.67-3.18,4.24-4.15,4.24c-0.97,0-1.43-0.78-1.52-2.4c0-5.99,3.69-14.83,7.37-14.83c1.43,0,3.18,0.78,3.69,2.67
                            C53.97,22.1,51.94,26.2,49.59,29.61z"/>
	                    <path class="st0" d="M83.63,12.93c-0.37,0-1.15,0.05-1.7,0.14c0.55,0.6,1.06,2.12,1.06,2.95c0,3.32-3.22,9.53-7.78,15.98
                            c-0.32-4.56-0.92-10.27-1.61-14.97c-0.37-2.58-1.52-3.78-3.22-3.78c-1.61,0-3.36,0.6-5.21,1.7c1.66,1.29,3.27,7.78,4.56,18.24
                            c0.09,0.69,0.18,1.52,0.18,2.3c0,0.88-0.09,1.66-0.41,2.12c-2.12,3.04-4.93,5.39-7.78,5.39c-0.74,0-1.89-0.37-2.3-0.74
                            c-0.46,0.97-0.83,2.12-0.83,2.99c0,0.18,0,0.37,0.05,0.51c0.28,1.47,1.52,2.21,3.5,2.21c3.41,0,7.46-2.35,14.23-11.33
                            c7.32-9.63,12.11-17.69,12.11-20.59C88.46,13.94,86.99,12.93,83.63,12.93z"/>
	                    <path class="st0" d="M98.83,27.26c6.22-2.21,10.27-6.22,10.27-9.35c0.05-3.13-1.8-4.79-5.67-4.79c-4.1,0-8.06,1.98-11.15,5.67
                            c-3.18,3.46-4.84,8.11-4.61,12.85c0.23,4.74,3.32,7.09,8.71,7.09c2.58,0,4.97-0.51,7.28-1.57c1.52-0.64,2.67-1.52,3.46-2.49
                            c0.83-1.06,0.92-2.49,0.28-3.64c-2.4,2.3-4.88,3.73-8.15,4.05c-1.75,0.23-3.41-0.65-4.42-2.12c-0.41-0.6-0.55-1.57-0.51-2.67
                            C94.36,29.1,97.35,27.76,98.83,27.26z M95.23,25.09c1.34-5.71,3.41-8.89,5.9-8.89c1.66,0,2.21,1.38,1.75,2.99
                            c-0.46,1.61-1.29,3.13-4.24,4.74c-1.7,0.92-3.09,1.52-3.87,3.22C95.05,25.88,95.23,25.09,95.23,25.09z"/>
	                    <path class="st0" d="M121.35,35.09c-1.75,0.23-3.41-0.65-4.42-2.12c-0.42-0.6-0.55-1.57-0.51-2.67c0.05-1.2,3.04-2.53,4.51-3.04
                            c6.22-2.21,10.27-6.22,10.27-9.35c0.05-3.13-1.8-4.79-5.67-4.79c-4.1,0-8.06,1.98-11.15,5.67c-3.18,3.46-4.84,8.11-4.61,12.85
                            c0.23,4.74,3.32,7.09,8.71,7.09c2.58,0,4.97-0.51,7.28-1.57c1.52-0.64,2.67-1.52,3.45-2.49c0.83-1.06,0.92-2.49,0.28-3.64
                            C127.11,33.34,124.62,34.77,121.35,35.09z M117.34,25.09c1.34-5.71,3.41-8.89,5.9-8.89c1.66,0,2.21,1.38,1.75,2.99
                            c-0.46,1.61-1.29,3.13-4.24,4.74c-1.7,0.92-3.09,1.52-3.87,3.22C117.16,25.88,117.34,25.09,117.34,25.09z"/>
	                    <path class="st0" d="M146.82,12.56c-5.3,0-11.29,2.58-11.29,8.52c0,1.8,0.65,3.59,1.84,5.02c1.75,1.98,3.69,3.5,3.69,5.67
                            c0,2.49-1.38,3.69-3.55,3.69c-2.76-0.14-4.56-2.67-5.62-5.53c-0.83,0.46-1.84,1.43-1.84,2.99c0,3.59,3.64,5.67,6.82,5.67
                            c5.57,0,10.64-4.28,10.64-9.81c0-3.36-2.03-5.53-4.01-7.92c-0.74-0.92-1.2-1.75-1.2-2.67c0-1.8,0.83-2.86,2.67-2.86
                            c0.83,0,1.75,0.41,2.67,1.34c1.38-0.97,1.8-1.8,1.8-2.72C149.17,12.89,148.48,12.56,146.82,12.56z"/>
                    </g>
                </svg>