<?xml version="1.0" encoding="UTF-8"?>
<svg id="Layer_1" xmlns="http://www.w3.org/2000/svg" version="1.1" width="130" height="80" viewBox="0 0 130 80">
  <!-- Generator: Adobe Illustrator 29.0.1, SVG Export Plug-In . SVG Version: 2.1.0 Build 192)  -->
  <defs>
    <style>
      .st0 {
        fill: #345d9c;
      }
    </style>
  </defs>
  <path class="st0" d="M103.41,38.31c-.23-10.38-5.45-20.72-13.23-27.44-6.34-5.48-15.05-9.1-23.49-9.29v-.04h-3.27v.04c-17.18.66-31.84,12.8-35.82,29.45-.56,2.36-.96,4.95-1.02,7.38h-.04v3.19h.04c.22,9.53,4.75,19.28,11.52,25.88,6.61,6.45,16.04,10.72,25.36,10.92v.04h3.08v-.04c9.26-.2,18.7-4.44,25.28-10.84,6.83-6.64,11.37-16.38,11.59-25.99h.04v-3.27h-.04ZM84.17,56.23l-1.98,6.71c-.15.31-.68.71-1.02.71h-33.01l5.46-18.69-6.11,1.79,1.39-4.24,6.15-1.88,7.71-26.23c.16-.52.59-.95,1.14-1.01l8.92.04c.59.21.83.78.73,1.39l-6.48,22.05,6.11-1.77-1.31,4.42-6.16,1.76-.09.07-3.98,13.46h21.63c.56,0,1.07.91.89,1.42Z"/>
</svg>