<?xml version="1.0" encoding="utf-8"?>
<!-- Generator: Adobe Illustrator 28.0.0, SVG Export Plug-In . SVG Version: 6.00 Build 0)  -->
<svg version="1.1" id="Layer_1" xmlns="http://www.w3.org/2000/svg" xmlns:xlink="http://www.w3.org/1999/xlink" x="0px" y="0px"
	width="130" height="80" viewBox="0 0 130 80" style="enable-background:new 0 0 130 80;" xml:space="preserve">
<style type="text/css">
	.st0{fill:#F26122;}
	.st1{fill:#EA1D25;}
	.st2{fill:#F69E1E;}
</style>
<g>
	<path id="rect887" class="st0" d="M46.44,9.67h37.14v60.66H46.44V9.67z"/>
	<path id="path889" class="st1" d="M50.26,40C50.25,28.17,55.69,16.98,65,9.68c-16.75-13.17-41-10.26-54.17,6.49
		s-10.26,41,6.49,54.17c13.99,10.99,33.69,10.99,47.68,0C55.68,63.03,50.25,51.84,50.26,40L50.26,40z"/>
	<path id="path891" class="st2" d="M123.73,63.91v-1.24h0.54v-0.26h-1.28v0.26h0.5v1.24L123.73,63.91z M126.21,63.91v-1.5h-0.39
		l-0.45,1.07l-0.45-1.07h-0.39v1.5h0.28v-1.14l0.42,0.98h0.29l0.42-0.98v1.14L126.21,63.91z"/>
	<path id="path893" class="st2" d="M127.42,40c0,21.31-17.27,38.58-38.58,38.58c-8.65,0-17.04-2.91-23.84-8.25
		c16.75-13.17,19.66-37.42,6.49-54.17c-1.9-2.42-4.08-4.6-6.49-6.49C81.75-3.5,106-0.6,119.17,16.15c5.34,6.8,8.25,15.2,8.25,23.84
		V40z"/>
</g>
</svg>
