<?xml version="1.0" encoding="utf-8"?>
<!-- Generator: Adobe Illustrator 28.0.0, SVG Export Plug-In . SVG Version: 6.00 Build 0)  -->
<svg version="1.1" id="Layer_1" xmlns="http://www.w3.org/2000/svg" xmlns:xlink="http://www.w3.org/1999/xlink" x="0px" y="0px"
	width="130" height="80" viewBox="0 0 130 80" style="enable-background:new 0 0 130 80;" xml:space="preserve">
<style type="text/css">
	.st0{fill:#EC2227;}
	.st1{fill:#F89521;}
</style>
<g id="g1438" transform="translate(-1266.194 -110.295) scale(2.59472)">
	<g id="g1406" transform="translate(481.988 41.407)">
		<g id="g1390">
			<path id="path1386" class="st0" d="M38.27,14.3h-8.68c-0.17,0-0.26,0.13-0.26,0.26v0.69c0,0.17,0.13,0.26,0.26,0.26h6.49v3.61
				c-0.17-0.26-0.39-0.52-0.6-0.77c-0.77-0.77-1.59-1.16-2.45-1.16c-0.69,0-1.25,0.34-1.72,0.95c-0.39,0.52-0.6,1.12-0.6,1.68
				s0.09,1.29,0.52,1.98c0.52,0.82,1.37,1.07,2.15,1.07c0.99,0,1.8-0.69,1.8-1.59c0-0.52-0.26-0.95-0.73-1.25l-0.47-0.26v0.77
				c-0.04,0.21-0.39,0.52-0.77,0.52c-0.34,0-0.64-0.13-0.86-0.34c-0.13-0.13-0.21-0.39-0.17-0.56c0-0.26,0.09-0.47,0.26-0.69
				c0.21-0.26,0.43-0.39,0.77-0.39c0.86,0,1.59,0.39,2.19,1.25c0.47,0.73,0.73,1.42,0.73,2.19v1.8l1.29,0.77
				c0.04,0.04,0.09,0.04,0.13,0.04c0.17,0,0.26-0.13,0.26-0.26v-9.32h0.52c0.17,0,0.26-0.13,0.26-0.26V14.6
				C38.57,14.43,38.44,14.3,38.27,14.3L38.27,14.3z"/>
			<path id="path1388" class="st0" d="M55.62,14.3h-11c-0.17,0-0.26,0.13-0.26,0.26v1.2c-1.07-1.12-2.02-1.68-2.88-1.68
				c-0.82,0-1.5,0.17-2.11,0.64c-0.56,0.43-0.9,0.99-0.9,1.63c0,1.93,2.15,1.89,2.71,1.63c0.09-0.04,0.21-0.13,0.34-0.13
				c0.43,0,0.6,0.34,0.6,0.64c0,0.43-0.64,0.82-1.42,0.82c-0.43,0-0.69-0.13-0.86-0.39l-0.34-0.52l-0.21,0.6
				c-0.04,0.13-0.13,0.3-0.13,0.52c0,0.43,0.21,0.86,0.64,1.25c0.39,0.34,0.86,0.52,1.37,0.52c0.82,0,1.5-0.3,1.93-0.9
				c0.39-0.47,0.56-1.03,0.56-1.68c0-0.34-0.13-0.73-0.43-1.16c-0.34-0.52-0.77-0.77-1.25-0.77c-0.17,0-0.39,0.04-0.6,0.13
				c-0.09,0.04-0.26,0.09-0.3,0.09c-0.09,0-0.21-0.04-0.3-0.17c-0.09-0.09-0.17-0.21-0.17-0.43c0-0.47,0.43-0.95,1.2-0.95h0.04
				c0.52,0,1.03,0.26,1.5,0.73c0.39,0.39,0.69,0.77,0.95,1.2v6.83L45.61,25c0.04,0.04,0.09,0.04,0.13,0.04
				c0.17,0,0.26-0.13,0.26-0.26v-9.24h1.98v5.97l1.55,0.64h0.09c0.13,0,0.26-0.09,0.26-0.26v-0.04c0.26-1.76,1.03-2.96,2.32-3.7
				v0.34c0,0.26,0,0.9,0.04,1.25c0,0.21,0,0.34,0.04,0.47c0,0.69,0.09,1.72,0.3,2.49c0.43,1.46,1.16,1.8,1.68,1.8h0.04
				c0.3,0,0.56-0.09,0.73-0.26c0.09-0.09,0.21-0.26,0.21-0.56c0-0.26-0.04-0.47-0.13-0.64l-0.13-0.21l-0.26,0.04
				c-0.26,0.09-0.39,0.09-0.39,0.04h-0.04c-0.09,0-0.09,0-0.13-0.04c-0.09-0.04-0.26-0.17-0.39-0.64c-0.09-0.34-0.13-0.82-0.13-1.07
				c0-1.93,0.39-3.39,1.03-3.7h0.04c0.09-0.04,0.17-0.13,0.17-0.26c0-0.04,0-0.09-0.04-0.13v-0.04c-0.3-0.6-0.95-1.03-1.8-1.25
				h-0.17c-0.69,0.13-1.5,0.6-2.54,1.46c-0.26,0.21-0.52,0.43-0.73,0.64v-2.36h6.02c0.17,0,0.26-0.13,0.26-0.26V14.6
				C55.93,14.43,55.8,14.3,55.62,14.3L55.62,14.3z"/>
		</g>
		<path id="path1392" class="st0" d="M26.49,17.48c0,0.3,0,0.56-0.04,0.82c-0.09,1.2-0.39,2.32-0.86,3.35
			c-0.17,0.43-0.39,0.82-0.64,1.2c-1.8,2.84-4.98,4.73-8.59,4.73c-1.55,0-3.01-0.34-4.3-0.95c-3.44-1.59-5.84-5.11-5.84-9.15
			c0-4,2.32-7.43,5.63-9.07c-0.26,0.34-0.52,0.69-0.73,1.07c0,0.04-0.04,0.04-0.04,0.09c-0.13,0.13-0.26,0.21-0.39,0.34
			c-0.17,0.13-0.3,0.3-0.47,0.43l-0.09,0.09l-0.09,0.09c-0.04,0.04-0.09,0.13-0.17,0.17c-0.09,0.13-0.21,0.26-0.3,0.39
			c-0.43,0.56-0.77,1.16-1.03,1.8c-0.04,0.04-0.04,0.13-0.09,0.17c-0.04,0.09-0.04,0.17-0.09,0.21c0,0.04-0.04,0.09-0.04,0.13
			c-0.04,0.13-0.09,0.21-0.13,0.34c-0.04,0.09-0.04,0.17-0.09,0.21c0,0.04-0.04,0.09-0.04,0.13c0,0.09-0.04,0.17-0.04,0.26
			l-0.13,0.77c0,0.09,0,0.13-0.04,0.21v1.03c0,2.75,1.25,5.24,3.27,6.83c1.55,1.25,3.48,2.02,5.59,2.02c1.93,0,3.7-0.6,5.16-1.68
			c1.07-0.77,1.93-1.76,2.58-2.92c0.09-0.17,0.17-0.3,0.26-0.47c0.52-1.07,0.82-2.23,0.82-3.48v-0.3c0-0.3,0-0.56-0.04-0.86
			l0.04,0.04c0.13,0.13,0.26,0.21,0.39,0.34c0.13-0.21,0.26-0.39,0.39-0.6c0.09,0.39,0.13,0.77,0.17,1.2
			C26.49,16.88,26.49,17.18,26.49,17.48L26.49,17.48z"/>
		<path id="path1394" class="st1" d="M17.56,9.36l-1.89-3.48c-3.14,1.42-5.28,4.55-5.28,8.21c0,1.85,0.56,3.57,1.5,4.98
			c-0.09-0.47-0.09-0.95-0.09-1.46C11.84,13.87,14.2,10.69,17.56,9.36z"/>
		<path id="path1396" class="st0" d="M19.06,11.08c0.77-0.21,1.63-0.3,2.45-0.3c0.52,0,1.07,0.04,1.55,0.13l-0.04-1.55l-0.09-3.09
			c-0.34-0.04-0.73-0.09-1.12-0.09c-1.72,0-3.31,0.56-4.6,1.46l1.03,1.89c-1.85,0.64-3.35,1.93-4.3,3.61
			c-0.47,0.82-0.82,1.76-0.95,2.75c0.26-0.52,0.56-0.99,0.9-1.42C15.15,12.84,16.95,11.59,19.06,11.08z"/>
		<path id="path1398" class="st1" d="M23.57,9.32l0.09,2.19c-0.73-0.21-1.46-0.34-2.28-0.34c-1.5,0-2.92,0.43-4.17,1.16
			c-1.55,0.95-2.75,2.45-3.35,4.21c0.6-0.82,1.33-1.55,2.19-2.11c1.25-0.82,2.75-1.29,4.34-1.29c1.2,0,2.32,0.26,3.35,0.73
			c0.77,0.34,1.46,0.82,2.06,1.42l1.2-1.8l1.55-2.36C27.18,10,25.46,9.32,23.57,9.32L23.57,9.32z"/>
		<path id="path1400" class="st1" d="M25.5,16.45v0.3c0,1.8-0.73,3.31-0.82,3.48c-0.09,0.17-0.17,0.3-0.26,0.47
			c-0.64,1.16-1.5,2.15-2.58,2.92c-1.46,1.03-3.22,1.68-5.16,1.68c-2.11,0-4.08-0.73-5.59-2.02c-1.98-1.63-3.27-4.08-3.27-6.83
			v-1.03c0-0.09,0-0.13,0.04-0.21l0.13-0.77c0-0.09,0.04-0.17,0.04-0.26c0-0.04,0.04-0.09,0.04-0.13c0.04-0.09,0.04-0.17,0.09-0.21
			c0.04-0.13,0.09-0.26,0.13-0.34c0-0.04,0.04-0.09,0.04-0.13c0.04-0.09,0.04-0.17,0.09-0.21c0.04-0.04,0.04-0.13,0.09-0.17
			c0.26-0.64,0.64-1.25,1.03-1.8c0.09-0.13,0.21-0.26,0.3-0.39c0.04-0.04,0.09-0.13,0.17-0.17c0.04-0.04,0.04-0.09,0.09-0.09
			c0.04-0.04,0.04-0.09,0.09-0.09c0.13-0.17,0.3-0.3,0.47-0.43c0.13-0.13,0.26-0.21,0.39-0.34c0,0.04-0.04,0.04-0.04,0.09
			s-0.04,0.09-0.04,0.09c-0.52,1.03-0.86,2.28-0.99,3.57c-0.04,0.34-0.04,0.69-0.04,1.07c0,4.64,2.71,8.38,6.06,8.38h0.34
			c0.47,0,0.95-0.09,1.42-0.17c2.28-0.6,3.95-2.71,3.95-5.16v-0.13c-0.04-1.46-0.64-2.79-1.63-3.7c0.69,0,1.37,0.13,2.02,0.3
			c1.25,0.3,2.36,0.9,3.35,1.68l0.04,0.04C25.46,15.89,25.5,16.19,25.5,16.45L25.5,16.45z"/>
		<g id="g1404">
			<path id="path1402" class="st1" d="M25.5,16.45v0.3c0,1.89-0.86,3.52-0.86,3.52c-0.09,0.17-0.17,0.3-0.26,0.47
				c-0.64,1.16-1.55,2.15-2.62,2.92c-1.5,1.12-3.31,1.68-5.2,1.68c-2.06,0-4.04-0.73-5.63-2.02c-2.06-1.68-3.27-4.21-3.27-6.87
				s1.2-5.2,3.27-6.87l0.09-0.09c0,0.04-0.04,0.04-0.04,0.09c0,0.04-0.04,0.04-0.04,0.09c-2.02,1.68-3.18,4.12-3.18,6.79
				s1.16,5.11,3.22,6.83c1.55,1.29,3.57,1.98,5.59,1.98c1.85,0,3.65-0.56,5.16-1.68c1.07-0.77,1.93-1.76,2.58-2.92
				c0.09-0.17,0.17-0.3,0.21-0.47c0,0,0.86-1.59,0.86-3.48v-0.3c0-0.3,0-0.56-0.04-0.86V15.5l0.04,0.04l0.04,0.04
				C25.5,15.93,25.5,16.19,25.5,16.45L25.5,16.45z"/>
		</g>
	</g>
</g>
</svg>
