<?xml version="1.0" encoding="utf-8"?>
<!-- Generator: Adobe Illustrator 28.5.0, SVG Export Plug-In . SVG Version: 9.03 Build 54727)  -->
<svg version="1.1" id="Layer_1" xmlns="http://www.w3.org/2000/svg" xmlns:xlink="http://www.w3.org/1999/xlink" x="0px" y="0px"
	width="200" height="70" viewBox="0 0 200 70" style="enable-background:new 0 0 200 70;" xml:space="preserve">
<style type="text/css">
	.st0{fill:#EA2128;}
	.st1{fill:#EF6624;}
	.st2{fill:#F59220;}
	.st3{fill:#272324;}
</style>
<g>
	<path class="st0" d="M109.49,37.88c0-6,0-11.93,0-17.91c-10.36,0-20.7,0-31.06,0c0-2.57,0-5.09,0-7.61
		c0.16-0.11,0.33-0.07,0.48-0.07c10.31,0,20.62-0.01,30.92,0c4.06,0,7.13,2.94,7.32,6.98c0.02,0.38,0.03,0.76,0.03,1.14
		c0,10.24,0,20.48,0,30.72c0,0.34,0,0.67-0.18,0.98c-0.42,0.7-1.31,0.82-2.01,0.25c-1.96-1.6-3.91-3.2-5.87-4.81
		c-6.24-5.12-12.48-10.23-18.71-15.35c-0.49-0.4-1-0.76-1.63-0.91c-0.64-0.16-1.12,0.07-1.39,0.68c-0.15,0.34-0.19,0.7-0.19,1.07
		c0,3.7,0.03,7.4-0.02,11.1c-0.02,1.21,0.9,2.34,2.34,2.32c2.5-0.04,5-0.01,7.5-0.01c0.16,0,0.32,0,0.51,0c0,2.56,0,5.09,0,7.64
		c-0.14,0.09-0.3,0.04-0.45,0.04c-2.84,0-5.67,0-8.51,0c-4.37,0-8.29-3.41-8.92-7.75c-0.08-0.55-0.12-1.1-0.12-1.66
		c0-3.58-0.01-7.17,0-10.75c0.01-1.7,0.21-3.38,0.81-4.99c1.06-2.83,3.14-4.39,6.06-4.88c2.83-0.48,5.4,0.36,7.84,1.71
		c2,1.11,3.69,2.62,5.44,4.05c3.18,2.6,6.35,5.21,9.53,7.81C109.3,37.74,109.37,37.79,109.49,37.88z"/>
	<path class="st0" d="M200.1,12.32c0,2.56,0,5.07,0,7.64c-10.35,0-20.7,0-31.08,0c0,5.98,0,11.9,0,17.85
		c0.21-0.02,0.33-0.2,0.48-0.32c3.9-3.2,7.79-6.41,11.7-9.59c2.08-1.69,4.35-3.05,7-3.66c1.81-0.42,3.59-0.37,5.36,0.23
		c2.82,0.96,4.31,3.06,4.99,5.85c0.27,1.11,0.4,2.25,0.4,3.39c0.01,6.67,0,13.34,0,20.01c0,0.12,0,0.23,0,0.38
		c-2.54,0-5.06,0-7.58,0c-0.08-0.17-0.04-0.34-0.04-0.51c0-6.74,0-13.49,0-20.23c0-0.39-0.01-0.79-0.13-1.17
		c-0.26-0.82-0.85-1.13-1.67-0.84c-0.47,0.16-0.89,0.43-1.28,0.75c-8.12,6.65-16.23,13.31-24.35,19.96
		c-0.18,0.15-0.36,0.3-0.55,0.44c-0.82,0.57-1.89,0.09-2.01-0.9c-0.02-0.17-0.02-0.35-0.02-0.53c0-10.31,0-20.63,0-30.94
		c0-1.64,0.28-3.21,1.2-4.59c1.43-2.15,3.51-3.21,6.05-3.22c10.38-0.03,20.76-0.01,31.14-0.01C199.83,12.3,199.94,12.31,200.1,12.32
		z"/>
	<path class="st0" d="M121.69,34.65c0-0.19,0-0.32,0-0.45c0-4.78,0-9.57,0-14.35c0-3.4,1.92-6.14,5-7.18
		c0.71-0.24,1.44-0.37,2.19-0.37c6.92,0,13.83,0,20.75,0c3.83,0,7.05,3.13,7.18,6.96c0.02,0.48,0.03,0.96,0.03,1.45
		c0,10.94,0,21.88,0,32.83c0,0.18,0,0.35,0,0.56c-2.55,0-5.09,0-7.64,0c-0.1-0.15-0.04-0.35-0.04-0.53c0-10.37,0-20.74,0-31.11
		c0-1.51-0.96-2.48-2.45-2.48c-4.96,0-9.91,0-14.87,0c-1.48,0-2.45,0.96-2.45,2.43c0,1.46,0,2.93,0,4.39c0,0.03,0.01,0.06,0.02,0.09
		c0.14,0.12,0.3,0.06,0.46,0.06c1.78,0.01,3.57-0.05,5.35,0.05c4.13,0.21,7.88,3.67,8.41,7.77c0.27,2.1,0.34,4.23-0.33,6.29
		c-1.24,3.8-4.83,6.4-8.83,6.4c-3.87,0-7.75-0.01-11.62-0.01c-0.79,0-1.15-0.36-1.15-1.16c0-1.8,0-3.6,0-5.4
		c0-0.77,0.36-1.12,1.13-1.12c3.61,0,7.22,0,10.83,0c1.13,0,2.07-0.64,2.32-1.65c0.31-1.23,0.09-2.4-0.95-3.09
		c-0.43-0.28-0.9-0.39-1.41-0.39c-3.8,0-7.6,0-11.41,0C122.06,34.65,121.9,34.65,121.69,34.65z"/>
	<path class="st1" d="M22.2,67.2c-1.77-0.54-3.44-1.3-5.04-2.21C8.2,59.88,2.6,52.29,0.68,42.14c-1.51-8-0.08-15.57,4.03-22.61
		c0.06-0.1,0.13-0.19,0.2-0.28c0.04,0.16-0.04,0.28-0.09,0.42c-0.2,0.5-0.42,1-0.59,1.5c-1.06,3.09-1.59,6.25-1.42,9.52
		c0.05,1.05,0.14,2.1,0.31,3.13c0.4,2.43,1.14,4.76,2.23,6.97c1.48,3,3.46,5.63,5.98,7.85c1.58,1.4,3.3,2.6,5.17,3.57
		c3.36,1.75,6.95,2.66,10.72,2.86c1.59,0.08,3.18-0.04,4.75-0.28c2.36-0.36,4.63-1.02,6.8-2.03c0.47-0.22,0.99-0.36,1.35-0.76
		c0,0,0,0.01-0.01,0.01c0.09,0,0.16-0.02,0.21-0.1c0.65-0.35,1.33-0.66,1.95-1.06c4.13-2.65,6.69-6.41,7.66-11.21
		c1.02-5.08-0.24-9.69-3.14-13.9c-0.05-0.07-0.1-0.15-0.14-0.22c0.38,0,0.48,0.34,0.67,0.56c2.05,2.38,3.56,5.09,4.56,8.06
		c1.01,2.98,1.53,6.05,1.33,9.22c-0.06,0.99-0.12,1.97-0.27,2.95c-0.35,2.37-1.04,4.63-2.05,6.79c-1.54,3.3-3.7,6.13-6.45,8.52
		c-1.95,1.68-4.09,3.03-6.45,4.06c-3.27,1.44-6.7,2.11-10.27,2.13c-0.61,0-1.22-0.07-1.83-0.08c-0.41-0.01-0.81-0.09-1.21-0.14
		c-0.72-0.09-1.44-0.19-2.15-0.29c0,0-0.03,0-0.03,0C22.41,67.18,22.31,67.19,22.2,67.2z"/>
	<path class="st2" d="M22.51,67.29c0.72,0.1,1.44,0.2,2.15,0.29c0.4,0.05,0.8,0.13,1.21,0.14c0.61,0.01,1.22,0.08,1.83,0.08
		c3.56-0.02,7-0.69,10.27-2.13c2.35-1.03,4.5-2.38,6.45-4.06c2.76-2.38,4.91-5.22,6.45-8.52c1.01-2.16,1.71-4.42,2.05-6.79
		c0.14-0.98,0.2-1.96,0.27-2.95c0.2-3.17-0.31-6.24-1.33-9.22c-1.01-2.97-2.51-5.67-4.56-8.06c-0.19-0.22-0.29-0.56-0.67-0.56
		c-0.03-0.01-0.04-0.03-0.04-0.07c0-0.14,0.03-0.3-0.2-0.28c0,0,0.02,0,0.02,0c-0.03-0.03-0.06-0.07-0.09-0.1
		c0,0,0.01,0.01,0.01,0.01c-0.04-0.04-0.07-0.08-0.11-0.12c-0.35-0.38-0.69-0.77-1.1-1.22c1.54-0.02,2.95,0.18,4.32,0.59
		c6.58,1.97,10.84,6.38,13.01,12.79c1.76,5.19,1.3,10.33-1.09,15.24c-1.11,2.27-2.69,4.24-4.41,6.09
		c-4.33,4.67-9.57,7.84-15.73,9.48c-2.49,0.66-5.03,1-7.62,1.06c-3.64,0.08-7.19-0.42-10.66-1.51
		C22.8,67.43,22.64,67.41,22.51,67.29z"/>
	<path class="st0" d="M40.11,51.99c-0.36,0.41-0.88,0.55-1.35,0.76c-2.17,1.01-4.44,1.67-6.8,2.03c-1.57,0.24-3.16,0.36-4.75,0.28
		c-3.77-0.2-7.36-1.1-10.72-2.86c-1.87-0.98-3.58-2.18-5.17-3.57c-2.52-2.22-4.5-4.85-5.98-7.85c-1.09-2.21-1.83-4.54-2.23-6.97
		c-0.17-1.03-0.25-2.08-0.31-3.13c-0.16-3.28,0.36-6.44,1.42-9.52c0.18-0.51,0.39-1,0.59-1.5c0.05-0.14,0.13-0.26,0.09-0.42
		c1.1-1.92,2.45-3.65,3.95-5.26c2.47-2.67,5.3-4.86,8.5-6.58c0.11-0.06,0.24-0.11,0.36-0.16c0.03,0.02,0.05,0.04,0.08,0.06
		c-2.31,3.65-3.86,7.62-4.75,11.84C11.52,26.36,12,33.4,15.17,40.15c2.19,4.66,5.44,8.41,10.03,10.85
		c4.74,2.52,9.66,3.04,14.74,1.04C39.99,52.01,40.05,52.01,40.11,51.99z"/>
	<path class="st0" d="M25.78,26.08c2.1-2.3,4.55-4.15,7.29-5.62c3.53-1.9,7.3-3,11.26-3.48c3.34-0.41,6.67-0.39,10.01-0.01
		c0.1,0.01,0.2,0,0.36,0c-0.11-2.26-0.23-4.52-0.34-6.8c0.97-0.1,1.91-0.05,2.85,0.09c3.75,0.56,7.19,1.97,10.4,3.95
		c1.36,0.84,1.79,2.53,0.93,3.86c-2.31,3.62-4.66,7.21-6.99,10.82c-0.02,0.02-0.04,0.04-0.08,0.09c-0.65-0.58-1.29-1.17-1.98-1.71
		c-3.35-2.6-7.13-4.18-11.3-4.85c-5.68-0.92-11.2-0.15-16.63,1.54c-1.81,0.56-3.58,1.25-5.31,2.01c-0.13,0.06-0.27,0.1-0.41,0.15
		C25.81,26.11,25.79,26.1,25.78,26.08z"/>
	<path class="st1" d="M19.99,30.58c0.11-1.36,0.47-2.63,0.96-3.87c1.73-4.38,4.6-7.9,8.23-10.83c2.43-1.95,5.1-3.51,7.94-4.77
		c0.17-0.08,0.34-0.15,0.55-0.25c-1.07-1.98-2.13-3.94-3.21-5.92c1.12-0.78,2.29-1.43,3.51-1.99c3.96-1.83,8.13-2.6,12.47-2.48
		c1.24,0.03,2.14,0.97,2.19,2.28c0.14,3.39,0.27,6.77,0.4,10.16c0.03,0.8,0,1.59,0,2.43c-0.53-0.04-1.1-0.08-1.66-0.13
		c-2.89-0.23-5.78-0.19-8.66,0.19c-6.59,0.86-12.47,3.28-17.32,7.96c-2.09,2.02-3.8,4.31-5.21,6.84
		C20.13,30.33,20.06,30.46,19.99,30.58z"/>
	<path class="st2" d="M16.26,36.76c-0.39-0.86-0.66-1.76-0.93-2.66c-0.98-3.38-1.45-6.83-1.26-10.34
		c0.34-6.35,2.58-11.97,6.57-16.89c1.96-2.41,4.24-4.47,6.87-6.12c0.79-0.49,1.58-0.64,2.45-0.24c0.43,0.2,0.75,0.51,0.97,0.91
		c1.54,2.82,3.08,5.64,4.61,8.46c0.02,0.04,0.03,0.08,0.06,0.15c-5.59,2.13-9.87,5.92-13.27,10.74
		C18.95,25.55,16.87,30.87,16.26,36.76z"/>
	<path class="st3" d="M136.63,60.62c-1.17,0-2.27,0-3.42,0c0,1.96,0,3.9,0,5.85c-0.31,0-0.58,0-0.89,0c0-1.94,0-3.88,0-5.86
		c-0.27,0-0.51,0-0.78,0c-0.05-0.29-0.04-0.54-0.01-0.83c0.25,0,0.5,0,0.74,0c0.07-0.35,0.01-0.67,0.11-0.98
		c0.29-0.97,1.14-1.69,2.14-1.7c1.3-0.02,2.57,0.3,3.89,0.42c-0.04,0.29-0.06,0.53-0.1,0.8c-0.79-0.1-1.55-0.19-2.32-0.29
		c-0.32-0.04-0.64-0.09-0.96-0.13c-1.17-0.14-1.93,0.62-1.81,1.84c2.59,0,5.19,0,7.81,0c0.09-0.11,0.03-0.26,0.04-0.4
		c0.06-1.25,1.04-2.22,2.29-2.26c0.28-0.01,0.56,0,0.83,0.04c1,0.13,1.99,0.27,3,0.4c-0.03,0.27-0.06,0.5-0.1,0.79
		c-0.55-0.07-1.09-0.13-1.63-0.2c-0.57-0.07-1.13-0.16-1.7-0.21c-1.16-0.12-1.89,0.65-1.73,1.84c4.43,0,8.87,0,13.3,0
		c0.09-0.6-0.14-0.91-0.72-0.93c-0.5-0.02-0.99,0.01-1.49-0.01c-0.73-0.03-1.23-0.56-1.25-1.32c0.27,0,0.55,0,0.87,0
		c0.01,0.52,0.39,0.53,0.8,0.51c0.31-0.02,0.61-0.01,0.92,0c1.14,0.02,1.68,0.51,1.9,1.78c3.45,0,6.91,0,10.39,0
		c0,0.28,0,0.53,0,0.78c-0.24,0.1-0.49,0-0.77,0.07c0,1.93,0,3.87,0,5.83c-0.32,0-0.61,0-0.92,0c-0.09-0.25-0.03-0.52-0.04-0.79
		c-0.01-0.82,0-1.64-0.01-2.46c0-0.55-0.34-0.86-0.88-0.85c-0.47,0.01-0.77,0.34-0.78,0.87c0,0.2,0,0.4,0,0.59
		c-0.16,0.1-0.31,0.05-0.45,0.06c-0.13,0.01-0.26,0-0.39,0c-0.12-0.19-0.05-0.38-0.06-0.56c-0.01-0.52-0.19-0.82-0.57-0.93
		c-0.44-0.12-0.9,0.05-1.15,0.42c-0.39,0.59-0.2,1.59,0.37,1.92c0.3,0.17,0.63,0.09,0.97,0.13c0.1,0.24,0.03,0.5,0.04,0.76
		c-1.02,0.19-1.92-0.2-2.29-1.03c-0.3-0.68-0.27-2.02,0.47-2.59c0.75-0.57,1.75-0.59,2.61,0.03c0.61-0.55,1.33-0.57,2.1-0.33
		c0-0.36,0-0.69,0-1.05c-2.16,0-4.33,0-6.54,0c0,1.93,0,3.87,0,5.84c-0.32,0-0.6,0-0.92,0c0-1.94,0-3.88,0-5.84
		c-1.6,0-3.15,0-4.77,0c0,0.51,0,1.01,0,1.52c0,0.78,0,1.55,0,2.33c0,0.76,0.36,1.2,1,1.24c0.85,0.04,1.51-0.45,1.59-1.17
		c0.12-1.09-0.29-1.5-1.56-1.57c0-0.25,0-0.5,0-0.76c1.51-0.25,2.47,0.8,2.51,1.81c0.06,1.48-0.87,2.41-2.32,2.49
		c-1.31,0.07-2.23-0.9-2.16-2.17c0.07-1.22,0.01-2.45,0.01-3.71c-1.23,0-2.45,0-3.67,0c0.1,0.67,0.37,0.8,2.26,1.13
		c0,1.56,0,3.12,0,4.71c-0.27,0-0.54,0-0.86,0c0-1.3,0-2.62,0-3.96c-1.12-0.2-2.06-0.6-2.38-1.82c-0.49,0.13-0.78,0.46-0.92,0.91
		c-0.12,0.4-0.09,0.81-0.03,1.22c0.04,0.27,0.25,0.41,0.52,0.47c0.27,0.06,0.49-0.01,0.67-0.21c0.38-0.44,0.38-0.44,1.07-0.36
		c-0.02,0.65,0.07,1.3-0.08,1.95c-0.24,1.05-1.2,1.81-2.28,1.84c-0.79,0.02-1.55-0.02-2.17-0.6c-0.47-0.44-0.78-0.96-0.8-1.6
		c-0.03-0.83-0.01-1.66-0.01-2.52c0.3,0,0.58,0,0.91,0c0,0.7,0.02,1.4,0,2.1c-0.05,1.28,0.91,2.14,2.4,1.75
		c0.64-0.17,1.02-0.73,1.09-1.58c-0.94,0.19-1.82,0.09-2.18-0.92c-0.3-0.84-0.17-1.7,0.4-2.49c-1.27,0-2.52,0-3.8,0
		c0,1.93,0,3.86,0,5.83c-0.32,0-0.61,0-0.92,0c0-1.92,0-3.86,0-5.83c-1.18,0-2.33,0-3.53,0c0,0.61-0.03,1.25,0.01,1.88
		c0.02,0.36,0.33,0.5,0.67,0.5c0.34,0,0.59-0.15,0.66-0.51c0.02-0.13,0.03-0.26,0.04-0.41c0.29-0.06,0.58-0.04,0.88-0.02
		c0,0.79,0.06,1.57-0.01,2.33c-0.11,1.2-1.17,2.06-2.37,2.09c-0.92,0.03-1.78-0.07-2.43-0.82c-0.35-0.4-0.58-0.86-0.59-1.38
		c-0.03-0.83-0.01-1.66-0.01-2.52c0.29,0,0.56,0,0.89,0c0,0.68,0,1.37,0,2.07c0,0.53,0.1,1.01,0.5,1.4
		c0.49,0.47,1.55,0.63,2.22,0.31c0.64-0.31,0.95-0.93,0.87-1.76c-0.14-0.08-0.28,0-0.42,0.01c-1.1,0.12-1.84-0.53-1.86-1.63
		C136.62,61.66,136.63,61.15,136.63,60.62z"/>
	<path class="st3" d="M187.74,65.71c0,0.27,0,0.5,0,0.73c-0.99,0.01-1.97-0.92-2.06-2.01c-0.06-0.74-0.03-1.49,0.01-2.23
		c0.03-0.56,0.24-1.08,0.64-1.57c-0.66,0-1.26,0-1.9,0c0,1.93,0,3.87,0,5.83c-0.32,0-0.6,0-0.92,0c0-0.79,0.02-1.56,0-2.33
		c-0.03-1.18-0.87-1.92-2.01-1.77c-0.5,0.07-0.91,0.44-1.03,0.94c-0.14,0.59,0.01,1.07,0.43,1.37c0.15,0.1,0.31,0.16,0.49,0.16
		c0.16,0,0.31,0,0.49,0c0,0.28,0,0.53,0,0.77c-1.11,0.22-2.19-0.46-2.35-1.49c-0.2-1.27,0.56-2.39,1.75-2.55
		c0.83-0.11,1.29-0.01,2.19,0.52c0-0.49,0-0.96,0-1.46c-1.7,0-3.42,0-5.17,0c0,1.92,0,3.86,0,5.81c-0.32,0.11-0.6,0.02-0.93,0.07
		c0-0.98,0-1.93,0-2.88c0-0.19,0-0.38-0.02-0.57c-0.06-0.45-0.39-0.71-0.85-0.71c-0.42,0-0.75,0.28-0.8,0.72
		c-0.03,0.25-0.01,0.5-0.01,0.73c-0.15,0.12-0.3,0.06-0.44,0.07c-0.14,0.01-0.29,0-0.43,0c-0.09-0.21-0.04-0.4-0.05-0.58
		c-0.01-0.52-0.19-0.81-0.58-0.91c-0.48-0.12-0.97,0.09-1.19,0.52c-0.28,0.55-0.11,1.44,0.34,1.76c0.16,0.12,0.33,0.18,0.53,0.17
		c0.17,0,0.34,0,0.54,0c0,0.28,0,0.52,0,0.77c-0.95,0.2-1.87-0.2-2.26-0.99c-0.32-0.65-0.32-2.03,0.46-2.62
		c0.77-0.58,1.75-0.6,2.61,0.03c0.61-0.56,1.32-0.57,2.09-0.34c0.1-0.36,0.02-0.7,0.05-1.08c-0.31,0-0.58,0-0.86,0
		c-1.56,0-3.13,0-4.69,0c-0.91,0-1.51,0.48-1.68,1.39c-0.15,0.8-0.12,1.6-0.05,2.4c0.05,0.7,0.51,1.12,1.15,1.33
		c0,0.26,0,0.51,0,0.75c-1.04-0.1-1.93-0.88-2.04-1.93c-0.09-0.88-0.13-1.78,0.05-2.67c0.26-1.33,1.21-2.1,2.56-2.1
		c9.25,0,18.51,0,27.76,0c0.17,0,0.35-0.04,0.53,0.05c0,0.24,0,0.48,0,0.75c-0.26,0.01-0.5,0.02-0.79,0.04c0,1.95,0,3.89,0,5.85
		c-0.32,0-0.61,0-0.93,0c0-0.78,0-1.57,0-2.35c0-1.05-0.72-1.77-1.76-1.76c-0.79,0.01-1.31,0.53-1.31,1.33
		c0,0.78,0.4,1.15,1.25,1.16c0.06,0,0.12,0,0.19,0c0.11,0.26,0.02,0.52,0.06,0.77c-0.98,0.18-1.85-0.23-2.24-1.01
		c-0.4-0.8-0.16-1.91,0.53-2.52c0.82-0.72,2.09-0.72,3.25,0.03c0-0.5,0-0.98,0-1.48c-2.93,0-5.86,0-8.8,0c0,1.02,0,2.02,0,3.08
		c0.45-0.42,0.88-0.78,1.26-1.19c0.31-0.35,0.67-0.37,1.07-0.28c0.71,0.16,1.25,0.78,1.29,1.53c0.04,0.89,0.01,1.78,0.01,2.7
		c-0.3,0-0.59,0-0.92,0c0-0.82,0-1.65,0-2.47c0-0.22-0.03-0.43-0.16-0.62c-0.26-0.39-0.5-0.42-0.84-0.1
		c-0.4,0.38-0.83,0.74-1.2,1.15c-0.38,0.41-0.8,0.61-1.4,0.43c0-1.37,0-2.78,0-4.18c-1.09-0.21-1.84,0.31-2.02,1.38
		c-0.13,0.75-0.1,1.52-0.05,2.27C186.62,65.03,187.04,65.49,187.74,65.71z"/>
	<path class="st3" d="M104.3,57.52c-0.04,0.29-0.07,0.52-0.1,0.8c-0.8-0.1-1.59-0.2-2.38-0.3c-0.35-0.04-0.69-0.1-1.04-0.12
		c-1.1-0.07-1.81,0.73-1.61,1.88c6.13,0,12.26,0,18.39,0c0.04,0.29,0.04,0.53,0.01,0.78c-0.95,0.29-1.39,0.86-1.43,1.9
		c-0.03,0.61-0.02,1.23,0,1.84c0.03,0.75,0.48,1.19,1.14,1.43c0,0.26,0,0.51,0,0.75c-1.09-0.13-1.93-0.94-2.04-2.03
		c-0.08-0.74-0.06-1.49,0.01-2.23c0.05-0.56,0.25-1.07,0.63-1.57c-0.63,0-1.22,0-1.84,0c0,1.94,0,3.88,0,5.84c-0.32,0-0.61,0-0.92,0
		c0-1.95,0-3.89,0-5.85c-2.71,0-5.4,0-8.12,0c0,1.96,0,3.9,0,5.85c-0.52,0.04-0.97,0.03-1.43-0.2c-0.99-0.5-2-0.96-3.01-1.42
		c-0.21-0.1-0.28-0.21-0.27-0.42c0.02-0.22,0-0.44,0-0.66c0.01-0.97,0.48-1.63,1.4-1.94c0.39-0.13,0.78-0.23,1.17-0.35
		c0.39-0.12,0.78-0.24,1.18-0.36c0-0.16,0-0.32,0-0.49c-1.64,0-3.27,0-4.94,0c0,1.96,0,3.9,0,5.86c-0.31,0-0.59,0-0.91,0
		c0-1.94,0-3.89,0-5.88c-0.29,0-0.53,0-0.79,0c0-0.28,0-0.52,0-0.77c0.23-0.11,0.49-0.01,0.74-0.07c0.09-0.2,0.02-0.42,0.05-0.64
		c0.15-1.12,1.1-2.01,2.23-2.02C101.72,57.08,102.98,57.39,104.3,57.52z M104.05,65.57c0-1.23,0-2.39,0-3.6
		c-0.7,0.21-1.37,0.41-2.03,0.63c-0.68,0.22-0.99,0.85-0.8,1.54c0.03,0.1,0.08,0.14,0.16,0.18
		C102.25,64.73,103.12,65.14,104.05,65.57z"/>
	<path class="st3" d="M81.26,60.59c-0.98,0-1.91,0-2.87,0c0-0.27,0-0.51,0-0.78c5.74,0,11.49,0,17.27,0c0.07,0.25,0.05,0.5,0,0.79
		c-1.05,0-2.08,0-3.1,0c-0.09,0.17-0.05,0.32-0.04,0.47c0.23,0.1,0.48,0.04,0.73,0.05c1.22,0.07,2.04,1.02,1.89,2.2
		c-0.1,0.87-0.77,1.43-1.7,1.43c-0.06-0.24-0.03-0.48-0.02-0.72c0.7-0.27,0.94-0.65,0.81-1.25c-0.14-0.61-0.7-0.9-1.71-0.83
		c0,1.5,0,2.99,0,4.52c-0.5,0.04-0.94,0.06-1.39-0.17c-0.99-0.5-2-0.96-3-1.42c-0.23-0.1-0.34-0.23-0.31-0.49
		c0.03-0.25,0-0.5,0.01-0.75c0.04-0.88,0.51-1.52,1.35-1.8c0.66-0.22,1.33-0.43,2.01-0.61c0.36-0.09,0.5-0.24,0.37-0.62
		c-1.62,0-3.25,0-4.92,0c0,1.95,0,3.89,0,5.85c-0.31,0-0.58,0-0.91,0c0-1.94,0-3.89,0-5.85c-1.2,0-2.35,0-3.54,0
		c0,0.58-0.01,1.14,0,1.71c0.01,0.45,0.26,0.68,0.68,0.69c0.42,0,0.65-0.22,0.69-0.68c0.01-0.07,0.01-0.14,0.01-0.21
		c0.14-0.11,0.29-0.06,0.43-0.07c0.14-0.01,0.29,0,0.49,0c-0.03,0.94,0.13,1.86-0.12,2.76c-0.28,0.99-1.23,1.68-2.27,1.68
		c-0.44,0-0.87,0.05-1.31-0.08c-1.01-0.29-1.73-1.22-1.74-2.26c0-0.76,0-1.52,0-2.28c0-0.03,0.02-0.05,0.03-0.1
		c0.26,0,0.54,0,0.85,0c0,0.74,0,1.48,0,2.22c0.01,0.78,0.43,1.45,1.1,1.62c0.99,0.24,1.76,0.08,2.22-0.58
		c0.27-0.38,0.33-0.8,0.27-1.27c-0.26,0.02-0.52,0.06-0.77,0.05c-0.86-0.02-1.48-0.64-1.5-1.5C81.25,61.76,81.26,61.2,81.26,60.59z
		 M91.57,65.57c0-1.23,0-2.39,0-3.6c-0.76,0.24-1.49,0.44-2.2,0.7c-0.52,0.19-0.81,0.95-0.64,1.48c0.03,0.1,0.1,0.13,0.18,0.17
		C89.78,64.73,90.65,65.14,91.57,65.57z"/>
	<path class="st3" d="M122.14,60.31c0.01-0.17,0.02-0.32,0.03-0.51c2.53,0,5.05,0,7.6,0c0,0.25,0,0.49,0,0.75
		c-0.22,0.11-0.48-0.01-0.75,0.09c0,1.93,0,3.86,0,5.82c-0.51,0.05-0.96,0.05-1.42-0.18c-0.99-0.5-1.99-0.96-3-1.42
		c-0.2-0.09-0.3-0.19-0.28-0.42c0.02-0.23,0-0.47,0-0.7c0.01-0.95,0.48-1.61,1.38-1.91c0.66-0.22,1.33-0.43,2.01-0.6
		c0.34-0.09,0.46-0.25,0.35-0.61c-1.63,0-3.28,0-4.96,0c0,1.95,0,3.88,0,5.84c-0.32,0-0.61,0-0.94,0c0-0.3,0-0.6,0-0.9
		c0-1.08-0.01-2.16,0-3.25c0.01-1.19-1.05-2.05-2.49-1.63c-0.5,0.14-0.73,0.59-0.69,1.23c0.7-0.04,1.37,0.07,1.8,0.72
		c0.21,0.32,0.27,0.68,0.21,1.05c-0.19,1.03-1.23,1.58-2.61,1.37c0-0.24,0-0.48,0-0.76c0.25,0,0.48,0,0.71,0
		c0.34-0.01,0.63-0.13,0.84-0.4c0.17-0.23,0.21-0.49,0.1-0.74c-0.11-0.26-0.33-0.41-0.62-0.41c-0.44-0.01-0.87,0-1.33,0
		c-0.1-0.97-0.1-1.9,0.77-2.5C119.92,59.46,121.04,59.69,122.14,60.31z M128.07,61.98c-0.69,0.21-1.36,0.4-2.01,0.61
		c-0.62,0.2-0.84,0.52-0.82,1.17c0,0.18-0.12,0.43,0.13,0.55c0.89,0.42,1.78,0.84,2.71,1.27C128.07,64.35,128.07,63.19,128.07,61.98
		z"/>
	<path class="st3" d="M109.8,61.25c0,0.26,0,0.5,0,0.72c-0.13,0.06-0.27,0.09-0.37,0.16c-0.27,0.21-0.32,0.49-0.13,0.77
		c0.19,0.29,0.47,0.35,0.75,0.14c0.16-0.12,0.32-0.27,0.43-0.43c0.35-0.49,0.81-0.56,1.38-0.42c-0.02,0.79,0.09,1.59-0.06,2.38
		c-0.22,1.13-1.19,1.91-2.34,1.92c-0.25,0-0.5,0-0.75,0c-1.38,0-2.39-0.89-2.49-2.24c-0.06-0.81-0.01-1.63-0.01-2.47
		c0.3,0,0.58,0,0.91,0c0,0.74,0,1.48,0,2.22c0,1.04,0.65,1.69,1.69,1.7c0.2,0,0.41,0.01,0.61,0c0.77-0.04,1.38-0.6,1.48-1.36
		c0.04-0.29,0.01-0.58,0.01-0.92c-0.66,0.6-1.36,0.85-2.12,0.24c-0.51-0.42-0.66-1.07-0.43-1.62
		C108.6,61.52,109.13,61.22,109.8,61.25z"/>
	<path class="st3" d="M126.26,66.72c-0.04,0.29-0.2,0.5-0.55,0.52c-0.33,0.02-0.61-0.24-0.59-0.56c0.02-0.33,0.19-0.54,0.54-0.55
		C126,66.11,126.26,66.36,126.26,66.72z"/>
	<path class="st1" d="M46.4,25.17c0.22-0.02,0.2,0.14,0.2,0.28C46.51,25.37,46.43,25.29,46.4,25.17z"/>
	<path class="st2" d="M22.2,67.2c0.11-0.01,0.22-0.02,0.28,0.09C22.38,67.29,22.28,67.28,22.2,67.2z"/>
	<path class="st0" d="M40.31,51.9c-0.05,0.08-0.12,0.1-0.21,0.1C40.14,51.91,40.23,51.92,40.31,51.9z"/>
	<path class="st0" d="M17.72,7.23c0.03-0.01,0.07-0.03,0.1-0.04c-0.01,0.03-0.01,0.07-0.02,0.1C17.78,7.27,17.75,7.25,17.72,7.23z"
		/>
	<path class="st1" d="M46.23,24.96c0.03,0.04,0.07,0.08,0.11,0.12C46.3,25.04,46.27,25,46.23,24.96z"/>
	<path class="st1" d="M46.32,25.07c0.03,0.03,0.06,0.07,0.09,0.1C46.36,25.17,46.33,25.13,46.32,25.07z"/>
	<path class="st0" d="M25.82,26.13c-0.01,0.04-0.04,0.07-0.08,0.04c-0.01,0,0.02-0.06,0.03-0.09C25.79,26.1,25.81,26.11,25.82,26.13
		z"/>
</g>
</svg>
