<?xml version="1.0" encoding="utf-8"?>
<!-- Generator: Adobe Illustrator 28.0.0, SVG Export Plug-In . SVG Version: 6.00 Build 0)  -->
<svg version="1.1" id="Layer_1" xmlns="http://www.w3.org/2000/svg" xmlns:xlink="http://www.w3.org/1999/xlink" x="0px" y="0px"
	width="130" height="80" viewBox="0 0 130 80" style="enable-background:new 0 0 130 80;" xml:space="preserve">
<style type="text/css">
	.st0{fill:#253D80;}
	.st1{fill:#189BD7;}
	.st2{fill:#242E65;}
</style>
<g>
	<g>
		<path class="st0" d="M26.35,49.76c-1.32-1.55-3.67-2.37-6.78-2.37h-9.3c-0.64,0-1.18,0.46-1.28,1.09L5.24,72.32
			c-0.07,0.42,0.22,0.82,0.65,0.89c0.04,0.01,0.08,0.01,0.12,0.01h4.44c0.64,0,1.18-0.46,1.28-1.09l1.01-6.43
			c0.1-0.63,0.64-1.09,1.28-1.09h2.94c6.13,0,9.66-2.96,10.58-8.84C27.95,53.2,27.55,51.18,26.35,49.76z M20.64,56.1
			c-0.51,3.34-3.06,3.34-5.52,3.34h-1.4l0.98-6.23c0.06-0.38,0.38-0.65,0.77-0.65h0.64c1.68,0,3.26,0,4.08,0.96
			C20.68,54.08,20.83,54.93,20.64,56.1z"/>
		<path class="st0" d="M47.49,56c-0.04-0.01-0.08-0.01-0.12-0.01h-4.45c-0.38,0-0.71,0.28-0.77,0.65l-0.2,1.25l-0.31-0.45
			c-0.96-1.4-3.11-1.87-5.26-1.87c-4.92,0-9.12,3.73-9.94,8.95c-0.43,2.61,0.18,5.1,1.66,6.84c1.36,1.6,3.3,2.27,5.61,2.27
			c3.96,0,6.16-2.55,6.16-2.55l-0.2,1.24c-0.07,0.42,0.22,0.82,0.64,0.89c0.04,0.01,0.08,0.01,0.12,0.01h4.01
			c0.64,0,1.18-0.46,1.28-1.09l2.41-15.24C48.2,56.46,47.91,56.07,47.49,56z M41.16,64.66c-0.43,2.54-2.45,4.25-5.02,4.25
			c-1.29,0-2.33-0.41-2.99-1.2c-0.66-0.78-0.91-1.89-0.7-3.13c0.4-2.52,2.45-4.29,4.99-4.29c1.26,0,2.29,0.42,2.97,1.21
			C41.09,62.31,41.35,63.43,41.16,64.66z"/>
		<path class="st0" d="M71.52,56.13c-0.13-0.09-0.28-0.14-0.44-0.14h-4.47c-0.43,0-0.83,0.21-1.07,0.57l-6.17,9.09l-2.62-8.74
			c-0.16-0.55-0.67-0.92-1.24-0.92h-4.4c-0.43,0-0.78,0.34-0.78,0.77c0,0.09,0.01,0.17,0.04,0.25l4.93,14.46l-4.63,6.54
			c-0.25,0.35-0.17,0.83,0.18,1.08c0.13,0.09,0.29,0.14,0.45,0.14h4.47c0.42,0,0.82-0.21,1.06-0.55l14.88-21.48
			C71.96,56.86,71.87,56.37,71.52,56.13z"/>
	</g>
	<g>
		<path class="st1" d="M92.67,49.76c-1.32-1.55-3.66-2.37-6.78-2.37h-9.3c-0.64,0-1.18,0.46-1.28,1.09l-3.76,23.84
			c-0.07,0.42,0.22,0.82,0.64,0.89c0.04,0.01,0.08,0.01,0.12,0.01h4.77c0.44,0,0.82-0.32,0.89-0.76l1.07-6.76
			c0.1-0.63,0.64-1.09,1.28-1.09h2.94c6.13,0,9.66-2.96,10.58-8.84C94.28,53.2,93.87,51.18,92.67,49.76z M86.97,56.1
			c-0.51,3.34-3.06,3.34-5.52,3.34h-1.4l0.99-6.23c0.06-0.38,0.38-0.65,0.76-0.65h0.64c1.68,0,3.26,0,4.08,0.96
			C87.01,54.08,87.16,54.93,86.97,56.1z"/>
		<path class="st1" d="M113.81,56c-0.04-0.01-0.08-0.01-0.12-0.01h-4.45c-0.38,0-0.71,0.28-0.76,0.65l-0.2,1.25l-0.31-0.45
			c-0.96-1.4-3.11-1.87-5.26-1.87c-4.92,0-9.12,3.73-9.94,8.95c-0.42,2.61,0.18,5.1,1.66,6.84c1.36,1.6,3.3,2.27,5.61,2.27
			c3.96,0,6.16-2.55,6.16-2.55l-0.2,1.24c-0.07,0.42,0.22,0.82,0.64,0.89c0.04,0.01,0.08,0.01,0.12,0.01h4.01
			c0.64,0,1.18-0.46,1.28-1.09l2.41-15.24C114.52,56.46,114.23,56.07,113.81,56z M107.48,64.66c-0.43,2.54-2.45,4.25-5.02,4.25
			c-1.29,0-2.33-0.41-2.99-1.2c-0.66-0.78-0.91-1.89-0.7-3.13c0.4-2.52,2.45-4.29,4.99-4.29c1.26,0,2.29,0.42,2.97,1.21
			C107.41,62.31,107.68,63.43,107.48,64.66z"/>
		<path class="st1" d="M124.12,47.4c-0.04-0.01-0.08-0.01-0.12-0.01h-4.3c-0.38,0-0.7,0.28-0.76,0.66l-3.82,24.28
			c-0.07,0.42,0.22,0.82,0.64,0.89c0.04,0.01,0.08,0.01,0.12,0.01h3.84c0.64,0,1.18-0.46,1.28-1.09l3.76-23.84
			C124.83,47.86,124.54,47.46,124.12,47.4z"/>
	</g>
</g>
<g>
	<path class="st0" d="M57.49,40.45l0.71-4.52l-1.58-0.04h-7.56l5.26-33.33c0.03-0.21,0.21-0.37,0.43-0.36h12.75
		c4.23,0,7.16,0.88,8.68,2.62c0.72,0.82,1.17,1.67,1.39,2.61c0.23,0.98,0.24,2.16,0.01,3.59l-0.02,0.1v0.92l0.72,0.41
		c0.55,0.28,1.04,0.65,1.45,1.1c0.61,0.7,1.01,1.58,1.17,2.63c0.17,1.08,0.12,2.37-0.17,3.82c-0.33,1.68-0.85,3.13-1.57,4.33
		c-0.63,1.07-1.47,2-2.48,2.72c-0.95,0.67-2.07,1.18-3.34,1.51c-1.23,0.32-2.64,0.48-4.18,0.48h-0.99c-0.71,0-1.4,0.26-1.94,0.71
		c-0.54,0.46-0.9,1.1-1.01,1.81l-0.07,0.41l-1.26,7.96l-0.06,0.29c-0.01,0.09-0.04,0.14-0.08,0.17c-0.04,0.03-0.08,0.05-0.13,0.05
		L57.49,40.45z"/>
	<path class="st1" d="M78.95,11.23c-0.04,0.24-0.08,0.49-0.13,0.75c-1.68,8.64-7.44,11.62-14.78,11.62h-3.74
		c-0.9,0-1.66,0.65-1.8,1.54l-1.92,12.15l-0.54,3.44c-0.08,0.52,0.27,1.01,0.8,1.09c0.05,0.01,0.1,0.01,0.15,0.01h6.64
		c0.79,0,1.45-0.57,1.58-1.35l0.07-0.34l1.25-7.93l0.08-0.44c0.12-0.78,0.79-1.35,1.58-1.35h0.99c6.43,0,11.46-2.61,12.93-10.16
		c0.61-3.16,0.3-5.79-1.33-7.64C80.25,12.06,79.64,11.58,78.95,11.23L78.95,11.23z"/>
	<path class="st2" d="M77.19,10.53c-0.54-0.16-1.08-0.28-1.64-0.36c-1.09-0.17-2.19-0.25-3.3-0.24h-10c-0.79,0-1.46,0.57-1.58,1.35
		l-2.13,13.47l-0.06,0.39c0.14-0.89,0.9-1.54,1.8-1.54h3.74c7.35,0,13.1-2.98,14.78-11.62c0.05-0.26,0.09-0.5,0.13-0.75
		c-0.44-0.23-0.91-0.43-1.38-0.58C77.44,10.61,77.32,10.57,77.19,10.53L77.19,10.53z"/>
	<path class="st0" d="M60.68,11.27c0.12-0.78,0.79-1.35,1.58-1.35h10c1.18,0,2.29,0.08,3.3,0.24c0.68,0.11,1.36,0.27,2.01,0.48
		c0.5,0.16,0.96,0.36,1.38,0.58c0.5-3.19,0-5.36-1.73-7.33c-1.9-2.17-5.34-3.09-9.73-3.09H54.74c-0.9,0-1.66,0.65-1.8,1.54
		l-5.31,33.67c-0.09,0.6,0.31,1.16,0.91,1.25c0.06,0.01,0.11,0.01,0.17,0.01h7.87l1.98-12.54L60.68,11.27z"/>
</g>
</svg>
