<?xml version="1.0" encoding="utf-8"?>
<!-- Generator: Adobe Illustrator 28.0.0, SVG Export Plug-In . SVG Version: 6.00 Build 0)  -->
<svg version="1.1" id="Layer_1" xmlns="http://www.w3.org/2000/svg" xmlns:xlink="http://www.w3.org/1999/xlink" x="0px" y="0px"
	width="130" height="80" viewBox="0 0 130 80" style="enable-background:new 0 0 130 80;" xml:space="preserve">
<style type="text/css">
	.st0{fill-rule:evenodd;clip-rule:evenodd;fill:#32335D;}
</style>
<g id="g32" transform="translate(-54 -36)">
	<path id="path18" class="st0" d="M183.48,77.44c0-9.18-4.44-16.42-12.94-16.42c-8.53,0-13.69,7.24-13.69,16.34
		c0,10.79,6.09,16.24,14.84,16.24c4.27,0,7.49-0.97,9.93-2.33v-7.17c-2.44,1.22-5.23,1.97-8.78,1.97c-3.48,0-6.56-1.22-6.95-5.45
		h17.53C183.41,80.17,183.48,78.3,183.48,77.44z M165.78,74.04c0-4.05,2.47-5.73,4.73-5.73c2.19,0,4.52,1.68,4.52,5.73H165.78z"/>
	<path id="path20" class="st0" d="M143.02,61.03c-3.51,0-5.77,1.65-7.03,2.8l-0.47-2.22h-7.89v41.79l8.96-1.9l0.04-10.14
		c1.29,0.93,3.19,2.26,6.34,2.26c6.42,0,12.26-5.16,12.26-16.52C155.2,66.69,149.29,61.03,143.02,61.03L143.02,61.03z M140.87,85.72
		c-2.11,0-3.37-0.75-4.23-1.68l-0.04-13.3c0.93-1.04,2.22-1.76,4.27-1.76c3.26,0,5.52,3.66,5.52,8.35
		C146.39,82.14,144.16,85.72,140.87,85.72z"/>
	<path id="polygon22" class="st0" d="M124.31,49.7l-9,1.9v7.31l9-1.94V49.7z"/>
	<path id="rect24" class="st0" d="M115.31,61.64h9V93h-9V61.64z"/>
	<path id="path26" class="st0" d="M105.67,64.29l-0.57-2.65h-7.74V93h8.96V71.75c2.11-2.76,5.7-2.26,6.81-1.86v-8.24
		C111.98,61.21,107.78,60.42,105.67,64.29L105.67,64.29z"/>
	<path id="path28" class="st0" d="M87.75,53.86L79,55.72l-0.04,28.71c0,5.3,3.98,9.21,9.28,9.21c2.94,0,5.09-0.54,6.27-1.18v-7.28
		c-1.15,0.47-6.81,2.11-6.81-3.19V69.27h6.81v-7.63h-6.81L87.75,53.86z"/>
	<path id="path30" class="st0" d="M63.52,70.74c0-1.4,1.15-1.94,3.05-1.94c2.72,0,6.16,0.82,8.89,2.29v-8.42
		c-2.97-1.18-5.91-1.65-8.89-1.65c-7.28,0-12.11,3.8-12.11,10.14c0,9.89,13.62,8.32,13.62,12.58c0,1.65-1.43,2.19-3.44,2.19
		c-2.97,0-6.77-1.22-9.78-2.87v8.53c3.33,1.43,6.7,2.04,9.78,2.04c7.46,0,12.58-3.69,12.58-10.11
		C77.18,72.86,63.52,74.76,63.52,70.74L63.52,70.74z"/>
</g>
</svg>
