<?xml version="1.0" encoding="UTF-8"?>
<svg id="Layer_1" xmlns="http://www.w3.org/2000/svg" version="1.1" width="130" height="80" viewBox="0 0 130 80">
  <!-- Generator: Adobe Illustrator 29.0.1, SVG Export Plug-In . SVG Version: 2.1.0 Build 192)  -->
  <defs>
    <style>
      .st0 {
        fill: #50ae95;
      }
    </style>
  </defs>
  <path class="st0" d="M19.97,36.17v-.36L36.52,1.1c.14-.19.35-.28.58-.28h55.84c.51.05.58.35.78.75l16.28,34.25c.14.41-.18.68-.44.94-3.6,3.56-7.34,6.99-10.99,10.49l-33.12,31.77c-.31.22-.58.22-.89,0L20.3,36.62l-.34-.45ZM86.39,11.5h-42.73v10.49h15.67v6.84c-4.12.2-8.25.57-12.29,1.33-2.51.47-7.84,1.63-9.52,3.58-1.98,2.29,2.06,3.96,3.69,4.55,1.87.68,3.92,1.14,5.88,1.51,4.04.76,8.15,1.11,12.25,1.33v21.97h11.39v-21.97c5.33-.34,10.79-.76,15.95-2.17,1.89-.52,8.72-2.59,5.53-5.5-1.74-1.59-5.79-2.59-8.1-3.07-4.39-.92-8.91-1.32-13.38-1.54v-6.84h15.67v-10.49Z"/>
  <path class="st0" d="M59.32,29.64v7.59c.14.08.43.1.61.11,2.92.18,5.9.16,8.83.05.64-.03,1.28-.02,1.91-.09v-7.66c2.69.1,5.4.3,8.08.64,2.95.37,6.85.97,9.55,2.21,1.31.6,3.01,1.7,1.36,3.1-1.77,1.5-6.42,2.33-8.74,2.7-8.75,1.38-18.79,1.44-27.6.55-3.41-.35-9.63-1.11-12.49-2.91-3.41-2.15,1.49-3.77,3.24-4.27,3.49-1,7.52-1.48,11.15-1.78,1.37-.11,2.75-.19,4.12-.23Z"/>
</svg>