<?xml version="1.0" encoding="utf-8"?>
<!-- Generator: Adobe Illustrator 28.0.0, SVG Export Plug-In . SVG Version: 6.00 Build 0)  -->
<svg version="1.1" id="Layer_1" xmlns="http://www.w3.org/2000/svg" xmlns:xlink="http://www.w3.org/1999/xlink" x="0px" y="0px"
	width="130" height="80" viewBox="0 0 130 80" style="enable-background:new 0 0 130 80;" xml:space="preserve">
<style type="text/css">
	.st0{fill:#2867AF;}
	.st1{fill:#E6A540;}
</style>
<g>
	<g>
		<path class="st0" d="M56.41,60.93H45.9l6.57-40.36h10.51L56.41,60.93z M37.06,20.57L27.04,48.33l-1.19-5.98l0,0l-3.54-18.15
			c0,0-0.43-3.63-4.98-3.63H0.77l-0.19,0.68c0,0,5.06,1.05,10.99,4.61l9.13,35.06h10.95l16.72-40.36L37.06,20.57L37.06,20.57z
			 M119.71,60.93h9.65l-8.41-40.36h-8.45c-3.9,0-4.85,3.01-4.85,3.01L91.97,60.93h10.95l2.19-5.99h13.36L119.71,60.93L119.71,60.93z
			 M108.14,46.66l5.52-15.1l3.11,15.1H108.14z M92.8,30.28l1.5-8.67c0,0-4.63-1.76-9.45-1.76c-5.21,0-17.6,2.28-17.6,13.36
			c0,10.43,14.53,10.56,14.53,16.03s-13.04,4.5-17.34,1.04l-1.56,9.06c0,0,4.69,2.28,11.86,2.28c7.17,0,17.99-3.71,17.99-13.82
			c0-10.49-14.66-11.47-14.66-16.03C78.07,27.22,88.3,27.8,92.8,30.28L92.8,30.28z"/>
	</g>
	<path class="st1" d="M25.86,42.36l-3.54-18.15c0,0-0.43-3.63-4.98-3.63H0.77l-0.19,0.68c0,0,7.96,1.65,15.59,7.83
		C23.48,34.99,25.86,42.36,25.86,42.36z"/>
</g>
</svg>
