<?xml version="1.0" encoding="utf-8"?>
<!-- Generator: Adobe Illustrator 28.5.0, SVG Export Plug-In . SVG Version: 9.03 Build 54727)  -->
<svg version="1.1" id="Layer_1" xmlns="http://www.w3.org/2000/svg" xmlns:xlink="http://www.w3.org/1999/xlink" x="0px" y="0px"
	width="200" height="50" viewBox="0 0 200 50" style="enable-background:new 0 0 200 50;" xml:space="preserve">
<style type="text/css">
	.st0{fill:#30456B;}
	.st1{fill:#40B5E8;}
</style>
<g>
	<path class="st0" d="M49.7,3.44c3.43,0,6.73,0,10.1,0c1.09,10.31,2.17,20.58,3.28,31.11c0.49-1.13,0.9-2.04,1.29-2.96
		c3.88-9.14,7.75-18.28,11.61-27.43c0.24-0.57,0.51-0.79,1.15-0.78c2.75,0.04,5.51,0.02,8.26,0.02c0.29,0,0.57,0,0.94,0
		c1.16,10.42,2.32,20.76,3.48,31.12c0.4-0.07,0.37-0.43,0.47-0.67c4-9.85,7.99-19.7,11.96-29.56c0.26-0.66,0.57-0.93,1.32-0.91
		c2.99,0.05,5.97,0.02,8.97,0.02c0.09,0.44-0.17,0.76-0.31,1.09c-5.83,13.77-11.68,27.54-17.49,41.31c-0.26,0.62-0.58,0.8-1.22,0.8
		c-3.22-0.03-6.45-0.02-9.67-0.02c-0.29,0-0.58,0-0.9,0c-1.23-9.85-2.46-19.63-3.68-29.41c-0.05-0.01-0.1-0.01-0.15-0.02
		c-1.02,2.4-2.05,4.8-3.07,7.2c-3.06,7.2-6.12,14.41-9.18,21.61c-0.15,0.35-0.27,0.64-0.79,0.64c-3.48-0.03-6.97-0.02-10.55-0.02
		C53.57,32.21,51.64,17.88,49.7,3.44z"/>
	<path class="st0" d="M197.42,34.43c-1.74,4.24-4.42,7.53-8.28,9.73c-6.39,3.64-13.21,4.52-20.22,2.26
		c-6.57-2.12-10.7-6.81-12.09-13.52c-1.65-7.97-0.18-15.45,4.83-22c3.73-4.87,8.84-7.45,14.86-8.28c4.07-0.56,8.07-0.34,11.89,1.31
		c5.72,2.47,9.21,6.85,10.7,12.84c0.97,3.91,0.73,7.84-0.03,11.85c-10.83,0-21.66,0-32.48,0c-0.15,4.64,3.34,8.9,7.92,9.67
		c3.44,0.57,6.71,0.16,9.59-2.02c0.3-0.23,0.66-0.46,0.83-0.77c0.57-1.04,1.45-1.11,2.5-1.09
		C190.72,34.47,194.01,34.43,197.42,34.43z M167.44,20.69c7.37,0,14.67,0,21.97,0c0-4.77-3.02-8.55-7.61-9.3
		c-4.49-0.73-8.37,0.65-11.54,3.93C168.81,16.81,167.86,18.59,167.44,20.69z"/>
	<path class="st1" d="M16.23,46.57c5.4-12.74,10.75-25.38,16.13-38.1c-5.81,0-11.54,0-17.41,0c0.62,1.09,1.2,2.12,1.79,3.14
		c0.5,0.85,1,1.7,1.52,2.54c0.3,0.49,0.28,0.84-0.18,1.28c-1.66,1.6-3.28,3.25-4.9,4.89c-0.26,0.26-0.59,0.48-0.79,1.01
		c3.37,0,6.68,0,10.1,0c-0.71,1.66-1.37,3.13-1.97,4.63c-0.15,0.36-0.36,0.39-0.67,0.39c-6.53,0-13.07,0-19.61,0
		c-0.05-0.35,0.21-0.48,0.38-0.65c3.6-3.44,7.2-6.88,10.82-10.3c0.43-0.4,0.45-0.7,0.16-1.18c-2.1-3.52-4.17-7.06-6.31-10.69
		c11.77,0,23.46,0,35.22,0c-0.63,1.53-1.24,3.01-1.86,4.49c-0.98,2.32-1.96,4.63-2.95,6.94c-1.98,4.66-3.98,9.31-5.95,13.97
		c-2.42,5.72-4.82,11.46-7.22,17.19c-0.14,0.33-0.34,0.45-0.66,0.45C20.05,46.57,18.21,46.57,16.23,46.57z"/>
	<path class="st0" d="M157.21,3.67c-0.69,3.67-1.37,7.33-2.06,11.03c-0.32-0.05-0.57-0.09-0.83-0.12c-3.03-0.33-4.9,0.75-6.13,3.57
		c-1.05,2.43-1.47,5.04-1.98,7.62c-0.79,4.01-1.39,8.06-2.95,11.89c-2.42,5.94-6.82,8.93-13.2,9.1c-1.7,0.04-3.39,0.01-5.13-0.26
		c0.7-3.71,1.39-7.38,2.08-11.07c0.77,0.07,1.47,0.18,2.16,0.2c2.11,0.05,3.64-0.88,4.57-2.79c1.14-2.34,1.57-4.88,2.08-7.4
		c0.86-4.2,1.4-8.48,2.99-12.51c1.48-3.75,3.7-6.85,7.58-8.43c2.86-1.16,5.86-1.34,8.89-1.1C155.9,3.46,156.52,3.41,157.21,3.67z"/>
	<path class="st0" d="M117.19,3.45c3.5,0,6.91,0,10.41,0c-2.62,14.38-5.22,28.7-7.84,43.08c-3.45,0-6.89,0-10.45,0
		C111.94,32.15,114.57,17.79,117.19,3.45z"/>
</g>
</svg>
