<?xml version="1.0" encoding="UTF-8"?>
<svg id="Layer_1" xmlns="http://www.w3.org/2000/svg" version="1.1" width="200" height="80" viewBox="0 0 200 80">
  <!-- Generator: Adobe Illustrator 29.0.1, SVG Export Plug-In . SVG Version: 2.1.0 Build 192)  -->
  <defs>
    <style>
      .st0 {
        fill: #e92328;
      }

      .st1 {
        fill: #2968af;
      }

      .st2 {
        fill: #e6a540;
      }

      .st3 {
        fill: #303030;
      }

      .st4 {
        fill: none;
        stroke: #5a4b43;
        stroke-miterlimit: 10;
        stroke-width: .5px;
      }

      .st5 {
        fill: #f26e21;
      }

      .st6 {
        fill: #306fc5;
      }

      .st7 {
        fill: #557fc0;
      }

      .st8 {
        fill: #f8bc18;
      }

      .st9 {
        fill: #f26324;
      }

      .st10 {
        fill: #61656a;
      }

      .st11 {
        fill: #36a851;
      }

      .st12 {
        fill: #f59e21;
      }

      .st13 {
        fill: #ea4635;
      }
    </style>
  </defs>
  <g>
    <path class="st4" d="M123.7,37.7h-47.4c-.8,0-1.3-.6-1.3-1.3V14c0-.8.6-1.3,1.3-1.3h47.4c.8,0,1.3.6,1.3,1.3v22.3c0,.8-.6,1.3-1.3,1.3Z"/>
    <g>
      <path id="rect887" class="st9" d="M96,18.7h7.9v13h-7.9v-13Z"/>
      <path id="path889" class="st0" d="M96.9,25.1c0-2.5,1.2-4.9,3.2-6.5-3.6-2.8-8.8-2.2-11.6,1.4s-2.2,8.8,1.4,11.6c3,2.3,7.2,2.3,10.2,0-2-1.6-3.2-4-3.2-6.5h0Z"/>
      <path id="path891" class="st12" d="M112.5,30.3v-.3h.1c0,0-.3,0-.3,0h0c0,0,.1,0,.1,0v.3h0ZM113.1,30.3v-.3h0v.2c-.1,0-.2-.2-.2-.2h0v.3h0v-.2.2h.1v-.2c0,0,0,.2,0,.2h0Z"/>
      <path id="path893" class="st12" d="M113.3,25.1c0,4.6-3.7,8.2-8.2,8.2s-3.6-.6-5.1-1.8c3.6-2.8,4.2-8,1.4-11.6-.4-.5-.9-1-1.4-1.4,3.6-2.8,8.7-2.2,11.6,1.4,1.1,1.5,1.8,3.3,1.8,5.1h0Z"/>
    </g>
  </g>
  <g>
    <path class="st4" d="M67.2,37.7H19.8c-.8,0-1.3-.6-1.3-1.3V14c0-.8.6-1.3,1.3-1.3h47.4c.8,0,1.3.6,1.3,1.3v22.3c0,.8-.6,1.3-1.3,1.3Z"/>
    <g>
      <path class="st1" d="M41.8,29.3h-2.2l1.4-8.4h2.2l-1.4,8.4ZM37.8,21l-2.1,5.8-.2-1.2h0l-.7-3.8s0-.8-1-.8h-3.5c0,.1,1,.4,2.3,1.1l1.9,7.3h2.3l3.5-8.4h-2.3ZM54.9,29.3h2l-1.7-8.4h-1.8c-.8,0-1,.6-1,.6l-3.2,7.7h2.3l.4-1.2h2.8l.3,1.2h0ZM52.5,26.4l1.1-3.1.6,3.1s-1.8,0-1.8,0ZM49.3,23l.3-1.8s-1-.4-2-.4-3.6.5-3.6,2.8,3,2.2,3,3.3-2.7.9-3.6.2l-.3,1.9s1,.5,2.5.5,3.7-.8,3.7-2.9-3-2.4-3-3.3c0-.9,2.1-.8,3-.3h0Z"/>
      <path class="st2" d="M35.4,25.5l-.7-3.8s0-.8-1-.8h-3.5c0,.1,1.7.5,3.2,1.8,1.5,1.2,2,2.8,2,2.8Z"/>
    </g>
  </g>
  <path class="st4" d="M67.2,66.9H19.8c-.8,0-1.3-.6-1.3-1.3v-22.3c0-.8.6-1.3,1.3-1.3h47.4c.8,0,1.3.6,1.3,1.3v22.3c0,.8-.6,1.3-1.3,1.3Z"/>
  <g>
    <path class="st4" d="M180.2,37.8h-47.4c-.8,0-1.3-.6-1.3-1.3V14.1c0-.8.6-1.3,1.3-1.3h47.4c.8,0,1.3.6,1.3,1.3v22.3c0,.8-.6,1.3-1.3,1.3Z"/>
    <g>
      <polygon class="st6" points="142.8 22.3 143.9 22.3 143.3 20.9 142.8 22.3"/>
      <polygon class="st6" points="148.9 27.3 148.9 28 150.9 28 150.9 28.7 148.9 28.7 148.9 29.5 151.1 29.5 152.1 28.4 151.1 27.3 148.9 27.3"/>
      <polygon class="st6" points="164.1 20.9 163.5 22.3 164.7 22.3 164.1 20.9"/>
      <polygon class="st6" points="154.5 29.9 154.5 26.9 153.2 28.4 154.5 29.9"/>
      <path class="st6" d="M157.1,27.8c0-.3-.3-.5-.6-.5h-1.1v.9h1.2c.3,0,.5-.2.5-.5Z"/>
      <path class="st6" d="M160.8,28.1c.1,0,.2-.2.2-.4,0-.2,0-.3-.2-.4-.1,0-.3,0-.4,0h-1.1v.8h1.1c.2,0,.3,0,.4,0Z"/>
      <path class="st6" d="M168.4,19.5v.6l-.3-.6h-2.5v.6l-.3-.6h-3.4c-.6,0-1.1.1-1.5.3v-.3h-2.4v.3c-.3-.2-.6-.3-1-.3h-8.5l-.6,1.3-.6-1.3h-2.7v.6l-.3-.6h-2.3l-1.1,2.5-1.2,2.7h0c0,0,0,0,0,0h2.7c0,0,.3-.8.3-.8h.7l.3.8h3v-.6l.3.6h1.5l.3-.6v.6h0c0,0,1.2,0,1.2,0h6.1v-1.4h.1q.1,0,.1.2v1.2h3.8v-.3c.3.2.8.3,1.4.3h1.6l.3-.8h.7l.3.8h3v-.8l.5.8h2.5v-5.1h-2.4ZM150.5,23.9h-.8v-2.9h0c0,.1,0,.1,0,.1l-1.2,2.8h-.8l-1.3-2.9v2.9h-1.8l-.4-.8h-1.8l-.4.8h-.9l1.6-3.7h1.3l1.5,3.5v-3.5h1.4c0,0,0,0,0,0l.7,1.4.5,1.1h0c0,0,1.1-2.6,1.1-2.6h1.4v3.7h0ZM154.2,21h-2v.7h2v.7h-2v.7h2v.8h-2.9v-3.7h2.9v.8h0ZM157.9,22.4s0,0,0,0c0,0,0,0,0,0,.1.1.2.3.2.6,0,0,0,0,0,0,0,0,0,0,0,0s0,0,0,0c0,0,0,0,0,0v.7h-.8v-.4c0-.2,0-.5-.2-.7,0,0,0,0-.2-.1,0,0-.2,0-.5,0h-.9v1.3h-.9v-3.7h2c.5,0,.8,0,1.1.2.3.2.4.4.4.8,0,.6-.4.9-.6,1,0,0,.2,0,.3.2ZM159.7,23.9h-.9v-3.7h.9v3.7ZM169.9,23.9h-1.2l-1.7-2.8v2.3h0s0,.5,0,.5h-.9s-.9,0-.9,0l-.3-.8h-1.8l-.3.8h-1c-.4,0-.9-.1-1.3-.4-.3-.3-.5-.7-.5-1.4s.1-1.1.5-1.5c.3-.3.7-.4,1.3-.4h.8v.8h-.8c-.3,0-.5,0-.7.2-.2.2-.3.5-.3.8s0,.7.3.9c.2.2.4.2.6.2h.4l1.2-2.9h1.3l1.5,3.5v-1.4h0v-2.2h1.3l1.5,2.6v-2.6h.9v3.6h0,0Z"/>
      <path class="st6" d="M157.2,21.8s0,0,0,0c0,0,.1-.2,0-.4,0,0,0,0,0,0,0,0,0,0,0,0h0c0,0,0-.1-.2-.2-.1,0-.3,0-.4,0h-1.1v.8h1.1c.2,0,.3,0,.4,0,0,0,0,0,0,0h0s0,0,0,0Z"/>
      <path class="st6" d="M173,29.2c0-.4-.1-.7-.3-1v-2.4h0v-.2h-2.5c-.3,0-.7.3-.7.3v-.3h-2.4c-.4,0-.8.1-1.1.3v-.3h-4.3v.3c-.3-.3-.9-.3-1.2-.3h-2.8v.3c-.3-.3-.9-.3-1.2-.3h-3.2l-.7.8-.7-.8h-4.7v5.3h4.6l.8-.8.7.8h2.9v-1.2h.3c.4,0,.8,0,1.2-.2v1.3h0c0,.1,2.4.1,2.4.1h0v-1.4h.1q.2,0,.2.2v1.1h0c0,.1,7.1.1,7.1.1.5,0,.9-.1,1.2-.3v.2h0c0,.1,2.3.1,2.3.1.5,0,.9,0,1.3-.3.5-.3.8-.8.8-1.4,0,0,0,0,0,0h0s0,0,0-.1ZM156.5,28.9h-1.1v1.4h-1.7l-1-1.2h0s0,0,0,0l-1.2,1.2h-3.4v-3.7h3.4l.9,1,.2.2h0s1.1-1.2,1.1-1.2h2.8c.5,0,1.1.1,1.4.7,0,.1,0,.2,0,.4,0,1.1-.7,1.3-1.5,1.3ZM161.7,28.8c.1.2.2.4.2.7v.7h-.9v-.5c0-.2,0-.6-.2-.7-.1-.2-.3-.2-.6-.2h-.9v1.4h-.9v-3.7h2c.4,0,.8,0,1.1.2.3.2.5.4.5.8s-.4.9-.6,1c.3.1.4.2.5.3ZM165.4,27.3h-2v.7h2v.7h-2v.7h2v.8h-2.9v-3.7h2.9v.8ZM167.6,30.2h-1.7v-.8h1.7c.2,0,.3,0,.4-.1,0,0,.1-.2.1-.3s0-.2-.1-.3c0,0-.2-.1-.3-.1-.8,0-1.8,0-1.8-1.2s.3-1.1,1.3-1.1h1.7v.9h-1.6c-.2,0-.3,0-.4,0-.1,0-.1.2-.1.3,0,.2.1.2.2.3.1,0,.2,0,.3,0h.5c.5,0,.8.1,1,.3.2.2.3.4.3.8,0,.8-.5,1.2-1.4,1.2ZM172.1,29.9c-.2.2-.6.4-1.1.4h-1.7v-.8h1.7c.2,0,.3,0,.4-.1,0,0,.1-.2.1-.3s0-.2-.1-.3c0,0-.2-.1-.3-.1-.8,0-1.8,0-1.8-1.2s.3-1,1-1.1c0,0,.2,0,.3,0h1.7v.9h-1.6c-.2,0-.3,0-.4,0,0,0-.1.2-.1.3,0,.2,0,.2.2.3.1,0,.2,0,.3,0h.5c.2,0,.4,0,.6,0,.1,0,.6.3.7.8,0,0,0,.1,0,.2,0,.3-.1.6-.3.8Z"/>
    </g>
  </g>
  <path class="st5" d="M48,54.4c0-.8-.3-1.6-.9-2.2-.6-.6-1.4-.9-2.2-.9,0,0,0,0,0,0-1.8,0-3.2,1.4-3.2,3.2s1.4,3.2,3.2,3.2,3.2-1.4,3.2-3.2,0,0,0,0Z"/>
  <path class="st3" d="M41.1,55.8c-.5.5-.9.7-1.4.7-1.1,0-2-.9-2-2.1s.2-1.1.6-1.5h0c.3-.3.8-.5,1.3-.5s1,.2,1.5.7v-1.4c-.5-.2-.9-.4-1.5-.4-.8,0-1.5.4-2.1.9h0c-.2.1-.3.3-.4.5-.4.5-.7,1.2-.7,1.9,0,1.8,1.4,3.1,3.2,3.1s0,0,0,0c0,0,0,0,0,0,.5,0,.9-.1,1.5-.4v-1.4c0,0,0,0,0,0h0Z"/>
  <polygon class="st3" points="52 52.1 52 52.1 50.7 55.5 49.1 51.5 47.8 51.5 50.3 57.6 51 57.6 53.6 51.5 52.3 51.5 52 52.1"/>
  <polygon class="st3" points="54.1 54.1 54.1 57.4 57.4 57.4 57.4 57.4 57.4 56.5 56.4 56.5 55.3 56.5 55.3 55.4 55.3 54.8 57.4 54.8 57.4 53.8 55.3 53.8 55.3 52.5 57.4 52.5 57.4 51.5 54.1 51.5 54.1 54.1"/>
  <path class="st3" d="M26.5,51.5h-1.7v6h1.7c.9,0,1.6-.2,2.1-.7.7-.5,1.1-1.4,1.1-2.3,0-1.8-1.3-3-3.2-3ZM27.9,56c-.4.3-.9.5-1.6.5h-.4v-4h.3c.7,0,1.2.1,1.6.5.4.4.7.9.7,1.5,0,.5-.2,1.2-.6,1.5Z"/>
  <rect class="st3" x="30.3" y="51.5" width="1.2" height="6"/>
  <path class="st3" d="M34.4,53.8c-.7-.2-.9-.4-.9-.7s.4-.7.9-.7.7.1,1,.5l.6-.8c-.5-.4-1.1-.7-1.8-.7-1,0-1.9.7-1.9,1.7s.4,1.2,1.5,1.6c.5.2.7.2.8.4.2.1.4.4.4.6,0,.5-.4.9-.9.9s-1-.3-1.3-.8l-.7.7c.5.8,1.2,1.2,2.1,1.2,1.2,0,2.1-.8,2.1-2,0-1-.4-1.5-1.7-2Z"/>
  <path class="st3" d="M60.7,54.9c.9-.2,1.4-.8,1.4-1.7s-.8-1.8-2.1-1.8h-1.8v6h1.2v-2.4h.2l1.6,2.4h1.4l-1.9-2.5ZM59.7,54.2h-.4v-1.8h.4c.7,0,1.2.3,1.2.9,0,.6-.4.9-1.2.9Z"/>
  <g>
    <path class="st4" d="M123.7,66.9h-47.4c-.8,0-1.3-.6-1.3-1.3v-22.3c0-.8.6-1.3,1.3-1.3h47.4c.8,0,1.3.6,1.3,1.3v22.3c0,.8-.6,1.3-1.3,1.3Z"/>
    <g>
      <path class="st10" d="M99.1,54.3v3.9h-1.2v-9.5h3.3c.8,0,1.5.3,2.1.8.6.5.9,1.2.9,2,0,.8-.3,1.5-.9,2-.6.5-1.3.8-2.1.8h-2ZM99.1,49.8v3.3h2.1c.4,0,.9-.2,1.2-.5.3-.3.5-.7.5-1.2s-.2-.9-.5-1.2c-.3-.3-.8-.5-1.2-.5h-2.1ZM106.9,51.4c.9,0,1.6.2,2.1.7s.8,1.1.8,2v4h-1.2v-.9h0c-.5.7-1.2,1.1-2,1.1s-1.3-.2-1.8-.6c-.5-.4-.7-1-.7-1.6,0-.7.3-1.2.8-1.6s1.2-.6,2-.6,1.3.1,1.8.4v-.3c0-.4-.2-.8-.5-1.1-.3-.3-.7-.4-1.2-.4-.7,0-1.2.3-1.6.9l-1.1-.7c.6-.9,1.5-1.3,2.7-1.3ZM105.4,56.2c0,.3.1.6.4.8.3.2.6.3.9.3.5,0,1-.2,1.4-.6.4-.4.6-.8.6-1.3-.4-.3-.9-.5-1.6-.5s-.9.1-1.2.4c-.3.2-.5.5-.5.9ZM116.6,51.6l-4.1,9.4h-1.3l1.5-3.3-2.7-6.1h1.3l1.9,4.7h0l1.9-4.7h1.3Z"/>
      <g>
        <path class="st7" d="M94.2,53.5c0-.4,0-.7,0-1.1h-5.2v2.1h3c-.1.7-.5,1.3-1.1,1.7v1.4h1.8c1-1,1.6-2.4,1.6-4Z"/>
        <path class="st11" d="M88.9,58.8c1.5,0,2.7-.5,3.6-1.3l-1.8-1.4c-.5.3-1.1.5-1.9.5-1.4,0-2.6-1-3.1-2.3h-1.8v1.4c.9,1.9,2.8,3,4.9,3Z"/>
        <path class="st8" d="M85.8,54.4c-.2-.7-.2-1.4,0-2.1v-1.4h-1.8c-.8,1.5-.8,3.4,0,4.9l1.8-1.4Z"/>
        <path class="st13" d="M88.9,50c.8,0,1.5.3,2.1.8l1.6-1.6c-1-.9-2.3-1.4-3.7-1.4-2.1,0-4,1.2-4.9,3l1.8,1.4c.4-1.3,1.6-2.3,3.1-2.3Z"/>
      </g>
    </g>
  </g>
  <g>
    <path class="st4" d="M180.1,66.9h-47.4c-.8,0-1.3-.6-1.3-1.3v-22.3c0-.8.6-1.3,1.3-1.3h47.4c.8,0,1.3.6,1.3,1.3v22.3c0,.8-.6,1.3-1.3,1.3Z"/>
    <g>
      <path d="M145.8,49c.4-.5.7-1.2.6-1.9-.6,0-1.3.4-1.7.9-.4.4-.7,1.1-.6,1.8.7,0,1.3-.3,1.8-.8M146.4,50c-1,0-1.8.5-2.3.5s-1.2-.5-1.9-.5c-1,0-1.9.6-2.4,1.5-1,1.8-.3,4.5.7,5.9.5.7,1.1,1.5,1.9,1.5.7,0,1-.5,1.9-.5s1.1.5,1.9.5,1.3-.7,1.8-1.5c.6-.8.8-1.6.8-1.7,0,0-1.6-.6-1.6-2.4,0-1.5,1.2-2.2,1.3-2.2-.7-1-1.7-1.1-2.1-1.2"/>
      <path d="M154.8,48c2.1,0,3.6,1.5,3.6,3.5s-1.5,3.6-3.6,3.6h-2.3v3.7h-1.7v-10.8h4.1ZM152.4,53.7h1.9c1.5,0,2.3-.8,2.3-2.1s-.8-2.1-2.3-2.1h-1.9v4.3h0ZM158.8,56.6c0-1.4,1.1-2.2,2.9-2.3h2.2v-.7c0-.9-.6-1.4-1.6-1.4s-1.5.5-1.7,1.1h-1.5c0-1.4,1.3-2.5,3.3-2.5s3.1,1,3.1,2.6v5.4h-1.5v-1.3h0c-.5.9-1.5,1.4-2.5,1.4-1.6,0-2.7-1-2.7-2.4ZM163.9,55.8v-.6h-1.9c-1,.2-1.5.6-1.5,1.3s.6,1.1,1.4,1.1,2-.8,2-1.8h0ZM167,61.7v-1.3c.1,0,.4,0,.5,0,.7,0,1.1-.3,1.4-1.1,0,0,.1-.5.1-.5l-2.9-7.9h1.7l2,6.4h0l2-6.4h1.7l-2.9,8.3c-.7,1.9-1.5,2.5-3.1,2.5-.1,0-.5,0-.7,0h0Z"/>
    </g>
  </g>
</svg>