<?xml version="1.0" encoding="UTF-8"?> <svg xmlns="http://www.w3.org/2000/svg" xmlns:xlink="http://www.w3.org/1999/xlink" version="1.1" id="Layer_1" x="0px" y="0px" width="1920" height="1080" viewBox="0 0 1920 1080" style="enable-background:new 0 0 1920 1080;" xml:space="preserve"> <style type="text/css"> .st0{opacity:0.5;} .st1{fill:#5B6B8A;} </style> <g class="st0"> <g> <path class="st1" d="M1920.5,472.5c-25-13.1-51.1-23.3-79-28.4c-9.2-1.7-18.3-3.6-27.7-3.5c-5.9,0.1-11.5,1.5-16.7,4.5 c-5.6,3.2-11.3,6.4-16.9,9.7c-7.1,4.2-14.7,6-22.9,6c-65.3-0.1-130.6-0.1-196-0.2c-8,0-16,0-24,0.2c-9.1,0.3-17.5-2-25.2-6.6 c-2.6-1.5-5.3-2.8-7.8-4.5c-11.8-8.4-24.6-10.2-38.8-8.1c-33.6,5.1-64.9,16.5-95,32c-14,7.2-19.8,18.6-23.8,33.2 c5.5-2.5,10.5-4.8,15.5-7.2c29.8-14.1,60.8-24.2,93.4-29.5c12.2-2,24.5-2,36.8-1.5c3.3,0.1,6.6,1.1,9.6,2.7 c12.1,6.6,25.1,8.5,38.6,8c8.3-0.3,16.6-0.5,24.9-0.7c30.4-0.6,60.9-1.4,91.3-1.5c10.3-0.1,20.6,0.4,30.8,1.1 c6,0.4,12.2,0.1,18.3,0c8.8-0.2,17.5,2.4,26.3,1.3c11.1-1.3,22.2,0.5,33.3-0.5c6.9-0.6,13.6-1.9,19.7-5.1 c11.7-6.1,24.1-7,36.9-5.7c31.8,3.2,62.2,11.8,91.8,23.8c2.1,0.9,4.3,1.7,6.5,2.5c0,1.3,0,2.7,0,4c-4.2-0.7-7.8-2.7-11.6-4.3 c-27.8-11.1-56.4-19-86.2-22.4c-12.4-1.4-24.6-0.4-35.9,5.8c-7,3.8-14.7,5.2-22.7,5.1c-28.3-0.3-56.6,0-84.9-1.4 c-36.1-1.8-72.1,0.5-108.1,0.6c-15,0.1-29.9,1.2-44.9,0.6c-6.9-0.3-13.6-1.7-19.7-4.9c-11.4-5.8-23-6.6-35.7-5.4 c-37.9,3.6-73.3,15.5-107.6,31.2c-9.2,4.2-18.1,9.1-27.2,13.6c-5.1,2.6-8.7,6.6-10.9,11.9c2.2,1,3.6-0.5,5.1-1.2 c29.8-13.3,59.7-26.3,91.2-35c15.2-4.2,30.5-7.6,46.4-8.8c12.9-1,22.4,3.1,31.3,11.5c19.8,18.6,37.8,38.9,57.1,58 c9.8,9.7,21.6,14.5,35.7,14.6c36.3,0.2,72.6,0.2,108.9,0c14.6-0.1,26.7-5.2,36.5-15.4c18.6-19.3,37.6-38.1,56.4-57.1 c11.5-11.6,24.8-13.8,40.3-11.1c18,3.1,35.8,6.9,53.1,12.8c11.2,3.8,22.2,8,33.3,12c0,1,0,2,0,3c-13.3-5.1-26.5-10.2-40.1-14.3 c-11.9-3.6-23.7-7.1-35.9-9.2c-7.7-1.3-15.4-3.1-23.2-3.2c-8.7-0.2-16.4,3.3-23.1,9.4c-18.6,16.7-34.9,35.7-52.8,53 c-5.7,5.5-10.7,11.7-17.7,15.9c-6.5,3.9-13.4,6.2-20.7,6.2c-40.5,0.2-81,0.1-121.5,0.1c-12.2,0-22.2-5.6-30.2-13.8 c-19.7-20.2-39.4-40.4-59.5-60.1c-6.3-6.2-13.8-9.7-23.1-9.9c-17.4-0.5-33.9,4-50.3,8.7c-29.5,8.3-57.6,20.8-85.9,32.3 c-14.1,5.7-20.4,15.9-25.3,28.1c-14.2,35.5-27.4,71.3-40.8,107.1c-14,37.6-25,76-34.4,114.9c-3.4,14-6.1,28.1-8.4,42.4 c-1.6,10.3-3.5,20.6-4.9,30.8c-2.3,17.1-2.6,34.5-2.2,51.8c0.4,15.1,3.4,29.6,8.2,43.8c5.8,16.9,16.8,30.2,30.3,41.9 c11.7,10.2,25.3,16.5,39.3,22.2c3.4,1.4,6.5,2.4,10.6,0.1c9.9-5.4,18.3-12.6,26.7-20c12.2-10.7,24.3-21.6,35.3-33.5 c13.3-14.4,27-28.4,41.3-41.9c15.4-14.5,30.8-29.2,48.7-40.8c10.3-6.7,21.5-11.3,34.1-12.3c15-1.2,29.9-2.3,44.9-3.1 c21.4-1.2,42.7-2.3,64.1-1.6c8.6,0.3,17-0.9,25.5-0.8c29.6,0.3,59.3,0.1,88.9,0.8c16.4,0.4,32.8,0.8,49.1,2 c13.2,1,26.6,1.3,39.6,4.2c13.7,3,25.3,10.4,36.1,19c23.2,18.4,44.8,38.8,65.2,60.2c4,4.2,7.4,8.8,12,12.4c0,1.7,0,3.3,0,5 c-9.3-8.7-18.4-17.6-26.9-27.2c-6.5-7.3-13.9-13.7-21.2-20.3c-7.4-6.7-15.2-13.1-22.7-19.8c-14-12.4-29.3-22.5-47.9-26.4 c-6.2-1.3-12.7-1.8-19-2.2c-7.9-0.6-15.9-0.5-23.8-1.1c-59.1-4.7-118.3-2.2-177.4-2.5c-19-0.1-38,1.5-57,2.7 c-10.8,0.6-21.6,1.7-32.4,3c-12.6,1.6-23.5,7.6-33.8,14.6c-10.4,7.2-19.8,15.8-29.2,24.1c-11.3,10-22.7,19.9-32.9,31 c-14.5,15.8-29.7,31-45.1,45.8c-12.2,11.7-24.7,23-39.3,31.9c-7.2,4.4-13.1,1.2-19-1.1c-18.1-7-34-17.6-47.3-32 c-14.2-15.3-22.6-33.2-26.1-53.8c-3.5-20.5-3.1-41-1.6-61.4c1.4-19.8,4.8-39.5,8.5-59.1c6.8-35.5,16.1-70.3,26.7-104.9 c8-26.1,17.9-51.6,27.5-77.1c10.7-28.5,20.1-57.5,34-84.7c3.2-6.3,6.7-12.4,10.1-18.5c1.8-3.2,4.6-5.3,7.9-6.8 c5.6-2.6,9.4-6.9,11.5-12.8c2.2-6,4.4-12,7.3-17.8c3.4-6.8,10.4-9.5,16.5-13.1c28.1-16.3,58.5-26.4,90.4-31.6 c12.5-2,25.3-3.6,37.7,1.5c5.1,2.1,9.5,5.3,14.2,8.2c9.4,5.7,19.3,9,30.5,8.8c47.5-0.9,94.9-0.7,142.4-0.6c22.6,0,45.3,0,67.9,0.7 c13.8,0.5,25.3-4.8,36-12.2c12.8-8.8,26.8-9.1,41.3-7.3c32.1,4,62.2,14.4,90.9,29.2c0.4,0.2,1,0.1,1.5,0.1 C1920.5,469.2,1920.5,470.9,1920.5,472.5z"></path> <path class="st1" d="M1920.5,584.4c-9.4-0.5-18.7,5.5-23.1,14.3c-6.1,12.2-1.8,24,4,30.1c5.1,5.4,11,9.5,19.1,8.6c0,1.3,0,2.7,0,4 c-13.3-0.8-23.1-6.9-27.5-19.7c-6.7-19.6,5.7-41.8,27.5-40.2C1920.5,582.4,1920.5,583.4,1920.5,584.4z"></path> <path class="st1" d="M1464.7,748.3c-0.8-40.5,32.1-75,77.2-73.2c36.6,1.5,70.1,33.5,69.9,74.2c-0.2,37-32,76-79.5,73.1 C1498,820.3,1463.5,789.6,1464.7,748.3z M1537.1,677.2c-40,0.4-71.2,33.6-70.3,72.9c0.9,37.3,31.9,71.9,73.6,69.9 c37.8-1.8,69.1-30.4,68.9-72.1C1609.2,708.1,1578,677,1537.1,677.2z"></path> <path class="st1" d="M1819.5,738.4c0,34.8-28.7,63.5-64.7,62.6c-34.4-0.9-61-26.9-61.1-62.9c-0.1-35,27-62.5,63.2-62.8 C1791.5,675.1,1819.6,703.6,1819.5,738.4z M1696.4,738.4c0.1,31.5,24,59.9,59.9,60.3c33.7,0.4,60.8-24.7,60.9-61 c0.1-36.1-26.6-60.3-67.3-59.1C1721.7,679.3,1696.4,705.9,1696.4,738.4z"></path> <path class="st1" d="M1430.4,548.6c35.3,0.3,62.9,27,62.9,63c0,35.3-28.1,62.7-63.5,62.6c-35.7-0.1-62.6-27.3-62-64.9 C1368.4,577,1392.8,548.8,1430.4,548.6z M1490.5,611.5c0-34.5-25.8-60.9-59.8-60.7c-32.6,0.1-60.7,24.5-60.8,60.4 c-0.1,35.7,28.4,60.3,60.6,60.4C1467.8,671.7,1493.1,639,1490.5,611.5z"></path> <path class="st1" d="M1833.5,668.8c0-18.4,12.3-29,32.8-29.6c12.8-0.3,28.2,12.6,28.3,29.5c0,16.9-13.6,30.2-30.7,30.7 C1847.1,699.8,1832.7,685.2,1833.5,668.8z M1890.5,669.4c0-17.6-10.2-27-29.3-27.1c-13.2,0-25,13.8-24.7,28.8 c0.3,12.3,14.2,25.1,27.3,25.1C1878.9,696.3,1890.5,684.6,1890.5,669.4z"></path> <path class="st1" d="M1805.9,581.4c15.5-2.2,30.5,12.3,30.4,30.4c0,14.5-12.7,30-32,29.7c-14.8-0.3-29.6-14.4-29-31.4 C1775.9,595.3,1788.3,579.2,1805.9,581.4z M1832.5,611c0-17.3-10.4-26.6-29.6-26.6c-12.1,0-24.3,13.2-24.3,26.3 c0,13.9,13.2,27.5,26.8,27.6C1820.8,638.4,1832.5,626.6,1832.5,611z"></path> <path class="st1" d="M1862.9,523.5c18.4-0.2,31.6,13.3,31.5,30c-0.1,17.2-12.9,29.9-30.7,30.8c-15.1,0.8-31.3-15-30.4-32.5 C1834.1,537.5,1847.4,523.2,1862.9,523.5z M1864.3,580.5c14.2,0,27.3-12.5,27-26c-0.3-17.5-12.9-28.3-27.5-27.8 c-17.3,0.5-26.2,10.3-27.1,27.4C1836,568,1849.8,580.6,1864.3,580.5z"></path> <path class="st1" d="M1606.5,611.9c0,11.5-9,20.7-20.4,20.4c-12.9-0.3-20.5-8.6-20.3-20.4c0.2-12.3,6.3-20.3,20.9-20.5 C1598.1,591.3,1606.6,600.2,1606.5,611.9z M1586.7,595.4c-10.3,0-17.4,6.6-17.3,16.3c0.1,9.7,6.8,16.9,16.5,17.3 c10.3,0.3,17.4-7.5,17.6-17.2C1603.6,602.3,1596.4,595.4,1586.7,595.4z"></path> <path class="st1" d="M1727.5,612c0,11.6-8.5,20.4-19.6,20.4c-12.2,0-20.6-9-20.5-20.9c0.1-11.2,8.6-20.2,20.4-20.1 C1717.7,591.5,1729,598.8,1727.5,612z M1708.4,595.4c-10-1.7-17.3,8-17.5,16.2c-0.1,8.8,8.4,17.7,17,17.7 c9.5,0.1,16.6-8.2,16.6-19.5C1724.6,601.6,1717.7,595.4,1708.4,595.4z"></path> <path class="st1" d="M1495.9,770.3c-4.5,0-9-0.2-13.5,0.1c-4.7,0.3-7.2-2.6-7.7-6.2c-1.3-10.1-1.8-20.4-0.2-30.6 c0.8-5.2,3.7-7.2,8.9-7.2c8.7,0.1,17.3,0.1,26,0c6,0,6.8-0.8,6.8-7c0-7.5,0-15,0-22.5c0-10.2,1.2-11.9,11.3-12.5 c8.6-0.5,17.3-0.8,25.8,1c4.5,0.9,6.8,4.5,6.8,9.1c0.1,8,0,16,0,24c0,7.8,0.1,7.9,7.7,7.9c7.8,0,15.7,0.4,23.5-0.1 c5.8-0.4,10.1,3.5,10.3,10c0.2,8.2,1.5,16.3,0.2,24.6c-1.1,6.6-3.2,9.4-9.9,9.4c-8.3,0-16.7,0-25,0c-4.4,0-7,1.3-6.7,6.5 c0.4,8.1,0.1,16.3,0.1,24.5c0,7.2-2.3,10.1-9.4,10.9c-9.3,1-18.6,1-27.9-0.2c-4-0.5-6.7-3-6.7-7.6c0.1-8.3,0-16.6,0-25 c0-8.6-0.4-9.1-8.9-9.1C1503.6,770.3,1499.7,770.3,1495.9,770.3z M1577.4,767.2c4.3,0,8.7,0,13,0c6,0,7-1.4,8.2-7.4 c1.7-7.8-0.1-15.5-0.4-23.1c-0.2-5.6-0.8-7-7.7-7.1c-8.5-0.1-17,0-25.5,0c-6.7,0-8.1-1.4-8.1-8.2c0-8.7-0.1-17.3,0.1-26 c0.1-4-1.6-6.2-5.3-6.9c-8-1.6-16.3-1.9-24.2-0.7c-6.8,1-8.2-0.5-8.1,9.8c0.1,7.8,0.1,15.6,0,23.5c-0.1,6.2-2.5,8.5-8.7,8.6 c-7.8,0-15.7,0-23.5,0c-7.6,0-9.8,2-10.3,9.5c-0.4,6.2,0.3,12.4-0.2,18.6c-0.5,6.7,2.9,9.6,9.8,9.6c8.2,0,16.3-0.1,24.5,0 c6.1,0.1,8.3,2.3,8.4,8.3c0,8.8,0.1,17.6,0,26.5c-0.1,3.7,0.8,5.8,4.9,6.4c8.9,1.5,17.8,1.3,26.7,0.1c4.5-0.6,6.2-3,6-7.4 c-0.2-8.8-0.2-17.6,0-26.5c0.1-5.8,1.8-7.4,7.5-7.4C1568.7,767.2,1573.1,767.2,1577.4,767.2z"></path> <path class="st1" d="M1756.7,688.1c25.2-0.3,49.6,18.7,49.7,49.5c0.1,28.4-20.4,50.4-50,50.3c-31.4-0.2-49.9-24.6-49.8-50.3 C1706.8,710,1728.9,688.1,1756.7,688.1z M1802.5,738c2.8-21.8-16.9-46.7-45.7-46.8c-24.5,0-46.6,17.8-47,46.7 c-0.4,26.5,21.5,46.6,46.1,46.4C1782.9,784.2,1802.5,764.9,1802.5,738z"></path> <path class="st1" d="M1480.7,612.3c0.8,24.4-19.1,49.8-50.4,49.7c-27.4-0.2-49.5-21.5-49.4-49.7c0.1-30.4,23.8-50.1,50-50.1 C1459.1,562.3,1480.7,583.9,1480.7,612.3z M1384.4,611.3c0,27.4,19.7,47.2,46.7,47.2c25.8,0,46.4-20.4,46.5-46.2 c0.2-25.9-20.8-46.8-47.1-46.9C1405.3,565.2,1384.4,586,1384.4,611.3z"></path> </g> <g> <g> <path class="st1" d="M1682.6,509.7c-0.2-1.7-1.1-2.6-2-3.2c-0.2-0.1-0.3-0.2-0.5-0.3l0,0c-0.1-0.1-0.2-0.1-0.4-0.1 c0,0-0.1,0-0.1-0.1l0,0c-0.9-0.3-1.6-0.3-1.6-0.3c-0.1,0-0.2,0-0.3,0c-2.3-0.1-4.6-0.2-6.9-0.4c-3-0.2-6-0.4-9-0.6 c-2-0.1-3.9-0.2-5.9-0.4c-2.6-0.2-5.2-0.3-7.8-0.5c-1.3-0.1-2.7,0.1-4-0.2c-0.1-0.6-0.3-1.1-0.3-1.7c-0.2-1.3-0.7-2.5-1.7-3.6 c-1.2-1.3-2.7-2.1-4.4-2.3c-2.3-0.2-4.6-0.4-7-0.6c-0.5,0-1-0.2-1.6,0c-1.2,0.2-2,1.7-1.5,2.8c0.5,0.9,1.2,1.5,2.3,1.6 c2.4,0.2,4.9,0.3,7.3,0.5c1.2,0.1,1.8,0.6,2.2,1.8c0.2,0.9,0.4,1.7,0.5,2.6c0.2,1.1-0.2,2.3-1.3,2.8c-0.7,0.4-1.5,0.5-2.2,0.6 c-1.4,0.2-2.9,0.1-4.3,0.2c-1.6,0.1-3.2,0.2-4.8,0.7c-0.3,0.1-0.7,0.2-1,0.4l0,0c-0.1,0-0.2,0.1-0.3,0.1c-0.1,0-0.1,0.1-0.2,0.1 l0,0c-1.6,0.7-2.9,1.7-4.2,2.8c-1.4,1.2-2.3,2.9-3.4,4.4c-0.4,0.6-0.8,1.1-1.4,1.5c-0.6,0.4-1.2,0.6-1.9,0.8 c0.4,0.1,0.8,0.2,1.2,0.2c2.1,0.2,3.8-0.4,5.4-1.7c0.1-0.1,0.2-0.2,0.3-0.3c0.9-0.8,1.9-1.5,3.1-1.9c0.3-0.1,0.7-0.2,1-0.3 c0.9-0.2,2.7-0.3,3.4-0.1c-3.8,1.3-4.5,3.9-4.1,5.9c0.3-0.5,0.6-0.9,1-1.2c1.5-1,3-1.6,4.8-1.6h0.1l0,0c0,0,0,0,0.1,0 s0.4,0,0.6,0.1c0.3,0,0.6,0.1,0.9,0.3c0.4,0.2,0.7,0.4,1,0.8c0.1,0.2,0.2,0.4,0.3,0.6l0,0c0.2,0.8,0,1.4-0.8,2 c-0.2,0.2-0.4,0.3-0.6,0.4c-0.2,0.1-0.4,0.2-0.5,0.3c-0.6,0.3-1.2,0.4-1.8,0.5c-0.4,0.1-0.8,0.1-1.1,0.1 c-1.5,0.1-2.9-0.1-4.4-0.2c-2.5-0.2-5-0.4-7.4-0.1c-1.4,0.2-2.8,0.6-4,1.2c-1.3,0.8-2.3,1.9-2.9,3.3c-0.1,0.1-0.1,0.2-0.1,0.4 c0.4-0.3,0.8-0.7,1.2-0.9c0.9-0.5,1.8-0.7,2.8-0.9c2-0.3,4-0.3,5.9,0.4c0.4,0.1,0.8,0.2,1.2,0.3l0,0l0,0l0,0l0,0l0,0l0,0l0,0h0.1 h0.1h0.1h0.1c0,0,0,0,0.1,0h0.1l2.2,0.9h0.1h0.1c3.9,1.7,7.8,2.7,12,1.8c-1,0.9-2.1,1.5-3.4,1.9c-1.2,0.4-2.5,0.7-3.9,0.6l0,0 c0.1,0,1,0.7,2,1.2c0.5,0.2,1,0.4,1.6,0.5c1.7,0.3,3.4,0.3,5.1-0.2c1.6-0.5,3.1-1,4.6-1.5c1.1-0.4,2.1-0.5,3.4-0.5 c-1.6,2.1-2.6,4.2-1.4,6.8c1.2,2.6,3.4,3.4,6.2,3.4c-0.1,0.2-0.2,0.4-0.3,0.6l0,0c-0.3,0.5-0.4,0.9-0.4,0.9l0,0 c-0.1,0.9,0.3,1.8,1.1,2.3c1.8,1.2,4.6-0.4,4.8-2.4c0.1-0.6,0-1.1-0.2-1.7c4.6-0.3,9-0.7,13.6-1c-0.1,0.3-0.2,0.5-0.3,0.7 c-0.5,1.2,0.1,2.8,1.4,3.1c1,0.3,1.8-0.1,2.5-0.7c1.1-0.9,1.3-2.1,0.9-3.4c0.8-0.2,1.7-0.2,2.5-0.2c0.7,0,1.2-0.3,1.7-0.7 c0.7-0.7,0.5-2.2-0.5-2.6c-0.2-0.1-0.4-0.1-0.6-0.1l0,0l-20.8,1.3c-0.3,0-0.5,0-0.8,0c-0.4,0-0.8,0.1-1.2,0.1l0,0 c-1.3,0.1-2.7,0.2-4,0.2c-0.6,0-1.1-0.2-1.5-0.7c-1-1.1-0.6-2.5,0.3-3.4l0,0c0,0,0.2-0.2,0.4-0.4c0.2-0.1,0.4-0.3,0.6-0.3 c6.1-0.4,12.2-0.5,18.3-0.8c-0.6-1.1-0.8-2.2-1-3.3c-0.3-1.7-0.8-3.3-1.9-4.7c-0.4-0.5-1-0.8-1.6-1c-1.2-0.4-2.5-0.7-3.8-1.1 c-1-0.3-2-0.7-3-0.3c-1.6,0.5-2.9,1.3-4.2,2.4c-0.9,0.7-1.6,1.6-2.5,2.2c-1,0.7-2.1,1.1-3.3,1c-1-0.1-1.9-0.4-2.4-1.3 c-0.8-1.5-0.6-3.1-0.2-4.6c0.3-1,0.7-2,1-3c0.5-1.2,1-2.4,1.5-3.6s1.1-2.3,1.8-3.5c0.8-1.5,1.7-2.8,3.2-3.6 c1.6-0.8,3.2-0.9,4.9-0.2c0.8,0.3,1.7,0.6,2.5,0.9c0.9,0.3,1.9,0.6,2.8,0.9c1.9,0.7,3.9,1.3,5.8,2.1c2.1,0.8,4.3,1.5,6.4,2.3 c2.3,0.9,3.1,3.1,3.1,4.8c0,0.9-0.2,1.9-0.5,2.8c-0.4,1.6-0.7,3.3-1.2,5c-0.5,1.4-0.9,2.8-1.5,4.1c-0.3,0.6-0.6,1-1,1.6 c0.3,0,0.4,0,0.6,0c2.8-0.5,4.4-2.3,5.4-4.9c0.4-1.1,0.6-2.2,0.8-3.4c0.2-1.3,0.6-2.5,0.8-3.8c0.4-1.8,0.7-3.6,1.1-5.5 c0.2-1.1,0.5-2.1,0.6-3.2c0-0.1,0-0.2,0-0.3C1682.7,510.6,1682.6,510.2,1682.6,509.7z M1630.3,523.1 C1630.3,523.1,1630.2,523.1,1630.3,523.1C1630.2,523.1,1630.3,523.1,1630.3,523.1z M1630.7,523L1630.7,523L1630.7,523z M1630.5,523.1L1630.5,523.1L1630.5,523.1z M1629.4,523.2C1629.4,523.2,1629.3,523.2,1629.4,523.2 C1629.3,523.2,1629.4,523.2,1629.4,523.2z M1630.1,523.1C1630,523.1,1630,523.2,1630.1,523.1C1630,523.2,1630,523.1,1630.1,523.1 z M1629.9,523.2C1629.8,523.2,1629.8,523.2,1629.9,523.2C1629.8,523.2,1629.8,523.2,1629.9,523.2z M1629.6,523.2L1629.6,523.2 L1629.6,523.2z"></path> <path class="st1" d="M1670.6,523.6c0.6,0.1,1-0.1,1.1-0.6c0.2-0.5,0.4-1,0.6-1.5c0.5,0.2,1,0.3,1.4,0.5c0.5,0.1,0.8-0.1,1.1-0.8 c0.1-0.4,0-0.8-0.4-0.9c-0.3-0.1-0.6-0.3-0.9-0.3c-0.5-0.1-0.5-0.4-0.4-0.7c0.2-0.4,0.3-0.8,0.4-1.2c0.2-0.5,0.1-0.8-0.4-1 c-0.4-0.2-0.9,0-1.1,0.4c-0.2,0.5-0.4,0.9-0.5,1.4c-0.1,0.2-0.2,0.4-0.4,0.3c-0.3-0.1-0.7-0.2-1-0.3c-0.7-0.3-1,0-1.3,0.8 c-0.1,0.4,0.2,0.8,0.7,0.9c0.4,0.1,0.9,0.3,1.3,0.4c-0.2,0.6-0.4,1.1-0.6,1.6C1669.9,523.1,1670.1,523.5,1670.6,523.6z"></path> <path class="st1" d="M1653.5,518.2c0.7,0,1.3-0.6,1.3-1.3c0-0.6-0.5-1.2-1.2-1.2c-0.7,0-1.4,0.7-1.4,1.3 C1652.2,517.7,1652.8,518.2,1653.5,518.2z"></path> <polygon class="st1" points="1661.7,518.6 1663.7,519.3 1664,518.6 1662,517.9 "></polygon> <ellipse class="st1" cx="1656.7" cy="515.4" rx="1.2" ry="1.2"></ellipse> <ellipse class="st1" cx="1655.2" cy="512.2" rx="1.2" ry="1.2"></ellipse> <ellipse class="st1" cx="1652" cy="513.9" rx="1.2" ry="1.2"></ellipse> <path class="st1" d="M1621.4,530.7c-2.8,1.2-6.4,1.6-6.4,1.6s3.7,2.7,7.2,0.8c3.5-1.9,5.3-1.7,5.3-1.7S1624.2,529.6,1621.4,530.7 z"></path> </g> <path class="st1" d="M1632.4,522.4c0.3-0.1,0.5-0.3,0.8-0.5c0.8-0.7,1.1-1.3,0.8-2l0,0c-0.1-0.2-0.2-0.5-0.3-0.6 c-0.3-0.4-0.6-0.6-1-0.8c-0.3-0.1-0.6-0.2-0.9-0.3c-0.2,0-0.4-0.1-0.6-0.1c0,0,0,0-0.1,0l0,0c-0.1,0-0.1,0-0.1,0l0,0 c-1.8,0-3.4,0.6-4.8,1.6c-0.4,0.3-0.8,0.7-1,1.2c-0.3-1.9,0.3-4.6,4.1-5.9c-0.7-0.2-2.5-0.1-3.4,0.1c-0.4,0.1-0.7,0.2-1,0.3 c-1.1,0.4-2.1,1.1-3.1,1.9c-0.1,0.1-0.2,0.2-0.3,0.3c-1.6,1.3-3.4,1.9-5.4,1.7c-0.4,0-0.8-0.1-1.2-0.2c0.7-0.2,1.3-0.4,1.9-0.8 c0.6-0.4,1-1,1.4-1.5c1.1-1.5,1.9-3.2,3.4-4.4c1.3-1.1,2.6-2.1,4.2-2.8l0,0c0.1,0,0.1-0.1,0.2-0.1c0.1,0,0.2-0.1,0.3-0.1l0,0 c0.8-0.3,1.7-0.5,2.7-0.5c4,0,7.3,3.2,7.3,7.2C1636.2,518.8,1634.7,521.2,1632.4,522.4z"></path> </g> </g> </svg> 