<?xml version="1.0" encoding="utf-8"?>
<!-- Generator: Adobe Illustrator 28.5.0, SVG Export Plug-In . SVG Version: 9.03 Build 54727)  -->
<svg version="1.1" id="Layer_1" xmlns="http://www.w3.org/2000/svg" xmlns:xlink="http://www.w3.org/1999/xlink" x="0px" y="0px"
	width="220" height="92" viewBox="0 0 220 92" style="enable-background:new 0 0 220 92;" xml:space="preserve">
<style type="text/css">
	.st0{fill:#FFFFFF;}
	.st1{fill:#B5B5B5;}
	.st2{fill:#7F7F7F;}
	.st3{fill:#BCBCBC;}
	.st4{fill:#686868;}
	.st5{fill:#D6D6D6;}
	.st6{font-family:'Gilroy-Light';}
	.st7{font-size:8.5174px;}
</style>
<g>
	<g>
		<path class="st0" d="M91.56,54.52c-3.99,21.15-22.57,37.15-44.88,37.15C21.45,91.68,1,71.23,1,46C1,20.77,21.45,0.32,46.67,0.32
			c17.5,0,32.7,9.84,40.37,24.3H65.59c-5.04-4.46-11.66-7.17-18.92-7.17s-13.88,2.71-18.92,7.17c-5.91,5.23-9.63,12.87-9.63,21.38
			c0,10.82,6.02,20.23,14.89,25.07c4.06,2.21,8.71,3.47,13.66,3.47c0.5,0,1.01-0.01,1.51-0.04c0.51-0.01,1.01-0.05,1.5-0.12
			c5.52-0.8,9.77-5.55,9.77-11.3c0-3.41-1.5-6.48-3.87-8.57H91.56z"/>
		<path class="st0" d="M49.67,74.39c-0.49,0.07-0.99,0.11-1.5,0.12C48.68,74.48,49.18,74.44,49.67,74.39z"/>
	</g>
	<path class="st1" d="M65.59,24.62H53.74c-2.43,0-4.5,1.51-5.33,3.65c-0.03,0.08-0.06,0.16-0.09,0.25l-9.36,26.01l-1.62,4.49
		l-0.16,0.43c-0.39,1.14-0.6,2.37-0.6,3.65c0,6.31,5.11,11.42,11.42,11.42c0.05,0,0.1,0,0.16,0c-0.5,0.03-1,0.04-1.51,0.04
		c-4.95,0-9.6-1.26-13.66-3.47C24.14,66.23,18.13,56.82,18.13,46c0-8.51,3.72-16.15,9.63-21.38c5.04-4.46,11.66-7.17,18.92-7.17
		S60.55,20.16,65.59,24.62z"/>
	<path class="st2" d="M22.19,45.83c0,10.4,6.56,19.26,15.77,22.67c1.93,3.58,5.71,6.01,10.06,6.01h0.16c-0.5,0.02-1,0.04-1.51,0.04
		c-4.95,0-9.6-1.26-13.66-3.47C24.15,66.23,18.13,56.82,18.13,46c0-8.51,3.72-16.15,9.63-21.38c5.04-4.46,11.66-7.17,18.91-7.17
		c7.26,0,13.88,2.71,18.92,7.17h-7.61c-3.45-1.89-7.4-2.96-11.61-2.96C33.02,21.66,22.19,32.48,22.19,45.83z"/>
	<path class="st0" d="M136.29,17.84c0,1.36-1.11,2.47-2.47,2.47c-1.16,0-2.14-0.8-2.4-1.88c-0.05-0.19-0.07-0.38-0.07-0.59
		c0-0.2,0.02-0.4,0.07-0.59c0.26-1.08,1.24-1.88,2.4-1.88C135.18,15.37,136.29,16.48,136.29,17.84z"/>
	<path class="st3" d="M141.12,22.67c0,1.36-1.11,2.47-2.47,2.47c-0.04,0-0.08,0-0.12,0c-1.31-0.06-2.34-1.14-2.34-2.47
		c0-1.35,1.09-2.45,2.44-2.47h0.03C140.02,20.2,141.12,21.31,141.12,22.67z"/>
	<path class="st4" d="M141.12,13.01c0,1.36-1.11,2.47-2.47,2.47c-0.24,0-0.46-0.03-0.68-0.09c-1.03-0.29-1.79-1.25-1.79-2.38
		c0-0.73,0.32-1.39,0.82-1.84c0.44-0.39,1.01-0.63,1.65-0.63C140.02,10.54,141.12,11.64,141.12,13.01z"/>
	
		<ellipse transform="matrix(0.1602 -0.9871 0.9871 0.1602 102.8913 156.6163)" class="st5" cx="143.49" cy="17.84" rx="2.47" ry="2.47"/>
	<path class="st1" d="M68.32,43.01h-4.65v4.67c0,0.79-0.64,1.42-1.42,1.42h-1.61c-0.79,0-1.42-0.64-1.42-1.42v-4.67h-4.67
		c-0.79,0-1.42-0.64-1.42-1.42v-1.61c0-0.79,0.64-1.42,1.42-1.42h4.67v-4.67c0-0.79,0.64-1.42,1.42-1.42h1.61
		c0.79,0,1.42,0.64,1.42,1.42v4.67h4.3c-0.02,0.32-0.03,0.64-0.03,0.97C67.94,40.75,68.06,41.91,68.32,43.01z"/>
	<path class="st0" d="M86.96,28.65h6.53v21.76h-6.53v-2.05c-1.54,1.77-3.7,2.65-6.48,2.65c-2.87,0-5.32-1.11-7.35-3.33
		c-2.03-2.22-3.05-4.94-3.05-8.16c0-3.22,1.02-5.94,3.05-8.16c2.03-2.22,4.48-3.33,7.35-3.33c2.78,0,4.95,0.89,6.48,2.65V28.65z
		 M78.04,43.4c0.96,0.96,2.2,1.44,3.74,1.44c1.54,0,2.78-0.48,3.74-1.44c0.96-0.96,1.44-2.25,1.44-3.87c0-1.62-0.48-2.92-1.44-3.87
		c-0.96-0.96-2.2-1.44-3.74-1.44c-1.54,0-2.78,0.48-3.74,1.44c-0.96,0.96-1.44,2.25-1.44,3.87C76.6,41.15,77.08,42.44,78.04,43.4z"
		/>
	<path class="st0" d="M122.64,28.04c2.49,0,4.5,0.82,6,2.46c1.51,1.64,2.26,3.82,2.26,6.55v13.36h-6.53V37.61
		c0-1.1-0.27-1.97-0.81-2.61c-0.54-0.64-1.31-0.96-2.33-0.96c-1.07,0-1.91,0.36-2.5,1.09c-0.59,0.73-0.89,1.73-0.89,3v12.27h-6.53
		V37.61c0-1.1-0.27-1.97-0.81-2.61c-0.54-0.64-1.31-0.96-2.33-0.96c-1.07,0-1.91,0.36-2.5,1.09c-0.59,0.73-0.89,1.73-0.89,3v12.27
		h-6.53V28.65h6.53v2c1.19-1.74,3.13-2.61,5.83-2.61c2.52,0,4.42,0.96,5.7,2.87C117.66,29,119.77,28.04,122.64,28.04z"/>
	<rect x="135.39" y="28.65" class="st0" width="6.53" height="21.76"/>
	<path class="st0" d="M159.45,28.04c2.32,0,4.26,0.8,5.81,2.39c1.55,1.6,2.33,3.8,2.33,6.61v13.36h-6.53v-12.4
		c0-1.28-0.36-2.26-1.07-2.94c-0.71-0.68-1.62-1.02-2.72-1.02c-1.25,0-2.23,0.38-2.96,1.13c-0.73,0.75-1.09,1.87-1.09,3.35v11.88
		h-6.53V28.65h6.53v2.05C154.53,28.93,156.61,28.04,159.45,28.04z"/>
	<path class="st0" d="M190.7,31.37c-1.35-1.34-2.88-2.28-4.6-2.81v7.28c0.95,0.95,1.42,2.19,1.42,3.69c0,1.51-0.48,2.74-1.44,3.7
		c-0.96,0.96-2.15,1.44-3.57,1.44c-1.42,0-2.61-0.48-3.57-1.44c-0.96-0.96-1.44-2.19-1.44-3.7c0-1.51,0.48-2.74,1.44-3.7
		c0.03-0.03,0.06-0.06,0.1-0.09v-7.21c-1.76,0.52-3.33,1.47-4.71,2.84c-2.23,2.22-3.35,4.94-3.35,8.16c0,3.22,1.12,5.94,3.35,8.16
		c2.23,2.22,4.96,3.33,8.18,3.33c3.22,0,5.95-1.11,8.18-3.33c2.23-2.22,3.35-4.94,3.35-8.16C194.05,36.31,192.93,33.59,190.7,31.37z
		"/>
	<path class="st0" d="M210.49,28.04c2.32,0,4.26,0.8,5.81,2.39c1.55,1.6,2.33,3.8,2.33,6.61v13.36h-6.53v-12.4
		c0-1.28-0.36-2.26-1.07-2.94c-0.71-0.68-1.62-1.02-2.72-1.02c-1.25,0-2.23,0.38-2.96,1.13c-0.73,0.75-1.09,1.87-1.09,3.35v11.88
		h-6.53V28.65h6.53v2.05C205.58,28.93,207.65,28.04,210.49,28.04z"/>
	<text transform="matrix(1 0 0 1 142.9658 63.1396)" class="st0 st6 st7">Game On, Level Up</text>
	<path class="st1" d="M182.57,36.73L182.57,36.73c-1.21,0-2.18-0.98-2.18-2.18v-6.04c0-1.21,0.98-2.18,2.18-2.18l0,0
		c1.21,0,2.18,0.98,2.18,2.18v6.04C184.75,35.75,183.77,36.73,182.57,36.73z"/>
</g>
</svg>
