<?xml version="1.0" encoding="utf-8"?>
<!-- Generator: Adobe Illustrator 28.5.0, SVG Export Plug-In . SVG Version: 9.03 Build 54727)  -->
<svg version="1.1" id="Layer_1" xmlns="http://www.w3.org/2000/svg" xmlns:xlink="http://www.w3.org/1999/xlink" x="0px" y="0px"
	width="220" height="92" viewBox="0 0 220 92" style="enable-background:new 0 0 220 92;" xml:space="preserve">
<style type="text/css">
	.st0{fill:#16243F;}
	.st1{fill:#080D16;}
	.st2{font-family:'Gilroy-Light';}
	.st3{font-size:8.5955px;}
</style>
<g>
	<g>
		<path class="st0" d="M91.39,54.6c-4.03,21.35-22.77,37.5-45.29,37.5C20.64,92.09,0,71.46,0,46c0-25.46,20.64-46.1,46.09-46.1
			c17.66,0,33,9.93,40.74,24.52H65.18c-5.08-4.5-11.77-7.23-19.09-7.23S32.09,19.92,27,24.42C21.04,29.7,17.28,37.41,17.28,46
			c0,10.92,6.07,20.42,15.02,25.3c4.09,2.24,8.79,3.51,13.78,3.51c0.51,0,1.02-0.01,1.52-0.04c0.51-0.01,1.02-0.05,1.51-0.12
			c5.57-0.81,9.86-5.6,9.86-11.4c0-3.44-1.51-6.54-3.91-8.65H91.39z"/>
		<path class="st0" d="M49.12,74.65c-0.49,0.07-1,0.11-1.51,0.12C48.12,74.74,48.62,74.7,49.12,74.65z"/>
	</g>
	<path class="st1" d="M65.18,24.42H53.23c-2.45,0-4.54,1.53-5.37,3.68c-0.03,0.08-0.06,0.16-0.09,0.25L38.32,54.6l-1.63,4.53
		l-0.16,0.44c-0.39,1.15-0.6,2.39-0.6,3.68c0,6.37,5.16,11.52,11.52,11.52c0.05,0,0.1,0,0.16,0c-0.5,0.03-1.01,0.04-1.52,0.04
		c-4.99,0-9.69-1.27-13.78-3.51C23.36,66.42,17.28,56.92,17.28,46c0-8.59,3.76-16.3,9.72-21.58c5.08-4.5,11.77-7.23,19.09-7.23
		S60.1,19.92,65.18,24.42z"/>
	<path d="M21.39,45.83c0,10.49,6.62,19.44,15.92,22.88c1.95,3.61,5.76,6.06,10.15,6.06h0.16c-0.5,0.02-1.01,0.04-1.52,0.04
		c-4.99,0-9.69-1.27-13.78-3.5C23.36,66.42,17.29,56.92,17.29,46c0-8.59,3.76-16.3,9.72-21.57c5.08-4.5,11.77-7.23,19.09-7.23
		c7.33,0,14.01,2.73,19.09,7.23H57.5c-3.48-1.91-7.47-2.99-11.71-2.99C32.31,21.43,21.39,32.36,21.39,45.83z"/>
	<path class="st1" d="M136.53,17.58c0,1.38-1.12,2.49-2.49,2.49c-1.17,0-2.16-0.81-2.42-1.9c-0.05-0.19-0.07-0.39-0.07-0.59
		c0-0.2,0.02-0.4,0.07-0.59c0.27-1.09,1.25-1.9,2.42-1.9C135.41,15.09,136.53,16.21,136.53,17.58z"/>
	<path class="st1" d="M141.41,22.46c0,1.38-1.12,2.49-2.49,2.49c-0.04,0-0.08,0-0.12,0c-1.32-0.07-2.37-1.15-2.37-2.49
		c0-1.36,1.1-2.48,2.46-2.49h0.03C140.29,19.97,141.41,21.09,141.41,22.46z"/>
	<path class="st1" d="M141.41,12.7c0,1.38-1.12,2.49-2.49,2.49c-0.24,0-0.47-0.03-0.68-0.09c-1.04-0.3-1.81-1.26-1.81-2.4
		c0-0.74,0.32-1.4,0.83-1.85c0.44-0.4,1.02-0.64,1.66-0.64C140.29,10.21,141.41,11.33,141.41,12.7z"/>
	
		<ellipse transform="matrix(0.1602 -0.9871 0.9871 0.1602 103.4038 156.7025)" class="st1" cx="143.79" cy="17.58" rx="2.49" ry="2.49"/>
	<path class="st1" d="M67.94,42.98h-4.69v4.96c0,0.66-0.53,1.19-1.19,1.19h-2.12c-0.66,0-1.19-0.53-1.19-1.19v-4.96h-4.96
		c-0.66,0-1.19-0.53-1.19-1.19v-2.12c0-0.66,0.53-1.19,1.19-1.19h4.96v-4.96c0-0.66,0.53-1.19,1.19-1.19h2.12
		c0.66,0,1.19,0.53,1.19,1.19v4.96h4.34c-0.02,0.32-0.03,0.65-0.03,0.98C67.55,40.7,67.68,41.87,67.94,42.98z"/>
	<path class="st0" d="M86.75,28.49h6.59v21.96h-6.59v-2.06c-1.55,1.79-3.73,2.68-6.54,2.68c-2.9,0-5.37-1.12-7.42-3.36
		c-2.05-2.24-3.07-4.98-3.07-8.23c0-3.25,1.02-5.99,3.07-8.23c2.05-2.24,4.52-3.36,7.42-3.36c2.81,0,4.99,0.89,6.54,2.68V28.49z
		 M77.74,43.38c0.97,0.97,2.22,1.45,3.78,1.45c1.55,0,2.81-0.48,3.78-1.45c0.97-0.97,1.45-2.27,1.45-3.91
		c0-1.64-0.48-2.94-1.45-3.91c-0.97-0.97-2.23-1.45-3.78-1.45c-1.55,0-2.81,0.48-3.78,1.45c-0.97,0.97-1.45,2.27-1.45,3.91
		C76.29,41.11,76.78,42.41,77.74,43.38z"/>
	<path class="st0" d="M122.75,27.88c2.52,0,4.54,0.83,6.06,2.48c1.52,1.65,2.28,3.86,2.28,6.61v13.48h-6.59V37.54
		c0-1.11-0.27-1.99-0.81-2.63c-0.54-0.64-1.32-0.97-2.35-0.97c-1.08,0-1.93,0.37-2.53,1.1c-0.6,0.73-0.9,1.74-0.9,3.03v12.38h-6.59
		V37.54c0-1.11-0.27-1.99-0.81-2.63c-0.54-0.64-1.32-0.97-2.35-0.97c-1.08,0-1.93,0.37-2.52,1.1c-0.6,0.73-0.9,1.74-0.9,3.03v12.38
		h-6.59V28.49h6.59v2.02c1.2-1.76,3.16-2.63,5.88-2.63c2.55,0,4.46,0.97,5.75,2.9C117.73,28.84,119.86,27.88,122.75,27.88z"/>
	<rect x="135.62" y="28.49" class="st0" width="6.59" height="21.96"/>
	<path class="st0" d="M159.9,27.88c2.34,0,4.3,0.81,5.86,2.42c1.57,1.61,2.35,3.84,2.35,6.67v13.48h-6.59V37.93
		c0-1.29-0.36-2.28-1.08-2.96c-0.72-0.69-1.63-1.03-2.74-1.03c-1.26,0-2.25,0.38-2.99,1.14c-0.73,0.76-1.1,1.89-1.1,3.38v11.99
		h-6.59V28.49h6.59v2.06C154.94,28.77,157.04,27.88,159.9,27.88z"/>
	<path class="st0" d="M191.43,31.24c-1.37-1.36-2.91-2.3-4.64-2.83v7.35c0.96,0.96,1.44,2.21,1.44,3.72c0,1.52-0.48,2.77-1.45,3.73
		c-0.97,0.97-2.17,1.45-3.6,1.45c-1.43,0-2.63-0.48-3.6-1.45c-0.97-0.97-1.45-2.21-1.45-3.73c0-1.52,0.48-2.77,1.45-3.73
		c0.03-0.03,0.06-0.06,0.1-0.09v-7.28c-1.78,0.53-3.36,1.48-4.75,2.87c-2.25,2.24-3.38,4.98-3.38,8.23c0,3.25,1.13,5.99,3.38,8.23
		c2.25,2.24,5,3.36,8.25,3.36c3.25,0,6-1.12,8.26-3.36c2.25-2.24,3.38-4.98,3.38-8.23C194.82,36.22,193.69,33.48,191.43,31.24z"/>
	<path class="st0" d="M211.41,27.88c2.34,0,4.3,0.81,5.86,2.42c1.57,1.61,2.35,3.84,2.35,6.67v13.48h-6.59V37.93
		c0-1.29-0.36-2.28-1.08-2.96c-0.72-0.69-1.63-1.03-2.74-1.03c-1.26,0-2.25,0.38-2.99,1.14c-0.73,0.76-1.1,1.89-1.1,3.38v11.99
		h-6.59V28.49h6.59v2.06C206.45,28.77,208.54,27.88,211.41,27.88z"/>
	<text transform="matrix(1 0 0 1 143.2695 63.2959)" class="st1 st2 st3">Game On, Level Up</text>
	<path class="st1" d="M183.31,36.65h-0.16c-1.17,0-2.12-0.95-2.12-2.12v-6.26c0-1.17,0.95-2.12,2.12-2.12h0.16
		c1.17,0,2.12,0.95,2.12,2.12v6.26C185.44,35.7,184.49,36.65,183.31,36.65z"/>
</g>
</svg>
